<svg xmlns="http://www.w3.org/2000/svg" viewBox="0 0 32 40"><path d="M3 6a2 2 0 0 1 2-2h5.14L5.247 8.893A3 3 0 0 1 3 6Zm23 3V8a4 4 0 0 0-4-4h-4.172l5 5Zm-1 1H6a1.982 1.982 0 0 1-.4-.041A3.991 3.991 0 0 1 2 6v19a5.006 5.006 0 0 0 5 5h18a5.006 5.006 0 0 0 5-5v-1h-5a3 3 0 0 1-3-3v-2a3 3 0 0 1 3-3h5v-1a5.006 5.006 0 0 0-5-5Zm-1 9v2a1 1 0 0 0 1 1h5v-4h-5a1 1 0 0 0-1 1ZM9.382 9l4.6-4.6 4.6 4.6h2.828l-6.719-6.723a1 1 0 0 0-1.414 0L6.554 9Z"/><path fill="none" d="M0 0h32v32H0z"/><text y="47" font-size="5" font-weight="bold" font-family="'Helvetica Neue', Helvetica, Arial-Unicode, Arial, Sans-serif">Created by Iconzilla.id</text><text y="52" font-size="5" font-weight="bold" font-family="'Helvetica Neue', Helvetica, Arial-Unicode, Arial, Sans-serif">from the Noun Project</text></svg>