<svg xmlns="http://www.w3.org/2000/svg" xml:space="preserve" width="10.667" height="8"><path d="M71.305 40.234c0 9.09-7.368 16.461-16.461 16.461-5.934 0-11.117-3.156-14.016-7.867-2.894 4.711-8.082 7.867-14.016 7.867-9.09 0-16.46-7.37-16.46-16.46 0-4.95 2.195-9.38 5.652-12.395L39.328 4.516a2.12 2.12 0 0 1 1.5-.621c.566 0 1.106.222 1.504.62L65.656 27.84c3.457 3.016 5.649 7.445 5.649 12.394z" style="fill:none;stroke:#333;stroke-width:2.16;stroke-linecap:butt;stroke-linejoin:miter;stroke-miterlimit:22.9256;stroke-dasharray:none;stroke-opacity:1" transform="matrix(.13333 0 0 -.13333 0 8)"/></svg>