<svg xmlns="http://www.w3.org/2000/svg" xml:space="preserve" viewBox="0 0 26.667 16"><path d="M26.365 9.05v2.289c0 .57-.463 1.034-1.034 1.034h-1.106a2.84 2.84 0 0 0-2.809-2.426 2.839 2.839 0 0 0-2.805 2.426H9.215A2.839 2.839 0 0 0 6.41 9.947a2.84 2.84 0 0 0-2.805 2.426H2.22a1.034 1.034 0 0 1-1.034-1.034V9.05ZM8.305 3.528h-.588l-.216 1.117h.573c.382 0 .7-.262.7-.7 0-.266-.177-.417-.468-.417zm15.258 9.254a2.146 2.146 0 0 1-4.29 0 2.146 2.146 0 1 1 4.29 0zm-1.072 0a1.073 1.073 0 0 0-2.144 0c0 .59.48 1.072 1.072 1.072.59 0 1.072-.482 1.072-1.072zm-13.938 0a2.144 2.144 0 1 1-4.287 0 2.144 2.144 0 1 1 4.287 0zm-1.072 0a1.07 1.07 0 1 0-2.143 0 1.073 1.073 0 0 0 2.143 0zM26.364 8.48H1.185V1.56c0-.572.466-1.033 1.034-1.033h15.623c.573 0 1.034.461 1.034 1.033v.77h2.05c.362 0 .71.144.968.399l4.063 4.017c.259.26.407.61.407.98zM4.854 4.54l.192-1.011h1.409l.105-.56H4.513l-.695 3.574h.643l.283-1.445H5.93l.106-.557zm3.768.498v-.01c.539-.176.816-.704.816-1.193 0-.366-.181-.643-.484-.774a1.256 1.256 0 0 0-.512-.091H7.179l-.695 3.573h.65l.256-1.334h.644l.453 1.334h.694L8.703 5.22a.805.805 0 0 0-.08-.182zm3.964-2.068h-2.133l-.7 3.573h2.22l.105-.559h-1.57l.186-.961h1.203l.11-.558h-1.202l.181-.936h1.49zm2.883 0h-2.134l-.699 3.573h2.22l.105-.559h-1.57l.186-.961h1.203l.11-.558h-1.202l.18-.936h1.49zm8.827 3.63-3.18-3.036a.174.174 0 0 0-.114-.045h-.747a.162.162 0 0 0-.163.162v3.036c0 .09.073.162.163.162h3.931a.162.162 0 0 0 .11-.28"/></svg>