<svg xmlns="http://www.w3.org/2000/svg" xml:space="preserve" width="26.667" height="16"><path d="M197.734 52.125V34.961a7.756 7.756 0 0 0-7.754-7.758h-8.296c-1.496 10.29-10.36 18.195-21.063 18.195-10.672 0-19.539-7.906-21.035-18.195H69.109c-1.496 10.29-10.363 18.195-21.035 18.195-10.676 0-19.539-7.906-21.039-18.195H16.648a7.756 7.756 0 0 0-7.753 7.758v17.164ZM62.293 93.543h-4.414l-1.625-8.379h4.3c2.868 0 5.247 1.961 5.247 5.246 0 2-1.32 3.133-3.508 3.133zm114.426-69.41c0-8.867-7.211-16.078-16.078-16.078-8.887 0-16.098 7.21-16.098 16.078 0 8.887 7.211 16.098 16.098 16.098 8.867 0 16.078-7.211 16.078-16.098zm-8.039 0c0 4.441-3.617 8.035-8.039 8.035a8.03 8.03 0 0 1-8.036-8.035c0-4.422 3.594-8.04 8.036-8.04 4.422 0 8.039 3.618 8.039 8.04zm-104.535 0c0-8.867-7.184-16.078-16.079-16.078-8.89 0-16.07 7.21-16.07 16.078 0 8.887 7.18 16.098 16.07 16.098 8.895 0 16.079-7.211 16.079-16.098zm-8.04 0a8.029 8.029 0 0 1-8.039 8.035 8.03 8.03 0 0 1-8.035-8.035c0-4.422 3.594-8.04 8.035-8.04 4.45 0 8.04 3.618 8.04 8.04zM197.728 56.41H8.891v51.895c0 4.289 3.488 7.75 7.75 7.75h117.175a7.74 7.74 0 0 0 7.754-7.75v-5.766h15.379c2.711 0 5.324-1.086 7.258-2.996l30.469-30.133a10.385 10.385 0 0 0 3.051-7.344zM36.41 85.953l1.434 7.59H48.41l.793 4.191h-15.36l-5.21-26.796h4.828l2.117 10.831h8.906l.793 4.184zm28.258-3.73v.074c4.039 1.32 6.117 5.281 6.117 8.945 0 2.75-1.36 4.828-3.629 5.809-1.09.492-2.414.683-3.844.683H53.84l-5.207-26.796H53.5l1.922 10h4.832l3.398-10h5.207l-3.586 9.921c-.34.985-.605 1.364-.605 1.364zm29.73 15.511h-16l-5.246-26.796h16.645l.789 4.187H78.813l1.394 7.21h9.024l.828 4.188h-9.02l1.36 7.02H93.57zm21.618 0h-16l-5.243-26.796h16.641l.793 4.187H100.43l1.398 7.21h9.02l.832 4.188h-9.02l1.356 7.02h11.168zm66.207-27.238-23.856 22.766c-.23.207-.543.336-.851.336h-5.606a1.217 1.217 0 0 1-1.219-1.215v-22.77c0-.672.547-1.215 1.219-1.215h29.485c1.085 0 1.628 1.344.828 2.098" style="fill:#0ff;fill-opacity:1;fill-rule:evenodd;stroke:none" transform="matrix(.13333 0 0 -.13333 0 16)"/></svg>