<svg xmlns="http://www.w3.org/2000/svg" xml:space="preserve" width="10.667" height="10.667"><path d="M77.129 54.71c-.168 3.825-.785 6.458-1.672 8.735a17.59 17.59 0 0 1-4.164 6.387 17.769 17.769 0 0 1-6.371 4.152c-2.293.883-4.91 1.504-8.734 1.672-3.852.184-5.079.223-14.856.223-9.773 0-10.996-.04-14.836-.211-3.824-.168-6.457-.785-8.734-1.672a17.574 17.574 0 0 1-6.387-4.164 17.757 17.757 0 0 1-4.148-6.371c-.887-2.293-1.504-4.91-1.672-8.734-.184-3.856-.227-5.079-.227-14.852 0-9.777.043-11 .211-14.84.168-3.824.785-6.457 1.672-8.734a17.795 17.795 0 0 1 4.164-6.387c1.8-1.828 3.98-3.25 6.371-4.148 2.293-.887 4.91-1.508 8.738-1.676 3.836-.168 5.063-.207 14.836-.207 9.774 0 11 .039 14.84.207 3.824.168 6.457.789 8.735 1.676A18.4 18.4 0 0 1 75.43 16.3c.886 2.293 1.504 4.91 1.672 8.734.168 3.84.21 5.063.21 14.84 0 9.773-.011 10.996-.183 14.836zm-12.25 4.392a4.313 4.313 0 0 0-4.317-4.317 4.316 4.316 0 1 0 0 8.633 4.315 4.315 0 0 0 4.317-4.316zm-23.547-.73c-10.21 0-18.492-8.29-18.492-18.497 0-10.21 8.281-18.496 18.492-18.496 10.215 0 18.496 8.285 18.496 18.496 0 10.207-8.281 18.496-18.496 18.496zm0-30.497c-6.621 0-11.996 5.375-11.996 12 0 6.621 5.375 11.996 11.996 11.996 6.629 0 12-5.375 12-11.996 0-6.625-5.371-12-12-12zm29.313-2.559c-.153-3.515-.743-5.418-1.239-6.683a11.937 11.937 0 0 0-6.832-6.832c-1.27-.496-3.18-1.086-6.683-1.242-3.797-.164-4.938-.207-14.543-.207-9.606 0-10.758.043-14.543.207-3.516.156-5.414.746-6.68 1.242a11.028 11.028 0 0 0-4.137 2.683 11.228 11.228 0 0 0-2.687 4.133c-.489 1.27-1.082 3.184-1.235 6.684-.172 3.797-.21 4.937-.21 14.543 0 9.61.038 10.761.21 14.547.153 3.515.746 5.414 1.235 6.68a10.951 10.951 0 0 0 2.703 4.132 11.18 11.18 0 0 0 4.133 2.688c1.27.492 3.18 1.082 6.683 1.238 3.797.168 4.938.21 14.543.21 9.617 0 10.758-.042 14.543-.21 3.516-.156 5.414-.746 6.68-1.238a11.039 11.039 0 0 0 4.137-2.688 11.14 11.14 0 0 0 2.683-4.133c.496-1.265 1.086-3.18 1.238-6.68.172-3.8.211-4.937.211-14.546 0-9.606-.039-10.73-.21-14.528" style="fill:#4d4d4d;fill-opacity:1;fill-rule:nonzero;stroke:none" transform="matrix(.13333 0 0 -.13333 0 10.667)"/></svg>