<svg xmlns="http://www.w3.org/2000/svg" xml:space="preserve" viewBox="0 0 345.44 77.11"><path d="M60.79 0H43.78c0 13.96-6.4 26.7-17.54 35.09l-6.71 5.03 26.08 35.55h21.43L43.02 42.94C54.38 31.66 60.79 16.4 60.79 0zm268.63 21.97c-2.05 0-3.73 1.67-3.73 3.74.07 2.06 1.68 3.74 3.73 3.74a3.74 3.74 0 0 0 0-7.48zm0 6.79c-1.67 0-2.97-1.38-2.97-3.05 0-1.68 1.37-3.06 2.97-3.06 1.68 0 2.98 1.38 2.98 3.06 0 1.67-1.37 3.05-2.98 3.05zm6.18 28.37c-5.41 0-9.84 4.43-9.84 9.84 0 5.42 4.43 9.84 9.84 9.84 5.42 0 9.84-4.42 9.84-9.84 0-5.49-4.42-9.84-9.84-9.84zM0 0h17.39v75.67H0V0zm72.08 0h16.4v75.67h-16.4V0zm160.25 21.89c-6.25 0-12.2 1.91-16.17 7.32v-5.87H200.6v52.33h15.79V48.21c0-7.93 5.34-11.82 11.74-11.82 6.87 0 10.83 4.11 10.83 11.74v27.61h15.64V42.41c0-12.2-9.68-20.52-22.27-20.52zm-94.27 1.45v3.36c-4.43-3.06-9.77-4.81-15.57-4.81-15.25 0-27.61 12.36-27.61 27.61 0 15.26 12.36 27.61 27.61 27.61 5.8 0 11.14-1.75 15.57-4.8v3.36h15.63V23.34h-15.63zm-14.27 39.59c-7.86 0-14.18-6.03-14.18-13.43 0-7.4 6.32-13.42 14.18-13.42 7.86 0 14.19 6.02 14.19 13.42s-6.33 13.43-14.19 13.43zm54.16-32.8v-6.79h-16.02v52.33h16.09V51.26c0-8.24 8.93-12.66 15.1-12.66h.16V23.34c-6.33 0-12.21 2.75-15.33 6.79zm125.31-6.79v3.36c-4.42-3.06-9.76-4.81-15.56-4.81-15.25 0-27.61 12.36-27.61 27.61 0 15.26 12.36 27.61 27.61 27.61 5.8 0 11.14-1.75 15.56-4.8v3.36h15.64V23.34h-15.64zM289 62.93c-7.86 0-14.19-6.03-14.19-13.43 0-7.4 6.33-13.42 14.19-13.42 7.86 0 14.19 6.02 14.19 13.42.07 7.4-6.33 13.43-14.19 13.43zm42.03-38.07c0-.76-.54-1.22-1.38-1.22h-1.45v3.97h.69v-1.45h.76l.62 1.45h.76l-.69-1.6c.46-.23.69-.61.69-1.15zm-1.38.62h-.76v-1.22h.76c.46 0 .69.23.69.6 0 .39-.15.62-.69.62z" style="fill:#ffb3c8"/></svg>