<svg xmlns="http://www.w3.org/2000/svg" xml:space="preserve" width="29.333" height="12"><path d="M123.652 52.984h6.016l1.824 4.465h9.02l1.82-4.465h6.012l-10.934 25.97h-5.375l1.457-3.462-9.84-22.508zm.184 5.012-4.375 2.55-.273-.452c-1.004-1.551-2.372-2.367-4.008-2.367-2.825 0-5.012 2.183-5.012 5.007 0 2.825 2.187 5.016 5.012 5.016 1.73 0 3.004-.734 4.008-2.375l.367-.453 4.371 2.55-.363.548c-2.098 3.007-4.833 4.464-8.293 4.464-6.649 0-10.204-5.011-10.204-9.75 0-4.738 3.555-9.843 10.204-9.843 3.371 0 6.562 1.734 8.293 4.468zM93.301 42.04c-1.871.715-2.907 1.035-4.817 1.035-2.058 0-4.492-.715-4.492-3.308 0-4.77 11.04-3.664 11.04-11.848 0-5.3-4.231-7.399-9.38-7.399-1.804 0-3.57.493-5.258 1.032l.368 3.308c1.254-.5 3.453-1.21 5.332-1.21 2.093 0 5.039 1.14 5.039 4.058 0 5.543-11.035 4.02-11.035 11.738 0 4.41 3.601 6.758 8.234 6.758 1.695 0 3.719-.285 5.484-.89zm112.98 4.164h3.496v-.73h-1.457v-3.79h-.726v3.79h-1.457v.73zm4.082 0h1.02l1.164-3.5 1.164 3.5h1.023v-4.375h-.437v3.356l-1.164-3.356h-.586l-1.457 3.356v-3.356h-.727zm-22.066-.43h14.375v-3.129h-10.699v-7.253h9.746v-3.133h-9.746v-8.18h10.699v-3.133h-14.375zM169.504 35.11h3.133c3.492 0 5.554 1.489 5.554 3.871 0 2.243-1.765 3.665-5.152 3.665h-3.535zm-3.668 10.664h6.285c5.074 0 9.965-.777 9.965-6.718 0-3.024-2.313-5.16-5.297-5.657v-.07c1.149-.43 1.695-.96 2.504-2.496l4.855-9.887h-4.191l-3.941 8.606c-1.137 2.426-2.348 2.426-4.301 2.426h-2.211V20.945h-3.668zm-5.856-14.546c0-6.97-3.644-10.707-9.964-10.707-6.332 0-9.969 3.738-9.969 10.707v14.546h3.676V31.691c0-4.77 1.547-8.043 6.293-8.043 4.742 0 6.285 3.274 6.285 8.043v14.082h3.679zm-23.242 10.457a10.586 10.586 0 0 1-5.3 1.39c-5.918 0-9.856-4.133-9.856-9.71 0-5.837 4.34-9.716 9.676-9.716 1.836 0 4.305.465 5.59 1.211l.218-3.453c-1.949-.785-4.336-.887-5.843-.887-8.133 0-13.535 5.051-13.535 12.946 0 7.648 5.734 12.738 13.57 12.738 1.98 0 3.933-.285 5.769-1.066zm-36.523 4.09h14.383v-3.13h-10.703v-7.253h9.75v-3.133h-9.75v-8.18h10.703v-3.133h-14.383ZM17.18 31.893v29.243l18.355-8.672 18.555 8.672V31.895l-18.555-8.672Zm18.355 34.688L4.273 81.102V23.625L35.535 9.102l31.258 14.523v57.477zm157.188 5.902c-6.653 0-10.207-5.011-10.207-9.75 0-4.738 3.554-9.75 10.207-9.75 3.007 0 5.922 1.457 8.105 3.918l-4.281 2.371c-1.09-1.093-2.457-1.73-3.918-1.73-2.188 0-4.102 1.457-4.555 3.277h14.305v1.278c0 7.199-5.649 10.386-9.656 10.386zm-4.555-7.379c.727 1.82 2.184 2.82 4.102 2.82 1.91 0 3.46-1 4.277-2.82zm-16.953 7.38c-6.649 0-10.203-5.012-10.203-9.75 0-4.739 3.554-9.75 10.203-9.75 3.008 0 5.926 1.456 8.113 3.917l-4.285 2.371c-1.094-1.093-2.457-1.73-3.914-1.73-2.191 0-4.106 1.457-4.559 3.277h14.305v1.278c0 7.199-5.648 10.386-9.66 10.386zm-4.555-7.29c.731 1.82 2.192 2.824 4.102 2.824 1.914 0 3.461-1.003 4.281-2.824zM80.098 79.137V52.984h5.742v14.942l5.558-4.098 5.559 4.098V52.984h5.738v26.153L91.398 70.57Zm70.617-26.153H156v11.664h3.461v4.918H156v2.278c0 1.004.637 2.008 1.91 2.008.641 0 1.098-.094 1.461-.274l.547-.273 2.187 4.738-.636.273c-1.004.364-2.371.547-3.281.547-2.372 0-4.375-.82-5.649-2.277-1.184-1.277-1.824-3.098-1.824-5.012v-2.097h-2.371v-4.918h2.281zM135.953 68.75l2.461-6.106h-4.922z" style="fill:#333;fill-opacity:1;fill-rule:evenodd;stroke:none" transform="matrix(.13333 0 0 -.13333 0 12)"/></svg>