<svg xmlns="http://www.w3.org/2000/svg" xml:space="preserve" style="shape-rendering:geometricPrecision;text-rendering:geometricPrecision;image-rendering:optimizeQuality;fill-rule:evenodd;clip-rule:evenodd" viewBox="0 0 1442.63 1388.02"><path class="fil0" d="M310.59 1388.02c-6.53 0-12.76-2.42-17.51-7.05L7.09 1094.22c-9.45-9.35-9.45-24.8 0-34.37l285.99-287.1c6.99-6.87 17.51-9.11 26.67-5.22 9.18 3.52 15.04 12.63 15.04 22.56v177.54h783.7c21.69 0 39.37-17.68 39.37-39.27V728.55c0-6.52 2.54-12.68 7-17.33l191.36-192.12c6.94-6.94 17.63-9.16 26.67-5.34 9.23 3.88 15.16 12.92 15.16 22.68V970.8c0 155.14-81.99 237.08-237.01 237.08h-826.2v155.86c0 9.82-5.88 18.69-15.04 22.33-2.93 1.23-6.28 1.94-9.23 1.94l.02.01zM68.82 876.47c-3.23 0-6.36-.71-9.36-1.94-9.16-3.69-15.16-12.51-15.16-22.5V417.72c0-155.2 81.81-237.02 237.01-237.02h826.54V24.43c0-9.7 5.94-18.64 15.05-22.63 9.28-3.59 19.69-1.82 26.73 5.41l285.87 286.51c9.51 9.51 9.51 25.09 0 34.54l-285.87 286.92c-6.99 7.1-17.4 9.29-26.69 5.35-9.11-3.7-15.04-12.69-15.04-22.68V420.72H323.67c-21.57 0-39.02 17.63-39.02 39.32v199.88c0 6.47-2.54 12.53-7.29 17.4L85.87 869.2c-4.53 4.7-10.63 7.29-17.09 7.29l.04-.02z"/></svg>