<svg xmlns="http://www.w3.org/2000/svg" xml:space="preserve" style="shape-rendering:geometricPrecision;text-rendering:geometricPrecision;image-rendering:optimizeQuality;fill-rule:evenodd;clip-rule:evenodd" viewBox="0 0 40.29 49.21"><path class="fil0" d="M22.64 14.45c.71 0 4.46.36 4.64 1.07.35.71-2.5 3.03-3.21 3.57.18.89 1.07 4.45.53 4.81-.53.53-3.74-1.43-4.45-1.96-.72.53-3.75 2.49-4.46 1.96-.54-.36.36-3.92.53-4.81-.71-.54-3.56-2.86-3.21-3.57.18-.71 3.93-1.07 4.64-1.07.36-.71 1.78-4.28 2.5-4.28.71 0 2.14 3.57 2.49 4.28zm-2.49-9.63c6.77 0 12.3 5.53 12.3 12.3 0 6.78-5.53 12.31-12.3 12.31-6.78 0-12.31-5.53-12.31-12.31 0-6.77 5.53-12.3 12.31-12.3zm0 1.25c-6.07 0-11.06 4.99-11.06 11.05 0 6.07 4.99 11.06 11.06 11.06 6.06 0 11.05-4.99 11.05-11.06 0-6.06-4.99-11.05-11.05-11.05zm-.18-4.28c7.66-2.49 5.88-3.21 9.98 3.39 7.49 2.85 6.6 1.07 5.35 8.74 3.92 6.95 4.28 4.99-1.61 9.98-.71 2.67-.89 4.28-1.24 5.35l7.84 14.08-7.84-1.78-2.68 7.66-8.38-15.33c-.89.54-1.42.54-2.49-.18l-8.38 15.51-2.68-7.66L0 43.33l7.84-14.26c-.35-.89-.53-2.32-1.07-4.81-5.88-5.17-5.7-3.21-1.96-9.99-1.07-7.84-2.14-6.24 5.35-8.91 4.28-6.6 2.32-6.06 9.81-3.57zm.18 1.96c7.31 0 13.37 6.06 13.37 13.37S27.46 30.5 20.15 30.5 6.77 24.43 6.77 17.12c0-7.3 6.07-13.37 13.38-13.37z"/></svg>