<svg xmlns="http://www.w3.org/2000/svg" xml:space="preserve" width="16" height="16"><path d="M69.215 29.36c0 14.777 11.984 26.761 26.762 26.761 3.113 0 5.125-.371 7.238-.996 1.422-.602 1.965.586 2.113 1.137.965 3.613 1.508 7.297 1.508 11.007 0 .247-.141 31.836-.141 32.223 0 3.117-1.781 3.11-2.582 3.106-5.719-.028-11.547-.028-17.676 1.738-12.738 3.672-24.062 13.652-28.367 13.652-4.172 0-12.582-9.98-25.32-13.652-7.184-2.07-14.07-1.688-20.512-1.387-.758.035-1.965.235-2.347-2.39-.098-.66-.586-32.934-.586-33.29 0-31.53 39.004-61.148 48.761-61.148 3.125 0 8.157 2.512 14.93 7.55.899.778.414 1.298.149 1.731a26.636 26.636 0 0 0-3.93 13.957zm26.933-13.65c-.902-.968-2.511-1.12-3.578-.331L75.621 27.91a2.396 2.396 0 0 0-.488 3.356l2.176 2.89a2.458 2.458 0 0 0 3.394.496l10.867-7.976c1.07-.781 2.68-.63 3.578.344l15.34 16.054a2.408 2.408 0 0 0 3.403.125l2.648-2.46a2.427 2.427 0 0 0 .125-3.41L96.148 15.71" style="fill:#0ff;fill-opacity:1;fill-rule:evenodd;stroke:none" transform="matrix(.13333 0 0 -.13333 0 16)"/></svg>