<svg xmlns="http://www.w3.org/2000/svg" xml:space="preserve" style="shape-rendering:geometricPrecision;text-rendering:geometricPrecision;image-rendering:optimizeQuality;fill-rule:evenodd;clip-rule:evenodd" viewBox="0 0 28.21 24.38"><path class="fil0" d="M16.22 7.38c1.05 0 1.91.72 1.91 1.62h.65c.45 0 .81.37.81.81v5.11c0 .45-.36.81-.81.81h-5.12c-.45 0-.82-.36-.82-.81V9.81c0-.44.37-.81.82-.81h.65c0-.9.85-1.62 1.91-1.62zM16.02 0C9.3 0 3.84 5.47 3.84 12.19v.04L1.42 8.6a.765.765 0 0 0-1.07-.22c-.36.23-.46.72-.22 1.07l3.5 5.27c.13.19.33.31.55.34.04.01.06.01.1.01.19 0 .37-.07.52-.21l4.86-4.38c.32-.28.35-.77.06-1.1a.785.785 0 0 0-1.1-.05l-3.23 2.92v-.06c0-5.87 4.77-10.64 10.63-10.64 5.86 0 10.63 4.77 10.63 10.64 0 5.86-4.77 10.63-10.63 10.63-2.83 0-5.51-1.1-7.51-3.11a.767.767 0 0 0-1.1 0c-.3.3-.3.79 0 1.1 2.3 2.3 5.36 3.57 8.61 3.57 6.72 0 12.19-5.47 12.19-12.19C28.21 5.46 22.74 0 16.02 0zm-1.27 9h2.93c0-.69-.66-1.24-1.46-1.24-.81 0-1.46.55-1.47 1.24z"/></svg>