<svg xmlns="http://www.w3.org/2000/svg" height="252" width="218.667" xml:space="preserve"><path style="fill:#333;fill-opacity:1;fill-rule:evenodd;stroke:none" d="M757.715 1703.78c-85.145 44.6-12.16 129.74 36.492 89.2 4.055 0 12.164-8.11 36.492 0 4.051 0 40.543 28.38 68.93-4.05 16.215-16.22 20.273-44.6 0-64.88 4.051-4.05 8.109-12.16 12.16-16.21 178.401 8.1 324.371 28.37 478.441 64.87v81.09c0 16.22-16.21 28.38-32.43 24.33-425.734-97.32-952.835-20.28-1082.581 4.05-16.219 4.05-32.438-8.11-32.438-24.33v-85.15c174.348-44.59 340.586-64.86 514.934-68.92zm-24.324-85.15c0-8.11 12.164-12.16 12.164 0 8.109 68.93 60.82 109.48 68.929 113.53 4.051-4.05 56.762-24.32 77.036-113.53 4.054-8.11 16.222-4.05 12.164 4.06-16.215 68.92-48.653 101.36-68.93 113.52 4.055 0 12.164 4.06 16.219 4.06 4.054-4.06 8.109-8.11 16.218-8.11 28.383 0 28.383 40.54 0 40.54-12.164 0-20.273-8.11-20.273-20.27-28.383-8.11-48.656-8.11-60.82 0v4.06c0 12.16-8.11 20.27-20.27 20.27-28.383 0-28.383-40.55 0-40.55 4.051 0 12.16 4.06 12.16 4.06 4.055 0 8.11-4.06 12.164-4.06-16.214-20.27-52.707-56.76-56.761-117.58zM1633.52 207.641c-223.01-93.254-527.11-162.184-754.165-72.985 0-16.215 0-28.379 4.055-36.488 0-24.328 16.219-48.656 40.547-56.766 239.223-97.308 551.423 12.164 673.063 60.821 28.39 12.164 44.61 40.543 40.55 68.925-4.05-4.054-4.05 8.11-4.05 36.493zm-4.06 28.379c-12.16 202.73-52.71 819.02-125.69 1208.26-166.24 40.55-267.61 206.79-295.99 255.44-93.26-16.21-182.46-24.32-279.768-28.38 4.054-12.16 8.109-28.38 12.164-40.54 12.16-60.82-77.039-81.09-93.258-20.27-8.109 28.38-16.219 48.65-24.328 60.82l-16.215-.01c-8.113-12.16-20.273-32.44-20.273-56.77-4.055-64.87-129.75-68.92-85.149 56.77-93.258 4.05-186.515 12.16-275.715 28.38-28.383-52.71-129.746-214.89-295.988-255.44C60.324 1059.1 15.719 438.75 7.61 236.02c113.531-48.653 482.503-186.512 754.16-72.981 12.164 198.672 44.601 766.313 44.601 766.313s4.055 28.382 16.215 32.437c12.164 0 16.223-32.437 16.223-32.437 8.105-137.856 32.433-575.747 44.597-766.313 267.604-113.531 632.524 24.328 746.054 72.981zM3.555 207.641v-36.493c0-4.05 0-4.05 0 0-4.051-28.378 12.164-60.82 40.547-68.925 117.582-48.653 433.843-158.13 673.07-60.82 24.324 8.105 40.543 32.433 40.543 56.765 0 4.055 0 16.219 4.055 36.488-231.11-89.199-531.157-20.269-758.215 72.985Zm393.3 1496.139c-60.82 12.16-117.585 24.33-174.347 36.49-32.438-40.55-56.766-137.86-85.153-263.55 141.915 40.55 235.172 182.46 259.5 227.06zm1102.855-227.06c-24.32 125.69-52.71 223-85.15 263.55-56.76-16.22-117.58-28.38-178.4-36.49 28.38-44.6 121.64-186.51 263.55-227.06" transform="matrix(.13333 0 0 -.13333 0 252)"/></svg>