<svg xmlns="http://www.w3.org/2000/svg" xml:space="preserve" style="shape-rendering:geometricPrecision;text-rendering:geometricPrecision;image-rendering:optimizeQuality;fill-rule:evenodd;clip-rule:evenodd" viewBox="0 0 42645 34651"><path d="M42645 4103c-1569 697-3255 1162-5026 1376 1806-1089 3197-2798 3848-4843-1689 1000-3565 1736-5556 2127C34315 1062 32040 0 29526 0c-4836 0-8749 3917-8749 8749 0 678 81 1348 229 1995-7269-368-13720-3851-18037-9144-752 1294-1178 2790-1178 4402 0 3034 1538 5707 3890 7277-1438-50-2786-442-3964-1097v108c0 4243 3018 7773 7013 8582-732 198-1503 302-2305 302-562 0-1112-46-1643-147 1112 3468 4344 6002 8168 6068-2991 2348-6761 3747-10857 3747-713 0-1407-35-2092-116 3875 2476 8470 3925 13418 3925 16088 0 24887-13329 24887-24891 0-376-8-759-27-1135 1713-1224 3189-2770 4367-4522z" style="fill:#333"/></svg>