<svg xmlns="http://www.w3.org/2000/svg" height="306.667" width="456" xml:space="preserve"><path style="fill:#333;fill-opacity:1;fill-rule:evenodd;stroke:none" d="M2261.68 225.262 3321.01 1300.91c-586.78-144.75-925.93-489.574-1059.33-1075.648ZM3412.55 1394.57l-65.98 612.33h-4.26c-377.06-33.7-763.02-54.83-1151.74-63.23 6.3-440.21 323.4-876.15 388.1-960.272 217.4 217.892 502.49 345.082 833.87 410.462l.01.71zM2159.52 120.957c.71.707.71.707.71 1.422 40.57 66.484 57.89 459.746 368.69 809.133-55.01 69.608-402.78 529.728-409.3 1011.388-103.44-1.82-206.94-3.4-310.62-3.4l-63.85-.01c-143.92.58-289.65 3.19-436.44 7.23-3.04-497.11-372.241-972.388-412.511-1022.65 323.641-352.972 319.191-751.429 358.661-806.664 23.42-36.898 66.69-62.441 111.39-72.37 226.35-46.825 451.27-47.532 678.31-2.13 46.84 9.223 90.83 37.61 114.96 78.051zM79.156 2018.96 7.492 1406.63v-.7l.715-.01c332.606-86.56 621.336-220.49 837.543-431.049 56.125 72.339 390.16 523.109 392.08 974.459-377.916 11.8-763.475 34.23-1152.982 68.92zm1666.514-8.3c542.95-1.9 1074.42 20.79 1590.12 66.64l-12.52 143-7.01 60.66C2267.55 2185 1199 2193.08 110.535 2292.19l-4.476-41.86-15.004-161.69c560.121-49.6 1113.095-76.09 1654.615-77.98Zm-1639.549-706.2L1154.11 221.004C1054.77 768.758 719.867 1116.43 106.121 1304.46" transform="matrix(.13333 0 0 -.13333 0 306.667)"/></svg>