<svg width="230.667" height="161.333" xmlns="http://www.w3.org/2000/svg"><path d="m1302.93 412.91-118.72 189.985-51.84-82.973 118.71-189.988zm82.62 132.219-118.71 189.969-51.85-82.961 118.71-189.989 51.85 82.981" style="fill:#96989b;fill-opacity:1;fill-rule:evenodd;stroke:none" transform="matrix(.13333 0 0 -.13333 0 161.333)"/><path d="m870.852 2.89 344.138 550.755-30.78 49.25L809.309 2.891h-103.7l374.921 600.004-374.921 599.995h103.7l323.061-517.031 323.06 517.031h103.7l-374.92-599.995 30.78-49.25 405.68 649.245h103.69l-457.52-732.226L1559.13 2.891h-103.69l-204.36 327.043 51.85 82.976-36.11 57.754L974.535 2.891Zm-668.27 383.508v98.286h9.953l55.508-84.344v84.344h8.75v-98.286h-10l-55.328 84.344v-84.344zm-82.684 0v98.286h64.344v-8.063h-55.324v-35.828h50.59v-7.813h-50.59v-38.519h56.988v-8.063zm-111.496 0v98.286h12.664L53.5 398.148l31.844 86.536h12.668v-98.286h-8.75v85.692l-31.547-85.692h-8.36L17.262 472.09v-85.692Zm702.489 286.215v-59.59h40.793c14.656 0 25.152 2.438 31.261 7.071 5.868 4.894 9.039 12.715 9.039 23.949 0 10.5-2.925 17.828-8.546 21.984-5.86 4.387-16.364 6.586-31.754 6.586zm-23.442 20.52h68.145c10.992 0 19.058-.492 24.426-1.461 5.128-.984 9.765-2.449 13.918-4.649 7.328-4.156 12.945-9.773 16.855-16.859 3.91-7.32 5.863-15.867 5.863-25.644 0-9.528-1.953-17.575-6.109-24.18-4.156-6.832-10.02-11.961-18.07-15.871 6.836-1.957 11.73-5.125 14.656-9.758 2.926-4.402 4.633-12.223 5.367-22.969l1.953-28.816c.492-6.36 1.219-11.004 2.449-13.93 1.219-3.168 3.168-5.371 5.606-6.586v-4.894h-27.59c-2.199 3.66-3.676 11.48-4.645 23.445v.734l-1.46 22.969c-.739 11.711-3.188 19.289-7.575 22.949-4.152 3.418-14.652 5.125-31.511 5.125h-38.586v-75.222h-23.692ZM531.34 517.516v175.617h125.297v-21.735h-101.61v-52.519h93.789v-20.52h-93.789v-58.867h103.547v-21.976ZM423.621 672.859h-41.039V539.016h41.039c17.582 0 30.77 5.621 39.809 17.089 9.035 11.481 13.429 28.336 13.429 50.567 0 21.488-4.644 37.848-13.679 49.086-9.278 11.48-22.473 17.101-39.559 17.101zm-64.976-155.343v175.617h66.929c24.414 0 43.227-7.324 56.172-21.985 13.188-14.648 19.547-35.664 19.547-63.25 0-28.582-6.602-50.808-20.273-66.695-13.438-15.867-32.247-23.687-56.43-23.687zm-176.383 0v175.617h26.125l82.078-127.5c1.953-2.922 3.414-5.371 4.875-7.809 1.23-2.691 2.449-4.89 3.183-7.094v142.403h22.711V517.516H295.34l-83.77 129.453c-1.23 1.953-2.445 3.914-3.664 6.113a176.308 176.308 0 0 0-2.937 6.836V517.516ZM8.355 584.195v108.938H32.29v-109.18c0-16.367 3.668-28.57 10.992-36.39 7.082-8.071 18.563-11.965 33.696-11.965 15.148 0 26.382 4.144 33.711 11.965 7.57 8.05 11.238 20.269 11.238 36.39v109.18h23.937V584.195c0-23.445-6.101-41.269-18.074-53.488-12.223-11.973-30.047-18.074-53.488-18.074-21.985 0-38.344 5.867-49.34 17.828-10.984 11.977-16.606 29.801-16.606 53.734ZM1724.36 2.891l-338.81 542.238-51.85-82.981L1620.67 2.891ZM1274.5 722.84l-7.66 12.258zm-59.51 95.238L974.535 1202.89H870.852l292.288-467.792 51.85 82.98" style="fill:#0ff;fill-opacity:1;fill-rule:evenodd;stroke:none" transform="matrix(.13333 0 0 -.13333 0 161.333)"/></svg>