<svg width="230.667" height="161.333" xmlns="http://www.w3.org/2000/svg"><path d="m426.297 418.84 118.715 189.988 51.847-82.976-118.711-189.989Zm-82.621 132.219 118.715 189.968 51.851-82.961-118.715-189.984-51.851 82.977" style="fill:#4d4d4d;fill-opacity:1;fill-rule:evenodd;stroke:none" transform="matrix(.13333 0 0 -.13333 0 161.333)"/><path d="M858.379 8.82 514.242 559.574l30.77 49.254L919.922 8.82h103.708L648.699 608.828l374.931 599.992H919.922L596.859 691.793 273.793 1208.82H170.098l374.914-599.992-30.77-49.254-405.687 649.246H4.867l457.524-732.222L170.098 8.82h103.687l204.363 327.043-51.851 82.977 36.105 57.758L754.691 8.82Zm788.281 383.512v98.297h9.95l55.52-84.356v84.356h8.75v-98.297h-10l-55.33 84.356v-84.356zm-82.69 0v98.297h64.35v-8.063h-55.33V446.73h50.6v-7.812h-50.6v-38.523h56.99v-8.063zm-111.51 0v98.297h12.67l32.44-86.543 31.84 86.543h12.67v-98.297h-8.75v85.699l-31.55-85.699h-8.36l-32.1 85.699v-85.699zm-98.25 49.047c0-13.441 3.21-24.082 9.61-31.941 6.4-7.836 15.08-11.774 26.04-11.774 10.98 0 19.7 3.918 26.15 11.75 6.45 7.84 9.68 18.5 9.68 31.965 0 13.531-3.23 24.234-9.68 32.117-6.45 7.863-15.17 11.801-26.15 11.801-10.82 0-19.46-3.961-25.95-11.914-6.47-7.949-9.7-18.61-9.7-32.004zm-9.34 0c0 15.945 4.05 28.543 12.14 37.836 8.11 9.316 19.04 13.969 32.85 13.969 13.82 0 24.8-4.653 32.92-13.969 8.13-9.293 12.18-21.891 12.18-37.836 0-15.926-4.05-28.547-12.18-37.84-8.12-9.297-19.1-13.941-32.92-13.941-13.81 0-24.74 4.644-32.85 13.941-8.09 9.293-12.14 21.914-12.14 37.84zm-97.85-49.047-25.42 98.297h8.89l21.89-84.742 21.75 84.742h11.07l21.44-84.742 22.15 84.742h8.6l-25.83-98.297h-9.86l-22.24 87.363-22.68-87.363zm362.24 286.215v-59.594h40.79c14.66 0 25.15 2.438 31.27 7.07 5.86 4.895 9.03 12.715 9.03 23.95 0 10.5-2.92 17.828-8.55 21.984-5.85 4.387-16.36 6.59-31.75 6.59zm-23.44 20.519h68.14c10.99 0 19.06-.496 24.43-1.464 5.13-.985 9.76-2.45 13.91-4.649 7.33-4.156 12.95-9.773 16.86-16.855 3.91-7.325 5.86-15.871 5.86-25.649 0-9.527-1.95-17.574-6.1-24.179-4.16-6.832-10.03-11.961-18.08-15.872 6.84-1.953 11.73-5.125 14.66-9.757 2.92-4.403 4.63-12.223 5.37-22.969l1.95-28.817c.49-6.355 1.22-11.003 2.45-13.929 1.22-3.168 3.17-5.371 5.6-6.586v-4.895h-27.58c-2.2 3.66-3.68 11.481-4.65 23.446v.734l-1.46 22.969c-.74 11.711-3.19 19.289-7.57 22.953-4.16 3.414-14.66 5.125-31.52 5.125h-38.58v-75.227h-23.69zM1429.7 523.445v175.621H1555v-21.738h-101.61v-52.519h93.79v-20.52h-93.79v-58.863h103.55v-21.981zm-107.72 155.344h-41.03v-133.84h41.03c17.59 0 30.78 5.617 39.81 17.086 9.04 11.485 13.44 28.34 13.44 50.567 0 21.492-4.65 37.847-13.69 49.089-9.27 11.481-22.47 17.098-39.56 17.098zm-64.97-155.344v175.621h66.93c24.42 0 43.22-7.328 56.17-21.988 13.19-14.648 19.55-35.66 19.55-63.25 0-28.578-6.61-50.805-20.27-66.695-13.44-15.867-32.25-23.688-56.44-23.688zm-176.38 0v175.621h26.12l82.08-127.503c1.95-2.922 3.41-5.372 4.88-7.805 1.22-2.695 2.44-4.895 3.18-7.098v142.406h22.71V523.445h-25.89l-83.77 129.453c-1.24 1.954-2.45 3.915-3.67 6.114-.98 2.183-1.95 4.386-2.94 6.836V523.445Zm-173.911 66.68v108.941h23.933V589.883c0-16.363 3.664-28.57 10.993-36.391 7.082-8.066 18.562-11.961 33.695-11.961 15.148 0 26.38 4.141 33.71 11.961 7.57 8.051 11.24 20.27 11.24 36.391v109.183h23.93V590.125c0-23.445-6.09-41.27-18.07-53.488-12.22-11.973-30.045-18.074-53.486-18.074-21.984 0-38.348 5.867-49.34 17.832-10.988 11.972-16.605 29.796-16.605 53.73zM4.867 8.82l338.809 542.24 51.851-82.977L108.555 8.82Zm449.867 719.95 7.657 12.257zm59.508 95.238 240.449 384.812h103.688L566.086 741.027l-51.844 82.981" style="fill:#e60094;fill-opacity:1;fill-rule:evenodd;stroke:none" transform="matrix(.13333 0 0 -.13333 0 161.333)"/></svg>