<svg xmlns="http://www.w3.org/2000/svg" width="432" height="303" style="shape-rendering:geometricPrecision;text-rendering:geometricPrecision;image-rendering:optimizeQuality;fill-rule:evenodd;clip-rule:evenodd"><path style="opacity:.95" fill="#e50093" d="M108.5 128.5c2.22 4.772 4.72 9.438 7.5 14 1.965 2.991 4.132 5.657 6.5 8a88.153 88.153 0 0 0 6 11 185.738 185.738 0 0 0 14 22 10326.607 10326.607 0 0 1 73 117c-9.227 1.317-18.393 1.317-27.5 0a10071.498 10071.498 0 0 0-59.5-95 94.28 94.28 0 0 0-14-22 88.153 88.153 0 0 0-6-11 246.402 246.402 0 0 0-14-22 16758.375 16758.375 0 0 1-93-149C10.727.183 19.893.183 29 1.5a18002.687 18002.687 0 0 0 79.5 127Z"/><path style="opacity:.947" fill="#e50093" d="M149.5 173.5a124.877 124.877 0 0 0-14-23 91.679 91.679 0 0 0-7-11 94.28 94.28 0 0 0-14-22 6170.298 6170.298 0 0 0-72-116 122.062 122.062 0 0 1 27-.5A13776.767 13776.767 0 0 1 129 95.5a8575.435 8575.435 0 0 1 58.5-94 131.23 131.23 0 0 1 28-.5A5602.181 5602.181 0 0 0 143 118.5c2.179 3.038 4.345 6.038 6.5 9A23582.22 23582.22 0 0 0 229.5 1a122.063 122.063 0 0 1 27 .5 17074.164 17074.164 0 0 0-93 149l93 150c-9 1.333-18 1.333-27 0a11920.706 11920.706 0 0 0-80-127Z"/><path style="opacity:.948" fill="#4e4c4d" d="M114.5 117.5a94.28 94.28 0 0 1 14 22 88.153 88.153 0 0 0-6 11c-2.368-2.343-4.535-5.009-6.5-8a141.951 141.951 0 0 1-7.5-14 88.153 88.153 0 0 0 6-11Z"/><path style="opacity:.839" fill="#e50093" d="M226.5 127.5h7c-.167 10.672 0 21.339.5 32 1.434 5.05 4.767 7.383 10 7 4.732.302 8.065-1.698 10-6 .5-10.995.667-21.995.5-33h7a243.15 243.15 0 0 1-1.5 37c-3.328 6.336-8.662 9.336-16 9-7.621.861-12.954-2.139-16-9a243.15 243.15 0 0 1-1.5-37Z"/><path style="opacity:.812" fill="#e50093" d="M269.5 127.5c3.507-.506 6.674.16 9.5 2l19 30c.5-10.661.667-21.328.5-32h7v45c-3.185.48-6.019-.186-8.5-2a751.676 751.676 0 0 0-20-31 544.417 544.417 0 0 0-.5 33h-7v-45Z"/><path style="opacity:.839" fill="#e50093" d="M314.5 127.5c8.735-.376 17.402.124 26 1.5 7.452 4.739 10.786 11.573 10 20.5.828 11.539-4.172 19.039-15 22.5-6.992.5-13.992.666-21 .5v-45Zm7 6c18.592-1.524 25.425 6.809 20.5 25a17.842 17.842 0 0 1-4.5 5.5c-5.208 1.397-10.541 1.897-16 1.5v-32Z"/><path style="opacity:.844" fill="#e50093" d="M357.5 127.5h32v6h-25v13h23v6h-23v13c8.34-.166 16.673 0 25 .5 1.076 1.726 1.243 3.559.5 5.5a268.978 268.978 0 0 1-32.5 1v-45Zm39 0c8.007-.166 16.007 0 24 .5 7.673 2.842 10.506 8.342 8.5 16.5a17.842 17.842 0 0 1-4.5 5.5c2.223.652 3.39 2.152 3.5 4.5a95.843 95.843 0 0 0 2.5 18c-2.619.268-5.119-.065-7.5-1a89.56 89.56 0 0 0-3.5-16.5c-5.208-1.397-10.541-1.897-16-1.5v19h-7v-45Zm7 6a98.432 98.432 0 0 1 14 .5c6.667 4.333 6.667 8.667 0 13a98.432 98.432 0 0 1-14 .5v-14Z"/><path style="opacity:.944" fill="#4e4c4d" d="M135.5 150.5a124.877 124.877 0 0 1 14 23 2204.534 2204.534 0 0 0-7 10 185.738 185.738 0 0 1-14-22 91.679 91.679 0 0 0 7-11Z"/><path style="opacity:.95" fill="#4e4c4d" d="M94.5 150.5a246.402 246.402 0 0 1 14 22 137.896 137.896 0 0 1-9 13 329.748 329.748 0 0 1-13-21 88.507 88.507 0 0 1 8-14Z"/><path style="opacity:.94" fill="#e50093" d="M86.5 164.5a329.748 329.748 0 0 0 13 21 4162.373 4162.373 0 0 1-72 115.5c-8.66.5-17.327.666-26 .5-.009-1.808.491-3.475 1.5-5a12911.406 12911.406 0 0 1 83.5-132Z"/><path style="opacity:.65" fill="#e50093" d="M344.5 179.5c12.654.945 17.154 7.611 13.5 20-4.005 7.005-9.839 8.839-17.5 5.5-4.626-5.463-5.792-11.63-3.5-18.5 1.767-3.272 4.267-5.605 7.5-7Zm2 3c6.04.874 9.04 4.374 9 10.5.314 5.905-2.353 9.405-8 10.5-5.958-.63-8.625-3.964-8-10-.403-5.551 1.931-9.217 7-11Z"/><path style="opacity:.657" fill="#e50093" d="M304.5 180.5c1.624-.14 2.79.527 3.5 2l4 16a106.951 106.951 0 0 0 5-17c1.356-.88 2.856-1.214 4.5-1a130.957 130.957 0 0 0 4.5 19 130.957 130.957 0 0 0 4.5-19 8.43 8.43 0 0 1 4 .5 1202.858 1202.858 0 0 0-6.5 23.5c-1.333 1.333-2.667 1.333-4 0l-5-18a391.568 391.568 0 0 0-4.5 19c-1.951.273-3.451-.393-4.5-2a192.172 192.172 0 0 1-5.5-23Z"/><path style="opacity:.643" fill="#e50093" d="M362.5 180.5h5a108.36 108.36 0 0 0 7 19 108.36 108.36 0 0 0 7-19h5v25h-4a128.507 128.507 0 0 0-.5-16l-5 14c-1.667 2.667-3.333 2.667-5 0l-6-16a162.597 162.597 0 0 0-.5 18h-3v-25Z"/><path style="opacity:.68" fill="#e50093" d="M390.5 180.5h17v3h-14v8h13v3h-13v8h15v3h-18v-25Z"/><path style="opacity:.688" fill="#e50093" d="M410.5 180.5c1.644-.214 3.144.12 4.5 1l12 18c.5-6.325.666-12.658.5-19h3v25c-2.222.322-4.056-.345-5.5-2l-11-17c-.5 6.325-.666 12.658-.5 19h-3v-25Z"/><path style="opacity:.942" fill="#4e4c4d" d="M114.5 183.5a94.28 94.28 0 0 1 14 22 126.166 126.166 0 0 1-8 13l-14-20 8-15Z"/><path style="opacity:.933" fill="#e50093" d="m106.5 198.5 14 20a114634.66 114634.66 0 0 1-51 82 183.082 183.082 0 0 1-27 1 4.932 4.932 0 0 1 .5-3 7417.02 7417.02 0 0 1 63.5-100Z"/></svg>