<svg xmlns="http://www.w3.org/2000/svg" xml:space="preserve" style="shape-rendering:geometricPrecision;text-rendering:geometricPrecision;image-rendering:optimizeQuality;fill-rule:evenodd;clip-rule:evenodd" viewBox="180 360 1800 1800"><defs><style>.str0{stroke:gray;stroke-width:6.67;stroke-linecap:round;stroke-linejoin:round;stroke-miterlimit:22.926}.fil1{fill:none;fill-rule:nonzero}.fil2{fill:#d42f91}.fil0,.fil3{fill-rule:nonzero}.fil3{fill:#333}.fil0{fill:#d42f91}</style></defs><g id="Layer_x0020_1"><g id="_105553223837696"><path class="fil0" d="M807.36 908.98c-.08 2.09-1.12 3.42-2.32 2.95-1.2-.46-2.1-2.54-2.02-4.64l4.34 1.69zm305.26-116.02.93 7.76-15.9 2-15.68 2.17-15.43 2.31-15.17 2.47-14.89 2.61-14.59 2.74-14.27 2.87-13.94 2.99-13.59 3.11-13.22 3.22-12.82 3.31-12.42 3.41-12 3.5-11.55 3.58-11.09 3.65-10.61 3.72-10.11 3.78-9.6 3.84-9.06 3.88-8.5 3.93-7.94 3.95-7.35 3.98-6.73 4-6.11 4-5.45 4-4.78 3.98-4.08 3.94-3.36 3.88-2.62 3.77-1.85 3.59-1.09 3.27-.4 2.82-4.34-1.69.69-5.02 1.53-4.64 2.26-4.4 2.95-4.26 3.63-4.19 4.3-4.15 4.95-4.13 5.59-4.1 6.22-4.08 6.83-4.05 7.43-4.02 8.01-3.99 8.57-3.96 9.13-3.91 9.65-3.86 10.17-3.8 10.66-3.74 11.13-3.67 11.59-3.59 12.04-3.51 12.45-3.43 12.86-3.32 13.25-3.22 13.62-3.11 13.97-3 14.3-2.87 14.61-2.75 14.92-2.61 15.19-2.47 15.46-2.32 15.7-2.17 15.93-2zm0 0c1.17-.14 2.33 1.48 2.59 3.63.26 2.14-.49 4-1.66 4.14l-.93-7.76zm327.84 38-3.82 2.66-1.06-2.65-1.83-2.92-2.64-3.05-3.43-3.05-4.19-2.97-4.9-2.87-5.58-2.74-6.24-2.59-6.88-2.44-7.48-2.29-8.08-2.13-8.65-1.97-9.19-1.8-9.72-1.64-10.23-1.46-10.72-1.29-11.19-1.11-11.64-.93-12.07-.76-12.48-.56-12.87-.39-13.25-.2h-13.6l-13.94.19-14.25.38-14.55.58-14.82.78-15.08.98-15.32 1.19-15.54 1.39-15.74 1.6-15.93 1.81-.93-7.76 15.95-1.81 15.77-1.6 15.57-1.4 15.35-1.19 15.11-.98 14.85-.78 14.57-.59 14.28-.38 13.97-.19h13.64l13.28.2 12.91.39 12.52.57 12.11.76 11.69.93 11.24 1.12 10.78 1.3 10.29 1.47 9.79 1.65 9.27 1.81 8.72 1.99 8.17 2.16 7.6 2.32 7.01 2.49 6.4 2.67 5.78 2.83 5.15 3.02 4.52 3.21 3.87 3.44 3.23 3.73 2.58 4.15 1.85 4.71zm0 0c.57 2.02.18 4.25-.87 4.98-1.05.73-2.38-.31-2.95-2.32l3.82-2.66zm-584.48 484.3c-.07 1.93-1.04 3.15-2.14 2.72-1.11-.43-1.94-2.35-1.87-4.28l4.01 1.56zm281.78-107.1.86 7.17-14.68 1.84-14.47 2-14.24 2.14-14 2.28-13.74 2.41-13.46 2.54-13.18 2.65-12.87 2.76-12.54 2.87-12.2 2.97-11.84 3.06-11.46 3.15-11.07 3.23-10.66 3.31-10.24 3.37-9.8 3.44-9.33 3.49-8.86 3.54-8.37 3.58-7.85 3.63-7.33 3.65-6.78 3.68-6.21 3.69-5.64 3.69-5.03 3.69-4.41 3.67-3.77 3.64-3.11 3.58-2.42 3.48-1.71 3.31-1 3.02-.37 2.61-4.01-1.56.63-4.63 1.41-4.29 2.09-4.06 2.72-3.93 3.35-3.86 3.96-3.83 4.57-3.8 5.17-3.79 5.75-3.76 6.31-3.74 6.86-3.72 7.4-3.69 7.92-3.65 8.42-3.61 8.91-3.57 9.38-3.51 9.84-3.45 10.28-3.39 10.7-3.32 11.11-3.24 11.5-3.16 11.87-3.07 12.23-2.97 12.57-2.87 12.9-2.77 13.2-2.66 13.5-2.54 13.77-2.41 14.02-2.28 14.27-2.14 14.5-2 14.7-1.85zm0 0c1.08-.13 2.15 1.37 2.39 3.35.24 1.98-.45 3.69-1.53 3.82l-.86-7.17zm302.63 35.08-3.53 2.46-.97-2.44-1.69-2.69-2.44-2.81-3.17-2.81-3.86-2.75-4.52-2.65-5.16-2.52-5.76-2.39-6.35-2.26-6.91-2.11-7.46-1.97-7.98-1.82-8.48-1.66-8.98-1.51-9.44-1.35-9.9-1.19-10.33-1.02-10.75-.86-11.14-.7-11.52-.52-11.89-.35-12.23-.18-12.56-.01-12.86.18-13.16.35-13.43.54-13.69.72-13.92.91-14.15 1.09-14.35 1.29-14.52 1.47-14.7 1.67-.86-7.17 14.72-1.67 14.56-1.48 14.37-1.29 14.17-1.09 13.95-.91 13.71-.72 13.46-.54 13.18-.35 12.89-.18 12.59.01 12.26.18 11.92.35 11.56.53 11.18.7 10.79.86 10.37 1.03 9.94 1.2 9.5 1.36 9.03 1.52 8.56 1.68 8.06 1.83 7.54 1.99 7.02 2.15 6.47 2.3 5.91 2.46 5.34 2.62 4.76 2.79 4.17 2.96 3.58 3.18 2.98 3.44 2.38 3.83 1.71 4.35zm0 0c.53 1.86.17 3.93-.8 4.6-.97.68-2.2-.28-2.72-2.15l3.53-2.46z"/><path class="fil1 str0" d="M994.69 412.78s30.04 94.8 53.97 145.48"/><path class="fil1 str0" d="M997.58 505.46c.34-39.5-2.89-92.69-2.89-92.69m185.48 11.8s-.01 48.79 3.3 97.39m34.5-14.09c-34.82-1.54-37.02-38.89-37.02-38.89m-183.94-4.34s6.95 33.28-97.7 66.57m-72.17 403.44s-1.2-.48-3.28-1.42c-11.02-4.98-46.67-22.73-57.73-48.8"/><path class="fil1 str0" d="M902.94 527.29s-95.74 40.12-137.98 64.06c-42.24 23.93-39.42 30.27-48.57 35.2-9.15 4.93-45.05 41.54-47.87 84.48-2.11 11.96-4.93 21.12-7.74 25.34-2.81 4.22 0 19.01 0 19.01s-19.35 53.65-5.97 152.21c-.7 11.96-3.84 22.37-3.84 22.37 0 14.31 171.26 43.88 175.25 23.23l.94-18.54m-3.28-1.42s-.93-26.74 0-35.66c-3.76-4.22-7.52-10.32-6.57-16.89-18.3-20.18-3.05-39.42-12.67-53.5m19.25 70.39 26.28 3.29m-32.85-20.18s10.32-10.33 15.02-12.67m-5.16 66.64 20.65 21.12m-21.59-2.58s19.24 30.27 33.79 43.88m-38.44-39.58c1 97.93-13.57 151.42-16.94 195.86-3.8 50.09 8.14 61.01 0 128.12-35.2 274.55-105.35 390.3-106.53 482.91 0 60.31 23.23 49.06 26.75 113.11 2.11 40.12-12.22 53.24-3.52 80.95 0 0 16.19 97.16-7.74 96.44-23.94-.7-32.38-46.46-31.68-95.73.7-19.72-19-39.42-19.71-50.69m16.22 33.96s-7.3 1.93-11.06-1.11c-.47 3.99-2.58 10.33-7.27 14.08 2.58 11.96.94 35.89-4.69 43.64 7.74 24.17 10.56 43.89 10.56 43.89l26.28 26.04s36.26 6.43 36.15 35.73a3.38 3.38 0 0 1-4.1 3.28c-8.75-1.98-27.34-5.99-36.17-7.21-3.02-.43-5.89-1.5-8.45-3.15-9.79-6.27-31.7-20.35-43.02-27.64a23.301 23.301 0 0 1-9.61-12.5c-6.32-19.66-22.99-70.75-33.46-95.56-4.01-9.48-5.57-19.81-4.4-30.04 5.61-49.09 19.56-86.81 27.27-149.67 0 0 12.2-135.16 7.51-191.47-22.53-347.29 34.64-367.94 34.64-449.6 0 0 0-129.53 3.61-203.62m5.16 1003.8-7.8-4.7m67.98 160.53 13.03 2.57s11.27-17.06-18.47-30.85c-6.67-3.11-15.42-6.04-26.82-8.57-9.15-9.39-30.83-25.94-30.83-25.94m57.65 34.52 16.12 2s4.93-16.46-14.31-26.77m-35.68-19.86-32.83-25.19m27.2-11.75-22.5-31.89h-5.63"/><path class="fil1 str0" d="M726.08 2031.66s-4.06-13.62-6.41-18.07c-5.39-1.17-18.07-.24-23.46 3.52-.47 7.27.27 23.46 3.42 30.85m-41.06-906.82s.26 37.66 0 45.76m145.51-3.48-2.76-42.28m20.28-144.07 21.49 30.74-3.17 6.69 7.86 5.63-4.69 10.21 10.91 9.86 22.88 80.95v11.26l7.74 9.88s-3.52 15.46-4.93 24.62c7.04 10.56 13.37 14.78 13.37 14.78l7.04 33.09s-16.19 15.49-16.19 22.53c0 7.04 16.19 13.37 16.19 13.37s-25.72 56.31-39.26 129.53c-10.02 13.38-5.8 28.16-5.8 28.16l.7 14.78s-13.38 25.34-13.38 27.46c0 2.11 2.81 28.86 2.81 28.86l-2.81 18.3s42.47 51.39 106.3 54.2c63.83 2.81 359.49 11.26 472.12-82.6 12.2-11.26 26.46-30.21 26.46-30.21l-2.81-13.73s-4.75-47.69-13.55-49.63c1.94-7.21 10.03-24.99-9.68-58.78-.88-13.2-1.23-27.98-3.52-41.18-2.29-5.28-12.32-24.46-12.32-24.46s12.67-17.42 11.97-24.81c-.7-7.39-29.39-51.91-29.39-51.91s0-10.91 6.69-20.42c-2.11-7.04-23.58-49.28-22.88-57.72.7-8.45 15.91-95.09 15.91-95.09m-8.17-385.01s12.67 36.6 7.04 68.98c-5.63 32.39 5.63 49.28 5.63 49.28s13.85 19.32 11.04 40.44m-7.51-20.03c8.11 30.27 31.38 50.92 31.38 121.08 0 65-35.54 107.13-39.41 125.26"/><path class="fil1 str0" d="M860 852.52s35.2-23.7 163.79-47.4m150.32 3.31s-303.3 32.96-302.67 100.81m222.74 144.14c54.91-9.15 136.1-3.5 227.61-20.4m-178.57 5.15c34.49-3.52 92.92-34.26 142.9-41.42m-75.45-491.13c5.73-.04 25.94 21 54.1 60.42s17.6 73.21 17.6 73.21-11.97 41.54-114.74 55.61c-102.78 14.08-169.66-19.01-195.7-31.68-26.04-12.67-56.64-53.08-68.98-84.48-16.54-42.06 0-51.39 0-51.39"/><path class="fil1 str0" d="M1153.43 668.55s3.75 24.4-12.67 24.4c-9.87 0-19.91-12.71-26.36-22.86m-30.31-20.44s-15.97-9.7-54.67-11.12c-38.69-1.41-90.2-.99-94.22-7.26m249.19-4.3c11.12-10.05 56.23-30.77 89.77-46.09m-391.08-45.12s-7.12 9.36-3.83 22.5c3.28 13.14 13.35 59.13 55.95 98.09 42.6 38.95 106.43 50.68 106.43 50.68s79.61 21.12 157.83 0c78.23-21.11 91.84-45.05 91.84-45.05s25.46-27.22-6.98-91.98c0 0-27.81-51.51-52.11-60.62M654.8 907.58s60.41 32.93 172.34 27.07"/><path class="fil1 str0" d="M1202.12 504.1s85.88 14.74 131.29 24.59c5.28-2.11 50.28 9.65 83.18 52.19 48.57 73.01-.41 205.4 4.74 261.71m-24.44 158c7.1 30.96 1.68 105.21 9.61 123.18 53.74 106.53 45.29 174.11 84.71 270.79 14.67 36.6 44.23 110.17 49.16 127.06 3.42 33.46 23.39 86.46 47.07 162.54 1.58 5.08 1.77 10.5.49 15.66-3.39 13.7-10.61 37.39-10.61 37.39m0-27.98s-.54 61.55-.2 81.52c.07 4.26-1.39 8.41-4.13 11.69-11.46 13.64-40.72 42.66-40.72 42.66l-42.59 30.27s8.45-26.06 28.58-20.32m-24.17 11.3s-13.91-14.56 17.41-44.83c10.91-12.67 26.75-35.19 26.75-35.19s-6.33-21.13 0-41.54c-7.39-13.38-15.14-28.87-15.48-42.59-3.52-4.57-9.15-6.34-10.56-10.56-2.46 1.06-4.93 1.41-4.93 1.41m9.5-57.02s-3.17 24.99-8.09 33.44c-1.76 12.32-3.17 32.39 2.11 50.69.7 10.21 5.63 68.64-13.37 68.64-18.66 0-28.87-17.25-30.63-67.93 1.76-11.27-1.41-33.44-12.32-56.67-1.76-13.02-13.73-40.13 11.26-111.22-3.87-17.6-5.63-44-23.01-88m-3.74 381.9c12.32-4.57 20.42-5.98 29.22-5.29-3.87 8.46-35.2 13.04-35.2 13.04l5.98-7.75c-4.93-32.74 44.7-39.42 44.7-39.42s14.43-11.98 25.69-21.11c4.93-24.65 16.54-45.41 16.54-45.41s-1.06-1.76-4.93-15.49c-12.67-15.48-8.8-33.79-8.8-33.79l8.63-12.49m-52.62 162.43 33.57-9.46m-21.06-50.61s-44.43 5.16-43.96 40.12c-2.81.93-6.8 2.82-6.8 2.82s5.18 2.15 17.37-1.38m-10.57-1.44s14.63-4.36 18.58-4.53m67.43-114.91 7.21-4.4m8.27 46.99 4.05-1.23m-76.56-190.6s4.4-13.2 5.1-16.02m-68.26-435.19s.15 30.59 3.32 40.44m-702.18 92.1s10.06 21.57 37.55-14.08m-42.05 525.28s-3.94 36.95-4.3 51.03m213.89-566.04c23-16.14 77.79-31.37 90.11-47.07m-82.13 90.06s45.99 17.83 64.3 14.08m172.46-57.07c-26.97 50.29-231.66 97.43-292.67 169.7m510.91-283.7-45.05 102.43m-442.09-56.65s7.74-23.72 50.45-39.91m-68.05-60.07s28.43 11.93 55.98 16.29m94.2 31.61s-64.65 12.17-110.76 75.64m420.26-115.4c-31.68 46.06-178.1 51.93-226.68 106.6m151.35-73.63c-77.3 20.33-126.66-5.78-164.73 1.12m301.3 90.11c-.47 1.88-2.61 26.72 2.55 35.64m-115.89 112.89c18.3-2.81 85.43-19.07 131.19-70.98m-560.6 227.28s57.73 49.28 111.93 49.28c54.2 0 281.58 7.52 414.63-56.31 33.79-17.6 71.46-57.3 70.96-60.52"/><path class="fil1 str0" d="M889.56 1459.33c1.41 4.93 102.07 92.92 361.84 49.98m179.51-113.52s-23.93 53.27-233.01 94.66m-294.96-95.46s24.17-22.95 120.85 16.47c96.68 39.42 331.8-10.41 331.8-10.41M722.62 621.61c36.01-6 96.22 113.27 85.42 216.23m525.38-309.15s25.87 19.38 46.11 107.71M660.79 755.37c17.78 19 45.54 19.11 72.16 55.96m332.13 761.6s145.32 29.02 271.88-39.47m-297.22 40.04s177.87 75.91 372.73-77.6m-563.26 29.13c-14.09 91.99-53.51 132.35-45.12 292.08"/><path class="fil1 str0" d="M1243.12 1581.07s2.17 167.35-24.11 207.71m-374.44-238.81c69.62 37.01 77.6 95.91 225.91 90.51m-128.12 12.44c80.95 18.15 122.72 114.01 248.5 113.96m71.1 21.91c78.27-61.95 154.52-74.06 191.45-130.37m-47.14 78.81c2.46-2.29 49.93-25.17 59.28-39.43m-616.34 88.17s84-17.59 217.4 5.64m441.22-12.61s.87-30.33-15.85-28.4c-16.72 1.93-14.96 14.22-12.49 29.37m-590.3-758.56s35.57 49.03 123.71 54.31"/><path class="fil2" transform="rotate(-6.828 8296.911 -7469.669) scale(.99274)" d="M0 0h368.49v57.72H0z"/><path class="fil3" d="m1064.63 949.79 2.6-.31c.18 2.39-.41 4.41-1.78 6.01-1.33 1.6-3.22 2.55-5.63 2.84-2.76.33-5.04-.34-6.85-2.04-1.79-1.73-2.89-4.24-3.29-7.57-.37-3.09.16-5.63 1.58-7.63 1.42-2.03 3.56-3.2 6.35-3.54 2.22-.27 4.12.09 5.68 1.07 1.56.98 2.57 2.44 3.03 4.41l-2.63.31c-.4-1.26-1.13-2.2-2.14-2.8-1.02-.57-2.26-.78-3.77-.6-2 .24-3.44 1.13-4.4 2.66-.93 1.53-1.24 3.57-.93 6.11.29 2.41 1.09 4.25 2.42 5.59 1.32 1.31 2.91 1.84 4.8 1.61 1.61-.19 2.87-.84 3.79-1.98.89-1.11 1.28-2.51 1.17-4.16z"/><path id="_1" class="fil3" d="m1071.7 939.33 2.01 16.78-2.46.3-2.36-19.68 3.83-.46 6.67 14.47c.19.43.34.74.42.95.11.24.19.45.24.61.04-.33.06-.65.11-.9.05-.28.07-.51.13-.76l3.26-15.66 3.83-.46 2.35 19.68-2.6.31-2.01-16.78c-.02.31-.07.59-.11.9-.05.28-.1.59-.15.88l-3.26 15.66-2.52.3-6.76-14.46c-.11-.24-.23-.5-.34-.76-.09-.3-.21-.59-.3-.91z"/><path id="_2" class="fil3" d="m1117.25 950.9-2.36-19.68 2.68-.32 2.36 19.67z"/><path id="_3" class="fil3" d="m1124.2 950.06-2.36-19.68 2.93-.35 10.91 13.19c.26.3.45.56.65.81.17.28.34.52.45.75l-1.91-15.96 2.54-.31 2.35 19.68-2.9.35-11.13-13.38c-.17-.2-.33-.41-.5-.63-.14-.24-.28-.47-.42-.73l1.91 15.96-2.54.3z"/><path id="_4" class="fil3" d="m1156.85 938.74 2.6-.31c.18 2.39-.42 4.41-1.78 6.01-1.33 1.6-3.22 2.55-5.63 2.84-2.76.33-5.04-.34-6.85-2.04-1.79-1.73-2.89-4.24-3.3-7.57-.37-3.09.16-5.63 1.59-7.63 1.42-2.03 3.56-3.2 6.35-3.54 2.22-.27 4.13.09 5.69 1.07 1.56.98 2.57 2.44 3.03 4.41l-2.63.31c-.4-1.26-1.12-2.2-2.14-2.8-1.02-.57-2.26-.78-3.77-.6-2 .24-3.44 1.13-4.4 2.66-.93 1.53-1.24 3.57-.94 6.11.29 2.41 1.09 4.25 2.42 5.59 1.32 1.31 2.91 1.84 4.8 1.62 1.61-.19 2.87-.85 3.79-1.98.9-1.11 1.28-2.52 1.17-4.17z"/><path id="_5" class="fil3" d="m1163.47 945.36-2.36-19.67 2.69-.33.96 8.08 10.21-1.22-.96-8.08 2.68-.32 2.35 19.68-2.68.32-1.1-9.22-10.21 1.22 1.1 9.22z"/><path id="_6" class="fil3" d="m1183.26 942.99-2.35-19.68 14.04-1.68.29 2.44-11.39 1.36.71 5.89 10.51-1.26.27 2.3-10.51 1.26.79 6.59 11.61-1.39.29 2.46z"/><path id="_7" class="fil3" d="m1199.07 934.52 2.57-.31c.2 1.42.8 2.51 1.83 3.25 1.03.74 2.31 1 3.85.82 1.53-.19 2.7-.66 3.5-1.39.8-.76 1.14-1.67 1-2.79-.18-1.5-1.96-2.46-5.37-2.83-.2-.03-.34-.04-.45-.06-2.76-.31-4.62-.81-5.56-1.5-.94-.67-1.51-1.7-1.69-3.16-.21-1.75.25-3.25 1.41-4.44 1.16-1.22 2.79-1.97 4.92-2.23 2.19-.26 3.96.11 5.35 1.05 1.37.98 2.18 2.43 2.44 4.4l-2.55.3c-.24-1.3-.82-2.26-1.7-2.88-.91-.58-2.04-.81-3.44-.64-1.31.16-2.32.56-3.05 1.22-.72.67-1.02 1.48-.9 2.44.19 1.54 1.93 2.46 5.28 2.84.48.06.87.09 1.12.12l.31.04c2.17.24 3.66.62 4.42 1.14.57.37 1.05.87 1.39 1.47.35.6.57 1.3.67 2.09.22 1.89-.28 3.5-1.48 4.78-1.24 1.29-3 2.06-5.33 2.33-2.38.28-4.31-.09-5.8-1.14-1.46-1.05-2.37-2.69-2.76-4.94z"/><path id="_8" class="fil3" d="m1099.63 955.59 3.88-23.53 1.69-.21-3.92 23.54z"/><path class="fil0" d="M931.3 960.8c1.19.01 2.3 1.77 2.46 3.91.17 2.15-.65 3.88-1.84 3.87l-.62-7.78zm-128.14-49.39 4.25-.49v-.01l.32 2.33.41 2.28.52 2.24.62 2.19.75 2.15.89 2.13 1.05 2.11 1.22 2.1 1.41 2.09 1.63 2.07 1.85 2.05 2.09 2.02 2.35 1.98 2.62 1.93 2.89 1.87 3.19 1.81 3.49 1.75 3.8 1.68 4.13 1.59 4.46 1.51 4.82 1.42 5.17 1.33 5.55 1.23 5.93 1.13 6.33 1.03 6.73.91 7.15.8 7.59.68 8.03.56 8.49.44 8.96.31 9.44.18.62 7.78-9.48-.18-9-.31-8.53-.44-8.08-.56-7.64-.69-7.21-.81-6.8-.92-6.39-1.04-6-1.14-5.63-1.25-5.27-1.35-4.91-1.45-4.57-1.54-4.25-1.65-3.94-1.73-3.65-1.83-3.35-1.92-3.09-2-2.83-2.09-2.59-2.18-2.35-2.27-2.13-2.36-1.92-2.45-1.72-2.54-1.53-2.63-1.34-2.7-1.16-2.77-.98-2.83-.82-2.86-.67-2.88-.53-2.89-.4-2.89v-.01zm0 .01c-.26-2.14.49-4 1.66-4.14 1.17-.14 2.33 1.48 2.59 3.63l-4.25.51zm-.14-4.14 4.34 1.73v1.24l.01.12.01.12.01.11.01.11.02.11.01.1-4.25.49-.03-.28-.02-.26-.02-.27-.02-.26-.02-.26-.02-.26-.02-.33v-1.94l.01-.26zm0 0c.09-2.09 1.13-3.4 2.33-2.93 1.2.48 2.09 2.57 2.01 4.66l-4.34-1.73zm633.61-73.65c-.57-2.02-.18-4.25.88-4.98 1.06-.73 2.38.31 2.95 2.33l-3.83 2.65zm4.66 1.38-4.25.51v.02l-.01-.09-.02-.1-.02-.12-.02-.12-.02-.1-.01-.04-.04-.19-.02-.11-.03-.12-.02-.11-.03-.1-.04-.18-.03-.12-.03-.11-.03-.12-.05-.16 3.83-2.65.06.2.07.25.06.25.06.25.04.18.07.27.06.26.06.25.05.26.04.19.06.33.04.27.04.26.04.25.04.27.04.29v.02zm0-.02c.26 2.14-.48 4-1.65 4.15-1.17.15-2.33-1.46-2.59-3.61l4.24-.54zm-113.37 88.54-1.23-7.71 9.13-2.41 8.64-2.44 8.16-2.46 7.7-2.49 7.24-2.52 6.81-2.54 6.38-2.56 5.96-2.58 5.56-2.59 5.17-2.61 4.79-2.62 4.42-2.63 4.06-2.64 3.72-2.64 3.38-2.64 3.06-2.65 2.75-2.64 2.46-2.63 2.17-2.62 1.9-2.6 1.64-2.57 1.4-2.55 1.17-2.5.95-2.47.76-2.43.57-2.38.4-2.35.26-2.33.12-2.31v-2.31l-.12-2.3-.23-2.32 4.25-.51.29 2.94.16 2.98v3.01l-.16 3.03-.33 3.04-.52 3.03-.72 3.01-.92 2.98-1.14 2.95-1.35 2.92-1.59 2.89-1.83 2.86-2.07 2.83-2.34 2.81-2.61 2.79-2.89 2.77-3.2 2.76-3.5 2.74-3.82 2.72-4.16 2.7-4.51 2.68-4.87 2.67-5.24 2.65-5.63 2.62-6.03 2.6-6.44 2.58-6.85 2.56-7.3 2.53-7.75 2.5-8.21 2.48-8.68 2.44-9.17 2.42zm0 0c-1.15.29-2.36-1.2-2.7-3.32-.34-2.13.32-4.09 1.47-4.39l1.23 7.71z"/><path class="fil0" d="m927.38 982.85-2.78-33.31 25.96 14.24-23.19 19.07zm413.3-50.67-5.17-33.02-21.87 19.97 27.03 13.06zm-13.51-6.53"/><path class="fil2" transform="rotate(-6.828 11704.51 -7584.516) scale(.9164)" d="M0 0h368.49v57.72H0z"/><path class="fil3" d="m1093.48 1352.92 2.4-.29c.16 2.21-.39 4.07-1.65 5.55-1.23 1.48-2.97 2.35-5.19 2.62-2.55.3-4.65-.31-6.32-1.88-1.65-1.6-2.67-3.91-3.04-6.99-.34-2.85.15-5.19 1.46-7.04 1.31-1.87 3.28-2.96 5.86-3.26 2.05-.24 3.8.08 5.24.98 1.44.91 2.37 2.26 2.8 4.07l-2.43.29c-.37-1.16-1.04-2.03-1.98-2.58-.93-.53-2.08-.72-3.47-.56-1.84.22-3.18 1.05-4.06 2.46-.85 1.41-1.14 3.29-.86 5.64.27 2.22 1.01 3.93 2.24 5.17 1.22 1.21 2.69 1.7 4.43 1.49 1.49-.18 2.65-.78 3.5-1.83.83-1.02 1.19-2.32 1.08-3.85z"/><path id="_1_0" class="fil3" d="m1100 1343.28 1.85 15.48-2.27.27-2.18-18.16 3.54-.42 6.16 13.35c.18.39.31.68.39.87.1.22.18.41.22.56.04-.31.06-.59.11-.83.04-.26.07-.47.12-.7l3.01-14.45 3.54-.42 2.18 18.16-2.4.29-1.85-15.48c-.02.28-.06.54-.11.83-.04.26-.09.54-.13.81l-3.01 14.45-2.33.28-6.23-13.35c-.11-.22-.21-.46-.32-.7-.08-.28-.19-.54-.28-.84z"/><path id="_2_1" class="fil3" d="m1142.04 1353.95-2.17-18.16 2.48-.3 2.17 18.16z"/><path id="_3_2" class="fil3" d="m1148.46 1353.18-2.18-18.16 2.71-.33 10.06 12.17c.24.28.42.52.6.75.16.26.31.48.42.69l-1.76-14.72 2.35-.28 2.18 18.16-2.68.32-10.27-12.35c-.15-.19-.3-.37-.45-.59-.13-.22-.26-.43-.39-.67l1.76 14.72-2.35.28z"/><path id="_4_3" class="fil3" d="m1178.6 1342.73 2.4-.29c.16 2.21-.39 4.07-1.64 5.55-1.23 1.48-2.97 2.35-5.19 2.62-2.56.3-4.65-.31-6.33-1.88-1.65-1.6-2.67-3.91-3.04-6.99-.34-2.85.15-5.19 1.46-7.04 1.31-1.87 3.28-2.96 5.86-3.26 2.04-.24 3.8.08 5.24.98 1.44.91 2.37 2.26 2.8 4.07l-2.43.29c-.37-1.16-1.04-2.03-1.98-2.58-.94-.53-2.09-.72-3.47-.56-1.85.22-3.18 1.05-4.06 2.46-.85 1.41-1.15 3.29-.86 5.64.26 2.22 1.01 3.93 2.24 5.17 1.22 1.21 2.69 1.7 4.43 1.49 1.49-.18 2.65-.78 3.5-1.83.82-1.02 1.19-2.32 1.08-3.84z"/><path id="_5_4" class="fil3" d="m1184.71 1348.84-2.17-18.16 2.47-.3.89 7.45 9.42-1.13-.89-7.45 2.48-.29 2.17 18.16-2.48.29-1.01-8.51-9.42 1.13 1.02 8.51z"/><path id="_6_5" class="fil3" d="m1202.98 1346.65-2.18-18.16 12.96-1.55.27 2.25-10.51 1.25.65 5.43 9.7-1.16.26 2.12-9.71 1.17.73 6.08 10.71-1.28.27 2.27z"/><path id="_7_6" class="fil3" d="m1217.57 1338.83 2.38-.29c.18 1.31.74 2.32 1.69 3 .95.68 2.13.93 3.55.76 1.41-.17 2.49-.61 3.23-1.29.74-.7 1.04-1.53.92-2.57-.17-1.39-1.81-2.27-4.95-2.61-.19-.03-.31-.04-.42-.05-2.55-.28-4.27-.74-5.14-1.38-.87-.61-1.39-1.57-1.55-2.92-.19-1.61.23-3 1.3-4.1 1.07-1.13 2.58-1.82 4.55-2.06 2.02-.24 3.65.1 4.94.97 1.26.9 2.01 2.25 2.25 4.06l-2.35.28c-.22-1.2-.76-2.09-1.57-2.65-.83-.54-1.89-.75-3.17-.6-1.21.15-2.15.52-2.81 1.13-.67.62-.94 1.37-.83 2.26.17 1.41 1.78 2.27 4.87 2.61.44.05.8.09 1.04.11l.29.04c2 .22 3.37.57 4.07 1.05a4 4 0 0 1 1.29 1.36c.32.55.53 1.19.61 1.93.21 1.74-.25 3.23-1.37 4.42-1.14 1.19-2.77 1.89-4.92 2.15-2.2.26-3.98-.09-5.36-1.05-1.34-.96-2.19-2.48-2.54-4.56z"/><path id="_8_7" class="fil3" d="m1125.79 1358.28 3.57-21.72 1.57-.19-3.63 21.72z"/><path class="fil0" d="M970.39 1363.09c1.09.01 2.12 1.63 2.28 3.61.16 1.98-.61 3.58-1.7 3.57l-.57-7.18zm-118.28-45.59 3.92-.46.3 2.15.38 2.1.48 2.06.57 2.02.69 1.98.82 1.97.96 1.95 1.13 1.94 1.31 1.93 1.5 1.91 1.71 1.89 1.94 1.86 2.17 1.83 2.42 1.78 2.67 1.73 2.94 1.68 3.22 1.61 3.51 1.54 3.81 1.47 4.12 1.39 4.44 1.31 4.78 1.23 5.12 1.13 5.48 1.05 5.84.94 6.22.85 6.6.74 7 .63 7.41.52 7.83.4 8.27.29 8.71.17.57 7.18-8.74-.17-8.31-.29-7.87-.41-7.45-.52-7.05-.64-6.66-.74-6.27-.85-5.91-.96-5.54-1.06-5.2-1.15-4.86-1.25-4.53-1.34-4.22-1.43-3.93-1.52-3.64-1.6-3.36-1.69-3.1-1.76-2.85-1.85-2.61-1.93-2.39-2.01-2.17-2.09-1.97-2.18-1.78-2.26-1.58-2.34-1.41-2.43-1.24-2.5-1.07-2.56-.91-2.61-.76-2.65-.62-2.66-.48-2.67-.37-2.67zm0 0c-.24-1.98.45-3.69 1.53-3.82 1.08-.13 2.15 1.37 2.39 3.35l-3.92.47zm-.13-3.8 4.01 1.54-.01.15v1.2l.01.1.02.17.01.1.01.06-3.92.46-.03-.28-.02-.25-.02-.18-.02-.25-.02-.31-.01-.25-.01-.25v-.42l-.01-.24v-.9l.01-.24.01-.2zm0 0c.07-1.94 1.03-3.16 2.14-2.74 1.11.43 1.94 2.34 1.87 4.28l-4.01-1.54zm584.89-68.01c-.53-1.86-.17-3.93.8-4.6.97-.68 2.2.28 2.72 2.15l-3.53 2.46zm4.3 1.27-3.92.47-.01-.06-.02-.17-.01-.1-.04-.22-.04-.2-.06-.23-.07-.27-.06-.24-.07-.24 3.53-2.46.12.43.11.44.1.41.1.45.1.49.09.46.06.35.04.24.02.17.04.28zm0 0c.23 1.98-.45 3.69-1.54 3.81-1.08.13-2.15-1.37-2.39-3.35l3.92-.46zm-104.65 81.7-1.13-7.11 8.42-2.22 7.98-2.25 7.54-2.27 7.11-2.3 6.69-2.32 6.28-2.34 5.89-2.36 5.5-2.38 5.13-2.39 4.77-2.41 4.42-2.41 4.07-2.43 3.75-2.43 3.43-2.44 3.12-2.44 2.83-2.44 2.54-2.44 2.27-2.43 2-2.42 1.76-2.4 1.51-2.37 1.29-2.35 1.07-2.32.87-2.28.7-2.25.53-2.2.37-2.17.24-2.15.11-2.13v-2.13l-.11-2.13-.21-2.13 3.92-.47.26 2.72.15 2.75v2.78l-.14 2.8-.31 2.81-.48 2.8-.66 2.78-.85 2.75-1.05 2.72-1.26 2.7-1.46 2.67-1.69 2.64-1.91 2.62-2.16 2.6-2.41 2.57-2.67 2.56-2.94 2.54-3.23 2.53-3.53 2.51-3.84 2.49-4.16 2.48-4.5 2.46-4.84 2.44-5.2 2.42-5.56 2.4-5.94 2.38-6.33 2.36-6.74 2.34-7.15 2.31-7.57 2.29-8.02 2.26-8.46 2.23zm0 0c-1.06.27-2.18-1.1-2.49-3.06-.31-1.96.3-3.78 1.36-4.05l1.13 7.11z"/><path class="fil0" d="m966.77 1383.45-2.56-30.75 23.96 13.15-21.4 17.6zm381.51-46.78-4.77-30.48-20.18 18.43 24.95 12.05zm-12.47-6.03"/></g></g></svg>