<svg xmlns="http://www.w3.org/2000/svg" xml:space="preserve" style="shape-rendering:geometricPrecision;text-rendering:geometricPrecision;image-rendering:optimizeQuality;fill-rule:evenodd;clip-rule:evenodd" viewBox="300 280 1650 1650"><defs><style>.str0{stroke:gray;stroke-width:7.87;stroke-linecap:round;stroke-linejoin:round;stroke-miterlimit:22.926}.fil1{fill:none;fill-rule:nonzero}.fil4{fill:#0ff}.fil0,.fil3{fill:#0ff;fill-rule:nonzero}.fil3{fill:#333}</style></defs><g id="Layer_x0020_1"><g id="_105553221015968"><path class="fil0" d="M1015.81 481.54c-.17 1.36-.81 2.14-1.41 1.74-.6-.4-.94-1.82-.77-3.18l2.18 1.44zm168.16-51.77v5.13l-8.5.06-8.39.19-8.28.31-8.15.42-8.01.54-7.86.65-7.7.76-7.53.86-7.35.96-7.17 1.07-6.97 1.16-6.76 1.26-6.54 1.34-6.31 1.43-6.07 1.52-5.83 1.6-5.56 1.68-5.3 1.75-5.02 1.82-4.73 1.89-4.43 1.96-4.12 2.02-3.8 2.07-3.47 2.13-3.13 2.18-2.77 2.21-2.4 2.25-2.02 2.26-1.62 2.25-1.2 2.19-.78 2.04-.39 1.81-2.18-1.44.68-3.21 1.1-2.91 1.47-2.68 1.82-2.54 2.17-2.44 2.53-2.37 2.87-2.3 3.2-2.24 3.54-2.17 3.86-2.11 4.17-2.04 4.47-1.97 4.77-1.91 5.05-1.83 5.33-1.76 5.59-1.69 5.85-1.61 6.1-1.52 6.33-1.43 6.56-1.35 6.78-1.26 6.98-1.17 7.19-1.07 7.37-.96 7.55-.87 7.72-.76 7.88-.65 8.02-.54 8.16-.42 8.29-.31 8.41-.19 8.52-.06zm0 0c.63 0 1.13 1.15 1.13 2.56 0 1.41-.51 2.56-1.13 2.56v-5.13zm170.33 50.33-2.18 1.43-.39-1.81-.78-2.04-1.2-2.19-1.62-2.25-2.02-2.26-2.4-2.25-2.77-2.21-3.13-2.18-3.47-2.13-3.8-2.07-4.12-2.02-4.43-1.96-4.73-1.89-5.02-1.82-5.3-1.75-5.57-1.68-5.83-1.6-6.07-1.52-6.31-1.43-6.54-1.34-6.76-1.26-6.97-1.16-7.17-1.07-7.35-.96-7.54-.86-7.7-.76-7.86-.65-8.01-.54-8.15-.42-8.28-.31-8.39-.19-8.5-.06v-5.13l8.52.06 8.41.19 8.29.31 8.16.42 8.02.54 7.87.65 7.72.76 7.55.87 7.37.96 7.18 1.07 6.98 1.17 6.78 1.26 6.56 1.35 6.33 1.43 6.09 1.52 5.85 1.61 5.6 1.69 5.33 1.76 5.05 1.83 4.77 1.91 4.47 1.97 4.17 2.04 3.86 2.11 3.53 2.17 3.2 2.24 2.87 2.3 2.53 2.37 2.17 2.44 1.82 2.54 1.47 2.68 1.1 2.91.68 3.22zm0 0c.17 1.36-.17 2.78-.77 3.18-.6.39-1.24-.39-1.41-1.74l2.18-1.43zM847.63 869.95c-.34 2.17-1.59 3.41-2.78 2.78-1.19-.63-1.87-2.91-1.52-5.07l4.3 2.29zm331.54-82.56v8.18l-16.76.1-16.56.3-16.31.48-16.06.67-15.79.86-15.5 1.04-15.18 1.21-14.85 1.37-14.5 1.54-14.13 1.69-13.74 1.85-13.33 2-12.9 2.15-12.44 2.28-11.98 2.42-11.48 2.55-10.98 2.67-10.45 2.79-9.89 2.91-9.33 3.02-8.74 3.12-8.13 3.22-7.5 3.31-6.84 3.4-6.16 3.47-5.46 3.54-4.73 3.58-3.98 3.61-3.19 3.59-2.37 3.49-1.54 3.26-.76 2.88-4.3-2.29 1.34-5.13 2.17-4.63 2.89-4.28 3.6-4.06 4.29-3.9 4.98-3.77 5.66-3.67 6.32-3.56 6.97-3.46 7.61-3.36 8.22-3.26 8.82-3.15 9.4-3.04 9.96-2.93 10.5-2.81 11.03-2.68 11.54-2.56 12.02-2.43 12.49-2.29 12.94-2.15 13.37-2 13.77-1.85 14.17-1.7 14.53-1.54 14.89-1.38 15.21-1.21 15.53-1.04 15.82-.86 16.09-.67 16.35-.49 16.58-.3 16.8-.1zm0 0c1.24 0 2.24 1.83 2.24 4.09s-1 4.09-2.24 4.09v-8.18zm335.84 80.26-4.3 2.29-.76-2.88-1.54-3.26-2.37-3.49-3.19-3.59-3.98-3.61-4.73-3.58-5.46-3.54-6.16-3.47-6.84-3.4-7.5-3.31-8.13-3.22-8.74-3.12-9.33-3.02-9.9-2.91-10.45-2.79-10.98-2.67-11.48-2.55-11.98-2.42-12.44-2.28-12.9-2.15-13.32-2-13.74-1.85-14.13-1.69-14.5-1.54-14.85-1.37-15.19-1.21-15.5-1.04-15.79-.86-16.06-.67-16.31-.48-16.56-.3-16.76-.1v-8.18l16.8.1 16.58.3 16.35.49 16.09.67 15.82.86 15.53 1.04 15.22 1.21 14.88 1.38 14.54 1.54 14.17 1.7 13.77 1.85 13.36 2 12.94 2.15 12.49 2.29 12.02 2.43 11.54 2.56 11.03 2.68 10.5 2.81 9.97 2.93 9.4 3.04 8.82 3.15 8.22 3.26 7.61 3.36 6.97 3.46 6.32 3.56 5.66 3.67 4.98 3.77 4.29 3.9 3.6 4.06 2.89 4.28 2.17 4.63 1.34 5.13zm0 0c.34 2.17-.34 4.44-1.52 5.07-1.19.63-2.43-.61-2.78-2.78l4.3-2.29z"/><path class="fil1 str0" d="M1062.21 513.45c4.59-35.12 1.39-144.41 1.39-144.41 12.45 71.32 50.35 93.46 76.88 168.45m-75.35-73.92s-102.54 80.19-176.4 99.8m-50.66 217.71s-1.65 80.2 89.22 136.48c0 0 23.36 16.8 42.49 25.72m551.04-186.52s8.2 42.29-25.5 103.74c-5.73 10.44-16.59 26.35-26.43 40.21-12.76 17.96-21.03 23.53-38.75 33.17m-559.07-66.37c-10.27 120.85-63.68 207.27-99.17 258.05-14.3 40.18.53 84.41-1.09 127.49-5.13 135.92-67.95 160.98-50.57 326.76 0 0 38.41 24.64 63.72 105.24-.01 18.95 6.49 76.3 19.93 106.7 2.98 6.36 5.62 14.5.39 16.7-5.23 2.18-30.96.03-39.38-33-8.43-33.03-23.94-75.3-23.94-75.3m-6.41 9.96 3.96 86.97c.43 9.37 1.99 18.7 4.64 27.79l12.66 43.37s6.42 24.93-3.82 35.68c-1.89 1.98-5.29 1.3-6.62-1.2-7.37-13.9-26.91-57.54-35.39-76.59a64.86 64.86 0 0 1-5.09-18.36c-2.33-19.04-8.29-61.84-16.24-76.17m47.88 153-50.42-52.42c-5.78-6-10.34-13.07-13.42-20.78-6.41-16.04-17.7-43.62-21.6-48.74m43.11 77.93-37.91-24.76a20.3 20.3 0 0 1-6.44-6.79l-21.74-37.43a49.963 49.963 0 0 1-6.52-19.93l-1.33-12.8c-3.02-29.17-2.66-58.45 1.08-87.28l6.58-50.7c-28.3-208.73-36.1-331.38-36.1-331.38-5.27-88.59 18.92-147.37 32.91-176.81 11.27-23.71 18.47-49.4 20.06-75.91 8.09-135.64 41.21-175.96 49.23-213.96 8.92-42.28 5.89-111.11 59.75-178.48 49.67-62.13 121.09-61.09 121.09-61.09l56.17 7.52c44.75 5.99 89.72 9.29 134.67 9.89l71.78.95c6.74.09 13.13 3.51 17.07 9.13M747.56 1718.95s-10.07 2.6-11.95 15.1m101.18-725.07c15.06 29.54 37.43 60.87 70.67 89.25 20.28 17.31 3.37 145.83 3.37 172.72m563.52-279.96c-10.44 37.89-26.02 79.76-49.48 120.42-14.56 52.79-1.8 118.34 0 171.69m44.58-383.24c.33 13.37 2.32 73.38 4.9 91.12 5.33 36.65 26.02 98.49 49.18 148.54 4.35 9.4-7.45 53.21-9.21 99.68-5.68 149.62 28.02 131.61 43.21 356.84 0 0-28.5 52.84-49.38 65.19-9.83 22.88-20.24 59.26-20.24 59.26s-3.65 77.13-29.54 108.98c-1.63 2.01-.99 5.05 1.27 6.51 9.54 6.12 22.68 7.89 37.05-9.85 16.64-20.52 25.11-77.23 39.28-87.87M1276.05 324.8s-7.28 122.35 19.93 187.65m-9.98-52.22s88.48 82.44 178.13 112.04m65.34 1174.46s20.37 40.89 15.89 61.11c-4.48 20.24-11.76 36.38-11.76 36.38l-22.26 11.89s-29.77-3.57-37.9 13.76c-.86 1.84.44 4.05 2.48 4.35 12.81 1.9 29.95 3.21 38.07 3.78 3.04.21 6.07-.09 8.98-.9l31.33-8.69c6.81-1.89 12.29-6.77 14.92-13.32 6.3-15.69 18.38-44.32 24.73-49.76M1206.64 602.51s.01-.02.02-.05c4.88-10.6 15.45-17.29 27.27-17.32 72.04-.18 177.82-19.07 177.82-19.07s10.24-.65 26.04 1.26c32.68 3.94 95.03 12.57 131.26 68.7 0 0 56.32 83.05 46.86 168.17-4.37 33.76-8.11 42.82-8.11 42.82m4.72-20.32c30.76 74.69 16.91 163.78 22.63 225.72 2.09 19.12 6.13 38.04 12.06 56.48l12.94 40.22c42.15 184.44-21.71 343.37-30.43 490.72l-6.87 140.5c-.3 6.07-2.11 11.92-5.29 16.98l-40.52 64.87c-1.8 2.89-4.8 4.8-8.21 5.22l-20.18 2.54m-53.63-13.41s2.56-9.16 27.2-6.25m11.36-6.07-11.49-31.65c-.46-1.28.29-2.62 1.6-2.87 4.18-.78 12.89-.87 18.63 9.94m-329.9-537.71c1.83 44.59-32.21 40.21 2.49 89.02m10.52-49.25c5.38 19.08-10.93 31.38-13.41 44.73m-45.54-756.03s12.4 29.48 23.2 29.17c10.8-.31 15.34-18.29 15.34-18.29m70.68-289.53c-8.42 100.94-29.77 112.38-52.52 218.52m411.03 489.08s2.21 62.21-2.27 96.36m-74.44 460.32s6.85-15.24 8.02-22.89m13.08-362.33s9.02 12.56 14.45 12.64c5.43.07 18.45-24.04 18.45-24.04m-966.75-182.64s-2.38 60.19-4.36 76.73"/><path class="fil1 str0" d="M720.22 1579.8s-12.23-10.14-12.86-15.56m386.66-604.79c58.24.86 74.2-24.27 120.09-23.67 34.33.46 44.27 16.42 92.18 18.61m-340.74 6.29s16.65 34.96 79.53 51.45m-61.36-30.17s-.86 29.3 20.97 68.45m-4.8 11.28s-42.78 3.88-64.49-12.92m25.4 10.61s4.12 32.54 17.54 49.55m-24.72-11.31s-32.87-4.27-45.52-14.89m18.85 9.04c1.33 15.5 6.07 31.8 15.57 46m443.06-165.33s-11.34 22.59-35.58 36.56m26.56-23.11s2.8 33.61-6 68.49m14.89 9.12s23.82-5.22 25.58-26.01m-7.8 16.36s7.53 21.76-.41 48.16m.8-2.86s19.16-5.64 23.96-27.12m-6.2 13.9s3.48 22.11-4.75 50.86M708.58 775.76s-1.78 39.2 8.04 61.88m13.28 342.56c-8.32 8.92-18.7 15.51-30.04 12.43-10.28-2.79-16.72-15.68-20.75-30.85m121.16 620.78s-6.47-4.75-16.21 4.06c4.56 8.69 10.85 15.84 17.37 14.2 6.52-1.63-1.16-18.26-1.16-18.26zm659.27 45.43s18.7 10.21 24.79-1.77c6.08-11.98 3.94-8.63 3.94-8.63s2.59-3.57-1.46-5.65c-4.06-2.09-13.76-4.43-18.38.87m-557.61-541.84c-.51 51.47 134.46 105.68 144.11 170.52m-135.76-146.23c3.29 28.28-19.35 22.24-23.74 109.84m529.44-121.97c4.5 90.69-108.38 117.43-117.83 189.44m106.84-139.11c-.1 34.12 19.89 54.4 15.95 108.49m-235.21-763.49s12.33 138.31 12.02 212.65m-122.98 132.3s25.6 10.29 49.33 12.98c27.99 3.18 45.9-3.31 77.43-3.44 31.09-.12 40.68 7.33 67.69 6.16 27.02-1.17 52.43-16.68 52.43-16.68m-271.95 103.64s29.67 12.65 57.34 16.39c32.63 4.41 62.14-2.63 99-1.99 36.33.63 48.34 9.58 79.94 8.88 31.6-.7 52.3-18.31 52.3-18.31m-268.07 93.63s25.78 10.99 49.82 14.24c28.35 3.83 53.99-2.28 86.02-1.73 31.57.54 42 8.32 69.46 7.71 27.46-.61 45.45-15.91 45.45-15.91m191.71-93.7s9.86 20.62 23.72 37.04m-773.4-46.78-20.08 25.78"/><path style="fill:#0ff" d="M989.57 912.75h382.74v59.96H989.57z"/><path class="fil3" d="M1109.78 944.33h2.74c-.11 2.51-.98 4.53-2.59 6.03-1.59 1.5-3.67 2.25-6.2 2.25-2.91 0-5.19-.98-6.87-2.97-1.64-2.02-2.48-4.76-2.48-8.28 0-3.26.87-5.83 2.6-7.73 1.73-1.93 4.09-2.89 7.04-2.89 2.33 0 4.27.61 5.77 1.82s2.37 2.85 2.6 4.96h-2.77c-.26-1.35-.89-2.43-1.87-3.17-.98-.72-2.25-1.1-3.84-1.1-2.11 0-3.72.75-4.9 2.22-1.16 1.47-1.73 3.55-1.73 6.23 0 2.54.61 4.56 1.82 6.11 1.21 1.53 2.8 2.28 4.79 2.28 1.7 0 3.09-.52 4.19-1.59 1.07-1.04 1.64-2.45 1.73-4.19z"/><path id="_1" class="fil3" d="M1118.43 934.35v17.69h-2.6V931.3h4.04l5.14 15.87c.14.46.26.81.31 1.04.09.26.15.49.17.67.09-.35.15-.67.23-.93.09-.29.14-.52.23-.78l5.34-15.87h4.04v20.74h-2.74v-17.69c-.06.32-.15.61-.23.92-.09.29-.17.61-.26.9l-5.33 15.87h-2.66l-5.22-15.87c-.09-.26-.17-.55-.26-.84-.06-.32-.15-.63-.2-.98z"/><path id="_2" class="fil3" d="M1164.33 952.04V931.3h2.83v20.74z"/><path id="_3" class="fil3" d="M1171.65 952.04V931.3h3.09l9.69 15.06c.23.35.41.64.58.93.14.31.29.57.37.83V931.3h2.69v20.74h-3.06l-9.9-15.29c-.14-.23-.29-.46-.43-.72-.11-.26-.23-.52-.35-.81v16.82h-2.68z"/><path id="_4" class="fil3" d="M1207 944.33h2.74c-.11 2.51-.98 4.53-2.59 6.03-1.59 1.5-3.67 2.25-6.2 2.25-2.91 0-5.19-.98-6.87-2.97-1.64-2.02-2.48-4.76-2.48-8.28 0-3.26.87-5.83 2.6-7.73 1.73-1.93 4.09-2.89 7.04-2.89 2.33 0 4.27.61 5.77 1.82s2.37 2.85 2.6 4.96h-2.77c-.26-1.35-.89-2.43-1.87-3.17-.98-.72-2.25-1.1-3.84-1.1-2.11 0-3.72.75-4.9 2.22-1.16 1.47-1.73 3.55-1.73 6.23 0 2.54.61 4.56 1.82 6.11 1.21 1.53 2.8 2.28 4.79 2.28 1.7 0 3.09-.52 4.19-1.59 1.07-1.04 1.64-2.45 1.73-4.19z"/><path id="_5" class="fil3" d="M1213.06 952.04V931.3h2.82v8.51h10.77v-8.51h2.82v20.74h-2.82v-9.73h-10.77v9.73z"/><path id="_6" class="fil3" d="M1233.92 952.04V931.3h14.8v2.56h-12v6.21h11.08v2.42h-11.08v6.95h12.23v2.6z"/><path id="_7" class="fil3" d="M1251.41 945.2h2.71c.03 1.5.52 2.71 1.5 3.61.98.89 2.28 1.33 3.9 1.33 1.61 0 2.88-.35 3.81-1.01.92-.69 1.39-1.59 1.39-2.77 0-1.59-1.73-2.8-5.22-3.61-.2-.06-.35-.09-.46-.11-2.83-.66-4.7-1.41-5.6-2.25-.89-.81-1.35-1.96-1.35-3.49 0-1.85.67-3.35 2.02-4.44 1.35-1.13 3.15-1.7 5.39-1.7 2.31 0 4.1.61 5.43 1.76 1.3 1.18 1.96 2.8 1.99 4.87h-2.69c-.09-1.38-.57-2.45-1.41-3.2-.87-.72-2.02-1.09-3.49-1.09-1.38 0-2.48.29-3.31.89-.84.61-1.24 1.41-1.24 2.42 0 1.62 1.7 2.8 5.14 3.61.49.12.89.2 1.15.26l.32.09c2.22.52 3.72 1.1 4.44 1.73.55.46.98 1.04 1.27 1.7.29.67.43 1.41.43 2.25 0 1.99-.72 3.61-2.13 4.79-1.44 1.19-3.37 1.76-5.83 1.76-2.51 0-4.47-.63-5.89-1.9-1.39-1.27-2.13-3.09-2.25-5.48z"/><path id="_8" class="fil3" d="m1145.44 954.72 6.95-23.97h1.79l-7.01 23.97z"/><path class="fil0" d="M969.93 939.19c1.23.16 2.16 2.12 2.07 4.37-.09 2.25-1.16 3.94-2.39 3.79l.32-8.16zm-126.97-67.24h4.48l.04 2.46.15 2.42.26 2.38.37 2.35.51 2.32.66 2.32.82 2.33 1.01 2.33 1.21 2.34 1.43 2.35 1.67 2.36 1.93 2.36 2.2 2.35 2.48 2.33 2.78 2.31 3.08 2.28 3.41 2.25 3.74 2.21 4.09 2.17 4.45 2.12 4.82 2.07 5.21 2.03 5.61 1.96 6.02 1.91 6.44 1.85 6.88 1.79 7.33 1.72 7.8 1.65 8.27 1.58 8.77 1.51 9.27 1.44 9.78 1.36-.32 8.16-9.82-1.37-9.31-1.44-8.81-1.52-8.32-1.6-7.85-1.66-7.39-1.74-6.94-1.81-6.51-1.87-6.09-1.94-5.69-2-5.3-2.06-4.93-2.12-4.56-2.18-4.21-2.24-3.88-2.29-3.56-2.35-3.25-2.41-2.96-2.46-2.68-2.52-2.41-2.58-2.17-2.65-1.92-2.71-1.69-2.78-1.47-2.85-1.26-2.92-1.05-2.97-.86-3.02-.67-3.07-.49-3.07-.33-3.07-.19-3.07-.06-3.06zm0 0c0-2.26 1-4.09 2.24-4.09 1.24 0 2.24 1.83 2.24 4.09h-4.48zm.37-4.31 4.29 2.32-.02.13-.02.13-.03.19-.02.13-.02.13-.02.13-.01.13-.01.12-.01.13-.01.13-.01.12-.01.12v.42h-4.48v-.27l.01-.34.01-.28.01-.27.02-.27.02-.27.02-.27.02-.27.03-.27.03-.27.03-.26.03-.27.04-.26.03-.21.04-.26.04-.27zm0 0c.35-2.17 1.6-3.4 2.78-2.76 1.18.64 1.86 2.92 1.51 5.08l-4.29-2.32zm667.38 2.3c-.34-2.17.34-4.44 1.53-5.07 1.19-.63 2.43.62 2.77 2.79l-4.3 2.28zm4.67 2.01h-4.48v-.42l-.01-.12-.01-.12-.01-.13-.01-.13-.01-.12-.01-.13-.02-.13-.02-.13-.02-.13-.03-.19-.02-.13-.02-.15 4.3-2.28.04.24.04.26.03.21.04.26.03.27.03.26.03.27.03.27.02.27.02.27.02.27.02.27.01.27.01.28.01.34v.27zm0 0c0 2.26-1 4.09-2.24 4.09-1.24 0-2.24-1.83-2.24-4.09h4.48zM1386.6 949.8l-.32-8.16 9.78-1.37 9.28-1.46 8.79-1.54 8.31-1.63 7.84-1.71 7.39-1.79 6.94-1.86 6.51-1.94 6.1-2 5.69-2.06 5.3-2.13 4.91-2.18 4.55-2.24 4.19-2.28 3.84-2.33 3.51-2.36 3.19-2.4 2.88-2.43 2.59-2.45 2.3-2.46 2.02-2.47 1.76-2.46 1.52-2.46 1.3-2.45 1.09-2.43.89-2.41.71-2.4.56-2.39.41-2.38.28-2.39.16-2.41.05-2.43h4.48l-.07 3.09-.21 3.11-.37 3.13-.54 3.13-.72 3.11-.92 3.08-1.12 3.04-1.33 2.99-1.55 2.92-1.77 2.87-2.01 2.81-2.25 2.74-2.51 2.69-2.78 2.63-3.06 2.57-3.35 2.52-3.66 2.46-3.98 2.41-4.31 2.35-4.66 2.29-5.02 2.22-5.39 2.17-5.78 2.09-6.17 2.02-6.58 1.95-7.01 1.88-7.45 1.8-7.89 1.72-8.36 1.64-8.83 1.55-9.32 1.46-9.82 1.37zm0 0c-1.23.16-2.31-1.53-2.39-3.78-.09-2.25.84-4.21 2.07-4.37l.32 8.16z"/><path class="fil0" d="m963.12 961.62 1.26-34.94 25.19 18.02-26.45 16.92zm435.65-1.23-1.26-34.95-25.2 18.02 26.46 16.93zM1053.15 544.7l1.26-34.94 25.19 18.02-26.45 16.92zm255.32.15-.91-34.96-25.38 17.77 26.28 17.19zm-13.14-8.59"/><path class="fil4" d="M1079.6 497.25h202.67v59.96H1079.6z"/><path class="fil0" d="M1070.93 526.63c.63.1 1.09 1.33 1.05 2.74-.04 1.41-.59 2.47-1.22 2.37l.17-5.12zm-57.48-43.84h2.27l.01 1.67.03 1.66.05 1.62.09 1.59.13 1.56.18 1.54.23 1.51.3 1.48.38 1.48.46 1.48.56 1.48.67 1.49.8 1.48.93 1.5 1.07 1.49 1.22 1.48 1.39 1.46 1.56 1.44 1.75 1.43 1.94 1.39 2.14 1.37 2.35 1.33 2.57 1.3 2.79 1.26 3.04 1.22 3.27 1.17 3.54 1.12 3.8 1.07 4.07 1.02 4.35.97 4.64.92 4.94.85-.17 5.12-4.96-.86-4.66-.92-4.37-.98-4.1-1.03-3.83-1.08-3.57-1.14-3.32-1.18-3.07-1.23-2.85-1.28-2.62-1.32-2.41-1.37-2.21-1.41-2.02-1.45-1.83-1.5-1.66-1.53-1.5-1.57-1.33-1.62-1.2-1.66-1.06-1.7-.93-1.75-.81-1.8-.69-1.84-.58-1.87-.48-1.89-.39-1.92-.3-1.92-.22-1.91-.16-1.9-.1-1.87-.06-1.84-.03-1.81-.01-1.79zm0 0c0-1.41.51-2.56 1.13-2.56.63 0 1.13 1.15 1.13 2.56h-2.27zm.18-2.68 2.18 1.41-.02.17-.02.16-.02.2-.01.16-.01.16-.01.16v.27h-2.27v-.39l.01-.34.02-.34.02-.34.03-.34.03-.29.03-.33.04-.32zm0 0c.17-1.36.8-2.15 1.4-1.76.6.39.95 1.81.78 3.17l-2.18-1.41zm338.5 1.44c-.18-1.35.16-2.79.76-3.19.6-.41 1.24.37 1.41 1.72l-2.17 1.47zm2.36 1.24h-2.27v-.27l-.01-.16-.01-.16-.01-.16-.02-.16-.02-.17-.02-.18 2.17-1.47.04.31.04.33.03.33.03.34.02.34.02.34.01.34v.39zm0 0c0 1.41-.51 2.56-1.13 2.56-.63 0-1.13-1.15-1.13-2.56h2.27zm-60.54 50.08-.17-5.12 4.94-.86 4.67-.93 4.39-.98 4.12-1.04 3.87-1.1 3.61-1.15 3.37-1.2 3.14-1.26 2.91-1.3 2.7-1.34 2.48-1.38 2.28-1.42 2.09-1.45 1.9-1.48 1.72-1.51 1.55-1.52 1.39-1.55 1.23-1.56 1.08-1.57.94-1.57.81-1.56.7-1.56.59-1.56.48-1.54.4-1.55.32-1.54.26-1.55.19-1.56.14-1.57.09-1.59.05-1.61.02-1.62h2.27l-.02 1.85-.06 1.88-.11 1.91-.17 1.93-.24 1.95-.32 1.96-.41 1.95-.5 1.93-.6 1.91-.71 1.89-.82 1.85-.94 1.81-1.07 1.77-1.2 1.74-1.34 1.7-1.49 1.66-1.64 1.62-1.81 1.58-1.98 1.54-2.15 1.5-2.34 1.46-2.54 1.41-2.75 1.37-2.96 1.31-3.18 1.27-3.41 1.22-3.65 1.17-3.9 1.11-4.15 1.05-4.42.99-4.69.93-4.97.87zm0 0c-.63.1-1.17-.96-1.22-2.37-.04-1.41.43-2.65 1.05-2.74l.17 5.12z"/><path class="fil3" d="M1109.78 528.83h2.74c-.11 2.51-.98 4.53-2.59 6.03-1.59 1.5-3.67 2.25-6.2 2.25-2.91 0-5.19-.98-6.87-2.97-1.64-2.02-2.48-4.76-2.48-8.28 0-3.26.87-5.83 2.6-7.73 1.73-1.93 4.09-2.89 7.04-2.89 2.33 0 4.27.61 5.77 1.82s2.37 2.85 2.6 4.96h-2.77c-.26-1.35-.89-2.43-1.87-3.17-.98-.72-2.25-1.1-3.84-1.1-2.11 0-3.72.75-4.9 2.22-1.16 1.47-1.73 3.55-1.73 6.23 0 2.54.61 4.56 1.82 6.11 1.21 1.53 2.8 2.28 4.79 2.28 1.7 0 3.09-.52 4.19-1.59 1.07-1.04 1.64-2.45 1.73-4.19z"/><path id="_1_0" class="fil3" d="M1118.44 518.85v17.69h-2.6V515.8h4.04l5.14 15.87c.14.46.26.81.31 1.04.09.26.15.49.17.67.09-.35.15-.67.23-.93.09-.29.14-.52.23-.78l5.34-15.87h4.04v20.74h-2.74v-17.69c-.06.32-.15.61-.23.92-.09.29-.17.61-.26.9l-5.33 15.87h-2.66l-5.22-15.87c-.09-.26-.17-.55-.26-.84-.06-.32-.15-.63-.2-.98z"/><path id="_2_1" class="fil3" d="M1164.33 536.53v-20.74h2.83v20.74z"/><path id="_3_2" class="fil3" d="M1171.66 536.53v-20.74h3.09l9.69 15.06c.23.35.41.64.58.93.14.31.29.57.37.83v-16.82h2.69v20.74h-3.06l-9.9-15.29c-.14-.23-.29-.46-.43-.72-.11-.26-.23-.52-.35-.81v16.82h-2.68z"/><path id="_4_3" class="fil3" d="M1207 528.83h2.74c-.11 2.51-.98 4.53-2.59 6.03-1.59 1.5-3.67 2.25-6.2 2.25-2.91 0-5.19-.98-6.87-2.97-1.64-2.02-2.48-4.76-2.48-8.28 0-3.26.87-5.83 2.6-7.73 1.73-1.93 4.09-2.89 7.04-2.89 2.33 0 4.27.61 5.77 1.82s2.37 2.85 2.6 4.96h-2.77c-.26-1.35-.89-2.43-1.87-3.17-.98-.72-2.25-1.1-3.84-1.1-2.11 0-3.72.75-4.9 2.22-1.16 1.47-1.73 3.55-1.73 6.23 0 2.54.61 4.56 1.82 6.11 1.21 1.53 2.8 2.28 4.79 2.28 1.7 0 3.09-.52 4.19-1.59 1.07-1.04 1.64-2.45 1.73-4.19z"/><path id="_5_4" class="fil3" d="M1213.06 536.53v-20.74h2.83v8.51h10.76v-8.51h2.83v20.74h-2.83v-9.72h-10.76v9.72z"/><path id="_6_5" class="fil3" d="M1233.92 536.53v-20.74h14.8v2.56h-12v6.21h11.08v2.42h-11.08v6.95h12.23v2.6z"/><path id="_7_6" class="fil3" d="M1251.41 529.69h2.71c.03 1.5.52 2.71 1.5 3.61.98.89 2.28 1.33 3.9 1.33 1.61 0 2.88-.35 3.81-1.01.92-.69 1.39-1.59 1.39-2.77 0-1.59-1.73-2.8-5.22-3.61-.2-.06-.35-.09-.46-.11-2.83-.66-4.7-1.41-5.6-2.25-.89-.81-1.35-1.96-1.35-3.49 0-1.85.67-3.35 2.02-4.44 1.35-1.13 3.15-1.7 5.39-1.7 2.31 0 4.1.61 5.43 1.76 1.3 1.18 1.96 2.8 1.99 4.87h-2.69c-.09-1.38-.57-2.45-1.41-3.2-.87-.72-2.02-1.09-3.49-1.09-1.38 0-2.48.29-3.31.89-.84.61-1.24 1.41-1.24 2.42 0 1.62 1.7 2.8 5.14 3.61.49.12.89.2 1.15.26l.32.09c2.22.52 3.72 1.1 4.44 1.73.55.46.98 1.04 1.27 1.7.29.67.43 1.41.43 2.25 0 1.99-.72 3.61-2.13 4.79-1.44 1.19-3.37 1.76-5.83 1.76-2.51 0-4.47-.63-5.89-1.9-1.39-1.27-2.13-3.09-2.25-5.48z"/><path id="_8_7" class="fil3" d="m1145.44 539.22 6.95-23.98h1.79l-7.01 23.98z"/><path d="M987.1 459.8c-67 33.39-153.01 47.36-216.52 77.45-49.94 26.25-80.64 64.41-98.93 110.24-59.77 154-63.79 265.16-106.28 403.64-13.57 46.17-32.8 60.11-40.7 138.5-1.48 77.83 3.74 155.65 15.83 233.48l26.57 178.64" style="fill:none;stroke:#0ff;stroke-width:6.67;stroke-miterlimit:2.61313"/><path class="fil0" d="m571.47 1624.49 10.73-29.96-30.63 4.62z"/><path class="fil4" transform="matrix(.11884 -.53701 1.01412 .22443 554.46 960.816)" d="M0 0h368.49v57.72H0z"/><path class="fil3" d="m591.81 938.17.59-2.68c2.43.65 4.21 1.94 5.33 3.83 1.12 1.87 1.41 4.07.86 6.55-.63 2.84-2.08 4.86-4.39 6.06-2.33 1.17-5.19 1.39-8.62.63-3.18-.7-5.5-2.11-6.99-4.21-1.51-2.1-1.93-4.62-1.3-7.5.5-2.28 1.52-4.04 3.02-5.24 1.5-1.2 3.3-1.69 5.41-1.46l-.6 2.7c-1.38-.04-2.56.35-3.5 1.15-.92.8-1.56 1.96-1.9 3.51-.46 2.06-.07 3.8 1.11 5.27 1.19 1.45 3.09 2.46 5.71 3.04 2.47.55 4.58.39 6.36-.46 1.75-.85 2.83-2.24 3.26-4.18.37-1.66.16-3.13-.65-4.43-.78-1.27-2.04-2.13-3.71-2.59z"/><path id="_1_8" class="fil3" d="m583.94 927.57 17.27 3.82-.56 2.54-20.25-4.48.87-3.94 16.61-1.59c.48-.04.85-.08 1.08-.08.27-.03.51-.04.69-.02-.32-.16-.62-.29-.85-.43-.26-.15-.47-.25-.71-.39l-14.34-8.64.87-3.94 20.26 4.48-.59 2.67-17.27-3.82c.3.13.56.27.85.43.27.15.56.3.82.45l14.34 8.63-.57 2.59-16.62 1.67c-.27.03-.57.05-.87.07-.32-.01-.65 0-1-.02z"/><path id="_2_9" class="fil3" d="m611.12 886.57-20.25-4.48.61-2.76 20.25 4.48z"/><path id="_3_10" class="fil3" d="m612.7 879.43-20.26-4.48.67-3.01 16.8-6.21c.39-.15.71-.26 1.03-.36.34-.07.63-.16.9-.19l-16.42-3.63.58-2.62 20.26 4.48-.66 2.99-17.07 6.36c-.25.09-.51.18-.8.27-.28.06-.56.11-.86.17l16.42 3.63-.58 2.62z"/><path id="_4_11" class="fil3" d="m612.82 843.25.59-2.68c2.43.66 4.21 1.94 5.33 3.84 1.12 1.87 1.41 4.06.86 6.54-.63 2.85-2.08 4.86-4.39 6.06-2.33 1.17-5.19 1.39-8.62.63-3.18-.7-5.5-2.11-6.99-4.21-1.51-2.11-1.93-4.62-1.3-7.5.5-2.28 1.51-4.04 3.02-5.24 1.51-1.2 3.3-1.69 5.41-1.46l-.6 2.7c-1.38-.04-2.56.35-3.5 1.15-.91.8-1.56 1.96-1.9 3.51-.45 2.06-.07 3.8 1.11 5.26 1.19 1.45 3.09 2.46 5.71 3.04 2.48.55 4.58.39 6.37-.46 1.75-.85 2.83-2.24 3.26-4.18.37-1.66.16-3.13-.65-4.43-.78-1.26-2.04-2.13-3.71-2.59z"/><path id="_5_12" class="fil3" d="m621.65 839-20.26-4.48.62-2.76 8.31 1.84 2.32-10.51-8.31-1.84.61-2.76 20.26 4.48-.61 2.76-9.5-2.1-2.33 10.51 9.5 2.1z"/><path id="_6_13" class="fil3" d="m626.16 818.63-20.26-4.48 3.2-14.45 2.51.55-2.59 11.72 6.05 1.34 2.39-10.82 2.37.53-2.39 10.81 6.78 1.5 2.65-11.94 2.54.56z"/><path id="_7_14" class="fil3" d="m623.26 800.08.59-2.65c1.47.3 2.76.08 3.84-.69 1.09-.76 1.79-1.94 2.14-3.52.35-1.57.29-2.89-.16-3.93-.48-1.05-1.25-1.7-2.41-1.95-1.55-.34-3.1 1.09-4.65 4.32-.1.19-.16.32-.21.43-1.26 2.61-2.39 4.28-3.41 4.98-.98.7-2.21.9-3.7.57-1.8-.4-3.12-1.37-3.9-2.93-.81-1.57-.98-3.44-.5-5.63.5-2.26 1.48-3.87 2.89-4.92 1.43-1.01 3.16-1.31 5.19-.89l-.58 2.62c-1.37-.22-2.52.03-3.43.69-.89.69-1.5 1.74-1.82 3.17-.3 1.35-.25 2.48.16 3.43.41.95 1.11 1.52 2.09 1.74 1.58.35 3.1-1.06 4.63-4.24.22-.45.39-.83.5-1.07l.15-.29c.99-2.06 1.88-3.4 2.65-3.96.57-.43 1.22-.73 1.93-.87.71-.13 1.47-.11 2.29.07 1.94.43 3.37 1.48 4.21 3.11.85 1.67.99 3.68.46 6.07-.54 2.45-1.59 4.23-3.13 5.33-1.54 1.08-3.48 1.42-5.84 1.02z"/><path id="_8_15" class="fil3" d="m609.66 905.6-21.91-11.97.39-1.74 21.9 12.02z"/></g></g></svg>