<svg xmlns="http://www.w3.org/2000/svg" xml:space="preserve" style="shape-rendering:geometricPrecision;text-rendering:geometricPrecision;image-rendering:optimizeQuality;fill-rule:evenodd;clip-rule:evenodd" viewBox="300 200 1820 1820"><defs><style>.str0{stroke:gray;stroke-width:6.67;stroke-linecap:round;stroke-linejoin:round;stroke-miterlimit:22.926}.fil0,.fil1,.fil3{fill-rule:nonzero}.fil1,.fil3{fill:none}.fil3{fill:#333}.fil0{fill:#d42f91}</style></defs><g id="Layer_x0020_1"><g id="_105553224304832"><path class="fil0" d="M805.94 709.83c-.37 2.17-1.71 3.41-2.98 2.78-1.28-.63-2.01-2.91-1.64-5.07l4.62 2.29zm356.4-82.56v8.18l-18.02.1-17.79.3-17.54.48-17.27.67-16.97.86-16.66 1.04-16.32 1.21-15.97 1.37-15.58 1.54-15.19 1.69-14.77 1.85-14.32 2-13.87 2.15-13.38 2.28-12.87 2.42-12.35 2.55-11.8 2.67-11.23 2.79-10.64 2.91-10.03 3.02-9.39 3.12-8.73 3.22-8.06 3.31-7.35 3.4-6.62 3.47-5.87 3.54-5.09 3.58-4.28 3.61-3.43 3.59-2.54 3.49-1.65 3.26-.82 2.88-4.62-2.29 1.44-5.13 2.33-4.63 3.11-4.28 3.87-4.06 4.61-3.9 5.35-3.77 6.08-3.67 6.8-3.56 7.49-3.46 8.18-3.36 8.83-3.26 9.48-3.15 10.11-3.04 10.71-2.93 11.3-2.81 11.85-2.68 12.41-2.56 12.92-2.43 13.43-2.29 13.91-2.15 14.37-2 14.81-1.85 15.22-1.7 15.62-1.54 16-1.38 16.36-1.21 16.69-1.04 17-.86 17.3-.67 17.57-.49 17.82-.3 18.06-.1zm0 0c1.33 0 2.41 1.83 2.41 4.09s-1.08 4.09-2.41 4.09v-8.18zm361.02 80.26-4.62 2.29-.82-2.88-1.65-3.26-2.54-3.49-3.43-3.59-4.27-3.61-5.09-3.58-5.87-3.54-6.62-3.47-7.35-3.4-8.05-3.31-8.74-3.22-9.39-3.12-10.03-3.02-10.64-2.91-11.22-2.79-11.8-2.67-12.35-2.55-12.87-2.42-13.38-2.28-13.87-2.15-14.32-2-14.77-1.85-15.19-1.69-15.59-1.54-15.96-1.37-16.32-1.21-16.66-1.04-16.97-.86-17.27-.67-17.54-.48-17.79-.3-18.02-.1v-8.18l18.06.1 17.82.3 17.57.49 17.3.67 17 .86 16.69 1.04 16.36 1.21 16 1.38 15.63 1.54 15.22 1.7 14.81 1.85 14.37 2 13.91 2.15 13.43 2.29 12.92 2.43 12.4 2.56 11.86 2.68 11.3 2.81 10.71 2.93 10.11 3.04 9.48 3.15 8.84 3.26 8.18 3.36 7.5 3.46 6.8 3.56 6.08 3.67 5.35 3.77 4.61 3.9 3.87 4.06 3.11 4.28 2.33 4.63 1.44 5.13zm0 0c.37 2.17-.36 4.44-1.64 5.07-1.28.63-2.61-.61-2.98-2.78l4.62-2.29z"/><path class="fil1 str0" d="M1234.65 218.65s11.92 105.7 27.81 150.21m137.23 24.9c-60.93-3.71-144.09-48.49-144.09-48.49m172.7 1454.17c16.96 3.18 11.13 32.32 11.13 32.32l-16.95 80.54s-27.02 22.77-40.27 34.96c-13.25 12.19-5.83 23.32-5.83 23.32s-6.52 6.15-8.48 13.68c-.78 3.02 1.19 5.94 4.27 6.43 14.6 2.32 31.93-14.75 38.11-14.28-5.83 1.06-34.44 20.67-27.55 24.37 6.89 3.71 47.16-18.01 47.16-18.01s47.81-30.84 71.43-45.16c7.57-4.6 13.24-11.74 15.96-20.15 6.34-19.56 17.98-54.7 23.74-74.12 1.76-5.93 2.24-12.14 1.47-18.28-5.57-44.55-1.87-157.02-1.87-157.02 14.83-22.26 8.48-60.41 16.43-101.2 99.61-400.56 48.75-543.88 48.75-543.88-7.95-65.97 29.14-197.9 3.18-356.85 18.28-105.7 7.42-171.14-39.21-231.54-46.63-60.4-170.08-40.8-170.08-40.8-49.07 5.98-159.29 11.61-200.36 13.57-9 .43-16.86 6.09-20.21 14.46-4.31 10.75-11.88 23.9-23.16 23.9m276.58 1324.61-14.31 62.52s-1.59 62.52-30.73 74.18c-3.18 6.37-8.48 20.67-16.95 18.55-8.48-2.13-5.45-28.16-1.22-42.98 2.28-5.63 3.87-12.13 13.93-9.47 10.07 2.65 6.35 25.43 4.24 33.91m-19.61-18.73v-61.4l11-77.89 8.5-29.24a76.708 76.708 0 0 1 17.18-30.48l28.94-31.46a34.008 34.008 0 0 0 8.96-22.98 48.23 48.23 0 0 1 11.52-31.27m-12.45-726.83c2.12 86.89 10.59 145.46 18.69 177.26m12.04 35.5-12.04-35.5c-32.46 126.1 15.22 240.55-6.24 549.58v8.61m74.31 227.44-39.51 105.74m-112.43 25.26c6.63-4.96 55.51-17.35 31.76 6.17l51.09-35.98a33.68 33.68 0 0 0 12.39-17.36l28.48-92.57m-89.81 145.57s30.7-5.85 15.09 8.73M848.6 945.89c169.06 37.88 258.08-52.96 334.91-54.02 76.83-1.06 121.33 63.58 176.44 61.46 55.11-2.12 63.58-24.37 72.06-38.15 0-12.72-3.18-25.43 28.22-65.7s65.03-127.17 32.18-206.64c-32.85-79.48-156.83-6.36-156.83-6.36l-150.74 98.55-21.73.07s-114.46-80-194.19-102.56m465.48 259.95s-219.63 29.58-219.63-130.96c23.05-17.48 230.36-194.33 284.46-98.75M841.27 878.37c240.81 72.33 293.22-113.74 293.22-113.74s-40.31-54.9-170.85-103.14"/><path class="fil1" d="M1184.84 734.99s-9.8 230.34 247.17 180.15m-268.9-180.08s-19.57 243.98-320.47 175.1" style="stroke:gray;stroke-width:6.67;stroke-linecap:round;stroke-linejoin:round;stroke-miterlimit:22.926;stroke-dasharray:99.992126 99.992126"/><path class="fil1 str0" d="M1025.09 277.2s11.13 61.46 5.83 99.61m1.15-36.59s-66.85 67.85-180.24 66.26m-136.17 858.35s-90.61-84.99-52.99-192.02c17.52-49.85 80.29-131.44 78.82-309.56-.11-13.06 3.04-25.95 9.31-37.41 8.24-15.05 16.98-32.52 19.96-57.84 14.83-25.43 69.94-120.8 86.89-121.86l43.71-23.05s11.28-6.73 20.33-6.76c5.81-.02 10.15 2.12 13.35 5.02 9.02 8.15 6.87 23.05-3.95 28.6-.11.06-.22.11-.33.17 4.77 0 26.23-3.97 26.23 18.28 11.63 0 20.67 15.9 15.89 28.61-4.77 12.72-15.89 29.93-15.89 29.93s21.46 5.05 12.72 22.53c-5.17 10.34-12.85 25.14-18.42 36.16a133.289 133.289 0 0 1-24.08 33.48c-15.57 15.78-33.07 39.01-58.48 51.96 0 0-6.56 25.13-21.67 52.99-21.8 117.05 24.09 151.54 27.84 264.41.59 17.8-.65 52.69-6.17 69.61-15.81 48.44-44.09 131.97-71.49 131.97-36.03 0-81.59-25.21-81.59-25.21-25.25-22.09-74.91-64.38-95.51-183.06-3.66-21.08 1.1-104.41 1.85-125.79 2.76-78.15 58.98-151.86 54.44-299.41 0 0-15.9-140.94 24.37-198.16s112.33-51.93 112.33-51.93h65.44c51.12 1.83 201.61 0 227.04 3.18 4.77 23.84 25.43 27.02 25.43 27.02M853.4 812.13c-33.38 55.63-20.13 126.37-29.93 291.89m665.22 4.5s4.77 9.01 26.49-24.9m93.78-417.52-5.83 25.43m2.65 331.42s-8.48-28.35-9.54-36.83m-55.63 681.91v-20.13m-390.15-921.38s6.54-48.77-10.41-98.04m53.81 100.59s-4.48-18.46 0-43.37m247.67-179.35c-14.57 49.28 9.34 51.93 35.28 113.88m-679.57 669.8s8-9.41 13.78-54.49m2.23-637.39c6.22-18.04 11.74-37.06 11.58-63.23m596.83 395.87c-6.74 118-25.52 134.89-32.04 198.19-2.81 27.34-.18 54.97 7.52 81.35 12.8 43.8 34.37 123.08 38.52 197.89m-140.01-216.99c-29.59 143.84 3.76 191.74-40.07 279.55m-285.62-253.13c-9.15 130.04-31.86 157.28-16.64 223.11m439.43-334.53s-14.27 52.6-11.89 94.72m-258.87 142.56c4.67-29.63-32.57-38.94-.18-72.99 0 0 13.75 8 12.73 28.15-.85 16.85-14.28 21.04-14.43 27.59m218.58-216.69s-43.03-166.92-175.59-170.83c-138.45-4.09-169.8 154.94-221.2 157.84m221.2-12.99c0 44.51-11.83 74.94-24.74 107.42-7.93 19.94-15.01 45.25-16.54 79.51m-249.93-126.53-13.31 85.81m-49.11 54.43s-22.18 39.06-28.43 77.94m149.73-812.09-31.86 14.78m58.09 3.5-26.23 24.02M957 626.9l-13.11 20.45"/><path class="fil0" d="m945.75 797.02 1.26-34.94 25.19 18.02-26.45 16.92zm434.42-.17-1.26-34.95-25.2 18.02 26.46 16.93zm-13.23-8.45"/><path style="fill:#d42f91" d="M970.97 752.64h382.74v59.96H970.97z"/><path class="fil3" d="M1056.67 784.22h2.74c-.11 2.51-.98 4.53-2.59 6.03-1.59 1.5-3.67 2.25-6.2 2.25-2.91 0-5.19-.98-6.87-2.97-1.64-2.02-2.48-4.76-2.48-8.28 0-3.26.87-5.83 2.6-7.73 1.73-1.93 4.09-2.89 7.04-2.89 2.33 0 4.27.61 5.77 1.82s2.37 2.85 2.6 4.96h-2.77c-.26-1.35-.89-2.43-1.87-3.17-.98-.72-2.25-1.1-3.84-1.1-2.11 0-3.72.75-4.9 2.22-1.16 1.47-1.73 3.55-1.73 6.23 0 2.54.61 4.56 1.82 6.11 1.21 1.53 2.8 2.28 4.79 2.28 1.7 0 3.09-.52 4.19-1.59 1.07-1.04 1.64-2.45 1.73-4.19z"/><path id="_1" class="fil3" d="M1065.33 774.24v17.69h-2.6v-20.74h4.04l5.14 15.87c.14.46.26.81.31 1.04.09.26.15.49.17.67.09-.35.15-.67.23-.93.09-.29.14-.52.23-.78l5.34-15.87h4.04v20.74h-2.74v-17.69c-.06.32-.15.61-.23.92-.09.29-.17.61-.26.9l-5.33 15.87h-2.66l-5.22-15.87c-.09-.26-.17-.55-.26-.84-.06-.32-.15-.63-.2-.98z"/><path id="_2" class="fil3" d="M1111.22 791.92v-20.74h2.83v20.74z"/><path id="_3" class="fil3" d="M1118.55 791.92v-20.74h3.09l9.69 15.06c.23.35.41.64.58.93.14.31.29.57.37.83v-16.82h2.69v20.74h-3.06l-9.9-15.29c-.14-.23-.29-.46-.43-.72-.11-.26-.23-.52-.35-.81v16.82h-2.68z"/><path id="_4" class="fil3" d="M1153.89 784.22h2.74c-.11 2.51-.98 4.53-2.59 6.03-1.59 1.5-3.67 2.25-6.2 2.25-2.91 0-5.19-.98-6.87-2.97-1.64-2.02-2.48-4.76-2.48-8.28 0-3.26.87-5.83 2.6-7.73 1.73-1.93 4.09-2.89 7.04-2.89 2.33 0 4.27.61 5.77 1.82s2.37 2.85 2.6 4.96h-2.77c-.26-1.35-.89-2.43-1.87-3.17-.98-.72-2.25-1.1-3.84-1.1-2.11 0-3.72.75-4.9 2.22-1.16 1.47-1.73 3.55-1.73 6.23 0 2.54.61 4.56 1.82 6.11 1.21 1.53 2.8 2.28 4.79 2.28 1.7 0 3.09-.52 4.19-1.59 1.07-1.04 1.64-2.45 1.73-4.19z"/><path id="_5" class="fil3" d="M1159.95 791.92v-20.74h2.83v8.51h10.76v-8.51h2.83v20.74h-2.83v-9.72h-10.76v9.72z"/><path id="_6" class="fil3" d="M1180.81 791.92v-20.74h14.8v2.56h-12v6.21h11.08v2.42h-11.08v6.95h12.23v2.6z"/><path id="_7" class="fil3" d="M1198.3 785.08h2.71c.03 1.5.52 2.71 1.5 3.61.98.89 2.28 1.33 3.9 1.33 1.61 0 2.88-.35 3.81-1.01.92-.69 1.39-1.59 1.39-2.77 0-1.59-1.73-2.8-5.22-3.61-.2-.06-.35-.09-.46-.11-2.83-.66-4.7-1.41-5.6-2.25-.89-.81-1.35-1.96-1.35-3.49 0-1.85.67-3.35 2.02-4.44 1.35-1.13 3.15-1.7 5.39-1.7 2.31 0 4.1.61 5.43 1.76 1.3 1.18 1.96 2.8 1.99 4.87h-2.69c-.09-1.38-.57-2.45-1.41-3.2-.87-.72-2.02-1.09-3.49-1.09-1.38 0-2.48.29-3.31.89-.84.61-1.24 1.41-1.24 2.42 0 1.62 1.7 2.8 5.14 3.61.49.12.89.2 1.15.26l.32.09c2.22.52 3.72 1.1 4.44 1.73.55.46.98 1.04 1.27 1.7.29.67.43 1.41.43 2.25 0 1.99-.72 3.61-2.13 4.79-1.44 1.19-3.37 1.76-5.83 1.76-2.51 0-4.47-.63-5.89-1.9-1.39-1.27-2.13-3.09-2.25-5.48z"/><path id="_8" class="fil3" d="m1092.33 794.61 6.95-23.98h1.79l-7.01 23.98z"/><path class="fil0" d="M962.31 775.92c1.32.16 2.32 2.12 2.23 4.37-.09 2.25-1.25 3.94-2.57 3.79l.35-8.16zm-161.38-64.09h4.81l.1 2.1.3 2.09.52 2.13.76 2.19 1.02 2.24 1.31 2.29 1.61 2.32 1.91 2.34 2.22 2.34 2.54 2.34 2.86 2.33 3.18 2.3 3.51 2.27 3.84 2.24 4.17 2.21 4.51 2.17 4.86 2.13 5.21 2.09 5.56 2.04 5.92 2 6.28 1.95 6.65 1.9 7.02 1.85 7.39 1.8 7.78 1.75 8.16 1.69 8.56 1.64 8.95 1.59 9.35 1.53 9.76 1.47 10.18 1.41 10.59 1.35-.35 8.16-10.62-1.35-10.21-1.41-9.8-1.48-9.39-1.54-8.99-1.59-8.6-1.65-8.21-1.7-7.83-1.76-7.45-1.81-7.08-1.87-6.71-1.92-6.35-1.97-6-2.02-5.64-2.07-5.3-2.13-4.96-2.17-4.63-2.22-4.3-2.28-3.98-2.32-3.67-2.37-3.36-2.43-3.06-2.49-2.77-2.55-2.48-2.62-2.2-2.7-1.92-2.79-1.65-2.89-1.37-3.01-1.09-3.13-.79-3.24-.48-3.34-.16-3.39zm0 0c0-2.26 1.08-4.09 2.41-4.09s2.41 1.83 2.41 4.09h-4.81zm.4-4.31 4.61 2.31-.02.12-.03.19-.02.13-.02.13-.02.13-.02.13-.02.13-.01.13-.02.13-.01.13-.01.13v.19l-.01.13v.19h-4.81v-.27l.01-.33.01-.27.01-.27.02-.33.02-.26.02-.26.02-.26.03-.26.03-.26.03-.26.04-.26.04-.26.04-.27.03-.19.04-.27zm0 0c.37-2.17 1.72-3.4 2.99-2.76 1.27.64 2 2.91 1.63 5.08l-4.61-2.31zm717.41 2.29c-.37-2.17.37-4.44 1.65-5.06 1.28-.63 2.61.63 2.98 2.8l-4.62 2.27zm5.01 2.02h-4.81v-.19l-.01-.13v-.19l-.01-.13-.01-.13-.02-.13-.02-.2v-.06l-.02-.13-.02-.2-.01-.07-.02-.13-.03-.19-.02-.15 4.62-2.27.04.25.03.19.04.27.05.33.02.2.04.26.04.33.02.2.02.26.02.26.02.26.02.33.01.27.01.27.01.33v.27zm0 0c0 2.26-1.08 4.09-2.41 4.09s-2.41-1.83-2.41-4.09h4.81zm-160.48 70.8-.35-8.16 10.59-1.35 10.17-1.4 9.75-1.45 9.34-1.5 8.94-1.55 8.54-1.61 8.15-1.65 7.76-1.7 7.37-1.75 7-1.8 6.63-1.84 6.26-1.89 5.89-1.93 5.54-1.98 5.18-2.02 4.84-2.06 4.49-2.1 4.15-2.14 3.81-2.17 3.49-2.21 3.16-2.24 2.84-2.26 2.52-2.28 2.2-2.29 1.89-2.3 1.59-2.27 1.29-2.24 1.01-2.2.75-2.15.51-2.11.3-2.08.1-2.09h4.81l-.15 3.39-.48 3.33-.78 3.23-1.08 3.1-1.36 2.98-1.64 2.86-1.91 2.74-2.19 2.65-2.46 2.57-2.75 2.49-3.04 2.43-3.34 2.37-3.65 2.31-3.96 2.26-4.28 2.2-4.61 2.16-4.93 2.1-5.28 2.06-5.61 2.01-5.97 1.96-6.32 1.91-6.69 1.86-7.05 1.81-7.43 1.76-7.81 1.72-8.19 1.66-8.58 1.61-8.98 1.56-9.38 1.5-9.78 1.46-10.2 1.41-10.61 1.35zm0 0c-1.32.16-2.48-1.53-2.57-3.78-.09-2.25.91-4.21 2.23-4.37l.35 8.16z"/></g></g></svg>