<svg xmlns="http://www.w3.org/2000/svg" xml:space="preserve" style="shape-rendering:geometricPrecision;text-rendering:geometricPrecision;image-rendering:optimizeQuality;fill-rule:evenodd;clip-rule:evenodd" viewBox="360 360 1600 1600"><defs><style>.str0{stroke:gray;stroke-width:6.67;stroke-linecap:round;stroke-linejoin:round;stroke-miterlimit:22.926}.fil1{fill:none;fill-rule:nonzero}.fil2{fill:#d42f91}.fil0,.fil3{fill-rule:nonzero}.fil3{fill:#333}.fil0{fill:#d42f91}</style></defs><g id="Layer_x0020_1"><g id="_105553224287328"><path class="fil0" d="M658.85 941.35c-.12 3.15-1.69 5.14-3.49 4.44-1.8-.7-3.16-3.83-3.04-6.98l6.53 2.54zm459.03-174.46 1.39 11.67-23.91 3.01-23.57 3.25-23.2 3.48-22.8 3.7-22.39 3.92-21.94 4.13-21.46 4.32-20.96 4.5-20.43 4.67-19.87 4.84-19.29 4.99-18.68 5.13-18.04 5.26-17.37 5.39-16.68 5.5-15.96 5.6-15.2 5.69-14.43 5.77-13.63 5.84-12.8 5.9-11.94 5.95-11.04 5.98-10.13 6.01-9.18 6.02-8.2 6.01-7.19 5.98-6.15 5.93-5.06 5.83-3.94 5.67-2.78 5.39-1.63 4.91-.6 4.24-6.53-2.54 1.03-7.54 2.3-6.98 3.4-6.6 4.44-6.4 5.46-6.3 6.46-6.24 7.44-6.19 8.41-6.17 9.36-6.13 10.28-6.09 11.18-6.05 12.05-6 12.9-5.94 13.72-5.88 14.51-5.81 15.28-5.72 16.02-5.62 16.74-5.52 17.43-5.4 18.09-5.28 18.73-5.15 19.34-5 19.92-4.85 20.48-4.69 21.01-4.51 21.5-4.33 21.98-4.13 22.43-3.93 22.85-3.71 23.24-3.49 23.61-3.26 23.95-3.01zm0 0c1.76-.21 3.51 2.23 3.89 5.45.38 3.22-.74 6.01-2.5 6.22l-1.39-11.67zm492.98 57.15-5.74 4.01-1.59-3.98-2.75-4.39-3.97-4.58-5.17-4.58-6.29-4.47-7.37-4.31-8.4-4.11-9.39-3.9-10.34-3.68-11.26-3.44-12.15-3.21-13-2.96-13.83-2.71-14.62-2.46-15.38-2.2-16.12-1.93-16.83-1.67-17.51-1.41-18.15-1.13-18.77-.86-19.36-.58-19.92-.29-20.45-.01-20.96.28-21.43.57-21.87.87-22.29 1.17-22.68 1.47-23.04 1.78-23.37 2.09-23.67 2.41-23.94 2.72-1.39-11.67 23.98-2.73 23.71-2.41 23.41-2.1 23.09-1.78 22.72-1.48 22.33-1.17 21.92-.87 21.48-.57 21-.28 20.5.01 19.98.29 19.41.58 18.83.86 18.21 1.14 17.57 1.41 16.9 1.68 16.2 1.95 15.48 2.21 14.72 2.47 13.94 2.73 13.13 2.99 12.29 3.24 11.43 3.5 10.54 3.75 9.63 4 8.7 4.26 7.75 4.54 6.79 4.83 5.83 5.17 4.86 5.62 3.88 6.24 2.78 7.09zm0 0c.86 3.03.28 6.39-1.3 7.5-1.58 1.11-3.57-.46-4.44-3.49l5.74-4.01zm-948.12 451.08c-.13 3.15-1.8 5.14-3.73 4.44-1.93-.7-3.38-3.83-3.25-6.98l6.98 2.54zm490.62-174.46 1.5 11.67-25.56 3.01-25.19 3.25-24.8 3.48-24.38 3.7-23.93 3.92-23.44 4.13-22.94 4.32-22.4 4.5-21.83 4.67-21.24 4.84-20.62 4.99-19.96 5.13-19.28 5.26-18.56 5.39-17.83 5.5-17.05 5.6-16.26 5.69-15.43 5.77-14.56 5.84-13.68 5.9-12.76 5.95-11.81 5.98-10.82 6.01-9.81 6.02-8.76 6.01-7.69 5.98-6.56 5.93-5.41 5.83-4.2 5.67-2.97 5.39-1.75 4.91-.64 4.24-6.98-2.54 1.1-7.54 2.46-6.98 3.63-6.6 4.74-6.4 5.83-6.3 6.91-6.24 7.96-6.19 8.99-6.17 10-6.13 10.99-6.09 11.94-6.05 12.88-6 13.79-5.94 14.66-5.88 15.51-5.81 16.33-5.72 17.13-5.62 17.89-5.52 18.63-5.4 19.33-5.28 20.02-5.15 20.67-5 21.3-4.85 21.89-4.69 22.45-4.51 22.99-4.33 23.49-4.13 23.98-3.93 24.42-3.71 24.85-3.49 25.24-3.26 25.6-3.01zm0 0c1.88-.21 3.75 2.23 4.16 5.45.41 3.22-.78 6.01-2.67 6.22l-1.5-11.67zm526.92 57.15-6.13 4-1.69-3.98-2.94-4.39-4.25-4.58-5.52-4.58-6.73-4.47-7.87-4.31-8.97-4.11-10.04-3.9-11.05-3.68-12.03-3.44-12.98-3.21-13.9-2.96-14.78-2.71-15.63-2.46-16.44-2.2-17.23-1.93-17.98-1.67-18.71-1.41-19.4-1.13-20.06-.86-20.69-.58-21.29-.29-21.86-.01-22.4.28-22.9.57-23.38.87-23.83 1.17-24.24 1.47-24.62 1.78-24.98 2.09-25.3 2.41-25.59 2.72-1.5-11.67 25.64-2.73 25.35-2.41 25.02-2.1 24.67-1.78 24.29-1.48 23.87-1.17 23.43-.87 22.96-.57 22.45-.28 21.91.01 21.35.29 20.75.58 20.13.86 19.46 1.14 18.78 1.41 18.06 1.68 17.31 1.95 16.54 2.21 15.73 2.47 14.89 2.73 14.03 2.99 13.14 3.24 12.21 3.5 11.26 3.75 10.3 4 9.3 4.26 8.28 4.54 7.26 4.83 6.23 5.18 5.19 5.61 4.15 6.24 2.98 7.09zm0 0c.92 3.03.3 6.39-1.39 7.5-1.69 1.1-3.82-.46-4.74-3.5l6.13-4z"/><path class="fil1 str0" d="M1556.16 829.61s5.63 58-55.74 111.04c-91.15 78.79-144.95 116.02-328.67 139.89-184.09 23.92-477.5-64.49-457.64-138.33 0 0-16.89 61.37-16.76 100.89 65.02 126.89 354.8 248.58 421.36 302.67 0 0 85.74 87.26 158.09-8.32 113.37-149.77 243.82-232.98 278.44-288.11 0 0 49.19-71.77 41.91-117.53-7.28-45.76-40.99-102.2-40.99-102.2zm39.57 131.24s104.77 206.03 67.14 586.4m-405.05-188.98c15.17 58.23-44.46 110.93-49.31 167.4m186.34-320.3c39.91 240.23-67.56 372.43-88.25 562.75m-154.54-398.53c-11.13 106.38 122.56 141.61 98.77 450.45m-551.37-773s-80.7 311.24 29.84 649.3m49.48-1098.51c3.69 35.78-4.12 63.14-14.2 97.67-16.74 57.32-44.57 164.89-50 262.8m843.21-125.96s-44.26-72.53-64.7-146.3l-41.29-148.96M897.39 670.51c38.72 188.24-17.5 269.47 52.43 398.04m373.79-363.46c11.98 170.19 68.65 218.42 11.98 340.37M770.32 559.28s18.68 68.83 15.56 123.96m338.78 186.57c-6.11-38.77 42.63-50.96.24-95.52 0 0-18 10.48-16.66 36.83 1.12 22.07 18.69 27.54 18.89 36.11m-56.25-317.57c0 58.24 15.48 98.07 32.38 140.57 10.38 26.1 19.64 59.22 21.65 104.06m26.5 279.58 6.95 28.2"/><path class="fil1" d="M706.48 974.04s8.09 158.52 464.23 141.87c301.63-16.63 427.49-198.99 399.7-259.65" style="stroke:gray;stroke-width:6.67;stroke-linecap:round;stroke-linejoin:round;stroke-miterlimit:22.926;stroke-dasharray:99.992126 99.992126"/><path class="fil1 str0" d="M1172.01 1531.12s-53.14-143.22-133.01-234.78"/><path class="fil2" transform="rotate(-6.829 8631.993 -6791.245) scale(1.49283)" d="M0 0h368.49v57.72H0z"/><path class="fil3" d="m1045.69 1002.71 3.91-.47c.26 3.6-.63 6.63-2.67 9.05-2.01 2.41-4.85 3.84-8.47 4.27-4.16.5-7.57-.51-10.3-3.07-2.69-2.6-4.36-6.37-4.96-11.39-.56-4.65.24-8.46 2.38-11.48 2.14-3.06 5.36-4.82 9.56-5.32 3.33-.4 6.19.13 8.54 1.61 2.35 1.47 3.87 3.67 4.56 6.64l-3.95.47c-.6-1.89-1.69-3.31-3.22-4.21-1.52-.86-3.4-1.18-5.66-.91-3 .36-5.19 1.71-6.62 4.01-1.39 2.3-1.86 5.36-1.4 9.19.44 3.63 1.65 6.4 3.64 8.41 1.99 1.98 4.38 2.78 7.22 2.44 2.43-.29 4.32-1.27 5.7-2.98 1.35-1.66 1.93-3.78 1.76-6.26z"/><path id="_1" class="fil3" d="m1056.33 986.98 3.02 25.24-3.71.44-3.54-29.6 5.76-.69 10.04 21.76c.28.63.51 1.11.63 1.43.17.36.29.68.36.92.06-.51.09-.97.17-1.36.07-.43.12-.77.2-1.15l4.91-23.55 5.76-.69 3.54 29.6-3.91.47-3.02-25.24c-.03.46-.1.89-.17 1.35-.07.43-.14.9-.22 1.32l-4.91 23.56-3.79.45-10.16-21.75c-.17-.36-.34-.75-.52-1.15-.13-.44-.31-.88-.45-1.37z"/><path id="_2" class="fil3" d="m1124.83 1004.38-3.54-29.6 4.03-.48 3.55 29.6z"/><path id="_3" class="fil3" d="m1135.28 1003.13-3.54-29.6 4.41-.53 16.41 19.83c.39.46.69.84.98 1.22.26.43.51.77.68 1.13l-2.87-24 3.83-.46 3.54 29.6-4.36.52-16.73-20.13c-.24-.31-.49-.61-.74-.96-.21-.35-.42-.7-.63-1.09l2.87 24-3.83.46z"/><path id="_4" class="fil3" d="m1184.41 986.1 3.91-.47c.26 3.6-.63 6.63-2.67 9.05-2.01 2.41-4.84 3.84-8.47 4.27-4.15.5-7.57-.51-10.3-3.07-2.69-2.6-4.35-6.37-4.96-11.39-.56-4.65.24-8.46 2.39-11.48 2.14-3.05 5.35-4.81 9.55-5.32 3.33-.4 6.2.14 8.54 1.61 2.35 1.47 3.87 3.67 4.56 6.64l-3.95.47c-.6-1.89-1.69-3.31-3.22-4.21-1.52-.86-3.4-1.18-5.66-.91-3 .36-5.18 1.71-6.62 4.01-1.4 2.3-1.86 5.36-1.4 9.19.43 3.62 1.64 6.4 3.63 8.41 1.99 1.98 4.38 2.78 7.22 2.44 2.43-.29 4.31-1.27 5.7-2.98 1.35-1.67 1.93-3.78 1.76-6.26z"/><path id="_5" class="fil3" d="m1194.36 996.06-3.55-29.6 4.04-.49 1.46 12.15 15.35-1.84-1.46-12.15 4.04-.48 3.54 29.6-4.03.48-1.66-13.87-15.36 1.84 1.66 13.87z"/><path id="_6" class="fil3" d="m1224.13 992.49-3.54-29.6 21.11-2.53.45 3.66-17.13 2.05 1.06 8.86 15.81-1.89.41 3.45-15.81 1.9 1.19 9.92 17.46-2.09.44 3.7z"/><path id="_7" class="fil3" d="m1247.92 979.74 3.87-.46c.3 2.13 1.2 3.78 2.76 4.89 1.56 1.11 3.48 1.5 5.79 1.23 2.3-.28 4.06-.99 5.26-2.09 1.2-1.14 1.7-2.5 1.5-4.19-.27-2.26-2.95-3.69-8.07-4.25-.3-.05-.51-.07-.67-.09-4.15-.46-6.96-1.21-8.37-2.26-1.41-1-2.27-2.57-2.53-4.75-.31-2.63.37-4.89 2.12-6.69 1.74-1.83 4.2-2.96 7.41-3.35 3.3-.39 5.95.17 8.04 1.59 2.06 1.46 3.28 3.66 3.67 6.61l-3.83.46c-.36-1.96-1.24-3.4-2.56-4.33-1.36-.88-3.07-1.22-5.17-.96-1.98.24-3.49.83-4.58 1.84-1.09 1.01-1.53 2.23-1.36 3.67.28 2.31 2.91 3.7 7.94 4.27.72.08 1.31.13 1.7.17l.47.07c3.25.36 5.49.93 6.63 1.71.86.56 1.58 1.31 2.11 2.21.52.9.86 1.94 1 3.14.34 2.84-.41 5.27-2.23 7.2-1.85 1.93-4.52 3.09-8.02 3.5-3.58.43-6.49-.14-8.72-1.71-2.2-1.57-3.58-4.04-4.15-7.44z"/><path id="_8" class="fil3" d="m1098.33 1011.44 5.83-35.4 2.55-.31-5.9 35.41z"/><path class="fil0" d="M845.22 1019.27c1.78.02 3.45 2.65 3.7 5.88.26 3.23-.98 5.83-2.77 5.81l-.94-11.69zm-192.68-74.29 6.39-.72v-.02l.49 3.5.62 3.42.78 3.35.94 3.29 1.12 3.24 1.33 3.2 1.57 3.18 1.83 3.16 2.13 3.14 2.45 3.12 2.78 3.07 3.15 3.04 3.54 2.98 3.93 2.91 4.35 2.82 4.79 2.73 5.25 2.63 5.72 2.52 6.2 2.4 6.72 2.27 7.24 2.14 7.78 2 8.34 1.85 8.92 1.7 9.52 1.54 10.13 1.37 10.76 1.2 11.41 1.03 12.08.84 12.76.66 13.46.47 14.19.27.94 11.69-14.25-.27-13.53-.47-12.83-.66-12.15-.85-11.48-1.04-10.85-1.21-10.21-1.39-9.62-1.56-9.03-1.72-8.46-1.88-7.91-2.03-7.39-2.19-6.88-2.33-6.39-2.47-5.93-2.61-5.48-2.75-5.05-2.88-4.65-3.01-4.26-3.14-3.89-3.28-3.54-3.41-3.21-3.55-2.89-3.68-2.59-3.81-2.3-3.95-2.01-4.07-1.74-4.17-1.48-4.25-1.23-4.3-1-4.35-.79-4.35-.61-4.35v-.02zm0 .02c-.39-3.22.73-6.01 2.49-6.22 1.76-.21 3.51 2.23 3.89 5.45l-6.39.76zm-.21-6.21 6.52 2.57-.01.22v1.15l.01.21v.21l.01.14v.13l.01.14.02.21.02.21.01.14.02.14-6.39.72-.05-.43-.04-.43-.03-.35-.03-.36-.03-.43-.03-.43-.02-.43-.01-.35-.01-.35v-.36l-.01-.43.01-.43v-.64l.01-.43.02-.35zm0 0c.13-3.15 1.7-5.13 3.5-4.42s3.15 3.84 3.02 6.99l-6.52-2.57zm952.8-110.76c-.86-3.04-.27-6.39 1.31-7.49 1.59-1.1 3.57.47 4.43 3.51l-5.75 3.98zm7 2.07-6.39.76v.01l-.02-.15-.02-.12-.02-.15-.04-.21-.02-.13-.03-.12-.06-.28-.03-.16-.03-.13-.04-.19-.05-.21-.05-.21-.04-.14-.06-.21-.07-.26-.05-.18 5.75-3.98.1.37.08.29.09.34.11.41.08.34.08.34.08.36.09.43.08.4.06.28.08.44.07.43.06.35.06.41.06.44.05.41v.01zm0-.01c.39 3.22-.73 6.01-2.49 6.22-1.76.21-3.51-2.22-3.89-5.44l6.39-.78zM1441.65 963.2l-1.85-11.58 13.72-3.63 13-3.66 12.27-3.71 11.57-3.74 10.9-3.78 10.23-3.81 9.59-3.84 8.97-3.87 8.35-3.89 7.77-3.92 7.2-3.94 6.64-3.95 6.11-3.96 5.59-3.97 5.09-3.98 4.6-3.97 4.14-3.97 3.69-3.95 3.27-3.93 2.85-3.91 2.47-3.87 2.1-3.82 1.75-3.78 1.43-3.71 1.13-3.65.86-3.59.61-3.54.39-3.49.18-3.47-.01-3.47-.18-3.47-.34-3.48 6.39-.76.43 4.43.24 4.48.01 4.53-.23 4.56-.5 4.57-.79 4.55-1.08 4.53-1.39 4.49-1.71 4.44-2.04 4.39-2.38 4.35-2.74 4.3-3.12 4.27-3.51 4.23-3.92 4.2-4.35 4.17-4.8 4.14-5.26 4.12-5.75 4.09-6.26 4.06-6.78 4.03-7.32 4.01-7.89 3.98-8.46 3.95-9.06 3.91-9.68 3.88-10.32 3.85-10.97 3.8-11.65 3.77-12.34 3.72-13.05 3.69-13.78 3.63zm0 0c-1.73.44-3.56-1.8-4.06-4.99-.51-3.2.48-6.15 2.21-6.59l1.85 11.58z"/><path class="fil0" d="m839.32 1052.44-4.17-50.09 39.04 21.41-34.86 28.67zm621.5-76.21-7.77-49.65-32.87 30.02 40.65 19.63zm-20.32-9.81"/><path class="fil2" transform="rotate(-6.829 11447.374 -6930.183) scale(1.49283)" d="M0 0h368.49v57.72H0z"/><path class="fil3" d="m1082.18 1336.48 3.91-.47c.26 3.6-.63 6.63-2.67 9.05-2.01 2.41-4.85 3.84-8.47 4.27-4.16.5-7.57-.51-10.3-3.07-2.69-2.6-4.36-6.37-4.96-11.39-.56-4.65.24-8.46 2.38-11.48 2.14-3.06 5.36-4.82 9.56-5.32 3.33-.4 6.19.13 8.54 1.61 2.35 1.47 3.87 3.67 4.56 6.64l-3.95.47c-.6-1.89-1.69-3.31-3.22-4.21-1.52-.86-3.4-1.18-5.66-.91-3 .36-5.19 1.71-6.62 4.01-1.39 2.3-1.86 5.36-1.4 9.19.44 3.63 1.65 6.4 3.64 8.41 1.99 1.98 4.38 2.78 7.22 2.44 2.43-.29 4.31-1.27 5.7-2.98 1.35-1.66 1.93-3.78 1.76-6.26z"/><path id="_1_0" class="fil3" d="m1092.82 1320.76 3.02 25.24-3.71.44-3.54-29.6 5.76-.69 10.04 21.76c.28.63.51 1.11.63 1.43.17.36.29.68.36.92.06-.51.09-.97.17-1.36.07-.43.12-.77.2-1.15l4.91-23.55 5.76-.69 3.54 29.6-3.91.47-3.02-25.24c-.03.46-.1.89-.17 1.35-.07.43-.14.9-.22 1.32l-4.91 23.56-3.79.45-10.16-21.75c-.17-.36-.34-.75-.52-1.15-.13-.44-.31-.88-.45-1.37z"/><path id="_2_1" class="fil3" d="m1161.33 1338.15-3.55-29.6 4.03-.48 3.55 29.6z"/><path id="_3_2" class="fil3" d="m1171.78 1336.9-3.54-29.6 4.41-.53 16.41 19.83c.39.46.69.84.98 1.22.26.43.51.77.68 1.13l-2.87-24 3.83-.46 3.54 29.6-4.36.52-16.73-20.13c-.24-.31-.49-.61-.74-.96-.21-.35-.42-.7-.63-1.09l2.87 24-3.83.46z"/><path id="_4_3" class="fil3" d="m1220.9 1319.87 3.91-.47c.26 3.6-.63 6.63-2.67 9.05-2.01 2.41-4.84 3.84-8.47 4.27-4.15.5-7.57-.51-10.3-3.07-2.69-2.6-4.35-6.37-4.96-11.39-.56-4.65.24-8.46 2.39-11.48 2.14-3.05 5.35-4.81 9.55-5.32 3.33-.4 6.2.14 8.54 1.61 2.35 1.47 3.87 3.67 4.56 6.64l-3.95.47c-.6-1.89-1.69-3.31-3.22-4.21-1.52-.86-3.4-1.18-5.66-.91-3.01.36-5.19 1.71-6.62 4.01-1.4 2.3-1.86 5.36-1.4 9.19.43 3.62 1.64 6.4 3.63 8.41 1.99 1.98 4.38 2.78 7.22 2.44 2.43-.29 4.31-1.27 5.7-2.98 1.35-1.67 1.93-3.78 1.76-6.26z"/><path id="_5_4" class="fil3" d="m1230.85 1329.83-3.54-29.6 4.03-.49 1.46 12.15 15.35-1.84-1.45-12.14 4.03-.49 3.55 29.6-4.04.48-1.66-13.87-15.36 1.84 1.67 13.87z"/><path id="_6_5" class="fil3" d="m1260.63 1326.26-3.55-29.6 21.12-2.53.44 3.67-17.13 2.05 1.06 8.85 15.81-1.89.41 3.45-15.81 1.9 1.19 9.92 17.46-2.09.44 3.7z"/><path id="_7_6" class="fil3" d="m1284.41 1313.52 3.87-.46c.3 2.13 1.2 3.78 2.76 4.89 1.56 1.11 3.48 1.5 5.79 1.23 2.3-.28 4.06-.99 5.26-2.09 1.2-1.14 1.7-2.5 1.5-4.19-.27-2.26-2.95-3.69-8.07-4.25-.3-.05-.51-.07-.67-.09-4.15-.46-6.96-1.21-8.37-2.26-1.41-1-2.27-2.57-2.53-4.75-.31-2.63.37-4.89 2.12-6.69 1.74-1.83 4.2-2.96 7.41-3.35 3.3-.39 5.95.17 8.04 1.59 2.06 1.46 3.28 3.66 3.67 6.61l-3.83.46c-.36-1.96-1.24-3.4-2.56-4.33-1.36-.88-3.07-1.22-5.17-.96-1.98.24-3.49.83-4.58 1.84-1.09 1.01-1.53 2.23-1.36 3.67.28 2.31 2.91 3.7 7.94 4.27.72.08 1.31.13 1.7.17l.47.07c3.25.36 5.49.93 6.63 1.71.86.56 1.58 1.31 2.11 2.21.52.9.86 1.94 1 3.14.34 2.84-.41 5.27-2.23 7.2-1.85 1.93-4.52 3.09-8.02 3.5-3.58.43-6.49-.14-8.72-1.71-2.2-1.57-3.58-4.04-4.15-7.44z"/><path id="_8_7" class="fil3" d="m1134.83 1345.21 5.82-35.4 2.55-.31-5.9 35.41z"/><path class="fil0" d="M881.46 1355.65c1.91.02 3.69 2.65 3.96 5.88.28 3.23-1.05 5.83-2.96 5.81l-1-11.69zM656 1278.79l6.83-.78v.01l.53 3.25.76 3.23 1.01 3.24 1.28 3.25 1.58 3.28 1.91 3.31 2.26 3.33 2.63 3.34 3.01 3.33 3.41 3.3 3.83 3.26 4.25 3.21 4.69 3.14 5.13 3.06 5.6 2.97 6.06 2.88 6.55 2.76 7.04 2.65 7.55 2.52 8.06 2.39 8.59 2.26 9.13 2.11 9.69 1.95 10.25 1.8 10.83 1.63 11.42 1.45 12.02 1.28 12.64 1.09 13.26.89 13.91.7 14.56.49 15.22.28 1 11.69-15.28-.28-14.62-.49-13.98-.7-13.34-.9-12.72-1.09-12.11-1.28-11.51-1.47-10.93-1.64-10.36-1.81-9.8-1.98-9.26-2.14-8.73-2.29-8.21-2.44-7.71-2.58-7.22-2.72-6.74-2.85-6.29-2.98-5.84-3.1-5.41-3.23-4.99-3.34-4.59-3.46-4.2-3.58-3.82-3.7-3.45-3.82-3.1-3.94-2.76-4.07-2.42-4.2-2.09-4.32-1.75-4.44-1.41-4.52-1.08-4.58-.75-4.62v.01zm0-.01c-.41-3.22.78-6.01 2.67-6.22 1.88-.21 3.75 2.23 4.16 5.45l-6.83.76zm-.23-6.21 6.98 2.57-.01.19v.22l-.01.22v.9l.01.22v.15l.01.15.02.21.01.15.02.21.01.14.02.12-6.83.78-.06-.45-.04-.42-.04-.36-.04-.42-.02-.35-.03-.42-.02-.42-.01-.35-.01-.42-.01-.42v-.7l.01-.42.01-.35.01-.35.01-.37zm0 0c.14-3.15 1.81-5.13 3.74-4.42 1.93.71 3.37 3.84 3.24 6.99l-6.98-2.57zm1018.38-110.77c-.92-3.04-.29-6.39 1.41-7.49 1.7-1.09 3.82.48 4.74 3.51l-6.15 3.98zm7.49 2.07-6.83.76v-.02l-.02-.14-.02-.15-.03-.15-.02-.13-.03-.15-.04-.21-.03-.13-.03-.15-.05-.21-.05-.2-.04-.15-.06-.21-.06-.22-.06-.21-.06-.2-.07-.2 6.15-3.98.1.34.1.35.1.34.09.33.09.34.1.4.09.35.08.35.09.4.09.43.07.35.08.41.07.43.07.42.06.41.06.43v-.02zm0 .02c.4 3.22-.8 6-2.69 6.2-1.89.2-3.75-2.26-4.15-5.48l6.83-.72zm-199.74 130.97-1.98-11.58 14.73-3.62 14.04-3.65 13.36-3.68 12.7-3.71 12.05-3.73 11.42-3.76 10.79-3.79 10.18-3.81 9.59-3.83 9-3.84 8.43-3.86 7.87-3.87 7.33-3.89 6.79-3.89 6.27-3.9 5.76-3.9 5.27-3.9 4.79-3.9 4.31-3.89 3.85-3.87 3.41-3.85 2.97-3.81 2.56-3.78 2.16-3.72 1.77-3.66 1.41-3.58 1.06-3.49.74-3.41.46-3.33.19-3.26-.06-3.24-.3-3.23 6.83-.76.43 4.66.09 4.67-.26 4.67-.63 4.63-1 4.56-1.37 4.49-1.73 4.41-2.1 4.34-2.48 4.28-2.86 4.22-3.26 4.19-3.67 4.15-4.1 4.11-4.53 4.08-4.98 4.06-5.45 4.04-5.93 4.02-6.43 4-6.93 3.97-7.45 3.95-7.99 3.93-8.54 3.91-9.1 3.88-9.67 3.87-10.27 3.84-10.87 3.81-11.49 3.78-12.12 3.76-12.76 3.73-13.42 3.69-14.09 3.67-14.78 3.63zm0 0c-1.85.44-3.8-1.8-4.34-4.99-.55-3.2.51-6.15 2.36-6.59l1.98 11.58z"/><path class="fil0" d="m875.81 1386.21-4.17-50.09 39.04 21.41-34.86 28.67zm621.5-76.21-7.77-49.65-32.87 30.02 40.65 19.63zm-20.32-9.81"/></g></g></svg>