<svg width="36" height="13" fill="none" xmlns="http://www.w3.org/2000/svg"><path d="m29.656 7.756.087-.3c.103-.356.065-.686-.108-.928-.16-.222-.425-.354-.748-.37l-6.11-.077a.12.12 0 0 1-.096-.052.126.126 0 0 1-.014-.11c.02-.06.08-.106.142-.109l6.167-.078c.732-.033 1.524-.627 1.801-1.35l.352-.919a.219.219 0 0 0 .01-.12 4.017 4.017 0 0 0-7.723-.416 1.805 1.805 0 0 0-2.88 1.263c-.023.22-.005.432.045.631a2.57 2.57 0 0 0-2.467 2.94.12.12 0 0 0 .117.103h11.284a.149.149 0 0 0 .14-.106l.001-.002Zm5.875 1.764c.026 0 .052-.014.052-.051 0-.038-.02-.051-.052-.051h-.097v.102h.097ZM2.278 10.929a.683.683 0 0 1-.638.418c-.421 0-.711-.35-.711-.752v-.008c0-.401.282-.743.704-.743.317 0 .56.196.661.462h.813c-.13-.662-.712-1.157-1.467-1.157-.858 0-1.502.648-1.502 1.447v.008c0 .8.636 1.439 1.495 1.439.734 0 1.308-.476 1.46-1.113h-.815v-.001ZM32.3 9.203h2.238v.656h-1.475v.421h1.335v.609h-1.335v.441h1.495v.656H32.3V9.203Zm-2.302 1.335c.263 0 .413-.127.413-.33V10.2c0-.219-.159-.33-.417-.33h-.505v.668h.509Zm-1.28-1.335h1.316c.425 0 .72.111.907.302.163.16.246.374.246.648v.008c0 .425-.226.707-.572.854l.664.97h-.89l-.561-.842h-.338v.843h-.772V9.203Zm-2.245 1.686-.31-.791-.314.79h.624Zm-.676-1.706h.743l1.184 2.803h-.826l-.203-.497h-1.073l-.199.497h-.81l1.184-2.803Zm-4.135.02h.772v2.107h1.348v.676h-2.119V9.203Zm-3.3 0h2.227v.676h-1.455v.473h1.317v.64h-1.317v.994h-.77V9.203h-.001Zm-2.679 2.1c.461 0 .767-.255.767-.704v-.008c0-.445-.306-.704-.767-.704h-.315v1.415h.315Zm-1.085-2.1h1.073c.993 0 1.57.572 1.57 1.376v.008c0 .803-.584 1.399-1.586 1.399h-1.057V9.203Zm-3.773 1.563V9.203h.783v1.546c0 .402.203.593.513.593s.512-.184.512-.572V9.203h.784v1.543c0 .898-.513 1.292-1.304 1.292s-1.288-.402-1.288-1.272Zm-1.732-.163v-.008c0-.402-.29-.752-.715-.752-.422 0-.704.342-.704.743v.008c0 .401.29.752.711.752.426 0 .708-.342.708-.743Zm-2.21 0v-.008c0-.8.644-1.448 1.502-1.448.859 0 1.495.64 1.495 1.44v.008c0 .799-.644 1.447-1.502 1.447-.859 0-1.495-.64-1.495-1.44Zm-2.918-1.4h.772v2.107h1.348v.676H3.966V9.203Zm31.68.49h-.072l-.06-.116h-.08v.115h-.063V9.36h.158c.07 0 .115.043.115.109a.105.105 0 0 1-.07.1l.072.123Zm-.153-.404a.243.243 0 0 0-.241.245c0 .135.108.246.24.246.134 0 .242-.11.242-.246a.243.243 0 0 0-.241-.245Zm0 .546a.301.301 0 1 1 0-.603.301.301 0 0 1 0 .603Zm-3.803-6.306c-.056 0-.113.002-.169.005a.083.083 0 0 0-.026.006.098.098 0 0 0-.062.065l-.24.83c-.103.357-.065.686.108.928.16.224.426.354.748.37l1.303.077a.12.12 0 0 1 .093.05.12.12 0 0 1 .014.11.162.162 0 0 1-.142.109l-1.354.078c-.735.033-1.527.628-1.804 1.35l-.098.256a.072.072 0 0 0 .065.098h4.66a.124.124 0 0 0 .12-.09 3.34 3.34 0 0 0-3.216-4.244v.002Z" fill="#4D4D4D"/></svg>