<svg viewBox="0 0 230.667 161.333" xmlns="http://www.w3.org/2000/svg"><path d="m426.297 418.84 118.715 189.988 51.847-82.976-118.711-189.989Zm-82.621 132.219 118.715 189.968 51.851-82.961-118.715-189.984-51.851 82.977" style="fill:#4d4d4d;fill-opacity:1;fill-rule:evenodd;stroke:none" transform="matrix(.13333 0 0 -.13333 0 161.333)"/><path d="M114.45 160.157 68.567 86.723l4.102-6.567 49.988 80.001h13.828l-49.99-80 49.99-80h-13.828L79.581 69.094 36.506.157H22.68l49.988 80-4.102 6.566L14.474.157H.649l61.003 97.63-38.972 62.37h13.825l27.248-43.605-6.913-11.064 4.814-7.701 38.971 62.37Zm105.105-51.135V95.916h1.326l7.403 11.248V95.916h1.167v13.106h-1.334l-7.377-11.247v11.247zm-11.026 0V95.916h8.58v1.075h-7.377v4.778h6.747v1.042h-6.747v5.136h7.599v1.075zm-14.868 0V95.916h1.69l4.325 11.54 4.245-11.54h1.69v13.106h-1.167V97.596l-4.207 11.426h-1.114l-4.28-11.426v11.426zm-13.1-6.54c0 1.793.428 3.212 1.282 4.26.853 1.044 2.01 1.57 3.472 1.57 1.464 0 2.626-.523 3.486-1.567.86-1.046 1.291-2.467 1.291-4.262 0-1.804-.43-3.231-1.29-4.282-.86-1.049-2.023-1.574-3.487-1.574-1.443 0-2.595.528-3.46 1.589-.863 1.06-1.294 2.48-1.294 4.267zm-1.245 0c0-2.125.54-3.805 1.619-5.044 1.081-1.242 2.538-1.863 4.38-1.863s3.306.62 4.389 1.863c1.084 1.24 1.624 2.919 1.624 5.045 0 2.123-.54 3.806-1.624 5.045-1.083 1.24-2.547 1.859-4.39 1.859-1.84 0-3.298-.62-4.38-1.859-1.078-1.239-1.618-2.922-1.618-5.045zm-13.047 6.54-3.389-13.106h1.185l2.919 11.3 2.9-11.3h1.476l2.859 11.3 2.953-11.3h1.147l-3.444 13.106h-1.315l-2.965-11.648-3.024 11.648zm48.299-38.162v7.946h5.439c1.954 0 3.353-.325 4.169-.942.781-.653 1.204-1.696 1.204-3.194 0-1.4-.39-2.377-1.14-2.93-.78-.586-2.181-.88-4.233-.88zm-3.125-2.735h9.085c1.465 0 2.541.066 3.257.195.684.131 1.302.326 1.855.62.977.554 1.727 1.303 2.248 2.247.521.977.781 2.116.781 3.42 0 1.27-.26 2.343-.813 3.224-.555.91-1.337 1.594-2.41 2.116.911.26 1.563.683 1.954 1.3.39.588.617 1.63.716 3.063l.26 3.843c.065.847.163 1.467.327 1.857.162.422.422.716.746.878v.653h-3.677c-.293-.488-.49-1.531-.62-3.126v-.098l-.195-3.063c-.098-1.561-.425-2.572-1.009-3.06-.555-.455-1.955-.684-4.203-.684h-5.144v10.03h-3.158zM190.627 91.54V68.125h16.706v2.898h-13.548v7.002h12.506v2.736h-12.506v7.849h13.807v2.93zm-14.363-20.713h-5.47v17.845h5.47c2.345 0 4.104-.748 5.308-2.278 1.205-1.531 1.792-3.778 1.792-6.742 0-2.866-.62-5.046-1.825-6.545-1.236-1.53-2.996-2.28-5.275-2.28zm-8.663 20.713V68.125h8.924c3.256 0 5.763.977 7.49 2.931 1.758 1.953 2.606 4.755 2.606 8.434 0 3.81-.881 6.774-2.702 8.892-1.792 2.116-4.3 3.159-7.526 3.159zm-23.517 0V68.125h3.483l10.944 17c.26.39.454.716.65 1.04.163.36.326.653.424.947V68.125h3.028V91.54h-3.452l-11.169-17.26a16.6 16.6 0 0 1-.49-.816c-.13-.291-.26-.585-.391-.911V91.54Zm-23.188-8.891V68.125h3.19v14.557c0 2.182.49 3.81 1.467 4.852.944 1.076 2.475 1.595 4.492 1.595 2.02 0 3.518-.552 4.495-1.595 1.01-1.073 1.499-2.702 1.499-4.852V68.125h3.19V82.65c0 3.126-.812 5.503-2.409 7.132-1.63 1.596-4.006 2.41-7.131 2.41-2.932 0-5.114-.783-6.58-2.378-1.464-1.596-2.213-3.973-2.213-7.164zM.649 160.157 45.823 87.86l6.914 11.063-38.263 61.235Zm59.982-95.993 1.021-1.634zm7.935-12.698L100.626.157h13.825L75.478 62.53l-6.912-11.064"/></svg>