<svg xmlns="http://www.w3.org/2000/svg" width="432" height="303" style="shape-rendering:geometricPrecision;text-rendering:geometricPrecision;image-rendering:optimizeQuality;fill-rule:evenodd;clip-rule:evenodd"><path style="opacity:.946" fill="#00fefe" d="M316.5 117.5a94.28 94.28 0 0 0-14 22 91.679 91.679 0 0 0-7 11 124.877 124.877 0 0 0-14 23 11920.706 11920.706 0 0 0-80 127c-9 1.333-18 1.333-27 0l93-150a17074.164 17074.164 0 0 0-93-149 122.063 122.063 0 0 1 27-.5 23582.22 23582.22 0 0 0 80 126.5c2.155-2.962 4.321-5.962 6.5-9A5602.181 5602.181 0 0 0 215.5 1a131.23 131.23 0 0 1 28 .5 8575.435 8575.435 0 0 1 58.5 94A13792.24 13792.24 0 0 1 361.5 1a122.063 122.063 0 0 1 27 .5 6166.136 6166.136 0 0 0-72 116Z"/><path style="opacity:.95" fill="#00fefe" d="M336.5 150.5a185.738 185.738 0 0 0-14 22 88.153 88.153 0 0 0-6 11c-2.368 2.343-4.535 5.009-6.5 8a141.951 141.951 0 0 0-7.5 14 10071.498 10071.498 0 0 0-59.5 95c-9.107 1.317-18.273 1.317-27.5 0a10326.607 10326.607 0 0 1 73-117 185.738 185.738 0 0 0 14-22 88.153 88.153 0 0 0 6-11c2.368-2.343 4.535-5.009 6.5-8 2.78-4.562 5.28-9.228 7.5-14A17995.348 17995.348 0 0 0 402 1.5c9.107-1.317 18.273-1.317 27.5 0a16776.93 16776.93 0 0 1-93 149Z"/><path style="opacity:.947" fill="#94989b" d="M316.5 117.5a88.153 88.153 0 0 0 6 11 141.951 141.951 0 0 1-7.5 14c-1.965 2.991-4.132 5.657-6.5 8a88.153 88.153 0 0 0-6-11 94.28 94.28 0 0 1 14-22Z"/><path style="opacity:.873" fill="#00fffe" d="M.5 127.5h6c-.38 11.055.12 22.055 1.5 33 1.754 4.256 4.92 6.256 9.5 6 4.218.272 7.385-1.395 9.5-5a212.197 212.197 0 0 0 1.5-34h7c.166 11.005 0 22.005-.5 33-2.325 9.314-8.325 13.647-18 13-7.748.462-13.082-2.871-16-10a648.428 648.428 0 0 1-.5-36Z"/><path style="opacity:.811" fill="#00fffe" d="M43.5 127.5c2.747-.313 5.413.02 8 1a1009.882 1009.882 0 0 1 20.5 32c.5-10.995.666-21.995.5-33h7v45c-2.948.277-5.78-.056-8.5-1a752.2 752.2 0 0 0-20-31 512.462 512.462 0 0 0-.5 32h-7v-45Z"/><path style="opacity:.827" fill="#00fffe" d="M87.5 127.5c7.674-.166 15.341 0 23 .5 6.4 1.399 10.566 5.233 12.5 11.5 2 6.667 2 13.333 0 20-2.377 7.045-7.21 11.212-14.5 12.5-6.992.5-13.992.666-21 .5v-45Zm7 6c18.244-1.923 25.411 6.077 21.5 24-.883 2.602-2.383 4.769-4.5 6.5-5.544 1.404-11.21 1.904-17 1.5v-32Z"/><path style="opacity:.829" fill="#00fffe" d="M130.5 127.5h33v6h-26v13h24v6h-24v13h26v7h-33v-45Z"/><path style="opacity:.837" fill="#00fffe" d="M169.5 127.5c8.34-.166 16.673 0 25 .5 5.797 2.077 8.797 6.244 9 12.5-.375 4.263-2.375 7.429-6 9.5a6.978 6.978 0 0 1 3.5 2.5 167.623 167.623 0 0 0 3.5 20 16.873 16.873 0 0 1-8-1 91.014 91.014 0 0 0-3-16 6.802 6.802 0 0 0-3-1.5 98.432 98.432 0 0 0-14-.5v19h-7v-45Zm7 6a57.025 57.025 0 0 1 17 1.5c2.589 3.598 2.589 7.264 0 11a57.025 57.025 0 0 1-17 1.5v-14Z"/><path style="opacity:.943" fill="#94989b" d="M295.5 150.5a91.679 91.679 0 0 0 7 11 185.738 185.738 0 0 1-14 22 2204.534 2204.534 0 0 0-7-10 124.877 124.877 0 0 1 14-23Z"/><path style="opacity:.949" fill="#94999b" d="M336.5 150.5a88.53 88.53 0 0 1 8 14 329.703 329.703 0 0 1-13 21 137.896 137.896 0 0 1-9-13 185.738 185.738 0 0 1 14-22Z"/><path style="opacity:.939" fill="#00fefe" d="M344.5 164.5a12902.75 12902.75 0 0 1 83.5 132c1.009 1.525 1.509 3.192 1.5 5-8.673.166-17.34 0-26-.5a4163.326 4163.326 0 0 1-72-115.5 329.703 329.703 0 0 0 13-21Z"/><path style="opacity:.643" fill="#00fffe" d="M-.5 180.5h5a108.378 108.378 0 0 0 7 19 108.375 108.375 0 0 0 7-19h5v25h-4c.166-5.344 0-10.677-.5-16l-5 14c-1.667 2.667-3.333 2.667-5 0l-6-16a162.44 162.44 0 0 0-.5 18h-3v-25Z"/><path style="opacity:.68" fill="#00fffe" d="M27.5 180.5h17v3h-14v8h13v3h-13v8h15v3h-18v-25Z"/><path style="opacity:.688" fill="#00fffe" d="M47.5 180.5c1.644-.214 3.144.12 4.5 1l12 18c.5-6.325.666-12.658.5-19h3v25c-2.222.322-4.056-.345-5.5-2l-11-17c-.5 6.325-.666 12.658-.5 19h-3v-25Z"/><path style="opacity:.955" fill="#94999b" d="m316.5 183.5 8 15-14 20a126.166 126.166 0 0 1-8-13c2.22-4.772 4.72-9.438 7.5-14 1.965-2.991 4.132-5.657 6.5-8Z"/><path style="opacity:.933" fill="#00fefe" d="M324.5 198.5a7412.06 7412.06 0 0 1 63.5 100c.483.948.649 1.948.5 3a183.078 183.078 0 0 1-27-1 113567.685 113567.685 0 0 1-51-82l14-20Z"/></svg>