<svg viewBox="0 0 1733 842" fill="none" xmlns="http://www.w3.org/2000/svg"><path clip-rule="evenodd" d="M54.11 4h1625.1c27.5 0 50 22.5 50 50v620.01c0 27.5-22.5 50-50 50H54.11c-27.5 0-50-22.5-50-50V54c0-27.5 22.5-50 50-50Zm1296.62 200.24h338.15v79.75h-338.15v-79.75Z" stroke="#D42F91" stroke-width="6.67" stroke-miterlimit="2.613"/><path clip-rule="evenodd" d="M738.25 752.92h408.32v85.07H738.25v-85.07Zm1.06-142.49h414.7v85.07h-414.7v-85.07Zm-199.38 0h153.12v85.07H539.93v-85.07Zm-420.55 0h368.98v85.07H119.38v-85.07ZM93.86 752.92h412.58v85.07H93.86v-85.07Zm446.61 0H722.3v85.07H540.47v-85.07Z" stroke="#D42F91" stroke-width="6.67" stroke-miterlimit="2.613"/><path fill-rule="evenodd" clip-rule="evenodd" d="M176.51 752.92V695.5h6.67v57.42h-6.67Zm-3.97-169.07h602.39v3.33H172.54v-3.33Zm74.57-317.88h1028.47v3.33H247.11v-3.33ZM71.66 368.91h1242.38v3.33H71.66v-3.33Zm1080.22-235h259.8v3.33h-259.8v-3.33ZM970.05 583.85h688.52v3.33H970.05v-3.33ZM589.38 752.92V695.5h6.67v57.42h-6.67Zm230.74 0V695.5h6.67v57.42h-6.67Z" fill="#D42F91"/><path d="M151.58 794.25h-6.47v11.76h-6.12v-29.98h14.71c2.1.04 3.72.3 4.85.77a7.44 7.44 0 0 1 2.88 2.09c.65.76 1.17 1.6 1.55 2.52.38.92.57 1.97.57 3.15 0 1.43-.36 2.83-1.08 4.2-.72 1.38-1.9 2.35-3.56 2.92 1.38.56 2.36 1.35 2.94 2.37.57 1.02.87 2.59.87 4.69v2.02c0 1.37.05 2.3.16 2.79.16.77.54 1.34 1.14 1.71v.75h-6.89c-.19-.67-.33-1.2-.41-1.6-.16-.85-.25-1.71-.26-2.59l-.04-2.79c-.03-1.91-.37-3.19-1.05-3.83-.67-.63-1.93-.95-3.77-.95h-.02Zm929.61-657h-8.61v-19.99h8.61c1.24.02 2.27.16 3.09.43 1.41.46 2.54 1.31 3.41 2.54.69 1 1.17 2.07 1.42 3.23.26 1.16.38 2.26.38 3.3 0 2.67-.53 4.91-1.59 6.76-1.45 2.49-3.68 3.73-6.7 3.73h-.01Zm3.11-14.89c-.64-1.08-1.91-1.63-3.81-1.63h-3.85v13.05h3.85c1.97 0 3.35-.97 4.13-2.92.42-1.06.63-2.34.63-3.81 0-2.04-.31-3.59-.95-4.69Zm20.05 10.78h-7.36l-1.39 4.11h-4.37l7.13-19.99h4.72l7.08 19.99h-4.53l-1.29-4.11h.01Zm-1.17-3.44-2.5-7.87-2.57 7.87h5.07Zm22.01-12.44v3.54h-5.98v16.46h-4.2V120.8H1109v-3.54h16.2-.01Zm16.35 11.26h-9.71v5.14h11.07v3.59h-15.15v-19.99h14.66v3.54h-10.58v4.25h9.71v3.47Zm199.04 234h-8.61v-19.99h8.61c1.24.02 2.27.16 3.09.43 1.41.46 2.54 1.31 3.41 2.54.69 1 1.17 2.07 1.42 3.23.26 1.16.38 2.26.38 3.3 0 2.67-.53 4.91-1.59 6.76-1.45 2.49-3.68 3.73-6.7 3.73h-.01Zm3.11-14.89c-.64-1.08-1.91-1.63-3.81-1.63h-3.85v13.05h3.85c1.97 0 3.35-.97 4.13-2.92.42-1.06.63-2.34.63-3.81 0-2.04-.31-3.59-.95-4.69Zm17.19 15.45c-2.86 0-5.04-.78-6.55-2.33-2.02-1.91-3.04-4.66-3.04-8.24 0-3.66 1.02-6.41 3.04-8.24 1.51-1.56 3.69-2.33 6.55-2.33 2.85 0 5.04.78 6.55 2.33 2.02 1.83 3.03 4.58 3.03 8.24 0 3.59-1.01 6.34-3.03 8.24-1.51 1.56-3.7 2.33-6.55 2.33Zm3.95-5.37c.97-1.22 1.45-2.96 1.45-5.21 0-2.24-.49-3.98-1.46-5.2-.97-1.22-2.28-1.84-3.94-1.84-1.65 0-2.97.61-3.96 1.83-.98 1.22-1.48 2.96-1.48 5.21s.5 3.98 1.48 5.21c.99 1.22 2.31 1.83 3.96 1.83 1.66 0 2.97-.61 3.95-1.83Zm8.81-15.18h4.18v16.4h9.91v3.59h-14.08v-19.99h-.01Zm28.67 15.88h-7.36l-1.39 4.11h-4.37l7.13-19.99h4.72l7.08 19.99h-4.53l-1.29-4.11h.01Zm-1.17-3.44-2.5-7.87-2.57 7.87h5.07Zm18.02-.28h-4.31v7.84h-4.08v-19.99h9.81c1.4.02 2.48.2 3.23.52.76.31 1.4.78 1.92 1.4.43.5.78 1.06 1.03 1.68.25.61.38 1.31.38 2.1 0 .95-.24 1.88-.72 2.8-.48.92-1.27 1.56-2.37 1.94.92.37 1.57.9 1.96 1.58.39.68.58 1.72.58 3.13v1.34c0 .91.04 1.53.11 1.86.11.51.36.89.76 1.14v.5h-4.6c-.12-.44-.22-.8-.27-1.07-.11-.56-.17-1.14-.18-1.72l-.03-1.86c-.02-1.27-.25-2.13-.7-2.55-.44-.42-1.28-.63-2.52-.63v-.01Zm2.54-3.64c.83-.38 1.24-1.13 1.24-2.25 0-1.21-.4-2.02-1.2-2.44-.45-.24-1.13-.35-2.04-.35h-4.86v5.37h4.74c.94 0 1.65-.11 2.12-.33Zm16.29 8.59c.99 0 1.79-.11 2.41-.32 1.17-.42 1.75-1.19 1.75-2.32 0-.66-.29-1.17-.87-1.54-.58-.35-1.48-.67-2.72-.94l-2.12-.47c-2.08-.47-3.52-.98-4.31-1.54-1.35-.92-2.02-2.36-2.02-4.33 0-1.79.65-3.28 1.95-4.46 1.3-1.18 3.22-1.77 5.74-1.77 2.11 0 3.91.56 5.4 1.67 1.48 1.12 2.27 2.74 2.33 4.87h-4.01c-.07-1.2-.6-2.06-1.57-2.56-.65-.33-1.46-.5-2.43-.5-1.07 0-1.94.22-2.58.65-.64.44-.96 1.04-.96 1.82 0 .71.32 1.24.95 1.6.41.23 1.28.51 2.61.82l3.44.83c1.51.36 2.65.85 3.42 1.45 1.2.94 1.79 2.31 1.79 4.09 0 1.83-.7 3.34-2.1 4.55-1.39 1.21-3.37 1.81-5.91 1.81-2.61 0-4.65-.59-6.15-1.78-1.49-1.19-2.24-2.83-2.24-4.91h3.98c.13.91.38 1.6.75 2.05.68.83 1.84 1.24 3.48 1.24l-.01-.01Zm-119.9-114.4c-3.46-1.02-5.89-2.43-7.31-4.23-1.43-1.81-2.13-3.99-2.13-6.54 0-1.69.27-3.21.82-4.59.55-1.37 1.33-2.56 2.31-3.55 1.29-1.29 2.71-2.18 4.29-2.66.96-.31 2.36-.54 4.2-.69v-3.6h2.58v3.66c2.94.24 5.26.96 6.94 2.18 3.06 1.93 4.64 5.06 4.74 9.41h-7.13c-.15-1.61-.42-2.79-.81-3.53-.69-1.28-1.93-1.99-3.74-2.11v10.33c4.31 1.48 7.19 2.8 8.68 3.93 2.44 1.9 3.67 4.57 3.67 8.03 0 4.56-1.68 7.87-5.02 9.93-2.04 1.27-4.47 2.01-7.27 2.22v5.45h-2.64v-5.4c-3.56-.4-6.22-1.18-7.97-2.33-3.09-2.07-4.61-5.62-4.56-10.63h7.32c.25 2.28.6 3.81 1.06 4.59.7 1.21 2.09 2 4.15 2.36v-11.58l-2.19-.65h.01Zm4.78 1.54v10.6c1.43-.17 2.46-.51 3.12-.97 1.14-.83 1.7-2.27 1.7-4.31 0-1.56-.53-2.79-1.6-3.69-.63-.52-1.7-1.07-3.22-1.62v-.01Zm-2.58-8.22v-9.52c-1.57.04-2.74.45-3.5 1.26-.76.81-1.14 1.9-1.14 3.3 0 1.52.57 2.72 1.71 3.6.63.49 1.61.94 2.93 1.36Zm188.2-142.48h-7.93V68.95h-9.25v-5.26c2.44-.11 4.15-.27 5.13-.49 1.56-.34 2.81-1.03 3.8-2.06.67-.72 1.17-1.65 1.52-2.83.2-.7.3-1.23.3-1.57h6.44v39.33l-.01.01Zm25.13-31.49c-.86 1.16-1.28 2.7-1.24 4.64h-7.22c.07-1.96.41-3.81 1.01-5.57.63-1.54 1.63-2.95 2.98-4.26 1.01-.93 2.21-1.63 3.61-2.11 1.39-.49 3.1-.74 5.12-.74 3.77 0 6.8.97 9.1 2.92 2.3 1.94 3.46 4.56 3.46 7.83 0 2.31-.69 4.27-2.06 5.85-.87 1-1.77 1.68-2.71 2.04.7 0 1.72.61 3.04 1.81 1.97 1.83 2.96 4.33 2.96 7.49 0 3.32-1.16 6.25-3.46 8.78-2.31 2.52-5.72 3.78-10.24 3.78-5.57 0-9.44-1.81-11.61-5.44-1.14-1.93-1.77-4.47-1.9-7.6h7.6c0 1.57.25 2.88.76 3.91.94 1.9 2.65 2.85 5.12 2.85 1.52 0 2.84-.52 3.97-1.56 1.14-1.04 1.7-2.54 1.7-4.49 0-2.58-1.06-4.31-3.15-5.18-1.19-.49-3.07-.73-5.65-.73v-5.54c2.52-.04 4.27-.28 5.27-.73 1.72-.76 2.57-2.3 2.57-4.61 0-1.5-.43-2.72-1.31-3.67-.88-.94-2.11-1.41-3.7-1.41-1.83 0-3.17.58-4.02 1.74Zm39.71 11.96c-.94 0-1.76.11-2.44.35-1.21.44-2.13 1.23-2.74 2.41l-6.94-.32 2.77-21.72h21.68v6.57h-16.09l-1.41 8.59c1.19-.78 2.13-1.29 2.8-1.55 1.12-.42 2.48-.62 4.09-.62 3.26 0 6.09 1.09 8.52 3.28 2.43 2.2 3.64 5.38 3.64 9.56 0 3.63-1.17 6.88-3.5 9.73-2.33 2.86-5.83 4.29-10.47 4.29-3.74 0-6.81-1-9.22-3.01-2.41-2.01-3.74-4.85-4.02-8.55h7.7c.31 1.69.9 2.98 1.77 3.9.86.91 2.13 1.37 3.8 1.37 1.92 0 3.38-.68 4.38-2.03 1-1.34 1.51-3.04 1.51-5.08 0-2.01-.47-3.7-1.42-5.08-.94-1.39-2.41-2.07-4.39-2.07l-.02-.02Zm35.53 0c-.94 0-1.76.11-2.44.35-1.21.44-2.13 1.23-2.74 2.41l-6.94-.32 2.77-21.72h21.68v6.57h-16.09l-1.41 8.59c1.19-.78 2.13-1.29 2.8-1.55 1.12-.42 2.48-.62 4.09-.62 3.26 0 6.09 1.09 8.52 3.28 2.43 2.2 3.64 5.38 3.64 9.56 0 3.63-1.17 6.88-3.5 9.73-2.33 2.86-5.83 4.29-10.47 4.29-3.74 0-6.81-1-9.22-3.01-2.41-2.01-3.74-4.85-4.02-8.55h7.7c.31 1.69.9 2.98 1.77 3.9.86.91 2.13 1.37 3.8 1.37 1.92 0 3.38-.68 4.38-2.03 1-1.34 1.51-3.04 1.51-5.08 0-2.01-.47-3.7-1.42-5.08-.94-1.39-2.41-2.07-4.39-2.07l-.02-.02ZM76.44 233.8H72.2v7.19h-4.15V221h8.7c2.01 0 3.61.52 4.81 1.55 1.19 1.03 1.79 2.63 1.79 4.79 0 2.36-.6 4.03-1.79 5-1.2.98-2.9 1.46-5.12 1.46Zm1.95-4.17c.54-.48.81-1.24.81-2.28 0-1.04-.27-1.78-.82-2.23-.55-.44-1.31-.66-2.3-.66h-3.89v5.89h3.89c.98 0 1.76-.24 2.3-.72h.01Zm17.74 7.24h-7.36l-1.39 4.11h-4.37l7.13-19.99h4.72l7.08 19.99h-4.53l-1.29-4.11h.01Zm-1.17-3.44-2.5-7.87-2.57 7.87h5.07Zm23.11-12.44-6.69 12.48v7.52h-4.18v-7.52l-6.92-12.48h4.92l4.15 8.7 3.97-8.7h4.75Zm24.15 0v3.54h-5.98v16.46h-4.2v-16.46h-6.01v-3.54h16.2-.01Zm10.8 20.55c-2.86 0-5.04-.78-6.55-2.33-2.02-1.91-3.04-4.66-3.04-8.24 0-3.66 1.02-6.41 3.04-8.24 1.51-1.56 3.69-2.33 6.55-2.33 2.85 0 5.04.78 6.55 2.33 2.02 1.83 3.03 4.58 3.03 8.24 0 3.59-1.01 6.34-3.03 8.24-1.51 1.56-3.7 2.33-6.55 2.33Zm3.95-5.37c.97-1.22 1.45-2.96 1.45-5.21 0-2.24-.49-3.98-1.46-5.2-.97-1.22-2.28-1.84-3.94-1.84-1.65 0-2.97.61-3.96 1.83-.98 1.22-1.48 2.96-1.48 5.21s.5 3.98 1.48 5.21c.99 1.22 2.31 1.83 3.96 1.83 1.66 0 2.97-.61 3.95-1.83Zm31.06-15.18v3.54h-5.98v16.46h-4.2v-16.46h-6.01v-3.54h16.2-.01Zm14.36 19.99v-8.93h-7.81v8.93h-4.14v-19.99h4.14v7.62h7.81v-7.62h4.15v19.99h-4.15Zm22.06-8.74h-9.71v5.14h11.07v3.59h-15.15v-19.99h14.66v3.54h-10.58v4.25h9.71v3.47ZM76.79 269.31c-2.86 0-5.04-.78-6.55-2.33-2.02-1.91-3.04-4.66-3.04-8.24 0-3.66 1.02-6.41 3.04-8.24 1.51-1.56 3.69-2.33 6.55-2.33 2.85 0 5.04.78 6.55 2.33 2.02 1.83 3.03 4.58 3.03 8.24 0 3.59-1.01 6.34-3.03 8.24-1.51 1.56-3.7 2.33-6.55 2.33Zm3.95-5.37c.97-1.22 1.45-2.96 1.45-5.21 0-2.24-.49-3.98-1.46-5.2-.97-1.22-2.28-1.84-3.94-1.84-1.65 0-2.97.61-3.96 1.83-.98 1.22-1.48 2.96-1.48 5.21s.5 3.98 1.48 5.21c.99 1.22 2.31 1.83 3.96 1.83 1.66 0 2.97-.61 3.95-1.83Zm17.3-3.02h-4.31v7.84h-4.08v-19.99h9.81c1.4.02 2.48.2 3.23.52.76.31 1.4.78 1.92 1.4.43.5.78 1.06 1.03 1.68.25.61.38 1.31.38 2.1 0 .95-.24 1.88-.72 2.8-.48.92-1.27 1.56-2.37 1.94.92.37 1.57.9 1.96 1.58.39.68.58 1.72.58 3.13v1.34c0 .91.04 1.53.11 1.86.11.51.36.89.76 1.14v.5h-4.6c-.12-.44-.22-.8-.27-1.07-.11-.56-.17-1.14-.18-1.72l-.03-1.86c-.02-1.27-.25-2.13-.7-2.55-.44-.42-1.28-.63-2.52-.63v-.01Zm2.54-3.64c.83-.38 1.24-1.13 1.24-2.25 0-1.21-.4-2.02-1.2-2.44-.45-.24-1.13-.35-2.04-.35h-4.86v5.37h4.74c.94 0 1.65-.11 2.12-.33Zm17.65 11.48h-8.61v-19.99h8.61c1.24.02 2.27.16 3.09.43 1.41.46 2.54 1.31 3.41 2.54.69 1 1.17 2.07 1.42 3.23.26 1.16.38 2.26.38 3.3 0 2.67-.53 4.91-1.59 6.76-1.45 2.49-3.68 3.73-6.7 3.73h-.01Zm3.11-14.89c-.64-1.08-1.91-1.63-3.81-1.63h-3.85v13.05h3.85c1.97 0 3.35-.97 4.13-2.92.42-1.06.63-2.34.63-3.81 0-2.04-.31-3.59-.95-4.69Zm22.26 6.16h-9.71v5.14h11.07v3.59h-15.15v-19.99h14.66v3.54h-10.58v4.25h9.71v3.47Zm13.1.9h-4.31v7.84h-4.08v-19.99h9.81c1.4.02 2.48.2 3.23.52.76.31 1.4.78 1.92 1.4.43.5.78 1.06 1.03 1.68.25.61.38 1.31.38 2.1 0 .95-.24 1.88-.72 2.8-.48.92-1.27 1.56-2.37 1.94.92.37 1.57.9 1.96 1.58.39.68.58 1.72.58 3.13v1.34c0 .91.04 1.53.11 1.86.11.51.36.89.76 1.14v.5h-4.6c-.12-.44-.22-.8-.27-1.07-.11-.56-.17-1.14-.18-1.72l-.03-1.86c-.02-1.27-.25-2.13-.7-2.55-.44-.42-1.28-.63-2.52-.63v-.01Zm2.54-3.64c.83-.38 1.24-1.13 1.24-2.25 0-1.21-.4-2.02-1.2-2.44-.45-.24-1.13-.35-2.04-.35h-4.86v5.37h4.74c.94 0 1.65-.11 2.12-.33Zm25.59 12.03c-2.86 0-5.04-.78-6.55-2.33-2.02-1.91-3.04-4.66-3.04-8.24 0-3.66 1.02-6.41 3.04-8.24 1.51-1.56 3.69-2.33 6.55-2.33 2.85 0 5.04.78 6.55 2.33 2.02 1.83 3.03 4.58 3.03 8.24 0 3.59-1.01 6.34-3.03 8.24-1.51 1.56-3.7 2.33-6.55 2.33Zm3.95-5.37c.97-1.22 1.45-2.96 1.45-5.21 0-2.24-.49-3.98-1.46-5.2-.97-1.22-2.28-1.84-3.94-1.84-1.65 0-2.97.61-3.96 1.83-.98 1.22-1.48 2.96-1.48 5.21s.5 3.98 1.48 5.21c.99 1.22 2.31 1.83 3.96 1.83 1.66 0 2.97-.61 3.95-1.83Zm22.99-11.64h-10.02v4.6h8.78v3.47h-8.78v8.39h-4.15V248.8h14.18v3.51h-.01ZM80.25 584.09h-3.89V564.1h6.08l3.63 15.72 3.61-15.72h6.01v19.99H91.8v-13.52c0-.39 0-.94.01-1.63.01-.7.02-1.24.02-1.62l-3.78 16.78h-4.06l-3.76-16.78c0 .38 0 .92.01 1.62.01.7.02 1.24.02 1.63v13.52h-.01Zm31.33-12.91c1.25 1.57 1.87 3.41 1.87 5.55 0 2.17-.62 4.03-1.87 5.57s-3.14 2.31-5.69 2.31c-2.54 0-4.43-.77-5.68-2.31s-1.87-3.4-1.87-5.57c0-2.13.63-3.98 1.87-5.55 1.25-1.56 3.14-2.35 5.68-2.35 2.54 0 4.44.78 5.69 2.35Zm-5.7.92c-1.13 0-2 .4-2.61 1.2-.61.8-.91 1.94-.91 3.43 0 1.48.3 2.63.91 3.43.61.81 1.48 1.21 2.61 1.21s2-.4 2.61-1.21c.61-.8.91-1.95.91-3.43 0-1.48-.3-2.63-.91-3.43-.61-.8-1.48-1.2-2.61-1.2Zm17.3.07c-1.31 0-2.21.56-2.7 1.67-.26.59-.38 1.34-.38 2.25v8h-3.85v-14.76h3.72v2.16c.5-.76.97-1.31 1.41-1.64.8-.6 1.81-.9 3.02-.9 1.53 0 2.78.41 3.75 1.2.97.8 1.46 2.13 1.46 3.98v9.95h-3.96v-8.99c0-.78-.11-1.37-.31-1.79-.38-.76-1.1-1.14-2.17-1.14l.01.01Zm22.34-.99c1.25 1.57 1.87 3.41 1.87 5.55 0 2.17-.62 4.03-1.87 5.57s-3.14 2.31-5.69 2.31c-2.54 0-4.43-.77-5.68-2.31s-1.87-3.4-1.87-5.57c0-2.13.63-3.98 1.87-5.55 1.25-1.56 3.14-2.35 5.68-2.35 2.54 0 4.44.78 5.69 2.35Zm-5.7.92c-1.13 0-2 .4-2.61 1.2-.61.8-.91 1.94-.91 3.43 0 1.48.3 2.63.91 3.43.61.81 1.48 1.21 2.61 1.21s2-.4 2.61-1.21c.61-.8.91-1.95.91-3.43 0-1.48-.3-2.63-.91-3.43-.61-.8-1.48-1.2-2.61-1.2Zm61.04 95.35h-5.94V647.1h-6.94v-3.94c1.83-.08 3.11-.2 3.85-.37 1.17-.26 2.11-.77 2.85-1.54.5-.54.88-1.24 1.14-2.12.15-.53.22-.93.22-1.18h4.83v29.5h-.01Zm25.36-23.5c-.69-.83-1.68-1.24-2.97-1.24-1.76 0-2.96.66-3.59 1.98-.37.76-.58 1.96-.65 3.62h-5.64c.09-2.51.55-4.54 1.37-6.08 1.54-2.94 4.29-4.42 8.24-4.42 3.12 0 5.61.87 7.44 2.6 1.85 1.73 2.77 4.02 2.77 6.87 0 2.18-.65 4.12-1.95 5.82-.85 1.13-2.26 2.38-4.22 3.76l-2.32 1.65c-1.45 1.03-2.44 1.78-2.98 2.24-.54.47-.99 1-1.35 1.61h12.88v5.1h-20.2c.05-2.12.5-4.05 1.36-5.8.83-1.96 2.78-4.05 5.86-6.24 2.67-1.92 4.39-3.29 5.19-4.11 1.2-1.29 1.8-2.7 1.8-4.24 0-1.24-.34-2.28-1.04-3.11v-.01Zm26.65 0c-.69-.83-1.68-1.24-2.97-1.24-1.76 0-2.96.66-3.59 1.98-.37.76-.58 1.96-.65 3.62h-5.64c.09-2.51.55-4.54 1.37-6.08 1.54-2.94 4.29-4.42 8.24-4.42 3.12 0 5.61.87 7.44 2.6 1.85 1.73 2.77 4.02 2.77 6.87 0 2.18-.65 4.12-1.95 5.82-.85 1.13-2.26 2.38-4.22 3.76l-2.32 1.65c-1.45 1.03-2.44 1.78-2.98 2.24-.54.47-.99 1-1.35 1.61h12.88v5.1h-20.2c.05-2.12.5-4.05 1.36-5.8.83-1.96 2.78-4.05 5.86-6.24 2.67-1.92 4.39-3.29 5.19-4.11 1.2-1.29 1.8-2.7 1.8-4.24 0-1.24-.34-2.28-1.04-3.11v-.01Zm23.63 24.23c-3.76 0-6.39-1.31-7.9-3.94-1.52-2.63-2.26-6.38-2.26-11.25s.75-8.63 2.26-11.27c1.51-2.65 4.15-3.96 7.9-3.96 3.76 0 6.39 1.32 7.92 3.96 1.5 2.65 2.26 6.4 2.26 11.27 0 4.87-.76 8.62-2.26 11.25-1.52 2.63-4.15 3.94-7.91 3.94h-.01Zm3.4-7.42c.53-1.79.79-4.38.79-7.77 0-3.56-.27-6.19-.8-7.9-.54-1.7-1.67-2.56-3.39-2.56-1.72 0-2.86.85-3.42 2.56s-.83 4.34-.83 7.9c0 3.39.28 5.98.83 7.78.56 1.79 1.69 2.7 3.42 2.7 1.72 0 2.85-.91 3.4-2.71Zm23.24 7.42c-3.76 0-6.39-1.31-7.9-3.94-1.52-2.63-2.26-6.38-2.26-11.25s.75-8.63 2.26-11.27c1.51-2.65 4.15-3.96 7.9-3.96 3.76 0 6.39 1.32 7.92 3.96 1.5 2.65 2.26 6.4 2.26 11.27 0 4.87-.76 8.62-2.26 11.25-1.52 2.63-4.15 3.94-7.91 3.94h-.01Zm3.4-7.42c.53-1.79.79-4.38.79-7.77 0-3.56-.27-6.19-.8-7.9-.54-1.7-1.67-2.56-3.39-2.56-1.72 0-2.86.85-3.42 2.56s-.83 4.34-.83 7.9c0 3.39.28 5.98.83 7.78.56 1.79 1.69 2.7 3.42 2.7 1.72 0 2.85-.91 3.4-2.71Zm23.24 7.42c-3.76 0-6.39-1.31-7.9-3.94-1.52-2.63-2.26-6.38-2.26-11.25s.75-8.63 2.26-11.27c1.51-2.65 4.15-3.96 7.9-3.96 3.76 0 6.39 1.32 7.92 3.96 1.5 2.65 2.26 6.4 2.26 11.27 0 4.87-.76 8.62-2.26 11.25-1.52 2.63-4.15 3.94-7.91 3.94h-.01Zm3.4-7.42c.53-1.79.79-4.38.79-7.77 0-3.56-.27-6.19-.8-7.9-.54-1.7-1.67-2.56-3.39-2.56-1.72 0-2.86.85-3.42 2.56s-.83 4.34-.83 7.9c0 3.39.28 5.98.83 7.78.56 1.79 1.69 2.7 3.42 2.7 1.72 0 2.85-.91 3.4-2.71Zm30.13-13.33c-1.55 2.2-2.85 4.46-3.89 6.8-.83 1.83-1.57 4.07-2.24 6.71-.67 2.65-1 4.82-1 6.51h-6.02c.17-5.29 1.91-10.79 5.21-16.5 2.13-3.54 3.91-6.01 5.35-7.4H346l.08-5.21h20.83v4.54c-.87.85-2.08 2.37-3.62 4.56l.02-.01Zm24.06 20.02h-5.94V647.1h-6.94v-3.94c1.83-.08 3.11-.2 3.85-.37 1.17-.26 2.11-.77 2.85-1.54.5-.54.88-1.24 1.14-2.12.15-.53.22-.93.22-1.18h4.83v29.5h-.01Zm21.98-14.65c-.71 0-1.32.08-1.83.26-.91.33-1.59.93-2.06 1.81l-5.2-.24 2.07-16.29h16.26v4.93h-12.07l-1.06 6.44c.9-.58 1.6-.96 2.1-1.16.84-.31 1.86-.46 3.07-.46 2.44 0 4.57.82 6.39 2.46 1.82 1.65 2.73 4.04 2.73 7.17 0 2.72-.88 5.16-2.63 7.3-1.75 2.15-4.37 3.22-7.85 3.22-2.81 0-5.11-.75-6.92-2.26-1.8-1.51-2.8-3.64-3.01-6.41h5.78c.23 1.26.67 2.23 1.33 2.92.65.68 1.6 1.03 2.85 1.03 1.44 0 2.54-.51 3.29-1.52s1.13-2.28 1.13-3.81c0-1.51-.35-2.78-1.06-3.81-.7-1.04-1.8-1.56-3.29-1.56l-.02-.02Zm170.73 14.65h-5.94V647.1h-6.94v-3.94c1.83-.08 3.11-.2 3.85-.37 1.17-.26 2.11-.77 2.85-1.54.5-.54.88-1.24 1.14-2.12.15-.53.22-.93.22-1.18h4.83v29.5h-.01Zm18.85-23.62c-.65.87-.96 2.03-.93 3.48h-5.42c.06-1.46.3-2.86.76-4.17.47-1.15 1.22-2.22 2.24-3.2.76-.69 1.66-1.22 2.71-1.58 1.04-.37 2.33-.56 3.84-.56 2.83 0 5.1.73 6.83 2.19 1.73 1.46 2.6 3.42 2.6 5.87 0 1.74-.52 3.2-1.55 4.39-.65.75-1.32 1.26-2.03 1.53.53 0 1.29.46 2.28 1.36 1.48 1.37 2.22 3.24 2.22 5.61 0 2.5-.87 4.69-2.6 6.59-1.73 1.89-4.29 2.83-7.68 2.83-4.17 0-7.07-1.36-8.71-4.08-.85-1.45-1.33-3.35-1.42-5.7h5.7c0 1.18.19 2.16.57 2.93.7 1.43 1.99 2.14 3.84 2.14 1.14 0 2.13-.39 2.98-1.18.85-.78 1.28-1.9 1.28-3.37 0-1.94-.79-3.23-2.36-3.88-.89-.37-2.3-.55-4.24-.55v-4.15c1.89-.03 3.2-.21 3.95-.55 1.28-.57 1.93-1.72 1.93-3.46 0-1.13-.33-2.04-.98-2.75-.66-.7-1.58-1.06-2.78-1.06-1.37 0-2.37.44-3.01 1.3l-.02.02Zm29.78 8.97c-.71 0-1.32.08-1.83.26-.91.33-1.59.93-2.06 1.81l-5.2-.24 2.07-16.29h16.26v4.93h-12.07l-1.06 6.44c.9-.58 1.6-.96 2.1-1.16.84-.31 1.86-.46 3.07-.46 2.44 0 4.57.82 6.39 2.46 1.82 1.65 2.73 4.04 2.73 7.17 0 2.72-.88 5.16-2.63 7.3-1.75 2.15-4.37 3.22-7.85 3.22-2.81 0-5.11-.75-6.92-2.26-1.8-1.51-2.8-3.64-3.01-6.41h5.78c.23 1.26.67 2.23 1.33 2.92.65.68 1.6 1.03 2.85 1.03 1.44 0 2.54-.51 3.29-1.52s1.13-2.28 1.13-3.81c0-1.51-.35-2.78-1.06-3.81-.7-1.04-1.8-1.56-3.29-1.56l-.02-.02Zm26.65 0c-.71 0-1.32.08-1.83.26-.91.33-1.59.93-2.06 1.81l-5.2-.24 2.07-16.29h16.26v4.93h-12.07l-1.06 6.44c.9-.58 1.6-.96 2.1-1.16.84-.31 1.86-.46 3.07-.46 2.44 0 4.57.82 6.39 2.46 1.82 1.65 2.73 4.04 2.73 7.17 0 2.72-.88 5.16-2.63 7.3-1.75 2.15-4.37 3.22-7.85 3.22-2.81 0-5.11-.75-6.92-2.26-1.8-1.51-2.8-3.64-3.01-6.41h5.78c.23 1.26.67 2.23 1.33 2.92.65.68 1.6 1.03 2.85 1.03 1.44 0 2.54-.51 3.29-1.52s1.13-2.28 1.13-3.81c0-1.51-.35-2.78-1.06-3.81-.7-1.04-1.8-1.56-3.29-1.56l-.02-.02Zm170.65 15.37c-3.76 0-6.39-1.31-7.9-3.94-1.52-2.63-2.26-6.38-2.26-11.25s.75-8.63 2.26-11.27c1.51-2.65 4.15-3.96 7.9-3.96 3.76 0 6.39 1.32 7.92 3.96 1.5 2.65 2.26 6.4 2.26 11.27 0 4.87-.76 8.62-2.26 11.25-1.52 2.63-4.15 3.94-7.91 3.94h-.01Zm3.4-7.42c.53-1.79.79-4.38.79-7.77 0-3.56-.27-6.19-.8-7.9-.54-1.7-1.67-2.56-3.39-2.56-1.72 0-2.86.85-3.42 2.56s-.83 4.34-.83 7.9c0 3.39.28 5.98.83 7.78.56 1.79 1.69 2.7 3.42 2.7 1.72 0 2.85-.91 3.4-2.71Zm23.24 7.42c-3.76 0-6.39-1.31-7.9-3.94-1.52-2.63-2.26-6.38-2.26-11.25s.75-8.63 2.26-11.27c1.51-2.65 4.15-3.96 7.9-3.96 3.76 0 6.39 1.32 7.92 3.96 1.5 2.65 2.26 6.4 2.26 11.27 0 4.87-.76 8.62-2.26 11.25-1.52 2.63-4.15 3.94-7.91 3.94h-.01Zm3.4-7.42c.53-1.79.79-4.38.79-7.77 0-3.56-.27-6.19-.8-7.9-.54-1.7-1.67-2.56-3.39-2.56-1.72 0-2.86.85-3.42 2.56s-.83 4.34-.83 7.9c0 3.39.28 5.98.83 7.78.56 1.79 1.69 2.7 3.42 2.7 1.72 0 2.85-.91 3.4-2.71Zm23.24 7.42c-3.76 0-6.39-1.31-7.9-3.94-1.52-2.63-2.26-6.38-2.26-11.25s.75-8.63 2.26-11.27c1.51-2.65 4.15-3.96 7.9-3.96 3.76 0 6.39 1.32 7.92 3.96 1.5 2.65 2.26 6.4 2.26 11.27 0 4.87-.76 8.62-2.26 11.25-1.52 2.63-4.15 3.94-7.91 3.94h-.01Zm3.4-7.42c.53-1.79.79-4.38.79-7.77 0-3.56-.27-6.19-.8-7.9-.54-1.7-1.67-2.56-3.39-2.56-1.72 0-2.86.85-3.42 2.56s-.83 4.34-.83 7.9c0 3.39.28 5.98.83 7.78.56 1.79 1.69 2.7 3.42 2.7 1.72 0 2.85-.91 3.4-2.71Zm22.88-7.95c-.71 0-1.32.08-1.83.26-.91.33-1.59.93-2.06 1.81l-5.2-.24 2.07-16.29h16.26v4.93h-12.07l-1.06 6.44c.9-.58 1.6-.96 2.1-1.16.84-.31 1.86-.46 3.07-.46 2.44 0 4.57.82 6.39 2.46 1.82 1.65 2.73 4.04 2.73 7.17 0 2.72-.88 5.16-2.63 7.3-1.75 2.15-4.37 3.22-7.85 3.22-2.81 0-5.11-.75-6.92-2.26-1.8-1.51-2.8-3.64-3.01-6.41h5.78c.23 1.26.67 2.23 1.33 2.92.65.68 1.6 1.03 2.85 1.03 1.44 0 2.54-.51 3.29-1.52s1.13-2.28 1.13-3.81c0-1.51-.35-2.78-1.06-3.81-.7-1.04-1.8-1.56-3.29-1.56l-.02-.02Zm26.65 0c-.71 0-1.32.08-1.83.26-.91.33-1.59.93-2.06 1.81l-5.2-.24 2.07-16.29h16.26v4.93h-12.07l-1.06 6.44c.9-.58 1.6-.96 2.1-1.16.84-.31 1.86-.46 3.07-.46 2.44 0 4.57.82 6.39 2.46 1.82 1.65 2.73 4.04 2.73 7.17 0 2.72-.88 5.16-2.63 7.3-1.75 2.15-4.37 3.22-7.85 3.22-2.81 0-5.11-.75-6.92-2.26-1.8-1.51-2.8-3.64-3.01-6.41h5.78c.23 1.26.67 2.23 1.33 2.92.65.68 1.6 1.03 2.85 1.03 1.44 0 2.54-.51 3.29-1.52s1.13-2.28 1.13-3.81c0-1.51-.35-2.78-1.06-3.81-.7-1.04-1.8-1.56-3.29-1.56l-.02-.02Zm19.17 12.79c-1.69-1.74-2.54-3.84-2.54-6.33 0-1.65.37-3.15 1.13-4.49.75-1.35 1.85-2.35 3.31-3.04-1.43-.94-2.35-1.97-2.78-3.08-.43-1.1-.64-2.14-.64-3.1 0-2.15.81-3.97 2.42-5.48 1.62-1.52 3.89-2.27 6.84-2.27 2.94 0 5.22.76 6.83 2.27 1.61 1.51 2.42 3.34 2.42 5.48 0 .96-.21 2-.65 3.1-.42 1.11-1.35 2.07-2.77 2.88 1.45.81 2.54 1.89 3.27 3.24.74 1.34 1.1 2.84 1.1 4.49 0 2.49-.92 4.6-2.76 6.34-1.83 1.74-4.41 2.61-7.7 2.61-3.3 0-5.79-.87-7.49-2.63l.01.01Zm3.48-6.71c0 1.45.38 2.58 1.13 3.37.75.8 1.8 1.2 3.13 1.2 1.33 0 2.37-.41 3.12-1.2.76-.8 1.13-1.92 1.13-3.37 0-1.51-.38-2.65-1.15-3.43-.76-.78-1.8-1.17-3.1-1.17s-2.34.39-3.1 1.17c-.76.78-1.15 1.92-1.15 3.43h-.01Zm1.53-10.06c.65.68 1.56 1.02 2.73 1.02 1.18 0 2.09-.34 2.74-1.02.65-.67.96-1.55.96-2.63 0-1.17-.32-2.07-.96-2.74-.65-.65-1.56-.98-2.74-.98-1.17 0-2.08.33-2.74.98-.66.66-.98 1.57-.98 2.74 0 1.08.33 1.95.99 2.63Zm21.64 16.76c-1.69-1.74-2.54-3.84-2.54-6.33 0-1.65.37-3.15 1.13-4.49.75-1.35 1.85-2.35 3.31-3.04-1.43-.94-2.35-1.97-2.78-3.08-.43-1.1-.64-2.14-.64-3.1 0-2.15.81-3.97 2.42-5.48 1.62-1.52 3.89-2.27 6.84-2.27 2.94 0 5.22.76 6.83 2.27 1.61 1.51 2.42 3.34 2.42 5.48 0 .96-.21 2-.65 3.1-.42 1.11-1.35 2.07-2.77 2.88 1.45.81 2.54 1.89 3.27 3.24.74 1.34 1.1 2.84 1.1 4.49 0 2.49-.92 4.6-2.76 6.34-1.83 1.74-4.41 2.61-7.7 2.61-3.3 0-5.79-.87-7.49-2.63l.01.01Zm3.48-6.71c0 1.45.38 2.58 1.13 3.37.75.8 1.8 1.2 3.13 1.2 1.33 0 2.37-.41 3.12-1.2.76-.8 1.13-1.92 1.13-3.37 0-1.51-.38-2.65-1.15-3.43-.76-.78-1.8-1.17-3.1-1.17s-2.34.39-3.1 1.17c-.76.78-1.15 1.92-1.15 3.43h-.01Zm1.53-10.06c.65.68 1.56 1.02 2.73 1.02 1.18 0 2.09-.34 2.74-1.02.65-.67.96-1.55.96-2.63 0-1.17-.32-2.07-.96-2.74-.65-.65-1.56-.98-2.74-.98-1.17 0-2.08.33-2.74.98-.66.66-.98 1.57-.98 2.74 0 1.08.33 1.95.99 2.63Zm21.64 16.76c-1.69-1.74-2.54-3.84-2.54-6.33 0-1.65.37-3.15 1.13-4.49.75-1.35 1.85-2.35 3.31-3.04-1.43-.94-2.35-1.97-2.78-3.08-.43-1.1-.64-2.14-.64-3.1 0-2.15.81-3.97 2.42-5.48 1.62-1.52 3.89-2.27 6.84-2.27 2.94 0 5.22.76 6.83 2.27 1.61 1.51 2.42 3.34 2.42 5.48 0 .96-.21 2-.65 3.1-.42 1.11-1.35 2.07-2.77 2.88 1.45.81 2.54 1.89 3.27 3.24.74 1.34 1.1 2.84 1.1 4.49 0 2.49-.92 4.6-2.76 6.34-1.83 1.74-4.41 2.61-7.7 2.61-3.3 0-5.79-.87-7.49-2.63l.01.01Zm3.48-6.71c0 1.45.38 2.58 1.13 3.37.75.8 1.8 1.2 3.13 1.2 1.33 0 2.37-.41 3.12-1.2.76-.8 1.13-1.92 1.13-3.37 0-1.51-.38-2.65-1.15-3.43-.76-.78-1.8-1.17-3.1-1.17s-2.34.39-3.1 1.17c-.76.78-1.15 1.92-1.15 3.43h-.01Zm1.53-10.06c.65.68 1.56 1.02 2.73 1.02 1.18 0 2.09-.34 2.74-1.02.65-.67.96-1.55.96-2.63 0-1.17-.32-2.07-.96-2.74-.65-.65-1.56-.98-2.74-.98-1.17 0-2.08.33-2.74.98-.66.66-.98 1.57-.98 2.74 0 1.08.33 1.95.99 2.63Zm21.64 16.76c-1.69-1.74-2.54-3.84-2.54-6.33 0-1.65.37-3.15 1.13-4.49.75-1.35 1.85-2.35 3.31-3.04-1.43-.94-2.35-1.97-2.78-3.08-.43-1.1-.64-2.14-.64-3.1 0-2.15.81-3.97 2.42-5.48 1.62-1.52 3.89-2.27 6.84-2.27 2.94 0 5.22.76 6.83 2.27 1.61 1.51 2.42 3.34 2.42 5.48 0 .96-.21 2-.65 3.1-.42 1.11-1.35 2.07-2.77 2.88 1.45.81 2.54 1.89 3.27 3.24.74 1.34 1.1 2.84 1.1 4.49 0 2.49-.92 4.6-2.76 6.34-1.83 1.74-4.41 2.61-7.7 2.61-3.3 0-5.79-.87-7.49-2.63l.01.01Zm3.48-6.71c0 1.45.38 2.58 1.13 3.37.75.8 1.8 1.2 3.13 1.2 1.33 0 2.37-.41 3.12-1.2.76-.8 1.13-1.92 1.13-3.37 0-1.51-.38-2.65-1.15-3.43-.76-.78-1.8-1.17-3.1-1.17s-2.34.39-3.1 1.17c-.76.78-1.15 1.92-1.15 3.43h-.01Zm1.53-10.06c.65.68 1.56 1.02 2.73 1.02 1.18 0 2.09-.34 2.74-1.02.65-.67.96-1.55.96-2.63 0-1.17-.32-2.07-.96-2.74-.65-.65-1.56-.98-2.74-.98-1.17 0-2.08.33-2.74.98-.66.66-.98 1.57-.98 2.74 0 1.08.33 1.95.99 2.63Zm21.64 16.76c-1.69-1.74-2.54-3.84-2.54-6.33 0-1.65.37-3.15 1.13-4.49.75-1.35 1.85-2.35 3.31-3.04-1.43-.94-2.35-1.97-2.78-3.08-.43-1.1-.64-2.14-.64-3.1 0-2.15.81-3.97 2.42-5.48 1.62-1.52 3.89-2.27 6.84-2.27 2.94 0 5.22.76 6.83 2.27 1.61 1.51 2.42 3.34 2.42 5.48 0 .96-.21 2-.65 3.1-.42 1.11-1.35 2.07-2.77 2.88 1.45.81 2.54 1.89 3.27 3.24.74 1.34 1.1 2.84 1.1 4.49 0 2.49-.92 4.6-2.76 6.34-1.83 1.74-4.41 2.61-7.7 2.61-3.3 0-5.79-.87-7.49-2.63l.01.01Zm3.48-6.71c0 1.45.38 2.58 1.13 3.37.75.8 1.8 1.2 3.13 1.2 1.33 0 2.37-.41 3.12-1.2.76-.8 1.13-1.92 1.13-3.37 0-1.51-.38-2.65-1.15-3.43-.76-.78-1.8-1.17-3.1-1.17s-2.34.39-3.1 1.17c-.76.78-1.15 1.92-1.15 3.43h-.01Zm1.53-10.06c.65.68 1.56 1.02 2.73 1.02 1.18 0 2.09-.34 2.74-1.02.65-.67.96-1.55.96-2.63 0-1.17-.32-2.07-.96-2.74-.65-.65-1.56-.98-2.74-.98-1.17 0-2.08.33-2.74.98-.66.66-.98 1.57-.98 2.74 0 1.08.33 1.95.99 2.63ZM795.12 803.86h-11.04l-2.08 6.17h-6.56l10.7-29.98h7.08l10.62 29.98h-6.79l-1.94-6.17h.01Zm-1.75-5.17-3.74-11.8-3.86 11.8h7.61-.01Zm33-2.89h-5.94c-.11-.83-.39-1.57-.83-2.24-.65-.9-1.66-1.34-3.04-1.34-1.95 0-3.28.96-4.01 2.91-.38 1.03-.57 2.4-.57 4.11 0 1.63.19 2.94.57 3.93.7 1.84 2 2.76 3.91 2.76 1.35 0 2.32-.37 2.89-1.1.57-.74.91-1.68 1.04-2.85h5.92c-.14 1.76-.78 3.43-1.91 5-1.82 2.54-4.51 3.81-8.08 3.81-3.57 0-6.19-1.06-7.87-3.17-1.68-2.11-2.52-4.86-2.52-8.24 0-3.81.93-6.78 2.78-8.9 1.86-2.11 4.43-3.17 7.7-3.17 2.78 0 5.06.63 6.82 1.87 1.77 1.25 2.81 3.45 3.14 6.61v.01Zm23.17 0h-5.94c-.11-.83-.39-1.57-.83-2.24-.65-.9-1.66-1.34-3.04-1.34-1.95 0-3.28.96-4.01 2.91-.38 1.03-.57 2.4-.57 4.11 0 1.63.19 2.94.57 3.93.7 1.84 2 2.76 3.91 2.76 1.35 0 2.32-.37 2.89-1.1.57-.74.91-1.68 1.04-2.85h5.92c-.14 1.76-.78 3.43-1.91 5-1.82 2.54-4.51 3.81-8.08 3.81-3.57 0-6.19-1.06-7.87-3.17-1.68-2.11-2.52-4.86-2.52-8.24 0-3.81.93-6.78 2.78-8.9 1.86-2.11 4.43-3.17 7.7-3.17 2.78 0 5.06.63 6.82 1.87 1.77 1.25 2.81 3.45 3.14 6.61v.01Zm22.48-5.15c1.87 2.35 2.81 5.12 2.81 8.32 0 3.26-.94 6.04-2.81 8.35-1.87 2.31-4.72 3.46-8.53 3.46-3.81 0-6.65-1.15-8.52-3.46-1.87-2.31-2.81-5.1-2.81-8.35 0-3.2.94-5.97 2.81-8.32 1.87-2.35 4.71-3.52 8.52-3.52 3.81 0 6.65 1.17 8.53 3.52Zm-8.55 1.38c-1.7 0-3 .6-3.92 1.8-.92 1.2-1.37 2.91-1.37 5.14 0 2.22.45 3.94 1.37 5.15.92 1.21 2.22 1.81 3.92 1.81 1.69 0 3-.6 3.91-1.81.91-1.2 1.36-2.93 1.36-5.15s-.45-3.94-1.36-5.14c-.91-1.2-2.22-1.8-3.91-1.8Zm29.72 14.85c-.06.07-.19.27-.41.61-.22.34-.47.64-.77.89-.91.81-1.79 1.37-2.64 1.67-.85.3-1.84.44-2.98.44-3.28 0-5.49-1.18-6.63-3.53-.64-1.31-.96-3.22-.96-5.76v-13.36h5.94v13.36c0 1.26.15 2.21.44 2.85.53 1.12 1.57 1.69 3.11 1.69 1.99 0 3.34-.8 4.07-2.4.38-.87.57-2.02.57-3.44v-12.06h5.88v22.17h-5.63v-3.13h.01Zm21.67-14.75c-1.97 0-3.32.83-4.05 2.5-.38.88-.57 2.01-.57 3.37v12.01h-5.78v-22.14h5.59v3.24c.75-1.14 1.45-1.96 2.12-2.46 1.2-.89 2.71-1.35 4.54-1.35 2.29 0 4.17.61 5.63 1.81 1.46 1.2 2.19 3.19 2.19 5.97v14.93h-5.94v-13.48c0-1.17-.16-2.06-.47-2.69-.57-1.14-1.65-1.71-3.25-1.71h-.01Zm25.17 13.75v4.33l-2.75.11c-2.74.09-4.61-.38-5.62-1.43-.65-.67-.97-1.69-.97-3.07v-13.65h-3.09v-4.13h3.09v-6.19h5.74v6.19h3.61v4.13h-3.61v11.71c0 .91.12 1.48.35 1.7.23.22.94.33 2.12.33.17 0 .36 0 .56-.01.2 0 .39-.02.59-.03l-.02.01Zm40.01 4.13h-6.26l-12.25-21.3v21.3h-5.84v-29.98h6.57l11.94 20.93v-20.93h5.84v29.98Zm19.6-3.13c-.06.07-.19.27-.41.61-.22.34-.47.64-.77.89-.91.81-1.79 1.37-2.64 1.67-.85.3-1.84.44-2.98.44-3.28 0-5.49-1.18-6.63-3.53-.64-1.31-.96-3.22-.96-5.76v-13.36h5.94v13.36c0 1.26.15 2.21.44 2.85.53 1.12 1.57 1.69 3.11 1.69 1.99 0 3.34-.8 4.07-2.4.38-.87.57-2.02.57-3.44v-12.06h5.88v22.17h-5.63v-3.13h.01Zm23.68-12.94c-.49-1.07-1.44-1.61-2.87-1.61-1.66 0-2.77.54-3.34 1.61-.31.61-.47 1.52-.47 2.72v13.35h-5.88v-22.14h5.64v3.24c.71-1.15 1.39-1.97 2.03-2.46 1.13-.87 2.59-1.3 4.37-1.3 1.7 0 3.07.37 4.11 1.12.84.69 1.48 1.58 1.92 2.67.76-1.3 1.7-2.26 2.83-2.87 1.19-.61 2.52-.92 3.98-.92.98 0 1.94.19 2.89.57.95.38 1.81 1.05 2.58 2 .63.78 1.04 1.73 1.26 2.85.13.74.2 1.83.2 3.27l-.04 13.98h-5.94V795.9c0-.84-.14-1.54-.41-2.07-.52-1.03-1.47-1.55-2.85-1.55-1.6 0-2.7.67-3.32 2-.31.71-.46 1.56-.46 2.55v13.2h-5.84v-13.2c0-1.32-.13-2.28-.41-2.87l.02-.02Zm36.64 16.66c-1.83 0-3.3-.37-4.41-1.1-.66-.44-1.38-1.19-2.15-2.28V810h-5.68v-29.95h5.78v10.67c.74-1.04 1.54-1.82 2.43-2.36 1.04-.68 2.37-1.02 3.99-1.02 2.91 0 5.2 1.06 6.85 3.15 1.65 2.1 2.47 4.82 2.47 8.14 0 3.44-.81 6.3-2.44 8.57-1.63 2.26-3.9 3.4-6.81 3.4h-.03Zm3.17-11.35c0-1.57-.2-2.87-.61-3.9-.77-1.96-2.19-2.93-4.27-2.93-2.1 0-3.55.96-4.33 2.87-.41 1.01-.61 2.33-.61 3.94 0 1.9.42 3.47 1.26 4.72.84 1.25 2.12 1.87 3.84 1.87 1.49 0 2.65-.6 3.48-1.81.83-1.21 1.24-2.8 1.24-4.76Zm29.21 4.25c-.15 1.32-.83 2.65-2.06 4.01-1.89 2.15-4.56 3.23-7.97 3.23-2.82 0-5.31-.9-7.46-2.72-2.16-1.82-3.24-4.78-3.24-8.87 0-3.84.97-6.78 2.92-8.83 1.94-2.05 4.47-3.07 7.58-3.07 1.85 0 3.5.34 4.98 1.04 1.48.69 2.7 1.78 3.67 3.28.87 1.31 1.43 2.84 1.69 4.58.15 1.01.21 2.48.18 4.39h-15.17c.07 2.22.78 3.79 2.09 4.68.8.56 1.76.83 2.89.83 1.2 0 2.17-.34 2.91-1.02.41-.37.77-.88 1.08-1.53h5.91Zm-5.73-6.8c-.1-1.53-.56-2.69-1.4-3.48-.83-.8-1.87-1.19-3.1-1.19-1.34 0-2.38.42-3.12 1.26-.74.84-1.21 1.98-1.4 3.41h9.02Zm21.07-3.52c-2.33 0-3.9.76-4.7 2.28-.44.85-.67 2.17-.67 3.95v10.6h-5.84v-22.17h5.54v3.86c.89-1.48 1.67-2.49 2.34-3.03 1.08-.91 2.49-1.37 4.23-1.37.11 0 .2.01.28.02.07.01.24.01.49.03v5.94c-.36-.04-.69-.07-.97-.08-.28-.02-.51-.02-.69-.02l-.01-.01Zm-514.69 14.59c-2.23 2.05-5.09 3.07-8.58 3.07-4.32 0-7.7-1.38-10.17-4.15-2.47-2.78-3.7-6.59-3.7-11.43 0-5.24 1.41-9.27 4.21-12.11 2.44-2.47 5.55-3.7 9.32-3.7 5.04 0 8.74 1.65 11.07 4.96 1.28 1.86 1.98 3.73 2.07 5.59h-6.26c-.41-1.44-.93-2.52-1.57-3.26-1.14-1.3-2.83-1.95-5.06-1.95-2.28 0-4.07.92-5.39 2.76-1.32 1.84-1.98 4.44-1.98 7.8 0 3.36.7 5.88 2.09 7.56 1.39 1.67 3.15 2.52 5.3 2.52 2.2 0 3.87-.72 5.02-2.16.64-.77 1.17-1.93 1.59-3.48h6.21c-.55 3.27-1.93 5.93-4.15 7.98h-.02Zm28.5-10.78v13.02h-5.92v-13.48c0-1.2-.2-2.16-.61-2.89-.53-1.04-1.54-1.55-3.02-1.55-1.53 0-2.69.51-3.48 1.53-.79 1.03-1.19 2.49-1.19 4.38v12.01h-5.78v-29.89h5.78v10.61c.84-1.29 1.81-2.19 2.92-2.7 1.1-.51 2.27-.76 3.48-.76 1.37 0 2.62.24 3.74.71a6.56 6.56 0 0 1 2.76 2.18c.61.83.99 1.67 1.12 2.55.14.87.2 2.3.2 4.28Zm24.39 6.51c-.15 1.32-.83 2.65-2.06 4.01-1.89 2.15-4.56 3.23-7.97 3.23-2.82 0-5.31-.9-7.46-2.72-2.16-1.82-3.24-4.78-3.24-8.87 0-3.84.97-6.78 2.92-8.83 1.94-2.05 4.47-3.07 7.58-3.07 1.85 0 3.5.34 4.98 1.04 1.48.69 2.7 1.78 3.67 3.28.87 1.31 1.43 2.84 1.69 4.58.15 1.01.21 2.48.18 4.39H631c.07 2.22.78 3.79 2.09 4.68.8.56 1.76.83 2.89.83 1.2 0 2.17-.34 2.91-1.02.41-.37.77-.88 1.08-1.53h5.91Zm-5.73-6.8c-.1-1.53-.56-2.69-1.4-3.48-.83-.8-1.87-1.19-3.1-1.19-1.34 0-2.38.42-3.12 1.26-.74.84-1.21 1.98-1.4 3.41h9.02Zm29.11-.91h-5.94c-.11-.83-.39-1.57-.83-2.24-.65-.9-1.66-1.34-3.04-1.34-1.95 0-3.28.96-4.01 2.91-.38 1.03-.57 2.4-.57 4.11 0 1.63.19 2.94.57 3.93.7 1.84 2 2.76 3.91 2.76 1.35 0 2.32-.37 2.89-1.1.57-.74.91-1.68 1.04-2.85h5.92c-.14 1.76-.78 3.43-1.91 5-1.82 2.54-4.51 3.81-8.08 3.81-3.57 0-6.19-1.06-7.87-3.17-1.68-2.11-2.52-4.86-2.52-8.24 0-3.81.93-6.78 2.78-8.9 1.86-2.11 4.43-3.17 7.7-3.17 2.78 0 5.06.63 6.82 1.87 1.77 1.25 2.81 3.45 3.14 6.61v.01Zm24.33 14.22h-6.99l-5.31-9.48-2.41 2.5v6.98h-5.69v-29.89h5.69v16.15l7.22-8.34h7.18l-7.75 8.48 8.06 13.59v.01Zm-538.22-21.27c1.25-.57 1.87-1.69 1.87-3.37 0-1.82-.6-3.04-1.81-3.66-.68-.35-1.69-.53-3.06-.53h-7.28v8.06h7.1c1.41 0 2.47-.17 3.18-.5Zm31.57-2.15c1.87 2.35 2.81 5.12 2.81 8.32 0 3.26-.94 6.04-2.81 8.35-1.87 2.31-4.72 3.46-8.53 3.46-3.81 0-6.65-1.15-8.52-3.46-1.87-2.31-2.81-5.1-2.81-8.35 0-3.2.94-5.97 2.81-8.32 1.87-2.35 4.71-3.52 8.52-3.52 3.81 0 6.65 1.17 8.53 3.52Zm-8.55 1.38c-1.7 0-3 .6-3.92 1.8-.92 1.2-1.37 2.91-1.37 5.14 0 2.22.45 3.94 1.37 5.15.92 1.21 2.22 1.81 3.92 1.81 1.69 0 3-.6 3.91-1.81.91-1.2 1.36-2.93 1.36-5.15s-.45-3.94-1.36-5.14c-.91-1.2-2.22-1.8-3.91-1.8Zm29.72 14.85c-.06.07-.19.27-.41.61-.22.34-.47.64-.77.89-.91.81-1.79 1.37-2.64 1.67-.85.3-1.84.44-2.98.44-3.28 0-5.49-1.18-6.63-3.53-.64-1.31-.96-3.22-.96-5.76v-13.36h5.94v13.36c0 1.26.15 2.21.44 2.85.53 1.12 1.57 1.69 3.11 1.69 1.99 0 3.34-.8 4.07-2.4.38-.87.57-2.02.57-3.44v-12.06h5.88v22.17h-5.63v-3.13h.01Zm21.38-1v4.33l-2.75.11c-2.74.09-4.61-.38-5.62-1.43-.65-.67-.97-1.69-.97-3.07v-13.65h-3.09v-4.13h3.09v-6.19h5.74v6.19h3.61v4.13h-3.61v11.71c0 .91.12 1.48.35 1.7.23.22.94.33 2.12.33.17 0 .36 0 .56-.01.2 0 .39-.02.59-.03l-.02.01Zm9.68-18.04v22.17h-5.88v-22.17h5.88Zm0-8v5.35h-5.88v-5.35h5.88Zm16.06 12.29c-1.97 0-3.32.83-4.05 2.5-.38.88-.57 2.01-.57 3.37v12.01h-5.78v-22.14h5.59v3.24c.75-1.14 1.45-1.96 2.12-2.46 1.2-.89 2.71-1.35 4.54-1.35 2.29 0 4.17.61 5.63 1.81 1.46 1.2 2.19 3.19 2.19 5.97v14.93h-5.94v-13.48c0-1.17-.16-2.06-.47-2.69-.57-1.14-1.65-1.71-3.25-1.71h-.01Zm21.28 21.77c.63.53 1.67.79 3.15.79 2.09 0 3.48-.7 4.19-2.1.46-.89.69-2.4.69-4.51v-1.43c-.56.94-1.15 1.66-1.79 2.13-1.15.88-2.65 1.32-4.5 1.32-2.85 0-5.12-1-6.82-3-1.7-2-2.56-4.71-2.56-8.13 0-3.3.83-6.06 2.47-8.31 1.64-2.24 3.96-3.37 6.98-3.37 1.11 0 2.08.17 2.91.52 1.41.58 2.55 1.65 3.42 3.21v-3.19h5.63v21.04c0 2.86-.48 5.02-1.44 6.47-1.65 2.49-4.83 3.74-9.52 3.74-2.83 0-5.15-.56-6.94-1.67-1.79-1.11-2.78-2.77-2.96-4.98h6.31c.16.67.42 1.17.79 1.46l-.01.01Zm-.98-11.46c.79 1.88 2.2 2.81 4.24 2.81 1.35 0 2.5-.51 3.44-1.54.94-1.02 1.41-2.65 1.41-4.89 0-2.1-.44-3.7-1.33-4.8-.89-1.1-2.08-1.65-3.57-1.65-2.04 0-3.44.96-4.21 2.87-.41 1.02-.61 2.27-.61 3.76 0 1.29.22 2.44.65 3.44h-.02Zm56.45 7.57h-6.26l-12.25-21.3v21.3h-5.84v-29.98h6.57l11.94 20.93v-20.93h5.84v29.98Zm19.6-3.13c-.06.07-.19.27-.41.61-.22.34-.47.64-.77.89-.91.81-1.79 1.37-2.64 1.67-.85.3-1.84.44-2.98.44-3.28 0-5.49-1.18-6.63-3.53-.64-1.31-.96-3.22-.96-5.76v-13.36h5.94v13.36c0 1.26.15 2.21.44 2.85.53 1.12 1.57 1.69 3.11 1.69 1.99 0 3.34-.8 4.07-2.4.38-.87.57-2.02.57-3.44v-12.06h5.88v22.17h-5.63v-3.13h.01Zm23.68-12.94c-.49-1.07-1.44-1.61-2.87-1.61-1.66 0-2.77.54-3.34 1.61-.31.61-.47 1.52-.47 2.72v13.35h-5.88v-22.14h5.64v3.24c.71-1.15 1.39-1.97 2.03-2.46 1.13-.87 2.59-1.3 4.37-1.3 1.7 0 3.07.37 4.11 1.12.84.69 1.48 1.58 1.92 2.67.76-1.3 1.7-2.26 2.83-2.87 1.19-.61 2.52-.92 3.98-.92.98 0 1.94.19 2.89.57.95.38 1.81 1.05 2.58 2 .63.78 1.04 1.73 1.26 2.85.13.74.2 1.83.2 3.27l-.04 13.98h-5.94v-14.12c0-.84-.14-1.54-.41-2.07-.52-1.03-1.47-1.55-2.85-1.55-1.6 0-2.7.67-3.32 2-.31.71-.46 1.56-.46 2.55v13.2h-5.84v-13.2c0-1.32-.13-2.28-.41-2.87l.02-.02Zm36.64 16.66c-1.83 0-3.3-.37-4.41-1.1-.66-.44-1.38-1.19-2.15-2.28v2.78h-5.68v-29.95h5.78v10.67c.74-1.04 1.54-1.82 2.43-2.36 1.04-.68 2.37-1.02 3.99-1.02 2.91 0 5.2 1.06 6.85 3.15 1.65 2.1 2.47 4.82 2.47 8.14 0 3.44-.81 6.3-2.44 8.57-1.63 2.26-3.9 3.4-6.81 3.4h-.03Zm3.17-11.35c0-1.57-.2-2.87-.61-3.9-.77-1.96-2.19-2.93-4.27-2.93-2.1 0-3.55.96-4.33 2.87-.41 1.01-.61 2.33-.61 3.94 0 1.9.42 3.47 1.26 4.72.84 1.25 2.12 1.87 3.84 1.87 1.49 0 2.65-.6 3.48-1.81.83-1.21 1.24-2.8 1.24-4.76Zm29.21 4.25c-.15 1.32-.83 2.65-2.06 4.01-1.89 2.15-4.56 3.23-7.97 3.23-2.82 0-5.31-.9-7.46-2.72-2.16-1.82-3.24-4.78-3.24-8.87 0-3.84.97-6.78 2.92-8.83 1.94-2.05 4.47-3.07 7.58-3.07 1.85 0 3.5.34 4.98 1.04 1.48.69 2.7 1.78 3.67 3.28.87 1.31 1.43 2.84 1.69 4.58.15 1.01.21 2.48.18 4.39H429.4c.07 2.22.78 3.79 2.09 4.68.8.56 1.76.83 2.89.83 1.2 0 2.17-.34 2.91-1.02.41-.37.77-.88 1.08-1.53h5.91Zm-5.73-6.8c-.1-1.53-.56-2.69-1.4-3.48-.83-.8-1.87-1.19-3.1-1.19-1.34 0-2.38.42-3.12 1.26-.74.84-1.21 1.98-1.4 3.41h9.02Zm21.07-3.52c-2.33 0-3.9.76-4.7 2.28-.44.85-.67 2.17-.67 3.95v10.6h-5.84v-22.17h5.54v3.86c.89-1.48 1.67-2.49 2.34-3.03 1.08-.91 2.49-1.37 4.23-1.37.11 0 .2.01.28.02.07.01.24.01.49.03v5.94c-.36-.04-.69-.07-.97-.08-.28-.02-.51-.02-.69-.02l-.01-.01Z" fill="#D42F91"/></svg>