<svg version="1.0" xmlns="http://www.w3.org/2000/svg" width="4893.333" height="5760" viewBox="0 0 3670 4320"><path d="M2 .6c0 .3 303.5 486.3 674.5 1080L1351.1 2160 676.5 3239.4C305.5 3833.1 2 4319.1 2 4319.4c0 .3 83.8.6 186.3.6h186.2l346.6-554.8C911.8 3460.1 1389.9 2695 1783.5 2065c393.7-630 845.1-1352.4 1003.1-1605.3L3073.8 0h-186.6l-186.7.1L2268 692.5c-237.9 380.8-432.7 692.4-433 692.4-.3 0-195.1-311.6-433-692.4L969.5.1 782.8 0H596.2l525 840.2c288.8 462.2 525.5 841.2 526 842.3.8 1.8-7.7 15.9-53.7 89.5-30.1 48.1-55 87.8-55.4 88.3-.4.4-262.4-418-582.2-929.8L374.5 0H188.3C85.8 0 2 .3 2 .6zm2713.8 927.2C2397 1438 1789.6 2410 1366.1 3087.8L596.2 4320h186.6l186.7-.1 370-592.2C1543 3402 2150 2430.6 2688.3 1569 3226.7 707.4 3667.4 1.9 3667.7 1.2c.4-.9-37.2-1.2-185.8-1.2h-186.4l-579.7 927.8zm-360.2 1589.8c-91.3 146.1-92.8 148.7-91.5 151.4.8 1.5 233.2 373.6 516.4 826.9l515 824.1h186.4c148.6 0 186.2-.3 185.8-1.3-1-2.4-1217.8-1949.2-1218.5-1949.4-.4-.2-42.5 66.6-93.6 148.3zm-297.1 475.5c-51.2 81.9-92.9 149.4-92.7 150.1.2.6 165.6 265.7 367.5 589l367.2 587.7 186.9.1c149.3 0 186.6-.3 185.8-1.3-.5-.6-207.6-332-460.2-736.2-252.6-404.3-459.8-735.7-460.4-736.6-.9-1.4-16.7 23.3-94.1 147.2z" fill="#141414"/></svg>