<svg xmlns="http://www.w3.org/2000/svg" xml:space="preserve" style="shape-rendering:geometricPrecision;text-rendering:geometricPrecision;image-rendering:optimizeQuality;fill-rule:evenodd;clip-rule:evenodd" viewBox="160 300 1800 1800"><defs><style>.str0,.str1{stroke-width:6.67;stroke:gray;stroke-linecap:round;stroke-linejoin:round;stroke-miterlimit:22.926}.str1{stroke-dasharray:99.992126 99.992126}.fil1{fill:none;fill-rule:nonzero}.fil5{fill:#0ff}.fil0,.fil3,.fil6{fill:#0ff;fill-rule:nonzero}.fil3,.fil6{fill:#333}</style></defs><g id="Layer_x0020_1"><g id="_105553225297568"><path class="fil0" d="M726.16 924.48c-.45 2.17-2.09 3.41-3.65 2.78-1.56-.63-2.46-2.91-2-5.07l5.65 2.29zm436.04-82.56v8.18l-22.05.1-21.77.3-21.46.48-21.13.67-20.77.86-20.38 1.04-19.97 1.21-19.53 1.37-19.07 1.54-18.58 1.69-18.07 1.85-17.53 2-16.96 2.15-16.37 2.28-15.75 2.42-15.11 2.55-14.43 2.67-13.74 2.79-13.02 2.91-12.27 3.02-11.49 3.12-10.69 3.22-9.85 3.31-9 3.4-8.1 3.47-7.19 3.54-6.22 3.58-5.23 3.61-4.19 3.59-3.11 3.49-2.02 3.26-1 2.88-5.65-2.29 1.76-5.13 2.85-4.63 3.81-4.28 4.73-4.06 5.65-3.9 6.55-3.77 7.44-3.67 8.31-3.56 9.17-3.46 10-3.36 10.81-3.26 11.6-3.15 12.37-3.04 13.1-2.93 13.82-2.81 14.5-2.68 15.17-2.56 15.81-2.43 16.43-2.29 17.02-2.15 17.57-2 18.11-1.85 18.63-1.7 19.11-1.54 19.58-1.38 20.01-1.21 20.42-1.04 20.81-.86 21.17-.67 21.5-.49 21.81-.3 22.09-.1zm0 0c1.63 0 2.94 1.83 2.94 4.09s-1.32 4.09-2.94 4.09v-8.18zm441.69 80.26-5.65 2.29-1-2.88-2.02-3.26-3.11-3.49-4.19-3.59-5.23-3.61-6.22-3.58-7.19-3.54-8.1-3.47-9-3.4-9.85-3.31-10.69-3.22-11.49-3.12-12.26-3.02-13.02-2.91-13.74-2.79-14.44-2.67-15.11-2.55-15.75-2.42-16.37-2.28-16.96-2.15-17.53-2-18.07-1.85-18.58-1.69-19.07-1.54-19.53-1.37-19.97-1.21-20.38-1.04-20.77-.86-21.13-.67-21.46-.48-21.77-.3-22.05-.1v-8.18l22.09.1 21.81.3 21.5.49 21.17.67 20.81.86 20.42 1.04 20.01 1.21 19.58 1.38 19.11 1.54 18.63 1.7 18.11 1.85 17.57 2 17.02 2.15 16.43 2.29 15.81 2.43 15.17 2.56 14.51 2.68 13.82 2.81 13.1 2.93 12.37 3.04 11.6 3.15 10.81 3.26 10 3.36 9.17 3.46 8.31 3.56 7.44 3.67 6.55 3.77 5.65 3.9 4.73 4.06 3.81 4.28 2.85 4.63 1.76 5.13zm0 0c.45 2.17-.44 4.44-2 5.07-1.56.63-3.2-.61-3.65-2.78l5.65-2.29z"/><path class="fil1 str0" d="M1505.19 926.34c-290.98 16.19-299.93 23.56-597.87-29.83-37.95-4.73-90.55-19.89-90.55-19.89s-7.1-2.21-8.21 5.05c0 0-2 8.19-.89 16.24-2 .79-12.21 15.96-8.88 32.54 276.53 86.49 591.93 69.52 639.81 66.45 59.25-3.79 77.23-1.89 77.23-10.89 0-4.26-5.99-5.69-5.99-5.69s7.32-18.46 0-30.78c2.67-6.63 11.59-20.76-4.66-23.2zm-262.8 719.46c10.42 87.04 58.3 133.66 79.26 230.25m318.25-172.44c4.44 120.05-14.6 141.8-14.6 179.99M1232.17 527.57s-6.43 50.26-2.93 122.28M929.67 754.22c9.31 7.5 19.8 15.54 31.63 24.23m481.31 52.25s11.36-8.94 23.79-24.69"/><path class="fil1 str0" d="M1064.39 628.54s31.97 14.98 62.2 20.1c35.66 6.04 68.45-.59 108.95 1.46 39.92 2.03 52.66 12.3 87.44 12.7 34.78.4 58.45-18.17 58.45-18.17m-337.17-141.54s36.79 17.24 71.59 23.14c41.04 6.96 78.78-.68 125.39 1.69 45.94 2.33 60.74 17.87 100.64 14.61 39.85-3.25 72.71-19.49 72.71-19.49m73.92 245.66c-3.04 40.83 21.18 61.7 16.68 157.64M860.8 678.91c6.54 85.77-29.03 104.09-44.02 197.71m682.91-399.53s9.13 18.75-2.97 54.73"/><path class="fil1 str0" d="M1481.29 492.19s22.09-16.68 36.8-32.86m-638.38-5.18c.77 19.65 5.81 40.45 16.99 58.79"/><path class="fil1 str0" d="M913.11 462.68s-41.33-6.8-56.71-20.74m387.44 315.44c5.68 24.33-15.69 39.18-19.61 55.95"/><path class="fil1 str0" d="M1229.74 706.57c-.32 56.41-43.14 49.44-2.12 112.59m-148.82 90.63s-19-52.55-60.48-86.21m448.08-17.57c12.54-15.89 26.18-38.69 30.32-66.21 8.25-54.78-15.77-138.64-2.06-179.59l37.45-110.93M1346.93 920.9s10.74-18.87 59.04-59.37M837.64 432.22s24.77 64.61 26.16 74.55c7.83 58.91-13.88 124.66-10.53 145.56 3.9 24.37 11.39 49.57 76.4 101.9"/><path class="fil1 str1" d="M807.68 897.91c84.38 20.9 318.87 90.18 702.17 46.94m-710.37-30.42c148.27 52.9 410.17 83.09 713.58 50.42"/><path class="fil1 str0" d="M795.69 933.74c-19.24 8.44-35.41 27.24-40.83 47.49-17.98 66.91 18.98 230.36 0 254m-5.09-181.09s-11.62 52.24-29.2 90.89c-3.08 6.79-4.95 14.04-5.43 21.48-1.28 19.91-2.03 55.42 1.1 88.13m-2.17-43.49s-13.37 19.52-12.48 52.37c.89 32.85-1.31 20.54-6.82 96.53m2.09-22.39c-3.7 61.24-28.06 142.14-22.73 191.41.7-2.69-.71 53.32-7.84 91.33 0 0-9.91 10.89 40.63 28.64 13.26 16.87 63.92 55.68 187.31 45.91 123.39-9.77 249.44-63.03 249.44-63.03v-48.82l-4.66-.67s11.76-27.74 11.76-45.05-17.31-117.18 3.99-118.51c0 0 17.54-5.55 27.52 7.77 9.99 13.31 103.2 117.18 108.52 168.44"/><path class="fil1 str0" d="M1162.98 1417.73s34.62 79.48 12.65 149.39c-4.81 16.2-15.97 32.98-19.06 45.98-1.61 6.76-.15 10.29 4.64 14.39 13.98 11.98 19.57 9.1 22.25 17.76 18.67 5.32 61.09 14.9 61.09 14.9m-87.98-47.05s31.94-3.37 140.24 64.55c126.43 79.27 324.9 40.39 347.54 23.53 0-14.65-1.33-39.4-1.33-39.4s0-3.33-3.11-3.33c1.22-2.11 1.76-4.67 1.55-6.43-5.1-102.2-12.96-94.83-14.43-116.85-2.09-31.33 1.33-105.19-9.98-153.8 5.99-15.31 3.33-36.62-5.99-61.25 1.33-6.66 21.3-46.61 2.66-100.54-18.64-53.93-59.92-153.13-59.92-153.13m59.92 153.13s2.67-16.65-5.99-54.59c-31.61-80.11-37.51-110.63-93.15-172.11m-365.82 430.3c-33.71 64.62-97.4 57.39-183.5 167.46"/><path class="fil1 str1" d="M1175.63 1420.75c19.97-15.42-6.66-266.36 12.46-397.97m-28.04 395.11c19.97-15.42-9.08-264.9 10.04-396.51"/><path class="fil1 str0" d="M901.33 1454.38c127.62-21.02 140.06-65.27 264.8-58.87m17.32-60.09c118.95 121.62 259.37 118.96 340.74 235.24m86.86-250.55s-11.98-35.29-154.02-107.19M798.8 930.44s-10.65 23.49 18.64 62.1c29.3 38.62 218.38 162.45 298.27 250.33m-284.29 28.63s63.69 53.71 210.39 63.91c95.66 6.66 102.13 5.22 125.59 12.99m-69.4 300.64c-4.04 105.83-32 92.96-36.44 220.79m-340.58-207.6c-3.37 99.64 2.81 117.94 18.79 188.06"/><path class="fil0" d="m946.15 1014.19 1.26-34.94 25.19 18.02-26.45 16.92zm436.22-1.34-1.26-34.95-25.2 18.02 26.46 16.93zm-13.23-8.45"/><path style="fill:#0ff" d="M972.6 967.29h382.74v59.96H972.6z"/><path class="fil3" d="M1092.81 998.87h2.74c-.11 2.51-.98 4.53-2.59 6.03-1.59 1.5-3.67 2.25-6.2 2.25-2.91 0-5.19-.98-6.87-2.97-1.64-2.02-2.48-4.76-2.48-8.28 0-3.26.87-5.83 2.6-7.73 1.73-1.93 4.09-2.89 7.04-2.89 2.33 0 4.27.61 5.77 1.82s2.37 2.85 2.6 4.96h-2.77c-.26-1.35-.89-2.43-1.87-3.17-.98-.72-2.25-1.1-3.84-1.1-2.11 0-3.72.75-4.9 2.22-1.16 1.47-1.73 3.55-1.73 6.23 0 2.54.61 4.56 1.82 6.11 1.21 1.53 2.8 2.28 4.79 2.28 1.7 0 3.09-.52 4.19-1.59 1.07-1.04 1.64-2.45 1.73-4.19z"/><path id="_1" class="fil3" d="M1101.46 988.89v17.69h-2.6v-20.74h4.04l5.14 15.87c.14.46.26.81.31 1.04.09.26.15.49.17.67.09-.35.15-.67.23-.93.09-.29.14-.52.23-.78l5.34-15.87h4.04v20.74h-2.74v-17.69c-.06.32-.15.61-.23.92-.09.29-.17.61-.26.9l-5.33 15.87h-2.66l-5.22-15.87c-.09-.26-.17-.55-.26-.84-.06-.32-.15-.63-.2-.98z"/><path id="_2" class="fil3" d="M1147.36 1006.57v-20.74h2.83v20.74z"/><path id="_3" class="fil3" d="M1154.68 1006.57v-20.74h3.09l9.69 15.06c.23.35.41.64.58.93.14.31.29.57.37.83v-16.82h2.69v20.74h-3.06l-9.9-15.29c-.14-.23-.29-.46-.43-.72-.11-.26-.23-.52-.35-.81v16.82h-2.68z"/><path id="_4" class="fil3" d="M1190.03 998.87h2.74c-.11 2.51-.98 4.53-2.59 6.03-1.59 1.5-3.67 2.25-6.2 2.25-2.91 0-5.19-.98-6.87-2.97-1.64-2.02-2.48-4.76-2.48-8.28 0-3.26.87-5.83 2.6-7.73 1.73-1.93 4.09-2.89 7.04-2.89 2.33 0 4.27.61 5.77 1.82s2.37 2.85 2.6 4.96h-2.77c-.26-1.35-.89-2.43-1.87-3.17-.98-.72-2.25-1.1-3.84-1.1-2.11 0-3.72.75-4.9 2.22-1.16 1.47-1.73 3.55-1.73 6.23 0 2.54.61 4.56 1.82 6.11 1.21 1.53 2.8 2.28 4.79 2.28 1.7 0 3.09-.52 4.19-1.59 1.07-1.04 1.64-2.45 1.73-4.19z"/><path id="_5" class="fil3" d="M1196.08 1006.57v-20.74h2.83v8.51h10.76v-8.51h2.83v20.74h-2.83v-9.72h-10.76v9.72z"/><path id="_6" class="fil3" d="M1216.94 1006.57v-20.74h14.81v2.56h-12.01v6.21h11.08v2.42h-11.08v6.95h12.24v2.6z"/><path id="_7" class="fil3" d="M1234.43 999.73h2.71c.03 1.5.52 2.71 1.5 3.61.98.89 2.28 1.33 3.9 1.33 1.61 0 2.88-.35 3.81-1.01.92-.69 1.39-1.59 1.39-2.77 0-1.59-1.73-2.8-5.22-3.61-.2-.06-.35-.09-.46-.11-2.83-.66-4.7-1.41-5.6-2.25-.89-.81-1.35-1.96-1.35-3.49 0-1.85.67-3.35 2.02-4.44 1.35-1.13 3.15-1.7 5.39-1.7 2.31 0 4.1.61 5.43 1.76 1.3 1.18 1.96 2.8 1.99 4.87h-2.69c-.09-1.38-.57-2.45-1.41-3.2-.87-.72-2.02-1.09-3.49-1.09-1.38 0-2.48.29-3.31.89-.84.61-1.24 1.41-1.24 2.42 0 1.62 1.7 2.8 5.14 3.61.49.12.89.2 1.15.26l.32.09c2.22.52 3.72 1.1 4.44 1.73.55.46.98 1.04 1.27 1.7.29.67.43 1.41.43 2.25 0 1.99-.72 3.61-2.13 4.79-1.44 1.19-3.37 1.76-5.83 1.76-2.51 0-4.47-.63-5.89-1.9-1.39-1.27-2.13-3.09-2.25-5.48z"/><path id="_8" class="fil3" d="m1128.46 1009.26 6.96-23.98h1.78l-7.01 23.98z"/><path class="fil0" d="M952.19 993.06c1.62.16 2.84 2.12 2.72 4.37-.11 2.25-1.53 3.94-3.15 3.79l.43-8.16zm-232.17-66.58h5.89l.16 1.74.53 1.88.98 2.09 1.48 2.27 2 2.38 2.53 2.45 3.04 2.49 3.54 2.5 4.02 2.5 4.5 2.48 4.97 2.47 5.42 2.44 5.87 2.41 6.31 2.37 6.74 2.33 7.17 2.3 7.59 2.26 8 2.21 8.41 2.17 8.8 2.11 9.19 2.06 9.57 2 9.95 1.96 10.33 1.89 10.69 1.83 11.05 1.77 11.4 1.71 11.74 1.64 12.08 1.57 12.42 1.5 12.74 1.43 13.06 1.36-.43 8.16-13.09-1.36-12.78-1.44-12.45-1.51-12.12-1.57-11.79-1.65-11.44-1.72-11.09-1.78-10.74-1.84-10.37-1.9-10.01-1.96-9.63-2.02-9.26-2.08-8.87-2.13-8.48-2.18-8.08-2.23-7.68-2.28-7.26-2.33-6.85-2.37-6.43-2.42-6.01-2.46-5.58-2.51-5.15-2.56-4.7-2.6-4.27-2.65-3.83-2.71-3.38-2.78-2.94-2.86-2.5-2.98-2.05-3.13-1.56-3.35-1-3.59-.35-3.78zm0 0c0-2.26 1.32-4.09 2.94-4.09 1.63 0 2.94 1.83 2.94 4.09h-5.89zm.48-4.3 5.65 2.31-.03.15-.03.14-.02.13-.03.15-.02.14-.02.15-.02.14-.01.09-.01.09-.02.2-.01.09v.08l-.01.14v.32h-5.89v-.31l.01-.31.01-.26.02-.26.02-.31.03-.31.02-.2.03-.31.04-.3.04-.25.04-.25.04-.25.04-.25.05-.26.05-.24.05-.24zm0 0c.46-2.17 2.1-3.41 3.66-2.77 1.56.63 2.45 2.91 2 5.08l-5.65-2.31zm877.73 2.31c-.46-2.17.44-4.44 2-5.08 1.56-.63 3.2.61 3.66 2.77l-5.65 2.31zm6.13 2h-5.89v-.17l-.01-.2v-.08l-.01-.08-.01-.14-.01-.09-.02-.14-.02-.14-.01-.09-.02-.15-.02-.14-.03-.15-.02-.13-.03-.14-.03-.15 5.65-2.31.05.24.05.24.05.26.04.25.04.25.04.25.04.3.03.25.03.25.03.31.02.25.02.31.02.31.01.2.01.31v.31zm0 0c0 2.26-1.32 4.09-2.94 4.09-1.63 0-2.94-1.83-2.94-4.09h5.89zm-231.6 74.72-.43-8.16 13.06-1.36 12.73-1.43 12.41-1.5 12.07-1.57 11.73-1.64 11.39-1.71 11.04-1.77 10.68-1.83 10.32-1.89 9.94-1.95 9.57-2.01 9.19-2.06 8.79-2.11 8.4-2.17 7.99-2.21 7.59-2.26 7.16-2.3 6.74-2.33 6.31-2.37 5.87-2.41 5.42-2.44 4.96-2.46 4.5-2.48 4.02-2.5 3.53-2.5 3.04-2.49 2.52-2.45 2-2.38 1.48-2.27.98-2.09.53-1.88.16-1.73h5.89l-.35 3.78-1 3.59-1.56 3.35-2.04 3.13-2.5 2.98-2.94 2.86-3.38 2.77-3.83 2.71-4.26 2.65-4.7 2.6-5.14 2.55-5.57 2.51-6 2.46-6.43 2.42-6.84 2.37-7.26 2.33-7.67 2.28-8.07 2.23-8.47 2.18-8.86 2.13-9.25 2.07-9.63 2.02-10 1.96-10.37 1.9-10.73 1.84-11.09 1.78-11.43 1.72-11.78 1.65-12.11 1.57-12.44 1.51-12.77 1.44-13.09 1.36zm0 0c-1.62.16-3.04-1.53-3.15-3.78-.11-2.25 1.1-4.21 2.72-4.37l.43 8.16z"/><path d="M448.36 1409.19h704.43m-704.43 217.45h704.43m-652.23-34.53v-148.4" style="fill:none;stroke:#0ff;stroke-width:6.67;stroke-miterlimit:2.61313"/><path class="fil5" d="M476.99 1588.78h47.14l-23.57 34.53zm0-141.74h47.14l-23.57-34.52z"/><path class="fil5" transform="matrix(0 -.36185 .86613 0 475.561 1584.58)" d="M0 0h368.49v57.72H0z"/><path class="fil6" d="M504.3 1569.31v-1.98c1.81.08 3.27.71 4.35 1.87 1.08 1.15 1.63 2.65 1.63 4.48 0 2.1-.71 3.75-2.15 4.96-1.46 1.19-3.44 1.8-5.98 1.8-2.35 0-4.21-.63-5.58-1.88-1.4-1.25-2.08-2.96-2.08-5.08 0-1.69.44-3.08 1.31-4.17.87-1.09 2.06-1.71 3.58-1.88v2c-.98.19-1.75.65-2.29 1.35-.52.71-.79 1.63-.79 2.77 0 1.52.54 2.69 1.6 3.54 1.06.83 2.56 1.25 4.5 1.25 1.83 0 3.3-.44 4.42-1.31 1.11-.87 1.65-2.02 1.65-3.46 0-1.23-.37-2.23-1.15-3.02-.75-.77-1.77-1.19-3.02-1.25z"/><path id="_1_0" class="fil6" d="M497.09 1563.06h12.77v1.88h-14.98v-2.92l11.46-3.71c.33-.11.58-.19.75-.23.19-.06.35-.1.48-.12-.25-.06-.48-.11-.67-.17-.21-.06-.38-.1-.56-.17l-11.46-3.85v-2.92h14.98v1.98h-12.77c.23.04.44.1.67.17.21.06.44.13.65.19l11.46 3.85v1.92l-11.46 3.77c-.19.06-.39.12-.6.19-.23.04-.46.11-.71.15z"/><path id="_2_1" class="fil6" d="M509.86 1529.92h-14.98v-2.05h14.98z"/><path id="_3_2" class="fil6" d="M509.86 1524.63h-14.98v-2.23l10.87-7c.25-.17.46-.29.67-.41.23-.11.42-.21.6-.27h-12.15v-1.94h14.98v2.21l-11.04 7.15c-.17.1-.33.21-.52.31-.19.08-.37.17-.58.25h12.15v1.94z"/><path id="_4_3" class="fil6" d="M504.3 1499.11v-1.98c1.81.08 3.27.71 4.35 1.87 1.08 1.15 1.63 2.65 1.63 4.48 0 2.1-.71 3.75-2.15 4.96-1.46 1.19-3.44 1.8-5.98 1.8-2.35 0-4.21-.63-5.58-1.88-1.4-1.25-2.08-2.96-2.08-5.08 0-1.69.44-3.08 1.31-4.17.87-1.09 2.06-1.71 3.58-1.88v2c-.98.19-1.75.65-2.29 1.35-.52.71-.79 1.63-.79 2.77 0 1.52.54 2.69 1.6 3.54 1.06.83 2.56 1.25 4.5 1.25 1.83 0 3.3-.44 4.42-1.31 1.11-.87 1.65-2.02 1.65-3.46 0-1.23-.37-2.23-1.15-3.02-.75-.77-1.77-1.19-3.02-1.25z"/><path id="_5_4" class="fil6" d="M509.86 1494.74h-14.98v-2.05h6.15v-7.77h-6.15v-2.04h14.98v2.04h-7.02v7.77h7.02z"/><path id="_6_5" class="fil6" d="M509.86 1479.67h-14.98v-10.69h1.86v8.67h4.48v-8h1.74v8h5.03v-8.84h1.87z"/><path id="_7_6" class="fil6" d="M504.93 1467.04v-1.96c1.08-.02 1.96-.38 2.6-1.08.65-.71.96-1.65.96-2.81 0-1.17-.25-2.08-.73-2.75-.5-.67-1.15-1-2-1-1.15 0-2.02 1.25-2.6 3.77-.04.15-.06.25-.08.33-.48 2.04-1.02 3.4-1.63 4.04-.58.65-1.42.98-2.52.98-1.33 0-2.42-.48-3.21-1.46-.81-.98-1.23-2.27-1.23-3.9 0-1.67.44-2.96 1.27-3.92.85-.94 2.02-1.41 3.52-1.44v1.94c-1 .06-1.77.41-2.31 1.02-.52.63-.79 1.46-.79 2.52 0 1 .21 1.79.65 2.4.44.6 1.02.89 1.75.89 1.17 0 2.02-1.23 2.6-3.71.08-.35.15-.65.19-.83l.06-.23c.37-1.6.79-2.69 1.25-3.21.33-.39.75-.7 1.23-.91.48-.21 1.02-.31 1.63-.31 1.44 0 2.61.52 3.46 1.54.85 1.04 1.27 2.44 1.27 4.21 0 1.81-.46 3.23-1.38 4.25-.92 1-2.23 1.54-3.96 1.63z"/><path id="_8_7" class="fil6" d="m511.8 1543.56-17.31-5.02v-1.29l17.31 5.06z"/></g></g></svg>