<svg xmlns="http://www.w3.org/2000/svg" xml:space="preserve" style="shape-rendering:geometricPrecision;text-rendering:geometricPrecision;image-rendering:optimizeQuality;fill-rule:evenodd;clip-rule:evenodd" viewBox="120 340 1750 1750"><defs><style>.str0{stroke:gray;stroke-width:3.33;stroke-linecap:round;stroke-linejoin:round;stroke-miterlimit:22.926}.fil1{fill:none;fill-rule:nonzero}.fil2{fill:#d42f91}.fil0,.fil3{fill-rule:nonzero}.fil3{fill:#333}.fil0{fill:#d42f91}</style></defs><g id="Layer_x0020_1"><path class="fil0" d="M731.57 657.28c-.06 1.51-.81 2.47-1.67 2.13-.86-.33-1.52-1.84-1.46-3.35l3.13 1.22zm220.52-83.82.67 5.61-11.48 1.44-11.32 1.56-11.15 1.68-10.96 1.78-10.76 1.88-10.54 1.98-10.31 2.07-10.07 2.17-9.81 2.24-9.55 2.32-9.27 2.4-8.97 2.46-8.67 2.53-8.35 2.59-8.01 2.64-7.67 2.69-7.31 2.74-6.93 2.77-6.54 2.8-6.15 2.84-5.73 2.85-5.31 2.87-4.87 2.89-4.41 2.89-3.94 2.89-3.45 2.87-2.95 2.85-2.43 2.8-1.89 2.72-1.34 2.59-.78 2.36-.29 2.04-3.13-1.22.49-3.62 1.11-3.35 1.63-3.17 2.13-3.08 2.63-3.02 3.1-3 3.58-2.98 4.04-2.96 4.5-2.94 4.94-2.93 5.37-2.91 5.79-2.89 6.2-2.85 6.59-2.83 6.97-2.79 7.34-2.74 7.7-2.7 8.04-2.65 8.38-2.59 8.69-2.54 9-2.47 9.29-2.41 9.57-2.33 9.83-2.25 10.09-2.17 10.33-2.08 10.56-1.98 10.77-1.89 10.98-1.78 11.17-1.68 11.34-1.57 11.51-1.44zm0 0c.85-.1 1.69 1.07 1.87 2.62.18 1.55-.35 2.89-1.2 2.99l-.67-5.61zm236.83 27.46-2.76 1.92-.76-1.91-1.32-2.11-1.91-2.2-2.48-2.2-3.02-2.15-3.54-2.07-4.03-1.98-4.51-1.87-4.97-1.77-5.41-1.65-5.83-1.54-6.25-1.42-6.64-1.31-7.02-1.18-7.39-1.06-7.74-.93-8.08-.8-8.41-.68-8.72-.54-9.02-.41-9.3-.27-9.57-.14h-9.83l-10.07.14-10.3.27-10.51.42-10.71.56-10.89.71-11.07.85-11.23 1.01-11.37 1.15-11.5 1.31-.67-5.61 11.52-1.31 11.39-1.16 11.24-1.01 11.09-.85 10.92-.71 10.73-.56 10.53-.42 10.32-.28 10.09-.14h9.85l9.59.14 9.33.28 9.04.41 8.75.54 8.44.68 8.12.81 7.78.93 7.43 1.07 7.07 1.19 6.7 1.31 6.3 1.44 5.9 1.56 5.49 1.68 5.06 1.8 4.63 1.92 4.18 2.05 3.72 2.18 3.26 2.32 2.8 2.48 2.33 2.7 1.87 3 1.33 3.41zm0 0c.41 1.46.13 3.07-.63 3.6-.76.53-1.72-.22-2.13-1.68l2.76-1.92zM731.7 831.26c-.06 1.64-.88 2.67-1.81 2.31-.94-.36-1.64-2-1.58-3.63l3.39 1.32zm238.96-90.82.72 6.08-12.44 1.56-12.27 1.69-12.08 1.81-11.87 1.93-11.65 2.04-11.42 2.15-11.17 2.24-10.91 2.35-10.63 2.43-10.34 2.52-10.04 2.59-9.72 2.67-9.39 2.74-9.04 2.8-8.69 2.86-8.3 2.91-7.92 2.96-7.51 3-7.09 3.04-6.66 3.07-6.21 3.1-5.75 3.11-5.28 3.13-4.78 3.13-4.27 3.13-3.74 3.11-3.2 3.08-2.63 3.04-2.05 2.95-1.44 2.8-.85 2.56-.31 2.21-3.39-1.32.54-3.93 1.2-3.63 1.77-3.44 2.31-3.33 2.84-3.28 3.36-3.25 3.88-3.22 4.38-3.2 4.87-3.19 5.35-3.17 5.81-3.15 6.27-3.12 6.72-3.09 7.14-3.06 7.55-3.02 7.96-2.98 8.34-2.93 8.72-2.87 9.07-2.81 9.42-2.75 9.75-2.68 10.07-2.6 10.37-2.52 10.66-2.44 10.94-2.35 11.19-2.25 11.44-2.15 11.68-2.05 11.89-1.93 12.1-1.82 12.29-1.69 12.47-1.57zm0 0c.92-.11 1.83 1.16 2.02 2.84.2 1.68-.38 3.13-1.3 3.24l-.72-6.08zm256.63 29.75-2.99 2.09-.82-2.07-1.43-2.29-2.07-2.38-2.69-2.39-3.28-2.33-3.83-2.24-4.37-2.14-4.89-2.04-5.38-1.91-5.86-1.79-6.32-1.67-6.77-1.54-7.2-1.41-7.61-1.28-8.01-1.15-8.39-1.01-8.76-.87-9.11-.73-9.45-.59-9.77-.45-10.08-.3-10.37-.15h-10.65l-10.91.15-11.15.3-11.39.45-11.61.61-11.8.77-11.99.93-12.17 1.09-12.32 1.26-12.47 1.42-.72-6.08 12.48-1.42 12.34-1.26 12.19-1.09 12.02-.93 11.83-.77 11.63-.61 11.41-.45 11.18-.3 10.93-.15h10.67l10.4.15 10.11.3 9.8.45 9.48.59 9.15.74 8.8.87 8.43 1.02 8.06 1.15 7.66 1.29 7.25 1.42 6.84 1.56 6.39 1.69 5.95 1.81 5.49 1.95 5.02 2.08 4.53 2.22 4.03 2.36 3.54 2.52 3.04 2.69 2.53 2.93 2.02 3.25 1.45 3.69zm0 0c.45 1.58.14 3.33-.68 3.91-.82.57-1.86-.24-2.31-1.82l2.99-2.09z"/><g id="_105553224708672"><path class="fil1 str0" d="M1111.17 524.77s29.29 25.24 47.79 81.46m-388.18 35.11s-2.82 18.37-2.58 31.45m-2.15-7.49s-5.2 20.89-5.14 39.12c28.49 91.17 163.67 114.67 194.37 139.62 0 0 39.55 40.25 72.93-3.84 52.3-69.09 112.48-107.47 128.44-132.9 0 0 22.69-33.11 19.33-54.22-3.36-21.11-18.67-54.7-18.67-54.7m19 60.5s75.22 201.15-17.49 491.89c0 0-14.67 37.44-29.07 31.68M1019.44 849.8c7 26.86-20.51 51.17-22.75 77.22m48.08-107.47c37.35 154.35-16.73 157.7-5.02 332.64m-69.1-297.17c-5.13 49.07 56.54 65.32 45.56 207.8m11.82 174.97-1.28 12.87M913.73 860.02c-14.13-18.56-30.53-38.48-48.21-56.97m170.56 479.04s1.04 6.4 11.29 6.4c26.39 0 37.42-16.79 37.42-16.79m78.03-133.81c0 56.52-10.17 82.11-12.69 128.45-.67 12.28.94 24.56 4.57 36.31 7.52 24.33 20.13 73.69 15.19 118.1-6.88 99.8-100.44 305.82-88.77 353.13 0 0-.48 5.56-6.21 13.72-3.02 4.28-7.48 9.3-14.1 14.59m-36.87-272.07s29.41 138.47-15.56 204.87m22.89-423.3s.72 10.1 4.7 23.8c1.37 4.72 1.5 9.7.5 14.51-3.09 14.8-11.33 36.15-11.33 67.59m-121.26-117.95c0 45.42-36.43 59.7-31.31 146.7 5.12 87 78.05 282.76 69.73 362.72 0 0-5.28 23.83 6.72 31.51.96 5.75-16.31 66.21-14.4 87.33 1.92 21.1-10.07 61.41-7.67 76.28 2.4 14.87-1.92 30.24 3.36 33.59 5.28 3.35 12.95 2.87 12.95 2.87s3.84 8.64 17.27 6.72c2.4 2.4 7.2 6.71 15.83 2.87 2.88 3.35 21.11 11.52 28.79-6.24 2.4 5.29 9.12 13.46 39.35 11.05 7.19-7.2 16.31-18.24 11.03-34.55-32.15-52.3-6.48-153.06-23.75-182.81 1.61-21.11-1.51-26.37-6.96-41.02-9.33-25.11-12.8-41.35-12.8-41.35-18.55-72.29 16.63-223.26 16.63-277.64 0-54.38-9.59-100.44-9.59-100.44 0-46.7 31.34-89.56 8.95-139.46 11.54-73.84-1.28-201.83-70.37-319.15M761.57 705.73s-24.54 151.75 27.4 312.71c48.4 145.76 98.94 134.24 117.33 300.57 4.87 30.11 28.79 26.87 28.79 26.87m70.24-98.52s-49.61 7.68-52.17 24.31M764.71 671.79s-8.93 67.52 198.4 46.08c153.23-22.66 212.8-77.82 199.99-105.8m-88.2 1175.51c2.37 25.3-21.37 87.6-27.06 122.54-2.88 21.11-1.82 39.4-9.06 44.17m-104.17-34.36s-13.91 15.14-20.15 39.13c-2.88 10.08 4.1 16.19 15.01 16.01m19.54-134.52s6 5.27 5.76 13.19m77.01-16.07-1.44 17.03m-25.19 189.27c2.08-26.7 13.28-24.14 13.28-40.78m-42.06 47.02s-4.59-11.23 11.68-23.68c10.87-8.31 13.11-16.62 13.11-16.62m-40.63 37.43s-5.76-9.28 7.68-19.84c5.76-3.91 9.92-12.15 9.92-12.15m-34.87 25.26c-4.2-14.75 11.52-16.91 13.44-26.27m-8.54 10.66s.61-5.27 1.46-8.15m-21.9 1.44s.19-11.14 3.91-17.87m84.56 32.83s14.24-6.08 29.59 1.6c1.92-3.2.96-15.99-13.75-15.37-14.71.65-15.83 13.76-15.83 13.76zm-33.26 4.96s9.94-.48 15.85 3.35c3.84-2.56 1.1-8.15-4.98-8.95-6.08-.8-10.87 5.6-10.87 5.6zm-2.13-4.7c-1.11-1.54-3.13-2.81-5.8-3.18-6.08-.79-10.87 5.6-10.87 5.6s7.81-.37 13.7 2.2m-14.24-6.87c-1.11-1.53-3.13-2.81-5.8-3.16-6.07-.81-10.87 5.6-10.87 5.6s7.81-.37 13.7 2.2m-18.04-1.71s-7.61 1.15-10.93-1.65c.12-2.98.68-7.22 7.32-6.89 6.63.31 6.41 2.37 6.41 2.37m66.68-272.74s-6.81-20.02-16.39-51.58m-52.84 98.44c21.78-163.61-36.81-285.98-14.74-456.68m152.06 419.73c0-84.92 45.49-274.79 55.05-351.2m17.62-176.24s-7.7 61.97-11.38 106.43M845.28 546.43c23.49 86.2 2.19 111.37 32.17 163m166.58-159.47c10.55 78.6 23.97 89.72 19.31 130.52M777.66 480.2s20.94 61.7 23.47 79.94"/><path class="fil1 str0" d="M956.58 632.27c-3.97-17.81 18.28-24.89-2.69-44.32 0 0-8.04 5.39-6.65 17.58 1.17 10.2 9.48 12.22 9.82 16.2M816.03 498.57s19.72-103 100.05-110.46c83.9-7.8 109.04 87.55 140.36 87.34m-134.8.61c1.71 27.02 10.06 45.04 19.15 64.27 5.58 11.8 10.85 26.89 13.1 47.64m-195.1-194.76c8.63 71.38 20.67 80.92 27.07 119.1 2.76 16.49 4.39 33.58.72 49.9-6.09 27.08-11.31 39.27-15.79 79.15m347.83-94.86c-29.73-78.26-1.2-107.76-17.87-180.98m58.06 238.89c4.44 37.81-79.56 82.06-187.62 98.85-108.06 16.79-200.7-.13-205.13-37.93"/></g><path class="fil2" transform="matrix(.71208 -.08527 .08527 .71208 832.392 674.966)" d="M0 0h368.49v57.72H0z"/><path class="fil3" d="m917.41 686.75 1.88-.22c.13 1.73-.3 3.19-1.28 4.35-.97 1.16-2.33 1.84-4.07 2.05-2 .24-3.64-.24-4.95-1.47-1.3-1.25-2.09-3.06-2.38-5.47-.27-2.23.11-4.07 1.14-5.52 1.03-1.46 2.57-2.31 4.59-2.56 1.6-.19 2.98.07 4.11.78 1.13.71 1.86 1.76 2.19 3.19l-1.9.23c-.29-.91-.81-1.59-1.55-2.02-.73-.42-1.63-.57-2.72-.44-1.44.17-2.49.82-3.18 1.93-.67 1.1-.89 2.57-.67 4.41.21 1.74.79 3.07 1.75 4.04.96.95 2.11 1.33 3.47 1.17 1.17-.14 2.07-.61 2.74-1.43.65-.8.93-1.81.84-3.01z"/><path id="_1" class="fil3" d="m922.52 679.2 1.45 12.12-1.78.21-1.7-14.22 2.77-.33 4.82 10.45c.14.3.25.54.31.69.08.17.14.32.17.44.03-.25.05-.47.09-.65.04-.2.06-.37.09-.56l2.36-11.31 2.77-.33 1.7 14.22-1.87.22-1.45-12.12c-.01.22-.05.43-.08.65-.04.2-.07.43-.1.64l-2.36 11.31-1.82.22-4.88-10.45c-.08-.17-.17-.36-.25-.55-.07-.22-.15-.43-.22-.66z"/><path id="_2" class="fil3" d="m955.43 687.55-1.7-14.22 1.93-.23 1.71 14.22z"/><path id="_3" class="fil3" d="m960.44 686.95-1.7-14.22 2.12-.25 7.88 9.52c.19.22.33.41.47.59.13.21.24.37.33.54l-1.38-11.53 1.83-.22 1.7 14.22-2.09.25-8.04-9.67c-.12-.15-.24-.29-.35-.46-.11-.17-.2-.33-.31-.52l1.38 11.53-1.84.22z"/><path id="_4" class="fil3" d="m984.04 678.77 1.88-.22c.13 1.73-.3 3.19-1.28 4.35-.97 1.16-2.33 1.84-4.07 2.05-2 .24-3.64-.24-4.95-1.47-1.3-1.25-2.09-3.06-2.38-5.47-.27-2.23.11-4.07 1.14-5.51 1.03-1.47 2.57-2.31 4.59-2.56 1.6-.19 2.98.07 4.11.77 1.13.71 1.86 1.76 2.19 3.19l-1.9.22c-.29-.91-.81-1.59-1.55-2.02-.73-.41-1.63-.56-2.72-.43-1.44.17-2.49.81-3.18 1.92-.67 1.1-.89 2.57-.67 4.42.21 1.74.79 3.07 1.75 4.04.96.95 2.11 1.33 3.47 1.17 1.17-.14 2.07-.61 2.74-1.43.65-.8.93-1.81.84-3.01z"/><path id="_5" class="fil3" d="m988.83 683.55-1.71-14.22 1.94-.23.7 5.84 7.37-.89-.7-5.83 1.94-.23 1.7 14.21-1.93.24-.8-6.67-7.38.89.8 6.66z"/><path id="_6" class="fil3" d="m1003.13 681.84-1.7-14.22 10.14-1.21.21 1.76-8.23.98.51 4.26 7.6-.91.19 1.65-7.59.91.57 4.77 8.39-1 .21 1.78z"/><path id="_7" class="fil3" d="m1014.56 675.72 1.86-.22c.14 1.02.58 1.82 1.32 2.35.75.53 1.67.72 2.78.59 1.11-.13 1.95-.48 2.53-1 .58-.55.82-1.2.72-2.01-.13-1.09-1.42-1.78-3.88-2.04-.14-.02-.24-.03-.33-.04-1.99-.22-3.33-.59-4.02-1.09-.68-.48-1.09-1.23-1.22-2.28-.15-1.27.18-2.35 1.02-3.21.84-.88 2.02-1.43 3.56-1.61 1.58-.19 2.86.08 3.86.76.99.7 1.57 1.76 1.76 3.18l-1.84.22c-.17-.94-.59-1.63-1.23-2.08-.65-.42-1.47-.58-2.48-.46-.95.11-1.68.4-2.2.89-.53.48-.74 1.07-.65 1.76.13 1.11 1.4 1.78 3.82 2.05.34.04.63.07.81.09l.22.03c1.56.17 2.64.44 3.19.82.41.27.76.63 1.01 1.06.25.43.41.94.48 1.51.16 1.36-.2 2.53-1.07 3.46-.89.93-2.17 1.48-3.85 1.69-1.72.2-3.11-.07-4.19-.82-1.06-.76-1.72-1.94-1.99-3.57z"/><path id="_8" class="fil3" d="m942.7 690.94 2.8-17 1.22-.15-2.84 17.01z"/><path class="fil0" d="M821.1 694.7c.86.01 1.66 1.28 1.78 2.83.12 1.55-.47 2.8-1.33 2.79l-.45-5.62zm-92.56-35.67 3.07-.36.24 1.69.3 1.65.37 1.61.46 1.58.54 1.56.64 1.53.76 1.53.88 1.52 1.02 1.5 1.17 1.5 1.34 1.48 1.52 1.46 1.7 1.43 1.89 1.39 2.09 1.35 2.3 1.31 2.52 1.26 2.75 1.21 2.98 1.15 3.23 1.09 3.48 1.02 3.74.96 4 .89 4.28.81 4.57.74 4.87.66 5.17.58 5.48.49 5.8.41 6.13.31 6.47.22 6.82.13.45 5.62-6.84-.13-6.5-.23-6.16-.31-5.83-.41-5.52-.5-5.21-.58-4.91-.67-4.62-.75-4.34-.82-4.07-.91-3.8-.98-3.55-1.05-3.31-1.12-3.07-1.19-2.84-1.25-2.64-1.32-2.42-1.38-2.23-1.45-2.05-1.5-1.87-1.58-1.7-1.63-1.54-1.7-1.39-1.77-1.24-1.83-1.1-1.9-.97-1.95-.84-2-.71-2.04-.59-2.07-.48-2.09-.38-2.09-.29-2.09zm0 0c-.18-1.55.35-2.89 1.2-2.99.85-.1 1.69 1.07 1.87 2.62l-3.07.37zm-.1-2.99 3.13 1.25v.2l-.01.2v.3l.01.2.01.16.01.16.02.15-3.07.36-.04-.4-.04-.38-.02-.39-.02-.35-.01-.38v-.41l.01-.35.01-.34zm0 0c.06-1.51.82-2.46 1.69-2.11.86.34 1.51 1.85 1.45 3.37l-3.13-1.25zm457.72-53.22c-.41-1.46-.12-3.07.64-3.59s1.72.24 2.13 1.7l-2.77 1.89zm3.37 1.01-3.07.37-.02-.14-.03-.16-.03-.17-.03-.15-.04-.2-.04-.17-.05-.19-.06-.21 2.77-1.89.08.31.09.34.09.37.07.33.08.39.07.38.06.38.06.41zm0 0c.18 1.55-.35 2.89-1.2 2.98-.85.1-1.69-1.07-1.87-2.62l3.07-.36zm-81.9 63.94-.89-5.57 6.59-1.74 6.24-1.76 5.9-1.78 5.56-1.8 5.24-1.82 4.92-1.83 4.61-1.85 4.31-1.86 4.02-1.87 3.73-1.89 3.46-1.89 3.19-1.9 2.93-1.91 2.69-1.91 2.44-1.91 2.21-1.91 1.99-1.9 1.77-1.9 1.57-1.89 1.37-1.87 1.19-1.86 1.01-1.83.84-1.81.69-1.78.54-1.76.41-1.72.29-1.7.19-1.69.09-1.67v-1.66l-.09-1.67-.17-1.67 3.07-.37.2 2.12.12 2.15v2.18l-.12 2.19-.24 2.19-.38 2.19-.52 2.17-.67 2.16-.82 2.13-.98 2.11-1.15 2.09-1.32 2.07-1.5 2.05-1.69 2.04-1.88 2.02-2.09 2-2.3 1.99-2.53 1.97-2.76 1.96-3 1.95-3.26 1.94-3.52 1.93-3.79 1.91-4.06 1.9-4.35 1.88-4.65 1.86-4.96 1.85-5.27 1.83-5.6 1.81-5.93 1.79-6.27 1.77-6.62 1.75zm0 0c-.83.21-1.71-.86-1.95-2.4s.23-2.96 1.06-3.17l.89 5.57z"/><path class="fil0" d="m818.27 710.64-2-24.06 18.75 10.29-16.75 13.78zm298.57-36.61-3.74-23.85-15.79 14.43 19.53 9.43zm-9.76-4.72"/><path class="fil2" transform="rotate(-6.821 7546.502 -6623.355) scale(.7771)" d="M0 0h368.49v57.72H0z"/><path class="fil3" d="m933.08 863.2 2.04-.24c.14 1.87-.33 3.45-1.39 4.71-1.04 1.26-2.52 2-4.41 2.22-2.17.26-3.94-.27-5.37-1.6-1.4-1.35-2.26-3.31-2.57-5.93-.29-2.42.13-4.4 1.24-5.97 1.11-1.59 2.79-2.51 4.97-2.77 1.74-.21 3.22.07 4.44.83 1.22.77 2.01 1.91 2.37 3.46l-2.06.24c-.31-.98-.88-1.72-1.68-2.19-.8-.45-1.77-.61-2.94-.47-1.56.19-2.7.89-3.44 2.09-.73 1.19-.97 2.79-.73 4.78.22 1.88.85 3.33 1.89 4.38 1.04 1.03 2.28 1.44 3.76 1.27 1.27-.15 2.25-.66 2.97-1.55.7-.87 1-1.97.91-3.26z"/><path id="_1_0" class="fil3" d="m938.61 855.01 1.57 13.14-1.93.23-1.85-15.41 3-.36 5.22 11.33c.15.33.26.57.33.74.09.19.15.35.19.48.04-.26.05-.5.09-.7.04-.22.06-.4.1-.6l2.56-12.26 3-.36 1.85 15.41-2.04.24-1.57-13.14c-.01.24-.05.46-.09.71-.04.22-.07.46-.11.69l-2.56 12.26-1.97.24-5.29-11.32c-.08-.19-.18-.39-.26-.6-.07-.23-.17-.46-.24-.71z"/><path id="_2_1" class="fil3" d="m974.28 864.07-1.85-15.41 2.1-.25 1.84 15.4z"/><path id="_3_2" class="fil3" d="M979.72 863.41 977.87 848l2.29-.27 8.54 10.32c.2.24.35.44.51.64.14.22.27.4.36.59l-1.5-12.49 1.99-.24 1.85 15.41-2.27.27-8.71-10.48c-.13-.16-.26-.32-.39-.5-.11-.18-.22-.37-.33-.57l1.5 12.49-1.99.24z"/><path id="_4_3" class="fil3" d="m1005.28 854.55 2.04-.24c.14 1.87-.33 3.45-1.39 4.71-1.04 1.26-2.52 2-4.41 2.22-2.17.26-3.94-.27-5.37-1.6-1.4-1.35-2.26-3.31-2.57-5.93-.29-2.42.13-4.4 1.24-5.97 1.11-1.59 2.79-2.51 4.97-2.77 1.74-.21 3.22.07 4.44.83 1.22.77 2.01 1.91 2.37 3.46l-2.06.24c-.31-.98-.88-1.72-1.68-2.19-.8-.45-1.77-.61-2.94-.47-1.56.19-2.7.89-3.44 2.09-.73 1.19-.97 2.79-.73 4.78.22 1.88.85 3.33 1.89 4.38 1.04 1.03 2.28 1.44 3.76 1.27 1.27-.15 2.25-.66 2.97-1.55.7-.87 1-1.97.91-3.26z"/><path id="_5_4" class="fil3" d="m1010.46 859.73-1.85-15.4 2.11-.26.75 6.33 7.99-.96-.75-6.32 2.1-.25 1.84 15.4-2.09.25-.87-7.22-7.99.96.86 7.22z"/><path id="_6_5" class="fil3" d="m1025.96 857.88-1.85-15.41 10.99-1.31.23 1.9-8.91 1.07.55 4.61 8.23-.99.21 1.8-8.22.99.61 5.16 9.09-1.09.23 1.93z"/><path id="_7_6" class="fil3" d="m1038.33 851.24 2.01-.24c.16 1.11.63 1.97 1.44 2.54.81.58 1.81.78 3.01.64 1.2-.14 2.11-.51 2.74-1.09.63-.59.89-1.3.78-2.18-.14-1.18-1.54-1.92-4.2-2.21-.16-.02-.27-.03-.35-.04-2.16-.24-3.62-.63-4.36-1.17-.74-.52-1.18-1.34-1.32-2.48-.16-1.37.2-2.54 1.11-3.48.91-.95 2.18-1.54 3.85-1.74 1.71-.2 3.1.09 4.19.82 1.07.76 1.7 1.91 1.91 3.45l-1.99.24c-.19-1.02-.65-1.77-1.34-2.25-.7-.46-1.6-.63-2.69-.5-1.03.12-1.81.44-2.38.96-.57.52-.8 1.16-.71 1.91.15 1.2 1.51 1.93 4.14 2.22.37.04.68.07.88.09l.24.04c1.7.19 2.86.48 3.45.89.45.3.82.69 1.09 1.15.27.47.45 1.01.52 1.63.18 1.48-.22 2.74-1.16 3.75-.96 1.01-2.35 1.61-4.17 1.82-1.87.22-3.38-.07-4.54-.89-1.14-.82-1.86-2.1-2.16-3.87z"/><path id="_8_7" class="fil3" d="m960.48 867.74 3.03-18.43 1.33-.15-3.08 18.43z"/><path class="fil0" d="M828.71 871.82c.93.01 1.8 1.39 1.93 3.06.13 1.68-.51 3.03-1.44 3.02l-.49-6.09zm-100.3-38.65 3.32-.41v.01l.26 1.82.32 1.78.4 1.75.49 1.7.59 1.69.7 1.67.81 1.65.96 1.65 1.11 1.63 1.27 1.63 1.45 1.6 1.64 1.58 1.83 1.55 2.05 1.51 2.27 1.47 2.5 1.42 2.73 1.37 2.98 1.31 3.23 1.25 3.5 1.18 3.77 1.11 4.05 1.04 4.34.96 4.65.88 4.95.8 5.27.72 5.6.63 5.94.54 6.28.44 6.65.35 7.01.24 7.39.14.49 6.09-7.42-.14-7.04-.24-6.68-.35-6.32-.44-5.98-.54-5.64-.63-5.32-.72-5-.81-4.7-.9-4.4-.98-4.12-1.06-3.85-1.14-3.58-1.21-3.33-1.28-3.09-1.36-2.85-1.43-2.63-1.5-2.42-1.56-2.22-1.64-2.02-1.7-1.84-1.78-1.67-1.85-1.5-1.92-1.35-1.98-1.19-2.06-1.05-2.12-.9-2.17-.78-2.21-.64-2.25-.52-2.25-.42-2.26-.31-2.27v.01zm0-.01c-.2-1.68.38-3.13 1.3-3.24.92-.11 1.83 1.17 2.02 2.84l-3.32.39zm-.11-3.22 3.39 1.32v.23l-.01.23v.15l.01.19v.19l.02.19.01.19.02.15-3.32.41-.05-.44-.04-.41-.02-.41-.02-.41-.01-.4v-.44l.01-.37.01-.36zm0 0c.06-1.64.88-2.67 1.81-2.31.94.36 1.64 2 1.58 3.63l-3.39-1.32zm495.98-57.69c-.44-1.58-.13-3.33.7-3.89s1.86.27 2.3 1.85l-3 2.04zm3.65 1.09-3.32.4-.02-.15-.03-.19-.03-.17-.03-.15-.05-.22-.05-.2-.05-.19-.06-.24 3-2.04.09.34.1.38.09.37.08.36.09.43.07.41.06.41.06.44zm0 0c.2 1.68-.38 3.13-1.3 3.24-.92.11-1.83-1.16-2.03-2.83l3.32-.41zm-88.74 69.29-.96-6.03 7.15-1.89 6.76-1.91 6.39-1.93 6.03-1.94 5.67-1.97 5.33-1.98 4.99-2 4.67-2.02 4.35-2.03 4.04-2.04 3.74-2.05 3.46-2.06 3.18-2.07 2.91-2.07 2.65-2.07 2.4-2.07 2.15-2.06 1.93-2.06 1.7-2.05 1.49-2.04 1.28-2.01 1.09-1.99.91-1.96.74-1.94.59-1.9.44-1.87.31-1.84.2-1.83.09-1.81v-1.8l-.09-1.81-.18-1.81 3.32-.4.22 2.3.13 2.33v2.36l-.13 2.37-.26 2.38-.41 2.37-.56 2.35-.72 2.33-.89 2.31-1.07 2.28-1.24 2.27-1.43 2.24-1.62 2.22-1.83 2.2-2.04 2.19-2.26 2.17-2.5 2.15-2.74 2.14-3 2.13-3.26 2.11-3.53 2.1-3.81 2.09-4.11 2.07-4.41 2.05-4.72 2.04-5.04 2.02-5.37 2-5.71 1.98-6.06 1.96-6.43 1.94-6.79 1.92-7.18 1.89zm0 0c-.9.23-1.85-.93-2.11-2.6-.26-1.67.25-3.2 1.15-3.43l.96 6.03z"/><path class="fil0" d="m825.65 889.08-2.17-26.07 20.32 11.15-18.15 14.93zm323.52-39.67-4.05-25.85-17.11 15.63 21.16 10.22zm-10.58-5.11"/></g></svg>