<svg xmlns="http://www.w3.org/2000/svg" xml:space="preserve" style="shape-rendering:geometricPrecision;text-rendering:geometricPrecision;image-rendering:optimizeQuality;fill-rule:evenodd;clip-rule:evenodd" viewBox="340 340 1600 1600"><defs><style>.str0,.str1{stroke:gray;stroke-width:6.67;stroke-linecap:round;stroke-linejoin:round;stroke-miterlimit:22.926}.str1{stroke-dasharray:66.661417 66.661417}.fil1{fill:none;fill-rule:nonzero}.fil2{fill:#d42f91}.fil0,.fil3{fill-rule:nonzero}.fil3{fill:#333}.fil0{fill:#d42f91}</style></defs><g id="Layer_x0020_1"><g id="_105553221195872"><path class="fil0" d="M929.56 901.61c.03 1.86-.82 3.09-1.91 2.74-1.09-.35-2-2.15-2.03-4.02l3.94 1.28zm265.05-118.62 1.22 6.84-14.01 2.59-13.8 2.72-13.57 2.85-13.34 2.96-13.08 3.08-12.81 3.18-12.52 3.28-12.22 3.37-11.91 3.45-11.56 3.53-11.22 3.6-10.85 3.66-10.47 3.72-10.07 3.77-9.66 3.81-9.23 3.85-8.78 3.88-8.32 3.9-7.85 3.91-7.35 3.92-6.85 3.91-6.31 3.91-5.78 3.89-5.22 3.86-4.63 3.82-4.04 3.78-3.42 3.71-2.79 3.61-2.13 3.48-1.46 3.28-.8 2.96-.21 2.53-3.94-1.28.35-4.49 1.12-4.2 1.78-4.02 2.4-3.93 3.01-3.91 3.6-3.9 4.19-3.91 4.76-3.93 5.32-3.94 5.85-3.94 6.39-3.96 6.91-3.95 7.41-3.95 7.9-3.94 8.37-3.92 8.83-3.89 9.27-3.87 9.7-3.83 10.1-3.78 10.5-3.73 10.88-3.68 11.25-3.61 11.59-3.54 11.93-3.46 12.25-3.38 12.55-3.29 12.83-3.19 13.11-3.08 13.37-2.97 13.61-2.85 13.83-2.72 14.04-2.59zm0 0c1.03-.18 2.15 1.2 2.48 3.09.33 1.89-.23 3.57-1.26 3.76l-1.22-6.84zm292.98 16.96-3.25 2.56-1.07-2.3-1.77-2.5-2.5-2.57-3.2-2.53-3.87-2.42-4.49-2.3-5.1-2.14-5.67-1.99-6.23-1.81-6.76-1.65-7.28-1.48-7.77-1.3-8.26-1.13-8.72-.95-9.16-.78-9.58-.59-9.99-.42-10.38-.23-10.76-.05-11.11.13-11.45.32-11.77.5-12.07.69-12.36.88-12.63 1.07-12.89 1.26-13.12 1.45-13.33 1.65-13.54 1.84-13.73 2.03-13.89 2.23-14.04 2.42-1.22-6.84 14.07-2.43 13.91-2.23 13.75-2.04 13.56-1.84 13.37-1.65 13.15-1.46 12.91-1.26 12.66-1.07 12.39-.89 12.11-.69 11.8-.5 11.48-.32 11.15-.13 10.79.05 10.43.23 10.03.42 9.63.6 9.21.78 8.77.96 8.32 1.14 7.85 1.32 7.37 1.5 6.87 1.67 6.35 1.85 5.82 2.04 5.28 2.22 4.73 2.41 4.17 2.62 3.61 2.86 3.06 3.15 2.5 3.56 1.88 4.09zm0 0c.61 1.76.38 3.76-.52 4.47-.9.7-2.13-.15-2.74-1.91l3.25-2.56zm-560.92 371.68c-.13 1.54-.94 2.48-1.81 2.09-.86-.38-1.46-1.94-1.33-3.48l3.13 1.39zm228.41-74.91.42 5.74-11.76.93-11.6 1.06-11.43 1.18-11.24 1.3-11.04 1.41-10.82 1.52-10.59 1.63-10.35 1.72-10.09 1.82-9.83 1.91-9.55 2-9.25 2.09-8.94 2.17-8.61 2.24-8.28 2.31-7.93 2.37-7.57 2.44-7.19 2.49-6.8 2.55-6.39 2.59-5.97 2.64-5.54 2.68-5.09 2.7-4.63 2.73-4.15 2.75-3.65 2.76-3.14 2.76-2.6 2.73-2.06 2.69-1.48 2.57-.91 2.37-.39 2.06-3.13-1.39.67-3.67 1.28-3.36 1.81-3.15 2.31-3.03 2.81-2.95 3.3-2.9 3.78-2.87 4.26-2.82 4.71-2.79 5.17-2.74 5.6-2.71 6.03-2.66 6.44-2.62 6.84-2.56 7.22-2.51 7.61-2.45 7.96-2.39 8.31-2.31 8.65-2.25 8.97-2.17 9.27-2.09 9.57-2.01 9.85-1.92 10.12-1.82 10.37-1.73 10.61-1.63 10.85-1.52 11.05-1.41 11.26-1.3 11.45-1.18 11.61-1.06 11.78-.93zm0 0c.87-.06 1.67 1.17 1.78 2.76.11 1.58-.5 2.92-1.36 2.98l-.42-5.74zm239.76 39.11-2.9 1.83-.69-1.98-1.24-2.2-1.84-2.33-2.42-2.36-2.98-2.33-3.5-2.27-4.01-2.2-4.5-2.12-4.97-2.03-5.43-1.94-5.87-1.84-6.29-1.74-6.7-1.64-7.09-1.53-7.47-1.42-7.84-1.31-8.19-1.2-8.53-1.08-8.85-.96-9.16-.84-9.45-.72-9.74-.59-10-.47-10.25-.33-10.49-.2-10.72-.07-10.93.07-11.12.21-11.31.35-11.47.5-11.63.64-11.77.79-.42-5.74 11.79-.79 11.65-.64 11.5-.5 11.33-.35 11.15-.21 10.95-.07 10.74.07 10.51.2 10.28.33 10.02.47 9.76.59 9.48.72 9.19.85 8.88.96 8.56 1.09 8.23 1.2 7.87 1.32 7.52 1.43 7.14 1.55 6.75 1.65 6.35 1.76 5.94 1.86 5.51 1.97 5.07 2.07 4.62 2.17 4.15 2.28 3.69 2.39 3.21 2.52 2.73 2.66 2.25 2.86 1.76 3.14 1.2 3.53zm0 0c.35 1.5-.01 3.13-.81 3.64-.8.5-1.74-.31-2.09-1.81l2.9-1.83z"/><path class="fil1 str0" d="M1381.03 1095.04c-2.89 17.54-14.66 58.42-20.69 77.06-7.22 22.27-7.86 45.75-5.75 69.07 8.77 96.61 12.56 60.05 4.08 117.48-.43 22.89-151.63 173.94-189.23 194.61-39.99 21.98-64.08 18.87-64.08 18.87m-158.92-396.8c-6.62 7.81-14.2 15.2-22.9 21.98-39.23 30.98-59.7 56.57-79.32 89.83-19.61 33.26-76.33 102.35-76.33 197.88 0 64.82.43 121.11 102.78 401.73m117.72-877.13s6.61 43.22-5.52 91.96m74.59 326.29s73.35 72.5 59.7 432.43m-31.21-373.41s-.07-79.57-24.52-134.36c-32.98-73.92-132.59-161.48-198.67-93.83m746.25 564.07c-77.9-233.44-167.43-345.48-252.07-458.49m-249.05 225.05c64.99 11.69 120.77 217.69 175.59 257.33m104.88-841.77c-.09 6.23-.28 12.31-.56 18.26m3.99-70.72c0 6.24-.76 10.37-1.54 14.49m-376.02-559.84c10.65 46.6 22.82 96.3 22.82 96.3m153.64-127.27 22.69 92.01m-278.53 54.37c-11.28 6.65-28.37 16.13-48 34.98m137.37-107.52c.96 26.37-25.31 38.38-61.48 57.25m-46.56 228.42c-20.28 76.06-57.86 89.84-76.62 159.56-13.27 49.31-46.19 128.87-68.78 143.03m277.41-452.85c28.56 2.57 42.26 3.17 76.59 2.2 0 0 49.19-2.6 68.46 7.91M967.09 569.3c8.12 3.07 20.17 6.32 31.26 8.74m-348.51 507.45s42.59-69.72 146.03-42.3 167.67 76.63 243.39 53.72c25.69-8.13 34.19-23.64 65.75-24.35 33.5-.76 64.4 4.82 78.34.51 13.94-4.31 42.59-14.45 52.23-2.03 9.63 12.42-4.82 32.45-24.09 35.62-17.97 2.95-33.07 4.92-45.93 19.15-.93 1.03-1.85 2.12-2.75 3.28M1021.33 411.1c62.87 60.17 50.2 100.4 129.81 155.67m123.32-92.64c-10.71-2.78-48.67-9.79-69.41-39.76m245.91 427.98c-2.58 44.7 10.13 59.38-2.69 86.72m90.59-160.4s-56.89 8.02-77.56 31.42m-224.98-237.06s9.6-21.87 66.27-55.2c5.13-3.02 11.5-6.47 15.35-9.27"/><path class="fil1 str0" d="M1218.74 543.61s.68-22.99-3.04-40.23m-174.09 344.3c-17.24-22.82-113.37-12.48-130.54-95.21m327.44 329.47s-6.58 4.56-16.04 6.43c-.34-2.87-8.62-18.76-14.37-18.43 7.94-1.86 13.07-4.13 18.45-4.18"/><path class="fil1 str0" d="M1182.56 1073.28s-7.43-7.8-15.96-5.8c-6.46 1.52-5.07 7.12-5.07 7.12m-3.81-.15s-12.04-7.63-24.33-1.34m360.52-124.03s-41.58-5.24-54.43 3.55c-12.85 8.79-35.83 13.52-35.83 13.52l-35.5 2.03s-14.87 8.45-26.37 11.83c-11.49 3.38-14.54 11.23-13.86 16.77.68 5.54 5.75 22.66 44.96 11.06 8.11-2.48 27.04-5.86 43.61.56.51 3.38 7.27 13.02 14.2 17.07m-129.27 7.39c1.52 2.42 2.5 3.93 2.5 3.93l40.24 36.5c2.17 1.97 4.87 3.26 7.76 3.73 10.6 1.7 38.16 6.6 57.97 14.37 25.02 9.8 32.62 4.4 32.62 4.4s48.85-47.33 74.7-91.61c5.92-9.97 6.09-14.03 6.09-14.03 4.06-53.41 84.51-141.3 34.48-206.2-34.48-41.92-40.57-98.71-87.89-168.35 0 0-8.11-39.21-37.86-79.78-28.76-39.72-86.48-51.93-119.24-55.17m-10.29 520.29c-4.54-1.17-9.84-.87-15.85 2.19-.76.39-1.12 1.28-.8 2.07l.41.97m135.68 36.47s-20.67-4.31-28.78 6.33c-5.75-1.35-18.93-3.84-30.09-3.78-24-11.94-29.92-15.49-29.92-15.49l-11.8-11.73m116.39 79.15s-7.98 10.29-15.85 9.02c-7.86-1.27-15.46-9.38-30.93-10.27-14.99-.86-37.26-3.74-56.04-16.05-1.31-.86-2.26-2.15-2.75-3.64-1.71-5.31-3.39-15.24-4.34-17.7m-14.13-65.93s-2.62-17.31 15.39-11.76m-1.26-.36s-3.06-17.89 15.46-10.81m6.73 42.16s2.03 6.04 1.91 7.67c2.41 2.77 7.79 10.9 9.47 24.9m3.77-34.49s5.27 12.49 5.78 22.5c7.48 5.7 10.14 7.6 11.15 10.27h4.06m-19.01-27.47s8.87 7.12 11.15 11.08c3.93-2.12 10.9-5.38 16.61-.77m-7.22-2.31s1.62-9.75 12.41-18.28m30.31 48.4s-19.69-19.72-22.33-47.32m-84.62 10.41.67 4.33m-125.46 88.16 6.77 22.31c.13-.13-3.72-17.37-1.43-23.29m-28.52 16.98 5.98 16.93m285.75-194.27s9.3-2.68 17.41-2.68m-98.46-11.82c-22.94 25.06-109.12 87.43-173.64 132.53m165.63-97.95c7.59-9.35 18.98-19.01 19.26-24.77.13-7.07.07-15.37.74-18.91m-63.68 83.87c-27.38 21.68-61.98 45.95-95.84 70.23m-69.19 51.62c8.22-6.58 16.97-13.31 26.06-20.13m104.65-106.82c-59.82 15.64-233.57 51.38-324.96-31.75 5.07 25.28 7.61 34.41 7.61 34.41s67.56 62.93 272.93 29.67m-281.37-79.77s.77 5.84 3.32 17.91m-39.85-96.6c103.44 62.2 150.77-101.75 150.77-101.75s-7.84-31.28-57.13-136.57c-53.41-114.09-96.06-121-107.67-114.09l31.27-17.58c56.68 1.69 144.13 188.85 281.06 210.53 24.83 3.93 50.42-.7 71.77-13.98 35.08-21.83 70.51-72.03 10.05-184.56 0 0-26.13-41.98-47.86-45.66M942.81 879.4s-44.06-26.63-65.64-61.46m60.67 58.62s-1.86 3.89 5.75 15.89m477.95-199.78c34.82 68.62 42.63 96 39.25 137.92-3.89 48.21-69.68 100.28-74.62 102.44"/><path class="fil1 str1" d="M1020.57 905.78c25.59 39 25.59 74.66 30.5 106"/><path class="fil1 str0" d="M974.36 955.27c-15.58-11.99-34.54-60.56-30.78-62.8 0 0 102.87 64.05 150.17-100.12l-5.15-17.52M923.8 524.18s-3.93 1.83-3.64 7.16m472.08 52.67s16.52 28.15 15.5 68.71c-.13 5.05-.13 5.05-.07 6.82m13.85 33.15s-87.13-215.67-118.39-217.33c0 0-25.74-1.34-35.9-3.07"/><path class="fil1 str1" d="M970.71 1175.34c-16.66 15.71-34.73 34.39-53.15 59.09m136.15-198.89c.96 25.17-2.78 44.1-10.11 60.01"/><path class="fil1 str0" d="M1325.66 1056.51c-2.2 166.22-102.87 507.57-220.3 515.63m180.39-858.74c41.91 83.52 61.93 160.69 52.3 208.82-1.78 8.88-7.11 31.83-10.21 40.34-1.27 3.47-2.19 8.43-2.19 17.41m-257.24-43.02s53.71 59.12 186.48 45.43m76.23 4.13c-.94 1.27-1.55 10.18 3.35 15.47 15.17-3.42 21.24-7.73 21.24-7.73s2.48-16-5.69-17.2"/><path class="fil2" transform="matrix(.869 -.15523 .15523 .869 1054.72 916.213)" d="M0 0h368.49v57.72H0z"/><path class="fil3" d="m1160.04 924.67 2.3-.41c.28 2.12-.15 3.93-1.27 5.43-1.11 1.49-2.73 2.43-4.85 2.81-2.43.43-4.48-.04-6.18-1.46-1.68-1.44-2.79-3.61-3.31-6.55-.49-2.73-.15-5 1.02-6.85 1.16-1.87 3-3.02 5.45-3.46 1.96-.35 3.66-.13 5.09.66 1.44.79 2.41 2.04 2.92 3.76l-2.32.41c-.42-1.09-1.11-1.89-2.04-2.37-.93-.46-2.05-.58-3.37-.34-1.76.31-3 1.18-3.77 2.59-.74 1.4-.91 3.23-.52 5.47.38 2.12 1.19 3.72 2.43 4.84 1.24 1.1 2.68 1.49 4.35 1.19 1.43-.26 2.5-.9 3.26-1.95.74-1.03 1.01-2.3.82-3.76z"/><path id="_1" class="fil3" d="m1165.79 915.03 2.64 14.79-2.17.39-3.1-17.35 3.38-.6 6.67 12.5c.19.37.34.64.42.82.11.2.19.39.25.53.02-.3.02-.57.05-.8.03-.26.05-.46.08-.69l2.09-14.07 3.37-.6 3.1 17.35-2.29.41-2.64-14.79c0 .28-.03.53-.06.8-.03.26-.05.54-.08.79l-2.09 14.07-2.22.4-6.74-12.49c-.11-.2-.22-.43-.34-.66-.09-.26-.22-.51-.31-.79z"/><path id="_2" class="fil3" d="m1206.81 922.96-3.09-17.35 2.36-.42 3.1 17.35z"/><path id="_3" class="fil3" d="m1212.94 921.87-3.1-17.35 2.58-.46 10.35 11.15c.25.25.43.47.62.69.17.24.33.44.44.64l-2.51-14.06 2.24-.4 3.1 17.35-2.56.46-10.56-11.31c-.15-.17-.31-.34-.47-.54-.13-.2-.27-.4-.41-.62l2.51 14.06-2.24.4z"/><path id="_4" class="fil3" d="m1241.34 910.15 2.3-.41c.28 2.12-.15 3.93-1.27 5.43-1.1 1.49-2.73 2.43-4.85 2.81-2.43.43-4.48-.04-6.18-1.46-1.68-1.44-2.79-3.61-3.31-6.55-.49-2.73-.15-5.01 1.02-6.86 1.16-1.87 3-3.02 5.45-3.46 1.96-.35 3.66-.13 5.09.66 1.44.79 2.41 2.03 2.92 3.76l-2.32.41c-.42-1.09-1.11-1.89-2.04-2.37-.93-.46-2.05-.58-3.37-.34-1.76.31-3 1.18-3.77 2.59-.74 1.4-.91 3.23-.52 5.47.38 2.12 1.19 3.72 2.43 4.84 1.24 1.1 2.68 1.49 4.35 1.19 1.43-.26 2.5-.89 3.26-1.95.73-1.03 1.01-2.3.82-3.76z"/><path id="_5" class="fil3" d="m1247.56 915.68-3.1-17.35 2.36-.42 1.27 7.12 9-1.6-1.27-7.12 2.37-.43 3.09 17.35-2.36.42-1.46-8.13-9 1.61 1.46 8.13z"/><path id="_6" class="fil3" d="m1265 912.57-3.09-17.35 12.37-2.21.39 2.14-10.04 1.8.93 5.19 9.26-1.66.37 2.03-9.27 1.66 1.04 5.81 10.23-1.83.38 2.17z"/><path id="_7" class="fil3" d="m1278.61 904.24 2.26-.41c.25 1.25.84 2.19 1.8 2.79.95.6 2.11.77 3.45.53 1.35-.24 2.36-.72 3.04-1.41.67-.72.92-1.53.75-2.52-.24-1.33-1.87-2.08-4.91-2.24-.18-.02-.3-.02-.4-.03-2.46-.14-4.14-.48-5.02-1.05-.87-.54-1.43-1.44-1.66-2.72-.28-1.55.06-2.9 1.03-4.02.96-1.14 2.37-1.89 4.26-2.23 1.93-.34 3.52-.1 4.8.67 1.26.79 2.06 2.05 2.39 3.78l-2.24.4c-.28-1.15-.85-1.96-1.66-2.46-.83-.48-1.85-.62-3.08-.4-1.16.2-2.04.61-2.64 1.24-.61.63-.83 1.37-.68 2.21.24 1.35 1.84 2.09 4.83 2.25.43.02.78.04 1 .04l.28.03c1.93.1 3.28.36 3.97.78.53.31.98.72 1.31 1.24.34.51.57 1.11.7 1.81.3 1.67-.06 3.12-1.07 4.32-1.03 1.2-2.56 1.98-4.61 2.34-2.09.37-3.83.14-5.2-.72-1.35-.85-2.24-2.26-2.7-4.24z"/><path id="_8" class="fil3" d="m1191.41 928.03 2.24-21.09 1.49-.27-2.28 21.1z"/><path class="fil0" d="M1042.24 941.27c1.06-.05 2.13 1.45 2.39 3.35.26 1.9-.38 3.48-1.44 3.52l-.95-6.87zm-116.28-37.28 3.75-.67.41 2.06.48 2 .57 1.95.67 1.91.78 1.87.89 1.84 1.04 1.82 1.19 1.8 1.37 1.78 1.55 1.76 1.75 1.72 1.96 1.69 2.19 1.63 2.42 1.58 2.67 1.52 2.92 1.45 3.19 1.37 3.46 1.29 3.75 1.21 4.04 1.11 4.35 1.02 4.66.91 4.99.81 5.32.7 5.67.58 6.02.46 6.39.35 6.77.22 7.16.09 7.56-.05 7.97-.18 8.39-.33.95 6.87-8.42.33-8.01.18-7.59.05-7.2-.09-6.82-.22-6.44-.35-6.08-.47-5.73-.59-5.39-.71-5.06-.82-4.74-.93-4.44-1.04-4.14-1.14-3.86-1.24-3.59-1.34-3.33-1.43-3.08-1.53-2.85-1.62-2.62-1.71-2.41-1.8-2.2-1.9-2.01-1.98-1.83-2.07-1.66-2.17-1.49-2.25-1.33-2.33-1.17-2.4-1.02-2.46-.87-2.5-.74-2.53-.61-2.54-.51-2.54zm0 0c-.33-1.89.23-3.57 1.26-3.76 1.03-.18 2.15 1.2 2.48 3.09l-3.75.67zm-.33-3.65 3.94 1.28.01.23.01.23.02.26.02.23.02.19.02.21.01.07.01.08.02.09.02.09-3.75.67-.04-.24-.04-.24-.04-.25-.04-.26-.06-.45-.04-.48-.03-.44-.02-.41-.02-.44-.01-.44zm0 0c-.03-1.86.82-3.09 1.91-2.74 1.09.35 2 2.16 2.03 4.02l-3.94-1.28zm558.71-97.83c-.61-1.76-.38-3.77.52-4.47.9-.7 2.13.16 2.74 1.92l-3.26 2.55zm4.21.98-3.75.67v.03l-.03-.17-.04-.18-.06-.22-.06-.22-.06-.2-.07-.22-.07-.23-.08-.24 3.26-2.55.14.4.13.42.13.41.12.44.12.44.1.43.11.48.09.49v.03zm0-.03c.34 1.89-.21 3.58-1.24 3.78-1.03.2-2.15-1.17-2.5-3.06l3.74-.72zm-96.11 84.41-1.49-6.78 7.98-2.6 7.54-2.61 7.12-2.61 6.7-2.6 6.31-2.61 5.91-2.6 5.53-2.59 5.16-2.59 4.8-2.58 4.45-2.58 4.11-2.57 3.79-2.56 3.47-2.55 3.17-2.54 2.87-2.52 2.58-2.5 2.31-2.48 2.05-2.46 1.79-2.43 1.56-2.41 1.32-2.37 1.11-2.33.91-2.29.72-2.24.55-2.2.38-2.15.24-2.11.11-2.08-.01-2.06-.12-2.04-.23-2.05-.32-2.04 3.75-.67.41 2.59.29 2.64.16 2.68.01 2.7-.14 2.7-.31 2.72-.48 2.71-.67 2.69-.86 2.68-1.06 2.67-1.26 2.65-1.47 2.63-1.7 2.63-1.93 2.62-2.17 2.61-2.43 2.61-2.69 2.61-2.96 2.61-3.26 2.61-3.56 2.61-3.87 2.61-4.19 2.61-4.52 2.62-4.86 2.61-5.22 2.62-5.59 2.62-5.96 2.62-6.35 2.62-6.74 2.62-7.16 2.62-7.58 2.61-8.01 2.62zm0 0c-1 .32-2.16-.94-2.57-2.81-.41-1.87.07-3.65 1.08-3.97l1.49 6.78z"/><path class="fil0" d="m1039.89 961.05-4.17-29.43 23.77 11.31-19.61 18.11zm364.3-66.14-6.28-29.05-18.39 18.84 24.67 10.21zm-388.15 319.04c.87.05 1.63 1.38 1.68 2.96.05 1.58-.61 2.83-1.49 2.78l-.19-5.74zm-92.54-40.7 3.14-.19v-.02l.16 1.72.23 1.69.3 1.66.39 1.63.47 1.61.58 1.59.7 1.59.83 1.58.97 1.58 1.13 1.58 1.3 1.57 1.47 1.56 1.66 1.53 1.86 1.51 2.07 1.48 2.28 1.44 2.51 1.41 2.74 1.36 2.98 1.31 3.23 1.26 3.49 1.2 3.76 1.16 4.04 1.09 4.33 1.03 4.61.97 4.92.9 5.24.83 5.56.76 5.89.69 6.23.61 6.57.54 6.94.45.19 5.74-6.96-.45-6.6-.54-6.26-.61-5.92-.69-5.59-.77-5.28-.84-4.96-.91-4.67-.98-4.37-1.05-4.1-1.11-3.82-1.17-3.56-1.24-3.31-1.3-3.07-1.35-2.84-1.41-2.62-1.47-2.41-1.52-2.2-1.58-2.01-1.63-1.83-1.69-1.66-1.75-1.48-1.8-1.33-1.87-1.18-1.93-1.03-1.98-.89-2.04-.76-2.08-.63-2.11-.5-2.13-.39-2.14-.29-2.14-.2-2.15v-.02zm0 .02c-.11-1.58.5-2.92 1.36-2.98.87-.06 1.67 1.17 1.78 2.76l-3.14.23zm.04-3.03 3.13 1.38-.02.21-.02.2v.17l-.01.17v.54l.01.14-3.14.19-.02-.42-.01-.39v-.74l.01-.38.02-.39.02-.35.02-.35zm0 0c.13-1.54.94-2.48 1.8-2.1.86.38 1.46 1.94 1.33 3.48l-3.13-1.38zm468.41-32.6c-.35-1.5.02-3.13.81-3.63.8-.5 1.74.31 2.09 1.82l-2.91 1.81zm3.38 1.18-3.14.23v.01l-.01-.15-.02-.13-.02-.17-.03-.2-.03-.17-.04-.2-.04-.2-.05-.2 2.91-1.81.08.35.07.34.07.35.07.37.06.35.06.39.05.43.04.41v.01zm0-.01c.11 1.58-.49 2.93-1.36 2.99-.87.07-1.67-1.17-1.78-2.75l3.14-.24zm-86.37 61.23-.65-5.71 6.8-1.46 6.43-1.5 6.09-1.54 5.74-1.57 5.41-1.6 5.09-1.64 4.78-1.66 4.47-1.69 4.18-1.71 3.88-1.74 3.61-1.77 3.34-1.78 3.07-1.8 2.83-1.82 2.57-1.83 2.34-1.84 2.11-1.84 1.9-1.85 1.69-1.85 1.48-1.85 1.3-1.83 1.11-1.83.94-1.8.78-1.78.64-1.76.5-1.74.38-1.72.27-1.69.17-1.69.07-1.7-.01-1.7-.09-1.71 3.14-.23.11 2.17.01 2.19-.1 2.21-.21 2.23-.35 2.23-.48 2.2-.63 2.19-.78 2.17-.94 2.13-1.1 2.1-1.26 2.07-1.44 2.04-1.63 2.02-1.81 1.99-2.02 1.97-2.22 1.94-2.44 1.91-2.67 1.9-2.91 1.87-3.15 1.85-3.4 1.82-3.67 1.79-3.94 1.77-4.22 1.74-4.52 1.71-4.82 1.68-5.13 1.65-5.45 1.61-5.78 1.57-6.12 1.54-6.46 1.5-6.82 1.47zm0 0c-.85.17-1.7-.96-1.87-2.54-.18-1.57.37-3 1.23-3.17l.65 5.71z"/><path class="fil0" d="m1012.41 1230.04-.91-24.59 18.6 11.35-17.7 13.23zm305.63-23.19-2.68-24.46-16.76 13.94 19.43 10.52zm-9.71-5.25"/><path class="fil1 str0" d="M1165.55 1125.81c1.53 1.53 22.35 21.54 25.13 27.11m-6.39-8.04s4.95-2.24 10.81-2.89c2.91-.32 6.03-.26 8.89.67m-8.89-.67s9.65-20.88 37.03-12.89m1.8-36.2s9.99 38.92 11.13 49.09c-1.52 3.46-26.76 43.14-31.44 46.94-4.68 3.8-22.94 11.92-22.94 11.92s-2.38 7.35-6.39 8.87c-4.01 1.52-16.18 2.79-22.01 3.55-4.81 3.04-17.05 10.07-27.17 9.42-71.9-4.65-73.98-33.25-120.89-43.93-120.02-18.4-347.84 43.47-401.59-4.1-4.61-4.65-5.07 11.23 0-33.91s18.25-158.35 50.7-222.25c4.96-10.27 70.98-139 78-184.67 8.07-52.55 24.93-85.69 24.93-85.69 40.06-79.61 134.12-100.14 164.29-93.38"/><path class="fil2" transform="rotate(-4.176 16892.32 -13505.888) scale(.73075)" d="M0 0h368.49v57.72H0z"/><path class="fil3" d="m1114.46 1210.4 1.92-.14c.05 1.76-.46 3.23-1.51 4.36-1.04 1.13-2.46 1.77-4.23 1.9-2.05.15-3.7-.42-4.97-1.74-1.26-1.33-1.98-3.21-2.16-5.68-.17-2.29.31-4.13 1.43-5.56 1.11-1.44 2.72-2.23 4.79-2.38 1.64-.12 3.03.2 4.14.98 1.11.77 1.8 1.88 2.07 3.35l-1.94.14c-.26-.94-.76-1.65-1.48-2.13-.72-.46-1.63-.65-2.74-.57-1.48.11-2.57.72-3.33 1.81-.74 1.09-1.04 2.58-.9 4.46.13 1.78.66 3.17 1.59 4.2.93 1.01 2.08 1.46 3.47 1.35 1.19-.09 2.14-.52 2.85-1.33.69-.78 1.03-1.8 1-3.02z"/><path id="_1_0" class="fil3" d="m1120.02 1202.95.91 12.41-1.82.13-1.06-14.55 2.83-.2 4.41 10.86c.13.32.22.56.28.72.07.18.13.33.15.45.04-.25.07-.47.11-.66.05-.2.08-.37.12-.56l2.93-11.4 2.83-.2 1.06 14.55-1.92.14-.91-12.4c-.02.22-.07.43-.12.66-.04.21-.09.43-.13.64l-2.93 11.4-1.86.14-4.47-10.86c-.07-.18-.15-.37-.22-.57-.06-.22-.13-.44-.19-.68z"/><path id="_2_1" class="fil3" d="m1153.11 1213.01-1.06-14.55 1.98-.15 1.06 14.55z"/><path id="_3_2" class="fil3" d="m1158.25 1212.63-1.06-14.55 2.17-.16 7.57 10.07c.18.23.32.42.45.62.12.21.23.39.3.57l-.86-11.8 1.88-.14 1.06 14.55-2.15.16-7.72-10.22c-.11-.15-.23-.31-.34-.48-.09-.18-.19-.35-.28-.55l.86 11.8-1.88.13z"/><path id="_4_3" class="fil3" d="m1182.64 1205.42 1.92-.14c.05 1.76-.46 3.22-1.51 4.36-1.04 1.13-2.46 1.76-4.24 1.89-2.04.15-3.69-.42-4.97-1.73-1.26-1.33-1.98-3.21-2.16-5.68-.17-2.28.31-4.13 1.43-5.56 1.11-1.44 2.72-2.23 4.79-2.38 1.64-.12 3.03.2 4.14.98 1.11.77 1.8 1.88 2.07 3.35l-1.94.14c-.25-.94-.75-1.65-1.48-2.13-.72-.46-1.63-.65-2.74-.57-1.48.11-2.57.72-3.33 1.81-.74 1.09-1.04 2.58-.9 4.46.13 1.78.66 3.17 1.59 4.2.93 1.01 2.08 1.45 3.48 1.35 1.19-.09 2.14-.52 2.85-1.33.69-.78 1.02-1.8 1-3.02z"/><path id="_5_4" class="fil3" d="m1187.28 1210.51-1.06-14.55 1.98-.14.44 5.97 7.55-.55-.44-5.97 1.98-.15 1.06 14.55-1.98.14-.5-6.81-7.55.55.5 6.82z"/><path id="_6_5" class="fil3" d="m1201.91 1209.44-1.06-14.55 10.38-.75.13 1.8-8.42.62.32 4.35 7.77-.57.12 1.7-7.76.56.35 4.88 8.57-.63.14 1.82z"/><path id="_7_6" class="fil3" d="m1213.83 1203.75 1.9-.14c.09 1.05.5 1.87 1.24 2.45.73.58 1.67.81 2.8.73 1.13-.08 2.01-.39 2.62-.9.61-.54.89-1.19.83-2.02-.08-1.11-1.36-1.87-3.85-2.26-.14-.03-.25-.04-.33-.06-2.02-.32-3.37-.75-4.04-1.3-.67-.52-1.05-1.3-1.13-2.37-.09-1.3.3-2.38 1.19-3.22.89-.86 2.12-1.36 3.7-1.47 1.62-.12 2.9.22 3.89.96.97.76 1.52 1.86 1.65 3.32l-1.88.13c-.13-.96-.53-1.69-1.16-2.17-.64-.46-1.47-.67-2.5-.59-.98.07-1.73.33-2.28.8-.56.47-.8 1.06-.75 1.76.08 1.13 1.34 1.88 3.79 2.27.35.06.63.09.82.12l.23.04c1.58.25 2.67.58 3.2.99.41.3.74.68.98 1.13.24.45.37.97.42 1.56.1 1.4-.32 2.56-1.25 3.47-.95.9-2.28 1.41-4 1.53-1.76.13-3.17-.21-4.22-1.04-1.04-.82-1.66-2.06-1.86-3.73z"/><path id="_8_7" class="fil3" d="m1140 1215.85 3.65-17.16 1.25-.1-3.69 17.18z"/></g></g></svg>