<svg xmlns="http://www.w3.org/2000/svg" xml:space="preserve" style="shape-rendering:geometricPrecision;text-rendering:geometricPrecision;image-rendering:optimizeQuality;fill-rule:evenodd;clip-rule:evenodd" viewBox="300 360 1730 1730"><defs><style>.fil2{fill:#0ff}.fil0,.fil3{fill:#0ff;fill-rule:nonzero}.fil3{fill:#333}</style></defs><g id="Layer_x0020_1"><g id="_105553221343200"><path class="fil0" d="M1154.27 994.27c-.15 1.14-.68 1.79-1.18 1.46-.5-.33-.79-1.53-.65-2.67l1.83 1.2zm140.78-43.34v4.29l-7.12.05-7.03.16-6.93.26-6.82.35-6.7.45-6.58.54-6.45.63-6.31.72-6.15.8-6 .89-5.83.97-5.66 1.05-5.48 1.13-5.29 1.2-5.08 1.28-4.88 1.33-4.66 1.4-4.43 1.47-4.2 1.53-3.96 1.58-3.71 1.64-3.45 1.69-3.18 1.73-2.9 1.79-2.62 1.82-2.32 1.85-2.01 1.89-1.69 1.89-1.35 1.88-1.01 1.84-.65 1.71-.32 1.51-1.83-1.2.57-2.69.92-2.43 1.23-2.25 1.52-2.13 1.82-2.04 2.12-1.98 2.4-1.93 2.69-1.87 2.96-1.82 3.23-1.76 3.49-1.71 3.75-1.65 3.99-1.6 4.23-1.54 4.46-1.48 4.69-1.41 4.89-1.34 5.11-1.28 5.3-1.2 5.49-1.13 5.67-1.06 5.85-.97 6.02-.89 6.17-.81 6.32-.72 6.46-.63 6.59-.54 6.72-.45 6.83-.35 6.94-.26 7.04-.16 7.13-.05zm0 0c.52 0 .95.96.95 2.15 0 1.18-.43 2.15-.95 2.15v-4.29zm142.61 42.14-1.83 1.2-.32-1.51-.65-1.71-1.01-1.84-1.35-1.88-1.69-1.89-2.01-1.89-2.32-1.85-2.62-1.82-2.9-1.79-3.18-1.73-3.45-1.69-3.71-1.64-3.96-1.58-4.2-1.53-4.43-1.47-4.66-1.4-4.88-1.33-5.08-1.28-5.29-1.2-5.48-1.13-5.66-1.05-5.83-.97-6-.89-6.15-.8-6.31-.72-6.45-.63-6.58-.54-6.7-.45-6.82-.35-6.93-.26-7.03-.16-7.12-.05v-4.29l7.13.05 7.04.16 6.94.26 6.83.35 6.72.45 6.59.54 6.46.63 6.32.72 6.17.81 6.02.89 5.85.97 5.67 1.06 5.49 1.13 5.3 1.2 5.11 1.28 4.89 1.34 4.69 1.41 4.46 1.48 4.23 1.54 3.99 1.6 3.75 1.65 3.49 1.71 3.23 1.76 2.96 1.82 2.69 1.87 2.4 1.93 2.12 1.98 1.82 2.04 1.52 2.13 1.23 2.25.92 2.43.57 2.69zm0 0c.15 1.14-.14 2.33-.65 2.67-.5.33-1.04-.32-1.18-1.46l1.83-1.2zM898.53 740.14c-.26 1.65-1.22 2.61-2.12 2.13-.91-.48-1.43-2.22-1.16-3.87l3.28 1.75zm253.31-63.07v6.25l-12.81.07-12.64.22-12.47.37-12.28.52-12.06.65-11.84.79-11.6.92-11.34 1.05-11.08 1.17-10.8 1.3-10.49 1.41-10.19 1.53-9.85 1.64-9.5 1.74-9.15 1.85-8.78 1.95-8.39 2.04-7.98 2.13-7.56 2.22-7.13 2.3-6.67 2.38-6.21 2.46-5.72 2.53-5.22 2.59-4.71 2.65-4.17 2.7-3.62 2.74-3.04 2.76-2.44 2.74-1.81 2.67-1.17 2.49-.59 2.2-3.28-1.75 1.02-3.92 1.66-3.54 2.21-3.28 2.74-3.1 3.28-2.98 3.81-2.88 4.32-2.8 4.83-2.72 5.33-2.65 5.81-2.57 6.28-2.49 6.74-2.41 7.18-2.33 7.61-2.23 8.03-2.15 8.43-2.05 8.81-1.96 9.19-1.85 9.54-1.75 9.89-1.65 10.21-1.53 10.52-1.42 10.82-1.3 11.11-1.17 11.37-1.06 11.63-.92 11.86-.79 12.09-.65 12.29-.52 12.49-.37 12.67-.23 12.83-.07zm0 0c.94 0 1.71 1.4 1.71 3.13 0 1.72-.77 3.13-1.71 3.13v-6.25zm256.59 61.33-3.28 1.75-.59-2.2-1.17-2.49-1.8-2.67-2.44-2.74-3.04-2.76-3.61-2.74-4.17-2.7-4.71-2.65-5.22-2.59-5.72-2.53-6.21-2.46-6.67-2.38-7.13-2.3-7.56-2.22-7.98-2.13-8.39-2.04-8.77-1.95-9.15-1.85-9.5-1.74-9.85-1.64-10.19-1.53-10.49-1.41-10.8-1.3-11.08-1.17-11.34-1.05-11.6-.92-11.84-.79-12.06-.65-12.28-.52-12.47-.37-12.64-.22-12.81-.07v-6.25l12.83.07 12.67.23 12.49.37 12.29.52 12.09.65 11.86.79 11.63.92 11.37 1.06 11.11 1.17 10.82 1.3 10.52 1.42 10.21 1.53 9.89 1.65 9.54 1.75 9.19 1.85 8.81 1.96 8.43 2.05 8.03 2.15 7.61 2.23 7.18 2.33 6.74 2.41 6.28 2.49 5.81 2.57 5.33 2.65 4.83 2.72 4.32 2.8 3.8 2.88 3.28 2.98 2.75 3.1 2.21 3.28 1.65 3.54 1.02 3.92zm0 0c.26 1.65-.26 3.39-1.16 3.87-.91.48-1.86-.47-2.12-2.13l3.28-1.75zm-403.78 72.66 1.26-34.94 25.19 18.02-26.45 16.92zm13.23-8.45"/><path d="M981 738.79c71.52 23.54 115.98 65.41 135.82 105.81 17.92 36.5 40.74 52.03 61.88 51.96 20.78-.07 33.33-11.88 73.37-49.32 40.49-37.86 65.15-55.5 86.04-68.41m-25.91 1096.8-3.36-10.38m20.3 50.87 5.57 10.68m-64.97 45.94-4.17-11.14m34.33-107.2s-16.7-17.17-38.51 22.87m-11.61 14.96s6.96 12.76 9.74 35.5m87.03 100.35s-15.01-9.5-21.36-13.61m73.84 6.03s-7.08-.13-13.46 6.95c-2.44-.58-8.35-1.39-9.75-6.37 1.39-3.02 6.85-6.84 13.11-5.69m-491.61 20 11.14-16.13m329.94-186.43c-1.16 9.04-1.24 11.98-7.77 22.63-1.65 2.7-2.11 5.95-1.76 9.09 1.72 15.33 9.54 12.72 7.91 27.67m-7.05-22.85c5.34 20.42-14.32 54.49-17.96 67.16-1.03 3.57.04 7.44 1.41 10.9 2.43 6.12 6.32 12.62 12.48 15.26 8.12 3.49 31.05 5.42 31.05 5.42m-10.87-5.57c12.99 7.66 23.9 10.21 23.9 10.21s11.37 30.17 22.74 39.22c10.84 4.02 30.68 8.39 39.73 7m14.62 5.7s-2.15 9.16 5.63 14.27c7.77 1.63 21.58 3.37 32.37 2.79 6.73-1.97 17.23-7.08 16.19-15.66-.23-2.66-1.97-5.56-1.97-5.56s-10.67-6.74-34.34-12.31c-.93-1.85-1.97-6.84-11.37-9.27m47.76 29.7s6.42 1.97 11.64-4.53c.7-4.53-1.74-8.93-8.24-11.61-1.65-2.07-3.65-4.18-5.17-5.7a12.33 12.33 0 0 0-5.33-3.15l-19.43-5.53-5.92-4.87m43.88 27.02s9.95.02 10.19-6.25c.12-3.13-.21-7.55-5.09-9.05-.96-1.15-3.22-3.26-5.09-4.95-1.8-1.63-3.95-2.8-6.29-3.46l-18.33-5.04-7.19-4.29m42.02 24.48s7.29-1.63 7.29-6.62c0-4.98-4.87-6.14-4.87-6.14s-.58-6.5-12.3-10.21l-15.2-4.18-4.41-3.59m-354.48 67.74s-5.11-2.13-10.22-7.49m-104.4-138.86s2.56-6.3 5.14-12.72c6.06-15.05 25.83-19.2 36.94-7.38 2.75 2.93 5.11 6.84 6.78 12.04m-44.66 166.81s-.83-6.57-5.37-8.25m.65 23.27s-7.74 2.44-12.15-1.28c-4.41-3.71-5.1-11.56-5.1-11.56l.93-3.98m.5 9.91s-8.62.17-10.48-8.11c-1.85-8.3 0-25.7 0-25.7s8.82-13.69 12.76-38.98c3.94-25.3 3.02-43.39 3.02-43.39s-7.19-13-6.96-19.03c.23-6.03.7-10.9 5.57-19.03 4.87-8.11 6.9-50.33 3.68-83.76m80.8 131.48s-7.68-30.56-8.15-36.82m-74.94 27.16 2.32-8.36m12.67-1214.09s-95.81 160.57-11.16 481.09c0 0 .87 24.98 20.76 34.78m449.74 719.29 17.4 8.8s25.58 3.31 25.76 16.54c0 6.09-2.78 9.4-2.78 9.4m-43.32-1244.45s76 202.42 9.83 504.83c4.61 12.69 12.69 56.89-3.46 91.87 10.26 233.01-73.24 344.35-78.51 517.08-.06 1.93-.11 3.87-.15 5.83 0 0 4.99 16.59 16.94 40.49 66.01 45.14 75.7 58.42 75.7 58.42m-412.08-796.7s-4.61 51.31-25.37 65.15m16.04-23.68s4.14 25.41 21.43 55.97m134.81-396.85s10.19 58.43-53.81 237.15c-.57 29.4-1.44 154.22-29.79 202.17-2.31 20.76-14.61 50.74-29.98 73.03 25.23 200.97-53.4 216.46-39.2 460.46 0 0-9.22-152.97-4.61-257.52m103.59-478.15s-19.8 51.89-29.79 93.78m-147.79 115.5s4.53 71.49 37.72 77.83m38.96 137.22c10.38-110.31 41.13-149.13 41.13-149.13s-10.96 11.15-37.48 11.91m67.46-84.94s-17.68 10.38-32.29-9.99m370.53-46.89s-15.57-32-17.99-45.39m4.73-34.75s-10.38 137.56-69.19 133.35m78.99 38.65s-9.22 17.68-21.52 23.06m-117.27-528.55c-28.85 94.83 20.03 173.78 22.33 272.18 2.73 116.66-17.68 146.06 0 169.11m-71.99-186.9s46.62 79.09 64.78 165m-11.17 142.97s9.75-18.09 11.77-36.83m-352.4 458.42c-18.89-159.64-107.12-286.56-7.1-506.34-4.61-76.11 11.06-100.95 11.06-100.95m321.24 591.22s22.47-207.58 26.59-256.01m-2.6-210.05s11.53 68.61 6.34 135.49m-32.52 348.27c29.03-211.37-65.64-284.28 17.61-423.22-44.13-89.22-24.95-155.3-28.35-210.12-2.9-46.67-12.62-70.93-31.98-113.48-14.91-32.77-48.6-76.72-38.85-194.87M954.86 393.11c16.27 14.81-1.05 120.31-1.76 142.49m427.96-118.03c-13.39 43.13-4.59 97.51-4.51 141.54m-175.09-6.54c.34 36.8-27.61 32.31-.29 73.46m9.97-40.32c3.94 15.87-9.83 25.57-12.23 36.52M953.1 535.6c-1.77 42.42 71.39 31.17 86.93 155.94m-80.98-136.59c3.37 51.93-36.43 71.09-30.95 175.61m448.45-171.44c1.02 57.52-55.05 88.33-60.13 158.8m49.02-111.7c-5.47 55.41 26.58 66.46 19.05 149.8m-305.78-335.99s24.13 11.21 46.85 15.02c26.79 4.49 51.29-.54 81.67.96 29.94 1.47 39.6 9.17 65.68 9.42 26.07.25 43.6-13.72 43.6-13.72m-223.46 70.15s20.96 9.74 40.7 13.05c23.28 3.9 44.57-.46 70.96.83 26.02 1.28 34.41 7.96 57.06 8.18 22.65.22 37.89-11.93 37.89-11.93M986.91 1851.23c3.83 51.78 11.99 57.2 12.99 70.46 0 12.53-6.82 32.98-3.69 40.99 0 0 4 11.84 5.74 25.76m16.63 32.2c.35-1.04-4.7-19.05-16.63-32.2 0 0-6.26-6.52-8.43-10.34m18.44 40.97s16.19 4.35 20.71 10.96c4.52 6.61 2.96 13.06 6.09 18.62 0 0 10.27 8.17 11.66 13.41 1.39 5.22.18 17.06-7.31 18.09-7.48 1.05-29.41 8.71-34.98-3.31-5.57-12.01 2.44-25.54 2.44-25.54m-4.21 19.28s-5.71-3.65-10.76.88m-6.96-30.29s-4.7 9.93 0 20.19c4.7 10.28 11.48 10.04 4 22.16-3.3.99-14.44 3.54-21.75 0-1.91-2.49-6.61-7.02-2.09-16.59-.24-.66-.5-1.27-.74-1.8-.96-2.1-.91-4.54.07-6.64.79-1.68 1.33-3.51.49-4.26-1.74-1.57-3.79-6.26-3.55-9.06m4.3 36.4s-14.33 5.18-21.64-1.43c-.22-.36-.41-.72-.59-1.04a7.53 7.53 0 0 1-.31-6.64l2.83-6.59-1.66-5.04c-.91-2.79-.51-5.81 1-8.32.94-1.55 1.53-3.37.48-4.73m19.52 8.16s2.24-3.82 1.89-6.25m-23.15 30.45s-19.55 5.81-23.49-2.32c0 0-3.94-8.5 2.09-14.58 3.02-2.35 3.48-5.51 3.25-7.3.93-1.78 3.48-4.65 3.48-4.65m84.46 13.19s14.73-8.48 27.96-2.67c-2.32-3.26-6.38-8.94-19.26-6.73-12.88 2.21-8.7 9.4-8.7 9.4zm391.4-48.69s-.99 3.05-10.7 4.87c-.92-2.24-2.74-4.23 1.2-5.52 3.94-1.27 8.2-.69 9.5.65zm9.63-8.44s-1 3.07-10.71 4.87c-.91-2.24-2.73-4.23 1.2-5.52 3.94-1.27 8.21-.69 9.51.64zm7.94-6.95s-.17 2.51-7.16 5.73c-1.12-1.52-2.87-2.68-.15-4.4 2.73-1.7 6.07-2.08 7.31-1.33zm3.57-9.05s0 1.89-7.66 2.71c-.57-1.8-2.83-3.02.31-3.78 3.14-.75 6.42-.05 7.35 1.07zm-454.77 82.54s10.21-1.61 13.69 0c-.46-2.08-1.62-3.88-9.51-3.57-3.71.78-5.11 1.49-4.18 3.57zm-22.9.14s9.02-1.63 11.3 0c.33-1.78.16-3.37-4.06-3.59-1.67-.08-3.36.13-4.92.72-1.61.61-2.32 1.38-2.32 2.87zm-23.06-2.68s9.58-.28 11.2 1.54c1.03-1.63 1.48-3.12-2.62-3.89-1.61-.3-3.37-.34-5.15 0-1.84.35-2.85.97-3.43 2.35zm-16.84-.37s2.01-1.16 4.21-2.27c1.87-.94 3.88-1.85 4.93-1.98-.12-1.85-2.21-2.35-5.28-1.24-.78.28-1.29.57-1.83 1.03-.29.25-.59.55-.94.93-1.04 1.1-1.39 2.07-1.1 3.53z" style="fill:none;fill-rule:nonzero;stroke:gray;stroke-width:3.33;stroke-linecap:round;stroke-linejoin:round;stroke-miterlimit:22.926"/><path class="fil2" d="M1031.11 763.28h245v59.96h-245z"/><path class="fil3" d="M1082.44 794.86h2.74c-.11 2.51-.98 4.53-2.59 6.03-1.59 1.5-3.67 2.25-6.2 2.25-2.91 0-5.19-.98-6.87-2.97-1.64-2.02-2.48-4.76-2.48-8.28 0-3.26.87-5.83 2.6-7.73 1.73-1.93 4.09-2.89 7.04-2.89 2.33 0 4.27.61 5.77 1.82s2.37 2.85 2.6 4.96h-2.77c-.26-1.35-.89-2.43-1.87-3.17-.98-.72-2.25-1.1-3.84-1.1-2.11 0-3.72.75-4.9 2.22-1.16 1.47-1.73 3.55-1.73 6.23 0 2.54.61 4.56 1.82 6.11 1.21 1.53 2.8 2.28 4.79 2.28 1.7 0 3.09-.52 4.19-1.59 1.07-1.04 1.64-2.45 1.73-4.19z"/><path id="_1" class="fil3" d="M1091.1 784.88v17.69h-2.6v-20.74h4.04l5.14 15.87c.14.46.26.81.31 1.04.09.26.15.49.17.67.09-.35.15-.67.23-.93.09-.29.14-.52.23-.78l5.34-15.87h4.04v20.74h-2.74v-17.69c-.06.32-.15.61-.23.92-.09.29-.17.61-.26.9l-5.33 15.87h-2.66l-5.22-15.87c-.09-.26-.17-.55-.26-.84-.06-.32-.15-.63-.2-.98z"/><path id="_2" class="fil3" d="M1137 802.56v-20.74h2.82v20.74z"/><path id="_3" class="fil3" d="M1144.32 802.56v-20.74h3.09l9.69 15.06c.23.35.41.64.58.93.14.31.29.57.37.83v-16.82h2.69v20.74h-3.06l-9.9-15.29c-.14-.23-.29-.46-.43-.72-.11-.26-.23-.52-.35-.81v16.82h-2.68z"/><path id="_4" class="fil3" d="M1179.67 794.86h2.74c-.11 2.51-.98 4.53-2.59 6.03-1.59 1.5-3.67 2.25-6.2 2.25-2.91 0-5.19-.98-6.87-2.97-1.64-2.02-2.48-4.76-2.48-8.28 0-3.26.87-5.83 2.6-7.73 1.73-1.93 4.09-2.89 7.04-2.89 2.33 0 4.27.61 5.77 1.82s2.37 2.85 2.6 4.96h-2.77c-.26-1.35-.89-2.43-1.87-3.17-.98-.72-2.25-1.1-3.84-1.1-2.11 0-3.72.75-4.9 2.22-1.16 1.47-1.73 3.55-1.73 6.23 0 2.54.61 4.56 1.82 6.11 1.21 1.53 2.8 2.28 4.79 2.28 1.7 0 3.09-.52 4.19-1.59 1.07-1.04 1.64-2.45 1.73-4.19z"/><path id="_5" class="fil3" d="M1185.72 802.56v-20.74h2.83v8.51h10.76v-8.51h2.83v20.74h-2.83v-9.72h-10.76v9.72z"/><path id="_6" class="fil3" d="M1206.58 802.56v-20.74h14.81v2.57h-12.01v6.2h11.08v2.42h-11.08v6.95h12.23v2.6z"/><path id="_7" class="fil3" d="M1224.07 795.72h2.71c.03 1.5.52 2.71 1.5 3.61.98.89 2.28 1.33 3.9 1.33 1.61 0 2.88-.35 3.81-1.01.92-.69 1.39-1.59 1.39-2.77 0-1.59-1.73-2.8-5.22-3.61-.2-.06-.35-.09-.46-.11-2.83-.66-4.7-1.41-5.6-2.25-.89-.81-1.35-1.96-1.35-3.49 0-1.85.67-3.35 2.02-4.44 1.35-1.13 3.15-1.7 5.39-1.7 2.31 0 4.1.61 5.43 1.76 1.3 1.18 1.96 2.8 1.99 4.87h-2.69c-.09-1.38-.57-2.45-1.41-3.2-.87-.72-2.02-1.09-3.49-1.09-1.38 0-2.48.29-3.31.89-.84.61-1.24 1.41-1.24 2.42 0 1.62 1.7 2.8 5.14 3.61.49.12.89.2 1.15.26l.32.09c2.22.52 3.72 1.1 4.44 1.73.55.46.98 1.04 1.27 1.7.29.67.43 1.41.43 2.25 0 1.99-.72 3.61-2.13 4.79-1.44 1.19-3.37 1.76-5.83 1.76-2.51 0-4.47-.63-5.89-1.9-1.39-1.27-2.13-3.09-2.25-5.48z"/><path id="_8" class="fil3" d="m1118.1 805.25 6.96-23.98h1.78l-7.01 23.98z"/><path class="fil0" d="M1005.4 790.47c.94.12 1.65 1.62 1.58 3.34-.07 1.72-.89 3.02-1.83 2.89l.24-6.24zm-110.43-48.8h3.42l.06 1.67.19 1.65.32 1.65.48 1.67.64 1.7.82 1.73 1.01 1.75 1.21 1.76 1.42 1.77 1.63 1.77 1.85 1.76 2.07 1.74 2.3 1.72 2.53 1.7 2.77 1.67 3 1.65 3.25 1.61 3.5 1.59 3.75 1.55 4.01 1.52 4.28 1.48 4.54 1.44 4.82 1.41 5.1 1.37 5.38 1.33 5.67 1.29 5.96 1.25 6.27 1.2 6.57 1.17 6.88 1.12 7.19 1.08 7.52 1.03-.24 6.24-7.54-1.04-7.22-1.08-6.91-1.13-6.6-1.17-6.29-1.21-6-1.26-5.7-1.3-5.42-1.34-5.14-1.39-4.86-1.42-4.6-1.46-4.33-1.5-4.07-1.54-3.81-1.58-3.57-1.62-3.33-1.65-3.09-1.7-2.86-1.74-2.64-1.77-2.42-1.81-2.21-1.86-2.01-1.91-1.8-1.96-1.61-2.01-1.43-2.07-1.24-2.15-1.05-2.22-.87-2.3-.68-2.38-.49-2.45-.29-2.5-.09-2.53zm0 0c0-1.72.77-3.13 1.71-3.13s1.71 1.4 1.71 3.13h-3.42zm.28-3.28 3.28 1.74-.03.23-.04.23-.02.2-.02.19-.01.16-.01.19-.01.19v.15h-3.42v-.45l.02-.41.02-.41.04-.45.04-.41.05-.4.05-.37.06-.37zm0 0c.26-1.65 1.21-2.61 2.12-2.13.91.48 1.43 2.22 1.17 3.87l-3.28-1.74zm509.9 1.74c-.26-1.65.26-3.39 1.17-3.87.91-.48 1.86.48 2.12 2.13l-3.28 1.74zm3.56 1.54h-3.42v-.31l-.02-.19-.01-.19-.02-.19-.03-.23-.02-.2-.04-.23 3.28-1.74.06.37.06.4.04.37.04.41.04.41.02.41.02.45v.45zm0 0c0 1.72-.77 3.13-1.71 3.13s-1.71-1.4-1.71-3.13h3.42zm-107.43 55.04-.24-6.24 7.5-1.03 7.17-1.08 6.84-1.12 6.52-1.16 6.2-1.21 5.89-1.25 5.59-1.29 5.29-1.33 5-1.37 4.71-1.41 4.43-1.44 4.16-1.48 3.89-1.51 3.63-1.56 3.37-1.58 3.12-1.62 2.87-1.64 2.64-1.67 2.4-1.7 2.17-1.71 1.95-1.74 1.73-1.75 1.52-1.76 1.32-1.76 1.12-1.75.93-1.74.75-1.72.59-1.7.44-1.68.3-1.67.17-1.68.06-1.71h3.42l-.08 2.49-.26 2.47-.44 2.43-.62 2.38-.8 2.3-.97 2.23-1.16 2.16-1.33 2.09-1.52 2.02-1.7 1.97-1.9 1.91-2.1 1.87-2.3 1.82-2.52 1.78-2.74 1.74-2.97 1.7-3.2 1.66-3.44 1.62-3.7 1.58-3.95 1.54-4.21 1.5-4.48 1.46-4.76 1.43-5.04 1.38-5.33 1.34-5.63 1.3-5.92 1.26-6.23 1.21-6.55 1.17-6.87 1.13-7.19 1.08-7.53 1.04zm0 0c-.94.12-1.76-1.17-1.83-2.89-.07-1.72.64-3.22 1.58-3.34l.24 6.24z"/><path class="fil0" d="m1301.1 811.07.09-34.97-25.87 17.04 25.78 17.93zm-12.88-8.97"/><path d="M863.06 727.26c-51.65 255.01-36.65 217.24 2.74 487.82 24.76 98.55-87.05 212.03-58.51 355.67 29.34 130.62 62.19 233.17 60.75 367.47" style="fill:none;stroke:#0ff;stroke-width:6.67;stroke-miterlimit:2.61313"/><path class="fil2" d="M844.46 1920.95h47.15l-23.57 34.53z"/><path class="fil2" transform="matrix(-.08737 -.53567 1.02511 -.1672 831.64 1204.91)" d="M0 0h368.49v57.72H0z"/><path class="fil3" d="m858.16 1171.36-.44-2.7c2.5-.29 4.63.24 6.37 1.59 1.74 1.32 2.81 3.25 3.22 5.76.47 2.87-.13 5.28-1.83 7.26-1.73 1.94-4.3 3.21-7.77 3.78-3.22.52-5.89.08-8.05-1.32-2.19-1.39-3.51-3.58-3.98-6.48-.37-2.3-.09-4.31.87-5.98.95-1.68 2.44-2.8 4.48-3.36l.45 2.73c-1.3.48-2.25 1.28-2.83 2.36-.56 1.08-.72 2.4-.46 3.96.34 2.08 1.34 3.55 2.98 4.48 1.63.91 3.78 1.14 6.43.7 2.5-.41 4.4-1.33 5.74-2.78 1.31-1.44 1.8-3.13 1.48-5.09-.28-1.68-1.01-2.96-2.24-3.87-1.2-.89-2.69-1.22-4.41-1.03z"/><path id="_1_0" class="fil3" d="m846.92 1164.43 17.46-2.85.42 2.57-20.47 3.34-.65-3.99 14.83-7.63c.43-.21.76-.39.97-.48.24-.13.46-.22.63-.28-.35-.03-.68-.04-.95-.08-.3-.04-.53-.06-.8-.1l-16.52-2.72-.65-3.98 20.48-3.34.44 2.7-17.46 2.85c.33.01.62.05.95.08.3.04.63.07.93.11l16.52 2.71.43 2.62-14.82 7.71c-.24.13-.52.26-.79.39-.31.11-.6.24-.94.35z"/><path id="_2_1" class="fil3" d="m856.98 1116.28-20.47 3.34-.45-2.79 20.47-3.34z"/><path id="_3_2" class="fil3" d="m855.81 1109.06-20.47 3.34-.5-3.05 13.3-11.99c.31-.28.57-.5.82-.72.29-.19.52-.38.76-.5l-16.6 2.7-.43-2.65 20.48-3.34.49 3.02-13.5 12.23c-.2.18-.41.36-.64.54-.24.16-.48.31-.74.47l16.6-2.7.43 2.65z"/><path id="_4_3" class="fil3" d="m842.51 1075.41-.44-2.7c2.5-.29 4.63.24 6.37 1.59 1.74 1.32 2.81 3.25 3.22 5.76.47 2.87-.14 5.28-1.83 7.26-1.73 1.94-4.3 3.21-7.77 3.78-3.22.52-5.89.08-8.05-1.32-2.19-1.39-3.51-3.58-3.98-6.48-.37-2.3-.09-4.31.87-5.98.95-1.68 2.44-2.8 4.48-3.36l.44 2.74c-1.3.47-2.25 1.27-2.83 2.36-.56 1.08-.72 2.4-.46 3.96.34 2.08 1.34 3.55 2.98 4.48 1.63.91 3.78 1.14 6.43.7 2.5-.41 4.4-1.33 5.74-2.78 1.31-1.44 1.8-3.13 1.48-5.09-.28-1.68-1.01-2.96-2.24-3.87-1.2-.89-2.69-1.22-4.41-1.03z"/><path id="_5_4" class="fil3" d="m849.14 1068.19-20.47 3.34-.46-2.79 8.4-1.37-1.73-10.62-8.4 1.37-.45-2.79 20.47-3.34.45 2.79-9.59 1.56 1.73 10.63 9.6-1.57z"/><path id="_6_5" class="fil3" d="m845.78 1047.6-20.47 3.34-2.38-14.61 2.53-.41 1.93 11.84 6.13-.99-1.79-10.94 2.39-.39 1.79 10.94 6.86-1.12-1.97-12.07 2.57-.42z"/><path id="_7_6" class="fil3" d="m836.22 1031.44-.44-2.68c1.48-.27 2.59-.95 3.32-2.06.72-1.11.94-2.46.68-4.06-.26-1.59-.81-2.79-1.61-3.6-.83-.8-1.79-1.11-2.96-.92-1.57.26-2.48 2.16-2.72 5.74-.02.21-.03.36-.04.48-.2 2.89-.64 4.87-1.32 5.89-.65 1.01-1.72 1.65-3.22 1.9-1.82.3-3.41-.12-4.71-1.28-1.33-1.16-2.19-2.83-2.55-5.05-.37-2.28-.06-4.14.87-5.64.96-1.47 2.44-2.39 4.49-2.75l.43 2.65c-1.35.31-2.33.96-2.93 1.91-.57.97-.76 2.17-.52 3.62.22 1.36.68 2.4 1.41 3.13.74.73 1.59 1 2.59.84 1.6-.26 2.49-2.13 2.73-5.65.04-.5.06-.92.07-1.18l.04-.33c.15-2.28.48-3.85.99-4.67.37-.61.87-1.13 1.48-1.53.61-.39 1.33-.65 2.15-.79 1.96-.32 3.67.13 5.07 1.34 1.4 1.23 2.28 3.05 2.68 5.46.4 2.48.09 4.52-.93 6.12-1.04 1.57-2.71 2.6-5.05 3.1z"/><path id="_8_7" class="fil3" d="m862.68 1134.5-24.79-3.01-.28-1.76 24.79 3.06z"/><path style="fill:#0ff" d="M1207.74 1008.33h175.94v50h-175.94z"/><path class="fil0" d="M1200.42 1033.19c.52.08.92 1.11.88 2.3-.04 1.18-.49 2.07-1.02 1.99l.13-4.28zm-48.13-37.86h1.9v1.41l.02 1.39.04 1.38.07 1.35.11 1.34.15 1.32.2 1.3.25 1.29.31 1.29.39 1.29.47 1.29.56 1.3.67 1.3.78 1.3.9 1.3 1.02 1.29 1.17 1.28 1.31 1.26 1.46 1.24 1.62 1.22 1.79 1.19 1.97 1.16 2.15 1.13 2.34 1.09 2.54 1.06 2.74 1.01 2.95.97 3.18.93 3.41.87 3.64.83 3.88.78 4.13.72-.13 4.28-4.16-.72-3.91-.78-3.67-.83-3.43-.88-3.21-.93-2.98-.98-2.78-1.03-2.58-1.07-2.39-1.11-2.19-1.16-2.02-1.19-1.85-1.23-1.69-1.27-1.53-1.31-1.39-1.34-1.25-1.37-1.13-1.41-1-1.45-.89-1.48-.78-1.52-.67-1.56-.58-1.58-.48-1.61-.4-1.63-.32-1.64-.25-1.64-.19-1.63-.13-1.61-.08-1.59-.05-1.56-.02-1.54v-1.5zm0 0c0-1.18.43-2.15.95-2.15s.95.96.95 2.15h-1.9zm.15-2.22 1.83 1.14-.02.18-.02.16-.01.12-.01.11-.01.17v.34h-1.9v-.6l.02-.3.01-.25.02-.3.03-.3.03-.25.03-.23zm0 0c.14-1.14.67-1.81 1.17-1.5.5.31.8 1.5.67 2.64l-1.83-1.14zm283.39 1.17c-.15-1.13.14-2.33.65-2.66.5-.33 1.04.32 1.18 1.46l-1.83 1.2zm1.98 1.05h-1.9v-.34l-.01-.12-.01-.11-.02-.17-.02-.16-.02-.15 1.83-1.2.03.26.03.25.02.25.03.3.02.3.02.3v.6zm0 0c0 1.18-.43 2.15-.95 2.15s-.95-.96-.95-2.15h1.9zm-41.43 41.93-.2-4.27 3.48-.89 3.28-.93 3.07-.95 2.88-.99 2.69-1.01 2.51-1.04 2.33-1.06 2.16-1.09 2-1.11 1.84-1.13 1.69-1.16 1.54-1.17 1.41-1.19 1.27-1.2 1.14-1.21 1.02-1.22.91-1.23.79-1.23.69-1.24.6-1.23.51-1.23.43-1.22.36-1.22.3-1.23.24-1.24.19-1.24.15-1.27.11-1.3.08-1.31.05-1.34.03-1.37.01-1.39h1.9l-.01 1.51-.03 1.52-.06 1.54-.09 1.55-.13 1.55-.18 1.57-.24 1.57-.31 1.56-.37 1.55-.45 1.53-.53 1.51-.62 1.48-.7 1.44-.79 1.42-.89 1.39-.99 1.35-1.11 1.33-1.22 1.3-1.34 1.27-1.47 1.24-1.6 1.22-1.74 1.19-1.89 1.16-2.04 1.14-2.2 1.11-2.37 1.08-2.54 1.05-2.72 1.02-2.9 1-3.1.96-3.29.93-3.5.9zm0 0c-.52.13-.99-.72-1.05-1.9-.06-1.18.32-2.24.84-2.37l.2 4.27z"/><path class="fil3" d="M1227.2 1035.22h2.64c-.11 2.42-.94 4.36-2.5 5.81-1.53 1.44-3.53 2.17-5.97 2.17-2.81 0-5-.94-6.61-2.86-1.58-1.94-2.39-4.58-2.39-7.97 0-3.14.83-5.61 2.5-7.44 1.67-1.86 3.94-2.78 6.78-2.78 2.25 0 4.11.58 5.56 1.75 1.44 1.17 2.28 2.75 2.5 4.78h-2.67c-.25-1.31-.86-2.33-1.8-3.06-.94-.7-2.17-1.06-3.7-1.06-2.03 0-3.58.72-4.72 2.14-1.11 1.42-1.67 3.42-1.67 6 0 2.44.58 4.39 1.75 5.89 1.17 1.47 2.69 2.19 4.61 2.19 1.64 0 2.97-.5 4.03-1.53 1.03-1 1.58-2.36 1.67-4.03z"/><path id="_1_8" class="fil3" d="M1235.53 1025.61v17.03h-2.5v-19.97h3.89l4.94 15.28c.14.44.25.78.31 1 .08.25.14.47.17.64.08-.33.14-.64.22-.89.08-.28.14-.5.22-.75l5.14-15.28h3.89v19.97h-2.64v-17.03c-.06.3-.14.58-.22.89-.08.28-.17.59-.25.86l-5.14 15.28H1241l-5.03-15.28c-.08-.25-.17-.53-.25-.8-.06-.31-.14-.61-.2-.94z"/><path id="_2_9" class="fil3" d="M1279.72 1042.64v-19.97h2.72v19.97z"/><path id="_3_10" class="fil3" d="M1286.77 1042.64v-19.97h2.97l9.33 14.5c.22.33.39.61.56.89.14.3.28.56.36.8v-16.19h2.58v19.97h-2.94l-9.53-14.72c-.14-.22-.28-.44-.42-.69-.11-.25-.22-.5-.33-.78v16.2h-2.58z"/><path id="_4_11" class="fil3" d="M1320.81 1035.22h2.64c-.11 2.42-.94 4.36-2.5 5.81-1.53 1.44-3.53 2.17-5.97 2.17-2.81 0-5-.94-6.61-2.86-1.58-1.94-2.39-4.58-2.39-7.97 0-3.14.83-5.61 2.5-7.44 1.67-1.86 3.94-2.78 6.78-2.78 2.25 0 4.11.58 5.56 1.75 1.44 1.17 2.28 2.75 2.5 4.78h-2.67c-.25-1.31-.86-2.33-1.8-3.06-.94-.7-2.17-1.06-3.7-1.06-2.03 0-3.58.72-4.72 2.14-1.11 1.42-1.67 3.42-1.67 6 0 2.44.58 4.39 1.75 5.89 1.17 1.47 2.69 2.19 4.61 2.19 1.64 0 2.97-.5 4.03-1.53 1.03-1 1.58-2.36 1.67-4.03z"/><path id="_5_12" class="fil3" d="M1326.64 1042.64v-19.97h2.72v8.19h10.36v-8.19h2.72v19.97h-2.72v-9.36h-10.36v9.36z"/><path id="_6_13" class="fil3" d="M1346.73 1042.64v-19.97h14.25v2.47h-11.55v5.97h10.66v2.33h-10.66v6.7h11.77v2.5z"/><path id="_7_14" class="fil3" d="M1363.57 1036.06h2.61c.03 1.44.5 2.61 1.44 3.47.94.86 2.19 1.28 3.75 1.28s2.78-.33 3.67-.97c.89-.67 1.33-1.53 1.33-2.67 0-1.53-1.67-2.69-5.03-3.47-.19-.06-.33-.08-.44-.11-2.72-.64-4.53-1.36-5.39-2.17-.86-.78-1.3-1.89-1.3-3.36 0-1.78.64-3.22 1.94-4.28 1.3-1.08 3.03-1.64 5.19-1.64 2.22 0 3.94.58 5.22 1.69 1.25 1.14 1.89 2.7 1.92 4.7h-2.59c-.08-1.33-.56-2.36-1.36-3.09-.83-.69-1.94-1.06-3.36-1.06-1.33 0-2.39.28-3.2.86-.8.58-1.19 1.36-1.19 2.33 0 1.56 1.64 2.69 4.94 3.47.47.11.86.19 1.11.25l.31.08c2.14.5 3.58 1.06 4.28 1.67.53.44.94 1 1.22 1.64.28.64.42 1.36.42 2.17 0 1.92-.7 3.47-2.06 4.61-1.39 1.14-3.25 1.69-5.61 1.69-2.42 0-4.3-.61-5.67-1.83-1.33-1.22-2.06-2.97-2.17-5.28z"/><path id="_8_15" class="fil3" d="m1261.53 1045.22 6.69-23.08h1.73l-6.75 23.08z"/><path class="fil2" d="M1405.82 1016.67V1050l-24.41-16.67zm-222.49 0V1050l24.41-16.67z"/></g></g></svg>