<svg xmlns="http://www.w3.org/2000/svg" xml:space="preserve" width="305.587" height="609.653" style="shape-rendering:geometricPrecision;text-rendering:geometricPrecision;image-rendering:optimizeQuality;fill-rule:evenodd;clip-rule:evenodd" viewBox="0 0 12620 25178"><path d="M8186 23985H4434c-37 0-67 30-67 67s30 67 67 67h3752c37 0 67-30 67-67s-30-67-67-67zm3601-720c0 640-520 1160-1160 1160H1992c-640 0-1160-520-1160-1160V1914c0-640 520-1160 1160-1160h1127c93 0 169 76 169 169v98c0 41 4 82 12 121 56 273 298 479 587 479h4845c290 0 532-206 587-479 8-39 12-79 12-121v-98c0-93 76-169 169-169h1126c640 0 1160 520 1160 1160v21351zM5649 905h1326c61 0 110 49 110 110s-49 110-110 110H5649c-61 0-110-49-110-110s49-110 110-110zm2002-122c128 0 231 104 231 231 0 128-104 231-231 231-128 0-231-104-231-231 0-128 104-231 231-231zm2976-575H1992c-942 0-1706 764-1706 1706v21351c0 942 764 1706 1706 1706h8635c942 0 1706-764 1706-1706V1914c0-942-764-1706-1706-1706zm1924 8469-57 58c-6 6-10 15-10 24v14543c0 997-811 1808-1808 1808H1941c-997 0-1808-811-1808-1808V9357c0-11-5-21-13-27l-53-41V7553l53-41c8-6 13-16 13-27v-431c0-11-5-21-13-27l-53-41V5250l53-41c8-6 13-16 13-27v-780c0-19-15-34-34-34H67v-939h32c19 0 34-15 34-34V1878C133 881 944 70 1941 70h8735c997 0 1808 811 1808 1808v3901c0 9 3 17 10 24l57 58v2817zm59-2855-57-58V1877c0-1035-842-1876-1876-1876H1942C907 1 66 843 66 1877v1482c-37 1-66 31-66 68v939c0 37 30 67 66 68v729l-53 41c-8 6-13 16-13 27v1770c0 11 5 21 13 27l53 41v397l-53 41c-8 6-13 16-13 27v1770c0 11 5 21 13 27l53 41v13928c0 1035 842 1876 1876 1876h8735c1035 0 1876-842 1876-1876V8771l57-58c6-6 10-15 10-24V5844c0-9-4-17-10-24z" style="fill:#333"/></svg>