<?xml version="1.0" encoding="UTF-8"?>
<!DOCTYPE svg PUBLIC "-//W3C//DTD SVG 1.1//EN" "http://www.w3.org/Graphics/SVG/1.1/DTD/svg11.dtd">
<!-- Creator: CorelDRAW X6 -->
<svg xmlns="http://www.w3.org/2000/svg" xml:space="preserve" width="80.8532mm" height="161.304mm" version="1.1" style="shape-rendering:geometricPrecision; text-rendering:geometricPrecision; image-rendering:optimizeQuality; fill-rule:evenodd; clip-rule:evenodd"
viewBox="0 0 12620 25178"
 xmlns:xlink="http://www.w3.org/1999/xlink">
 <defs>
  <style type="text/css">
   <![CDATA[
    .fil0 {fill:#333333}
   ]]>
  </style>
 </defs>
 <g id="Слой_x0020_1">
  <metadata id="CorelCorpID_0Corel-Layer"/>
  <path class="fil0" d="M8186 23985l-3752 0c-37,0 -67,30 -67,67 0,37 30,67 67,67l3752 0c37,0 67,-30 67,-67 0,-37 -30,-67 -67,-67zm3601 -720c0,640 -520,1160 -1160,1160l-8635 0c-640,0 -1160,-520 -1160,-1160l0 -21351c0,-640 520,-1160 1160,-1160l1127 0c93,0 169,76 169,169l0 98c0,41 4,82 12,121 56,273 298,479 587,479l4845 0c290,0 532,-206 587,-479 8,-39 12,-79 12,-121l0 -98c0,-93 76,-169 169,-169l1126 0c640,0 1160,520 1160,1160l0 21351zm-6138 -22360l1326 0c61,0 110,49 110,110 0,61 -49,110 -110,110l-1326 0c-61,0 -110,-49 -110,-110 0,-61 49,-110 110,-110zm2002 -122c128,0 231,104 231,231 0,128 -104,231 -231,231 -128,0 -231,-104 -231,-231 0,-128 104,-231 231,-231zm2976 -575l-8635 0c-942,0 -1706,764 -1706,1706l0 21351c0,942 764,1706 1706,1706l8635 0c942,0 1706,-764 1706,-1706l0 -21351c0,-942 -764,-1706 -1706,-1706zm1924 8469l-57 58c-6,6 -10,15 -10,24l0 14543c0,997 -811,1808 -1808,1808l-8735 0c-997,0 -1808,-811 -1808,-1808l0 -13945c0,-11 -5,-21 -13,-27l-53 -41 0 -1736 53 -41c8,-6 13,-16 13,-27l0 -431c0,-11 -5,-21 -13,-27l-53 -41 0 -1736 53 -41c8,-6 13,-16 13,-27l0 -780c0,-19 -15,-34 -34,-34l-32 0 0 -939 32 0c19,0 34,-15 34,-34l0 -1517c0,-997 811,-1808 1808,-1808l8735 0c997,0 1808,811 1808,1808l0 3901c0,9 3,17 10,24l57 58 0 2817zm59 -2855l-57 -58 0 -3887c0,-1035 -842,-1876 -1876,-1876l-8735 0c-1035,0 -1876,842 -1876,1876l0 1482c-37,1 -66,31 -66,68l0 939c0,37 30,67 66,68l0 729 -53 41c-8,6 -13,16 -13,27l0 1770c0,11 5,21 13,27l53 41 0 397 -53 41c-8,6 -13,16 -13,27l0 1770c0,11 5,21 13,27l53 41 0 13928c0,1035 842,1876 1876,1876l8735 0c1035,0 1876,-842 1876,-1876l0 -14529 57 -58c6,-6 10,-15 10,-24l0 -2845c0,-9 -4,-17 -10,-24z"/>
 </g>
</svg>
