<svg xmlns="http://www.w3.org/2000/svg" xml:space="preserve" viewBox="0 0 8 4"><path d="M32.605 21.121c-.394.402-1.046.871-1.398.965-.46.125-2.715.125-3.55-.082-.606-.152-1.102-.879-1.329-1.262-.246.856-.933 1.488-2.344 2.473a7.004 7.004 0 0 1-1.445.75H36.25a7.004 7.004 0 0 1-1.445-.75c-1.196-.832-1.871-1.414-2.2-2.094zm24.32-3.582c0 .246-1.917 0-1.917 0 .082 4.59-2.004 5.59-2.004 5.59-2.172 1.672-6.262 1.84-8.18 1.84-1.324 0-4.27.078-6.879-.5l-17.285.039c-2.562.535-5.402.46-6.695.46-1.918 0-6.008-.167-8.18-1.84 0 0-2.086-1-2.004-5.589 0 0-1.918.246-1.918 0 0-.254-.336-.754.5-.836.832-.086 1.586-.25 1.586-.25s-.25-4.344 2.086-6.68c2.336-2.34 4.508-4.511 9.266-3.343 4.758 1.172 10.101 7.265 10.773 10.773.254 1.344.41 2.258.352 2.98.129.274.433.868.816 1.153.5.379 2.293.46 3.754.293.969-.113 1.313-.645 1.434-.992-.188-.793-.024-1.797.289-3.434.668-3.508 6.011-9.601 10.77-10.773 4.757-1.168 6.929 1.004 9.265 3.343 2.336 2.336 2.086 6.68 2.086 6.68s.754.164 1.586.25c.836.082.5.582.5.836" style="fill:#333;fill-opacity:1;fill-rule:nonzero;stroke:none" transform="matrix(.13333 0 0 -.13333 0 4)"/></svg>