<svg xmlns="http://www.w3.org/2000/svg" xml:space="preserve" width="8" height="9.333"><path d="M4.27 16.09c0-6.395 3.02-8.715 10.03-8.715h27.458c7.012 0 10.031 2.32 10.031 8.715 0 3.984-2.144 8.016-4.152 10.101-2.125 2.207-6.184 4.946-9.574 4.946-.86 0-.516-.133-.883-.969l-.145-.383a21.062 21.062 0 0 0-.387-.668c-2.945-4.015-16.566-4.668-18.125 2.02-1.957 0-4.203-.828-5.617-1.508-4.48-2.16-8.636-7.735-8.636-13.54Zm10.562 31.152c0-10.441 12.05-27.637 22.441-11.886 3.985 6.042 6.118 14.917.332 20.667-1.359 1.348-1.746 1.829-3.585 2.754a13.547 13.547 0 0 1-4.801 1.399h-2.383c-6.59-.614-12.004-6.305-12.004-12.934Zm2.11-2.117c0 3.137 1.59 6.43 3.43 7.66 1.226-5.254 12.398-3.418 16.097-3.113 1.601.129 2.648-2.445 2.648-4.547 0-5.344-5.68-13.988-11.09-13.988-5.375 0-11.086 8.672-11.086 13.988" style="fill:gray;fill-opacity:1;fill-rule:evenodd;stroke:none" transform="matrix(.13333 0 0 -.13333 0 9.333)"/></svg>