<svg xmlns="http://www.w3.org/2000/svg" xml:space="preserve" width="700" height="140" style="shape-rendering:geometricPrecision;text-rendering:geometricPrecision;image-rendering:optimizeQuality;fill-rule:evenodd;clip-rule:evenodd" viewBox="0 0 709.04 141.81"><path d="M70.91 0h567.23c39 0 70.9 31.91 70.9 70.9 0 39-31.9 70.91-70.9 70.91H70.91C31.91 141.81 0 109.9 0 70.9 0 31.91 31.91 0 70.91 0z" style="fill:#b2fbe4"/><path d="m613.96 40.76-16.24-9.33-16.47-9.45c-10.92-6.26-24.53 1.62-24.53 14.21v2.12c0 1.16.62 2.23 1.63 2.81l7.64 4.39c2.12 1.21 4.76-.32 4.76-2.76v-5.03c0-2.48 2.69-4.04 4.85-2.8l30.06 17.24c2.17 1.25 2.17 4.38 0 5.62L575.6 75.03c-2.16 1.24-4.85-.32-4.85-2.81v-2.5c0-12.58-13.61-20.47-24.52-14.2l-32.71 18.77c-10.97 6.29-10.97 22.12 0 28.41l32.71 18.76c2.33 1.34 4.79 2.04 7.2 2.17h1.86c8.18-.47 15.46-7.16 15.46-16.36v-2.13c0-1.16-.62-2.24-1.62-2.82l-7.64-4.38c-2.13-1.21-4.77.32-4.77 2.76v5.03c0 2.49-2.69 4.04-4.84 2.81l-30.07-17.25c-2.16-1.25-2.16-4.37 0-5.62l30.07-17.25c2.15-1.23 4.84.32 4.84 2.81v2.5c0 12.58 13.61 20.46 24.53 14.2l16.47-9.45 16.24-9.32c5.43-3.12 8.17-8.57 8.22-14.05v-.31c-.05-5.47-2.79-10.93-8.22-14.04zm-320.6 8.58s3.5-6.48 12.06-6.48c3.66 0 6.03 1.26 6.03 1.26v14.24s-5.17-3.19-9.91-2.55c-4.74.65-7.74 5-7.73 10.83v33.05h-14.18V43.87h13.73v5.47zm132.63 50.35v-7.25c-4.13 5.02-10.27 8.15-17.64 8.15-15.3 0-26.91-12.28-26.91-28.81 0-16.41 12.06-28.92 27.25-28.92 7.14 0 13.17 3.13 17.3 8.04v-7.03h13.73v55.82h-13.73zm-.11-27.91c0-9.38-6.81-15.97-15.18-15.97-8.38 0-15.19 6.7-15.19 15.97 0 9.16 6.81 15.97 15.19 15.97 8.37 0 15.18-6.59 15.18-15.97zm-107.77 50.71V43.87h13.74v7.25c4.12-5.13 10.27-8.26 17.64-8.26 15.07 0 26.9 12.4 26.9 28.81 0 16.41-12.06 28.92-27.24 28.92-7.03 0-12.84-2.79-16.86-7.48v29.38h-14.18zm44.22-50.71c0-9.04-6.81-15.97-15.19-15.97-8.37 0-15.18 6.7-15.18 15.97 0 9.16 6.81 15.97 15.18 15.97 8.38 0 15.19-6.93 15.19-15.97zm-132.57 3.68c1 8.27 6.92 12.96 14.4 12.96 5.92 0 10.5-2.79 13.18-7.26h14.4c-3.35 11.84-13.96 19.43-27.91 19.43-16.86 0-28.7-11.84-28.7-28.7s12.51-29.03 29.03-29.03c16.63 0 28.7 12.28 28.7 29.03 0 1.23-.12 2.46-.34 3.57h-42.76zm28.02-8.7c-1-7.26-6.92-11.62-13.84-11.62s-12.62 4.25-14.07 11.62h27.91zM207.32 87.3c-4.81 0-6.15-1.79-6.15-6.48V56.03H210V43.87h-8.83V30.24h-14.06v13.63h-18.13v-5.56c0-4.69 1.79-6.48 6.7-6.48h3.09V21h-6.78c-11.6 0-17.07 3.8-17.07 15.41v7.46h-7.82v12.16h7.82v43.66h14.06V56.03h18.13v27.36c0 11.39 4.35 16.3 15.74 16.3h7.25V87.3h-2.78zm-80.45 12.39v-7.25c-4.13 5.02-10.27 8.15-17.64 8.15-14.87 0-26.26-11.61-26.88-27.44v-2.7c.63-15.76 12.44-27.59 27.22-27.59 7.14 0 13.17 3.13 17.3 8.04v-7.03h13.74v55.82h-13.74zm-.11-27.91c0-9.38-6.81-15.97-15.18-15.97-8.38 0-15.19 6.7-15.19 15.97 0 9.16 6.81 15.97 15.19 15.97 8.37 0 15.18-6.59 15.18-15.97zm380.55-27.91-38.09 78.62h-15.81l14.23-29.39-22.37-49.23h16.21l14.38 32.97 15.7-32.97h15.75z" style="fill:#000;fill-rule:nonzero"/></svg>