<svg xmlns="http://www.w3.org/2000/svg" viewBox="0 0 222.667 240" xml:space="preserve"><path style="fill:#333;fill-opacity:1;fill-rule:evenodd;stroke:none" d="M1324.61 1573.14c-115.4 40.73-229.23-78.48-233.97-87.12-10.08 7.09-20.74 13.44-32 19.12-.48 15.57 2.74 132.54-36.68 210.76-34.534 68.6-77.562 80.68-155.21 80.68-20.598 0-44.25-.93-68.676-1.96-117.64-4.98-180.375-184.13-191.347-240.63 3.07.55 5.984 1.01 8.836 1.44 3.066.46 6 .87 8.796 1.24 18.563 2.39 31.161 2.56 35.243 2.51 3.296.31 13.453 1.11 28.363 1.3 2.719.04 29.691.95 32.719.93 2.718 0 5.457-.02 8.425-.08 13.766 68.17 42.891 120.33 97.567 122.81 16.469.74 27.066-.33 39.844-.33 46.058 0 50.132-2.21 69.492-43.42 21.355-45.43 13.961-72.96 15.144-100.92-47.726 9.83-85.121 9.66-150.109 10.96a523.132 523.132 0 0 0 40.949-9.62c10.488-2.91 21.109-6.13 31.828-9.92 105.024-37.09 217.036-118.98 256.256-297.28 73.45-333.922 73.86-655.044 74.09-846.915l.08-38.425c.29-85.454-6.12-147.387-21.2-192.047-1.26-3.75-2.61-7.399-3.98-10.91-1.56-3.903-3.09-7.825-4.8-11.442 1.3.625 2.52 1.149 3.82 1.789 8.87 4.328 17.34 8.133 25.38 11.766 62.17 28.039 103.24 46.543 100.62 194.281-.36 20.02-1.29 48.168-2.74 82.266 21.55-19.067 102.42-90.575 159.79-140.672 66.7-58.25 96.04-39.723 96.04-39.723 72.01 13.238 105.6 72.906 105.6 72.906-230.51 1303.756-338.17 1256.656-338.17 1256.656Zm-21.89-987.468c-16.23 274.215-61.68 663.138-122.19 789.458-3.14 6.58-6.54 12.64-9.9 18.74 13.96 21.94 56.5 57.28 79.94 61.51 0 0 161.97-358.79 231.32-1007.505 0 .016-135.31 108.926-179.17 137.797zm-254.43 609.858c-74.13 337.05-420.477 301.24-435.216 299.6-.719-.08-1.511-.1-2.191-.12-.508.04-60.875.47-137.371-32.42-19.438-8.37-41.125-19.58-63.824-34.18-15.125-9.77-30.735-21.12-46.461-34.29-11.707-9.8-23.434-20.64-35.125-32.56-97.45-136.26-136.161-318.02-144.36-361.783 22.25 3.063 193.387 24.703 463.176 3.963 26.969-1.63 51.629-3.826 73.957-6.525 31.238-3.785 57.977-8.582 79.41-14.406 2.199-.196 17.262-1.864 38.582-9.496 60.055-21.493 169.993-90.75 183.253-311.067 18.36-304.719-36.214-513.558-36.913-516.277-.191-1.008-17.613-85.063-175.211-114.281 40.02 22.656 77.219 64.109 87.371 140.128 24.153 181.094 37.707 426.727 18.582 524.293-19.144 97.606-45.863 180.61-179.91 207.754-88.945 18.02-250.797 21.805-370.93 21.805-53.765 0-98.461-.758-126.906-1.379-3.531-.078-6.562-.156-9.57-.215-3.613-.094-6.758-.152-9.57-.23-1.516-.039-3.321-.078-4.602-.117-5.902 0-28.172-.911-55.453-10.368a156.639 156.639 0 0 1-4.914-1.789c-3.981-1.511-8.035-3.086-12.153-4.988-5.261-2.465-10.425-5.008-15.242-7.883-61.277-36.636-86.32-104.847-96.48-150.785-1.395-7.476-2.657-15.164-3.668-23.301C7.133 564.004 8.297 392.672 11.152 230.957c2.563-144.844 88.926-160.3 151.989-171.578 5.961-1.05 11.804-2.098 17.433-3.223 69.864-13.863 373.629-45.34 504.824-50.402 0 0 6.856-.836 18.157-.836 5.3 0 12.25.25 20.285.95 16.234.64 31.535 1.745 45.941 3.26h.176a526.27 526.27 0 0 1 11.027-.116c23.297 0 47.008 1.765 71.18 4.89C958.742 39.727 1038.33 64.676 1040.02 65.2c13.86 5.11 26.25 12.64 37.03 24.45 3.81 4.175 7.43 8.792 10.81 14.191 21.82 34.949 34.21 97.254 33.84 213.324l-.07 38.465c-.26 190.551-.67 509.461-73.34 839.901zM713.477 514.121s-111.372 2.484-235.114 8.035c-3.297.16-6.636.313-9.976.469l-9.981.469c-71.668 3.379-145.508 7.804-203.093 13.375-4.118.41-8.293.797-12.211 1.207-4.274.445-8.332.91-12.391 1.359-24.211 2.735-44.441 5.727-58.535 8.973l5.199 50.734 1.145 11.199 1.148 11.207 7.129 69.645s71.801-5.883 178.297-11.531c3.336-.176 6.64-.352 10.039-.524 3.301-.175 6.656-.351 10.019-.504 95.563-4.836 215.305-9.226 335.649-9.226l-7.324-154.887" transform="matrix(.13333 0 0 -.13333 0 240)"/></svg>