<svg xmlns="http://www.w3.org/2000/svg" xml:space="preserve" width="72" height="9.333"><path d="m199.285 13.395-6.219 4.593-12.761 25.551 18.98 14.027c.606.45.735 1.301.285 1.907a1.362 1.362 0 0 1-1.906.289L179.07 46.016l-10.742 21.5c-.461.925-1.973.925-2.437 0l-10.739-21.5-18.597 13.746a1.36 1.36 0 0 1-1.903-.29 1.361 1.361 0 0 1 .286-1.906l18.976-14.027-12.762-25.55-6.214-4.594a1.361 1.361 0 1 1 1.617-2.192l1.914 1.414-1.215-2.433a1.371 1.371 0 0 1 .059-1.329 1.373 1.373 0 0 1 1.164-.644l57.269-.004a1.363 1.363 0 0 1 1.219 1.977l-1.215 2.433 1.914-1.414a1.35 1.35 0 0 1 .809-.265 1.36 1.36 0 0 1 .812 2.457zm-11.062 8.175-18.821 13.91 8.664 6.407zm-21.114 42.227 9.719-19.438-9.719-7.183-9.714 7.183zm-10.953-21.91 8.66-6.406-18.82-13.91zm-15.476-30.95 2.629 5.258 23.8 17.59 23.805-17.59 2.625-5.257H140.68m390.875 47.55 7.59 7.59a1.248 1.248 0 1 1-1.766 1.766l-7.59-7.59c-5.348 4.922-12.457 7.953-20.277 7.953-7.824 0-14.934-3.031-20.282-7.953l-7.589 7.59a1.248 1.248 0 1 1-1.766-1.766l7.59-7.59c-4.922-5.347-7.953-12.457-7.953-20.281 0-7.82 3.031-14.93 7.953-20.277l-7.59-7.59a1.248 1.248 0 0 1 .887-2.133c.316 0 .636.125.879.367l7.589 7.59c5.348-4.922 12.458-7.957 20.282-7.957 7.82 0 14.929 3.035 20.277 7.957l7.59-7.59a1.245 1.245 0 0 1 1.766 0 1.248 1.248 0 0 1 0 1.766l-7.59 7.59c4.922 5.347 7.953 12.457 7.953 20.277 0 7.824-3.031 14.934-7.953 20.281zm-22.043 7.223c7.129 0 13.617-2.754 18.508-7.223l-18.508-18.511L491 58.488c4.891 4.469 11.379 7.223 18.512 7.223zM489.23 19.699c-4.468 4.89-7.222 11.38-7.222 18.508 0 7.133 2.754 13.621 7.222 18.512l18.512-18.512Zm20.282-8.992c-7.133 0-13.621 2.754-18.512 7.223l18.512 18.511L528.02 17.93c-4.891-4.47-11.379-7.223-18.508-7.223Zm20.277 8.992-18.512 18.508 18.512 18.512c4.469-4.89 7.219-11.38 7.219-18.512 0-7.129-2.75-13.617-7.219-18.508M303.891 68.207h-57.559a1.219 1.219 0 0 1-1.223-1.219V9.43c0-.676.547-1.22 1.223-1.22h57.559c.675 0 1.218.544 1.218 1.22v57.558c0 .676-.543 1.219-1.218 1.219zm-28.782-34.172a4.176 4.176 0 0 1 4.172 4.172 4.177 4.177 0 0 1-4.172 4.176 4.18 4.18 0 0 1-4.171-4.176c0-2.3 1.875-4.172 4.171-4.172zm0 5.903c.954 0 1.731-.778 1.731-1.731a1.73 1.73 0 1 0-1.731 1.73zm0-26.758c13.805 0 25.032 11.226 25.032 25.027 0 13.805-11.227 25.031-25.032 25.031-13.8 0-25.027-11.226-25.027-25.031 0-13.8 11.227-25.027 25.027-25.027zm0 47.617c12.457 0 22.59-10.133 22.59-22.59 0-12.453-10.133-22.586-22.59-22.586-12.453 0-22.589 10.133-22.589 22.586 0 12.457 10.136 22.59 22.589 22.59zm27.559-50.149h-55.117v55.118h55.117V10.648m137.426-.32L433.246 61.7a7.52 7.52 0 0 1-7.433 6.508h-43.825a1.873 1.873 0 0 1-1.879-1.871c0-1.04.84-1.879 1.879-1.879l43.825.004a3.76 3.76 0 0 0 3.714-3.254l2.571-19.25h-50.11c-17.578 0-31.875-14.297-31.875-31.875 0-1.035.84-1.871 1.871-1.871h86.254a1.87 1.87 0 0 1 1.856 2.117zm-41.231 14.758a3.751 3.751 0 1 1-7.498-.002 3.751 3.751 0 0 1 7.498.002zM353.926 11.96c.969 14.633 13.183 26.246 28.062 26.246h50.606l3.5-26.246h-82.168M96.594 68.168c-.961.21-1.996-.45-2.203-1.469l-2.579-12.89c-1.09.558-1.953 1.457-2.945 2.539-1.777 1.941-3.992 4.355-8.258 4.355-4.261 0-6.472-2.414-8.254-4.355-1.601-1.754-2.875-3.141-5.48-3.141-2.61 0-3.879 1.387-5.488 3.14-1.778 1.942-3.996 4.356-8.258 4.356-4.258 0-6.473-2.414-8.25-4.355-1.613-1.754-2.883-3.141-5.496-3.141-2.614 0-3.887 1.387-5.496 3.14-1.782 1.942-4 4.356-8.27 4.356-4.265 0-6.48-2.414-8.262-4.355-.992-1.082-1.859-1.98-2.957-2.543l-2.582 12.894c-.203 1.02-1.242 1.684-2.203 1.469a1.87 1.87 0 0 1-1.472-2.207l10.343-51.723a7.525 7.525 0 0 1 7.356-6.031h54.527a7.525 7.525 0 0 1 7.356 6.031l10.343 51.723a1.87 1.87 0 0 1-1.472 2.207zm-39.746-36.11c0-2.765.328-4.78.996-6.042.664-1.27 1.707-1.903 3.137-1.903 1.44 0 2.488.63 3.148 1.887.652 1.258.984 3.277.984 6.059 0 2.793-.332 4.824-.984 6.086-.66 1.27-1.707 1.898-3.149 1.898-1.43 0-2.472-.637-3.136-1.914-.668-1.273-.996-3.3-.996-6.07zm-2.758 0c0 3.38.586 5.95 1.754 7.704 1.168 1.754 2.879 2.636 5.133 2.636s3.98-.875 5.156-2.629c1.176-1.746 1.765-4.32 1.765-7.71 0-3.372-.59-5.93-1.761-7.676-1.172-1.746-2.895-2.621-5.16-2.621-2.254 0-3.965.875-5.133 2.62-1.168 1.747-1.754 4.305-1.754 7.677zm-4.586-3.636c0 1.293-.356 2.332-1.07 3.11-.72.777-1.657 1.163-2.825 1.163-1.308 0-2.332-.383-3.074-1.148-.746-.77-1.117-1.824-1.117-3.156 0-1.34.371-2.403 1.117-3.184.742-.785 1.735-1.18 2.988-1.18 1.196 0 2.157.403 2.891 1.207.727.801 1.09 1.868 1.09 3.188zm2.613 8.465h-2.64c-.094 1.043-.446 1.836-1.055 2.375-.61.543-1.45.812-2.535.812-1.453 0-2.574-.597-3.348-1.793-.773-1.195-1.23-3.008-1.36-5.433a5.584 5.584 0 0 0 2.055 1.64c.797.375 1.692.563 2.68.563 1.906 0 3.45-.606 4.617-1.813 1.172-1.21 1.758-2.812 1.758-4.789 0-1.988-.621-3.601-1.871-4.836-1.25-1.234-2.883-1.851-4.902-1.851-2.325 0-4.11.808-5.348 2.43-1.242 1.62-1.86 3.952-1.86 6.984 0 3.578.66 6.34 1.977 8.293 1.32 1.953 3.172 2.93 5.567 2.93 1.886 0 3.37-.481 4.457-1.438 1.086-.953 1.687-2.313 1.808-4.074zm31.93-21.914a3.766 3.766 0 0 0-3.68-3.016H25.84a3.762 3.762 0 0 0-3.676 3.016l-7.02 35.082c2.215.816 3.68 2.347 4.977 3.757 1.61 1.758 2.883 3.145 5.496 3.145 2.621 0 3.899-1.39 5.508-3.144 1.777-1.942 4-4.356 8.262-4.356 4.261 0 6.476 2.418 8.257 4.36 1.606 1.753 2.875 3.14 5.485 3.14 2.61 0 3.883-1.387 5.492-3.144 1.777-1.938 3.992-4.356 8.254-4.356 4.258 0 6.473 2.418 8.25 4.356 1.61 1.757 2.875 3.144 5.484 3.144 2.614 0 3.883-1.387 5.496-3.144 1.293-1.41 2.75-2.942 4.957-3.758l-7.015-35.082" style="fill:#333;fill-opacity:1;fill-rule:evenodd;stroke:none" transform="matrix(.13333 0 0 -.13333 0 9.333)"/></svg>