<svg xmlns="http://www.w3.org/2000/svg" xml:space="preserve" width="8" height="8"><path d="m36.027 28.8 21.106 21.106a3.09 3.09 0 0 1 0 4.383 3.072 3.072 0 0 1-2.094.906h-.2a3.052 3.052 0 0 1-2.081-.906l-21.11-21.11-21.117 21.11a3.063 3.063 0 0 1-2.09.906h-.199a3.07 3.07 0 0 1-2.09-.906 3.11 3.11 0 0 1-.91-2.043v-.297c.04-.742.34-1.472.91-2.043l21.11-21.105L6.152 7.68a3.071 3.071 0 0 1-.91-2.035v-.297a3.12 3.12 0 0 1 .91-2.047 3.077 3.077 0 0 1 2.18-.906c.797 0 1.598.304 2.2.906l21.105 21.11L52.757 3.3a3.086 3.086 0 0 1 2.184-.906c.797 0 1.594.304 2.192.906 1.203 1.219 1.203 3.18 0 4.379L36.027 28.8" style="fill:gray;fill-opacity:1;fill-rule:evenodd;stroke:none" transform="matrix(.13333 0 0 -.13333 0 8)"/></svg>