<svg xmlns="http://www.w3.org/2000/svg" xml:space="preserve" style="shape-rendering:geometricPrecision;text-rendering:geometricPrecision;image-rendering:optimizeQuality;fill-rule:evenodd;clip-rule:evenodd" viewBox="0 0 66.11 76.32"><path class="fil0" d="M64.05 49.26c-5.86-.11-6.65 5.9-6.65 5.9s-.79-6.01-6.65-5.9c5.86.1 6.65-5.91 6.65-5.91s.79 6.01 6.65 5.91zM9.82 40.33s-.63 4.86-5.37 4.78c4.74-.08 5.37 4.78 5.37 4.78s.64-4.86 5.38-4.78c-4.74.08-5.38-4.78-5.38-4.78zm5.22-13.64c1.04.92 1.64 2.24 1.64 3.64 0 .43-.06.87-.18 1.29a2.05 2.05 0 0 1-1.95 1.43c-.04 0-.07 0-.1-.01-1.41.05-1.72-.77-1.81-1.26-.09-.61.12-1.1.31-1.16.58-.19.96-.73.96-1.33 0-.78-.63-1.41-1.41-1.41-.15 0-.3.02-.45.07a3.734 3.734 0 0 0-2.28 3.44c0 .29.03.59.1.88a4.314 4.314 0 0 0 4.25 3.59h.46c2.07 0 3.9-1.32 4.56-3.28a6.567 6.567 0 0 0 .35-2.81c-.17-2-1.1-3.85-2.58-5.19-.11-.1-.23-.2-.35-.28a25.965 25.965 0 0 0-6.01-3.22c-4.67-2.01-7.74-3.57-7.74-6.96V8.27c0-.78.63-1.41 1.41-1.41h6.72c-.08-.94-.14-1.88-.18-2.81H4.22A4.22 4.22 0 0 0 0 8.27v5.85c0 5.49 5.01 7.65 9.44 9.55 2 .72 3.89 1.74 5.6 3.01v.01zM61.89 4.05h-6.57c-.04.93-.11 1.87-.2 2.81h6.77c.77 0 1.4.63 1.4 1.41v5.85c0 3.39-3.06 4.95-7.73 6.96-2.17.81-4.22 1.92-6.09 3.27-.1.07-.18.15-.27.22a7.91 7.91 0 0 0-2.57 5.09c-.03.24-.04.48-.04.72 0 .75.12 1.49.37 2.19.66 1.96 2.5 3.28 4.57 3.28h.21c.08.01.16.01.24.01 2.11 0 3.9-1.52 4.25-3.59a3.714 3.714 0 0 0-2.18-4.32c-.14-.05-.3-.08-.45-.08a1.412 1.412 0 0 0-.45 2.75c.2.06.41.55.31 1.15-.08.5-.41 1.31-1.8 1.27h-.1c-.89 0-1.68-.57-1.95-1.42-.12-.42-.18-.86-.18-1.3 0-1.39.6-2.72 1.64-3.64 1.71-1.27 3.6-2.29 5.6-3.01 4.43-1.9 9.44-4.06 9.44-9.55V8.27a4.22 4.22 0 0 0-4.22-4.22zM13.9 8.23c-.25-2.17-.38-4.37-.38-6.56v-.31C13.54.6 14.17 0 14.93 0h36.22c.75 0 1.38.6 1.4 1.36v.39c0 2.16-.13 4.33-.39 6.47-.67 6.55-4.05 12.78-7.01 18.28-2 3.32-3.61 6.87-4.77 10.58-.74 3.12-1.25 6.3-1.49 9.5h-11.7c-.26-3.19-.77-6.38-1.5-9.51-1.15-3.7-2.76-7.25-4.76-10.57-2.98-5.5-6.34-11.73-7.03-18.27zM37.76 31.9a1.4 1.4 0 0 0-1.4-1.41h-6.65c-.78 0-1.41.63-1.41 1.41 0 .78.63 1.41 1.41 1.41h6.65c.78 0 1.4-.63 1.4-1.41zM25.02 13.52 28 16.43l-.71 4.1c-.02.08-.02.16-.02.24a1.406 1.406 0 0 0 2.04 1.26l3.7-1.93 3.67 1.95c.2.11.42.16.64.16h.03c.29 0 .58-.09.82-.25.37-.27.58-.7.58-1.16 0-.07 0-.15-.01-.22l-.69-4.11 2.99-2.9c.27-.26.42-.63.42-1 0-.15-.02-.3-.07-.45-.16-.5-.59-.88-1.12-.95l-4.12-.61-1.83-3.75c-.25-.48-.73-.78-1.27-.79-.53 0-1.02.31-1.26.79l-1.85 3.73-4.13.57c-.53.09-.97.45-1.14.96a1.423 1.423 0 0 0 .35 1.45zm-.42 12.74c0 .78.63 1.41 1.41 1.41h14.05c.77 0 1.4-.63 1.4-1.41 0-.78-.63-1.41-1.4-1.41H26.01c-.78 0-1.41.63-1.41 1.41zm6.3-10.07-.36 2.02 1.82-.95c.21-.1.43-.16.65-.16.23 0 .46.06.66.17l1.82.96-.34-2.03a1.354 1.354 0 0 1 .41-1.23l1.47-1.44-2.04-.29c-.45-.08-.84-.37-1.05-.78l-.9-1.85-.91 1.84c-.21.41-.6.7-1.06.77l-2.04.28 1.46 1.44c.28.27.43.64.43 1.02 0 .08-.01.15-.02.23zm7.79 33.21H27.37c.04.73.06 1.35.07 1.87h11.18c.02-.52.05-1.14.07-1.87zM19.9 62.87h26.28A16.413 16.413 0 0 1 42 54.08H24.08c-.49 3.28-1.94 6.34-4.18 8.79zm34.41 4.22v9.23H13.17c-.78 0-1.41-.63-1.41-1.41v-7.82c0-.78.63-1.41 1.41-1.41H52.9c.78 0 1.41.63 1.41 1.41z"/></svg>