<svg xmlns="http://www.w3.org/2000/svg" xml:space="preserve" width="13.333" height="12"><path d="M90.8 55.55c0 12.4-10.05 22.446-22.448 22.446-8.094 0-15.16-4.297-19.11-10.723C45.293 73.7 38.22 77.996 30.125 77.996c-12.398 0-22.441-10.047-22.441-22.445 0-6.746 2.988-12.785 7.703-16.899L47.19 6.844a2.917 2.917 0 0 1 2.051-.848c.766 0 1.504.309 2.047.848l31.805 31.808c4.715 4.114 7.707 10.153 7.707 16.899z" style="fill:none;stroke:#0ff;stroke-width:4.7991;stroke-linecap:round;stroke-linejoin:miter;stroke-miterlimit:22.9256;stroke-dasharray:none;stroke-opacity:1" transform="matrix(.13333 0 0 -.13333 0 12)"/></svg>