<svg xmlns="http://www.w3.org/2000/svg" xml:space="preserve" width="9.333" height="8"><path d="M69.566 37.547c0 9.09-7.367 16.457-16.46 16.457-5.938 0-11.122-3.152-14.016-7.863-2.899 4.71-8.082 7.863-14.02 7.863-9.09 0-16.46-7.367-16.46-16.457 0-4.953 2.195-9.379 5.652-12.395L37.586 1.824a2.146 2.146 0 0 1 1.504-.62 2.14 2.14 0 0 1 1.5.62l23.324 23.328c3.461 3.016 5.652 7.442 5.652 12.395" style="fill:#0ff;fill-opacity:1;fill-rule:evenodd;stroke:none" transform="matrix(.13333 0 0 -.13333 0 8)"/></svg>