<svg xmlns="http://www.w3.org/2000/svg" viewBox="0 0 122.88 79.36" style="enable-background:new 0 0 122.88 79.36" xml:space="preserve"><path d="M11.67 0h99.56c3.21 0 6.12 1.31 8.23 3.42 2.11 2.11 3.42 5.03 3.42 8.23v56.01c0 3.21-1.31 6.12-3.42 8.23a11.628 11.628 0 0 1-8.23 3.42H37.14a2.7 2.7 0 0 1-.49.04c-.17 0-.33-.02-.49-.04H11.67c-3.21 0-6.12-1.31-8.23-3.42a11.628 11.628 0 0 1-3.42-8.23V39.52C0 39.44 0 39.35 0 39.26s0-.18.01-.26V11.66c0-3.21 1.31-6.12 3.42-8.23A11.6 11.6 0 0 1 11.67 0zM73.4 65.38a2.21 2.21 0 0 1 0-4.42h34.47a2.21 2.21 0 0 1 0 4.42H73.4zm0-10.58a2.21 2.21 0 0 1 0-4.42h17.51a2.21 2.21 0 0 1 0 4.42H73.4zM43.15 30.99c-.18.42-.4.94-.66 1.56l-.64 1.55c-.18.45-.38.94-.59 1.47 8.73-1.87 13.34-4.72 15.29-7.61.71-1.05 1.01-2.08 1-3.02-.01-.92-.31-1.8-.81-2.57-1.06-1.63-2.94-2.73-4.89-2.72-4.04.01-6.31 5.51-8.04 9.72-.27.66-.53 1.3-.66 1.62zm-3.74-6.22c2.29-5.27 5.55-10.94 12.45-10.96 3.94-.01 7.71 2.17 9.8 5.38 1.08 1.67 1.73 3.62 1.75 5.71.02 2.07-.58 4.23-1.99 6.32-1.24 1.84-3.14 3.65-5.87 5.28h61.82V11.66c0-1.69-.69-3.22-1.81-4.33s-2.65-1.81-4.33-1.81H39.41v19.25zM17.64 36.5c-2.69-1.63-4.58-3.42-5.81-5.25-1.4-2.09-2-4.25-1.99-6.32.02-2.09.67-4.04 1.75-5.71 2.09-3.22 5.86-5.39 9.8-5.38 6.95.02 10.2 5.76 12.49 11.06V5.52H11.67c-1.69 0-3.22.69-4.33 1.81a6.134 6.134 0 0 0-1.81 4.33V36.5h12.11zm13.12-3.92c-.26-.62-.47-1.14-.66-1.56-.14-.32-.4-.96-.67-1.61-1.73-4.21-4-9.71-8.04-9.73-1.95-.01-3.84 1.1-4.89 2.72-.5.77-.8 1.65-.81 2.57-.01.94.29 1.97 1 3.02 1.94 2.89 6.56 5.74 15.29 7.61l-.59-1.48-.63-1.54zM13.13 48.89c4.41.05 8.42-.74 11.94-2.53 2.12-1.07 4.08-2.51 5.88-4.34H5.53v25.64c0 1.69.69 3.22 1.81 4.33a6.134 6.134 0 0 0 4.33 1.81h22.22V47.32a27.759 27.759 0 0 1-6.18 4.27c-4.39 2.22-9.3 3.21-14.65 3.14l.07-5.84zm29.97-6.87c1.74 1.56 3.6 2.91 5.59 4.02 3.63 2.03 7.69 3.3 12.23 3.71l-.5 5.82c-5.43-.49-10.27-2-14.59-4.42a36.189 36.189 0 0 1-6.42-4.59V73.8h71.82c1.69 0 3.22-.69 4.33-1.81s1.81-2.65 1.81-4.33V42.02H43.1z"/></svg>