<svg xmlns="http://www.w3.org/2000/svg" xml:space="preserve" viewBox="0 0 8 9.333"><path d="M11.422 46.04H46.75a7.78 7.78 0 0 1 7.781 7.78 7.78 7.78 0 0 1-7.781 7.782H11.422a7.782 7.782 0 0 1 0-15.563zm35.328-3.11H11.422a7.78 7.78 0 1 1 0-15.559H46.75a7.78 7.78 0 1 1 0 15.559zM11.422 32.215a3.052 3.052 0 0 0-3.055 3.047 3.05 3.05 0 1 0 6.098 0 3.047 3.047 0 0 0-3.043-3.047zm35.328-7.852H11.422a7.78 7.78 0 0 1-7.781-7.781 7.78 7.78 0 0 1 7.78-7.781H46.75c4.3 0 7.781 3.48 7.781 7.781a7.78 7.78 0 0 1-7.781 7.781zM11.422 13.551a3.052 3.052 0 0 0-3.055 3.047c0 1.68 1.367 3.05 3.055 3.05a3.05 3.05 0 0 0 3.043-3.05 3.047 3.047 0 0 0-3.043-3.047zm0 43.328a3.046 3.046 0 0 0 3.043-3.05 3.05 3.05 0 0 0-3.043-3.052 3.056 3.056 0 0 0-3.055 3.051 3.056 3.056 0 0 0 3.055 3.05" style="fill:#0ff;fill-opacity:1;fill-rule:evenodd;stroke:none" transform="matrix(.13333 0 0 -.13333 0 9.333)"/></svg>