<svg xmlns="http://www.w3.org/2000/svg" xml:space="preserve" width="202.667" height="9.333"><path d="M594.809 35.125c0 16.57-13.434 30-30 30-7.192 0-13.731-2.52-18.899-6.734 3.945-3.805 6.953-8.567 8.567-13.953h-2.497c-1.558 4.789-4.3 9.011-7.871 12.402a30.073 30.073 0 0 1-7.82-12.39h-2.492a32.32 32.32 0 0 0 8.476 13.921c-5.156 4.172-11.668 6.754-18.816 6.754-16.566 0-30-13.43-30-30 0-16.566 13.434-30 30-30 7.148 0 13.66 2.582 18.816 6.758a32.307 32.307 0 0 0-8.476 13.918h2.492a30.073 30.073 0 0 1 7.82-12.39c3.571 3.39 6.313 7.616 7.871 12.402h2.497c-1.614-5.383-4.622-10.149-8.567-13.954 5.168-4.218 11.707-6.734 18.899-6.734 16.566 0 30 13.434 30 30zm221.14-14.098c-.031.032-.07.07-.101.094a3.258 3.258 0 0 1 1.484 2.727v4.183a3.25 3.25 0 0 1-3.254 3.254h-9.41c-2.938 0-5.148-.867-6.758-2.168-.453 1.258-1.613 2.168-3.027 2.168h-9.414c-2.594 0-4.633-.64-6.188-1.7-.562 1.009-1.578 1.7-2.793 1.7h-15.679c-1.266 0-2.332-.738-2.868-1.789-.226.16-.39.34-.625.477-2.277 1.218-4.695 1.312-7.187 1.312h-10.852c-1.265 0-2.332-.746-2.871-1.804-1.652 1.074-3.961 1.804-7.246 1.804h-15.015a3.247 3.247 0 0 1-2.383-1.035l-3.559-3.836-3.414 3.793a3.179 3.179 0 0 1-2.414 1.078H683.48a3.244 3.244 0 0 1-3.246-3.246V8.375a3.247 3.247 0 0 1 3.246-3.25h18.61c.91 0 1.769.379 2.383 1.043l3.59 3.883 3.402-3.832a3.245 3.245 0 0 1 2.426-1.086h9.136a3.245 3.245 0 0 1 3.246 3.242v3.356h2.614c3.176 0 5.472.652 7.144 1.644v-5a3.243 3.243 0 0 1 3.25-3.242h4.723a3.248 3.248 0 0 1 3.25 3.242v3.941h1.769c.43 0 .735-.011.954-.027.015-.352.015-.773.007-1.05V8.374a3.248 3.248 0 0 1 3.25-3.242h4.715c.528 0 1.004.144 1.438.367.437-.215.91-.367 1.429-.367H776.5c.512 0 .98.144 1.414.351.426-.207.891-.351 1.406-.351h9.157c2.91 0 5.285.715 7.058 1.976a3.236 3.236 0 0 1 2.985-1.976h9.152c6.656 0 10.625 3.535 10.625 9.453 0 2.742-.742 4.781-2.348 6.441zm-104.816-2.851 7.219-8.016v15.766zm58.262 40.363-3.227-7.836h6.488zm-111.547 0-3.196-7.836h6.411zm74.054-1.11c-.558.317-1.414.356-2.226.356h-5.789v-4.363h5.711c.906 0 1.668.016 2.324.402.601.32.965 1.012.965 1.867 0 .844-.375 1.453-.985 1.739zm20.137-33.812c-.574.34-1.414.356-2.242.356h-5.789v-4.414h5.707c.922 0 1.699.027 2.332.398.609.371.973 1.043.973 1.89-.012.844-.375 1.454-.981 1.77zm-22.879.364h-6.125v-5.012h6.067c1.804 0 2.929.894 2.929 2.594-.004 1.726-1.172 2.418-2.871 2.418zm-29.215-.008h-11.773v-3.575h10.312v-4.011h-10.312v-3.914h11.547l5.367 5.773zm101.254 41.156h-4.808a3.25 3.25 0 0 1-3.25-3.246v-2.031l-2.231 3.707a3.265 3.265 0 0 1-2.777 1.566h-7.16a3.243 3.243 0 0 1-3.246-3.246v-2.762L776 63.157a3.245 3.245 0 0 1-2.98 1.968h-7.04a3.196 3.196 0 0 1-1.937-.648 3.204 3.204 0 0 1-1.949.648h-4.535c-3.864 0-6.719-.938-8.825-2.762-.238 1.551-1.527 2.762-3.144 2.762h-4.801c-1.281 0-2.355-.762-2.891-1.828-.199.144-.355.32-.582.453-2.203 1.273-4.523 1.375-7.316 1.375h-10.809c-.609 0-1.14-.215-1.632-.504-.477.29-1.016.504-1.625.504h-15.696c-.66 0-1.234-.246-1.75-.586-.519.34-1.09.586-1.75.586h-7.832a3.24 3.24 0 0 1-2.984-1.984l-2.793-6.578-3.07 6.671a3.266 3.266 0 0 1-2.954 1.891h-7.667a3.244 3.244 0 0 1-3.247-3.246V59.05l-1.761 4.113a3.263 3.263 0 0 1-2.989 1.965h-6.972a3.26 3.26 0 0 1-2.989-1.969l-8.41-19.66a3.255 3.255 0 0 1 .27-3.066 3.251 3.251 0 0 1 2.715-1.457h5.105c1.301 0 2.488.789 2.988 1.996l.993 2.39h5.445l.98-2.375a3.237 3.237 0 0 1 3-2.011h9.559a3.246 3.246 0 0 1 3.246 3.246v.078l.613-1.395a3.251 3.251 0 0 1 2.969-1.93l4.129-.011c1.293 0 2.449.758 2.969 1.933l.621 1.395v-.082a3.245 3.245 0 0 1 3.246-3.242h4.82c.66 0 1.231.25 1.75.586.516-.336 1.086-.586 1.75-.586h15.696c.609 0 1.148.215 1.625.5.488-.285 1.023-.5 1.632-.5h4.704a3.24 3.24 0 0 1 3.242 3.246v3.906h1.801c.402 0 .691-.012.91-.027.019-.332.015-.727.015-.992l-.008-.434.02-2.48a3.25 3.25 0 0 1 3.246-3.22h4.742c.532 0 1.012.165 1.453.391.45-.23.934-.39 1.473-.39h4.797c1.574 0 2.82 1.137 3.125 2.617 2.664-2.238 6.414-2.617 8.504-2.617h5.504c1.312 0 2.5.808 2.992 2.031l.957 2.356h5.414l.996-2.387a3.24 3.24 0 0 1 2.996-1.992h9.559a3.242 3.242 0 0 1 3.246 3.242v3.101l2.883-4.777a3.249 3.249 0 0 1 2.785-1.566h6.652a3.242 3.242 0 0 1 3.246 3.242v19.664a3.25 3.25 0 0 1-3.246 3.246zM696.734 42.223h-4.82l-.016 15.398-6.816-15.398h-4.129l-6.824 15.414V42.223h-9.566l-1.805 4.386h-9.781l-1.825-4.386h-5.105l8.414 19.66h6.973l8-18.617v18.617h7.671l6.149-13.336 5.644 13.336h7.836zm19.196 15.566h-10.996v-3.543h10.734V50.22h-10.734v-3.93h10.996v-4.066h-15.696v19.66h15.696zm18.82-6.445c1.027-.395 1.906-1.086 2.324-1.653.668-.98.781-1.851.781-3.609v-3.855h-4.742l-.019 2.48c0 1.18.113 2.879-.739 3.828-.687.692-1.734.84-3.429.84h-5.035v-7.152h-4.707v19.66h10.808c2.403 0 4.172-.063 5.688-.942 1.488-.879 2.379-2.164 2.379-4.359 0-3.133-2.094-4.754-3.309-5.238zm10.84-9.121h-4.801v19.66h4.801zm55.609 0h-6.656l-8.91 14.758V42.223h-9.563l-1.836 4.386h-9.761l-1.77-4.386h-5.5c-2.281 0-5.164.504-6.801 2.172-1.664 1.671-2.519 3.933-2.519 7.507 0 2.914.515 5.582 2.515 7.692 1.516 1.57 3.891 2.289 7.137 2.289h4.539v-4.211h-4.453c-1.707 0-2.68-.254-3.609-1.164-.805-.828-1.348-2.395-1.348-4.457 0-2.102.418-3.621 1.297-4.614.727-.777 2.047-1.011 3.273-1.011h2.11l6.636 15.457h7.04l7.953-18.594v18.594h7.16l8.258-13.692v13.692h4.808zm-41.937 12.199-2.043-4.758c-.449 0-.754.05-.922.094-.156.293-.371.941-.371 2.289 0 1.363.328 2.07.371 2.133.137.133.25.246 1.351.246zM728.891 14.98h-5.864V8.383h-9.132l-5.79 6.508-6.015-6.508h-18.61V28.05h18.895l5.789-6.45 5.977 6.45h15.011c3.731 0 7.922-1.047 7.922-6.488 0-5.457-4.074-6.59-8.183-6.582zm25.984 2.53c1.039-.378 1.895-1.074 2.293-1.652.668-.96.754-1.851.777-3.586V8.375h-4.715v2.46c0 1.18.114 2.938-.765 3.852-.672.7-1.715.864-3.442.864h-5.015V8.375h-4.723v19.664h10.856c2.375 0 4.101-.102 5.652-.926 1.477-.89 2.414-2.125 2.414-4.363 0-3.14-2.102-4.742-3.332-5.238zm21.621 6.462h-11.008v-3.579h10.735V16.38h-10.735v-3.902l11.008-.024V8.375h-15.683v19.664h15.683zm11.981-15.575h-9.149v4.223h9.11c.886 0 1.519.11 1.917.488.321.301.547.75.547 1.286 0 .57-.242 1.02-.57 1.296-.367.301-.852.438-1.676.438-4.386.14-9.894-.137-9.894 6.078 0 2.863 1.789 5.856 6.718 5.856h9.415v-4.184h-8.622c-.855 0-1.414-.035-1.878-.36-.52-.324-.715-.792-.715-1.417 0-.743.437-1.239 1.027-1.465.504-.172 1.031-.223 1.832-.223l2.524-.074c2.546-.067 4.3-.508 5.359-1.582.926-.95 1.41-2.152 1.41-4.168 0-4.238-2.633-6.215-7.355-6.192zm19.199 0h-9.149v4.223h9.114c.886 0 1.519.11 1.914.488.32.301.547.75.547 1.286 0 .57-.239 1.02-.571 1.296-.363.301-.843.438-1.672.438-4.394.14-9.898-.137-9.898 6.078 0 2.863 1.789 5.856 6.719 5.856h9.418v-4.184h-8.618c-.867 0-1.421-.035-1.886-.36-.52-.324-.707-.792-.707-1.417 0-.743.437-1.239 1.019-1.465.508-.172 1.032-.223 1.836-.223l2.52-.074c2.554-.067 4.308-.508 5.367-1.582.918-.95 1.41-2.152 1.41-4.168 0-4.238-2.641-6.215-7.363-6.192zm489.904 56.73h-13.24c0-10.862-4.98-20.772-13.65-27.3l-5.22-3.918 20.3-27.656h16.68l-18.7 25.46c8.84 8.782 13.83 20.653 13.83 33.415zm209.01-17.093c-1.6 0-2.9-1.304-2.9-2.91.06-1.602 1.3-2.906 2.9-2.906a2.908 2.908 0 1 1 0 5.816zm0-5.281c-1.3 0-2.31 1.066-2.31 2.371 0 1.309 1.07 2.375 2.31 2.375 1.31 0 2.32-1.066 2.32-2.375 0-1.305-1.07-2.371-2.32-2.371zm4.81-22.078c-4.21 0-7.65-3.442-7.65-7.656 0-4.215 3.44-7.657 7.65-7.657 4.22 0 7.66 3.442 7.66 7.657a7.636 7.636 0 0 1-7.66 7.656zm-261.12 44.453h13.53V6.254h-13.53zm56.08 0h12.76V6.254h-12.76zm124.69-17.035c-4.87 0-9.5-1.485-12.59-5.7v4.57h-12.1V6.255h12.28V27.62c0 6.168 4.16 9.195 9.15 9.195 5.34 0 8.42-3.203 8.42-9.136V6.195h12.17V32.13c0 9.496-7.54 15.965-17.33 15.965zm-73.35-1.13v-2.608c-3.45 2.375-7.6 3.738-12.11 3.738-11.87 0-21.48-9.613-21.48-21.485 0-11.867 9.61-21.484 21.48-21.484 4.51 0 8.66 1.367 12.11 3.738v-2.61h12.16v40.712Zm-11.1-30.8c-6.12 0-11.04 4.688-11.04 10.445 0 5.758 4.92 10.446 11.04 10.446 6.11 0 11.04-4.688 11.04-10.446 0-5.757-4.93-10.445-11.04-10.445zm42.14 25.52v5.28h-12.47V6.255h12.53v18.992c0 6.41 6.93 9.852 11.74 9.852h.12v11.867c-4.93 0-9.49-2.133-11.92-5.281zm97.5 5.28v-2.608c-3.44 2.375-7.6 3.738-12.11 3.738-11.86 0-21.48-9.613-21.48-21.485 0-11.867 9.62-21.484 21.48-21.484 4.51 0 8.67 1.367 12.11 3.738v-2.61h12.17v40.712Zm-11.1-30.8c-6.11 0-11.03 4.688-11.03 10.445 0 5.758 4.92 10.446 11.03 10.446 6.12 0 11.04-4.688 11.04-10.446.06-5.757-4.92-10.445-11.04-10.445zm32.7 29.617c0 .594-.41.95-1.07.95h-1.13v-3.087h.54v1.13h.59l.48-1.13h.59l-.53 1.247c.35.175.53.472.53.89zm-1.07-.476h-.59v.949h.59c.36 0 .54-.18.54-.473 0-.297-.12-.476-.54-.476zm-383.01-9.5v-17.61h-5.5v43.461h14.59c3.52.07 6.94-1.281 9.44-3.777 4.98-4.711 5.29-12.648.61-17.746-.2-.207-.41-.414-.61-.621-2.57-2.461-5.71-3.707-9.44-3.707zm-45.85 19.441a13.15 13.15 0 0 0 9.43-3.746l7.04 7.14c-4.48 4.231-10.35 6.551-16.47 6.485-9.3 0-17.8-5.34-21.97-13.762a25.058 25.058 0 0 1 0-22.39v-.032c4.17-8.425 12.67-13.726 21.97-13.726 6.63 0 12.23 2.215 16.3 6.027 4.65 4.332 7.31 10.746 7.31 18.375 0 1.696-.14 3.395-.41 5.059h-23.2v-9.602h13.29c-.54-3.086-2.32-5.855-4.92-7.59-2.22-1.527-5.06-2.394-8.37-2.394-6.43 0-11.86 4.402-13.8 10.293a15.192 15.192 0 0 0-.01 9.543l.01-.012c1.94 5.934 7.37 10.332 13.8 10.332zm124.37-7.312L1183.9 5.125h-5.67l6.83 14.973L1173 47.934h5.98l8.71-21.352h.1l8.51 21.352zm-43.36.968c4.07 0 7.28-1.105 9.64-3.293 2.36-2.18 3.52-5.23 3.52-9.082V18.195h-5.26v4.121h-.24c-2.29-3.394-5.3-5.093-9.09-5.093-3.21 0-5.95.972-8.1 2.91a9.28 9.28 0 0 0-3.25 7.281c0 3.086 1.17 5.508 3.46 7.348 2.29 1.836 5.36 2.734 9.19 2.734 3.28 0 5.94-.617 8.06-1.797v1.281a6.55 6.55 0 0 1-2.26 4.958 7.9 7.9 0 0 1-5.29 2.046c-3.07 0-5.5-1.32-7.28-3.957l-4.85 3.09c2.6 3.844 6.53 5.785 11.75 5.785zm-7.1-21.593c0-1.457.68-2.809 1.81-3.637 1.23-.973 2.73-1.492 4.27-1.457 2.32 0 4.54.933 6.18 2.597 1.81 1.735 2.74 3.778 2.74 6.137-1.71 1.383-4.11 2.082-7.18 2.043-2.22 0-4.1-.555-5.6-1.629-1.47-1.074-2.22-2.422-2.22-4.054zm-28.06 29.011V41.14h9.23c2.05-.07 4.03.762 5.43 2.25 2.87 3.016 2.8 7.872-.17 10.782a7.441 7.441 0 0 1-5.26 2.148zm-234.322 1.067c-1.715-2.024-4.454-3.621-7.196-3.395-.344 2.742.996 5.653 2.567 7.45 1.714 2.085 4.711 3.57 7.136 3.683.285-2.856-.828-5.652-2.507-7.738zm2.48-3.938c-3.969.23-7.363-2.25-9.246-2.25-1.914 0-4.797 2.137-7.938 2.082-4.082-.058-7.875-2.37-9.961-6.054-4.281-7.364-1.113-18.266 3.024-24.258 2.031-2.969 4.453-6.223 7.652-6.11 3.028.118 4.223 1.97 7.875 1.97 3.688 0 4.742-1.97 7.938-1.915 3.312.063 5.394 2.969 7.422 5.938 2.308 3.37 3.254 6.648 3.308 6.824-.054.055-6.39 2.48-6.445 9.789-.063 6.11 4.992 9.02 5.219 9.191-2.856 4.223-7.309 4.68-8.848 4.793zm22.918 8.278V17.23h6.906v15.214h9.567c8.734 0 14.867 5.993 14.867 14.672 0 8.676-6.02 14.61-14.641 14.61zm6.906-5.82h7.965c5.992 0 9.422-3.2 9.422-8.821 0-5.621-3.43-8.848-9.449-8.848h-7.938zm37.051-39.02c4.34 0 8.363 2.199 10.191 5.68h.141V17.23h6.395v22.148c0 6.426-5.137 10.559-13.043 10.559-7.336 0-12.758-4.196-12.961-9.958h6.222c.516 2.739 3.055 4.536 6.539 4.536 4.223 0 6.59-1.97 6.59-5.594v-2.457l-8.617-.512c-8.02-.484-12.359-3.77-12.359-9.476 0-5.766 4.48-9.59 10.902-9.59zm1.855 5.277c-3.683 0-6.019 1.774-6.019 4.484 0 2.801 2.254 4.426 6.562 4.68l7.676.485v-2.508c0-4.168-3.539-7.14-8.219-7.14zm23.407-17.039c6.734 0 9.906 2.574 12.672 10.363l12.133 34.024h-7.02l-8.137-26.285h-.14l-8.137 26.285h-7.223l11.703-32.399-.629-1.965c-1.054-3.34-2.769-4.628-5.82-4.628-.547 0-1.602.058-2.027.117V5.3c.398-.117 2.109-.176 2.625-.176ZM283.773 53.027l6.582-47.058h16.129l30.086 58.258h-16.972l-12.77-27.008a285.913 285.913 0 0 1-4.695-10.496c-.254 3.32-.524 6.539-.848 9.843l-2.625 27.66h-25.777l26.844-21.195ZM412.426 5.97l6.527 14.226h13.141l1.133-14.226h15.789l-6.828 58.258h-17.641L396.168 5.969Zm15.855 36c.625 1.308 1.239 2.793 1.832 4.351.129-1.386.223-2.675.297-3.812l.918-9.945h-7.379zM357.055 9.383c3.554-2.649 9.82-4.258 16.726-4.258 14.371 0 23.996 8.113 23.996 20.195 0 6.606-3.836 11.82-11.754 15.977-4.429 2.476-7.125 4.152-7.125 6.258 0 1.957 2.079 4.086 6.954 4.086 4.777 0 8.437-1.86 9.101-2.23l1.738-.962 4.844 13.012-1.285.691c-3.609 2.004-8.113 2.973-13.758 2.973-13.754 0-23.351-8.02-23.351-19.523 0-8.34 6.55-12.989 12.316-16.079 5.426-2.8 6.488-4.406 6.488-6.238 0-3.484-3.789-4.75-7.031-4.75-4.23 0-8.609 1.219-12.074 3.27l-1.703 1.039-5.125-12.645zm-8.907-3.414 11.059 58.258h-15.168L332.953 5.969ZM33.519 43.285c-1.824-1.34-4.363-2.008-7.636-2.008H24.41c-1.316 0-2.12 1.036-1.836 2.305l1.82 7.844c.254 1.254 1.575 2.3 2.872 2.289l1.98.012c2.309 0 4.07-.399 5.25-1.172 1.168-.766 1.75-1.985 1.738-3.598.04-2.453-.898-4.34-2.715-5.672zm83.149 8.25c-1.43-.015-7.238 0-7.238 0-1.297 0-2.973-1.05-3.797-2.304 0 0-8.645-14.836-9.485-16.329l-1 .016-2.691 16.215c-.3 1.27-1.633 2.363-3.289 2.363l-5.41-.008c-1.301 0-2.098-1.043-1.805-2.304 0 0 4.106-23.371 4.926-28.871.383-3.036-.047-3.575-.047-3.575l-5.348-9.312c-.789-1.27-.363-2.301.934-2.301l6.254.008c1.297 0 3.012 1.023 3.785 2.297l24.047 40.68c0-.004 2.312 3.472.164 3.425zm91.262 7.13c.277 1.265-.516 2.288-1.813 2.269h-5.41c-1.105 0-2.105-.82-2.594-1.832l-.297-.465-.273-1.2-7.559-34.355-.246-1.055.008-.027c-.25-1.129.445-1.98 1.516-2.144l.093-.126h5.614c1.101 0 2.133.832 2.605 1.864l.289.437 8.082 36.63zm-64.785-15.536c-1.821-1.313-4.364-1.98-7.614-1.98h-1.504c-1.297-.012-2.136 1.039-1.847 2.3l1.832 7.832c.265 1.25 1.574 2.305 2.883 2.29l1.957.015c2.32-.016 4.062-.398 5.25-1.172 1.183-.773 1.738-1.988 1.753-3.598.012-2.453-.894-4.343-2.71-5.687zm13.019 12.086c-.758 1.46-1.891 2.644-3.32 3.57-1.469.914-3.215 1.555-5.25 1.926-2 .355-4.387.55-7.098.55l-12.625-.007c-1.316-.023-2.578-1.04-2.879-2.297L116.5 22c-.309-1.254.539-2.29 1.82-2.29l6.047.009c1.281-.008 2.598 1.02 2.903 2.285l2.043 8.973c.3 1.25 1.593 2.3 2.902 2.292h1.73c7.391 0 13.118 1.52 17.246 4.532 4.071 3.05 6.137 7.035 6.137 11.992-.023 2.16-.398 3.984-1.164 5.422zm19.418-26.594-.98-1.25-2.352-1.219c-1.117-.449-2.184-.683-3.145-.683-1.539 0-2.667.219-3.433.66l-1.18 2.254c0 1.234.285 2.195.863 2.957.583.715 1.477 1.305 2.586 1.734 1.082.371 2.418.672 3.973.895 1.371.168 4.086.492 4.441.5l.426-.738c-.062-.419-.84-3.641-1.199-5.11zm9.711 21.422c-2.289 1.285-5.883 1.93-10.785 1.93-2.434 0-4.86-.188-7.301-.578-1.809-.266-1.988-.32-3.105-.56-2.289-.5-2.649-2.8-2.649-2.8l-.738-3.031c-.414-1.938.68-1.848 1.191-1.7 1 .302 1.547.594 3.574 1.067 1.95.442 4.032.766 5.668.758 2.407 0 4.25-.258 5.477-.781 1.223-.528 1.824-1.442 1.824-2.735l-.094-.851-.863-.547c-3.457-.211-5.937-.527-8.91-.961-2.926-.41-5.512-1.121-7.66-2.11-2.293-1.011-4.016-2.37-5.195-4.101-1.168-1.738-1.739-3.844-1.739-6.29 0-2.343.832-4.265 2.477-5.741 1.637-1.453 3.769-2.188 6.348-2.188 1.625.02 2.886.125 3.785.356l2.914.996 2.5 1.37 2.261 1.524.036-.05-.204-.977-.023-.016.008-.02c-.274-1.175.441-2.152 1.601-2.257l.012-.02h5.602l.093.028c1.192.144 2.317 1.113 2.567 2.281l4.414 19.023.238 1.56.121 1.46c.004 2.691-1.144 4.684-3.445 5.961zM65.914 28.648l-.941-1.238-2.371-1.226c-1.121-.457-2.18-.684-3.157-.684-1.488 0-2.652.219-3.441.652l-1.164 2.266c0 1.226.281 2.2.883 2.95l2.558 1.738c1.098.37 2.434.683 3.98.898 1.38.168 4.106.484 4.462.492l.418-.734c-.082-.418-.856-3.653-1.227-5.114zm9.73 21.422c-2.277 1.286-5.867 1.926-10.785 1.926-2.43 0-4.855-.187-7.3-.566-1.809-.278-1.989-.332-3.098-.574-2.297-.5-2.656-2.79-2.656-2.79l-.739-3.039c-.414-1.941.7-1.867 1.164-1.703 1.004.301 1.563.61 3.614 1.067 1.953.441 4.015.777 5.656.754 2.41 0 4.258-.254 5.488-.774 1.211-.527 1.817-1.43 1.817-2.742l-.102-.856-.871-.535c-3.43-.215-5.902-.531-8.902-.965-2.938-.414-5.516-1.125-7.657-2.109-2.296-1.012-4.004-2.371-5.195-4.098-1.152-1.734-1.73-3.843-1.73-6.312 0-2.324.836-4.25 2.457-5.73 1.632-1.461 3.789-2.176 6.363-2.176 1.633.008 2.894.14 3.789.351l2.926 1.008 2.476 1.371 2.274 1.504.031-.043-.227-.969-.011-.039v-.011c-.25-1.176.465-2.141 1.61-2.254l.023-.032h5.605l.078.04c1.207.136 2.332 1.105 2.598 2.257l4.402 19.051.227 1.55.11 1.458c.019 2.7-1.15 4.703-3.435 5.98zm152.34 12.95-1.441.597-1.063-.215-1.082-.73-.628.7-1.02.241-.98-.215-.926-.601v.652h-.985v-5.87h.977v4.386l.824.508.817.203.668-.121.328-.34.148-.559.043-.726v-3.356h.984v3.754l-.015.316-.02.282.836.535.824.207.649-.121.351-.336.122-.567.066-.718V57.57h.988v3.813zm-9.359-4.516-.379-.113-.504-.075-.621.098-.316.309-.145.484-.008.723v2.687h2.016v.832h-2.016v1.676h-1v-1.676h-.675v-.832h.675v-3.125l.469-1.547 1.367-.492.578.047.61.121v.883zM46.539 55.352c-.727 1.453-1.871 2.656-3.297 3.554-1.488.91-3.238 1.551-5.25 1.926-2.035.367-4.394.54-7.125.566l-12.605-.011c-1.309-.016-2.594-1.035-2.903-2.305L6.88 22.141a2.376 2.376 0 0 1-.063-.512c-.003-1.008.762-1.781 1.887-1.781h6.035c1.313 0 2.61 1.015 2.899 2.293l2.074 8.968c.277 1.25 1.57 2.293 2.89 2.293h1.731c7.379.008 13.098 1.516 17.203 4.54C45.66 40.964 47.7 44.96 47.7 49.913c-.004 2.164-.363 3.984-1.16 5.438zm526.223-27.258 2.07 11.105h2.621l.27-1.094c.472.547 1.367 1.094 2.894 1.094l-.82-2.89c-.742 0-2.152.191-3.051-3.133l-.937-5.082zm-26.973-.004 2.051 10.988h2.594l.269-1.086c.465.547 1.356 1.086 2.863 1.086l-.777-2.902c-.73 0-2.168.23-3.059-3.059l-.925-5.027zm18.793 10.793-.465-2.399c.738.078 2.711.387 3.758.352 1.047-.043 2.203.113 1.855-1.55-.773-.075-6.191.773-7.039-3.868-.351-2.285 1.622-3.45 3.172-3.367 1.547.078 1.973.27 2.512.656l.391-.617h2.82l1.203 6.035c.309 1.512.813 5.148-4.258 5.148-.929-.039-1.972 0-3.949-.39zm4.648-5.84c-.503.074-1.628.387-2.593-.27-.973-.66-1.239-1.82-.235-2.21.969-.372 2.399.269 2.594 1.28zm18.918 4.875c-.578.426-.929 1.316-2.359 1.316-1.664 0-4.254.309-5.726-4.722-.981-3.364 1.007-6.422 3.171-6.422 1.008.039 2.012.46 2.633.89l.387-.89h3.25l2.633 14.086h-3.176zm-1.082-4.527c.309 1.007.141 2.261-.191 2.707-.93 1.238-3.066.257-3.715-2.164-.426-1.586.5-2.79 1.547-2.79 1.121 0 1.816.891 2.359 2.247zm-24.648 4.992c-.773.465-1.316.539-2.32.539-1.004 0-3.25-.961-3.68-3.676-.5-3.21 1.703-4.797 4.801-3.754l.89-2.707c-1.007-.465-2.011-.695-3.675-.695-3.133 0-6.543 2.785-4.993 8.437 1.141 4.16 4.723 5.684 6.809 5.61 2.477-.094 3.367-.93 4.141-1.782zm-48.914.5-.465-2.399c.734.078 2.711.387 3.758.352 1.043-.043 2.203.113 1.855-1.55-.773-.075-6.191.773-7.043-3.868-.347-2.285 1.625-3.45 3.176-3.367 1.547.078 1.973.27 2.512.656l.391-.617h2.824l1.199 6.035c.309 1.512.812 5.148-4.258 5.148-.93-.039-1.976 0-3.949-.39zm4.648-5.84c-.507.074-1.629.387-2.597-.27-.965-.66-1.235-1.82-.231-2.21.969-.372 2.399.269 2.594 1.28zm-7.976-4.953 2.515 13.387h-4.953l-3.675-8.125-.583 8.125h-4.835l-2.594-13.387h3.023l1.856 9.676.812-9.676h2.863l4.219 9.437-1.781-9.437zm19.582 8.512.695 2.246c-1.43.539-2.555.425-2.98.425-.422 0-4.047.043-4.602-2.632-.426-2.051.324-2.899 1.043-3.211 1.164-.508 1.82-.97 2.438-1.278.765-.383.628-1.664-.387-1.664-.465 0-2.477-.234-3.985.27l-.425-2.281c1.394-.387 2.511-.387 3.562-.387.735 0 4.332-.196 4.832 3.133.246 1.625-.465 2.359-1.043 2.71-.582.387-1.547.926-2.164 1.196-.621.273-1.086 1.316.035 1.629.696.078 2.129.078 2.981-.156zm15.945-3.559c.348 1.777 1.156 6.191-4.144 6.191-4.875 0-5.493-4.836-5.61-5.535-.113-.695-.195-5.61 5.031-5.61 1.278-.038 3.133.114 3.868.5l.465 2.286c-.465-.117-2.204-.27-3.403-.27-1.199 0-3.137-.078-2.789 2.438zm-6.387 2.012h3.75c.196 1.082-.152 2.011-1.351 2.011s-2.051-.62-2.399-2.011zm-6.695 6.964h3.02l-.621-2.94h1.625l-.543-2.4h-1.547l-.848-4.488c-.156-.851-.078-1.629 1.664-1.355l-.195-2.246c-.656-.422-1.547-.54-2.246-.54-.692 0-2.981.427-2.395 3.442l2.086 10.527" style="fill:gray;fill-opacity:1;fill-rule:evenodd;stroke:none" transform="matrix(.13333 0 0 -.13333 0 9.333)"/></svg>