<svg xmlns="http://www.w3.org/2000/svg" width="300" height="79.884"><defs><clipPath id="a"><path d="M0 55.435h216V.06H0v55.375z"/></clipPath></defs><path d="M0 0a15.542 15.542 0 0 0-2.335-1.202c-1.098-.443-2.139-.675-3.102-.675-1.478 0-2.614.209-3.382.656C-9.588-.797-9.991-.06-9.978.995c0 1.218.281 2.163.863 2.904.586.713 1.457 1.287 2.537 1.715 1.074.364 2.395.664 3.92.879 1.356.171 4.037.48 4.38.482.343.003.571.192.418-.722-.068-.397-.842-3.575-1.197-5.02C.84.8.264.169 0 0zm10.522 22.336c-2.258 1.26-5.79 1.897-10.623 1.897-2.39 0-4.792-.192-7.202-.566-1.769-.271-1.951-.316-3.05-.555-2.261-.492-2.61-2.756-2.61-2.756l-.726-2.986c-.412-1.91.676-1.831 1.161-1.683.987.298 1.522.594 3.536 1.05 1.925.437 3.959.764 5.582.751 2.38 0 4.19-.261 5.393-.763 1.204-.525 1.8-1.419 1.8-2.698.004-.304.012-.591-.098-.842-.099-.234-.289-.46-.858-.537-3.397-.202-5.835-.512-8.771-.94-2.897-.408-5.432-1.107-7.551-2.075-2.259-1.002-3.949-2.343-5.114-4.042-1.134-1.707-1.704-3.774-1.707-6.209 0-2.301.827-4.178 2.427-5.635 1.619-1.438 3.725-2.15 6.273-2.15 1.592.011 2.838.126 3.731.349.884.223 1.848.54 2.866.981.761.318 1.582.778 2.449 1.355.868.579 1.469.99 2.24 1.495l.028-.048-.217-.957c-.001-.009-.014-.014-.014-.023l.007-.018c-.248-1.153.445-2.112 1.587-2.225l.014-.02h.101l.004-.005c.758 0 3.36.001 4.576.005h.849c.056 0 .062.017.084.03 1.166.143 2.284 1.093 2.547 2.233l4.343 18.745c.1.441.179.95.226 1.536.054.592.118 1.079.099 1.431.01 2.653-1.13 4.614-3.382 5.875" style="fill:#369;fill-opacity:1;fill-rule:nonzero;stroke:none" transform="matrix(1.37037 0 0 -1.37037 228.487 47.942)"/><g clip-path="url(#a)" transform="matrix(1.37037 0 0 -1.37037 2 77.966)"><path d="M0 0c-1.274 0-2.945-1.031-3.736-2.277 0 0-8.522-14.61-9.359-16.07-.455-.785-.916-.286-.993.006-.062.355-2.641 15.968-2.641 15.968-.29 1.257-1.603 2.336-3.245 2.331l-5.314-.008c-1.281 0-2.08-1.026-1.795-2.266 0 0 4.062-23.024 4.854-28.439.395-2.995-.041-3.526-.041-3.526l-5.266-9.182c-.771-1.245-.349-2.265.926-2.265l6.158.005c1.275 0 2.964 1.015 3.723 2.262L6.961-3.394S9.227.029 7.137 0C5.712-.02 0 0 0 0" style="fill:#1c3664;fill-opacity:1;fill-rule:nonzero;stroke:none" transform="translate(101.082 45.728)"/><path d="M0 0c-.739 1.442-1.847 2.613-3.261 3.497-1.467.905-3.173 1.529-5.162 1.905-2.001.359-4.338.535-7.019.559l-12.414-.009c-1.29-.015-2.554-1.027-2.852-2.267l-8.371-36.391c-.288-1.245.518-2.274 1.803-2.274h5.947c1.286 0 2.56 1.002 2.849 2.274l2.049 8.831c.274 1.235 1.545 2.257 2.834 2.257h1.7c7.273.007 12.914 1.495 16.968 4.473 4.048 2.972 6.073 6.912 6.063 11.784C1.144-3.221.773-1.43 0 0m-12.841-11.89c-1.793-1.311-4.278-1.968-7.504-1.968h-1.458c-1.285 0-2.096 1.019-1.813 2.271l1.79 7.714c.273 1.243 1.555 2.274 2.84 2.262l1.946.012c2.273 0 4.001-.389 5.167-1.163 1.149-.753 1.733-1.942 1.713-3.541.034-2.408-.879-4.272-2.681-5.587" style="fill:#1c3664;fill-opacity:1;fill-rule:nonzero;stroke:none" transform="translate(39.137 49.474)"/></g><path d="M0 0c-.741 1.442-1.86 2.603-3.275 3.507-1.451.902-3.175 1.531-5.171 1.898-1.974.346-4.321.544-6.995.55l-12.442-.006c-1.281-.022-2.538-1.028-2.834-2.267l-8.365-36.402c-.305-1.237.527-2.268 1.785-2.261l5.97.011c1.266-.011 2.556 1.013 2.855 2.25l2.018 8.834c.283 1.238 1.57 2.275 2.857 2.257h1.697c7.282 0 12.928 1.496 16.971 4.474 4.033 2.993 6.063 6.919 6.063 11.802C1.121-3.221.758-1.425 0 0m-12.836-11.906c-1.782-1.296-4.283-1.946-7.501-1.946h-1.48c-1.28-.015-2.107 1.02-1.803 2.261l1.784 7.726c.266 1.222 1.565 2.262 2.827 2.252l1.955.01c2.282-.01 3.989-.392 5.168-1.151 1.159-.768 1.721-1.959 1.73-3.546.005-2.419-.89-4.28-2.68-5.606" style="fill:#369;fill-opacity:1;fill-rule:nonzero;stroke:none" transform="matrix(1.37037 0 0 -1.37037 203.592 10.351)"/><path d="M0 0a15.62 15.62 0 0 0-2.334-1.201c-1.098-.441-2.144-.675-3.104-.675-1.474 0-2.613.21-3.382.655-.768.425-1.173 1.162-1.16 2.218 0 1.215.284 2.163.865 2.903.587.714 1.454 1.289 2.534 1.716 1.077.366 2.402.662 3.922.877 1.356.171 4.04.479 4.382.484.34.001.569.192.416-.722-.066-.397-.841-3.577-1.196-5.021C.836.799.26.168 0 0zm10.522 22.337C8.264 23.597 4.733 24.233-.1 24.233c-2.391 0-4.792-.19-7.203-.565-1.772-.269-1.95-.315-3.05-.554-2.262-.494-2.61-2.756-2.61-2.756l-.726-2.988c-.411-1.909.678-1.83 1.161-1.682.985.298 1.523.593 3.537 1.051 1.922.435 3.959.761 5.58.75 2.382 0 4.19-.26 5.393-.762 1.205-.525 1.798-1.421 1.798-2.699.008-.304.014-.592-.093-.841-.101-.236-.293-.461-.862-.537-3.393-.205-5.83-.514-8.771-.942-2.897-.408-5.431-1.107-7.551-2.074-2.259-1.002-3.947-2.345-5.11-4.043-1.138-1.706-1.707-3.773-1.709-6.209 0-2.3.828-4.178 2.426-5.634 1.62-1.438 3.724-2.151 6.272-2.151 1.593.011 2.838.128 3.734.349.883.225 1.848.54 2.862.981.764.318 1.583.78 2.451 1.356.866.578 1.47.989 2.244 1.494l.024-.047-.217-.956c-.002-.009-.014-.015-.014-.026l.009-.015c-.248-1.156.443-2.114 1.586-2.225l.014-.022h.1l.003-.007c.76 0 3.363.004 4.576.007h.85c.057 0 .065.019.083.031 1.169.147 2.283 1.095 2.549 2.231l4.343 18.747c.098.44.178.949.222 1.534.058.595.121 1.08.104 1.431.01 2.655-1.132 4.616-3.383 5.877" style="fill:#1c3664;fill-opacity:1;fill-rule:nonzero;stroke:none" transform="matrix(1.37037 0 0 -1.37037 80.495 47.903)"/><path d="M0 0h-5.321l-.008-.001-.003.001C-6.55 0-7.786-.933-8.131-2.12c-.014-.048-.038-.094-.049-.144l-.347-1.58-7.309-33.13a65.147 65.147 0 0 0-.316-1.364l.014-.018c-.253-1.158.443-2.116 1.586-2.223l.015-.022h5.523c1.21 0 2.438.924 2.794 2.096.017.057.044.11.057.167L1.81-2.262l-.012.004C2.069-1.024 1.274 0 0 0" style="fill:#369;fill-opacity:1;fill-rule:nonzero;stroke:none" transform="matrix(1.37037 0 0 -1.37037 271.004 2.6)"/><path d="M0 0a5.187 5.187 0 0 0-1.173-.166c-.594 0-1.042.16-1.349.477-.308.318-.461.828-.461 1.529v3.077h-.659v.82h.659V7.4h.973V5.737H0v-.82h-2.01V2.28c0-.303.009-.541.021-.712.015-.172.063-.331.146-.479A.684.684 0 0 1-1.53.786c.134-.065.337-.097.61-.097.158 0 .324.024.498.071.171.046.296.085.372.116H0V0" style="fill:#369;fill-opacity:1;fill-rule:nonzero;stroke:none" transform="matrix(1.37037 0 0 -1.37037 284.81 12.666)"/><path d="M0 0h-.973v3.296c0 .248-.012.489-.035.72a1.568 1.568 0 0 1-.143.555.782.782 0 0 1-.342.336c-.149.076-.362.114-.642.114-.274 0-.545-.068-.819-.205a4.955 4.955 0 0 1-.818-.52 4.862 4.862 0 0 0 .036-.591V0h-.973v3.296c0 .256-.013.498-.035.728a1.53 1.53 0 0 1-.142.551.784.784 0 0 1-.344.335c-.148.074-.362.111-.642.111-.266 0-.531-.066-.8-.197a4.782 4.782 0 0 1-.801-.502V0h-.975v5.788h.975v-.642c.305.252.608.449.91.591.304.14.623.212.966.212.393 0 .728-.083 1.003-.248.274-.167.479-.396.614-.69.393.332.753.572 1.078.718.324.146.671.22 1.041.22.636 0 1.105-.193 1.407-.577.302-.386.454-.924.454-1.615V0" style="fill:#369;fill-opacity:1;fill-rule:nonzero;stroke:none" transform="matrix(1.37037 0 0 -1.37037 298 12.735)"/></svg>