<svg xmlns="http://www.w3.org/2000/svg" xml:space="preserve" style="shape-rendering:geometricPrecision;text-rendering:geometricPrecision;image-rendering:optimizeQuality;fill-rule:evenodd;clip-rule:evenodd" viewBox="0 0 5966 7707"><path d="M5966 2536c0 1736-965 3033-2388 3033-478-1-928-258-1082-552 0 0-257 1020-312 1217-191 695-755 1391-798 1449-31 39-99 27-106-26-12-88-155-966 13-1683 85-359 569-2413 569-2413s-141-281-141-699c0-656 381-1146 854-1146 403 0 597 302 597 664 0 405-258 1010-391 1572-111 468 236 852 699 852 839 0 1403-1078 1403-2354 0-970-653-1696-1842-1696-1342 0-2179 1001-2179 2120 0 385 113 657 292 868 81 97 93 136 64 247-22 82-70 278-91 355-29 112-120 153-221 111C288 4202-1 3525-1 2764-1 1506 1060-1 3163-1c1690 0 2802 1223 2802 2536z" style="fill:#333"/></svg>