<svg xmlns="http://www.w3.org/2000/svg" xml:space="preserve" style="shape-rendering:geometricPrecision;text-rendering:geometricPrecision;image-rendering:optimizeQuality;fill-rule:evenodd;clip-rule:evenodd" viewBox="0 0 403.49 329.38"><path class="fil0" d="M43.22 0C19.39 0 0 19.5 0 43.46v175.2c0 23.97 19.39 43.47 43.22 43.47h200.45c2.1 0 4.13.74 5.74 2.11l76.84 65.14v-58.29c0-4.95 3.99-8.96 8.91-8.96h25.11c23.83 0 43.22-19.5 43.22-43.46V43.46C403.49 19.5 384.1 0 360.27 0H43.22zm302.07 82.44H58.2c-4.92 0-8.91-4.02-8.91-8.96 0-4.95 3.99-8.97 8.91-8.97h287.09c4.92 0 8.91 4.02 8.91 8.97 0 4.94-3.99 8.96-8.91 8.96zm0 114.77H58.2c-4.92 0-8.91-4.01-8.91-8.96 0-4.95 3.99-8.96 8.91-8.96h287.09c4.92 0 8.91 4.01 8.91 8.96 0 4.95-3.99 8.96-8.91 8.96zm0-57.38H58.2c-4.92 0-8.91-4.02-8.91-8.97 0-4.95 3.99-8.96 8.91-8.96h287.09c4.92 0 8.91 4.01 8.91 8.96 0 4.95-3.99 8.97-8.91 8.97z"/></svg>