<svg xmlns="http://www.w3.org/2000/svg" xml:space="preserve" viewBox="0 0 16 16"><path d="m2.655 4.647 11.358-2.919-.095-.444c-.107-.455-.531-.752-.985-.758h-.025a1.08 1.08 0 0 0-.228.028l-9.39 2.41c-.54.127-.858.699-.731 1.238Zm10.312 3.046c0-.572-.445-1.015-1.016-1.015H2.242c-.57 0-1.015.443-1.015 1.015v6.218c0 .572.444 1.015 1.015 1.015h9.709c.571 0 1.016-.443 1.016-1.015zm-10.629.73c0-.255.22-.476.476-.476h5.394c.252 0 .475.221.475.475a.489.489 0 0 1-.475.476H2.814a.487.487 0 0 1-.476-.476zm6.122 5.584a1.626 1.626 0 0 1-1.617-1.619c0-.887.73-1.586 1.617-1.586.89 0 1.62.73 1.62 1.62 0 .887-.73 1.585-1.62 1.585zm3.491-1.586c0 .888-.73 1.618-1.618 1.618-.096 0-.223 0-.317-.032.412-.413.635-.952.635-1.586a2.31 2.31 0 0 0-.635-1.587c.094-.032.19-.032.317-.032.92 0 1.618.73 1.618 1.62zm2.791-3.872c.54-.127.857-.698.731-1.238l-.92-3.615-7.931 2.029h5.361c1.078 0 1.966.89 1.966 1.968V8.77l.793-.222"/></svg>