<svg xmlns="http://www.w3.org/2000/svg" xml:space="preserve" style="shape-rendering:geometricPrecision;text-rendering:geometricPrecision;image-rendering:optimizeQuality;fill-rule:evenodd;clip-rule:evenodd" viewBox="0 0 1845.42 3283.67"><path d="M639.67 0c316.49 0 573.07 256.58 573.07 573.07 0 244.67-153.33 453.47-369.15 535.66v263.69c35.64-47.67 88.57-77.98 147.67-77.98 73.91 0 138.17 47.14 170.98 116.56 32.82-69.42 97.05-116.56 170.96-116.56 107.29 0 194.25 99.34 194.25 221.91v8.92c29.34-58.52 84.43-98.04 147.67-98.04 94.03 0 170.22 87.04 170.3 194.43v1236.63c0 234.87-160.88 425.38-359.19 425.38H811.82c-114.96 0-197.78-69.62-264.96-168.14C476.99 3013.02 24 2061.99 24 2061.99c-51.63-107.48-17.14-242.3 76.88-301.28 29.64-18.51 61.7-27.35 93.27-27.35 68.65 0 135.17 41.76 170.45 115.36l90.52 188.64v-921.6C229.17 1038.93 66.6 825 66.6 573.07 66.6 256.58 323.17 0 639.67 0zm203.92 923.29V684.14c0-122.57-86.96-221.91-194.25-221.91-107.28 0-194.22 99.36-194.22 221.91v249.77c-131.01-67.13-220.66-203.52-220.66-360.84 0-223.79 181.42-405.24 405.21-405.24 223.78 0 405.23 181.45 405.23 405.24 0 149.45-80.92 279.97-201.31 350.22z" style="fill:#0ff"/></svg>