<svg xmlns="http://www.w3.org/2000/svg" xml:space="preserve" width="597.683" height="369.087" style="shape-rendering:geometricPrecision;text-rendering:geometricPrecision;image-rendering:optimizeQuality;fill-rule:evenodd;clip-rule:evenodd" viewBox="0 0 57376 35431"><defs><style>.fil0{fill:#333}</style></defs><g id="Слой_x0020_1"><g id="_500948784"><path class="fil0" d="M26914 19090H13V0h26901z"/><path d="m2212 745 251 774h814l-658 478 251 774-658-478-658 478 251-774-658-478h813l251-774zm22522 15023 251 774h813l-658 478 251 774-658-478-658 478 251-774-658-478h813l251-774zm-4579 0 251 774h813l-658 478 251 774-658-478-658 478 251-774-658-478h813l251-774zm-4454 0 251 774h813l-658 478 251 774-658-478-658 478 251-774-658-478h813l251-774zm-4454 0 251 774h813l-658 478 251 774-658-478-658 478 251-774-658-478h813l251-774zm-4454 0 251 774h813l-658 478 251 774-658-478-658 478 251-774-658-478h813l251-774zm-4580 0 251 774h814l-658 478 251 774-658-478-658 478 251-774-658-478h813l251-774zm22522-3756 251 774h813l-658 478 251 774-658-478-658 478 251-774-658-478h813l251-774zM4501 14038l251 774h813l-658 478 251 774-658-478-658 478 251-774-658-478h813l251-774zm4467 0 251 774h813l-658 478 251 774-658-478-658 478 251-774-658-478h814l251-774zm4592 0 251 774h813l-658 478 251 774-658-478-658 478 251-774-658-478h813l251-774zm4466 0 251 774h813l-658 478 251 774-658-478-658 478 251-774-658-478h813l251-774zm4466 0 251 774h813l-658 478 251 774-658-478-658 478 251-774-658-478h814l251-774zm-2337-2026 251 774h813l-658 478 251 774-658-478-658 478 251-774-658-478h813l251-774zm-4454 0 251 774h813l-658 478 251 774-658-478-658 478 251-774-658-478h813l251-774zm-4454 0 251 774h813l-658 478 251 774-658-478-658 478 251-774-658-478h813l251-774zm-4454 0 251 774h813l-658 478 251 774-658-478-658 478 251-774-658-478h813l251-774zm-4580 0 251 774h814l-658 478 251 774-658-478-658 478 251-774-658-478h813l251-774zm22522-3756 251 774h813l-658 478 251 774-658-478-658 478 251-774-658-478h813l251-774zM4501 10282l251 774h813l-658 478 251 774-658-478-658 478 251-774-658-478h813l251-774zm4467 0 251 774h813l-658 478 251 774-658-478-658 478 251-774-658-478h814l251-774zm4592 0 251 774h813l-658 478 251 774-658-478-658 478 251-774-658-478h813l251-774zm4466 0 251 774h813l-658 478 251 774-658-478-658 478 251-774-658-478h813l251-774zm4466 0 251 774h813l-658 478 251 774-658-478-658 478 251-774-658-478h814l251-774zm-2337-2026 251 774h813l-658 478 251 774-658-478-658 478 251-774-658-478h813l251-774zm-4454 0 251 774h813l-658 478 251 774-658-478-658 478 251-774-658-478h813l251-774zm-4454 0 251 774h813l-658 478 251 774-658-478-658 478 251-774-658-478h813l251-774zm-4454 0 251 774h813l-658 478 251 774-658-478-658 478 251-774-658-478h813l251-774zm-4580 0 251 774h814l-658 478 251 774-658-478-658 478 251-774-658-478h813l251-774zm22522-3756 251 774h813l-658 478 251 774-658-478-658 478 251-774-658-478h813l251-774zM4501 6526l251 774h813l-658 478 251 774-658-478-658 478 251-774-658-478h813l251-774zm4467 0 251 774h813l-658 478 251 774-658-478-658 478 251-774-658-478h814l251-774zm4592 0 251 774h813l-658 478 251 774-658-478-658 478 251-774-658-478h813l251-774zm4466 0 251 774h813l-658 478 251 774-658-478-658 478 251-774-658-478h813l251-774zm4466 0 251 774h813l-658 478 251 774-658-478-658 478 251-774-658-478h814l251-774zm-2337-2026 251 774h813l-658 478 251 774-658-478-658 478 251-774-658-478h813l251-774zm-4454 0 251 774h813l-658 478 251 774-658-478-658 478 251-774-658-478h813l251-774zm-4454 0 251 774h813l-658 478 251 774-658-478-658 478 251-774-658-478h813l251-774zm-4454 0 251 774h813l-658 478 251 774-658-478-658 478 251-774-658-478h813l251-774zm-4580 0 251 774h814l-658 478 251 774-658-478-658 478 251-774-658-478h813l251-774zM24735 744l251 774h813l-658 478 251 774-658-478-658 478 251-774-658-478h813l251-774zM4501 2770l251 774h813l-658 478 251 774-658-478-658 478 251-774-658-478h813l251-774zm4467 0 251 774h813l-658 478 251 774-658-478-658 478 251-774-658-478h814l251-774zm4592 0 251 774h813l-658 478 251 774-658-478-658 478 251-774-658-478h813l251-774zm4466 0 251 774h813l-658 478 251 774-658-478-658 478 251-774-658-478h813l251-774zm4466 0 251 774h813l-658 478 251 774-658-478-658 478 251-774-658-478h814l251-774zM20155 744l251 774h813l-658 478 251 774-658-478-658 478 251-774-658-478h813l251-774zm-4454 0 251 774h813l-658 478 251 774-658-478-658 478 251-774-658-478h813l251-774zm-4454 0 251 774h813l-658 478 251 774-658-478-658 478 251-774-658-478h813l251-774zm-4454 0 251 774h813l-658 478 251 774-658-478-658 478 251-774-658-478h813l251-774z" style="fill:#fefefe"/><path class="fil0" d="M57376 2771H26915V0h30461v2771zm0 32661H0v-2771h57376v2771zm0-5472H0v-2771h57376v2771zm0-5472H0v-2771h57376v2771zm0-5397H26915v-2771h30461v2771zm0-5397H26915v-2771h30461v2771zm0-5409H26915V5514h30461v2771z"/></g></g></svg>