<svg xmlns="http://www.w3.org/2000/svg" xml:space="preserve" width="5.333" height="5.333"><path d="M19.395 33.316c10.605 0 19.203-8.597 19.203-19.195 0-5.094-1.985-9.723-5.22-13.156-.26 2.047-1.358 4-2.397 5.074-1.258 1.305-3.657 2.926-5.66 2.926-.505 0-.301-.078-.516-.574l-.09-.223a9.574 9.574 0 0 0-.227-.398c-1.742-2.372-9.789-2.758-10.71 1.195-1.157 0-2.485-.492-3.321-.895C8.043 6.906 5.785 4.062 5.41.965A19.14 19.14 0 0 0 .191 14.12c0 10.598 8.598 19.195 19.203 19.195zM11.594 18.48c0-6.168 7.125-16.332 13.261-7.027 2.356 3.574 3.618 8.82.2 12.215-.805.793-1.032 1.082-2.121 1.629a8.05 8.05 0 0 1-2.836.828h-1.41c-3.895-.363-7.094-3.73-7.094-7.645Zm1.25-1.25c0 1.852.941 3.797 2.027 4.524.723-3.102 7.328-2.02 9.508-1.84.953.078 1.57-1.441 1.57-2.684 0-3.16-3.355-8.265-6.555-8.265-3.175 0-6.55 5.125-6.55 8.265" style="fill:#333;fill-opacity:1;fill-rule:evenodd;stroke:none" transform="matrix(.13333 0 0 -.13333 0 5.333)"/></svg>