<svg xmlns="http://www.w3.org/2000/svg" xml:space="preserve" viewBox="0 0 954.66 954.66"><path class="fil0" d="M55.82 611.51c10.42-3.57 21.96-.86 29.74 6.92l48.07 48.04 176.44-176.44c11.27-11.24 29.54-11.24 40.78 0l113.77 113.78c11.24 11.24 11.24 29.51 0 40.78L288.19 821.03l48.04 48.07c7.78 7.78 10.48 19.32 6.91 29.73a28.868 28.868 0 0 1-23.68 19.28L32.48 954.42a28.725 28.725 0 0 1-24.02-8.23C2.15 939.92-.9 931.04.23 922.17l36.31-286.98a28.882 28.882 0 0 1 19.28-23.68zm843.01-268.37c-10.41 3.57-21.95.87-29.73-6.91l-48.07-48.04-176.44 176.43c-11.27 11.24-29.54 11.24-40.78 0L490.03 350.85c-11.24-11.24-11.24-29.51 0-40.78l176.44-176.44-48.04-48.07c-7.78-7.78-10.49-19.32-6.92-29.74a28.882 28.882 0 0 1 23.68-19.28L922.17.23c8.87-1.13 17.75 1.92 24.02 8.23a28.725 28.725 0 0 1 8.23 24.02l-36.31 286.98a28.868 28.868 0 0 1-19.28 23.68z"/></svg>