<svg version="1.1" id="Layer_1" xmlns="http://www.w3.org/2000/svg" x="0" y="0" viewBox="0 0 431 89.5" style="enable-background:new 0 0 431 89.5" xml:space="preserve"><style>.st1{fill:#808080}</style><path class="st1" d="M217 29.7c4 4.1 6.3 9.5 6.3 15.2S221.1 56 217 60.1c-4 4-9.4 6.2-15.2 6.2-3.8 0-7.2-1.3-10.2-4l-.5-.4V86l-10.9 3.4V24.3h10.9v3.2l.5-.5c3.2-3.1 6.9-3.6 10.2-3.6 5.7.1 11.1 2.3 15.2 6.3zm-4.6 15.2c0-5.9-4.9-10.9-10.6-10.9s-10.6 5-10.6 10.9c0 5.8 4.9 10.9 10.6 10.9s10.6-5 10.6-10.9zm21.1 15.2c-4-4.1-6.3-9.5-6.3-15.2s2.2-11.1 6.3-15.2c4-4 9.4-6.2 15.2-6.2 3.8 0 7.2 1.3 10.2 4l.5.4v-3.6h10.9v41.2h-10.9v-3.2l-.5.5c-3.2 3.1-6.9 3.6-10.2 3.6-5.7-.1-11.1-2.2-15.2-6.3zm4.6-15.2c0 5.9 4.9 10.9 10.6 10.9 5.8 0 10.6-5 10.6-10.9 0-5.8-4.9-10.9-10.6-10.9-5.8 0-10.6 5.1-10.6 10.9z"/><path class="st1" d="M233.5 60.1c-4-4.1-6.3-9.5-6.3-15.2s2.2-11.1 6.3-15.2c4-4 9.4-6.2 15.2-6.2 3.8 0 7.2 1.3 10.2 4l.5.4v-3.6h10.9v41.2h-10.9v-3.2l-.5.5c-3.2 3.1-6.9 3.6-10.2 3.6-5.7-.1-11.1-2.2-15.2-6.3zm4.6-15.2c0 5.9 4.9 10.9 10.6 10.9 5.8 0 10.6-5 10.6-10.9 0-5.8-4.9-10.9-10.6-10.9-5.8 0-10.6 5.1-10.6 10.9zm43 44.6 9.8-23.8-16.5-41.3h12.1L296.8 50l10.4-25.6h12l-26.3 65.2h-11.8z"/><path class="st1" d="m281.1 89.5 9.8-23.8-16.5-41.3h12.1L296.8 50l10.4-25.6h12l-26.3 65.2h-11.8zm-260-23.6c-5.6 0-10.9-2.2-14.9-6.1-4-4-6.1-9.3-6.1-14.9S2.2 34 6.1 30c4-3.9 9.3-6 14.9-6 5.7 0 10.5 3 13.5 5.5l.9.7v-5.4h6.7V65h-6.7v-5.4l-.9.7c-2.9 2.6-7.7 5.6-13.4 5.6zm0-35.5c-7.9 0-14.4 6.5-14.4 14.5s6.5 14.5 14.4 14.5 14.4-6.5 14.4-14.5S29 30.4 21.1 30.4zM54.2 65V31.2h-6.1v-6.3h6.1V13c0-7.3 5.8-13 13.1-13h8.4L74 6.3h-6.5c-3.5 0-6.7 3.2-6.7 6.8v11.7h12.7v6.3H60.9V65h-6.7zm44.6 0c-7.3 0-13.1-5.9-13.1-13.1V31.2h-6.1v-6.3h6.1V0h6.7v24.8H105v6.3H92.3v20.5c0 3.7 3.2 7 6.7 7h6.5l1.7 6.3h-8.4zm28.7.7c-5.2 0-10-2.2-13.5-6.1-3.2-3.5-5.1-7.9-5.4-12.6-.1-.6-.1-1.2-.1-1.9 0-1.6.2-3.2.5-4.7.8-3.6 2.5-7 5-9.7 3.5-3.8 8.4-6 13.6-6 5.2 0 10 2.1 13.7 6 2.6 2.9 4.3 6.2 5 9.7.5 3.1.5 5 .5 5.9H115v.7c.9 7.1 6.3 12.5 12.5 12.6 3.8-.2 7.6-1.7 10.2-4.2l5.6 3.3c-1.5 1.6-3.1 2.9-4.9 4-3.2 1.8-6.9 2.8-10.9 3zm0-35c-5.2 0-10 3.7-11.9 9.3l-.1.1-.4.8h24.8l-.5-.9c-1.8-5.6-6.6-9.3-11.9-9.3zM153.2 65V24.8h6.7v5.1l.9-1c2.4-2.6 9.3-4.7 14-4.9l-1.6 6.7c-7.3.2-13.3 5.9-13.3 12.9V65h-6.7z"/><path d="M376.8 35.7c4-2.3 7.7-4.5 11.7-6.8-1.3-2.3-1-1.7-2.2-3.9-1.2-2.3-.8-3.2 1.8-3.2 7.5-.1 15-.1 22.5 0 2.2 0 2.8 1 1.6 2.9-3.7 6.5-7.5 13-11.2 19.5-1.2 2.1-2.3 2.1-3.5 0-1.3-2.1-1-1.6-2.3-3.9-3.9 2.3-7.8 4.5-11.7 6.8.2.6.5 1 .8 1.4 2.9 5 4.2 7.4 7.2 12.4 3.5 5.9 10.9 6.2 15.2.8.5-.6.9-1.2 1.3-1.9 7.1-12.3 14.2-24.5 21.2-36.8.7-1.2 1.4-2.6 1.7-4 1.2-5.5-2.9-10.8-8.6-10.8-15.2-.1-30.4-.1-45.5 0-6.9.1-11.1 7-8 13.1 1 2 2.2 3.9 3.3 5.8 1.9 3.7 2.4 4.6 4.7 8.6z" style="fill:#2a78ac"/><path d="M343.1 73.6V60.1h-4.4c-2.6 0-3.1-.9-1.8-3.1 3.7-6.5 7.4-12.9 11.2-19.3 1.1-1.9 2.1-2.1 3.3 0 3.7 6.5 7.5 12.9 11.1 19.4 1.2 2.1.6 3-1.7 3h-4.5v13.5h15.8c6.8-.1 10.8-6.3 8.2-12.6-.3-.7-.6-1.4-1-2-7-12.2-14-24.4-21-36.5-.7-1.2-1.6-2.5-2.6-3.4-4.1-3.8-10.7-2.9-13.6 2-7.6 13-15.2 26-22.6 39.1-3.4 6 .5 13 7.2 13.4 2.2.1 11.6 0 16.4 0z" style="fill:#124678"/></svg>