<svg xmlns="http://www.w3.org/2000/svg" xml:space="preserve" viewBox="0 0 6.667 9.333"><path d="M26.027 60.176c6.664 0 12.067-4.582 12.079-10.235h4.105c2.836 0 5.156-2.32 5.156-5.16V12.535c0-2.84-2.32-5.16-5.156-5.16H9.844c-2.836 0-5.156 2.32-5.156 5.16v32.246c0 2.84 2.32 5.16 5.156 5.16h4.105c.016 5.653 5.418 10.235 12.078 10.235zM16.773 49.94h18.508c-.011 4.328-4.152 7.832-9.254 7.832-5.101 0-9.242-3.504-9.254-7.832" style="fill:gray;fill-opacity:1;fill-rule:evenodd;stroke:none" transform="matrix(.13333 0 0 -.13333 0 9.333)"/></svg>