<svg xmlns="http://www.w3.org/2000/svg" xml:space="preserve" style="shape-rendering:geometricPrecision;text-rendering:geometricPrecision;image-rendering:optimizeQuality;fill-rule:evenodd;clip-rule:evenodd" viewBox="0 0 831.32 831.32"><path d="M415.66 0C186.47 0 0 186.47 0 415.66c0 229.21 186.47 415.66 415.66 415.66 229.21 0 415.66-186.45 415.66-415.66C831.32 186.47 644.87 0 415.66 0zm195.66 263.16L403.29 569.73 240.7 418.84c-7.32-6.78-7.76-18.22-.96-25.54 6.78-7.33 18.24-7.73 25.54-.95l131.74 122.23 184.39-271.73c5.62-8.26 16.87-10.39 25.11-4.81 8.27 5.61 10.42 16.85 4.8 25.12z" style="fill:#333;fill-rule:nonzero;fill-opacity:.501961"/></svg>