<svg xmlns="http://www.w3.org/2000/svg" xml:space="preserve" viewBox="0 0 538.96 859.54"><path class="fil0" d="M73.51 310.72c0 55.62 38.95 102.12 91.06 113.87a83.35 83.35 0 0 1 5.09-8.42c17.2-25.09 40.53-29.65 48.43-30.35 3.15-.35 6.31-.53 9.47-.53 11.23 0 26.49 2.11 42.28 10.53 22.63-21.23 36.85-51.59 36.85-85.1 0-64.39-52.29-116.67-116.68-116.67-64.39 0-116.5 52.28-116.5 116.67zm444.25 167.56c-9.65-7.54-110.36-119.31-137.56-135.1V53.16C380.2 23.69 356.34 0 327.04 0H53.16C23.69 0 0 23.86 0 53.16v507.76c0 29.47 23.86 53.16 53.16 53.16h119.31l-4.91-41.76c-1.58-1.4-2.63-2.28-4.21-3.68h-52.64c1.75-7.02 2.28-14.74.88-22.63-3.86-21.94-21.23-39.66-43.16-43.69-8.08-1.58-15.97-1.06-23.16.7V107.73c3.16.52 6.49.87 9.82.87 29.83 0 53.86-24.21 53.86-53.86 0-3.16-.35-6.31-.87-9.47H271.6c-.53 3.16-.88 6.31-.88 9.47 0 29.83 24.04 53.86 53.87 53.86 3.33 0 6.66-.35 9.82-.87v496.7c-18.6-13.69-39.3-56.5-39.3-56.5s-10.18-113.86-67.9-113.86c-1.58 0-2.98 0-4.56.17 0 0-43.69 3.69-7.55 128.61l16.15 138.78s18.07 75.27 67.89 127.38v15.44c0 8.24 6.67 15.09 15.09 15.09h162.29c7.72 0 14.04-5.79 14.92-13.34 5.79-54.04 28.24-254.93 41.4-285.46 2.11-4.91 3.86-9.82 4.56-15.09 2.99-17.19 4.04-48.77-19.64-67.37zm-289.5-337.39c0-17.83-14.45-32.28-32.28-32.28-17.83 0-32.28 14.45-32.28 32.28 0 17.83 14.45 32.28 32.28 32.28 17.83 0 32.28-14.45 32.28-32.28zM120.18 300.37c7.02 0 7.2 0 8.25-7.01.88-5.45 2.46-10.53 4.56-15.62 1.23-2.81 3.16-3.86 5.97-2.98 4.38 1.23 8.59 2.45 12.98 3.86 4.04 1.23 4.56 2.63 2.81 6.49-3.86 7.89-5.44 15.97-4.92 24.74.18 2.28.35 4.56 1.41 6.49 3.33 7.54 11.58 8.59 16.67 2.28 2.63-3.16 4.38-6.84 5.96-10.7 2.81-6.67 5.44-13.34 8.77-19.48 11.06-20 36.15-25.44 53.34-11.23 6.14 5.09 10.35 11.76 12.46 19.48.88 3.33 2.63 4.91 6.14 4.73 3.51-.17 6.84 0 10.35 0 3.16 0 4.74 1.58 4.74 4.57.17 3.68.17 7.37 0 11.05 0 3.33-1.93 4.74-5.09 4.74h-7.54c-5.62 0-5.8.17-6.67 5.61-1.05 6.84-2.63 13.51-5.61 19.83-2.46 4.91-3.69 5.44-8.78 4.03-3.86-1.05-7.72-2.1-11.4-3.33-4.39-1.41-4.91-2.63-2.81-6.67 3.68-6.84 5.62-14.21 6.67-21.93.7-4.91.17-9.82-1.93-14.39-3.69-8.59-13.69-10-19.65-2.63-2.11 2.46-3.51 5.26-4.74 8.25-3.33 7.54-5.79 15.44-10 22.46-6.84 11.58-16.32 18.77-30.35 17.89-15.79-.88-25.79-10-31.06-24.39-2.1-5.96-2.1-5.96-8.42-6.14h-6.32c-4.73-.17-5.61-.87-5.61-5.61v-4.39c-.18-9.82-.18-9.82 9.82-10z"/></svg>