<svg xmlns="http://www.w3.org/2000/svg" xml:space="preserve" style="shape-rendering:geometricPrecision;text-rendering:geometricPrecision;image-rendering:optimizeQuality;fill-rule:evenodd;clip-rule:evenodd" viewBox="0 0 302.87 238.2"><path class="fil0" d="M246.71 86.42C246.71 38.76 191.31 0 123.35 0 55.3 0 0 38.76 0 86.42c0 27.07 17.4 51.91 47.76 68.45-5.03 18.56-13.15 42.43-23.79 55.19-.67.88-.87 2.03-.29 3.1.49.87 1.45 1.45 2.42 1.45h.29c2.32-.19 56.55-5.61 91.26-41.76 1.93.09 3.87.09 5.8.09 68.06 0 123.35-38.76 123.35-86.52h-.09zm56.06 23.59c0-31.71-24.45-59.45-60.9-74.53 13.63 15.47 21.56 33.83 21.56 53.55 0 54.72-61.1 99.28-136.21 99.28h-.1c15.86 5.22 33.64 8.22 52.3 8.22 1.94 0 3.87 0 5.8-.1 34.71 36.16 88.94 41.57 91.26 41.77h.29c1.06 0 1.93-.58 2.42-1.45.48-.97.38-2.23-.29-3-10.54-12.76-18.66-36.64-23.78-55.2 30.35-16.53 47.75-41.28 47.75-68.35l-.1-.19z"/></svg>