<svg xmlns="http://www.w3.org/2000/svg" xml:space="preserve" viewBox="0 0 9.333 9.333"><path d="M62.504 43.715c0 9.09-7.367 16.46-16.461 16.46-5.934 0-11.117-3.152-14.012-7.863-2.898 4.711-8.082 7.864-14.02 7.864-9.09 0-16.46-7.371-16.46-16.461 0-4.95 2.195-9.375 5.652-12.39l23.324-23.33a2.122 2.122 0 0 1 1.504-.621 2.12 2.12 0 0 1 1.5.621l23.325 23.328c3.456 3.016 5.648 7.442 5.648 12.39" style="fill:gray;fill-opacity:1;fill-rule:evenodd;stroke:none" transform="matrix(.13333 0 0 -.13333 0 9.333)"/></svg>