<svg xmlns="http://www.w3.org/2000/svg" xml:space="preserve" viewBox="0 0 8 8"><path d="M5.914 39.926a13.21 13.21 0 0 1 1.164-2.758l-1.398-1.77a1.446 1.446 0 0 1 .105-1.921L8.2 31.059a1.446 1.446 0 0 1 1.922-.106l1.758 1.39a12.85 12.85 0 0 1 2.867-1.21l.262-2.262a1.448 1.448 0 0 1 1.437-1.281h3.418c.73 0 1.348.547 1.438 1.281l.25 2.18c1.074.277 2.105.699 3.074 1.238l1.7-1.344a1.455 1.455 0 0 1 1.921.11l2.414 2.414c.52.523.567 1.347.11 1.926l-1.325 1.675c.551.95.98 1.961 1.27 3.02l2.035.238a1.442 1.442 0 0 1 1.281 1.434v3.418c0 .73-.547 1.347-1.281 1.433l-2.008.235a12.598 12.598 0 0 1-1.215 2.988l1.239 1.562a1.45 1.45 0 0 1-.114 1.922l-2.406 2.41a1.442 1.442 0 0 1-1.922.11l-1.52-1.2a12.756 12.756 0 0 1-3.14 1.313l-.226 1.961A1.449 1.449 0 0 1 20 59.2h-3.418c-.73 0-1.348-.55-1.434-1.285l-.23-1.96a12.591 12.591 0 0 1-3.223-1.364l-1.574 1.25a1.45 1.45 0 0 1-1.922-.11l-2.414-2.414a1.441 1.441 0 0 1-.105-1.922l1.312-1.663a12.43 12.43 0 0 1-1.187-3.016l-2.11-.242a1.452 1.452 0 0 1-1.28-1.438v-3.414c0-.734.55-1.355 1.28-1.437zm8.23-20.77a1.428 1.428 0 0 1-1.28-1.406l-.016-1.445a1.43 1.43 0 0 1 1.246-1.438l1.066-.137c.176-.648.43-1.265.754-1.847l-.687-.848a1.423 1.423 0 0 1 .086-1.898l1.011-1.04a1.434 1.434 0 0 1 1.903-.128l.851.656a8.323 8.323 0 0 1 1.902-.832l.114-1.094A1.425 1.425 0 0 1 22.5 6.418l1.45-.02a1.42 1.42 0 0 1 1.433 1.247l.137 1.043a8.498 8.498 0 0 1 2.054.8l.805-.644a1.423 1.423 0 0 1 1.898.082l1.035 1.015c.52.508.579 1.32.133 1.899l-.613.797a8.31 8.31 0 0 1 .871 2.004l.95.093a1.43 1.43 0 0 1 1.28 1.407l.016 1.449a1.424 1.424 0 0 1-1.246 1.437l-.926.121a8.75 8.75 0 0 1-.785 2.004l.578.707a1.423 1.423 0 0 1-.086 1.899l-1.011 1.039a1.425 1.425 0 0 1-1.899.129l-.695-.531a8.295 8.295 0 0 1-2.082.902l-.094.898a1.425 1.425 0 0 1-1.402 1.285l-1.45.016a1.424 1.424 0 0 1-1.437-1.246l-.113-.895a8.66 8.66 0 0 1-2.156-.878l-.72.582a1.427 1.427 0 0 1-1.898-.086l-1.043-1.02a1.43 1.43 0 0 1-.132-1.898l.613-.79a8.283 8.283 0 0 1-.817-2.003zm9.348 1.64a3.768 3.768 0 0 0 3.719-3.812 3.768 3.768 0 0 0-3.813-3.718 3.77 3.77 0 0 0-3.718 3.812 3.77 3.77 0 0 0 3.812 3.719zm28.574 18.29-1.8 1.523a1.436 1.436 0 0 1-1.903-.054l-.992-.934c-.844.41-1.734.695-2.656.86l-.281 1.375a1.432 1.432 0 0 1-1.524 1.14l-2.347-.2a1.428 1.428 0 0 1-1.313-1.378l-.047-1.395a10.29 10.29 0 0 1-2.535-1.336l-1.188.794a1.432 1.432 0 0 1-1.882-.27l-1.524-1.816a1.422 1.422 0 0 1 .051-1.899l1.043-1.11a10.708 10.708 0 0 1-.77-2.538l-1.488-.305a1.448 1.448 0 0 1-1.144-1.524l.203-2.351a1.43 1.43 0 0 1 1.379-1.309l1.609-.05c.29-.77.672-1.496 1.137-2.176l-.899-1.36a1.424 1.424 0 0 1 .27-1.878l1.8-1.524a1.432 1.432 0 0 1 1.903.05l1.176 1.106c.773-.359 1.59-.629 2.422-.793l.324-1.609a1.447 1.447 0 0 1 1.523-1.148l2.352.203a1.433 1.433 0 0 1 1.312 1.379l.051 1.578c.856.304 1.672.715 2.422 1.226l1.297-.86a1.432 1.432 0 0 1 1.883.27l1.523 1.805c.469.55.445 1.371-.05 1.899l-1.051 1.105c.386.816.664 1.676.828 2.555l1.43.293c.706.14 1.203.8 1.14 1.523l-.195 2.348a1.431 1.431 0 0 1-1.383 1.312l-1.434.047a10.47 10.47 0 0 1-1.195 2.36l.781 1.175a1.424 1.424 0 0 1-.258 1.89zm-8.863-13.598a4.625 4.625 0 0 0-4.996 4.219 4.62 4.62 0 0 0 4.219 4.992 4.625 4.625 0 0 0 4.996-4.218 4.62 4.62 0 0 0-4.219-4.993zm-24.91 23.68a5.656 5.656 0 0 0 5.648-5.649 5.656 5.656 0 0 0-5.648-5.648 5.659 5.659 0 0 0-5.649 5.648 5.66 5.66 0 0 0 5.649 5.649" style="fill:#0ff;fill-opacity:1;fill-rule:evenodd;stroke:none" transform="matrix(.13333 0 0 -.13333 0 8)"/></svg>