<svg xmlns="http://www.w3.org/2000/svg" xml:space="preserve" viewBox="0 0 5.333 6.667"><path d="m.95 3.118.628-.16a.25.25 0 0 0 .158-.123c.098-.169.33-.492.806-.763.18-.101.329-.18.461-.245.338-.171.542-.27.846-.646.131-.162.258-.248.387-.255a.324.324 0 0 1 .242.094.47.47 0 0 1 .127.424c-.045.224-.13.523-.276.661-.145.134-.485.393-.684.543l.6.26c.044.016.08.048.116.078l.09.1c.087.091.112.22.068.342l-.09.249a.576.576 0 0 1-.046.091l.098.143c.063.09.076.202.04.303l-.058.159a.36.36 0 0 1-.128.17.197.197 0 0 1 .008.158l-.077.212a.384.384 0 0 1-.286.243l-.092.021-.075.206a.275.275 0 0 1-.176.17l-.444.15a.404.404 0 0 1-.331-.03c-.044-.01-.347-.067-.655-.178-.216-.08-.431-.181-.563-.313a.836.836 0 0 1-.057-.057c-.127-.016-.647-.068-.944.154a.1.1 0 0 1-.083.012.107.107 0 0 1-.038-.026c-.03-.035-.02-.091.014-.12.273-.207.673-.218.908-.204-.137-.218-.14-.387-.145-.394 0-.049.036-.083.085-.084.048 0 .083.036.083.084 0 0 .013.245.29.52.163.162.508.287.78.362l-.176-.142a.323.323 0 0 1-.099-.354l.056-.153a.217.217 0 0 1 .11-.123.246.246 0 0 1-.002-.174l.065-.18a.255.255 0 0 1 .136-.143c-.005-.02-.011-.034-.014-.059-.174.099-.47.206-.824.09a.083.083 0 0 1-.051-.108.083.083 0 0 1 .108-.051c.438.147.78-.148.81-.18l.026-.073a.277.277 0 0 1 .147-.157.27.27 0 0 1-.009-.207l.057-.154a.27.27 0 0 1 .274-.176l.636.046a.284.284 0 0 0 .102-.016.082.082 0 0 1 .112.04.081.081 0 0 1-.041.111.364.364 0 0 1-.187.034l-.636-.045a.097.097 0 0 0-.102.064l-.056.154a.123.123 0 0 0 .002.079.11.11 0 0 0 .06.051l.03.012.56.191a.282.282 0 0 0 .153.008l.327-.073a.202.202 0 0 0 .15-.131l.09-.25a.163.163 0 0 0-.034-.168l-.09-.099a.148.148 0 0 0-.058-.038l-.61-.252a.163.163 0 0 1-.096-.131.145.145 0 0 1 .065-.145c.156-.117.536-.404.682-.543.09-.08.17-.286.224-.566a.3.3 0 0 0-.076-.267c-.037-.032-.072-.05-.114-.048-.05.005-.14.039-.262.192-.327.403-.56.516-.905.69-.132.067-.278.139-.452.238-.439.248-.653.542-.74.696a.426.426 0 0 1-.263.198l-.628.161a.088.088 0 0 1-.049 0c-.026-.01-.049-.03-.05-.06-.02-.043.008-.087.055-.1zm3.152 1.735.077-.212c.002-.005.004-.01 0-.018a.815.815 0 0 1-.306.069l-.274.008a.522.522 0 0 1-.166-.018L3.4 4.67c-.032-.012-.056-.027-.086-.043l-.544-.318c-.03-.017-.057-.009-.07-.007-.013.006-.035.016-.047.048l-.065.18a.084.084 0 0 0 .026.093l.518.405c.075.057.17.08.259.064l.553-.104a.216.216 0 0 0 .157-.135zm-1.683.125a.142.142 0 0 0 .044.16l.431.348a.254.254 0 0 0 .236.045l.448-.143a.107.107 0 0 0 .073-.07l.04-.11-.269.046a.505.505 0 0 1-.396-.097l-.154-.122-.303-.236a.072.072 0 0 0-.05-.012.05.05 0 0 0-.037.034l-.058.16zm1.737-1.065-.326.073a.361.361 0 0 1-.147.007l-.005-.002c-.034-.006-.068-.012-.099-.024l-.604-.202a.12.12 0 0 0-.13.079L2.78 4a.122.122 0 0 0 .053.15l.014.011.356.209.193.111a.35.35 0 0 0 .198.049l.273-.009a.713.713 0 0 0 .331-.101l.022-.01a.175.175 0 0 0 .077-.098l.058-.159a.163.163 0 0 0-.019-.145l-.093-.124c-.027.009-.055.022-.088.028"/></svg>