<svg xmlns="http://www.w3.org/2000/svg" xml:space="preserve" style="shape-rendering:geometricPrecision;text-rendering:geometricPrecision;image-rendering:optimizeQuality;fill-rule:evenodd;clip-rule:evenodd" viewBox="0 0 4370 4370"><path class="fil0" d="m4082 350-152-135c-354-314-897-282-1211 73l-435 491c-98 111-88 281 23 379l41 36c111 99 281 88 379-23l435-491c97-109 265-120 375-23l152 135c110 97 120 265 23 375l-952 1074c-81 91-212 116-321 60-118-61-263-34-351 65l-7 8c-60 67-85 157-68 245 16 89 71 163 151 205 126 66 263 98 397 98 239 0 474-100 642-289l952-1073c314-354 281-897-73-1211zM2063 3211l-41-36c-111-98-281-88-379 23l-435 491c-97 109-265 120-375 23l-152-135c-110-97-120-265-23-375l952-1074c79-89 209-115 316-62 123 60 272 31 363-72l3-4c58-66 83-154 68-240-16-87-69-160-147-202-351-188-782-111-1046 187L215 2808c-314 354-281 897 73 1211l152 135c163 144 366 215 568 215 237 0 473-97 642-288l435-491c98-111 88-281-23-379z"/></svg>