<svg xmlns="http://www.w3.org/2000/svg" xml:space="preserve" width="24" height="12"><path d="M54.11 13.215h94.917c14.684 0 26.629 11.945 26.629 26.625 0 14.687-11.945 26.629-26.629 26.629H65.031v-4.813h-1.957v-1.91h-1.191A31.055 31.055 0 0 0 69.09 39.84c-.008-11.262-6.008-21.145-14.98-26.625Zm1.23 38.902h-.64v-2.652h-1.91V47.18h-1.813v-2.54c-3.403-4.89-6.274-10.85-8.254-16.156-.934-2.511-5.57-2.129-6.606.332-1.957 4.684-3.98 10.54-10.422 17.614-2.793 2.89-.765 4.726.922 4.222 3.125-1.023 7.098-3.843 12.215-10.96 1.418 3.538 6.11 12.218 7.98 15.003h1.669v2.278h1.515v.43a21.182 21.182 0 0 1-12.09 3.75A21.176 21.176 0 0 1 22.84 54.91a21.161 21.161 0 0 1-6.246-15.07 21.181 21.181 0 0 1 6.246-15.07 21.195 21.195 0 0 1 15.066-6.243c5.696 0 11.047 2.223 15.078 6.242a21.206 21.206 0 0 1 6.239 15.07c0 4.458-1.364 8.712-3.883 12.278zm1.195 12.711h.2v1.64h-2.622a32.94 32.94 0 0 0 2.422-1.64zM37.906 8.664C20.723 8.664 6.73 22.652 6.73 39.84c0 17.191 13.993 31.18 31.176 31.18 4.137 0 8.086-.81 11.7-2.282H60.53v.004h-2.277v2.176h2.277v-2.176h2.29v4.66h2.21v2.414h4.434v2.41h2.406v2.434h2.43v-2.433h-2.43v-2.41h2.43v-2.43h-2.43v2.43h-2.406v-2.41h-2.16v-2.38h2.543v-2.285h-2.543v-.004h81.722c15.934 0 28.895-12.96 28.895-28.898 0-15.93-12.961-28.895-28.895-28.895H49.613a30.95 30.95 0 0 0-11.707-2.28ZM62.82 66.47h-2.289v-2.281h2.29zm0 2.273h2.211v-.004h-2.21zm2.211 0v2.285h2.274v-2.285zm8.711-46.133 1.024 1.582a6.083 6.083 0 0 1 3.574-1.175c1.472 0 2.379.668 2.379 1.824 0 1.328-1.145 1.683-3.031 2.34-1.688.593-3.356 1.445-3.356 3.84 0 2.242 1.774 3.468 4.152 3.468 1.582 0 2.754-.316 3.688-.867l-.813-1.683a6.053 6.053 0 0 1-2.832.683c-1.332 0-2.12-.496-2.12-1.55 0-1.235.917-1.548 2.648-2.118 1.808-.582 3.8-1.422 3.8-4.078 0-2.246-1.601-3.719-4.48-3.719-2.14 0-3.707.739-4.633 1.453zm78.399.504c3.023 0 4.058 1.395 4.058 4.735 0 2.933-.808 4.648-3.781 4.648h-1.184v-9.383zm-3.11 11.172h3.239c4.222 0 6.253-2.289 6.253-6.437 0-4.22-2.066-6.528-6.144-6.528h-3.348zm-11.742 0H145v-1.8h-5.52v-3.532h4.352v-1.75h-4.352v-4.09h5.848v-1.789h-8.039zm-8.73-5.777c1.644 0 2.488.539 2.488 2.035 0 1.437-.859 1.945-2.359 1.945h-2.083v-3.98zm4.98-7.188h-2.398l-2.489 5.496h-2.047V21.32h-2.195v12.965h4.231c2.617 0 4.66-.941 4.66-3.785 0-1.934-1.164-2.91-2.457-3.367zm-22.609 4.965v8h2.207v-8.36c0-1.777.437-2.945 2.32-2.945 1.863 0 2.324 1.168 2.324 2.946v8.36h2.235v-8c0-3.212-1.235-5.13-4.575-5.13-3.281 0-4.511 1.918-4.511 5.13zm-13.032 1.508c0 3.777 1.809 6.691 5.426 6.691 1.614 0 2.895-.511 3.797-1.562l-1.277-1.48c-.774.753-1.434 1.128-2.489 1.128-2.121 0-3.097-1.738-3.097-4.945 0-3.008 1.031-4.54 3.117-4.54 1.16 0 1.973.61 2.688 1.372l1.292-1.441c-.941-1.11-2.117-1.86-4-1.86-3.722 0-5.457 2.836-5.457 6.637zm-11.183 6.492h7.71v-1.8H88.91v-3.532h4.356v-1.75H88.91v-4.09h5.848v-1.789h-8.043zm85.086 30.13v4.323h1.125l.758-2.836.757 2.836h1.137v-4.324h-.687v3.379h-.02l-.871-3.38h-.613l-.879 3.379h-.024v-3.379zm-.598 4.323v-.734h-1.066v-3.59h-.84v3.59h-1.043v.734zm-35.484-24.535a4.008 4.008 0 0 0-4.008 4.004 4.008 4.008 0 0 0 4.008 4.004 4 4 0 0 0 4-4.004 4.001 4.001 0 0 0-4-4.004zm-60.75 16.875h4.902l6.734-12.82v12.82h4.055V40.684h-4.437L79.027 54.78V40.684H74.97Zm73.066-7.703c1.297 1.504 3.067 2.633 5.145 2.633 3.566 0 5.031-2.836 5.031-5.473v-9.847h-4.402v9.722c0 1.285-1.071 1.977-2.231 1.977-1.23 0-2.023-.707-2.723-1.461l-.269.781.262-.785V40.688h-4.278v14.968h2.598zm-20.625-9.387c-.496-.148-1.25-.289-1.539-.289-1.332 0-1.617.461-1.617 1.739v7.207h3.187v3.011h-3.187v4.262h-3.59l-.754-4.262h-2.707c-2.047-.008-3.59-1.254-4.578-3.207l-1.246 3.207h-2.574V40.688h4.398v6.511c0 3.285 1.942 5.383 4.238 5.445h2.407v-7.44c0-3.5 1.797-4.806 4.722-4.806 1.508 0 2.664.317 3.36.551zm-27.48.215a4.007 4.007 0 0 0-4.004 4.004 4.007 4.007 0 0 0 4.004 4.004 4.002 4.002 0 0 0 4.004-4.004 4.002 4.002 0 0 0-4.004-4.004zm0 11.805a7.8 7.8 0 0 1-7.801-7.801c0-4.313 3.492-7.8 7.8-7.8 4.313 0 7.809 3.488 7.809 7.8 0 4.309-3.496 7.8-7.808 7.8zm35.789 0c-4.313 0-7.809-3.492-7.809-7.801 0-4.313 3.496-7.8 7.809-7.8a7.796 7.796 0 0 1 7.801 7.8c0 4.309-3.489 7.8-7.801 7.8" style="fill:gray;fill-opacity:1;fill-rule:evenodd;stroke:none" transform="matrix(.13333 0 0 -.13333 0 12)"/></svg>