<svg xmlns="http://www.w3.org/2000/svg" xml:space="preserve" width="74.667" height="10.667"><path d="M122.918 58.945h5.738c1.996 0 3.395.313 4.164.946.805.664 1.192 1.75 1.192 3.289 0 1.504-.387 2.558-1.192 3.218-.769.668-2.066.98-3.918.98h-5.984zm-3.43-13.648V70.46h9.274c1.508 0 2.625-.07 3.429-.211a6.805 6.805 0 0 0 2.102-.734 5.546 5.546 0 0 0 2.344-2.489c.558-1.082.84-2.375.84-3.847 0-1.399-.282-2.625-.84-3.707a6.17 6.17 0 0 0-2.379-2.559 6.167 6.167 0 0 0-2.137-.766c-.805-.175-2.133-.246-4.023-.246h-5.18V45.297h-3.43m24.149 10.465h7.84l-3.887 11.093zm-7.282-10.465 9.348 25.164h3.777l9.379-25.164h-3.711l-2.656 7.523h-9.906l-2.695-7.523h-3.536m32.821 0h-3.43v10.078l-9.344 15.086h4.305l6.719-11.899 6.683 11.899h4.024l-8.957-14.84V45.297m20.929 0V70.46h16.903v-3.152h-13.473V59.75h11.758v-3.078h-11.758V45.297h-3.43m22.852 12.566c0-3.222.734-5.742 2.238-7.562 1.473-1.82 3.535-2.73 6.16-2.73s4.692.91 6.161 2.73c1.472 1.82 2.207 4.34 2.207 7.562 0 3.215-.735 5.735-2.207 7.559-1.469 1.82-3.536 2.73-6.161 2.73-2.625 0-4.687-.91-6.16-2.73-1.504-1.824-2.238-4.344-2.238-7.559zm-3.535 0c0 4.164 1.051 7.418 3.148 9.727 2.137 2.344 5.043 3.535 8.785 3.535 3.747 0 6.653-1.191 8.75-3.5 2.102-2.344 3.153-5.598 3.153-9.762 0-4.168-1.051-7.422-3.153-9.765-2.097-2.344-5.003-3.5-8.75-3.5-3.742 0-6.648 1.156-8.785 3.5-2.097 2.343-3.148 5.597-3.148 9.765m31.5 9.657v-8.54h5.844c2.101 0 3.605.352 4.48 1.016.84.7 1.293 1.82 1.293 3.43 0 1.504-.418 2.554-1.223 3.148-.839.63-2.343.945-4.55.945zm-3.359 2.94h9.765c1.574 0 2.731-.07 3.496-.21.739-.14 1.403-.348 1.996-.664 1.051-.594 1.856-1.399 2.414-2.414.563-1.05.84-2.278.84-3.676 0-1.363-.277-2.523-.871-3.465-.598-.98-1.437-1.715-2.594-2.273.985-.281 1.684-.739 2.102-1.403.422-.628.664-1.75.769-3.289l.282-4.129c.07-.91.176-1.578.351-1.996.172-.453.453-.77.805-.945v-.7h-3.957c-.316.524-.527 1.645-.664 3.36v.106l-.211 3.289c-.106 1.68-.457 2.765-1.086 3.293-.594.484-2.098.734-4.516.734h-5.531V45.297h-3.39V70.46m42.593-25.163h-3.429v10.078l-9.348 15.086h4.309l6.714-11.899 6.684 11.899h4.027l-8.957-14.84V45.297m13.176 12.566c0-3.222.734-5.742 2.238-7.562 1.473-1.82 3.535-2.73 6.16-2.73s4.692.91 6.161 2.73c1.468 1.82 2.203 4.34 2.203 7.562 0 3.215-.735 5.735-2.203 7.559-1.469 1.82-3.536 2.73-6.161 2.73-2.625 0-4.687-.91-6.16-2.73-1.504-1.824-2.238-4.344-2.238-7.559zm-3.535 0c0 4.164 1.047 7.418 3.148 9.727 2.133 2.344 5.039 3.535 8.785 3.535 3.743 0 6.649-1.191 8.75-3.5 2.102-2.344 3.149-5.598 3.149-9.762 0-4.168-1.047-7.422-3.149-9.765-2.101-2.344-5.007-3.5-8.75-3.5-3.746 0-6.652 1.156-8.785 3.5-2.101 2.343-3.148 5.597-3.148 9.765m27.996-3.011V70.46h3.43V54.816c0-2.347.527-4.093 1.578-5.214 1.015-1.157 2.656-1.715 4.828-1.715 2.168 0 3.781.594 4.832 1.715 1.082 1.152 1.609 2.902 1.609 5.214v15.645h3.43V54.85c0-3.363-.875-5.914-2.59-7.664-1.75-1.714-4.305-2.59-7.664-2.59-3.152 0-5.496.837-7.07 2.551-1.578 1.715-2.383 4.274-2.383 7.704m28.316 12.669v-8.54h5.844c2.102 0 3.606.352 4.481 1.016.839.7 1.293 1.82 1.293 3.43 0 1.504-.418 2.554-1.223 3.148-.84.63-2.344.945-4.551.945zm-3.359 2.94h9.766c1.574 0 2.73-.07 3.496-.21.738-.14 1.402-.348 1.996-.664 1.051-.594 1.855-1.399 2.418-2.414.558-1.05.836-2.278.836-3.676 0-1.363-.278-2.523-.871-3.465-.598-.98-1.438-1.715-2.59-2.273.98-.281 1.679-.739 2.097-1.403.422-.628.665-1.75.77-3.289l.281-4.129c.071-.91.176-1.578.352-1.996.172-.453.453-.77.804-.945v-.7h-3.957c-.316.524-.523 1.645-.664 3.36v.106l-.211 3.289c-.101 1.68-.453 2.765-1.085 3.293-.594.484-2.098.734-4.516.734h-5.527V45.297h-3.395V70.46m35.277-12.597c0-3.222.735-5.742 2.239-7.562 1.472-1.82 3.535-2.73 6.16-2.73s4.691.91 6.16 2.73c1.473 1.82 2.207 4.34 2.207 7.562 0 3.215-.734 5.735-2.207 7.559-1.469 1.82-3.535 2.73-6.16 2.73s-4.688-.91-6.16-2.73c-1.504-1.824-2.239-4.344-2.239-7.559zm-3.535 0c0 4.164 1.051 7.418 3.149 9.727 2.136 2.344 5.043 3.535 8.785 3.535 3.746 0 6.652-1.191 8.75-3.5 2.101-2.344 3.152-5.598 3.152-9.762 0-4.168-1.051-7.422-3.152-9.765-2.098-2.344-5.004-3.5-8.75-3.5-3.742 0-6.649 1.156-8.785 3.5-2.098 2.343-3.149 5.597-3.149 9.765m31.5 9.657v-8.54h5.844c2.102 0 3.605.352 4.48 1.016.84.7 1.293 1.82 1.293 3.43 0 1.504-.418 2.554-1.222 3.148-.84.63-2.344.945-4.551.945zm-3.359 2.94h9.765c1.571 0 2.731-.07 3.497-.21.738-.14 1.402-.348 1.996-.664 1.05-.594 1.855-1.399 2.414-2.414.562-1.05.84-2.278.84-3.676 0-1.363-.278-2.523-.872-3.465-.597-.98-1.437-1.715-2.593-2.273.98-.281 1.683-.739 2.101-1.403.418-.628.664-1.75.77-3.289l.281-4.129c.07-.91.176-1.578.352-1.996.171-.453.453-.77.804-.945v-.7h-3.957c-.316.524-.527 1.645-.664 3.36v.106l-.211 3.289c-.105 1.68-.457 2.765-1.086 3.293-.593.484-2.101.734-4.515.734h-5.532V45.297h-3.39V70.46m32.547-2.905h-5.879V48.379h5.879c2.519 0 4.41.805 5.707 2.45 1.293 1.64 1.922 4.058 1.922 7.241 0 3.078-.664 5.426-1.961 7.036-1.328 1.644-3.219 2.449-5.668 2.449zm-9.309-22.258V70.46h9.59c3.496 0 6.191-1.05 8.051-3.152 1.886-2.098 2.797-5.106 2.797-9.063 0-4.094-.946-7.281-2.903-9.555-1.929-2.277-4.621-3.394-8.09-3.394h-9.445m24.742.001V70.46h17.957v-3.113h-14.562V59.82h13.441v-2.937h-13.441v-8.438h14.84v-3.148h-18.235m25.731 22.223v-8.54h5.844c2.101 0 3.605.352 4.48 1.016.84.7 1.297 1.82 1.297 3.43 0 1.504-.422 2.554-1.227 3.148-.84.63-2.343.945-4.55.945zm-3.36 2.94h9.766c1.574 0 2.73-.07 3.5-.21.734-.14 1.398-.348 1.992-.664 1.051-.594 1.856-1.399 2.418-2.414.559-1.05.84-2.278.84-3.676 0-1.363-.281-2.523-.875-3.465-.594-.98-1.437-1.715-2.59-2.273.981-.281 1.68-.739 2.098-1.403.422-.628.664-1.75.769-3.289l.282-4.129c.07-.91.175-1.578.351-1.996.172-.453.453-.77.805-.945v-.7h-3.957c-.317.524-.524 1.645-.664 3.36v.106l-.211 3.289c-.102 1.68-.453 2.765-1.082 3.293-.598.484-2.102.734-4.516.734h-5.531V45.297h-3.395V70.46M119.348 12.898v15.61h3.429V12.863c0-2.343.528-4.093 1.575-5.215 1.015-1.156 2.66-1.714 4.832-1.714 2.168 0 3.777.597 4.828 1.714 1.082 1.153 1.609 2.903 1.609 5.215v15.645h3.43v-15.61c0-3.363-.875-5.914-2.59-7.664-1.75-1.714-4.305-2.59-7.664-2.59-3.149 0-5.492.836-7.07 2.551-1.575 1.715-2.379 4.274-2.379 7.703m23.797-1.261h3.293c.035-1.82.628-3.29 1.82-4.375 1.187-1.082 2.762-1.61 4.722-1.61 1.961 0 3.5.422 4.622 1.227 1.121.84 1.679 1.922 1.679 3.36 0 1.921-2.101 3.394-6.336 4.374-.242.07-.418.106-.558.14-3.43.806-5.707 1.716-6.789 2.731-1.086.98-1.649 2.38-1.649 4.235 0 2.238.805 4.058 2.453 5.39 1.645 1.364 3.813 2.063 6.543 2.063 2.801 0 4.973-.735 6.582-2.133 1.575-1.434 2.379-3.398 2.414-5.918h-3.257c-.102 1.684-.7 2.977-1.715 3.887-1.047.875-2.449 1.328-4.235 1.328-1.675 0-3.007-.348-4.023-1.082-1.016-.735-1.504-1.715-1.504-2.942 0-1.957 2.063-3.394 6.227-4.375.597-.14 1.086-.246 1.402-.312l.387-.105c2.695-.633 4.515-1.332 5.386-2.102a5.632 5.632 0 0 0 1.543-2.066c.348-.805.524-1.715.524-2.73 0-2.415-.875-4.372-2.59-5.81-1.75-1.433-4.094-2.136-7.07-2.136-3.043 0-5.426.773-7.141 2.312-1.68 1.543-2.586 3.742-2.73 6.649m23.835-8.293v25.164h3.43V3.344h-3.43m8.883 0v25.164h3.746l11.758-18.27c.281-.422.492-.77.703-1.12.176-.388.352-.7.453-1.016v20.406h3.254V3.344h-3.707l-12.007 18.55c-.176.278-.348.56-.524.876-.141.312-.281.628-.418.976V3.344h-3.258m44.106 3.359c-1.016-1.363-2.242-2.379-3.641-3.047-1.433-.66-3.043-1.011-4.832-1.011-3.391 0-6.16 1.222-8.293 3.636-2.101 2.45-3.148 5.637-3.148 9.59 0 4.098 1.086 7.352 3.289 9.735 2.168 2.374 5.144 3.566 8.89 3.566 2.868 0 5.215-.734 7.032-2.168 1.789-1.473 2.906-3.5 3.257-6.09h-3.324c-.316 1.68-1.086 3.008-2.277 3.918-1.223.945-2.801 1.402-4.688 1.402-2.73 0-4.867-.91-6.371-2.695-1.504-1.785-2.273-4.27-2.273-7.523 0-3.223.734-5.743 2.238-7.563 1.504-1.785 3.535-2.695 6.16-2.695 2.379 0 4.27.734 5.672 2.168 1.434 1.437 2.133 3.398 2.133 5.847v.317h-7.875v2.836h11.027V3.344h-2.242l-.734 3.36m16.347 4.933h3.293c.036-1.82.629-3.29 1.821-4.375 1.191-1.082 2.761-1.61 4.722-1.61 1.961 0 3.5.422 4.621 1.227 1.122.84 1.68 1.922 1.68 3.36 0 1.921-2.101 3.394-6.336 4.374-.242.07-.418.106-.558.14-3.43.806-5.707 1.716-6.789 2.731-1.086.98-1.649 2.38-1.649 4.235 0 2.238.805 4.058 2.453 5.39 1.645 1.364 3.813 2.063 6.543 2.063 2.801 0 4.973-.735 6.582-2.133 1.574-1.434 2.379-3.398 2.414-5.918h-3.258c-.101 1.684-.699 2.977-1.714 3.887-1.047.875-2.45 1.328-4.235 1.328-1.676 0-3.008-.348-4.023-1.082-1.016-.735-1.504-1.715-1.504-2.942 0-1.957 2.066-3.394 6.226-4.375.598-.14 1.086-.246 1.403-.312l.387-.105c2.695-.633 4.515-1.332 5.386-2.102a5.632 5.632 0 0 0 1.543-2.066c.348-.805.524-1.715.524-2.73 0-2.415-.875-4.372-2.59-5.81-1.75-1.433-4.094-2.136-7.07-2.136-3.043 0-5.426.773-7.141 2.312-1.676 1.543-2.586 3.742-2.731 6.649m23.766-8.293v25.164h17.957v-3.113h-14.562v-7.528h13.441V14.93h-13.441V6.492h14.843V3.344h-18.238m39.977 9.344h3.324c-.141-3.047-1.192-5.497-3.149-7.317-1.925-1.816-4.445-2.726-7.527-2.726-3.535 0-6.297 1.187-8.328 3.605-1.996 2.45-3.012 5.773-3.012 10.043 0 3.957 1.051 7.07 3.153 9.379 2.097 2.348 4.968 3.5 8.539 3.5 2.836 0 5.179-.734 7-2.203 1.82-1.469 2.871-3.465 3.148-6.02h-3.359c-.317 1.645-1.086 2.942-2.274 3.848-1.191.875-2.73 1.332-4.656 1.332-2.555 0-4.512-.91-5.949-2.695-1.399-1.786-2.098-4.309-2.098-7.563 0-3.078.734-5.527 2.203-7.418 1.469-1.855 3.395-2.765 5.809-2.765 2.066 0 3.746.628 5.074 1.925 1.297 1.262 1.996 2.977 2.102 5.075m7.203.21v15.61h3.429V12.863c0-2.343.528-4.093 1.575-5.215 1.015-1.156 2.66-1.714 4.832-1.714 2.168 0 3.777.597 4.828 1.714 1.082 1.153 1.609 2.903 1.609 5.215v15.645h3.43v-15.61c0-3.363-.875-5.914-2.59-7.664-1.75-1.714-4.305-2.59-7.664-2.59-3.148 0-5.492.836-7.07 2.551-1.575 1.715-2.379 4.274-2.379 7.703m28.312 12.668v-8.539h5.848c2.098 0 3.605.352 4.476 1.016.844.7 1.297 1.82 1.297 3.43 0 1.508-.422 2.554-1.226 3.148-.836.633-2.344.945-4.547.945zm-3.359 2.942h9.765c1.575 0 2.731-.07 3.5-.211.739-.14 1.399-.348 1.997-.664 1.046-.594 1.851-1.399 2.414-2.414.562-1.051.839-2.278.839-3.676 0-1.363-.277-2.523-.875-3.465-.593-.98-1.437-1.715-2.589-2.273.98-.282 1.679-.739 2.101-1.403.418-.629.664-1.75.766-3.289l.281-4.129c.07-.91.176-1.578.352-1.996.175-.453.453-.77.804-.945v-.7h-3.957c-.312.524-.523 1.645-.664 3.36v.106l-.207 3.289c-.105 1.68-.457 2.765-1.086 3.293-.597.484-2.101.734-4.515.734h-5.532V3.344h-3.394v25.164m23.238-25.164v25.164h17.957v-3.113h-14.562v-7.528h13.441V14.93h-13.441V6.492h14.843V3.344h-18.238m35.113 21.453V3.344h-3.152v25.164h4.899l6.23-19.25c.176-.559.316-.98.387-1.262a5.56 5.56 0 0 0 .211-.805c.105.422.175.805.281 1.121.101.352.172.633.277.946l6.477 19.25h4.898V3.344h-3.324v21.453c-.07-.383-.176-.734-.277-1.117-.106-.352-.215-.739-.321-1.086l-6.472-19.25h-3.223l-6.332 19.25c-.105.312-.211.664-.316 1.015-.067.383-.172.77-.243 1.188m25.899-21.453v25.164h17.953v-3.113h-14.559v-7.528h13.442V14.93h-13.442V6.492h14.84V3.344h-18.234m27.937 0V25.46h-7.949v3.047h19.324V25.46h-7.945V3.344h-3.43m14.414 0v25.164h3.43V18.184h13.051v10.324h3.43V3.344h-3.43v11.793h-13.051V3.344h-3.43m27.758 12.566c0-3.223.735-5.742 2.239-7.562 1.472-1.817 3.535-2.727 6.16-2.727s4.691.91 6.16 2.727c1.472 1.82 2.207 4.34 2.207 7.562 0 3.215-.735 5.738-2.207 7.559-1.469 1.82-3.535 2.73-6.16 2.73s-4.688-.91-6.16-2.73c-1.504-1.82-2.239-4.344-2.239-7.559zm-3.535 0c0 4.164 1.051 7.418 3.149 9.727 2.136 2.343 5.042 3.535 8.785 3.535 3.746 0 6.652-1.192 8.75-3.5 2.101-2.344 3.152-5.598 3.152-9.762 0-4.168-1.051-7.422-3.152-9.765-2.098-2.344-5.004-3.5-8.75-3.5-3.743 0-6.649 1.156-8.785 3.5-2.098 2.343-3.149 5.597-3.149 9.765m37.449 9.695h-5.879V6.425h5.879c2.52 0 4.41.805 5.707 2.45 1.293 1.645 1.922 4.059 1.922 7.242 0 3.078-.664 5.426-1.961 7.035-1.328 1.645-3.218 2.453-5.668 2.453zm-9.308-22.26v25.164h9.59c3.496 0 6.191-1.051 8.05-3.152 1.887-2.098 2.797-5.106 2.797-9.063 0-4.094-.945-7.281-2.902-9.555-1.93-2.277-4.621-3.394-8.086-3.394h-9.449m23.586 8.292h3.293c.031-1.82.629-3.29 1.82-4.375 1.187-1.082 2.762-1.61 4.723-1.61 1.961 0 3.5.422 4.621 1.227 1.121.84 1.679 1.922 1.679 3.36 0 1.921-2.101 3.394-6.336 4.374-.246.07-.421.106-.558.14-3.43.806-5.707 1.716-6.789 2.731-1.086.98-1.649 2.38-1.649 4.235 0 2.238.805 4.058 2.453 5.39 1.645 1.364 3.813 2.063 6.543 2.063 2.801 0 4.973-.735 6.582-2.133 1.575-1.434 2.379-3.398 2.415-5.918h-3.258c-.106 1.684-.7 2.977-1.715 3.887-1.047.875-2.449 1.328-4.235 1.328-1.675 0-3.007-.348-4.023-1.082-1.016-.735-1.504-1.715-1.504-2.942 0-1.957 2.063-3.394 6.227-4.375.597-.14 1.086-.246 1.402-.312l.387-.105c2.695-.633 4.511-1.332 5.386-2.102a5.632 5.632 0 0 0 1.543-2.066c.348-.805.524-1.715.524-2.73 0-2.415-.875-4.372-2.59-5.81-1.75-1.433-4.094-2.136-7.07-2.136-3.043 0-5.426.773-7.141 2.312-1.68 1.543-2.59 3.742-2.73 6.649" style="fill:gray;fill-opacity:1;fill-rule:nonzero;stroke:none" transform="matrix(.13333 0 0 -.13333 0 10.667)"/><path d="M73.438 65.047a6.077 6.077 0 0 1-6.075 6.078H13.887a6.08 6.08 0 0 1-6.078-6.078v-5.32h65.629Zm-8.989-34.629c0-.004.004-.008.008-.008a20.08 20.08 0 0 1 3.453 3.031c1.399 1.551 2.438 3.203 3.13 4.946h-6.59zm-7.48 11.68a14.05 14.05 0 0 1 .906-3.711h6.574v7.91c-1.457-1.406-4.187-3.606-7.48-4.2zm18.086 4.691c-.551.086-1.09.219-1.618.39v6.094H7.81V34.836a6.08 6.08 0 0 1 6.078-6.078H58.39a29.94 29.94 0 0 1 4.324-3.578 3.134 3.134 0 0 1 3.492 0 29.666 29.666 0 0 1 5.328 4.629c3.676 4.074 5.746 8.66 6.164 13.629a3.137 3.137 0 0 1-2.644 3.351zm-44.125-9.8a.817.817 0 0 0-.82-.817H17.464a.82.82 0 0 0-.824.816v2.5c0 .453.367.82.824.82h12.644c.457 0 .82-.367.82-.82zm38.023-4.848a26.049 26.049 0 0 0-4.492-3.942 26.196 26.196 0 0 0-4.492 3.942c-3.074 3.406-4.84 7.195-5.25 11.265 4.293.774 7.847 3.649 9.742 5.473 1.895-1.824 5.453-4.7 9.742-5.473-.41-4.07-2.176-7.86-5.25-11.265" style="fill:gray;fill-opacity:1;fill-rule:evenodd;stroke:none" transform="matrix(.13333 0 0 -.13333 0 10.667)"/><path d="M97.926 71.125V3.344h-2.922v67.781h2.922" style="fill:gray;fill-opacity:1;fill-rule:nonzero;stroke:none" transform="matrix(.13333 0 0 -.13333 0 10.667)"/></svg>