<svg xmlns="http://www.w3.org/2000/svg" xml:space="preserve" viewBox="0 0 16 16"><path d="M9.229 12.085a3.569 3.569 0 0 1 3.568-3.568c.415 0 .683.05.965.133.19.08.262-.078.282-.152a5.7 5.7 0 0 0 .2-1.467l-.018-4.297c0-.415-.237-.414-.344-.414-.763.004-1.54.004-2.357-.231-1.698-.49-3.208-1.82-3.782-1.82-.557 0-1.678 1.33-3.376 1.82-.958.276-1.876.225-2.735.184-.101-.004-.262-.03-.313.32-.013.087-.078 4.39-.078 4.438 0 4.204 5.2 8.153 6.501 8.153.417 0 1.088-.335 1.99-1.007.12-.104.056-.173.02-.23a3.551 3.551 0 0 1-.523-1.862zm3.59 1.82a.37.37 0 0 1-.476.044l-2.26-1.67a.32.32 0 0 1-.065-.448l.29-.385a.327.327 0 0 1 .452-.066l1.45 1.063a.37.37 0 0 0 .476-.046l2.046-2.14a.321.321 0 0 1 .453-.017l.354.328c.129.12.136.325.016.455l-2.735 2.882"/></svg>