<svg xmlns="http://www.w3.org/2000/svg" xml:space="preserve" width="9.333" height="9.333"><path d="M13.895 23.61c-8.356 8.35-8.356 21.949 0 30.3 8.347 8.352 21.945 8.352 30.296 0 7.09-7.09 8.16-17.629 3.223-25.855 0 0-.355-.598.125-1.074l10.934-10.93c1.254-1.262 1.957-2.805 1.953-4.258v-.012a4.002 4.002 0 0 0-1.192-2.883l-.332-.328c-1.93-1.933-4.972-1.414-7.148.762l-10.91 10.91c-.5.5-1.094.149-1.094.149-8.23-4.942-18.77-3.868-25.855 3.218zM38.87 40.034a2.21 2.21 0 0 1 2.035 3.07c-2.992 7.07-11.18 10.387-18.246 7.395a2.21 2.21 0 1 1 1.723-4.07c4.824 2.039 10.406-.227 12.449-5.047a2.208 2.208 0 0 1 2.04-1.348zm1.363-12.469c6.176 6.172 6.176 16.215 0 22.387-6.168 6.172-16.215 6.172-22.386 0-6.172-6.172-6.172-16.215 0-22.387 6.172-6.175 16.218-6.175 22.386 0" style="fill:gray;fill-opacity:1;fill-rule:evenodd;stroke:none" transform="matrix(.13333 0 0 -.13333 0 9.333)"/></svg>