<svg xmlns="http://www.w3.org/2000/svg" xml:space="preserve" width="185.623" height="50.723" style="shape-rendering:geometricPrecision;text-rendering:geometricPrecision;image-rendering:optimizeQuality;fill-rule:evenodd;clip-rule:evenodd" viewBox="0 0 957.94 261.77"><path d="M61.84 148.13c2.8-2.74 1.3.67 1.74-3.26l1.35-5.12c1.17-2.73.75-3.13 1.37-5.38.62-2.23 1.56-2.19 2.45-4.15.77-1.7.81-3.28 1.67-4.94 1.11-2.15 1.16-1.99 2-4.7l18.46-47.17c1.24 6.09 3.56 13.5 5.69 19.32.84 2.28 1.46 2.38 2.14 3.89.79 1.76.61 2.89 1.21 4.79l10.06 24.41c.89 2.35.19 2.49 1.38 5.16l4.89 13.12c-3.2 1.73-9.81 1.19-13.79 1.67-4.69.57-8.67.77-13.72-.53-6.7-1.73-2.54-1.68-5.78-.19-1.86.85-17.33-.69-17.88-.9.5.84.25.44.83 1.03l1.05.85c-1.64.15-1.05-.17-2.27.95 3.84.68.94-.17 2.42 1.18.68.63-.12.13.89.97 2.08 1.71 3.34.96 5.19 1.6l-3.82.56c-5.25-.16-5.79-.78-7.52-3.18zm140.97 96.99-.14-4.85-3.21.32c.88 2.34.77 3.17 3.35 4.53zm-47.01-12.6c-1.36-2.36-.98-2.17-3.9-1.63-.74 2.73.41 5.31 1.89 6.66 1.3 1.19 1.23.88 2.17 2.38l1.31 1.84 1.15-2.01c-1.78-2.07-1.2-1-2.71-3.46.84-5.24-1.11 3.54.47-1.27.03-.09.13-.25.15-.34.02-.08.1-.24.11-.32.07-.7-.27-1.21-.64-1.85zm5.54 21.86c.85 1.07 1.02 1.32 1.89 2.18l-.02-3.18c.01-.08.09-.25.14-.38l2.49 7.35c1.97-.35 1.29-.67 2.53.56l1.31.84c.53-.59.45-.28.97-1.25.59-1.1.13-.27.28-1.3l-.86 1.03c.04-1.75.28-3.52-.68-4.58-1.76-1.94.76 2.39-1.75-.91l.58 3.82c-.1-.1-.23-.26-.29-.33l-3.68-4.7c-.93-1.93-1.56-4.71-3.32-5.75-1.31 1.91-.14 4.13.4 6.6zm35.29-73.78-3.86.15c-.6-4.61.08-3.01 3.29-4 2.9-.89.82-.08 2.16-3.57l.42-.89c-1.42-.81.12-.35-2.27-.75 1.83-.17 3.9-.66 6.35-.47.67-1.75 1 .26-1.05-2.01 1.99.15 2.05.36 4.7-.78 1.17-.51.66-.26 1.28-.66-1.4-1.98-.46-.2-3.37-2.16-.74-.5-.56-.37-1-.86.76-.79 1.66-1.13 2.81-1.81-.6-.48-.37-1-2.93-1.01l-1.77.3c-1.22-1.22-.3-.18-1.09-.96-.13-.12-.61-.62-.74-.75-.12-.13-.27-.32-.37-.42-.1-.11-.26-.28-.37-.44l6.15-1.25c1.42-.33 1.21-.49 2.46-1.12l1.27-.56c.42-.15.97-.16 1.69-.42-.92-1.6-.18-1.13-2.56-1.71 2.8-2.25 1.88-.38 1.51-1.12-2.42.07-3 .43-4.84-.78l6.26-1.2-3.55-1.81c1.92-.72 1.82.28 2.5-.95-1.6-.79-2.31-.83-3.72-1.45-.26-1.65.33-.2-1.06-.8-1.32-.3-2.29-1.32-3.78-1.84-2.1-.74-4.17-.3-4.97-.77-.84-.49.79.18-.84-.61-2.42-1.16-1-.29-1.75-.23-.01 0-.1.92-1.44-.04l-.87-1.81c-2.08-.49-14.82-1.26-16.36-.43l13.32.54c2.47.38 1.85-1.1 1.67 1.75-.01.01-18.27.6-18.74.6-3.12 0-3.54-.75-5.22-.59-1.43.14 1.42 1.13-1.37.03-2.56-1.31-2.95-4.61-3.98-7.52-.75-2.12-2.41-4.17-2.21-6.04.12-1.11 1.31 1.85.33-1.38-1.22-3.69-2.72-2.07-3.11-6.79-.28-3.33-3.12-5.65-4.85-10.31-1.56-4.18 1.27.37-2.11-6.8-2.79-5.9-3.32-12.92-5.97-18.77-1.79-3.97-2.15-7.88-3.04-12.02-1.2-5.52-1.93-1.46-3.56-5.47-.6-1.46-.62-2.75-.73-3.82-.2-2.03-.1-2.1-.74-3.71l-2-5.43c-.02-.1-.04-.27-.06-.37l-1.54-5.12c-.56-1.99-.25-1.54-1.45-3.38l-1.14-3.04c-1.24-4.24-3.35-7.11-4.85-10.88-2.3-5.79-2.31-3.59-5.88-8.01-3.36-4.17-2.66-3.95-4.65-1.94l-2.7-3.4c0 .03.01.23 0 .27l-1.72 2.23c.21-6.11-.13-16.88-6.62-19.47C97.21-.14 92.1.57 87.22-.01c-1.21 3.49-5.71 2.45-7.68 3.07-2.85.91-3.4 4.47-5.98 5.59-3.15 1.37-3.3 2.95-5.1 6.19-3.13 5.62-6.18 10.15-8.82 15.89l-11.7 26.85c-.04.09-.13.25-.18.35-.95 1.89-1.09 1.89-1.81 4.32l-6.67 16.21c-1.22 3.16-1.89 6.7-3.29 9.34-1.81 3.39-6.88 13.25-7.21 16.65-.64 6.39-2.8 3.73-2.56 8 .19 3.4-1.31 4.47-2.92 7.2-.07.11-.17.29-.23.39l-.48.82c.2.02.63-.06.72-.04.29.07.41.05.91.39-.72 1.89-.43 2.46-.59 2.93-.91 2.72.09-.09-2.9 1.43-1.03 4.22 1 1.45.56 4.22-.08 0-.21-.12-.23-.05-.55 1.73-.42-.13-.51-.17-4.02-1.48 2.49.47-1.08-.42-.67 1.95-1.25 5.02-1.94 6.55l-2.4 5.92c.68-.81.95-2.41 2.32-3.17-.73 3.12-1.85 5.77-2.67 8.32-3.2.4-7.75.75-10.3 2.75 2.67 1.72 4.38-1.23 5.81 2.41-2.79 1.63-4.12-.08-7.14 3.48 1.63.98 2.71 1.64 5.32 1.47-3.75 3.36-6.36 1.77-8.12 7.54l3.95.25-1.22 2.5c-1.84 4.88-2.01-1.03-1.21 8.27l-1.7.32c1.9 3.86-.17 1.08-.12 5.8 1.76 1.05 3.54 2.64 6.5 2.36-.67 1.23-2.52 8.14-1.31 9.03.06.05.26.12.38.2-.71 4.47-.4 6.95-1.71 11.6l.07 3.6 3.76-11.94c.5 2.76-1.59 1.12 1.15 2.25l.72-4.83c.99 1.01 1.38-1.25-.48 4.68l-.6 1.82c-.41 1.26-.01-.64-.42 1.38a19.6 19.6 0 0 0-.18 1.7c-1.23.6-.03.07-.56.04-2.38-.12 1.81-1.65-.3-.04-.34 3.47-.36-2.7.25 1.69l2.34-3.06c.4-1.73-.44.28.31-1.21.68-1.34.22-.65.74-.79.08.28.26-.08.16 1.52-.12 1.97-.1.7-.39 1.93-.78 3.23-.35 2.27-.01 2.81.45-1.42-.43 1.26.14-.71l1.29-4.01c.74.09-1.08-1.38.24.3l-1.93 8.8c.76-3.64 4.66-8.8 5.95-11.29.95-1.83-.1-1.54-.26-1.9-.91-1.97.12 4.42.65.83.1-.06.67-.93.71-.83.04.11-1.54-2.28-1.48-2.29 1.58 2.69 1.14 3.25 3.01.99.39 1.38-5.1 13.62-5.49 16.32.09-.15.22-.54.26-.45l.88-1.81c.37-.97 2.44-4.86 2.74-5.94.83.68-1.66 3.05-1.01 4.83.91-.34-.89 7.65.21 5.46l.4.22c.99-.39-.69 3.46-.65 3.26.65-3.52 1.37-3.45 2.48-3.72l-1.12 4.98c.12-.12.25-.46.29-.37l3.29-4.53c-.81 3.03 5.99-12.5 4.81-9.57-1.64 4.06-2.23 4.74-2.59 7.9-.51 4.41-.73.58-1.21.64-.99 3.24-2.76 7.95-4.22 10.85.91 1.14-.32.93 1.1.15.35-1.66.98-1.26 1.01-1.23.73.76-1.32 5.11-2.06 6.51.11 1.45.09 2.81.38 4.15.28 1.29.21.56.32.64l.87.03c-.13.84-.13.38-.32.93-.73 2.16-.75.55-.69 2.96.78-.9 1.91-1.58 2.2-4.82.2-2.32.32-.35 1.47-2.28 1.49-2.48.01 1.28.62.9 2.09-1.29-.09-2.99 2.65-6.51 2.37.95-.19 9.2 1.71 7.25 2.36-2.44-1.71 1.3 1.95-5.39l.94-2.43c.9-1.76.05.59.36-.49.46-1.56.49.43-.12-.34l-.36-.27c1.76-3.71.53-7.61 3.73-10.37 2.02-1.74 5.99-14.12 6.93-18.32.44-1.98 1.26-3.48 1.87-5.32 5.97.15 41.26-.6 44.99-1.42-1.28-.83-1.59-.59-2.68-1.37 3.81-.89 23.78-1.06 27.64-1.01l-1.45-1.81 2.93 1.1c.02.07.07.26.14.38 7.46.47 1.8-1.19 6.62-1.83 1.55-.21 3.33.07 4.89 0 .87-.04 1.27.04 2.09-.34 1.48-.7.57.11 1.11-1.18 1.97.65 2.3.49 2.44 2.72 1.47 1.2.17.03-1.26.91 6.17 3.9 3.2 4.83 8.01 16.11.07-2.56-.68-5.34-1.42-7.67l-1.67-4.88c-.34-.91-.49-1.16-.59-1.28 4.91-.19-.27 1.57 4.81 3.7-.91-2.02-.02-.38-.82-1.6-.46-.7-.76-.96-1.18-1.4 1.91-.52 1.17-.19 2.72-1.22-2.1-.99-2.2-.32-4.58-1.12 1.67-.98 2.49-.97 4.34-.99l-.86-.22c-3.26-.39-4.47.89-5.77-1.1 1.13-.59 2.18-.57 4.02-.63.71-.02 1.75-.04 2.44.02 4.89.46 1.21.97 5.4 6.06 3.69 4.48-1.21-1.81 2.61 7.56l3.84 10.65c1.64 4.02 2 3.06 2.93 3.54-.7-2.64-.43-.97-.66-3.47l-.49-1.47c-1.53-2.72-1.08-6.09-1.89-7.47-2.14-3.65-.38 1.72-1.41-1.61-.82-2.63 1.57 1.43-1.05-5.35.03.01-.03.07-.03.11l-.91.02c-.04-.01-.24-.05-.33-.13l.39-3.1c.3-.89.4-.89.63-1.3l2.23 4.76c-1.21 1.46-1.02-2.81-1.02 2.05 1.33.8 2.58 5.8 3.49 8.83l1.07 3.22c.41 1.08.6 1.78 1.11 3.11 3.23 8.36 3.35 6.53 5.77 6.54-.95 2.32-.16-.04-.89 1.35-.1.19-.19.3-.28.51-.1.21-.16.32-.25.55-.71 1.95-.59 3.26.36 5.1.09.18.4.64.51.79l10.34 21.31c1.08 2.3 1.59 1.86.31 3.85-1.49-1.29-5.53-12.77-6.45-15.31-1.85-5.13-5.26-10.59-7.12-15.32-.34.18-1.24.59-1.52.73l-.98.67c2.87 4 4.04 2.23 4.86 10.24.06.04.18.09.2.11.02.02.17.1.2.12l.2.14c1.14 1.02 1.38 2.09 1.76 3.43-1-1.59-.96-1.6-2.42-1.99l2.49 2.85c1.75.62 7 16.72 8.05 18.52l2.92 3.92c-.16-.65-.51-1.48-.44-2.38.11-1.52.01-.82.71-1.83l1.11.85c-1.66 5.61 1.35-.66.78 4.57l1.42-1.52c.13-.16.82-1.12.92-1.27 1.07-1.57.14-1.12 1.07-1.57 1.89-1.02 2.57-1.99 3.81-3.3.46.61.4.62 1.08 1.16l3.91 2.38c-.04-.65-.26-1.88-.27-2.26l.1-1.52c2.46-.86-.12-.56 2.09.56l2.85 2.52c-1.22 2.59.22.33-1.77 1.21 1.88 1.6 2.23 1.27 1.75 4.66 1.31-2.17.53-.5.51-2.11-.03-2.83-.66-3.73 2.53-2.21 1.35.64-1.21.75 2.97.94l-1.54-6.88 1.74 1.15c1.36 1.1.44 1.08 2.03 1.26 1.17-1.51.49-2.06 1.35-3.34 1.27-1.88 1.33 2.13 1.41-3.59-1.19.59-2.12 2.52-4.31 2.26-1.43-3.53-.31-1.05.21-2.5.62-1.71.22-.82.09-3.31l-2.04 1.41c-1-5.45-3.24-.52-2.19-3.81-.88-.98-1.77-2.54-1.93-3.79-.48-3.91.06-.99-1.53-4.22-.77-1.58-.66-2.63-1.86-4.84-3.52-6.47-1.75-.68-3.51-9.07-.65-3.11-.27-1.62-1.85-4.27l-2.39-5.89c-.68-2.25.69-.49-1.03-2.07-2.72-2.35-1.49-5.69-4.19-10.49-.09-.15-.36-.56-.43-.71-.77-1.59-.24-.95-.45-2.2-.4-2.31-1.92-4.79-3.25-7.53l16.81.89.67-2.29c1.65 3.23-.68.94 4.07.45 2.34-.53 5.34-.67 6.27-2.65l-3.93-.27zm-47.48 36.76c-2.33-.59-1.39-.72-2.29-1.11l-.75.11c-.13 1.07.05 1.97.63 3.3 1.03 2.34.77 1.74 3.24 2.03l-.19 2.19c.57-1.37-.06-.87 1.67-.3l.46.07c-2.17-7.53-.01.07-2.76-6.3zm31.73 17.65 1.38 2.26c.4.96.47 1.47.84 2.22l2.72 3.76-1.76-5.63c4.5 2.3 3.11 4.74 2.37 7.43-.05.18-.11.74-.15.65-.04-.09-.1.46-.14.68l-1.55.78c-.7-2.32-3.49-8.2-3.72-12.15zm-60.23-80.43-15.74 1.11-11.34-.12c1.4-.87 7.29-.62 11.06-1.21-.42-.28-18.14.38-21.35-1.21 2.05-1.78 11.19-.59 13.87-.34 3.04.29 11.75-1.19 15.58-1.55.52 1.73-4.37 1.05 6.68.67.64 2.26-.78 1.51 1.23 2.64zm-19.96 4.03 5.42.82c1.48-.21 2.84-.09 4.52-.32 3.38-.46 7.26-.72 11.15-.4.12.16.27.21.33.5.06.3.51.8.6.96l4.03 9.3c-1.28 2.71.02-.51-1.43 1.72 2.97.69 1.74-.39 2.64 3.15-2.27.01-4.46-.26-6.66-.49-2.72-.28-3.49.26-6.09.29-2.04.02-2.97-.61-5.47-.65-.6-.01-3.56.18-3.64.17-5.88-.59-1.87.17-3.6-1.85l22.33-1.11c-8.78.12-19 .48-27.67-.29 1.12-.39.79-.12 1.78-.32l1.06-1.22-1.4-.41-.43-.14c-.09-.03-.3-.06-.42-.14 1.38-2.09 1.97-.9 4.58-1.81-.04-3.36-1.06-1.56-5.93-2.27l-2.78-.94c-1.02-.7-.86-1.4-3.56-1.26-2.05.11-3.63.17-5.99-.1l.17-2.16c5.29 1.3 9.8-1.54 12.77-1.52.16 0 .33.03.49.04.17.01.34.05.5.07.16.02.34.07.5.09.15.02.33.07.47.09.15.02 1.33.12 1.74.14zm857.25 57.02c-2.8.07-6.18.19-10.05.36-3.91.19-6.4.29-7.43.29-11.75 0-19.76-2.19-24.12-6.57-4.31-4.39-6.47-13.04-6.47-25.97v-61.87h-15.12v-21.55h15.12V69.07h30.4v31.25h17.67v21.55h-17.67v63.35c0 3.01.69 4.99 2.01 5.92 1.34.98 4.06 1.44 8.2 1.44h7.47v23.06zm-133.61-.86V100.31h28.42v19.58c3.98-7.83 8.65-13.61 14-17.28 5.35-3.7 11.71-5.53 19.11-5.53 1.19 0 2.13 0 2.78.04.67.04 1.22.11 1.65.17l.1 31.04h-10.24c-8.37 0-14.65 2.19-18.89 6.55-4.2 4.34-6.33 10.81-6.33 19.35v60.54h-30.61zM766.34 87.6V59.79h30.61V87.6h-30.61zm0 127.17V100.31h30.61v114.46h-30.61zm-129.77 0V59.79h30.39v53.17c4.13-5.17 9.06-9.09 14.8-11.72 5.71-2.61 12.11-3.95 19.18-3.95 6.76 0 12.83 1.15 18.29 3.48 5.43 2.3 9.81 5.61 13.19 9.88 2.33 2.88 3.95 6.18 4.89 9.88.96 3.7 1.44 9.66 1.44 17.89v76.34h-30.4v-59.92c0-14.19-1.3-23.07-3.88-26.69-2.62-3.64-7.29-5.42-14.01-5.42-7.26 0-12.97 2.15-17.17 6.47-4.2 4.31-6.33 10.2-6.33 17.64v67.93h-30.39zm-148.96-47.85h31.48c1.18 8.48 4.67 14.76 10.41 18.86 5.75 4.1 14.09 6.14 24.97 6.14 9.24 0 16.24-1.65 20.95-4.96 4.71-3.26 7.05-8.15 7.05-14.58 0-9.42-13.51-17.17-40.52-23.35l-.94-.22c-.68-.14-1.8-.39-3.26-.72-14.44-3.16-24.76-6.71-30.94-10.67-5.46-3.48-9.63-8.22-12.49-14.15-2.88-5.92-4.32-12.93-4.32-21.01 0-15.08 5.14-26.66 15.39-34.7 10.24-8.05 25-12.08 44.37-12.08 18.1 0 32.27 4.29 42.46 12.87 10.21 8.59 15.56 20.65 16.14 36.28h-30.62c-.57-7.5-3.45-13.21-8.62-17.17-5.21-3.91-12.57-5.89-22.2-5.89-8.34 0-14.77 1.61-19.3 4.89-4.53 3.26-6.79 7.93-6.79 13.97 0 8.2 8.8 14.34 26.4 18.39 4.78 1.15 8.49 2.02 11.15 2.66 11.31 2.88 19.32 5.11 24.07 6.72 4.7 1.62 8.84 3.41 12.35 5.35 6.33 3.52 11.03 8.15 14.19 13.94 3.17 5.78 4.75 12.71 4.75 20.79 0 16.13-5.43 28.63-16.31 37.5-10.89 8.88-26.23 13.29-45.99 13.29-19.51 0-34.81-4.53-45.91-13.57-11.1-9.02-17.07-21.92-17.89-38.58zm-74.37 4.96v-28.89h59.07v28.89h-59.07zm-56.8 42.89V87.38h-45.91V59.79h123.51v27.59h-45.69v127.39h-31.91zm-105.92-42.89v-28.89h59.07v28.89h-59.07z" style="fill:#4d4d4d"/></svg>