<svg xmlns="http://www.w3.org/2000/svg" xml:space="preserve" width="166.667" height="29.333"><path d="m106.051 75.836-21.067 33.711-9.199-14.723 21.063-33.707 4.496 7.188zm14.66 23.46-21.067 33.708-9.199-14.723 21.063-33.707 9.203 14.723" style="fill:#4d4d4d;fill-opacity:1;fill-rule:evenodd;stroke:none" transform="matrix(.13333 0 0 -.13333 0 29.333)"/><path d="m29.375 3.086 61.07 97.723-5.46 8.738L18.456 3.086H.059l66.527 106.461L.059 216.008h18.398l57.328-91.738 5.457 8.734 9.203 14.726 42.668 68.278h18.399l-51.867-83.004-9.2-14.723-5.46-8.734 5.46-8.738 71.985 115.199h18.402L99.644 86.086l51.868-83h-18.399L96.848 61.117l4.496 7.188 4.707 7.53-6.407 10.25-51.87-83Zm151.457 0-60.121 96.21-9.203-14.722 50.926-81.488Zm-79.828 127.742-1.36 2.176ZM90.445 147.73l-42.668 68.278H29.375l51.867-83.004 9.203 14.726" style="fill:#0ff;fill-opacity:1;fill-rule:evenodd;stroke:none" transform="matrix(.13333 0 0 -.13333 0 29.333)"/><path d="M287.762 87.469v128.484h28.23V87.183c0-19.3 4.324-33.706 12.961-42.925 8.36-9.508 21.899-14.117 39.758-14.117 17.863 0 31.117 4.898 39.758 14.117 8.929 9.508 13.25 23.91 13.25 42.926v128.769h28.234V87.469c0-27.653-7.203-48.684-21.32-63.086-14.403-14.117-35.434-21.32-63.09-21.32-25.926 0-45.227 6.917-58.195 21.03-12.961 14.118-19.586 35.145-19.586 63.376M492.879 8.824v207.129h30.824L620.5 65.578c2.305-3.457 4.031-6.34 5.762-9.222 1.441-3.165 2.879-5.758 3.746-8.352v167.949h26.789V8.824h-30.535l-98.813 152.68c-1.441 2.305-2.883 4.609-4.324 7.203-1.148 2.594-2.305 5.184-3.453 8.066V8.824h-26.793m284.676 183.219h-48.399V34.176h48.399c20.742 0 36.297 6.629 46.957 20.164 10.656 13.543 15.843 33.418 15.843 59.633 0 25.351-5.472 44.652-16.132 57.906-10.946 13.535-26.504 20.164-46.668 20.164zM700.922 8.824v207.129h78.937c28.809 0 50.989-8.644 66.258-25.93 15.559-17.281 23.047-42.058 23.047-74.609 0-33.703-7.773-59.918-23.914-78.644-15.84-18.727-38.023-27.946-66.543-27.946h-77.785m203.676 0v207.129h147.792v-25.64H932.543v-61.938h110.627V104.18H932.543V34.75h122.147V8.824H904.598m211.792 182.93v-70.293h48.11c17.29 0 29.68 2.883 36.88 8.355 6.91 5.762 10.66 14.981 10.66 28.235 0 12.387-3.46 21.027-10.09 25.926-6.91 5.183-19.3 7.777-37.45 7.777zm-27.66 24.199h80.38c12.96 0 22.47-.574 28.81-1.73 6.05-1.149 11.52-2.879 16.42-5.473 8.64-4.898 15.27-11.523 19.88-19.875 4.61-8.645 6.91-18.727 6.91-30.25 0-11.234-2.3-20.742-7.2-28.52-4.9-8.066-11.81-14.117-21.32-18.726 8.07-2.305 13.83-6.047 17.28-11.524 3.47-5.183 5.48-14.402 6.34-27.078l2.31-33.992c.58-7.488 1.44-12.965 2.88-16.422 1.44-3.746 3.75-6.336 6.63-7.773V8.824h-32.56c-2.59 4.32-4.32 13.54-5.47 27.657v.863l-1.73 27.082c-.86 13.824-3.75 22.758-8.93 27.078-4.9 4.031-17.29 6.047-37.16 6.047h-45.52V8.824h-27.95v207.129" style="fill:#0ff;fill-opacity:1;fill-rule:nonzero;stroke:none" transform="matrix(.13333 0 0 -.13333 0 29.333)"/></svg>