<?xml version="1.0" encoding="UTF-8"?>
<!DOCTYPE svg PUBLIC "-//W3C//DTD SVG 1.1//EN" "http://www.w3.org/Graphics/SVG/1.1/DTD/svg11.dtd">
<!-- Creator: CorelDRAW 2021.5 -->
<svg xmlns="http://www.w3.org/2000/svg" xml:space="preserve" width="1.93357in" height="0.528366in" version="1.1" style="shape-rendering:geometricPrecision; text-rendering:geometricPrecision; image-rendering:optimizeQuality; fill-rule:evenodd; clip-rule:evenodd"
viewBox="0 0 957.94 261.77"
 xmlns:xlink="http://www.w3.org/1999/xlink"
 xmlns:xodm="http://www.corel.com/coreldraw/odm/2003">
 <defs>
  <style type="text/css">
   <![CDATA[
    .fil0 {fill:#4D4D4D}
   ]]>
  </style>
 </defs>
 <g id="Слой_x0020_1">
  <metadata id="CorelCorpID_0Corel-Layer"/>
  <g id="_105553658202624">
   <path class="fil0" d="M61.84 148.13c2.8,-2.74 1.3,0.67 1.74,-3.26l1.35 -5.12c1.17,-2.73 0.75,-3.13 1.37,-5.38 0.62,-2.23 1.56,-2.19 2.45,-4.15 0.77,-1.7 0.81,-3.28 1.67,-4.94 1.11,-2.15 1.16,-1.99 2,-4.7l18.46 -47.17c1.24,6.09 3.56,13.5 5.69,19.32 0.84,2.28 1.46,2.38 2.14,3.89 0.79,1.76 0.61,2.89 1.21,4.79l10.06 24.41c0.89,2.35 0.19,2.49 1.38,5.16l4.89 13.12c-3.2,1.73 -9.81,1.19 -13.79,1.67 -4.69,0.57 -8.67,0.77 -13.72,-0.53 -6.7,-1.73 -2.54,-1.68 -5.78,-0.19 -1.86,0.85 -17.33,-0.69 -17.88,-0.9 0.5,0.84 0.25,0.44 0.83,1.03l1.05 0.85c-1.64,0.15 -1.05,-0.17 -2.27,0.95 3.84,0.68 0.94,-0.17 2.42,1.18 0.68,0.63 -0.12,0.13 0.89,0.97 2.08,1.71 3.34,0.96 5.19,1.6l-3.82 0.56c-5.25,-0.16 -5.79,-0.78 -7.52,-3.18zm140.97 96.99l-0.14 -4.85 -3.21 0.32c0.88,2.34 0.77,3.17 3.35,4.53zm-47.01 -12.6c-1.36,-2.36 -0.98,-2.17 -3.9,-1.63 -0.74,2.73 0.41,5.31 1.89,6.66 1.3,1.19 1.23,0.88 2.17,2.38l1.31 1.84 1.15 -2.01c-1.78,-2.07 -1.2,-1 -2.71,-3.46 0.84,-5.24 -1.11,3.54 0.47,-1.27 0.03,-0.09 0.13,-0.25 0.15,-0.34 0.02,-0.08 0.1,-0.24 0.11,-0.32 0.07,-0.7 -0.27,-1.21 -0.64,-1.85zm5.54 21.86c0.85,1.07 1.02,1.32 1.89,2.18l-0.02 -3.18c0.01,-0.08 0.09,-0.25 0.14,-0.38l2.49 7.35c1.97,-0.35 1.29,-0.67 2.53,0.56l1.31 0.84c0.53,-0.59 0.45,-0.28 0.97,-1.25 0.59,-1.1 0.13,-0.27 0.28,-1.3l-0.86 1.03c0.04,-1.75 0.28,-3.52 -0.68,-4.58 -1.76,-1.94 0.76,2.39 -1.75,-0.91l0.58 3.82c-0.1,-0.1 -0.23,-0.26 -0.29,-0.33l-3.68 -4.7c-0.93,-1.93 -1.56,-4.71 -3.32,-5.75 -1.31,1.91 -0.14,4.13 0.4,6.6zm35.29 -73.78l-3.86 0.15c-0.6,-4.61 0.08,-3.01 3.29,-4 2.9,-0.89 0.82,-0.08 2.16,-3.57l0.42 -0.89c-1.42,-0.81 0.12,-0.35 -2.27,-0.75 1.83,-0.17 3.9,-0.66 6.35,-0.47 0.67,-1.75 1,0.26 -1.05,-2.01 1.99,0.15 2.05,0.36 4.7,-0.78 1.17,-0.51 0.66,-0.26 1.28,-0.66 -1.4,-1.98 -0.46,-0.2 -3.37,-2.16 -0.74,-0.5 -0.56,-0.37 -1,-0.86 0.76,-0.79 1.66,-1.13 2.81,-1.81 -0.6,-0.48 -0.37,-1 -2.93,-1.01l-1.77 0.3c-1.22,-1.22 -0.3,-0.18 -1.09,-0.96 -0.13,-0.12 -0.61,-0.62 -0.74,-0.75 -0.12,-0.13 -0.27,-0.32 -0.37,-0.42 -0.1,-0.11 -0.26,-0.28 -0.37,-0.44l6.15 -1.25c1.42,-0.33 1.21,-0.49 2.46,-1.12l1.27 -0.56c0.42,-0.15 0.97,-0.16 1.69,-0.42 -0.92,-1.6 -0.18,-1.13 -2.56,-1.71 2.8,-2.25 1.88,-0.38 1.51,-1.12 -2.42,0.07 -3,0.43 -4.84,-0.78l6.26 -1.2 -3.55 -1.81c1.92,-0.72 1.82,0.28 2.5,-0.95 -1.6,-0.79 -2.31,-0.83 -3.72,-1.45 -0.26,-1.65 0.33,-0.2 -1.06,-0.8 -1.32,-0.3 -2.29,-1.32 -3.78,-1.84 -2.1,-0.74 -4.17,-0.3 -4.97,-0.77 -0.84,-0.49 0.79,0.18 -0.84,-0.61 -2.42,-1.16 -1,-0.29 -1.75,-0.23 -0.01,0 -0.1,0.92 -1.44,-0.04l-0.87 -1.81c-2.08,-0.49 -14.82,-1.26 -16.36,-0.43l13.32 0.54c2.47,0.38 1.85,-1.1 1.67,1.75 -0.01,0.01 -18.27,0.6 -18.74,0.6 -3.12,0 -3.54,-0.75 -5.22,-0.59 -1.43,0.14 1.42,1.13 -1.37,0.03 -2.56,-1.31 -2.95,-4.61 -3.98,-7.52 -0.75,-2.12 -2.41,-4.17 -2.21,-6.04 0.12,-1.11 1.31,1.85 0.33,-1.38 -1.22,-3.69 -2.72,-2.07 -3.11,-6.79 -0.28,-3.33 -3.12,-5.65 -4.85,-10.31 -1.56,-4.18 1.27,0.37 -2.11,-6.8 -2.79,-5.9 -3.32,-12.92 -5.97,-18.77 -1.79,-3.97 -2.15,-7.88 -3.04,-12.02 -1.2,-5.52 -1.93,-1.46 -3.56,-5.47 -0.6,-1.46 -0.62,-2.75 -0.73,-3.82 -0.2,-2.03 -0.1,-2.1 -0.74,-3.71l-2 -5.43c-0.02,-0.1 -0.04,-0.27 -0.06,-0.37l-1.54 -5.12c-0.56,-1.99 -0.25,-1.54 -1.45,-3.38l-1.14 -3.04c-1.24,-4.24 -3.35,-7.11 -4.85,-10.88 -2.3,-5.79 -2.31,-3.59 -5.88,-8.01 -3.36,-4.17 -2.66,-3.95 -4.65,-1.94l-2.7 -3.4c0,0.03 0.01,0.23 0,0.27l-1.72 2.23c0.21,-6.11 -0.13,-16.88 -6.62,-19.47 -4.79,-1.91 -9.9,-1.2 -14.78,-1.78 -1.21,3.49 -5.71,2.45 -7.68,3.07 -2.85,0.91 -3.4,4.47 -5.98,5.59 -3.15,1.37 -3.3,2.95 -5.1,6.19 -3.13,5.62 -6.18,10.15 -8.82,15.89l-11.7 26.85c-0.04,0.09 -0.13,0.25 -0.18,0.35 -0.95,1.89 -1.09,1.89 -1.81,4.32l-6.67 16.21c-1.22,3.16 -1.89,6.7 -3.29,9.34 -1.81,3.39 -6.88,13.25 -7.21,16.65 -0.64,6.39 -2.8,3.73 -2.56,8 0.19,3.4 -1.31,4.47 -2.92,7.2 -0.07,0.11 -0.17,0.29 -0.23,0.39l-0.48 0.82c0.2,0.02 0.63,-0.06 0.72,-0.04 0.29,0.07 0.41,0.05 0.91,0.39 -0.72,1.89 -0.43,2.46 -0.59,2.93 -0.91,2.72 0.09,-0.09 -2.9,1.43 -1.03,4.22 1,1.45 0.56,4.22 -0.08,0 -0.21,-0.12 -0.23,-0.05 -0.55,1.73 -0.42,-0.13 -0.51,-0.17 -4.02,-1.48 2.49,0.47 -1.08,-0.42 -0.67,1.95 -1.25,5.02 -1.94,6.55l-2.4 5.92c0.68,-0.81 0.95,-2.41 2.32,-3.17 -0.73,3.12 -1.85,5.77 -2.67,8.32 -3.2,0.4 -7.75,0.75 -10.3,2.75 2.67,1.72 4.38,-1.23 5.81,2.41 -2.79,1.63 -4.12,-0.08 -7.14,3.48 1.63,0.98 2.71,1.64 5.32,1.47 -3.75,3.36 -6.36,1.77 -8.12,7.54l3.95 0.25 -1.22 2.5c-1.84,4.88 -2.01,-1.03 -1.21,8.27l-1.7 0.32c1.9,3.86 -0.17,1.08 -0.12,5.8 1.76,1.05 3.54,2.64 6.5,2.36 -0.67,1.23 -2.52,8.14 -1.31,9.03 0.06,0.05 0.26,0.12 0.38,0.2 -0.71,4.47 -0.4,6.95 -1.71,11.6l0.07 3.6 3.76 -11.94c0.5,2.76 -1.59,1.12 1.15,2.25l0.72 -4.83c0.99,1.01 1.38,-1.25 -0.48,4.68l-0.6 1.82c-0.41,1.26 -0.01,-0.64 -0.42,1.38 -0.06,0.32 -0.17,1.38 -0.18,1.7 -1.23,0.6 -0.03,0.07 -0.56,0.04 -2.38,-0.12 1.81,-1.65 -0.3,-0.04 -0.34,3.47 -0.36,-2.7 0.25,1.69l2.34 -3.06c0.4,-1.73 -0.44,0.28 0.31,-1.21 0.68,-1.34 0.22,-0.65 0.74,-0.79 0.08,0.28 0.26,-0.08 0.16,1.52 -0.12,1.97 -0.1,0.7 -0.39,1.93 -0.78,3.23 -0.35,2.27 -0.01,2.81 0.45,-1.42 -0.43,1.26 0.14,-0.71l1.29 -4.01c0.74,0.09 -1.08,-1.38 0.24,0.3l-1.93 8.8c0.76,-3.64 4.66,-8.8 5.95,-11.29 0.95,-1.83 -0.1,-1.54 -0.26,-1.9 -0.91,-1.97 0.12,4.42 0.65,0.83 0.1,-0.06 0.67,-0.93 0.71,-0.83 0.04,0.11 -1.54,-2.28 -1.48,-2.29 1.58,2.69 1.14,3.25 3.01,0.99 0.39,1.38 -5.1,13.62 -5.49,16.32 0.09,-0.15 0.22,-0.54 0.26,-0.45l0.88 -1.81c0.37,-0.97 2.44,-4.86 2.74,-5.94 0.83,0.68 -1.66,3.05 -1.01,4.83 0.91,-0.34 -0.89,7.65 0.21,5.46l0.4 0.22c0.99,-0.39 -0.69,3.46 -0.65,3.26 0.65,-3.52 1.37,-3.45 2.48,-3.72l-1.12 4.98c0.12,-0.12 0.25,-0.46 0.29,-0.37l3.29 -4.53c-0.81,3.03 5.99,-12.5 4.81,-9.57 -1.64,4.06 -2.23,4.74 -2.59,7.9 -0.51,4.41 -0.73,0.58 -1.21,0.64 -0.99,3.24 -2.76,7.95 -4.22,10.85 0.91,1.14 -0.32,0.93 1.1,0.15 0.35,-1.66 0.98,-1.26 1.01,-1.23 0.73,0.76 -1.32,5.11 -2.06,6.51 0.11,1.45 0.09,2.81 0.38,4.15 0.28,1.29 0.21,0.56 0.32,0.64l0.87 0.03c-0.13,0.84 -0.13,0.38 -0.32,0.93 -0.73,2.16 -0.75,0.55 -0.69,2.96 0.78,-0.9 1.91,-1.58 2.2,-4.82 0.2,-2.32 0.32,-0.35 1.47,-2.28 1.49,-2.48 0.01,1.28 0.62,0.9 2.09,-1.29 -0.09,-2.99 2.65,-6.51 2.37,0.95 -0.19,9.2 1.71,7.25 2.36,-2.44 -1.71,1.3 1.95,-5.39l0.94 -2.43c0.9,-1.76 0.05,0.59 0.36,-0.49 0.46,-1.56 0.49,0.43 -0.12,-0.34l-0.36 -0.27c1.76,-3.71 0.53,-7.61 3.73,-10.37 2.02,-1.74 5.99,-14.12 6.93,-18.32 0.44,-1.98 1.26,-3.48 1.87,-5.32 5.97,0.15 41.26,-0.6 44.99,-1.42 -1.28,-0.83 -1.59,-0.59 -2.68,-1.37 3.81,-0.89 23.78,-1.06 27.64,-1.01l-1.45 -1.81 2.93 1.1c0.02,0.07 0.07,0.26 0.14,0.38 7.46,0.47 1.8,-1.19 6.62,-1.83 1.55,-0.21 3.33,0.07 4.89,-0 0.87,-0.04 1.27,0.04 2.09,-0.34 1.48,-0.7 0.57,0.11 1.11,-1.18 1.97,0.65 2.3,0.49 2.44,2.72 1.47,1.2 0.17,0.03 -1.26,0.91 6.17,3.9 3.2,4.83 8.01,16.11 0.07,-2.56 -0.68,-5.34 -1.42,-7.67l-1.67 -4.88c-0.34,-0.91 -0.49,-1.16 -0.59,-1.28 4.91,-0.19 -0.27,1.57 4.81,3.7 -0.91,-2.02 -0.02,-0.38 -0.82,-1.6 -0.46,-0.7 -0.76,-0.96 -1.18,-1.4 1.91,-0.52 1.17,-0.19 2.72,-1.22 -2.1,-0.99 -2.2,-0.32 -4.58,-1.12 1.67,-0.98 2.49,-0.97 4.34,-0.99l-0.86 -0.22c-3.26,-0.39 -4.47,0.89 -5.77,-1.1 1.13,-0.59 2.18,-0.57 4.02,-0.63 0.71,-0.02 1.75,-0.04 2.44,0.02 4.89,0.46 1.21,0.97 5.4,6.06 3.69,4.48 -1.21,-1.81 2.61,7.56l3.84 10.65c1.64,4.02 2,3.06 2.93,3.54 -0.7,-2.64 -0.43,-0.97 -0.66,-3.47l-0.49 -1.47c-1.53,-2.72 -1.08,-6.09 -1.89,-7.47 -2.14,-3.65 -0.38,1.72 -1.41,-1.61 -0.82,-2.63 1.57,1.43 -1.05,-5.35 0.03,0.01 -0.03,0.07 -0.03,0.11l-0.91 0.02c-0.04,-0.01 -0.24,-0.05 -0.33,-0.13l0.39 -3.1c0.3,-0.89 0.4,-0.89 0.63,-1.3l2.23 4.76c-1.21,1.46 -1.02,-2.81 -1.02,2.05 1.33,0.8 2.58,5.8 3.49,8.83l1.07 3.22c0.41,1.08 0.6,1.78 1.11,3.11 3.23,8.36 3.35,6.53 5.77,6.54 -0.95,2.32 -0.16,-0.04 -0.89,1.35 -0.1,0.19 -0.19,0.3 -0.28,0.51 -0.1,0.21 -0.16,0.32 -0.25,0.55 -0.71,1.95 -0.59,3.26 0.36,5.1 0.09,0.18 0.4,0.64 0.51,0.79l10.34 21.31c1.08,2.3 1.59,1.86 0.31,3.85 -1.49,-1.29 -5.53,-12.77 -6.45,-15.31 -1.85,-5.13 -5.26,-10.59 -7.12,-15.32 -0.34,0.18 -1.24,0.59 -1.52,0.73l-0.98 0.67c2.87,4 4.04,2.23 4.86,10.24 0.06,0.04 0.18,0.09 0.2,0.11 0.02,0.02 0.17,0.1 0.2,0.12 0.03,0.02 0.17,0.12 0.2,0.14 1.14,1.02 1.38,2.09 1.76,3.43 -1,-1.59 -0.96,-1.6 -2.42,-1.99l2.49 2.85c1.75,0.62 7,16.72 8.05,18.52l2.92 3.92c-0.16,-0.65 -0.51,-1.48 -0.44,-2.38 0.11,-1.52 0.01,-0.82 0.71,-1.83l1.11 0.85c-1.66,5.61 1.35,-0.66 0.78,4.57l1.42 -1.52c0.13,-0.16 0.82,-1.12 0.92,-1.27 1.07,-1.57 0.14,-1.12 1.07,-1.57 1.89,-1.02 2.57,-1.99 3.81,-3.3 0.46,0.61 0.4,0.62 1.08,1.16l3.91 2.38c-0.04,-0.65 -0.26,-1.88 -0.27,-2.26l0.1 -1.52c2.46,-0.86 -0.12,-0.56 2.09,0.56l2.85 2.52c-1.22,2.59 0.22,0.33 -1.77,1.21 1.88,1.6 2.23,1.27 1.75,4.66 1.31,-2.17 0.53,-0.5 0.51,-2.11 -0.03,-2.83 -0.66,-3.73 2.53,-2.21 1.35,0.64 -1.21,0.75 2.97,0.94l-1.54 -6.88 1.74 1.15c1.36,1.1 0.44,1.08 2.03,1.26 1.17,-1.51 0.49,-2.06 1.35,-3.34 1.27,-1.88 1.33,2.13 1.41,-3.59 -1.19,0.59 -2.12,2.52 -4.31,2.26 -1.43,-3.53 -0.31,-1.05 0.21,-2.5 0.62,-1.71 0.22,-0.82 0.09,-3.31l-2.04 1.41c-1,-5.45 -3.24,-0.52 -2.19,-3.81 -0.88,-0.98 -1.77,-2.54 -1.93,-3.79 -0.48,-3.91 0.06,-0.99 -1.53,-4.22 -0.77,-1.58 -0.66,-2.63 -1.86,-4.84 -3.52,-6.47 -1.75,-0.68 -3.51,-9.07 -0.65,-3.11 -0.27,-1.62 -1.85,-4.27l-2.39 -5.89c-0.68,-2.25 0.69,-0.49 -1.03,-2.07 -2.72,-2.35 -1.49,-5.69 -4.19,-10.49 -0.09,-0.15 -0.36,-0.56 -0.43,-0.71 -0.77,-1.59 -0.24,-0.95 -0.45,-2.2 -0.4,-2.31 -1.92,-4.79 -3.25,-7.53l16.81 0.89 0.67 -2.29c1.65,3.23 -0.68,0.94 4.07,0.45 2.34,-0.53 5.34,-0.67 6.27,-2.65l-3.93 -0.27zm-47.48 36.76c-2.33,-0.59 -1.39,-0.72 -2.29,-1.11l-0.75 0.11c-0.13,1.07 0.05,1.97 0.63,3.3 1.03,2.34 0.77,1.74 3.24,2.03l-0.19 2.19c0.57,-1.37 -0.06,-0.87 1.67,-0.3l0.46 0.07c-2.17,-7.53 -0.01,0.07 -2.76,-6.3zm31.73 17.65l1.38 2.26c0.4,0.96 0.47,1.47 0.84,2.22l2.72 3.76 -1.76 -5.63c4.5,2.3 3.11,4.74 2.37,7.43 -0.05,0.18 -0.11,0.74 -0.15,0.65 -0.04,-0.09 -0.1,0.46 -0.14,0.68l-1.55 0.78c-0.7,-2.32 -3.49,-8.2 -3.72,-12.15zm-60.23 -80.43l-15.74 1.11 -11.34 -0.12c1.4,-0.87 7.29,-0.62 11.06,-1.21 -0.42,-0.28 -18.14,0.38 -21.35,-1.21 2.05,-1.78 11.19,-0.59 13.87,-0.34 3.04,0.29 11.75,-1.19 15.58,-1.55 0.52,1.73 -4.37,1.05 6.68,0.67 0.64,2.26 -0.78,1.51 1.23,2.64zm-19.96 4.03l5.42 0.82c1.48,-0.21 2.84,-0.09 4.52,-0.32 3.38,-0.46 7.26,-0.72 11.15,-0.4 0.12,0.16 0.27,0.21 0.33,0.5 0.06,0.3 0.51,0.8 0.6,0.96l4.03 9.3c-1.28,2.71 0.02,-0.51 -1.43,1.72 2.97,0.69 1.74,-0.39 2.64,3.15 -2.27,0.01 -4.46,-0.26 -6.66,-0.49 -2.72,-0.28 -3.49,0.26 -6.09,0.29 -2.04,0.02 -2.97,-0.61 -5.47,-0.65 -0.6,-0.01 -3.56,0.18 -3.64,0.17 -5.88,-0.59 -1.87,0.17 -3.6,-1.85l22.33 -1.11c-8.78,0.12 -19,0.48 -27.67,-0.29 1.12,-0.39 0.79,-0.12 1.78,-0.32l1.06 -1.22 -1.4 -0.41c-0.12,-0.04 -0.34,-0.11 -0.43,-0.14 -0.09,-0.03 -0.3,-0.06 -0.42,-0.14 1.38,-2.09 1.97,-0.9 4.58,-1.81 -0.04,-3.36 -1.06,-1.56 -5.93,-2.27l-2.78 -0.94c-1.02,-0.7 -0.86,-1.4 -3.56,-1.26 -2.05,0.11 -3.63,0.17 -5.99,-0.1l0.17 -2.16c5.29,1.3 9.8,-1.54 12.77,-1.52 0.16,0 0.33,0.03 0.49,0.04 0.17,0.01 0.34,0.05 0.5,0.07 0.16,0.02 0.34,0.07 0.5,0.09 0.15,0.02 0.33,0.07 0.47,0.09 0.15,0.02 1.33,0.12 1.74,0.14z"/>
   <path class="fil0" d="M957.94 215.63c-2.8,0.07 -6.18,0.19 -10.05,0.36 -3.91,0.19 -6.4,0.29 -7.43,0.29 -11.75,0 -19.76,-2.19 -24.12,-6.57 -4.31,-4.39 -6.47,-13.04 -6.47,-25.97l0 -61.87 -15.12 0 0 -21.55 15.12 0 0 -31.25 30.4 0 0 31.25 17.67 0 0 21.55 -17.67 0 0 63.35c0,3.01 0.69,4.99 2.01,5.92 1.34,0.98 4.06,1.44 8.2,1.44l7.47 0 0 23.06zm-133.61 -0.86l0 -114.46 28.42 0 0 19.58c3.98,-7.83 8.65,-13.61 14,-17.28 5.35,-3.7 11.71,-5.53 19.11,-5.53 1.19,0 2.13,0 2.78,0.04 0.67,0.04 1.22,0.11 1.65,0.17l0.1 31.04 -10.24 0c-8.37,0 -14.65,2.19 -18.89,6.55 -4.2,4.34 -6.33,10.81 -6.33,19.35l0 60.54 -30.61 0zm-57.99 -127.17l0 -27.81 30.61 0 0 27.81 -30.61 0zm0 127.17l0 -114.46 30.61 0 0 114.46 -30.61 0zm-129.77 0l0 -154.98 30.39 0 0 53.17c4.13,-5.17 9.06,-9.09 14.8,-11.72 5.71,-2.61 12.11,-3.95 19.18,-3.95 6.76,0 12.83,1.15 18.29,3.48 5.43,2.3 9.81,5.61 13.19,9.88 2.33,2.88 3.95,6.18 4.89,9.88 0.96,3.7 1.44,9.66 1.44,17.89l0 2.08 0 74.26 -30.4 0 0 -59.92c0,-14.19 -1.3,-23.07 -3.88,-26.69 -2.62,-3.64 -7.29,-5.42 -14.01,-5.42 -7.26,0 -12.97,2.15 -17.17,6.47 -4.2,4.31 -6.33,10.2 -6.33,17.64l0 67.93 -30.39 0zm-148.96 -47.85l31.48 0c1.18,8.48 4.67,14.76 10.41,18.86 5.75,4.1 14.09,6.14 24.97,6.14 9.24,0 16.24,-1.65 20.95,-4.96 4.71,-3.26 7.05,-8.15 7.05,-14.58 0,-9.42 -13.51,-17.17 -40.52,-23.35l-0.94 -0.22c-0.68,-0.14 -1.8,-0.39 -3.26,-0.72 -14.44,-3.16 -24.76,-6.71 -30.94,-10.67 -5.46,-3.48 -9.63,-8.22 -12.49,-14.15 -2.88,-5.92 -4.32,-12.93 -4.32,-21.01 0,-15.08 5.14,-26.66 15.39,-34.7 10.24,-8.05 25,-12.08 44.37,-12.08 18.1,0 32.27,4.29 42.46,12.87 10.21,8.59 15.56,20.65 16.14,36.28l-30.62 0c-0.57,-7.5 -3.45,-13.21 -8.62,-17.17 -5.21,-3.91 -12.57,-5.89 -22.2,-5.89 -8.34,0 -14.77,1.61 -19.3,4.89 -4.53,3.26 -6.79,7.93 -6.79,13.97 0,8.2 8.8,14.34 26.4,18.39 4.78,1.15 8.49,2.02 11.15,2.66 11.31,2.88 19.32,5.11 24.07,6.72 4.7,1.62 8.84,3.41 12.35,5.35 6.33,3.52 11.03,8.15 14.19,13.94 3.17,5.78 4.75,12.71 4.75,20.79 0,16.13 -5.43,28.63 -16.31,37.5 -10.89,8.88 -26.23,13.29 -45.99,13.29 -19.51,0 -34.81,-4.53 -45.91,-13.57 -11.1,-9.02 -17.07,-21.92 -17.89,-38.58zm-74.37 4.96l0 -28.89 59.07 0 0 28.89 -59.07 0zm-56.8 42.89l0 -127.39 -45.91 0 0 -27.59 123.51 0 0 27.59 -45.69 0 0 127.39 -31.91 0zm-105.92 -42.89l0 -28.89 59.07 0 0 28.89 -59.07 0z"/>
  </g>
 </g>
</svg>
