<svg width="36" height="13" viewBox="0 0 36 13" fill="none" xmlns="http://www.w3.org/2000/svg">
<path d="M29.656 7.75615L29.7434 7.45663C29.8461 7.09951 29.8077 6.77024 29.6349 6.52832C29.4755 6.3056 29.2096 6.17407 28.8871 6.15871L22.7767 6.08096C22.7354 6.07904 22.7018 6.05984 22.6807 6.02912C22.6595 5.9984 22.6547 5.95807 22.6672 5.91871C22.6874 5.85823 22.7469 5.81311 22.8093 5.81023L28.9763 5.73248C29.7079 5.69888 30.4999 5.10464 30.7773 4.38176L31.1287 3.46304C31.1383 3.43808 31.1431 3.4112 31.1431 3.38528C31.1431 3.37088 31.1421 3.35648 31.1392 3.34208C30.7389 1.54592 29.1367 0.202881 27.2195 0.202881C25.4541 0.202881 23.9536 1.3424 23.416 2.92736C23.0695 2.6672 22.625 2.52896 22.1479 2.576C21.3002 2.66048 20.6195 3.34208 20.5351 4.18976C20.513 4.4096 20.5312 4.62176 20.5811 4.82144C19.1968 4.86176 18.0871 5.99552 18.0871 7.38944C18.0871 7.5152 18.0967 7.63904 18.1139 7.76096C18.1226 7.81952 18.1725 7.86367 18.2311 7.86367L29.512 7.86463C29.513 7.86463 29.5139 7.86463 29.5149 7.86463C29.5792 7.86271 29.6359 7.82048 29.6541 7.75808L29.656 7.75615ZM35.5312 9.51967C35.5571 9.51967 35.5831 9.50624 35.5831 9.4688C35.5831 9.43136 35.5639 9.41792 35.5312 9.41792H35.4343V9.51967H35.5312ZM2.27778 10.929C2.1693 11.1728 1.94178 11.3466 1.64034 11.3466C1.2189 11.3466 0.928979 10.9962 0.928979 10.5949V10.5872C0.928979 10.1859 1.21122 9.84415 1.63266 9.84415C1.95042 9.84415 2.19234 10.04 2.2941 10.3059H3.10722C2.97666 9.64352 2.3949 9.14912 1.64034 9.14912C0.782096 9.14912 0.137939 9.79712 0.137939 10.5958V10.6035C0.137939 11.4032 0.77442 12.0426 1.63266 12.0426C2.36706 12.0426 2.94114 11.5674 3.09282 10.9299H2.27778V10.929ZM32.2999 9.20288H34.5376V9.85856H33.0631V10.28H34.3984V10.8886H33.0631V11.3302H34.5578V11.9859H32.2999V9.20288ZM29.9978 10.5382C30.2608 10.5382 30.4115 10.4115 30.4115 10.208V10.2003C30.4115 9.98144 30.2522 9.87008 29.9939 9.87008H29.489V10.5382H29.9978ZM28.7181 9.20288H30.0343C30.4595 9.20288 30.7543 9.31424 30.9405 9.50528C31.1037 9.66464 31.1872 9.87872 31.1872 10.1533V10.161C31.1872 10.5862 30.9607 10.8685 30.6151 11.0154L31.2794 11.9859H30.3885L29.8279 11.143H29.4899V11.9859H28.7181V9.20288ZM26.4727 10.8886L26.1626 10.0976L25.8487 10.8886H26.4727ZM25.7968 9.18271H26.5399L27.7245 11.9859H26.8979L26.6954 11.4886H25.6221L25.4234 11.9859H24.6122L25.7968 9.18271ZM21.6621 9.20288H22.4339V11.3101H23.7818V11.9859H21.6631V9.20288H21.6621ZM18.3626 9.20288H20.5888V9.87871H19.1344V10.352H20.4506V10.9923H19.1344V11.9859H18.3635V9.20288H18.3626ZM15.6832 11.3024C16.144 11.3024 16.4503 11.048 16.4503 10.5987V10.591C16.4503 10.1456 16.144 9.88736 15.6832 9.88736H15.3683V11.3024H15.6832ZM14.5975 9.20288H15.6707C16.6643 9.20288 17.2413 9.77504 17.2413 10.5786V10.5872C17.2413 11.3898 16.6567 11.9859 15.6554 11.9859H14.5975V9.20288ZM10.8247 10.7658V9.20288H11.608V10.7494C11.608 11.1507 11.8106 11.3418 12.1207 11.3418C12.4307 11.3418 12.6333 11.1584 12.6333 10.7696V9.20288H13.4167V10.7456C13.4167 11.6442 12.904 12.0378 12.113 12.0378C11.3219 12.0378 10.8247 11.6365 10.8247 10.7658ZM9.09282 10.6026V10.5949C9.09282 10.1926 8.8029 9.84319 8.37762 9.84319C7.95618 9.84319 7.67394 10.185 7.67394 10.5862V10.5939C7.67394 10.9952 7.96386 11.3456 8.3853 11.3456C8.81058 11.3456 9.09282 11.0038 9.09282 10.6026ZM6.8829 10.6026V10.5949C6.8829 9.7952 7.52706 9.14719 8.3853 9.14719C9.24354 9.14719 9.88002 9.78751 9.88002 10.5872V10.5949C9.88002 11.3936 9.23586 12.0416 8.37762 12.0416C7.51938 12.0416 6.8829 11.4013 6.8829 10.6026ZM3.96546 9.20288H4.7373V11.3101H6.08514V11.9859H3.96642V9.20288H3.96546ZM35.6445 9.69248H35.5735L35.513 9.57728H35.4323V9.69152H35.3699V9.36032H35.5283C35.5975 9.36032 35.6426 9.40256 35.6426 9.4688C35.6426 9.5168 35.6147 9.55424 35.5735 9.5696L35.6445 9.69248ZM35.4919 9.28928C35.3584 9.28928 35.2509 9.39872 35.2509 9.53408C35.2509 9.66944 35.3594 9.77984 35.4919 9.77984C35.6253 9.77984 35.7328 9.6704 35.7328 9.53408C35.7328 9.39872 35.6243 9.28928 35.4919 9.28928ZM35.4919 9.83456C35.3258 9.83456 35.1904 9.70016 35.1904 9.53408C35.1904 9.36896 35.3258 9.2336 35.4919 9.2336C35.6579 9.2336 35.7933 9.368 35.7933 9.53408C35.7933 9.70016 35.6579 9.83456 35.4919 9.83456ZM31.6893 3.52928C31.6327 3.52928 31.576 3.5312 31.5203 3.53408C31.5107 3.53408 31.5021 3.53696 31.4935 3.53984C31.4647 3.5504 31.4407 3.57344 31.432 3.60512L31.192 4.43456C31.0893 4.79168 31.1267 5.12096 31.3005 5.36288C31.4599 5.58656 31.7258 5.71712 32.0483 5.73248L33.3511 5.81023C33.3895 5.81215 33.4231 5.83039 33.4442 5.86015C33.4663 5.89183 33.4711 5.93216 33.4576 5.97056C33.4375 6.03104 33.3779 6.07616 33.3155 6.07904L31.9619 6.1568C31.2275 6.1904 30.4346 6.78464 30.1581 7.50752L30.0602 7.76288C30.0419 7.80896 30.0755 7.85888 30.1245 7.8608C30.1255 7.8608 30.1264 7.8608 30.1283 7.8608H34.7853C34.841 7.8608 34.8909 7.82432 34.9053 7.77152C34.9859 7.48352 35.0291 7.18015 35.0291 6.86719C35.0291 5.02303 33.5344 3.52736 31.6893 3.52736V3.52928Z" fill="#4D4D4D"/>
</svg>
