<?xml version="1.0" encoding="UTF-8"?>
<!DOCTYPE svg PUBLIC "-//W3C//DTD SVG 1.1//EN" "http://www.w3.org/Graphics/SVG/1.1/DTD/svg11.dtd">
<svg xmlns="http://www.w3.org/2000/svg" version="1.1" width="432px" height="303px" style="shape-rendering:geometricPrecision; text-rendering:geometricPrecision; image-rendering:optimizeQuality; fill-rule:evenodd; clip-rule:evenodd" xmlns:xlink="http://www.w3.org/1999/xlink">
<g><path style="opacity:0.95" fill="#e50093" d="M 108.5,128.5 C 110.72,133.272 113.22,137.938 116,142.5C 117.965,145.491 120.132,148.157 122.5,150.5C 124.234,154.3 126.234,157.966 128.5,161.5C 132.681,169.208 137.348,176.542 142.5,183.5C 167.073,222.304 191.406,261.304 215.5,300.5C 206.273,301.817 197.107,301.817 188,300.5C 168.304,268.66 148.47,236.994 128.5,205.5C 124.829,197.481 120.162,190.148 114.5,183.5C 112.766,179.7 110.766,176.034 108.5,172.5C 104.194,164.876 99.5274,157.543 94.5,150.5C 63.2606,101.029 32.2606,51.3628 1.5,1.5C 10.7266,0.183416 19.8933,0.183416 29,1.5C 55.3631,44.0063 81.8631,86.3397 108.5,128.5 Z"/></g>
<g><path style="opacity:0.947" fill="#e50093" d="M 149.5,173.5 C 145.662,165.329 140.996,157.662 135.5,150.5C 133.403,146.628 131.069,142.961 128.5,139.5C 124.829,131.481 120.162,124.148 114.5,117.5C 90.9496,78.6029 66.9496,39.9363 42.5,1.5C 51.4815,0.3347 60.4815,0.168033 69.5,1C 89.4584,32.4157 109.292,63.9157 129,95.5C 148.302,64.0339 167.802,32.7006 187.5,1.5C 196.816,0.334604 206.149,0.167937 215.5,1C 190.759,40.0177 166.592,79.1844 143,118.5C 145.179,121.538 147.345,124.538 149.5,127.5C 176.278,85.454 202.944,43.2874 229.5,1C 238.518,0.168033 247.518,0.3347 256.5,1.5C 225.25,50.9986 194.25,100.665 163.5,150.5C 194.5,200.5 225.5,250.5 256.5,300.5C 247.5,301.833 238.5,301.833 229.5,300.5C 203.059,257.934 176.392,215.6 149.5,173.5 Z"/></g>
<g><path style="opacity:0.948" fill="#4e4c4d" d="M 114.5,117.5 C 120.162,124.148 124.829,131.481 128.5,139.5C 126.234,143.034 124.234,146.7 122.5,150.5C 120.132,148.157 117.965,145.491 116,142.5C 113.22,137.938 110.72,133.272 108.5,128.5C 110.766,124.966 112.766,121.3 114.5,117.5 Z"/></g>
<g><path style="opacity:0.839" fill="#e50093" d="M 226.5,127.5 C 228.833,127.5 231.167,127.5 233.5,127.5C 233.333,138.172 233.5,148.839 234,159.5C 235.434,164.55 238.767,166.883 244,166.5C 248.732,166.802 252.065,164.802 254,160.5C 254.5,149.505 254.667,138.505 254.5,127.5C 256.833,127.5 259.167,127.5 261.5,127.5C 261.939,139.909 261.439,152.242 260,164.5C 256.672,170.836 251.338,173.836 244,173.5C 236.379,174.361 231.046,171.361 228,164.5C 226.561,152.242 226.061,139.909 226.5,127.5 Z"/></g>
<g><path style="opacity:0.812" fill="#e50093" d="M 269.5,127.5 C 273.007,126.994 276.174,127.66 279,129.5C 285.333,139.5 291.667,149.5 298,159.5C 298.5,148.839 298.667,138.172 298.5,127.5C 300.833,127.5 303.167,127.5 305.5,127.5C 305.5,142.5 305.5,157.5 305.5,172.5C 302.315,172.98 299.481,172.314 297,170.5C 290.583,159.997 283.916,149.663 277,139.5C 276.5,150.495 276.333,161.495 276.5,172.5C 274.167,172.5 271.833,172.5 269.5,172.5C 269.5,157.5 269.5,142.5 269.5,127.5 Z"/></g>
<g><path style="opacity:0.839" fill="#e50093" d="M 314.5,127.5 C 323.235,127.124 331.902,127.624 340.5,129C 347.952,133.739 351.286,140.573 350.5,149.5C 351.328,161.039 346.328,168.539 335.5,172C 328.508,172.5 321.508,172.666 314.5,172.5C 314.5,157.5 314.5,142.5 314.5,127.5 Z M 321.5,133.5 C 340.092,131.976 346.925,140.309 342,158.5C 340.878,160.624 339.378,162.457 337.5,164C 332.292,165.397 326.959,165.897 321.5,165.5C 321.5,154.833 321.5,144.167 321.5,133.5 Z"/></g>
<g><path style="opacity:0.844" fill="#e50093" d="M 357.5,127.5 C 368.167,127.5 378.833,127.5 389.5,127.5C 389.5,129.5 389.5,131.5 389.5,133.5C 381.167,133.5 372.833,133.5 364.5,133.5C 364.5,137.833 364.5,142.167 364.5,146.5C 372.167,146.5 379.833,146.5 387.5,146.5C 387.5,148.5 387.5,150.5 387.5,152.5C 379.833,152.5 372.167,152.5 364.5,152.5C 364.5,156.833 364.5,161.167 364.5,165.5C 372.84,165.334 381.173,165.5 389.5,166C 390.576,167.726 390.743,169.559 390,171.5C 379.248,172.487 368.415,172.82 357.5,172.5C 357.5,157.5 357.5,142.5 357.5,127.5 Z"/></g>
<g><path style="opacity:0.844" fill="#e50093" d="M 396.5,127.5 C 404.507,127.334 412.507,127.5 420.5,128C 428.173,130.842 431.006,136.342 429,144.5C 427.878,146.624 426.378,148.457 424.5,150C 426.723,150.652 427.89,152.152 428,154.5C 428.266,160.598 429.099,166.598 430.5,172.5C 427.881,172.768 425.381,172.435 423,171.5C 422.339,165.826 421.172,160.326 419.5,155C 414.292,153.603 408.959,153.103 403.5,153.5C 403.5,159.833 403.5,166.167 403.5,172.5C 401.167,172.5 398.833,172.5 396.5,172.5C 396.5,157.5 396.5,142.5 396.5,127.5 Z M 403.5,133.5 C 408.179,133.334 412.845,133.501 417.5,134C 424.167,138.333 424.167,142.667 417.5,147C 412.845,147.499 408.179,147.666 403.5,147.5C 403.5,142.833 403.5,138.167 403.5,133.5 Z"/></g>
<g><path style="opacity:0.944" fill="#4e4c4d" d="M 135.5,150.5 C 140.996,157.662 145.662,165.329 149.5,173.5C 147.179,176.796 144.846,180.129 142.5,183.5C 137.348,176.542 132.681,169.208 128.5,161.5C 131.069,158.039 133.403,154.372 135.5,150.5 Z"/></g>
<g><path style="opacity:0.95" fill="#4e4c4d" d="M 94.5,150.5 C 99.5274,157.543 104.194,164.876 108.5,172.5C 105.747,177.008 102.747,181.341 99.5,185.5C 94.9302,178.704 90.5969,171.704 86.5,164.5C 88.739,159.593 91.4057,154.926 94.5,150.5 Z"/></g>
<g><path style="opacity:0.94" fill="#e50093" d="M 86.5,164.5 C 90.5969,171.704 94.9302,178.704 99.5,185.5C 76.1472,224.364 52.1472,262.864 27.5,301C 18.8397,301.5 10.1731,301.666 1.5,301.5C 1.49136,299.692 1.99136,298.025 3,296.5C 30.6081,252.267 58.4414,208.267 86.5,164.5 Z"/></g>
<g><path style="opacity:0.65" fill="#e50093" d="M 344.5,179.5 C 357.154,180.445 361.654,187.111 358,199.5C 353.995,206.505 348.161,208.339 340.5,205C 335.874,199.537 334.708,193.37 337,186.5C 338.767,183.228 341.267,180.895 344.5,179.5 Z M 346.5,182.5 C 352.54,183.374 355.54,186.874 355.5,193C 355.814,198.905 353.147,202.405 347.5,203.5C 341.542,202.87 338.875,199.536 339.5,193.5C 339.097,187.949 341.431,184.283 346.5,182.5 Z"/></g>
<g><path style="opacity:0.657" fill="#e50093" d="M 304.5,180.5 C 306.124,180.36 307.29,181.027 308,182.5C 309.333,187.833 310.667,193.167 312,198.5C 314.121,193.027 315.787,187.36 317,181.5C 318.356,180.62 319.856,180.286 321.5,180.5C 322.524,186.932 324.024,193.265 326,199.5C 327.976,193.265 329.476,186.932 330.5,180.5C 331.873,180.343 333.207,180.51 334.5,181C 332.262,188.783 330.095,196.616 328,204.5C 326.667,205.833 325.333,205.833 324,204.5C 322.333,198.5 320.667,192.5 319,186.5C 317.337,192.817 315.837,199.151 314.5,205.5C 312.549,205.773 311.049,205.107 310,203.5C 307.691,195.932 305.858,188.266 304.5,180.5 Z"/></g>
<g><path style="opacity:0.643" fill="#e50093" d="M 362.5,180.5 C 364.167,180.5 365.833,180.5 367.5,180.5C 369.235,187.038 371.569,193.372 374.5,199.5C 377.431,193.372 379.765,187.038 381.5,180.5C 383.167,180.5 384.833,180.5 386.5,180.5C 386.5,188.833 386.5,197.167 386.5,205.5C 385.167,205.5 383.833,205.5 382.5,205.5C 382.666,200.156 382.499,194.823 382,189.5C 380.333,194.167 378.667,198.833 377,203.5C 375.333,206.167 373.667,206.167 372,203.5C 370,198.167 368,192.833 366,187.5C 365.501,193.491 365.334,199.491 365.5,205.5C 364.5,205.5 363.5,205.5 362.5,205.5C 362.5,197.167 362.5,188.833 362.5,180.5 Z"/></g>
<g><path style="opacity:0.68" fill="#e50093" d="M 390.5,180.5 C 396.167,180.5 401.833,180.5 407.5,180.5C 407.5,181.5 407.5,182.5 407.5,183.5C 402.833,183.5 398.167,183.5 393.5,183.5C 393.5,186.167 393.5,188.833 393.5,191.5C 397.833,191.5 402.167,191.5 406.5,191.5C 406.5,192.5 406.5,193.5 406.5,194.5C 402.167,194.5 397.833,194.5 393.5,194.5C 393.5,197.167 393.5,199.833 393.5,202.5C 398.5,202.5 403.5,202.5 408.5,202.5C 408.5,203.5 408.5,204.5 408.5,205.5C 402.5,205.5 396.5,205.5 390.5,205.5C 390.5,197.167 390.5,188.833 390.5,180.5 Z"/></g>
<g><path style="opacity:0.688" fill="#e50093" d="M 410.5,180.5 C 412.144,180.286 413.644,180.62 415,181.5C 419,187.5 423,193.5 427,199.5C 427.5,193.175 427.666,186.842 427.5,180.5C 428.5,180.5 429.5,180.5 430.5,180.5C 430.5,188.833 430.5,197.167 430.5,205.5C 428.278,205.822 426.444,205.155 425,203.5C 421.333,197.833 417.667,192.167 414,186.5C 413.5,192.825 413.334,199.158 413.5,205.5C 412.5,205.5 411.5,205.5 410.5,205.5C 410.5,197.167 410.5,188.833 410.5,180.5 Z"/></g>
<g><path style="opacity:0.942" fill="#4e4c4d" d="M 114.5,183.5 C 120.162,190.148 124.829,197.481 128.5,205.5C 126.07,210.037 123.403,214.37 120.5,218.5C 115.833,211.833 111.167,205.167 106.5,198.5C 109.167,193.5 111.833,188.5 114.5,183.5 Z"/></g>
<g><path style="opacity:0.933" fill="#e50093" d="M 106.5,198.5 C 111.167,205.167 115.833,211.833 120.5,218.5C 103.527,245.816 86.5267,273.149 69.5,300.5C 60.5246,301.498 51.5246,301.832 42.5,301.5C 42.3505,300.448 42.5172,299.448 43,298.5C 63.9414,264.933 85.1081,231.6 106.5,198.5 Z"/></g>
</svg>
