<?xml version="1.0" encoding="UTF-8" standalone="no"?>
<!-- Created with Inkscape (http://www.inkscape.org/) -->

<svg
   version="1.1"
   id="svg2"
   width="230.66667"
   height="161.33333"
   viewBox="0 0 230.66667 161.33333"
   sodipodi:docname="XU_Logo-M.eps"
   xmlns:inkscape="http://www.inkscape.org/namespaces/inkscape"
   xmlns:sodipodi="http://sodipodi.sourceforge.net/DTD/sodipodi-0.dtd"
   xmlns="http://www.w3.org/2000/svg"
   xmlns:svg="http://www.w3.org/2000/svg">
  <defs
     id="defs6" />
  <sodipodi:namedview
     id="namedview4"
     pagecolor="#ffffff"
     bordercolor="#000000"
     borderopacity="0.25"
     inkscape:showpageshadow="2"
     inkscape:pageopacity="0.0"
     inkscape:pagecheckerboard="0"
     inkscape:deskcolor="#d1d1d1" />
  <g
     id="g8"
     inkscape:groupmode="layer"
     inkscape:label="ink_ext_XXXXXX"
     transform="matrix(1.3333333,0,0,-1.3333333,0,161.33333)">
    <g
       id="g10"
       transform="scale(0.1)">
      <path
         d="m 1302.93,412.91 -118.72,189.985 -51.84,-82.973 118.71,-189.988 z m 82.62,132.219 -118.71,189.969 -51.85,-82.961 118.71,-189.989 51.85,82.981"
         style="fill:#96989b;fill-opacity:1;fill-rule:evenodd;stroke:none"
         id="path12" />
      <path
         d="M 870.852,2.89063 1214.99,553.645 1184.21,602.895 809.309,2.89063 h -103.7 L 1080.53,602.895 705.609,1202.89 h 103.7 l 323.061,-517.031 323.06,517.031 h 103.7 l -374.92,-599.995 30.78,-49.25 405.68,649.245 h 103.69 L 1266.84,470.664 1559.13,2.89063 H 1455.44 L 1251.08,329.934 1302.93,412.91 1266.82,470.664 974.535,2.89063 Z M 202.582,386.398 v 98.286 h 9.953 l 55.508,-84.344 v 84.344 h 8.75 v -98.286 h -10 l -55.328,84.344 v -84.344 z m -82.684,0 v 98.286 h 64.344 v -8.063 h -55.324 v -35.828 h 50.59 v -7.813 h -50.59 v -38.519 h 56.988 v -8.063 z m -111.49566,0 v 98.286 H 21.0664 L 53.5,398.148 85.3438,484.684 h 12.6679 v -98.286 h -8.75 V 472.09 L 57.7148,386.398 H 49.3555 L 17.2617,472.09 V 386.398 Z M 710.891,672.613 v -59.59 h 40.793 c 14.656,0 25.152,2.438 31.261,7.071 5.868,4.894 9.039,12.715 9.039,23.949 0,10.5 -2.925,17.828 -8.546,21.984 -5.86,4.387 -16.364,6.586 -31.754,6.586 z m -23.442,20.52 h 68.145 c 10.992,0 19.058,-0.492 24.426,-1.461 5.128,-0.984 9.765,-2.449 13.918,-4.649 7.328,-4.156 12.945,-9.773 16.855,-16.859 3.91,-7.32 5.863,-15.867 5.863,-25.644 0,-9.528 -1.953,-17.575 -6.109,-24.18 -4.156,-6.832 -10.02,-11.961 -18.07,-15.871 6.836,-1.957 11.73,-5.125 14.656,-9.758 2.926,-4.402 4.633,-12.223 5.367,-22.969 l 1.953,-28.816 c 0.492,-6.36 1.219,-11.004 2.449,-13.93 1.219,-3.168 3.168,-5.371 5.606,-6.586 v -4.894 h -27.59 c -2.199,3.66 -3.676,11.48 -4.645,23.445 v 0.734 l -1.46,22.969 c -0.739,11.711 -3.188,19.289 -7.575,22.949 -4.152,3.418 -14.652,5.125 -31.511,5.125 H 711.141 V 517.516 H 687.449 Z M 531.34,517.516 v 175.617 h 125.297 v -21.735 h -101.61 v -52.519 h 93.789 v -20.52 H 555.027 V 539.492 H 658.574 V 517.516 Z M 423.621,672.859 H 382.582 V 539.016 h 41.039 c 17.582,0 30.77,5.621 39.809,17.089 9.035,11.481 13.429,28.336 13.429,50.567 0,21.488 -4.644,37.848 -13.679,49.086 -9.278,11.48 -22.473,17.101 -39.559,17.101 z M 358.645,517.516 v 175.617 h 66.929 c 24.414,0 43.227,-7.324 56.172,-21.985 13.188,-14.648 19.547,-35.664 19.547,-63.25 0,-28.582 -6.602,-50.808 -20.273,-66.695 -13.438,-15.867 -32.247,-23.687 -56.43,-23.687 z m -176.383,0 v 175.617 h 26.125 l 82.078,-127.5 c 1.953,-2.922 3.414,-5.371 4.875,-7.809 1.23,-2.691 2.449,-4.89 3.183,-7.094 v 142.403 h 22.711 V 517.516 H 295.34 l -83.77,129.453 c -1.23,1.953 -2.445,3.914 -3.664,6.113 -0.984,2.184 -1.953,4.387 -2.937,6.836 V 517.516 Z M 8.35547,584.195 V 693.133 H 32.2891 v -109.18 c 0,-16.367 3.6679,-28.57 10.9922,-36.39 7.082,-8.071 18.5625,-11.965 33.6953,-11.965 15.1484,0 26.3824,4.144 33.7114,11.965 7.57,8.05 11.238,20.269 11.238,36.39 v 109.18 h 23.937 V 584.195 c 0,-23.445 -6.101,-41.269 -18.074,-53.488 -12.223,-11.973 -30.0468,-18.074 -53.4882,-18.074 -21.9844,0 -38.3438,5.867 -49.3399,17.828 C 13.9766,542.438 8.35547,560.262 8.35547,584.195 Z M 1724.36,2.89063 1385.55,545.129 1333.7,462.148 1620.67,2.89063 Z M 1274.5,722.84 l -7.66,12.258 z m -59.51,95.238 -240.455,384.812 H 870.852 l 292.288,-467.792 51.85,82.98"
         style="fill:#00ffff;fill-opacity:1;fill-rule:evenodd;stroke:none"
         id="path14" />
    </g>
  </g>
</svg>
