<?xml version="1.0" encoding="UTF-8" standalone="no"?>
<!-- Created with Inkscape (http://www.inkscape.org/) -->

<svg
   version="1.1"
   id="svg2"
   viewBox="0 0 230.66667 161.33333"
   sodipodi:docname="XU_Logo-F.eps"
   xmlns:inkscape="http://www.inkscape.org/namespaces/inkscape"
   xmlns:sodipodi="http://sodipodi.sourceforge.net/DTD/sodipodi-0.dtd"
   xmlns="http://www.w3.org/2000/svg"
   xmlns:svg="http://www.w3.org/2000/svg">
  <defs
     id="defs6" />
  <sodipodi:namedview
     id="namedview4"
     pagecolor="#ffffff"
     bordercolor="#000000"
     borderopacity="0.25"
     inkscape:showpageshadow="2"
     inkscape:pageopacity="0.0"
     inkscape:pagecheckerboard="0"
     inkscape:deskcolor="#d1d1d1" />
  <g
     id="g8"
     inkscape:groupmode="layer"
     inkscape:label="ink_ext_XXXXXX"
     transform="matrix(1.3333333,0,0,-1.3333333,0,161.33333)">
    <g
       id="g10"
       transform="scale(0.1)">
      <path
         d="M 426.297,418.84 545.012,608.828 596.859,525.852 478.148,335.863 Z m -82.621,132.219 118.715,189.968 51.851,-82.961 -118.715,-189.984 -51.851,82.977"
         style="fill:#4d4d4d;fill-opacity:1;fill-rule:evenodd;stroke:none"
         id="path12" />
      <path
         d="M 858.379,8.82031 514.242,559.574 545.012,608.828 919.922,8.82031 H 1023.63 L 648.699,608.828 1023.63,1208.82 H 919.922 L 596.859,691.793 273.793,1208.82 H 170.098 L 545.012,608.828 514.242,559.574 108.555,1208.82 H 4.86719 L 462.391,476.598 170.098,8.82031 H 273.785 L 478.148,335.863 426.297,418.84 462.402,476.598 754.691,8.82031 Z M 1646.66,392.332 v 98.297 h 9.95 l 55.52,-84.356 v 84.356 h 8.75 v -98.297 h -10 l -55.33,84.356 v -84.356 z m -82.69,0 v 98.297 h 64.35 v -8.063 h -55.33 V 446.73 h 50.6 v -7.812 h -50.6 v -38.523 h 56.99 v -8.063 z m -111.51,0 v 98.297 h 12.67 l 32.44,-86.543 31.84,86.543 h 12.67 v -98.297 h -8.75 v 85.699 l -31.55,-85.699 h -8.36 l -32.1,85.699 v -85.699 z m -98.25,49.047 c 0,-13.441 3.21,-24.082 9.61,-31.941 6.4,-7.836 15.08,-11.774 26.04,-11.774 10.98,0 19.7,3.918 26.15,11.75 6.45,7.84 9.68,18.5 9.68,31.965 0,13.531 -3.23,24.234 -9.68,32.117 -6.45,7.863 -15.17,11.801 -26.15,11.801 -10.82,0 -19.46,-3.961 -25.95,-11.914 -6.47,-7.949 -9.7,-18.61 -9.7,-32.004 z m -9.34,0 c 0,15.945 4.05,28.543 12.14,37.836 8.11,9.316 19.04,13.969 32.85,13.969 13.82,0 24.8,-4.653 32.92,-13.969 8.13,-9.293 12.18,-21.891 12.18,-37.836 0,-15.926 -4.05,-28.547 -12.18,-37.84 -8.12,-9.297 -19.1,-13.941 -32.92,-13.941 -13.81,0 -24.74,4.644 -32.85,13.941 -8.09,9.293 -12.14,21.914 -12.14,37.84 z m -97.85,-49.047 -25.42,98.297 h 8.89 l 21.89,-84.742 21.75,84.742 h 11.07 l 21.44,-84.742 22.15,84.742 h 8.6 l -25.83,-98.297 h -9.86 l -22.24,87.363 -22.68,-87.363 z m 362.24,286.215 v -59.594 h 40.79 c 14.66,0 25.15,2.438 31.27,7.07 5.86,4.895 9.03,12.715 9.03,23.95 0,10.5 -2.92,17.828 -8.55,21.984 -5.85,4.387 -16.36,6.59 -31.75,6.59 z m -23.44,20.519 h 68.14 c 10.99,0 19.06,-0.496 24.43,-1.464 5.13,-0.985 9.76,-2.45 13.91,-4.649 7.33,-4.156 12.95,-9.773 16.86,-16.855 3.91,-7.325 5.86,-15.871 5.86,-25.649 0,-9.527 -1.95,-17.574 -6.1,-24.179 -4.16,-6.832 -10.03,-11.961 -18.08,-15.872 6.84,-1.953 11.73,-5.125 14.66,-9.757 2.92,-4.403 4.63,-12.223 5.37,-22.969 l 1.95,-28.817 c 0.49,-6.355 1.22,-11.003 2.45,-13.929 1.22,-3.168 3.17,-5.371 5.6,-6.586 v -4.895 h -27.58 c -2.2,3.66 -3.68,11.481 -4.65,23.446 v 0.734 l -1.46,22.969 c -0.74,11.711 -3.19,19.289 -7.57,22.953 -4.16,3.414 -14.66,5.125 -31.52,5.125 h -38.58 v -75.227 h -23.69 z M 1429.7,523.445 V 699.066 H 1555 v -21.738 h -101.61 v -52.519 h 93.79 v -20.52 h -93.79 v -58.863 h 103.55 v -21.981 z m -107.72,155.344 h -41.03 v -133.84 h 41.03 c 17.59,0 30.78,5.617 39.81,17.086 9.04,11.485 13.44,28.34 13.44,50.567 0,21.492 -4.65,37.847 -13.69,49.089 -9.27,11.481 -22.47,17.098 -39.56,17.098 z m -64.97,-155.344 v 175.621 h 66.93 c 24.42,0 43.22,-7.328 56.17,-21.988 13.19,-14.648 19.55,-35.66 19.55,-63.25 0,-28.578 -6.61,-50.805 -20.27,-66.695 -13.44,-15.867 -32.25,-23.688 -56.44,-23.688 z m -176.38,0 v 175.621 h 26.12 l 82.08,-127.503 c 1.95,-2.922 3.41,-5.372 4.88,-7.805 1.22,-2.695 2.44,-4.895 3.18,-7.098 v 142.406 h 22.71 V 523.445 h -25.89 l -83.77,129.453 c -1.24,1.954 -2.45,3.915 -3.67,6.114 -0.98,2.183 -1.95,4.386 -2.94,6.836 V 523.445 Z m -173.911,66.68 v 108.941 h 23.933 V 589.883 c 0,-16.363 3.664,-28.57 10.993,-36.391 7.082,-8.066 18.562,-11.961 33.695,-11.961 15.148,0 26.38,4.141 33.71,11.961 7.57,8.051 11.24,20.27 11.24,36.391 v 109.183 h 23.93 V 590.125 c 0,-23.445 -6.09,-41.27 -18.07,-53.488 -12.22,-11.973 -30.045,-18.074 -53.486,-18.074 -21.984,0 -38.348,5.867 -49.34,17.832 -10.988,11.972 -16.605,29.796 -16.605,53.73 z M 4.86719,8.82031 343.676,551.059 395.527,468.082 108.555,8.82031 Z M 454.734,728.77 l 7.657,12.257 z m 59.508,95.238 240.449,384.812 H 858.379 L 566.086,741.027 514.242,824.008"
         id="path14" />
    </g>
  </g>
</svg>
