<?xml version="1.0" encoding="UTF-8"?>
<!DOCTYPE svg PUBLIC "-//W3C//DTD SVG 1.1//EN" "http://www.w3.org/Graphics/SVG/1.1/DTD/svg11.dtd">
<svg xmlns="http://www.w3.org/2000/svg" version="1.1" width="432px" height="303px" style="shape-rendering:geometricPrecision; text-rendering:geometricPrecision; image-rendering:optimizeQuality; fill-rule:evenodd; clip-rule:evenodd" xmlns:xlink="http://www.w3.org/1999/xlink">
<g><path style="opacity:0.946" fill="#00fefe" d="M 316.5,117.5 C 310.838,124.148 306.171,131.481 302.5,139.5C 299.931,142.961 297.597,146.628 295.5,150.5C 290.004,157.662 285.338,165.329 281.5,173.5C 254.608,215.6 227.941,257.934 201.5,300.5C 192.5,301.833 183.5,301.833 174.5,300.5C 205.5,250.5 236.5,200.5 267.5,150.5C 236.75,100.665 205.75,50.9986 174.5,1.5C 183.482,0.3347 192.482,0.168033 201.5,1C 228.056,43.2874 254.722,85.454 281.5,127.5C 283.655,124.538 285.821,121.538 288,118.5C 264.408,79.1844 240.241,40.0177 215.5,1C 224.851,0.167937 234.184,0.334604 243.5,1.5C 263.198,32.7006 282.698,64.0339 302,95.5C 321.708,63.9157 341.542,32.4157 361.5,1C 370.518,0.168033 379.518,0.3347 388.5,1.5C 364.05,39.9363 340.05,78.6029 316.5,117.5 Z"/></g>
<g><path style="opacity:0.95" fill="#00fefe" d="M 336.5,150.5 C 331.348,157.458 326.681,164.792 322.5,172.5C 320.234,176.034 318.234,179.7 316.5,183.5C 314.132,185.843 311.965,188.509 310,191.5C 307.22,196.062 304.72,200.728 302.5,205.5C 282.53,236.994 262.696,268.66 243,300.5C 233.893,301.817 224.727,301.817 215.5,300.5C 239.594,261.304 263.927,222.304 288.5,183.5C 293.652,176.542 298.319,169.208 302.5,161.5C 304.766,157.966 306.766,154.3 308.5,150.5C 310.868,148.157 313.035,145.491 315,142.5C 317.78,137.938 320.28,133.272 322.5,128.5C 349.137,86.3397 375.637,44.0063 402,1.5C 411.107,0.183416 420.273,0.183416 429.5,1.5C 398.739,51.3628 367.739,101.029 336.5,150.5 Z"/></g>
<g><path style="opacity:0.947" fill="#94989b" d="M 316.5,117.5 C 318.234,121.3 320.234,124.966 322.5,128.5C 320.28,133.272 317.78,137.938 315,142.5C 313.035,145.491 310.868,148.157 308.5,150.5C 306.766,146.7 304.766,143.034 302.5,139.5C 306.171,131.481 310.838,124.148 316.5,117.5 Z"/></g>
<g><path style="opacity:0.873" fill="#00fffe" d="M 0.5,127.5 C 2.5,127.5 4.5,127.5 6.5,127.5C 6.12086,138.555 6.62086,149.555 8,160.5C 9.75371,164.756 12.9204,166.756 17.5,166.5C 21.7185,166.772 24.8852,165.105 27,161.5C 28.4093,150.23 28.9093,138.896 28.5,127.5C 30.8333,127.5 33.1667,127.5 35.5,127.5C 35.6665,138.505 35.4998,149.505 35,160.5C 32.6755,169.814 26.6755,174.147 17,173.5C 9.2517,173.962 3.91836,170.629 1,163.5C 0.500129,151.505 0.333462,139.505 0.5,127.5 Z"/></g>
<g><path style="opacity:0.811" fill="#00fffe" d="M 43.5,127.5 C 46.2469,127.187 48.9135,127.52 51.5,128.5C 58.5306,139.033 65.3639,149.699 72,160.5C 72.4998,149.505 72.6665,138.505 72.5,127.5C 74.8333,127.5 77.1667,127.5 79.5,127.5C 79.5,142.5 79.5,157.5 79.5,172.5C 76.5525,172.777 73.7191,172.444 71,171.5C 64.5826,160.997 57.9159,150.663 51,140.5C 50.5002,151.161 50.3335,161.828 50.5,172.5C 48.1667,172.5 45.8333,172.5 43.5,172.5C 43.5,157.5 43.5,142.5 43.5,127.5 Z"/></g>
<g><path style="opacity:0.827" fill="#00fffe" d="M 87.5,127.5 C 95.1739,127.334 102.841,127.5 110.5,128C 116.9,129.399 121.066,133.233 123,139.5C 125,146.167 125,152.833 123,159.5C 120.623,166.545 115.79,170.712 108.5,172C 101.508,172.5 94.5079,172.666 87.5,172.5C 87.5,157.5 87.5,142.5 87.5,127.5 Z M 94.5,133.5 C 112.744,131.577 119.911,139.577 116,157.5C 115.117,160.102 113.617,162.269 111.5,164C 105.956,165.404 100.29,165.904 94.5,165.5C 94.5,154.833 94.5,144.167 94.5,133.5 Z"/></g>
<g><path style="opacity:0.829" fill="#00fffe" d="M 130.5,127.5 C 141.5,127.5 152.5,127.5 163.5,127.5C 163.5,129.5 163.5,131.5 163.5,133.5C 154.833,133.5 146.167,133.5 137.5,133.5C 137.5,137.833 137.5,142.167 137.5,146.5C 145.5,146.5 153.5,146.5 161.5,146.5C 161.5,148.5 161.5,150.5 161.5,152.5C 153.5,152.5 145.5,152.5 137.5,152.5C 137.5,156.833 137.5,161.167 137.5,165.5C 146.167,165.5 154.833,165.5 163.5,165.5C 163.5,167.833 163.5,170.167 163.5,172.5C 152.5,172.5 141.5,172.5 130.5,172.5C 130.5,157.5 130.5,142.5 130.5,127.5 Z"/></g>
<g><path style="opacity:0.837" fill="#00fffe" d="M 169.5,127.5 C 177.84,127.334 186.173,127.5 194.5,128C 200.297,130.077 203.297,134.244 203.5,140.5C 203.125,144.763 201.125,147.929 197.5,150C 198.931,150.465 200.097,151.299 201,152.5C 201.78,159.335 202.946,166.002 204.5,172.5C 201.753,172.813 199.086,172.48 196.5,171.5C 195.977,166.072 194.977,160.739 193.5,155.5C 192.624,154.749 191.624,154.249 190.5,154C 185.845,153.501 181.179,153.334 176.5,153.5C 176.5,159.833 176.5,166.167 176.5,172.5C 174.167,172.5 171.833,172.5 169.5,172.5C 169.5,157.5 169.5,142.5 169.5,127.5 Z M 176.5,133.5 C 182.262,133.149 187.928,133.649 193.5,135C 196.089,138.598 196.089,142.264 193.5,146C 187.928,147.351 182.262,147.851 176.5,147.5C 176.5,142.833 176.5,138.167 176.5,133.5 Z"/></g>
<g><path style="opacity:0.943" fill="#94989b" d="M 295.5,150.5 C 297.597,154.372 299.931,158.039 302.5,161.5C 298.319,169.208 293.652,176.542 288.5,183.5C 286.154,180.129 283.821,176.796 281.5,173.5C 285.338,165.329 290.004,157.662 295.5,150.5 Z"/></g>
<g><path style="opacity:0.949" fill="#94999b" d="M 336.5,150.5 C 339.594,154.926 342.261,159.593 344.5,164.5C 340.403,171.704 336.07,178.704 331.5,185.5C 328.253,181.341 325.253,177.008 322.5,172.5C 326.681,164.792 331.348,157.458 336.5,150.5 Z"/></g>
<g><path style="opacity:0.939" fill="#00fefe" d="M 344.5,164.5 C 372.559,208.267 400.392,252.267 428,296.5C 429.009,298.025 429.509,299.692 429.5,301.5C 420.827,301.666 412.16,301.5 403.5,301C 378.853,262.864 354.853,224.364 331.5,185.5C 336.07,178.704 340.403,171.704 344.5,164.5 Z"/></g>
<g><path style="opacity:0.643" fill="#00fffe" d="M -0.5,180.5 C 1.16667,180.5 2.83333,180.5 4.5,180.5C 6.23545,187.038 8.56878,193.372 11.5,199.5C 14.4312,193.372 16.7646,187.038 18.5,180.5C 20.1667,180.5 21.8333,180.5 23.5,180.5C 23.5,188.833 23.5,197.167 23.5,205.5C 22.1667,205.5 20.8333,205.5 19.5,205.5C 19.666,200.156 19.4994,194.823 19,189.5C 17.3333,194.167 15.6667,198.833 14,203.5C 12.3333,206.167 10.6667,206.167 9,203.5C 7,198.167 5,192.833 3,187.5C 2.50051,193.491 2.33385,199.491 2.5,205.5C 1.5,205.5 0.5,205.5 -0.5,205.5C -0.5,197.167 -0.5,188.833 -0.5,180.5 Z"/></g>
<g><path style="opacity:0.68" fill="#00fffe" d="M 27.5,180.5 C 33.1667,180.5 38.8333,180.5 44.5,180.5C 44.5,181.5 44.5,182.5 44.5,183.5C 39.8333,183.5 35.1667,183.5 30.5,183.5C 30.5,186.167 30.5,188.833 30.5,191.5C 34.8333,191.5 39.1667,191.5 43.5,191.5C 43.5,192.5 43.5,193.5 43.5,194.5C 39.1667,194.5 34.8333,194.5 30.5,194.5C 30.5,197.167 30.5,199.833 30.5,202.5C 35.5,202.5 40.5,202.5 45.5,202.5C 45.5,203.5 45.5,204.5 45.5,205.5C 39.5,205.5 33.5,205.5 27.5,205.5C 27.5,197.167 27.5,188.833 27.5,180.5 Z"/></g>
<g><path style="opacity:0.688" fill="#00fffe" d="M 47.5,180.5 C 49.1439,180.286 50.6439,180.62 52,181.5C 56,187.5 60,193.5 64,199.5C 64.4995,193.175 64.6662,186.842 64.5,180.5C 65.5,180.5 66.5,180.5 67.5,180.5C 67.5,188.833 67.5,197.167 67.5,205.5C 65.2776,205.822 63.4443,205.155 62,203.5C 58.3333,197.833 54.6667,192.167 51,186.5C 50.5005,192.825 50.3338,199.158 50.5,205.5C 49.5,205.5 48.5,205.5 47.5,205.5C 47.5,197.167 47.5,188.833 47.5,180.5 Z"/></g>
<g><path style="opacity:0.955" fill="#94999b" d="M 316.5,183.5 C 319.167,188.5 321.833,193.5 324.5,198.5C 319.833,205.167 315.167,211.833 310.5,218.5C 307.597,214.37 304.93,210.037 302.5,205.5C 304.72,200.728 307.22,196.062 310,191.5C 311.965,188.509 314.132,185.843 316.5,183.5 Z"/></g>
<g><path style="opacity:0.933" fill="#00fefe" d="M 324.5,198.5 C 345.892,231.6 367.059,264.933 388,298.5C 388.483,299.448 388.649,300.448 388.5,301.5C 379.475,301.832 370.475,301.498 361.5,300.5C 344.473,273.149 327.473,245.816 310.5,218.5C 315.167,211.833 319.833,205.167 324.5,198.5 Z"/></g>
</svg>
