<svg viewBox="0 0 1733 842" fill="none" xmlns="http://www.w3.org/2000/svg">
<path fill-rule="evenodd" clip-rule="evenodd" d="M54.11 4H1679.21C1706.71 4 1729.21 26.5 1729.21 54V674.01C1729.21 701.51 1706.71 724.01 1679.21 724.01H54.11C26.61 724.01 4.10999 701.51 4.10999 674.01V54C4.10999 26.5 26.61 4 54.11 4ZM1350.73 204.24H1688.88V283.99H1350.73V204.24Z" stroke="#D42F91" stroke-width="6.67" stroke-miterlimit="2.61313"/>
<path fill-rule="evenodd" clip-rule="evenodd" d="M738.25 752.92H1146.57V837.99H738.25V752.92ZM739.31 610.43H1154.01V695.5H739.31V610.43ZM539.93 610.43H693.05V695.5H539.93V610.43ZM119.38 610.43H488.36V695.5H119.38V610.43ZM93.86 752.92H506.44V837.99H93.86V752.92ZM540.47 752.92H722.3V837.99H540.47V752.92Z" stroke="#D42F91" stroke-width="6.67" stroke-miterlimit="2.61313"/>
<path fill-rule="evenodd" clip-rule="evenodd" d="M176.51 752.92V695.5H183.18V752.92H176.51ZM172.54 583.85H774.93V587.18H172.54V583.85ZM247.11 265.97H1275.58V269.3H247.11V265.97ZM71.66 368.91H1314.04V372.24H71.66V368.91ZM1151.88 133.91H1411.68V137.24H1151.88V133.91ZM970.05 583.85H1658.57V587.18H970.05V583.85ZM589.38 752.92V695.5H596.05V752.92H589.38ZM820.12 752.92V695.5H826.79V752.92H820.12Z" fill="#D42F91"/>
<path d="M151.58 794.25H145.11V806.01H138.99V776.03H153.7C155.8 776.07 157.42 776.33 158.55 776.8C159.69 777.27 160.65 777.97 161.43 778.89C162.08 779.65 162.6 780.49 162.98 781.41C163.36 782.33 163.55 783.38 163.55 784.56C163.55 785.99 163.19 787.39 162.47 788.76C161.75 790.14 160.57 791.11 158.91 791.68C160.29 792.24 161.27 793.03 161.85 794.05C162.42 795.07 162.72 796.64 162.72 798.74V800.76C162.72 802.13 162.77 803.06 162.88 803.55C163.04 804.32 163.42 804.89 164.02 805.26V806.01H157.13C156.94 805.34 156.8 804.81 156.72 804.41C156.56 803.56 156.47 802.7 156.46 801.82L156.42 799.03C156.39 797.12 156.05 795.84 155.37 795.2C154.7 794.57 153.44 794.25 151.6 794.25H151.58ZM1081.19 137.25H1072.58V117.26H1081.19C1082.43 117.28 1083.46 117.42 1084.28 117.69C1085.69 118.15 1086.82 119 1087.69 120.23C1088.38 121.23 1088.86 122.3 1089.11 123.46C1089.37 124.62 1089.49 125.72 1089.49 126.76C1089.49 129.43 1088.96 131.67 1087.9 133.52C1086.45 136.01 1084.22 137.25 1081.2 137.25H1081.19ZM1084.3 122.36C1083.66 121.28 1082.39 120.73 1080.49 120.73H1076.64V133.78H1080.49C1082.46 133.78 1083.84 132.81 1084.62 130.86C1085.04 129.8 1085.25 128.52 1085.25 127.05C1085.25 125.01 1084.94 123.46 1084.3 122.36ZM1104.35 133.14H1096.99L1095.6 137.25H1091.23L1098.36 117.26H1103.08L1110.16 137.25H1105.63L1104.34 133.14H1104.35ZM1103.18 129.7L1100.68 121.83L1098.11 129.7H1103.18ZM1125.19 117.26V120.8H1119.21V137.26H1115.01V120.8H1109V117.26H1125.2H1125.19ZM1141.54 128.52H1131.83V133.66H1142.9V137.25H1127.75V117.26H1142.41V120.8H1131.83V125.05H1141.54V128.52ZM1340.58 362.52H1331.97V342.53H1340.58C1341.82 342.55 1342.85 342.69 1343.67 342.96C1345.08 343.42 1346.21 344.27 1347.08 345.5C1347.77 346.5 1348.25 347.57 1348.5 348.73C1348.76 349.89 1348.88 350.99 1348.88 352.03C1348.88 354.7 1348.35 356.94 1347.29 358.79C1345.84 361.28 1343.61 362.52 1340.59 362.52H1340.58ZM1343.69 347.63C1343.05 346.55 1341.78 346 1339.88 346H1336.03V359.05H1339.88C1341.85 359.05 1343.23 358.08 1344.01 356.13C1344.43 355.07 1344.64 353.79 1344.64 352.32C1344.64 350.28 1344.33 348.73 1343.69 347.63ZM1360.88 363.08C1358.02 363.08 1355.84 362.3 1354.33 360.75C1352.31 358.84 1351.29 356.09 1351.29 352.51C1351.29 348.85 1352.31 346.1 1354.33 344.27C1355.84 342.71 1358.02 341.94 1360.88 341.94C1363.73 341.94 1365.92 342.72 1367.43 344.27C1369.45 346.1 1370.46 348.85 1370.46 352.51C1370.46 356.1 1369.45 358.85 1367.43 360.75C1365.92 362.31 1363.73 363.08 1360.88 363.08ZM1364.83 357.71C1365.8 356.49 1366.28 354.75 1366.28 352.5C1366.28 350.26 1365.79 348.52 1364.82 347.3C1363.85 346.08 1362.54 345.46 1360.88 345.46C1359.23 345.46 1357.91 346.07 1356.92 347.29C1355.94 348.51 1355.44 350.25 1355.44 352.5C1355.44 354.75 1355.94 356.48 1356.92 357.71C1357.91 358.93 1359.23 359.54 1360.88 359.54C1362.54 359.54 1363.85 358.93 1364.83 357.71ZM1373.64 342.53H1377.82V358.93H1387.73V362.52H1373.65V342.53H1373.64ZM1402.31 358.41H1394.95L1393.56 362.52H1389.19L1396.32 342.53H1401.04L1408.12 362.52H1403.59L1402.3 358.41H1402.31ZM1401.14 354.97L1398.64 347.1L1396.07 354.97H1401.14ZM1419.16 354.69H1414.85V362.53H1410.77V342.54H1420.58C1421.98 342.56 1423.06 342.74 1423.81 343.06C1424.57 343.37 1425.21 343.84 1425.73 344.46C1426.16 344.96 1426.51 345.52 1426.76 346.14C1427.01 346.75 1427.14 347.45 1427.14 348.24C1427.14 349.19 1426.9 350.12 1426.42 351.04C1425.94 351.96 1425.15 352.6 1424.05 352.98C1424.97 353.35 1425.62 353.88 1426.01 354.56C1426.4 355.24 1426.59 356.28 1426.59 357.69V359.03C1426.59 359.94 1426.63 360.56 1426.7 360.89C1426.81 361.4 1427.06 361.78 1427.46 362.03V362.53H1422.86C1422.74 362.09 1422.64 361.73 1422.59 361.46C1422.48 360.9 1422.42 360.32 1422.41 359.74L1422.38 357.88C1422.36 356.61 1422.13 355.75 1421.68 355.33C1421.24 354.91 1420.4 354.7 1419.16 354.7V354.69ZM1421.7 351.05C1422.53 350.67 1422.94 349.92 1422.94 348.8C1422.94 347.59 1422.54 346.78 1421.74 346.36C1421.29 346.12 1420.61 346.01 1419.7 346.01H1414.84V351.38H1419.58C1420.52 351.38 1421.23 351.27 1421.7 351.05ZM1437.99 359.64C1438.98 359.64 1439.78 359.53 1440.4 359.32C1441.57 358.9 1442.15 358.13 1442.15 357C1442.15 356.34 1441.86 355.83 1441.28 355.46C1440.7 355.11 1439.8 354.79 1438.56 354.52L1436.44 354.05C1434.36 353.58 1432.92 353.07 1432.13 352.51C1430.78 351.59 1430.11 350.15 1430.11 348.18C1430.11 346.39 1430.76 344.9 1432.06 343.72C1433.36 342.54 1435.28 341.95 1437.8 341.95C1439.91 341.95 1441.71 342.51 1443.2 343.62C1444.68 344.74 1445.47 346.36 1445.53 348.49H1441.52C1441.45 347.29 1440.92 346.43 1439.95 345.93C1439.3 345.6 1438.49 345.43 1437.52 345.43C1436.45 345.43 1435.58 345.65 1434.94 346.08C1434.3 346.52 1433.98 347.12 1433.98 347.9C1433.98 348.61 1434.3 349.14 1434.93 349.5C1435.34 349.73 1436.21 350.01 1437.54 350.32L1440.98 351.15C1442.49 351.51 1443.63 352 1444.4 352.6C1445.6 353.54 1446.19 354.91 1446.19 356.69C1446.19 358.52 1445.49 360.03 1444.09 361.24C1442.7 362.45 1440.72 363.05 1438.18 363.05C1435.57 363.05 1433.53 362.46 1432.03 361.27C1430.54 360.08 1429.79 358.44 1429.79 356.36H1433.77C1433.9 357.27 1434.15 357.96 1434.52 358.41C1435.2 359.24 1436.36 359.65 1438 359.65L1437.99 359.64ZM1318.09 245.24C1314.63 244.22 1312.2 242.81 1310.78 241.01C1309.35 239.2 1308.65 237.02 1308.65 234.47C1308.65 232.78 1308.92 231.26 1309.47 229.88C1310.02 228.51 1310.8 227.32 1311.78 226.33C1313.07 225.04 1314.49 224.15 1316.07 223.67C1317.03 223.36 1318.43 223.13 1320.27 222.98V219.38H1322.85V223.04C1325.79 223.28 1328.11 224 1329.79 225.22C1332.85 227.15 1334.43 230.28 1334.53 234.63H1327.4C1327.25 233.02 1326.98 231.84 1326.59 231.1C1325.9 229.82 1324.66 229.11 1322.85 228.99V239.32C1327.16 240.8 1330.04 242.12 1331.53 243.25C1333.97 245.15 1335.2 247.82 1335.2 251.28C1335.2 255.84 1333.52 259.15 1330.18 261.21C1328.14 262.48 1325.71 263.22 1322.91 263.43V268.88H1320.27V263.48C1316.71 263.08 1314.05 262.3 1312.3 261.15C1309.21 259.08 1307.69 255.53 1307.74 250.52H1315.06C1315.31 252.8 1315.66 254.33 1316.12 255.11C1316.82 256.32 1318.21 257.11 1320.27 257.47V245.89L1318.08 245.24H1318.09ZM1322.87 246.78V257.38C1324.3 257.21 1325.33 256.87 1325.99 256.41C1327.13 255.58 1327.69 254.14 1327.69 252.1C1327.69 250.54 1327.16 249.31 1326.09 248.41C1325.46 247.89 1324.39 247.34 1322.87 246.79V246.78ZM1320.29 238.56V229.04C1318.72 229.08 1317.55 229.49 1316.79 230.3C1316.03 231.11 1315.65 232.2 1315.65 233.6C1315.65 235.12 1316.22 236.32 1317.36 237.2C1317.99 237.69 1318.97 238.14 1320.29 238.56ZM1508.49 96.0801H1500.56V68.9501H1491.31V63.6901C1493.75 63.5801 1495.46 63.4201 1496.44 63.2001C1498 62.8601 1499.25 62.1701 1500.24 61.1401C1500.91 60.4201 1501.41 59.4901 1501.76 58.3101C1501.96 57.6101 1502.06 57.0801 1502.06 56.7401H1508.5V96.0701L1508.49 96.0801ZM1533.62 64.5901C1532.76 65.7501 1532.34 67.29 1532.38 69.23H1525.16C1525.23 67.27 1525.57 65.42 1526.17 63.66C1526.8 62.12 1527.8 60.7101 1529.15 59.4001C1530.16 58.4701 1531.36 57.77 1532.76 57.29C1534.15 56.8 1535.86 56.55 1537.88 56.55C1541.65 56.55 1544.68 57.52 1546.98 59.47C1549.28 61.41 1550.44 64.03 1550.44 67.3C1550.44 69.61 1549.75 71.5701 1548.38 73.1501C1547.51 74.1501 1546.61 74.8301 1545.67 75.1901C1546.37 75.1901 1547.39 75.8001 1548.71 77.0001C1550.68 78.8301 1551.67 81.3301 1551.67 84.4901C1551.67 87.8101 1550.51 90.7401 1548.21 93.2701C1545.9 95.7901 1542.49 97.05 1537.97 97.05C1532.4 97.05 1528.53 95.24 1526.36 91.61C1525.22 89.68 1524.59 87.1401 1524.46 84.0101H1532.06C1532.06 85.5801 1532.31 86.89 1532.82 87.92C1533.76 89.82 1535.47 90.7701 1537.94 90.7701C1539.46 90.7701 1540.78 90.2501 1541.91 89.2101C1543.05 88.1701 1543.61 86.67 1543.61 84.72C1543.61 82.14 1542.55 80.41 1540.46 79.54C1539.27 79.05 1537.39 78.8101 1534.81 78.8101V73.2701C1537.33 73.2301 1539.08 72.99 1540.08 72.54C1541.8 71.78 1542.65 70.2401 1542.65 67.9301C1542.65 66.4301 1542.22 65.2101 1541.34 64.2601C1540.46 63.3201 1539.23 62.85 1537.64 62.85C1535.81 62.85 1534.47 63.4301 1533.62 64.5901ZM1573.33 76.55C1572.39 76.55 1571.57 76.6601 1570.89 76.9001C1569.68 77.3401 1568.76 78.1301 1568.15 79.3101L1561.21 78.9901L1563.98 57.2701H1585.66V63.8401H1569.57L1568.16 72.4301C1569.35 71.6501 1570.29 71.1401 1570.96 70.8801C1572.08 70.4601 1573.44 70.2601 1575.05 70.2601C1578.31 70.2601 1581.14 71.35 1583.57 73.54C1586 75.74 1587.21 78.92 1587.21 83.1C1587.21 86.73 1586.04 89.9801 1583.71 92.8301C1581.38 95.6901 1577.88 97.1201 1573.24 97.1201C1569.5 97.1201 1566.43 96.12 1564.02 94.11C1561.61 92.1 1560.28 89.2601 1560 85.5601H1567.7C1568.01 87.2501 1568.6 88.5401 1569.47 89.4601C1570.33 90.3701 1571.6 90.8301 1573.27 90.8301C1575.19 90.8301 1576.65 90.15 1577.65 88.8C1578.65 87.46 1579.16 85.76 1579.16 83.72C1579.16 81.71 1578.69 80.0201 1577.74 78.6401C1576.8 77.2501 1575.33 76.5701 1573.35 76.5701L1573.33 76.55ZM1608.86 76.55C1607.92 76.55 1607.1 76.6601 1606.42 76.9001C1605.21 77.3401 1604.29 78.1301 1603.68 79.3101L1596.74 78.9901L1599.51 57.2701H1621.19V63.8401H1605.1L1603.69 72.4301C1604.88 71.6501 1605.82 71.1401 1606.49 70.8801C1607.61 70.4601 1608.97 70.2601 1610.58 70.2601C1613.84 70.2601 1616.67 71.35 1619.1 73.54C1621.53 75.74 1622.74 78.92 1622.74 83.1C1622.74 86.73 1621.57 89.9801 1619.24 92.8301C1616.91 95.6901 1613.41 97.1201 1608.77 97.1201C1605.03 97.1201 1601.96 96.12 1599.55 94.11C1597.14 92.1 1595.81 89.2601 1595.53 85.5601H1603.23C1603.54 87.2501 1604.13 88.5401 1605 89.4601C1605.86 90.3701 1607.13 90.8301 1608.8 90.8301C1610.72 90.8301 1612.18 90.15 1613.18 88.8C1614.18 87.46 1614.69 85.76 1614.69 83.72C1614.69 81.71 1614.22 80.0201 1613.27 78.6401C1612.33 77.2501 1610.86 76.5701 1608.88 76.5701L1608.86 76.55ZM76.4399 233.8H72.2V240.99H68.05V221H76.75C78.76 221 80.3601 221.52 81.5601 222.55C82.7501 223.58 83.35 225.18 83.35 227.34C83.35 229.7 82.7501 231.37 81.5601 232.34C80.3601 233.32 78.6599 233.8 76.4399 233.8ZM78.39 229.63C78.93 229.15 79.2 228.39 79.2 227.35C79.2 226.31 78.93 225.57 78.38 225.12C77.83 224.68 77.07 224.46 76.08 224.46H72.1899V230.35H76.08C77.06 230.35 77.84 230.11 78.38 229.63H78.39ZM96.13 236.87H88.77L87.38 240.98H83.01L90.14 220.99H94.86L101.94 240.98H97.41L96.12 236.87H96.13ZM94.96 233.43L92.46 225.56L89.89 233.43H94.96ZM118.07 220.99L111.38 233.47V240.99H107.2V233.47L100.28 220.99H105.2L109.35 229.69L113.32 220.99H118.05H118.07ZM142.22 220.99V224.53H136.24V240.99H132.04V224.53H126.03V220.99H142.23H142.22ZM153.02 241.54C150.16 241.54 147.98 240.76 146.47 239.21C144.45 237.3 143.43 234.55 143.43 230.97C143.43 227.31 144.45 224.56 146.47 222.73C147.98 221.17 150.16 220.4 153.02 220.4C155.87 220.4 158.06 221.18 159.57 222.73C161.59 224.56 162.6 227.31 162.6 230.97C162.6 234.56 161.59 237.31 159.57 239.21C158.06 240.77 155.87 241.54 153.02 241.54ZM156.97 236.17C157.94 234.95 158.42 233.21 158.42 230.96C158.42 228.72 157.93 226.98 156.96 225.76C155.99 224.54 154.68 223.92 153.02 223.92C151.37 223.92 150.05 224.53 149.06 225.75C148.08 226.97 147.58 228.71 147.58 230.96C147.58 233.21 148.08 234.94 149.06 236.17C150.05 237.39 151.37 238 153.02 238C154.68 238 155.99 237.39 156.97 236.17ZM188.03 220.99V224.53H182.05V240.99H177.85V224.53H171.84V220.99H188.04H188.03ZM202.39 240.98V232.05H194.58V240.98H190.44V220.99H194.58V228.61H202.39V220.99H206.54V240.98H202.39ZM224.45 232.24H214.74V237.38H225.81V240.97H210.66V220.98H225.32V224.52H214.74V228.77H224.45V232.24ZM76.79 269.31C73.93 269.31 71.75 268.53 70.24 266.98C68.22 265.07 67.2 262.32 67.2 258.74C67.2 255.08 68.22 252.33 70.24 250.5C71.75 248.94 73.93 248.17 76.79 248.17C79.64 248.17 81.83 248.95 83.34 250.5C85.36 252.33 86.37 255.08 86.37 258.74C86.37 262.33 85.36 265.08 83.34 266.98C81.83 268.54 79.64 269.31 76.79 269.31ZM80.74 263.94C81.71 262.72 82.1899 260.98 82.1899 258.73C82.1899 256.49 81.7 254.75 80.73 253.53C79.76 252.31 78.45 251.69 76.79 251.69C75.14 251.69 73.82 252.3 72.83 253.52C71.85 254.74 71.35 256.48 71.35 258.73C71.35 260.98 71.85 262.71 72.83 263.94C73.82 265.16 75.14 265.77 76.79 265.77C78.45 265.77 79.76 265.16 80.74 263.94ZM98.04 260.92H93.73V268.76H89.65V248.77H99.46C100.86 248.79 101.94 248.97 102.69 249.29C103.45 249.6 104.09 250.07 104.61 250.69C105.04 251.19 105.39 251.75 105.64 252.37C105.89 252.98 106.02 253.68 106.02 254.47C106.02 255.42 105.78 256.35 105.3 257.27C104.82 258.19 104.03 258.83 102.93 259.21C103.85 259.58 104.5 260.11 104.89 260.79C105.28 261.47 105.47 262.51 105.47 263.92V265.26C105.47 266.17 105.51 266.79 105.58 267.12C105.69 267.63 105.94 268.01 106.34 268.26V268.76H101.74C101.62 268.32 101.52 267.96 101.47 267.69C101.36 267.13 101.3 266.55 101.29 265.97L101.26 264.11C101.24 262.84 101.01 261.98 100.56 261.56C100.12 261.14 99.28 260.93 98.04 260.93V260.92ZM100.58 257.28C101.41 256.9 101.82 256.15 101.82 255.03C101.82 253.82 101.42 253.01 100.62 252.59C100.17 252.35 99.49 252.24 98.58 252.24H93.72V257.61H98.46C99.4 257.61 100.11 257.5 100.58 257.28ZM118.23 268.76H109.62V248.77H118.23C119.47 248.79 120.5 248.93 121.32 249.2C122.73 249.66 123.86 250.51 124.73 251.74C125.42 252.74 125.9 253.81 126.15 254.97C126.41 256.13 126.53 257.23 126.53 258.27C126.53 260.94 126 263.18 124.94 265.03C123.49 267.52 121.26 268.76 118.24 268.76H118.23ZM121.34 253.87C120.7 252.79 119.43 252.24 117.53 252.24H113.68V265.29H117.53C119.5 265.29 120.88 264.32 121.66 262.37C122.08 261.31 122.29 260.03 122.29 258.56C122.29 256.52 121.98 254.97 121.34 253.87ZM143.6 260.03H133.89V265.17H144.96V268.76H129.81V248.77H144.47V252.31H133.89V256.56H143.6V260.03ZM156.7 260.93H152.39V268.77H148.31V248.78H158.12C159.52 248.8 160.6 248.98 161.35 249.3C162.11 249.61 162.75 250.08 163.27 250.7C163.7 251.2 164.05 251.76 164.3 252.38C164.55 252.99 164.68 253.69 164.68 254.48C164.68 255.43 164.44 256.36 163.96 257.28C163.48 258.2 162.69 258.84 161.59 259.22C162.51 259.59 163.16 260.12 163.55 260.8C163.94 261.48 164.13 262.52 164.13 263.93V265.27C164.13 266.18 164.17 266.8 164.24 267.13C164.35 267.64 164.6 268.02 165 268.27V268.77H160.4C160.28 268.33 160.18 267.97 160.13 267.7C160.02 267.14 159.96 266.56 159.95 265.98L159.92 264.12C159.9 262.85 159.67 261.99 159.22 261.57C158.78 261.15 157.94 260.94 156.7 260.94V260.93ZM159.24 257.29C160.07 256.91 160.48 256.16 160.48 255.04C160.48 253.83 160.08 253.02 159.28 252.6C158.83 252.36 158.15 252.25 157.24 252.25H152.38V257.62H157.12C158.06 257.62 158.77 257.51 159.24 257.29ZM184.83 269.32C181.97 269.32 179.79 268.54 178.28 266.99C176.26 265.08 175.24 262.33 175.24 258.75C175.24 255.09 176.26 252.34 178.28 250.51C179.79 248.95 181.97 248.18 184.83 248.18C187.68 248.18 189.87 248.96 191.38 250.51C193.4 252.34 194.41 255.09 194.41 258.75C194.41 262.34 193.4 265.09 191.38 266.99C189.87 268.55 187.68 269.32 184.83 269.32ZM188.78 263.95C189.75 262.73 190.23 260.99 190.23 258.74C190.23 256.5 189.74 254.76 188.77 253.54C187.8 252.32 186.49 251.7 184.83 251.7C183.18 251.7 181.86 252.31 180.87 253.53C179.89 254.75 179.39 256.49 179.39 258.74C179.39 260.99 179.89 262.72 180.87 263.95C181.86 265.17 183.18 265.78 184.83 265.78C186.49 265.78 187.8 265.17 188.78 263.95ZM211.77 252.31H201.75V256.91H210.53V260.38H201.75V268.77H197.6V248.8H211.78V252.31H211.77ZM80.25 584.09H76.36V564.1H82.4399L86.0699 579.82L89.6801 564.1H95.6899V584.09H91.8V570.57C91.8 570.18 91.8001 569.63 91.8101 568.94C91.8201 568.24 91.83 567.7 91.83 567.32L88.05 584.1H83.99L80.23 567.32C80.23 567.7 80.23 568.24 80.24 568.94C80.25 569.64 80.26 570.18 80.26 570.57V584.09H80.25ZM111.58 571.18C112.83 572.75 113.45 574.59 113.45 576.73C113.45 578.9 112.83 580.76 111.58 582.3C110.33 583.84 108.44 584.61 105.89 584.61C103.35 584.61 101.46 583.84 100.21 582.3C98.96 580.76 98.34 578.9 98.34 576.73C98.34 574.6 98.97 572.75 100.21 571.18C101.46 569.62 103.35 568.83 105.89 568.83C108.43 568.83 110.33 569.61 111.58 571.18ZM105.88 572.1C104.75 572.1 103.88 572.5 103.27 573.3C102.66 574.1 102.36 575.24 102.36 576.73C102.36 578.21 102.66 579.36 103.27 580.16C103.88 580.97 104.75 581.37 105.88 581.37C107.01 581.37 107.88 580.97 108.49 580.16C109.1 579.36 109.4 578.21 109.4 576.73C109.4 575.25 109.1 574.1 108.49 573.3C107.88 572.5 107.01 572.1 105.88 572.1ZM123.18 572.17C121.87 572.17 120.97 572.73 120.48 573.84C120.22 574.43 120.1 575.18 120.1 576.09V584.09H116.25V569.33H119.97V571.49C120.47 570.73 120.94 570.18 121.38 569.85C122.18 569.25 123.19 568.95 124.4 568.95C125.93 568.95 127.18 569.36 128.15 570.15C129.12 570.95 129.61 572.28 129.61 574.13V584.08H125.65V575.09C125.65 574.31 125.54 573.72 125.34 573.3C124.96 572.54 124.24 572.16 123.17 572.16L123.18 572.17ZM145.52 571.18C146.77 572.75 147.39 574.59 147.39 576.73C147.39 578.9 146.77 580.76 145.52 582.3C144.27 583.84 142.38 584.61 139.83 584.61C137.29 584.61 135.4 583.84 134.15 582.3C132.9 580.76 132.28 578.9 132.28 576.73C132.28 574.6 132.91 572.75 134.15 571.18C135.4 569.62 137.29 568.83 139.83 568.83C142.37 568.83 144.27 569.61 145.52 571.18ZM139.82 572.1C138.69 572.1 137.82 572.5 137.21 573.3C136.6 574.1 136.3 575.24 136.3 576.73C136.3 578.21 136.6 579.36 137.21 580.16C137.82 580.97 138.69 581.37 139.82 581.37C140.95 581.37 141.82 580.97 142.43 580.16C143.04 579.36 143.34 578.21 143.34 576.73C143.34 575.25 143.04 574.1 142.43 573.3C141.82 572.5 140.95 572.1 139.82 572.1ZM200.86 667.45H194.92V647.1H187.98V643.16C189.81 643.08 191.09 642.96 191.83 642.79C193 642.53 193.94 642.02 194.68 641.25C195.18 640.71 195.56 640.01 195.82 639.13C195.97 638.6 196.04 638.2 196.04 637.95H200.87V667.45H200.86ZM226.22 643.95C225.53 643.12 224.54 642.71 223.25 642.71C221.49 642.71 220.29 643.37 219.66 644.69C219.29 645.45 219.08 646.65 219.01 648.31H213.37C213.46 645.8 213.92 643.77 214.74 642.23C216.28 639.29 219.03 637.81 222.98 637.81C226.1 637.81 228.59 638.68 230.42 640.41C232.27 642.14 233.19 644.43 233.19 647.28C233.19 649.46 232.54 651.4 231.24 653.1C230.39 654.23 228.98 655.48 227.02 656.86L224.7 658.51C223.25 659.54 222.26 660.29 221.72 660.75C221.18 661.22 220.73 661.75 220.37 662.36H233.25V667.46H213.05C213.1 665.34 213.55 663.41 214.41 661.66C215.24 659.7 217.19 657.61 220.27 655.42C222.94 653.5 224.66 652.13 225.46 651.31C226.66 650.02 227.26 648.61 227.26 647.07C227.26 645.83 226.92 644.79 226.22 643.96V643.95ZM252.87 643.95C252.18 643.12 251.19 642.71 249.9 642.71C248.14 642.71 246.94 643.37 246.31 644.69C245.94 645.45 245.73 646.65 245.66 648.31H240.02C240.11 645.8 240.57 643.77 241.39 642.23C242.93 639.29 245.68 637.81 249.63 637.81C252.75 637.81 255.24 638.68 257.07 640.41C258.92 642.14 259.84 644.43 259.84 647.28C259.84 649.46 259.19 651.4 257.89 653.1C257.04 654.23 255.63 655.48 253.67 656.86L251.35 658.51C249.9 659.54 248.91 660.29 248.37 660.75C247.83 661.22 247.38 661.75 247.02 662.36H259.9V667.46H239.7C239.75 665.34 240.2 663.41 241.06 661.66C241.89 659.7 243.84 657.61 246.92 655.42C249.59 653.5 251.31 652.13 252.11 651.31C253.31 650.02 253.91 648.61 253.91 647.07C253.91 645.83 253.57 644.79 252.87 643.96V643.95ZM276.5 668.18C272.74 668.18 270.11 666.87 268.6 664.24C267.08 661.61 266.34 657.86 266.34 652.99C266.34 648.12 267.09 644.36 268.6 641.72C270.11 639.07 272.75 637.76 276.5 637.76C280.26 637.76 282.89 639.08 284.42 641.72C285.92 644.37 286.68 648.12 286.68 652.99C286.68 657.86 285.92 661.61 284.42 664.24C282.9 666.87 280.27 668.18 276.51 668.18H276.5ZM279.9 660.76C280.43 658.97 280.69 656.38 280.69 652.99C280.69 649.43 280.42 646.8 279.89 645.09C279.35 643.39 278.22 642.53 276.5 642.53C274.78 642.53 273.64 643.38 273.08 645.09C272.52 646.8 272.25 649.43 272.25 652.99C272.25 656.38 272.53 658.97 273.08 660.77C273.64 662.56 274.77 663.47 276.5 663.47C278.22 663.47 279.35 662.56 279.9 660.76ZM303.14 668.18C299.38 668.18 296.75 666.87 295.24 664.24C293.72 661.61 292.98 657.86 292.98 652.99C292.98 648.12 293.73 644.36 295.24 641.72C296.75 639.07 299.39 637.76 303.14 637.76C306.9 637.76 309.53 639.08 311.06 641.72C312.56 644.37 313.32 648.12 313.32 652.99C313.32 657.86 312.56 661.61 311.06 664.24C309.54 666.87 306.91 668.18 303.15 668.18H303.14ZM306.54 660.76C307.07 658.97 307.33 656.38 307.33 652.99C307.33 649.43 307.06 646.8 306.53 645.09C305.99 643.39 304.86 642.53 303.14 642.53C301.42 642.53 300.28 643.38 299.72 645.09C299.16 646.8 298.89 649.43 298.89 652.99C298.89 656.38 299.17 658.97 299.72 660.77C300.28 662.56 301.41 663.47 303.14 663.47C304.86 663.47 305.99 662.56 306.54 660.76ZM329.78 668.18C326.02 668.18 323.39 666.87 321.88 664.24C320.36 661.61 319.62 657.86 319.62 652.99C319.62 648.12 320.37 644.36 321.88 641.72C323.39 639.07 326.03 637.76 329.78 637.76C333.54 637.76 336.17 639.08 337.7 641.72C339.2 644.37 339.96 648.12 339.96 652.99C339.96 657.86 339.2 661.61 337.7 664.24C336.18 666.87 333.55 668.18 329.79 668.18H329.78ZM333.18 660.76C333.71 658.97 333.97 656.38 333.97 652.99C333.97 649.43 333.7 646.8 333.17 645.09C332.63 643.39 331.5 642.53 329.78 642.53C328.06 642.53 326.92 643.38 326.36 645.09C325.8 646.8 325.53 649.43 325.53 652.99C325.53 656.38 325.81 658.97 326.36 660.77C326.92 662.56 328.05 663.47 329.78 663.47C331.5 663.47 332.63 662.56 333.18 660.76ZM363.31 647.43C361.76 649.63 360.46 651.89 359.42 654.23C358.59 656.06 357.85 658.3 357.18 660.94C356.51 663.59 356.18 665.76 356.18 667.45H350.16C350.33 662.16 352.07 656.66 355.37 650.95C357.5 647.41 359.28 644.94 360.72 643.55H346L346.08 638.34H366.91V642.88C366.04 643.73 364.83 645.25 363.29 647.44L363.31 647.43ZM387.37 667.45H381.43V647.1H374.49V643.16C376.32 643.08 377.6 642.96 378.34 642.79C379.51 642.53 380.45 642.02 381.19 641.25C381.69 640.71 382.07 640.01 382.33 639.13C382.48 638.6 382.55 638.2 382.55 637.95H387.38V667.45H387.37ZM409.35 652.8C408.64 652.8 408.03 652.88 407.52 653.06C406.61 653.39 405.93 653.99 405.46 654.87L400.26 654.63L402.33 638.34H418.59V643.27H406.52L405.46 649.71C406.36 649.13 407.06 648.75 407.56 648.55C408.4 648.24 409.42 648.09 410.63 648.09C413.07 648.09 415.2 648.91 417.02 650.55C418.84 652.2 419.75 654.59 419.75 657.72C419.75 660.44 418.87 662.88 417.12 665.02C415.37 667.17 412.75 668.24 409.27 668.24C406.46 668.24 404.16 667.49 402.35 665.98C400.55 664.47 399.55 662.34 399.34 659.57H405.12C405.35 660.83 405.79 661.8 406.45 662.49C407.1 663.17 408.05 663.52 409.3 663.52C410.74 663.52 411.84 663.01 412.59 662C413.34 660.99 413.72 659.72 413.72 658.19C413.72 656.68 413.37 655.41 412.66 654.38C411.96 653.34 410.86 652.82 409.37 652.82L409.35 652.8ZM580.08 667.45H574.14V647.1H567.2V643.16C569.03 643.08 570.31 642.96 571.05 642.79C572.22 642.53 573.16 642.02 573.9 641.25C574.4 640.71 574.78 640.01 575.04 639.13C575.19 638.6 575.26 638.2 575.26 637.95H580.09V667.45H580.08ZM598.93 643.83C598.28 644.7 597.97 645.86 598 647.31H592.58C592.64 645.85 592.88 644.45 593.34 643.14C593.81 641.99 594.56 640.92 595.58 639.94C596.34 639.25 597.24 638.72 598.29 638.36C599.33 637.99 600.62 637.8 602.13 637.8C604.96 637.8 607.23 638.53 608.96 639.99C610.69 641.45 611.56 643.41 611.56 645.86C611.56 647.6 611.04 649.06 610.01 650.25C609.36 651 608.69 651.51 607.98 651.78C608.51 651.78 609.27 652.24 610.26 653.14C611.74 654.51 612.48 656.38 612.48 658.75C612.48 661.25 611.61 663.44 609.88 665.34C608.15 667.23 605.59 668.17 602.2 668.17C598.03 668.17 595.13 666.81 593.49 664.09C592.64 662.64 592.16 660.74 592.07 658.39H597.77C597.77 659.57 597.96 660.55 598.34 661.32C599.04 662.75 600.33 663.46 602.18 663.46C603.32 663.46 604.31 663.07 605.16 662.28C606.01 661.5 606.44 660.38 606.44 658.91C606.44 656.97 605.65 655.68 604.08 655.03C603.19 654.66 601.78 654.48 599.84 654.48V650.33C601.73 650.3 603.04 650.12 603.79 649.78C605.07 649.21 605.72 648.06 605.72 646.32C605.72 645.19 605.39 644.28 604.74 643.57C604.08 642.87 603.16 642.51 601.96 642.51C600.59 642.51 599.59 642.95 598.95 643.81L598.93 643.83ZM628.71 652.8C628 652.8 627.39 652.88 626.88 653.06C625.97 653.39 625.29 653.99 624.82 654.87L619.62 654.63L621.69 638.34H637.95V643.27H625.88L624.82 649.71C625.72 649.13 626.42 648.75 626.92 648.55C627.76 648.24 628.78 648.09 629.99 648.09C632.43 648.09 634.56 648.91 636.38 650.55C638.2 652.2 639.11 654.59 639.11 657.72C639.11 660.44 638.23 662.88 636.48 665.02C634.73 667.17 632.11 668.24 628.63 668.24C625.82 668.24 623.52 667.49 621.71 665.98C619.91 664.47 618.91 662.34 618.7 659.57H624.48C624.71 660.83 625.15 661.8 625.81 662.49C626.46 663.17 627.41 663.52 628.66 663.52C630.1 663.52 631.2 663.01 631.95 662C632.7 660.99 633.08 659.72 633.08 658.19C633.08 656.68 632.73 655.41 632.02 654.38C631.32 653.34 630.22 652.82 628.73 652.82L628.71 652.8ZM655.36 652.8C654.65 652.8 654.04 652.88 653.53 653.06C652.62 653.39 651.94 653.99 651.47 654.87L646.27 654.63L648.34 638.34H664.6V643.27H652.53L651.47 649.71C652.37 649.13 653.07 648.75 653.57 648.55C654.41 648.24 655.43 648.09 656.64 648.09C659.08 648.09 661.21 648.91 663.03 650.55C664.85 652.2 665.76 654.59 665.76 657.72C665.76 660.44 664.88 662.88 663.13 665.02C661.38 667.17 658.76 668.24 655.28 668.24C652.47 668.24 650.17 667.49 648.36 665.98C646.56 664.47 645.56 662.34 645.35 659.57H651.13C651.36 660.83 651.8 661.8 652.46 662.49C653.11 663.17 654.06 663.52 655.31 663.52C656.75 663.52 657.85 663.01 658.6 662C659.35 660.99 659.73 659.72 659.73 658.19C659.73 656.68 659.38 655.41 658.67 654.38C657.97 653.34 656.87 652.82 655.38 652.82L655.36 652.8ZM826.01 668.17C822.25 668.17 819.62 666.86 818.11 664.23C816.59 661.6 815.85 657.85 815.85 652.98C815.85 648.11 816.6 644.35 818.11 641.71C819.62 639.06 822.26 637.75 826.01 637.75C829.77 637.75 832.4 639.07 833.93 641.71C835.43 644.36 836.19 648.11 836.19 652.98C836.19 657.85 835.43 661.6 833.93 664.23C832.41 666.86 829.78 668.17 826.02 668.17H826.01ZM829.41 660.75C829.94 658.96 830.2 656.37 830.2 652.98C830.2 649.42 829.93 646.79 829.4 645.08C828.86 643.38 827.73 642.52 826.01 642.52C824.29 642.52 823.15 643.37 822.59 645.08C822.03 646.79 821.76 649.42 821.76 652.98C821.76 656.37 822.04 658.96 822.59 660.76C823.15 662.55 824.28 663.46 826.01 663.46C827.73 663.46 828.86 662.55 829.41 660.75ZM852.65 668.17C848.89 668.17 846.26 666.86 844.75 664.23C843.23 661.6 842.49 657.85 842.49 652.98C842.49 648.11 843.24 644.35 844.75 641.71C846.26 639.06 848.9 637.75 852.65 637.75C856.41 637.75 859.04 639.07 860.57 641.71C862.07 644.36 862.83 648.11 862.83 652.98C862.83 657.85 862.07 661.6 860.57 664.23C859.05 666.86 856.42 668.17 852.66 668.17H852.65ZM856.05 660.75C856.58 658.96 856.84 656.37 856.84 652.98C856.84 649.42 856.57 646.79 856.04 645.08C855.5 643.38 854.37 642.52 852.65 642.52C850.93 642.52 849.79 643.37 849.23 645.08C848.67 646.79 848.4 649.42 848.4 652.98C848.4 656.37 848.68 658.96 849.23 660.76C849.79 662.55 850.92 663.46 852.65 663.46C854.37 663.46 855.5 662.55 856.05 660.75ZM879.29 668.17C875.53 668.17 872.9 666.86 871.39 664.23C869.87 661.6 869.13 657.85 869.13 652.98C869.13 648.11 869.88 644.35 871.39 641.71C872.9 639.06 875.54 637.75 879.29 637.75C883.05 637.75 885.68 639.07 887.21 641.71C888.71 644.36 889.47 648.11 889.47 652.98C889.47 657.85 888.71 661.6 887.21 664.23C885.69 666.86 883.06 668.17 879.3 668.17H879.29ZM882.69 660.75C883.22 658.96 883.48 656.37 883.48 652.98C883.48 649.42 883.21 646.79 882.68 645.08C882.14 643.38 881.01 642.52 879.29 642.52C877.57 642.52 876.43 643.37 875.87 645.08C875.31 646.79 875.04 649.42 875.04 652.98C875.04 656.37 875.32 658.96 875.87 660.76C876.43 662.55 877.56 663.46 879.29 663.46C881.01 663.46 882.14 662.55 882.69 660.75ZM905.57 652.8C904.86 652.8 904.25 652.88 903.74 653.06C902.83 653.39 902.15 653.99 901.68 654.87L896.48 654.63L898.55 638.34H914.81V643.27H902.74L901.68 649.71C902.58 649.13 903.28 648.75 903.78 648.55C904.62 648.24 905.64 648.09 906.85 648.09C909.29 648.09 911.42 648.91 913.24 650.55C915.06 652.2 915.97 654.59 915.97 657.72C915.97 660.44 915.09 662.88 913.34 665.02C911.59 667.17 908.97 668.24 905.49 668.24C902.68 668.24 900.38 667.49 898.57 665.98C896.77 664.47 895.77 662.34 895.56 659.57H901.34C901.57 660.83 902.01 661.8 902.67 662.49C903.32 663.17 904.27 663.52 905.52 663.52C906.96 663.52 908.06 663.01 908.81 662C909.56 660.99 909.94 659.72 909.94 658.19C909.94 656.68 909.59 655.41 908.88 654.38C908.18 653.34 907.08 652.82 905.59 652.82L905.57 652.8ZM932.22 652.8C931.51 652.8 930.9 652.88 930.39 653.06C929.48 653.39 928.8 653.99 928.33 654.87L923.13 654.63L925.2 638.34H941.46V643.27H929.39L928.33 649.71C929.23 649.13 929.93 648.75 930.43 648.55C931.27 648.24 932.29 648.09 933.5 648.09C935.94 648.09 938.07 648.91 939.89 650.55C941.71 652.2 942.62 654.59 942.62 657.72C942.62 660.44 941.74 662.88 939.99 665.02C938.24 667.17 935.62 668.24 932.14 668.24C929.33 668.24 927.03 667.49 925.22 665.98C923.42 664.47 922.42 662.34 922.21 659.57H927.99C928.22 660.83 928.66 661.8 929.32 662.49C929.97 663.17 930.92 663.52 932.17 663.52C933.61 663.52 934.71 663.01 935.46 662C936.21 660.99 936.59 659.72 936.59 658.19C936.59 656.68 936.24 655.41 935.53 654.38C934.83 653.34 933.73 652.82 932.24 652.82L932.22 652.8ZM951.39 665.59C949.7 663.85 948.85 661.75 948.85 659.26C948.85 657.61 949.22 656.11 949.98 654.77C950.73 653.42 951.83 652.42 953.29 651.73C951.86 650.79 950.94 649.76 950.51 648.65C950.08 647.55 949.87 646.51 949.87 645.55C949.87 643.4 950.68 641.58 952.29 640.07C953.91 638.55 956.18 637.8 959.13 637.8C962.07 637.8 964.35 638.56 965.96 640.07C967.57 641.58 968.38 643.41 968.38 645.55C968.38 646.51 968.17 647.55 967.73 648.65C967.31 649.76 966.38 650.72 964.96 651.53C966.41 652.34 967.5 653.42 968.23 654.77C968.97 656.11 969.33 657.61 969.33 659.26C969.33 661.75 968.41 663.86 966.57 665.6C964.74 667.34 962.16 668.21 958.87 668.21C955.57 668.21 953.08 667.34 951.38 665.58L951.39 665.59ZM954.87 658.88C954.87 660.33 955.25 661.46 956 662.25C956.75 663.05 957.8 663.45 959.13 663.45C960.46 663.45 961.5 663.04 962.25 662.25C963.01 661.45 963.38 660.33 963.38 658.88C963.38 657.37 963 656.23 962.23 655.45C961.47 654.67 960.43 654.28 959.13 654.28C957.83 654.28 956.79 654.67 956.03 655.45C955.27 656.23 954.88 657.37 954.88 658.88H954.87ZM956.4 648.82C957.05 649.5 957.96 649.84 959.13 649.84C960.31 649.84 961.22 649.5 961.87 648.82C962.52 648.15 962.83 647.27 962.83 646.19C962.83 645.02 962.51 644.12 961.87 643.45C961.22 642.8 960.31 642.47 959.13 642.47C957.96 642.47 957.05 642.8 956.39 643.45C955.73 644.11 955.41 645.02 955.41 646.19C955.41 647.27 955.74 648.14 956.4 648.82ZM978.04 665.58C976.35 663.84 975.5 661.74 975.5 659.25C975.5 657.6 975.87 656.1 976.63 654.76C977.38 653.41 978.48 652.41 979.94 651.72C978.51 650.78 977.59 649.75 977.16 648.64C976.73 647.54 976.52 646.5 976.52 645.54C976.52 643.39 977.33 641.57 978.94 640.06C980.56 638.54 982.83 637.79 985.78 637.79C988.72 637.79 991 638.55 992.61 640.06C994.22 641.57 995.03 643.4 995.03 645.54C995.03 646.5 994.82 647.54 994.38 648.64C993.96 649.75 993.03 650.71 991.61 651.52C993.06 652.33 994.15 653.41 994.88 654.76C995.62 656.1 995.98 657.6 995.98 659.25C995.98 661.74 995.06 663.85 993.22 665.59C991.39 667.33 988.81 668.2 985.52 668.2C982.22 668.2 979.73 667.33 978.03 665.57L978.04 665.58ZM981.52 658.87C981.52 660.32 981.9 661.45 982.65 662.24C983.4 663.04 984.45 663.44 985.78 663.44C987.11 663.44 988.15 663.03 988.9 662.24C989.66 661.44 990.03 660.32 990.03 658.87C990.03 657.36 989.65 656.22 988.88 655.44C988.12 654.66 987.08 654.27 985.78 654.27C984.48 654.27 983.44 654.66 982.68 655.44C981.92 656.22 981.53 657.36 981.53 658.87H981.52ZM983.05 648.81C983.7 649.49 984.61 649.83 985.78 649.83C986.96 649.83 987.87 649.49 988.52 648.81C989.17 648.14 989.48 647.26 989.48 646.18C989.48 645.01 989.16 644.11 988.52 643.44C987.87 642.79 986.96 642.46 985.78 642.46C984.61 642.46 983.7 642.79 983.04 643.44C982.38 644.1 982.06 645.01 982.06 646.18C982.06 647.26 982.39 648.13 983.05 648.81ZM1004.69 665.57C1003 663.83 1002.15 661.73 1002.15 659.24C1002.15 657.59 1002.52 656.09 1003.28 654.75C1004.03 653.4 1005.13 652.4 1006.59 651.71C1005.16 650.77 1004.24 649.74 1003.81 648.63C1003.38 647.53 1003.17 646.49 1003.17 645.53C1003.17 643.38 1003.98 641.56 1005.59 640.05C1007.21 638.53 1009.48 637.78 1012.43 637.78C1015.37 637.78 1017.65 638.54 1019.26 640.05C1020.87 641.56 1021.68 643.39 1021.68 645.53C1021.68 646.49 1021.47 647.53 1021.03 648.63C1020.61 649.74 1019.68 650.7 1018.26 651.51C1019.71 652.32 1020.8 653.4 1021.53 654.75C1022.27 656.09 1022.63 657.59 1022.63 659.24C1022.63 661.73 1021.71 663.84 1019.87 665.58C1018.04 667.32 1015.46 668.19 1012.17 668.19C1008.87 668.19 1006.38 667.32 1004.68 665.56L1004.69 665.57ZM1008.17 658.86C1008.17 660.31 1008.55 661.44 1009.3 662.23C1010.05 663.03 1011.1 663.43 1012.43 663.43C1013.76 663.43 1014.8 663.02 1015.55 662.23C1016.31 661.43 1016.68 660.31 1016.68 658.86C1016.68 657.35 1016.3 656.21 1015.53 655.43C1014.77 654.65 1013.73 654.26 1012.43 654.26C1011.13 654.26 1010.09 654.65 1009.33 655.43C1008.57 656.21 1008.18 657.35 1008.18 658.86H1008.17ZM1009.7 648.8C1010.35 649.48 1011.26 649.82 1012.43 649.82C1013.61 649.82 1014.52 649.48 1015.17 648.8C1015.82 648.13 1016.13 647.25 1016.13 646.17C1016.13 645 1015.81 644.1 1015.17 643.43C1014.52 642.78 1013.61 642.45 1012.43 642.45C1011.26 642.45 1010.35 642.78 1009.69 643.43C1009.03 644.09 1008.71 645 1008.71 646.17C1008.71 647.25 1009.04 648.12 1009.7 648.8ZM1031.34 665.56C1029.65 663.82 1028.8 661.72 1028.8 659.23C1028.8 657.58 1029.17 656.08 1029.93 654.74C1030.68 653.39 1031.78 652.39 1033.24 651.7C1031.81 650.76 1030.89 649.73 1030.46 648.62C1030.03 647.52 1029.82 646.48 1029.82 645.52C1029.82 643.37 1030.63 641.55 1032.24 640.04C1033.86 638.52 1036.13 637.77 1039.08 637.77C1042.02 637.77 1044.3 638.53 1045.91 640.04C1047.52 641.55 1048.33 643.38 1048.33 645.52C1048.33 646.48 1048.12 647.52 1047.68 648.62C1047.26 649.73 1046.33 650.69 1044.91 651.5C1046.36 652.31 1047.45 653.39 1048.18 654.74C1048.92 656.08 1049.28 657.58 1049.28 659.23C1049.28 661.72 1048.36 663.83 1046.52 665.57C1044.69 667.31 1042.11 668.18 1038.82 668.18C1035.52 668.18 1033.03 667.31 1031.33 665.55L1031.34 665.56ZM1034.82 658.85C1034.82 660.3 1035.2 661.43 1035.95 662.22C1036.7 663.02 1037.75 663.42 1039.08 663.42C1040.41 663.42 1041.45 663.01 1042.2 662.22C1042.96 661.42 1043.33 660.3 1043.33 658.85C1043.33 657.34 1042.95 656.2 1042.18 655.42C1041.42 654.64 1040.38 654.25 1039.08 654.25C1037.78 654.25 1036.74 654.64 1035.98 655.42C1035.22 656.2 1034.83 657.34 1034.83 658.85H1034.82ZM1036.35 648.79C1037 649.47 1037.91 649.81 1039.08 649.81C1040.26 649.81 1041.17 649.47 1041.82 648.79C1042.47 648.12 1042.78 647.24 1042.78 646.16C1042.78 644.99 1042.46 644.09 1041.82 643.42C1041.17 642.77 1040.26 642.44 1039.08 642.44C1037.91 642.44 1037 642.77 1036.34 643.42C1035.68 644.08 1035.36 644.99 1035.36 646.16C1035.36 647.24 1035.69 648.11 1036.35 648.79ZM1057.99 665.55C1056.3 663.81 1055.45 661.71 1055.45 659.22C1055.45 657.57 1055.82 656.07 1056.58 654.73C1057.33 653.38 1058.43 652.38 1059.89 651.69C1058.46 650.75 1057.54 649.72 1057.11 648.61C1056.68 647.51 1056.47 646.47 1056.47 645.51C1056.47 643.36 1057.28 641.54 1058.89 640.03C1060.51 638.51 1062.78 637.76 1065.73 637.76C1068.67 637.76 1070.95 638.52 1072.56 640.03C1074.17 641.54 1074.98 643.37 1074.98 645.51C1074.98 646.47 1074.77 647.51 1074.33 648.61C1073.91 649.72 1072.98 650.68 1071.56 651.49C1073.01 652.3 1074.1 653.38 1074.83 654.73C1075.57 656.07 1075.93 657.57 1075.93 659.22C1075.93 661.71 1075.01 663.82 1073.17 665.56C1071.34 667.3 1068.76 668.17 1065.47 668.17C1062.17 668.17 1059.68 667.3 1057.98 665.54L1057.99 665.55ZM1061.47 658.84C1061.47 660.29 1061.85 661.42 1062.6 662.21C1063.35 663.01 1064.4 663.41 1065.73 663.41C1067.06 663.41 1068.1 663 1068.85 662.21C1069.61 661.41 1069.98 660.29 1069.98 658.84C1069.98 657.33 1069.6 656.19 1068.83 655.41C1068.07 654.63 1067.03 654.24 1065.73 654.24C1064.43 654.24 1063.39 654.63 1062.63 655.41C1061.87 656.19 1061.48 657.33 1061.48 658.84H1061.47ZM1063 648.78C1063.65 649.46 1064.56 649.8 1065.73 649.8C1066.91 649.8 1067.82 649.46 1068.47 648.78C1069.12 648.11 1069.43 647.23 1069.43 646.15C1069.43 644.98 1069.11 644.08 1068.47 643.41C1067.82 642.76 1066.91 642.43 1065.73 642.43C1064.56 642.43 1063.65 642.76 1062.99 643.41C1062.33 644.07 1062.01 644.98 1062.01 646.15C1062.01 647.23 1062.34 648.1 1063 648.78ZM795.12 803.86H784.08L782 810.03H775.44L786.14 780.05H793.22L803.84 810.03H797.05L795.11 803.86H795.12ZM793.37 798.69L789.63 786.89L785.77 798.69H793.38H793.37ZM826.37 795.8H820.43C820.32 794.97 820.04 794.23 819.6 793.56C818.95 792.66 817.94 792.22 816.56 792.22C814.61 792.22 813.28 793.18 812.55 795.13C812.17 796.16 811.98 797.53 811.98 799.24C811.98 800.87 812.17 802.18 812.55 803.17C813.25 805.01 814.55 805.93 816.46 805.93C817.81 805.93 818.78 805.56 819.35 804.83C819.92 804.09 820.26 803.15 820.39 801.98H826.31C826.17 803.74 825.53 805.41 824.4 806.98C822.58 809.52 819.89 810.79 816.32 810.79C812.75 810.79 810.13 809.73 808.45 807.62C806.77 805.51 805.93 802.76 805.93 799.38C805.93 795.57 806.86 792.6 808.71 790.48C810.57 788.37 813.14 787.31 816.41 787.31C819.19 787.31 821.47 787.94 823.23 789.18C825 790.43 826.04 792.63 826.37 795.79V795.8ZM849.54 795.8H843.6C843.49 794.97 843.21 794.23 842.77 793.56C842.12 792.66 841.11 792.22 839.73 792.22C837.78 792.22 836.45 793.18 835.72 795.13C835.34 796.16 835.15 797.53 835.15 799.24C835.15 800.87 835.34 802.18 835.72 803.17C836.42 805.01 837.72 805.93 839.63 805.93C840.98 805.93 841.95 805.56 842.52 804.83C843.09 804.09 843.43 803.15 843.56 801.98H849.48C849.34 803.74 848.7 805.41 847.57 806.98C845.75 809.52 843.06 810.79 839.49 810.79C835.92 810.79 833.3 809.73 831.62 807.62C829.94 805.51 829.1 802.76 829.1 799.38C829.1 795.57 830.03 792.6 831.88 790.48C833.74 788.37 836.31 787.31 839.58 787.31C842.36 787.31 844.64 787.94 846.4 789.18C848.17 790.43 849.21 792.63 849.54 795.79V795.8ZM872.02 790.65C873.89 793 874.83 795.77 874.83 798.97C874.83 802.23 873.89 805.01 872.02 807.32C870.15 809.63 867.3 810.78 863.49 810.78C859.68 810.78 856.84 809.63 854.97 807.32C853.1 805.01 852.16 802.22 852.16 798.97C852.16 795.77 853.1 793 854.97 790.65C856.84 788.3 859.68 787.13 863.49 787.13C867.3 787.13 870.14 788.3 872.02 790.65ZM863.47 792.03C861.77 792.03 860.47 792.63 859.55 793.83C858.63 795.03 858.18 796.74 858.18 798.97C858.18 801.19 858.63 802.91 859.55 804.12C860.47 805.33 861.77 805.93 863.47 805.93C865.16 805.93 866.47 805.33 867.38 804.12C868.29 802.92 868.74 801.19 868.74 798.97C868.74 796.75 868.29 795.03 867.38 793.83C866.47 792.63 865.16 792.03 863.47 792.03ZM893.19 806.88C893.13 806.95 893 807.15 892.78 807.49C892.56 807.83 892.31 808.13 892.01 808.38C891.1 809.19 890.22 809.75 889.37 810.05C888.52 810.35 887.53 810.49 886.39 810.49C883.11 810.49 880.9 809.31 879.76 806.96C879.12 805.65 878.8 803.74 878.8 801.2V787.84H884.74V801.2C884.74 802.46 884.89 803.41 885.18 804.05C885.71 805.17 886.75 805.74 888.29 805.74C890.28 805.74 891.63 804.94 892.36 803.34C892.74 802.47 892.93 801.32 892.93 799.9V787.84H898.81V810.01H893.18V806.88H893.19ZM914.86 792.13C912.89 792.13 911.54 792.96 910.81 794.63C910.43 795.51 910.24 796.64 910.24 798V810.01H904.46V787.87H910.05V791.11C910.8 789.97 911.5 789.15 912.17 788.65C913.37 787.76 914.88 787.3 916.71 787.3C919 787.3 920.88 787.91 922.34 789.11C923.8 790.31 924.53 792.3 924.53 795.08V810.01H918.59V796.53C918.59 795.36 918.43 794.47 918.12 793.84C917.55 792.7 916.47 792.13 914.87 792.13H914.86ZM940.03 805.88V810.21L937.28 810.32C934.54 810.41 932.67 809.94 931.66 808.89C931.01 808.22 930.69 807.2 930.69 805.82V792.17H927.6V788.04H930.69V781.85H936.43V788.04H940.04V792.17H936.43V803.88C936.43 804.79 936.55 805.36 936.78 805.58C937.01 805.8 937.72 805.91 938.9 805.91C939.07 805.91 939.26 805.91 939.46 805.9C939.66 805.9 939.85 805.88 940.05 805.87L940.03 805.88ZM980.04 810.01H973.78L961.53 788.71V810.01H955.69V780.03H962.26L974.2 800.96V780.03H980.04V810.01ZM999.64 806.88C999.58 806.95 999.45 807.15 999.23 807.49C999.01 807.83 998.76 808.13 998.46 808.38C997.55 809.19 996.67 809.75 995.82 810.05C994.97 810.35 993.98 810.49 992.84 810.49C989.56 810.49 987.35 809.31 986.21 806.96C985.57 805.65 985.25 803.74 985.25 801.2V787.84H991.19V801.2C991.19 802.46 991.34 803.41 991.63 804.05C992.16 805.17 993.2 805.74 994.74 805.74C996.73 805.74 998.08 804.94 998.81 803.34C999.19 802.47 999.38 801.32 999.38 799.9V787.84H1005.26V810.01H999.63V806.88H999.64ZM1023.32 793.94C1022.83 792.87 1021.88 792.33 1020.45 792.33C1018.79 792.33 1017.68 792.87 1017.11 793.94C1016.8 794.55 1016.64 795.46 1016.64 796.66V810.01H1010.76V787.87H1016.4V791.11C1017.11 789.96 1017.79 789.14 1018.43 788.65C1019.56 787.78 1021.02 787.35 1022.8 787.35C1024.5 787.35 1025.87 787.72 1026.91 788.47C1027.75 789.16 1028.39 790.05 1028.83 791.14C1029.59 789.84 1030.53 788.88 1031.66 788.27C1032.85 787.66 1034.18 787.35 1035.64 787.35C1036.62 787.35 1037.58 787.54 1038.53 787.92C1039.48 788.3 1040.34 788.97 1041.11 789.92C1041.74 790.7 1042.15 791.65 1042.37 792.77C1042.5 793.51 1042.57 794.6 1042.57 796.04L1042.53 810.02H1036.59V795.9C1036.59 795.06 1036.45 794.36 1036.18 793.83C1035.66 792.8 1034.71 792.28 1033.33 792.28C1031.73 792.28 1030.63 792.95 1030.01 794.28C1029.7 794.99 1029.55 795.84 1029.55 796.83V810.03H1023.71V796.83C1023.71 795.51 1023.58 794.55 1023.3 793.96L1023.32 793.94ZM1059.96 810.6C1058.13 810.6 1056.66 810.23 1055.55 809.5C1054.89 809.06 1054.17 808.31 1053.4 807.22V810H1047.72V780.05H1053.5V790.72C1054.24 789.68 1055.04 788.9 1055.93 788.36C1056.97 787.68 1058.3 787.34 1059.92 787.34C1062.83 787.34 1065.12 788.4 1066.77 790.49C1068.42 792.59 1069.24 795.31 1069.24 798.63C1069.24 802.07 1068.43 804.93 1066.8 807.2C1065.17 809.46 1062.9 810.6 1059.99 810.6H1059.96ZM1063.13 799.25C1063.13 797.68 1062.93 796.38 1062.52 795.35C1061.75 793.39 1060.33 792.42 1058.25 792.42C1056.15 792.42 1054.7 793.38 1053.92 795.29C1053.51 796.3 1053.31 797.62 1053.31 799.23C1053.31 801.13 1053.73 802.7 1054.57 803.95C1055.41 805.2 1056.69 805.82 1058.41 805.82C1059.9 805.82 1061.06 805.22 1061.89 804.01C1062.72 802.8 1063.13 801.21 1063.13 799.25ZM1092.34 803.5C1092.19 804.82 1091.51 806.15 1090.28 807.51C1088.39 809.66 1085.72 810.74 1082.31 810.74C1079.49 810.74 1077 809.84 1074.85 808.02C1072.69 806.2 1071.61 803.24 1071.61 799.15C1071.61 795.31 1072.58 792.37 1074.53 790.32C1076.47 788.27 1079 787.25 1082.11 787.25C1083.96 787.25 1085.61 787.59 1087.09 788.29C1088.57 788.98 1089.79 790.07 1090.76 791.57C1091.63 792.88 1092.19 794.41 1092.45 796.15C1092.6 797.16 1092.66 798.63 1092.63 800.54H1077.46C1077.53 802.76 1078.24 804.33 1079.55 805.22C1080.35 805.78 1081.31 806.05 1082.44 806.05C1083.64 806.05 1084.61 805.71 1085.35 805.03C1085.76 804.66 1086.12 804.15 1086.43 803.5H1092.34ZM1086.61 796.7C1086.51 795.17 1086.05 794.01 1085.21 793.22C1084.38 792.42 1083.34 792.03 1082.11 792.03C1080.77 792.03 1079.73 792.45 1078.99 793.29C1078.25 794.13 1077.78 795.27 1077.59 796.7H1086.61ZM1107.68 793.18C1105.35 793.18 1103.78 793.94 1102.98 795.46C1102.54 796.31 1102.31 797.63 1102.31 799.41V810.01H1096.47V787.84H1102.01V791.7C1102.9 790.22 1103.68 789.21 1104.35 788.67C1105.43 787.76 1106.84 787.3 1108.58 787.3C1108.69 787.3 1108.78 787.31 1108.86 787.32C1108.93 787.33 1109.1 787.33 1109.35 787.35V793.29C1108.99 793.25 1108.66 793.22 1108.38 793.21C1108.1 793.19 1107.87 793.19 1107.69 793.19L1107.68 793.18ZM592.99 807.77C590.76 809.82 587.9 810.84 584.41 810.84C580.09 810.84 576.71 809.46 574.24 806.69C571.77 803.91 570.54 800.1 570.54 795.26C570.54 790.02 571.95 785.99 574.75 783.15C577.19 780.68 580.3 779.45 584.07 779.45C589.11 779.45 592.81 781.1 595.14 784.41C596.42 786.27 597.12 788.14 597.21 790H590.95C590.54 788.56 590.02 787.48 589.38 786.74C588.24 785.44 586.55 784.79 584.32 784.79C582.04 784.79 580.25 785.71 578.93 787.55C577.61 789.39 576.95 791.99 576.95 795.35C576.95 798.71 577.65 801.23 579.04 802.91C580.43 804.58 582.19 805.43 584.34 805.43C586.54 805.43 588.21 804.71 589.36 803.27C590 802.5 590.53 801.34 590.95 799.79H597.16C596.61 803.06 595.23 805.72 593.01 807.77H592.99ZM621.49 796.99V810.01H615.57V796.53C615.57 795.33 615.37 794.37 614.96 793.64C614.43 792.6 613.42 792.09 611.94 792.09C610.41 792.09 609.25 792.6 608.46 793.62C607.67 794.65 607.27 796.11 607.27 798V810.01H601.49V780.12H607.27V790.73C608.11 789.44 609.08 788.54 610.19 788.03C611.29 787.52 612.46 787.27 613.67 787.27C615.04 787.27 616.29 787.51 617.41 787.98C618.53 788.46 619.45 789.18 620.17 790.16C620.78 790.99 621.16 791.83 621.29 792.71C621.43 793.58 621.49 795.01 621.49 796.99ZM645.88 803.5C645.73 804.82 645.05 806.15 643.82 807.51C641.93 809.66 639.26 810.74 635.85 810.74C633.03 810.74 630.54 809.84 628.39 808.02C626.23 806.2 625.15 803.24 625.15 799.15C625.15 795.31 626.12 792.37 628.07 790.32C630.01 788.27 632.54 787.25 635.65 787.25C637.5 787.25 639.15 787.59 640.63 788.29C642.11 788.98 643.33 790.07 644.3 791.57C645.17 792.88 645.73 794.41 645.99 796.15C646.14 797.16 646.2 798.63 646.17 800.54H631C631.07 802.76 631.78 804.33 633.09 805.22C633.89 805.78 634.85 806.05 635.98 806.05C637.18 806.05 638.15 805.71 638.89 805.03C639.3 804.66 639.66 804.15 639.97 803.5H645.88ZM640.15 796.7C640.05 795.17 639.59 794.01 638.75 793.22C637.92 792.42 636.88 792.03 635.65 792.03C634.31 792.03 633.27 792.45 632.53 793.29C631.79 794.13 631.32 795.27 631.13 796.7H640.15ZM669.26 795.79H663.32C663.21 794.96 662.93 794.22 662.49 793.55C661.84 792.65 660.83 792.21 659.45 792.21C657.5 792.21 656.17 793.17 655.44 795.12C655.06 796.15 654.87 797.52 654.87 799.23C654.87 800.86 655.06 802.17 655.44 803.16C656.14 805 657.44 805.92 659.35 805.92C660.7 805.92 661.67 805.55 662.24 804.82C662.81 804.08 663.15 803.14 663.28 801.97H669.2C669.06 803.73 668.42 805.4 667.29 806.97C665.47 809.51 662.78 810.78 659.21 810.78C655.64 810.78 653.02 809.72 651.34 807.61C649.66 805.5 648.82 802.75 648.82 799.37C648.82 795.56 649.75 792.59 651.6 790.47C653.46 788.36 656.03 787.3 659.3 787.3C662.08 787.3 664.36 787.93 666.12 789.17C667.89 790.42 668.93 792.62 669.26 795.78V795.79ZM693.59 810.01H686.6L681.29 800.53L678.88 803.03V810.01H673.19V780.12H678.88V796.27L686.1 787.93H693.28L685.53 796.41L693.59 810V810.01ZM155.37 788.74C156.62 788.17 157.24 787.05 157.24 785.37C157.24 783.55 156.64 782.33 155.43 781.71C154.75 781.36 153.74 781.18 152.37 781.18H145.09V789.24H152.19C153.6 789.24 154.66 789.07 155.37 788.74ZM186.94 786.59C188.81 788.94 189.75 791.71 189.75 794.91C189.75 798.17 188.81 800.95 186.94 803.26C185.07 805.57 182.22 806.72 178.41 806.72C174.6 806.72 171.76 805.57 169.89 803.26C168.02 800.95 167.08 798.16 167.08 794.91C167.08 791.71 168.02 788.94 169.89 786.59C171.76 784.24 174.6 783.07 178.41 783.07C182.22 783.07 185.06 784.24 186.94 786.59ZM178.39 787.97C176.69 787.97 175.39 788.57 174.47 789.77C173.55 790.97 173.1 792.68 173.1 794.91C173.1 797.13 173.55 798.85 174.47 800.06C175.39 801.27 176.69 801.87 178.39 801.87C180.08 801.87 181.39 801.27 182.3 800.06C183.21 798.86 183.66 797.13 183.66 794.91C183.66 792.69 183.21 790.97 182.3 789.77C181.39 788.57 180.08 787.97 178.39 787.97ZM208.11 802.82C208.05 802.89 207.92 803.09 207.7 803.43C207.48 803.77 207.23 804.07 206.93 804.32C206.02 805.13 205.14 805.69 204.29 805.99C203.44 806.29 202.45 806.43 201.31 806.43C198.03 806.43 195.82 805.25 194.68 802.9C194.04 801.59 193.72 799.68 193.72 797.14V783.78H199.66V797.14C199.66 798.4 199.81 799.35 200.1 799.99C200.63 801.11 201.67 801.68 203.21 801.68C205.2 801.68 206.55 800.88 207.28 799.28C207.66 798.41 207.85 797.26 207.85 795.84V783.78H213.73V805.95H208.1V802.82H208.11ZM229.49 801.82V806.15L226.74 806.26C224 806.35 222.13 805.88 221.12 804.83C220.47 804.16 220.15 803.14 220.15 801.76V788.11H217.06V783.98H220.15V777.79H225.89V783.98H229.5V788.11H225.89V799.82C225.89 800.73 226.01 801.3 226.24 801.52C226.47 801.74 227.18 801.85 228.36 801.85C228.53 801.85 228.72 801.85 228.92 801.84C229.12 801.84 229.31 801.82 229.51 801.81L229.49 801.82ZM239.17 783.78V805.95H233.29V783.78H239.17ZM239.17 775.78V781.13H233.29V775.78H239.17ZM255.23 788.07C253.26 788.07 251.91 788.9 251.18 790.57C250.8 791.45 250.61 792.58 250.61 793.94V805.95H244.83V783.81H250.42V787.05C251.17 785.91 251.87 785.09 252.54 784.59C253.74 783.7 255.25 783.24 257.08 783.24C259.37 783.24 261.25 783.85 262.71 785.05C264.17 786.25 264.9 788.24 264.9 791.02V805.95H258.96V792.47C258.96 791.3 258.8 790.41 258.49 789.78C257.92 788.64 256.84 788.07 255.24 788.07H255.23ZM276.51 809.84C277.14 810.37 278.18 810.63 279.66 810.63C281.75 810.63 283.14 809.93 283.85 808.53C284.31 807.64 284.54 806.13 284.54 804.02V802.59C283.98 803.53 283.39 804.25 282.75 804.72C281.6 805.6 280.1 806.04 278.25 806.04C275.4 806.04 273.13 805.04 271.43 803.04C269.73 801.04 268.87 798.33 268.87 794.91C268.87 791.61 269.7 788.85 271.34 786.6C272.98 784.36 275.3 783.23 278.32 783.23C279.43 783.23 280.4 783.4 281.23 783.75C282.64 784.33 283.78 785.4 284.65 786.96V783.77H290.28V804.81C290.28 807.67 289.8 809.83 288.84 811.28C287.19 813.77 284.01 815.02 279.32 815.02C276.49 815.02 274.17 814.46 272.38 813.35C270.59 812.24 269.6 810.58 269.42 808.37H275.73C275.89 809.04 276.15 809.54 276.52 809.83L276.51 809.84ZM275.53 798.38C276.32 800.26 277.73 801.19 279.77 801.19C281.12 801.19 282.27 800.68 283.21 799.65C284.15 798.63 284.62 797 284.62 794.76C284.62 792.66 284.18 791.06 283.29 789.96C282.4 788.86 281.21 788.31 279.72 788.31C277.68 788.31 276.28 789.27 275.51 791.18C275.1 792.2 274.9 793.45 274.9 794.94C274.9 796.23 275.12 797.38 275.55 798.38H275.53ZM331.98 805.95H325.72L313.47 784.65V805.95H307.63V775.97H314.2L326.14 796.9V775.97H331.98V805.95ZM351.58 802.82C351.52 802.89 351.39 803.09 351.17 803.43C350.95 803.77 350.7 804.07 350.4 804.32C349.49 805.13 348.61 805.69 347.76 805.99C346.91 806.29 345.92 806.43 344.78 806.43C341.5 806.43 339.29 805.25 338.15 802.9C337.51 801.59 337.19 799.68 337.19 797.14V783.78H343.13V797.14C343.13 798.4 343.28 799.35 343.57 799.99C344.1 801.11 345.14 801.68 346.68 801.68C348.67 801.68 350.02 800.88 350.75 799.28C351.13 798.41 351.32 797.26 351.32 795.84V783.78H357.2V805.95H351.57V802.82H351.58ZM375.26 789.88C374.77 788.81 373.82 788.27 372.39 788.27C370.73 788.27 369.62 788.81 369.05 789.88C368.74 790.49 368.58 791.4 368.58 792.6V805.95H362.7V783.81H368.34V787.05C369.05 785.9 369.73 785.08 370.37 784.59C371.5 783.72 372.96 783.29 374.74 783.29C376.44 783.29 377.81 783.66 378.85 784.41C379.69 785.1 380.33 785.99 380.77 787.08C381.53 785.78 382.47 784.82 383.6 784.21C384.79 783.6 386.12 783.29 387.58 783.29C388.56 783.29 389.52 783.48 390.47 783.86C391.42 784.24 392.28 784.91 393.05 785.86C393.68 786.64 394.09 787.59 394.31 788.71C394.44 789.45 394.51 790.54 394.51 791.98L394.47 805.96H388.53V791.84C388.53 791 388.39 790.3 388.12 789.77C387.6 788.74 386.65 788.22 385.27 788.22C383.67 788.22 382.57 788.89 381.95 790.22C381.64 790.93 381.49 791.78 381.49 792.77V805.97H375.65V792.77C375.65 791.45 375.52 790.49 375.24 789.9L375.26 789.88ZM411.9 806.54C410.07 806.54 408.6 806.17 407.49 805.44C406.83 805 406.11 804.25 405.34 803.16V805.94H399.66V775.99H405.44V786.66C406.18 785.62 406.98 784.84 407.87 784.3C408.91 783.62 410.24 783.28 411.86 783.28C414.77 783.28 417.06 784.34 418.71 786.43C420.36 788.53 421.18 791.25 421.18 794.57C421.18 798.01 420.37 800.87 418.74 803.14C417.11 805.4 414.84 806.54 411.93 806.54H411.9ZM415.07 795.19C415.07 793.62 414.87 792.32 414.46 791.29C413.69 789.33 412.27 788.36 410.19 788.36C408.09 788.36 406.64 789.32 405.86 791.23C405.45 792.24 405.25 793.56 405.25 795.17C405.25 797.07 405.67 798.64 406.51 799.89C407.35 801.14 408.63 801.76 410.35 801.76C411.84 801.76 413 801.16 413.83 799.95C414.66 798.74 415.07 797.15 415.07 795.19ZM444.28 799.44C444.13 800.76 443.45 802.09 442.22 803.45C440.33 805.6 437.66 806.68 434.25 806.68C431.43 806.68 428.94 805.78 426.79 803.96C424.63 802.14 423.55 799.18 423.55 795.09C423.55 791.25 424.52 788.31 426.47 786.26C428.41 784.21 430.94 783.19 434.05 783.19C435.9 783.19 437.55 783.53 439.03 784.23C440.51 784.92 441.73 786.01 442.7 787.51C443.57 788.82 444.13 790.35 444.39 792.09C444.54 793.1 444.6 794.57 444.57 796.48H429.4C429.47 798.7 430.18 800.27 431.49 801.16C432.29 801.72 433.25 801.99 434.38 801.99C435.58 801.99 436.55 801.65 437.29 800.97C437.7 800.6 438.06 800.09 438.37 799.44H444.28ZM438.55 792.64C438.45 791.11 437.99 789.95 437.15 789.16C436.32 788.36 435.28 787.97 434.05 787.97C432.71 787.97 431.67 788.39 430.93 789.23C430.19 790.07 429.72 791.21 429.53 792.64H438.55ZM459.62 789.12C457.29 789.12 455.72 789.88 454.92 791.4C454.48 792.25 454.25 793.57 454.25 795.35V805.95H448.41V783.78H453.95V787.64C454.84 786.16 455.62 785.15 456.29 784.61C457.37 783.7 458.78 783.24 460.52 783.24C460.63 783.24 460.72 783.25 460.8 783.26C460.87 783.27 461.04 783.27 461.29 783.29V789.23C460.93 789.19 460.6 789.16 460.32 789.15C460.04 789.13 459.81 789.13 459.63 789.13L459.62 789.12Z" fill="#D42F91"/>
</svg>
