<?xml version="1.0" standalone="no"?>
<!DOCTYPE svg PUBLIC "-//W3C//DTD SVG 20010904//EN"
 "http://www.w3.org/TR/2001/REC-SVG-20010904/DTD/svg10.dtd">
<svg version="1.0" xmlns="http://www.w3.org/2000/svg"
 width="3670.000000pt" height="4320.000000pt" viewBox="0 0 3670.000000 4320.000000"
 preserveAspectRatio="xMidYMid meet">

<g transform="translate(0.000000,4320.000000) scale(0.100000,-0.100000)"
fill="#000000" stroke="none">
<path d="M20 43194 c0 -3 3035 -4863 6745 -10800 l6746 -10794 -6746 -10794
c-3710 -5937 -6745 -10797 -6745 -10800 0 -3 838 -6 1863 -6 l1862 0 3466
5548 c1907 3051 6688 10702 10624 17002 3937 6300 8451 13524 10031 16053
l2872 4597 -1866 0 -1867 -1 -4325 -6924 c-2379 -3808 -4327 -6924 -4330
-6924 -3 0 -1951 3116 -4330 6924 l-4325 6924 -1867 1 -1866 0 5250 -8402
c2888 -4622 5255 -8412 5260 -8423 8 -18 -77 -159 -537 -895 -301 -481 -550
-878 -554 -883 -4 -4 -2624 4180 -5822 9298 l-5814 9305 -1862 0 c-1025 0
-1863 -3 -1863 -6z"/>
<path d="M27158 33922 c-3188 -5102 -9262 -14822 -13497 -21600 l-7699 -12322
1866 0 1867 1 3700 5922 c2035 3257 8105 12971 13488 21587 5384 8616 9791
15671 9794 15678 4 9 -372 12 -1858 12 l-1864 0 -5797 -9278z"/>
<path d="M23556 18024 c-913 -1461 -928 -1487 -915 -1514 8 -15 2332 -3736
5164 -8269 l5150 -8241 1864 0 c1486 0 1862 3 1858 13 -10 24 -12178 19492
-12185 19494 -4 2 -425 -666 -936 -1483z"/>
<path d="M20585 13269 c-512 -819 -929 -1494 -927 -1501 2 -6 1656 -2657 3675
-5890 l3672 -5877 1869 -1 c1493 0 1866 3 1858 13 -5 6 -2076 3320 -4602 7362
-2526 4043 -4598 7357 -4604 7366 -9 14 -167 -233 -941 -1472z"/>
</g>
</svg>
