<?xml version="1.0" encoding="UTF-8"?>
<!DOCTYPE svg PUBLIC "-//W3C//DTD SVG 1.1//EN" "http://www.w3.org/Graphics/SVG/1.1/DTD/svg11.dtd">
<!-- Creator: CorelDRAW -->
<svg xmlns="http://www.w3.org/2000/svg" xml:space="preserve" version="1.1" style="shape-rendering:geometricPrecision; text-rendering:geometricPrecision; image-rendering:optimizeQuality; fill-rule:evenodd; clip-rule:evenodd"
viewBox="180 360 1800 1800"
 xmlns:xlink="http://www.w3.org/1999/xlink"
 xmlns:xodm="http://www.corel.com/coreldraw/odm/2003">
 <defs>
  <style type="text/css">
   <![CDATA[
    .str0 {stroke:gray;stroke-width:6.67;stroke-linecap:round;stroke-linejoin:round;stroke-miterlimit:22.926}
    .fil1 {fill:none;fill-rule:nonzero}
    .fil2 {fill:#D42F91}
    .fil3 {fill:#333333;fill-rule:nonzero}
    .fil0 {fill:#D42F91;fill-rule:nonzero}
   ]]>
  </style>
 </defs>
 <g id="Layer_x0020_1">
  <metadata id="CorelCorpID_0Corel-Layer"/>
  <g id="_105553223837696">
   <g>
    <path class="fil0" d="M807.36 908.98c-0.08,2.09 -1.12,3.42 -2.32,2.95 -1.2,-0.46 -2.1,-2.54 -2.02,-4.64l4.34 1.69zm305.26 -116.02l0.93 7.76 0 0 -15.9 2 -15.68 2.17 -15.43 2.31 -15.17 2.47 -14.89 2.61 -14.59 2.74 -14.27 2.87 -13.94 2.99 -13.59 3.11 -13.22 3.22 -12.82 3.31 -12.42 3.41 -12 3.5 -11.55 3.58 -11.09 3.65 -10.61 3.72 -10.11 3.78 -9.6 3.84 -9.06 3.88 -8.5 3.93 -7.94 3.95 -7.35 3.98 -6.73 4 -6.11 4 -5.45 4 -4.78 3.98 -4.08 3.94 -3.36 3.88 -2.62 3.77 -1.85 3.59 -1.09 3.27 -0.4 2.82 -4.34 -1.69 0.69 -5.02 1.53 -4.64 2.26 -4.4 2.95 -4.26 3.63 -4.19 4.3 -4.15 4.95 -4.13 5.59 -4.1 6.22 -4.08 6.83 -4.05 7.43 -4.02 8.01 -3.99 8.57 -3.96 9.13 -3.91 9.65 -3.86 10.17 -3.8 10.66 -3.74 11.13 -3.67 11.59 -3.59 12.04 -3.51 12.45 -3.43 12.86 -3.32 13.25 -3.22 13.62 -3.11 13.97 -3 14.3 -2.87 14.61 -2.75 14.92 -2.61 15.19 -2.47 15.46 -2.32 15.7 -2.17 15.93 -2 0 0zm0 0c1.17,-0.14 2.33,1.48 2.59,3.63 0.26,2.14 -0.49,4 -1.66,4.14l-0.93 -7.76zm327.84 38l-3.82 2.66 -1.06 -2.65 -1.83 -2.92 -2.64 -3.05 -3.43 -3.05 -4.19 -2.97 -4.9 -2.87 -5.58 -2.74 -6.24 -2.59 -6.88 -2.44 -7.48 -2.29 -8.08 -2.13 -8.65 -1.97 -9.19 -1.8 -9.72 -1.64 -10.23 -1.46 -10.72 -1.29 -11.19 -1.11 -11.64 -0.93 -12.07 -0.76 -12.48 -0.56 -12.87 -0.39 -13.25 -0.2 -13.6 -0 -13.94 0.19 -14.25 0.38 -14.55 0.58 -14.82 0.78 -15.08 0.98 -15.32 1.19 -15.54 1.39 -15.74 1.6 -15.93 1.81 -0.93 -7.76 15.95 -1.81 15.77 -1.6 15.57 -1.4 15.35 -1.19 15.11 -0.98 14.85 -0.78 14.57 -0.59 14.28 -0.38 13.97 -0.19 13.64 0 13.28 0.2 12.91 0.39 12.52 0.57 12.11 0.76 11.69 0.93 11.24 1.12 10.78 1.3 10.29 1.47 9.79 1.65 9.27 1.81 8.72 1.99 8.17 2.16 7.6 2.32 7.01 2.49 6.4 2.67 5.78 2.83 5.15 3.02 4.52 3.21 3.87 3.44 3.23 3.73 2.58 4.15 1.85 4.71zm0 0c0.57,2.02 0.18,4.25 -0.87,4.98 -1.05,0.73 -2.38,-0.31 -2.95,-2.32l3.82 -2.66z"/>
   </g>
   <g>
    <path class="fil0" d="M855.98 1315.26c-0.07,1.93 -1.04,3.15 -2.14,2.72 -1.11,-0.43 -1.94,-2.35 -1.87,-4.28l4.01 1.56zm281.78 -107.1l0.86 7.17 0 0 -14.68 1.84 -14.47 2 -14.24 2.14 -14 2.28 -13.74 2.41 -13.46 2.54 -13.18 2.65 -12.87 2.76 -12.54 2.87 -12.2 2.97 -11.84 3.06 -11.46 3.15 -11.07 3.23 -10.66 3.31 -10.24 3.37 -9.8 3.44 -9.33 3.49 -8.86 3.54 -8.37 3.58 -7.85 3.63 -7.33 3.65 -6.78 3.68 -6.21 3.69 -5.64 3.69 -5.03 3.69 -4.41 3.67 -3.77 3.64 -3.11 3.58 -2.42 3.48 -1.71 3.31 -1 3.02 -0.37 2.61 -4.01 -1.56 0.63 -4.63 1.41 -4.29 2.09 -4.06 2.72 -3.93 3.35 -3.86 3.96 -3.83 4.57 -3.8 5.17 -3.79 5.75 -3.76 6.31 -3.74 6.86 -3.72 7.4 -3.69 7.92 -3.65 8.42 -3.61 8.91 -3.57 9.38 -3.51 9.84 -3.45 10.28 -3.39 10.7 -3.32 11.11 -3.24 11.5 -3.16 11.87 -3.07 12.23 -2.97 12.57 -2.87 12.9 -2.77 13.2 -2.66 13.5 -2.54 13.77 -2.41 14.02 -2.28 14.27 -2.14 14.5 -2 14.7 -1.85 0 0zm0 0c1.08,-0.13 2.15,1.37 2.39,3.35 0.24,1.98 -0.45,3.69 -1.53,3.82l-0.86 -7.17zm302.63 35.08l-3.53 2.46 -0.97 -2.44 -1.69 -2.69 -2.44 -2.81 -3.17 -2.81 -3.86 -2.75 -4.52 -2.65 -5.16 -2.52 -5.76 -2.39 -6.35 -2.26 -6.91 -2.11 -7.46 -1.97 -7.98 -1.82 -8.48 -1.66 -8.98 -1.51 -9.44 -1.35 -9.9 -1.19 -10.33 -1.02 -10.75 -0.86 -11.14 -0.7 -11.52 -0.52 -11.89 -0.35 -12.23 -0.18 -12.56 -0.01 -12.86 0.18 -13.16 0.35 -13.43 0.54 -13.69 0.72 -13.92 0.91 -14.15 1.09 -14.35 1.29 -14.52 1.47 -14.7 1.67 -0.86 -7.17 14.72 -1.67 14.56 -1.48 14.37 -1.29 14.17 -1.09 13.95 -0.91 13.71 -0.72 13.46 -0.54 13.18 -0.35 12.89 -0.18 12.59 0.01 12.26 0.18 11.92 0.35 11.56 0.53 11.18 0.7 10.79 0.86 10.37 1.03 9.94 1.2 9.5 1.36 9.03 1.52 8.56 1.68 8.06 1.83 7.54 1.99 7.02 2.15 6.47 2.3 5.91 2.46 5.34 2.62 4.76 2.79 4.17 2.96 3.58 3.18 2.98 3.44 2.38 3.83 1.71 4.35zm0 0c0.53,1.86 0.17,3.93 -0.8,4.6 -0.97,0.68 -2.2,-0.28 -2.72,-2.15l3.53 -2.46z"/>
   </g>
   <g>
    <path class="fil1 str0" d="M994.69 412.78c0,0 30.04,94.8 53.97,145.48"/>
    <path class="fil1 str0" d="M997.58 505.46c0.34,-39.5 -2.89,-92.69 -2.89,-92.69m185.48 11.8c0,0 -0.01,48.79 3.3,97.39m34.5 -14.09c-34.82,-1.54 -37.02,-38.89 -37.02,-38.89m-183.94 -4.34c0,0 6.95,33.28 -97.7,66.57"/>
    <path class="fil1 str0" d="M827.14 934.65c0,0 -1.2,-0.48 -3.28,-1.42 -11.02,-4.98 -46.67,-22.73 -57.73,-48.8"/>
    <path class="fil1 str0" d="M902.94 527.29c0,0 -95.74,40.12 -137.98,64.06 -42.24,23.93 -39.42,30.27 -48.57,35.2 -9.15,4.93 -45.05,41.54 -47.87,84.48 -2.11,11.96 -4.93,21.12 -7.74,25.34 -2.81,4.22 0,19.01 0,19.01 0,0 -19.35,53.65 -5.97,152.21 -0.7,11.96 -3.84,22.37 -3.84,22.37 0,14.31 171.26,43.88 175.25,23.23l0.94 -18.54m-3.28 -1.42c0,0 -0.93,-26.74 0,-35.66 -3.76,-4.22 -7.52,-10.32 -6.57,-16.89 -18.3,-20.18 -3.05,-39.42 -12.67,-53.5m19.25 70.39l26.28 3.29m-32.85 -20.18c0,0 10.32,-10.33 15.02,-12.67m-5.16 66.64l20.65 21.12m-21.59 -2.58c0,0 19.24,30.27 33.79,43.88m-38.44 -39.58c1,97.93 -13.57,151.42 -16.94,195.86 -3.8,50.09 8.14,61.01 0,128.12 -35.2,274.55 -105.35,390.3 -106.53,482.91 0,60.31 23.23,49.06 26.75,113.11 2.11,40.12 -12.22,53.24 -3.52,80.95 0,0 16.19,97.16 -7.74,96.44 -23.94,-0.7 -32.38,-46.46 -31.68,-95.73 0.7,-19.72 -19,-39.42 -19.71,-50.69m16.22 33.96c0,0 -7.3,1.93 -11.06,-1.11 -0.47,3.99 -2.58,10.33 -7.27,14.08 2.58,11.96 0.94,35.89 -4.69,43.64 7.74,24.17 10.56,43.89 10.56,43.89l26.28 26.04c0,0 36.26,6.43 36.15,35.73 -0.01,2.14 -2,3.74 -4.1,3.28 -8.75,-1.98 -27.34,-5.99 -36.17,-7.21 -3.02,-0.43 -5.89,-1.5 -8.45,-3.15 -9.79,-6.27 -31.7,-20.35 -43.02,-27.64 -4.56,-2.93 -7.95,-7.33 -9.61,-12.5 -6.32,-19.66 -22.99,-70.75 -33.46,-95.56 -4.01,-9.48 -5.57,-19.81 -4.4,-30.04 5.61,-49.09 19.56,-86.81 27.27,-149.67 0,0 12.2,-135.16 7.51,-191.47 -22.53,-347.29 34.64,-367.94 34.64,-449.6 0,0 0,-129.53 3.61,-203.62m5.16 1003.8l-7.8 -4.7m67.98 160.53l13.03 2.57c0,0 11.27,-17.06 -18.47,-30.85 -6.67,-3.11 -15.42,-6.04 -26.82,-8.57 -9.15,-9.39 -30.83,-25.94 -30.83,-25.94m57.65 34.52l16.12 2c0,0 4.93,-16.46 -14.31,-26.77m-35.68 -19.86l-32.83 -25.19m27.2 -11.75l-22.5 -31.89 -5.63 0"/>
    <path class="fil1 str0" d="M726.08 2031.66c0,0 -4.06,-13.62 -6.41,-18.07 -5.39,-1.17 -18.07,-0.24 -23.46,3.52 -0.47,7.27 0.27,23.46 3.42,30.85"/>
    <path class="fil1 str0" d="M658.57 1141.14c0,0 0.26,37.66 0,45.76m145.51 -3.48l-2.76 -42.28m20.28 -144.07l21.49 30.74 -3.17 6.69 7.86 5.63 -4.69 10.21 10.91 9.86 22.88 80.95 0 11.26 7.74 9.88c0,0 -3.52,15.46 -4.93,24.62 7.04,10.56 13.37,14.78 13.37,14.78l7.04 33.09c0,0 -16.19,15.49 -16.19,22.53 0,7.04 16.19,13.37 16.19,13.37 0,0 -25.72,56.31 -39.26,129.53 -10.02,13.38 -5.8,28.16 -5.8,28.16l0.7 14.78c0,0 -13.38,25.34 -13.38,27.46 0,2.11 2.81,28.86 2.81,28.86l-2.81 18.3c0,0 42.47,51.39 106.3,54.2 63.83,2.81 359.49,11.26 472.12,-82.6 12.2,-11.26 26.46,-30.21 26.46,-30.21l-2.81 -13.73c0,0 -4.75,-47.69 -13.55,-49.63 1.94,-7.21 10.03,-24.99 -9.68,-58.78 -0.88,-13.2 -1.23,-27.98 -3.52,-41.18 -2.29,-5.28 -12.32,-24.46 -12.32,-24.46 0,0 12.67,-17.42 11.97,-24.81 -0.7,-7.39 -29.39,-51.91 -29.39,-51.91 0,0 0,-10.91 6.69,-20.42 -2.11,-7.04 -23.58,-49.28 -22.88,-57.72 0.7,-8.45 15.91,-95.09 15.91,-95.09m-8.17 -385.01c0,0 12.67,36.6 7.04,68.98 -5.63,32.39 5.63,49.28 5.63,49.28 0,0 13.85,19.32 11.04,40.44m-7.51 -20.03c8.11,30.27 31.38,50.92 31.38,121.08 0,65 -35.54,107.13 -39.41,125.26"/>
    <path class="fil1 str0" d="M860 852.52c0,0 35.2,-23.7 163.79,-47.4m150.32 3.31c0,0 -303.3,32.96 -302.67,100.81m222.74 144.14c54.91,-9.15 136.1,-3.5 227.61,-20.4m-178.57 5.15c34.49,-3.52 92.92,-34.26 142.9,-41.42"/>
    <path class="fil1 str0" d="M1210.67 505.58c5.73,-0.04 25.94,21 54.1,60.42 28.16,39.42 17.6,73.21 17.6,73.21 0,0 -11.97,41.54 -114.74,55.61 -102.78,14.08 -169.66,-19.01 -195.7,-31.68 -26.04,-12.67 -56.64,-53.08 -68.98,-84.48 -16.54,-42.06 0,-51.39 0,-51.39"/>
    <path class="fil1 str0" d="M1153.43 668.55c0,0 3.75,24.4 -12.67,24.4 -9.87,0 -19.91,-12.71 -26.36,-22.86m-30.31 -20.44c0,0 -15.97,-9.7 -54.67,-11.12 -38.69,-1.41 -90.2,-0.99 -94.22,-7.26m249.19 -4.3c11.12,-10.05 56.23,-30.77 89.77,-46.09m-391.08 -45.12c0,0 -7.12,9.36 -3.83,22.5 3.28,13.14 13.35,59.13 55.95,98.09 42.6,38.95 106.43,50.68 106.43,50.68 0,0 79.61,21.12 157.83,0 78.23,-21.11 91.84,-45.05 91.84,-45.05 0,0 25.46,-27.22 -6.98,-91.98 0,0 -27.81,-51.51 -52.11,-60.62m-577.41 398.2c0,0 60.41,32.93 172.34,27.07"/>
    <path class="fil1 str0" d="M1202.12 504.1c0,0 85.88,14.74 131.29,24.59 5.28,-2.11 50.28,9.65 83.18,52.19 48.57,73.01 -0.41,205.4 4.74,261.71m-24.44 158c7.1,30.96 1.68,105.21 9.61,123.18 53.74,106.53 45.29,174.11 84.71,270.79 14.67,36.6 44.23,110.17 49.16,127.06 3.42,33.46 23.39,86.46 47.07,162.54 1.58,5.08 1.77,10.5 0.49,15.66 -3.39,13.7 -10.61,37.39 -10.61,37.39m0 -27.98c0,0 -0.54,61.55 -0.2,81.52 0.07,4.26 -1.39,8.41 -4.13,11.69 -11.46,13.64 -40.72,42.66 -40.72,42.66l-42.59 30.27c0,0 8.45,-26.06 28.58,-20.32m-24.17 11.3c0,0 -13.91,-14.56 17.41,-44.83 10.91,-12.67 26.75,-35.19 26.75,-35.19 0,0 -6.33,-21.13 0,-41.54 -7.39,-13.38 -15.14,-28.87 -15.48,-42.59 -3.52,-4.57 -9.15,-6.34 -10.56,-10.56 -2.46,1.06 -4.93,1.41 -4.93,1.41m9.5 -57.02c0,0 -3.17,24.99 -8.09,33.44 -1.76,12.32 -3.17,32.39 2.11,50.69 0.7,10.21 5.63,68.64 -13.37,68.64 -18.66,0 -28.87,-17.25 -30.63,-67.93 1.76,-11.27 -1.41,-33.44 -12.32,-56.67 -1.76,-13.02 -13.73,-40.13 11.26,-111.22 -3.87,-17.6 -5.63,-44 -23.01,-88m-3.74 381.9c12.32,-4.57 20.42,-5.98 29.22,-5.29 -3.87,8.46 -35.2,13.04 -35.2,13.04 0,0 0,0 5.98,-7.75 -4.93,-32.74 44.7,-39.42 44.7,-39.42 0,0 14.43,-11.98 25.69,-21.11 4.93,-24.65 16.54,-45.41 16.54,-45.41 0,0 -1.06,-1.76 -4.93,-15.49 -12.67,-15.48 -8.8,-33.79 -8.8,-33.79l8.63 -12.49m-52.62 162.43l33.57 -9.46m-21.06 -50.61c0,0 -44.43,5.16 -43.96,40.12 -2.81,0.93 -6.8,2.82 -6.8,2.82 0,0 5.18,2.15 17.37,-1.38m-10.57 -1.44c0,0 14.63,-4.36 18.58,-4.53m67.43 -114.91l7.21 -4.4m8.27 46.99l4.05 -1.23m-76.56 -190.6c0,0 4.4,-13.2 5.1,-16.02m-68.26 -435.19c0,0 0.15,30.59 3.32,40.44"/>
    <path class="fil1 str0" d="M703.71 1234.3c0,0 10.06,21.57 37.55,-14.08"/>
    <path class="fil1 str0" d="M699.21 1745.5c0,0 -3.94,36.95 -4.3,51.03"/>
    <path class="fil1 str0" d="M908.8 1230.49c23,-16.14 77.79,-31.37 90.11,-47.07m-82.13 90.06c0,0 45.99,17.83 64.3,14.08m172.46 -57.07c-26.97,50.29 -231.66,97.43 -292.67,169.7m510.91 -283.7l-45.05 102.43m-442.09 -56.65c0,0 7.74,-23.72 50.45,-39.91m-68.05 -60.07c0,0 28.43,11.93 55.98,16.29m94.2 31.61c0,0 -64.65,12.17 -110.76,75.64m420.26 -115.4c-31.68,46.06 -178.1,51.93 -226.68,106.6m151.35 -73.63c-77.3,20.33 -126.66,-5.78 -164.73,1.12m301.3 90.11c-0.47,1.88 -2.61,26.72 2.55,35.64m-115.89 112.89c18.3,-2.81 85.43,-19.07 131.19,-70.98"/>
    <path class="fil1 str0" d="M845.21 1499.46c0,0 57.73,49.28 111.93,49.28 54.2,0 281.58,7.52 414.63,-56.31 33.79,-17.6 71.46,-57.3 70.96,-60.52"/>
    <path class="fil1 str0" d="M889.56 1459.33c1.41,4.93 102.07,92.92 361.84,49.98m179.51 -113.52c0,0 -23.93,53.27 -233.01,94.66m-294.96 -95.46c0,0 24.17,-22.95 120.85,16.47 96.68,39.42 331.8,-10.41 331.8,-10.41m-632.97 -779.44c36.01,-6 96.22,113.27 85.42,216.23m525.38 -309.15c0,0 25.87,19.38 46.11,107.71m-718.74 118.97c17.78,19 45.54,19.11 72.16,55.96"/>
    <path class="fil1 str0" d="M1065.08 1572.93c0,0 145.32,29.02 271.88,-39.47m-297.22 40.04c0,0 177.87,75.91 372.73,-77.6m-563.26 29.13c-14.09,91.99 -53.51,132.35 -45.12,292.08"/>
    <path class="fil1 str0" d="M1243.12 1581.07c0,0 2.17,167.35 -24.11,207.71m-374.44 -238.81c69.62,37.01 77.6,95.91 225.91,90.51m-128.12 12.44c80.95,18.15 122.72,114.01 248.5,113.96m71.1 21.91c78.27,-61.95 154.52,-74.06 191.45,-130.37m-47.14 78.81c2.46,-2.29 49.93,-25.17 59.28,-39.43m-616.34 88.17c0,0 84,-17.59 217.4,5.64m441.22 -12.61c0,0 0.87,-30.33 -15.85,-28.4 -16.72,1.93 -14.96,14.22 -12.49,29.37"/>
    <path class="fil1 str0" d="M889.19 1021.41c0,0 35.57,49.03 123.71,54.31"/>
   </g>
   <rect class="fil2" transform="matrix(0.985704 -1.18034E-001 0.118034 0.985705 946.93 933.475)" width="368.49" height="57.72"/>
   <path class="fil3" d="M1064.63 949.79l2.6 -0.31c0.18,2.39 -0.41,4.41 -1.78,6.01 -1.33,1.6 -3.22,2.55 -5.63,2.84 -2.76,0.33 -5.04,-0.34 -6.85,-2.04 -1.79,-1.73 -2.89,-4.24 -3.29,-7.57 -0.37,-3.09 0.16,-5.63 1.58,-7.63 1.42,-2.03 3.56,-3.2 6.35,-3.54 2.22,-0.27 4.12,0.09 5.68,1.07 1.56,0.98 2.57,2.44 3.03,4.41l-2.63 0.31c-0.4,-1.26 -1.13,-2.2 -2.14,-2.8 -1.02,-0.57 -2.26,-0.78 -3.77,-0.6 -2,0.24 -3.44,1.13 -4.4,2.66 -0.93,1.53 -1.24,3.57 -0.93,6.11 0.29,2.41 1.09,4.25 2.42,5.59 1.32,1.31 2.91,1.84 4.8,1.61 1.61,-0.19 2.87,-0.84 3.79,-1.98 0.89,-1.11 1.28,-2.51 1.17,-4.16z"/>
   <path id="_1" class="fil3" d="M1071.7 939.33l2.01 16.78 -2.46 0.3 -2.36 -19.68 3.83 -0.46 6.67 14.47c0.19,0.43 0.34,0.74 0.42,0.95 0.11,0.24 0.19,0.45 0.24,0.61 0.04,-0.33 0.06,-0.65 0.11,-0.9 0.05,-0.28 0.07,-0.51 0.13,-0.76l3.26 -15.66 3.83 -0.46 2.35 19.68 -2.6 0.31 -2.01 -16.78c-0.02,0.31 -0.07,0.59 -0.11,0.9 -0.05,0.28 -0.1,0.59 -0.15,0.88l-3.26 15.66 -2.52 0.3 -6.76 -14.46c-0.11,-0.24 -0.23,-0.5 -0.34,-0.76 -0.09,-0.3 -0.21,-0.59 -0.3,-0.91z"/>
   <polygon id="_2" class="fil3" points="1117.25,950.9 1114.89,931.22 1117.57,930.9 1119.93,950.57 "/>
   <path id="_3" class="fil3" d="M1124.2 950.06l-2.36 -19.68 2.93 -0.35 10.91 13.19c0.26,0.3 0.45,0.56 0.65,0.81 0.17,0.28 0.34,0.52 0.45,0.75l-1.91 -15.96 2.54 -0.31 2.35 19.68 -2.9 0.35 -11.13 -13.38c-0.17,-0.2 -0.33,-0.41 -0.5,-0.63 -0.14,-0.24 -0.28,-0.47 -0.42,-0.73l1.91 15.96 -2.54 0.3z"/>
   <path id="_4" class="fil3" d="M1156.85 938.74l2.6 -0.31c0.18,2.39 -0.42,4.41 -1.78,6.01 -1.33,1.6 -3.22,2.55 -5.63,2.84 -2.76,0.33 -5.04,-0.34 -6.85,-2.04 -1.79,-1.73 -2.89,-4.24 -3.3,-7.57 -0.37,-3.09 0.16,-5.63 1.59,-7.63 1.42,-2.03 3.56,-3.2 6.35,-3.54 2.22,-0.27 4.13,0.09 5.69,1.07 1.56,0.98 2.57,2.44 3.03,4.41l-2.63 0.31c-0.4,-1.26 -1.12,-2.2 -2.14,-2.8 -1.02,-0.57 -2.26,-0.78 -3.77,-0.6 -2,0.24 -3.44,1.13 -4.4,2.66 -0.93,1.53 -1.24,3.57 -0.94,6.11 0.29,2.41 1.09,4.25 2.42,5.59 1.32,1.31 2.91,1.84 4.8,1.62 1.61,-0.19 2.87,-0.85 3.79,-1.98 0.9,-1.11 1.28,-2.52 1.17,-4.17z"/>
   <polygon id="_5" class="fil3" points="1163.47,945.36 1161.11,925.69 1163.8,925.36 1164.76,933.44 1174.97,932.22 1174.01,924.14 1176.69,923.82 1179.04,943.5 1176.36,943.82 1175.26,934.6 1165.05,935.82 1166.15,945.04 "/>
   <polygon id="_6" class="fil3" points="1183.26,942.99 1180.91,923.31 1194.95,921.63 1195.24,924.07 1183.85,925.43 1184.56,931.32 1195.07,930.06 1195.34,932.36 1184.83,933.62 1185.62,940.21 1197.23,938.82 1197.52,941.28 "/>
   <path id="_7" class="fil3" d="M1199.07 934.52l2.57 -0.31c0.2,1.42 0.8,2.51 1.83,3.25 1.03,0.74 2.31,1 3.85,0.82 1.53,-0.19 2.7,-0.66 3.5,-1.39 0.8,-0.76 1.14,-1.67 1,-2.79 -0.18,-1.5 -1.96,-2.46 -5.37,-2.83 -0.2,-0.03 -0.34,-0.04 -0.45,-0.06 -2.76,-0.31 -4.62,-0.81 -5.56,-1.5 -0.94,-0.67 -1.51,-1.7 -1.69,-3.16 -0.21,-1.75 0.25,-3.25 1.41,-4.44 1.16,-1.22 2.79,-1.97 4.92,-2.23 2.19,-0.26 3.96,0.11 5.35,1.05 1.37,0.98 2.18,2.43 2.44,4.4l-2.55 0.3c-0.24,-1.3 -0.82,-2.26 -1.7,-2.88 -0.91,-0.58 -2.04,-0.81 -3.44,-0.64 -1.31,0.16 -2.32,0.56 -3.05,1.22 -0.72,0.67 -1.02,1.48 -0.9,2.44 0.19,1.54 1.93,2.46 5.28,2.84 0.48,0.06 0.87,0.09 1.12,0.12l0.31 0.04c2.17,0.24 3.66,0.62 4.42,1.14 0.57,0.37 1.05,0.87 1.39,1.47 0.35,0.6 0.57,1.3 0.67,2.09 0.22,1.89 -0.28,3.5 -1.48,4.78 -1.24,1.29 -3,2.06 -5.33,2.33 -2.38,0.28 -4.31,-0.09 -5.8,-1.14 -1.46,-1.05 -2.37,-2.69 -2.76,-4.94z"/>
   <polygon id="_8" class="fil3" points="1099.63,955.59 1103.51,932.06 1105.2,931.85 1101.28,955.39 "/>
   <g>
    <path class="fil0" d="M931.3 960.8c1.19,0.01 2.3,1.77 2.46,3.91 0.17,2.15 -0.65,3.88 -1.84,3.87l-0.62 -7.78zm-128.14 -49.39l4.25 -0.49 0 -0.01 0.32 2.33 0.41 2.28 0.52 2.24 0.62 2.19 0.75 2.15 0.89 2.13 1.05 2.11 1.22 2.1 1.41 2.09 1.63 2.07 1.85 2.05 2.09 2.02 2.35 1.98 2.62 1.93 2.89 1.87 3.19 1.81 3.49 1.75 3.8 1.68 4.13 1.59 4.46 1.51 4.82 1.42 5.17 1.33 5.55 1.23 5.93 1.13 6.33 1.03 6.73 0.91 7.15 0.8 7.59 0.68 8.03 0.56 8.49 0.44 8.96 0.31 9.44 0.18 0.62 7.78 -9.48 -0.18 -9 -0.31 -8.53 -0.44 -8.08 -0.56 -7.64 -0.69 -7.21 -0.81 -6.8 -0.92 -6.39 -1.04 -6 -1.14 -5.63 -1.25 -5.27 -1.35 -4.91 -1.45 -4.57 -1.54 -4.25 -1.65 -3.94 -1.73 -3.65 -1.83 -3.35 -1.92 -3.09 -2 -2.83 -2.09 -2.59 -2.18 -2.35 -2.27 -2.13 -2.36 -1.92 -2.45 -1.72 -2.54 -1.53 -2.63 -1.34 -2.7 -1.16 -2.77 -0.98 -2.83 -0.82 -2.86 -0.67 -2.88 -0.53 -2.89 -0.4 -2.89 0 -0.01zm0 0.01c-0.26,-2.14 0.49,-4 1.66,-4.14 1.17,-0.14 2.33,1.48 2.59,3.63l-4.25 0.51zm-0.14 -4.14l4.34 1.73 -0 0.11 -0 0.12 -0 0.19 -0 0.12 0 0.12 0 0.12 0 0.12 0 0.19 0 0.11 0 0.04 0.01 0.12 0.01 0.12 0.01 0.11 0.01 0.11 0.02 0.11 0.01 0.1 -4.25 0.49 -0.03 -0.28 -0.02 -0.26 -0.02 -0.27 -0.02 -0.26 -0.02 -0.26 -0.02 -0.26 -0.02 -0.33 -0 -0.26 -0 -0.19 -0 -0.26 0 -0.26 0 -0.26 0 -0.26 0 -0.19 0 -0.26 0.01 -0.26zm0 0c0.09,-2.09 1.13,-3.4 2.33,-2.93 1.2,0.48 2.09,2.57 2.01,4.66l-4.34 -1.73zm633.61 -73.65c-0.57,-2.02 -0.18,-4.25 0.88,-4.98 1.06,-0.73 2.38,0.31 2.95,2.33l-3.83 2.65zm4.66 1.38l-4.25 0.51 0 0.02 -0.01 -0.09 -0.02 -0.1 -0.02 -0.12 -0.02 -0.12 -0.02 -0.1 -0.01 -0.04 -0.04 -0.19 -0.02 -0.11 -0.03 -0.12 -0.02 -0.11 -0.03 -0.1 -0.04 -0.18 -0.03 -0.12 -0.03 -0.11 -0.03 -0.12 -0.05 -0.16 3.83 -2.65 0.06 0.2 0.07 0.25 0.06 0.25 0.06 0.25 0.04 0.18 0.07 0.27 0.06 0.26 0.06 0.25 0.05 0.26 0.04 0.19 0.06 0.33 0.04 0.27 0.04 0.26 0.04 0.25 0.04 0.27 0.04 0.29 0 0.02zm-0 -0.02c0.26,2.14 -0.48,4 -1.65,4.15 -1.17,0.15 -2.33,-1.46 -2.59,-3.61l4.24 -0.54zm-113.37 88.54l-1.23 -7.71 9.13 -2.41 8.64 -2.44 8.16 -2.46 7.7 -2.49 7.24 -2.52 6.81 -2.54 6.38 -2.56 5.96 -2.58 5.56 -2.59 5.17 -2.61 4.79 -2.62 4.42 -2.63 4.06 -2.64 3.72 -2.64 3.38 -2.64 3.06 -2.65 2.75 -2.64 2.46 -2.63 2.17 -2.62 1.9 -2.6 1.64 -2.57 1.4 -2.55 1.17 -2.5 0.95 -2.47 0.76 -2.43 0.57 -2.38 0.4 -2.35 0.26 -2.33 0.12 -2.31 -0 -2.31 -0.12 -2.3 -0.23 -2.32 4.25 -0.51 0.29 2.94 0.16 2.98 0 3.01 -0.16 3.03 -0.33 3.04 -0.52 3.03 -0.72 3.01 -0.92 2.98 -1.14 2.95 -1.35 2.92 -1.59 2.89 -1.83 2.86 -2.07 2.83 -2.34 2.81 -2.61 2.79 -2.89 2.77 -3.2 2.76 -3.5 2.74 -3.82 2.72 -4.16 2.7 -4.51 2.68 -4.87 2.67 -5.24 2.65 -5.63 2.62 -6.03 2.6 -6.44 2.58 -6.85 2.56 -7.3 2.53 -7.75 2.5 -8.21 2.48 -8.68 2.44 -9.17 2.42zm0 0c-1.15,0.29 -2.36,-1.2 -2.7,-3.32 -0.34,-2.13 0.32,-4.09 1.47,-4.39l1.23 7.71z"/>
   </g>
   <path class="fil0" d="M927.38 982.85l-2.78 -33.31 25.96 14.24 -23.19 19.07zm-1.39 -16.65m11.59 -9.54m1.38 16.66"/>
   <path class="fil0" d="M1340.68 932.18l-5.17 -33.02 -21.87 19.97 27.03 13.06zm-2.58 -16.51m-13.52 -6.53m2.59 16.51"/>
   <rect class="fil2" transform="matrix(0.909897 -1.08956E-001 0.108956 0.909898 984.819 1337.87)" width="368.49" height="57.72"/>
   <path class="fil3" d="M1093.48 1352.92l2.4 -0.29c0.16,2.21 -0.39,4.07 -1.65,5.55 -1.23,1.48 -2.97,2.35 -5.19,2.62 -2.55,0.3 -4.65,-0.31 -6.32,-1.88 -1.65,-1.6 -2.67,-3.91 -3.04,-6.99 -0.34,-2.85 0.15,-5.19 1.46,-7.04 1.31,-1.87 3.28,-2.96 5.86,-3.26 2.05,-0.24 3.8,0.08 5.24,0.98 1.44,0.91 2.37,2.26 2.8,4.07l-2.43 0.29c-0.37,-1.16 -1.04,-2.03 -1.98,-2.58 -0.93,-0.53 -2.08,-0.72 -3.47,-0.56 -1.84,0.22 -3.18,1.05 -4.06,2.46 -0.85,1.41 -1.14,3.29 -0.86,5.64 0.27,2.22 1.01,3.93 2.24,5.17 1.22,1.21 2.69,1.7 4.43,1.49 1.49,-0.18 2.65,-0.78 3.5,-1.83 0.83,-1.02 1.19,-2.32 1.08,-3.85z"/>
   <path id="_1_0" class="fil3" d="M1100 1343.28l1.85 15.48 -2.27 0.27 -2.18 -18.16 3.54 -0.42 6.16 13.35c0.18,0.39 0.31,0.68 0.39,0.87 0.1,0.22 0.18,0.41 0.22,0.56 0.04,-0.31 0.06,-0.59 0.11,-0.83 0.04,-0.26 0.07,-0.47 0.12,-0.7l3.01 -14.45 3.54 -0.42 2.18 18.16 -2.4 0.29 -1.85 -15.48c-0.02,0.28 -0.06,0.54 -0.11,0.83 -0.04,0.26 -0.09,0.54 -0.13,0.81l-3.01 14.45 -2.33 0.28 -6.23 -13.35c-0.11,-0.22 -0.21,-0.46 -0.32,-0.7 -0.08,-0.28 -0.19,-0.54 -0.28,-0.84z"/>
   <polygon id="_2_1" class="fil3" points="1142.04,1353.95 1139.87,1335.79 1142.35,1335.49 1144.52,1353.65 "/>
   <path id="_3_2" class="fil3" d="M1148.46 1353.18l-2.18 -18.16 2.71 -0.33 10.06 12.17c0.24,0.28 0.42,0.52 0.6,0.75 0.16,0.26 0.31,0.48 0.42,0.69l-1.76 -14.72 2.35 -0.28 2.18 18.16 -2.68 0.32 -10.27 -12.35c-0.15,-0.19 -0.3,-0.37 -0.45,-0.59 -0.13,-0.22 -0.26,-0.43 -0.39,-0.67l1.76 14.72 -2.35 0.28z"/>
   <path id="_4_3" class="fil3" d="M1178.6 1342.73l2.4 -0.29c0.16,2.21 -0.39,4.07 -1.64,5.55 -1.23,1.48 -2.97,2.35 -5.19,2.62 -2.56,0.3 -4.65,-0.31 -6.33,-1.88 -1.65,-1.6 -2.67,-3.91 -3.04,-6.99 -0.34,-2.85 0.15,-5.19 1.46,-7.04 1.31,-1.87 3.28,-2.96 5.86,-3.26 2.04,-0.24 3.8,0.08 5.24,0.98 1.44,0.91 2.37,2.26 2.8,4.07l-2.43 0.29c-0.37,-1.16 -1.04,-2.03 -1.98,-2.58 -0.94,-0.53 -2.09,-0.72 -3.47,-0.56 -1.85,0.22 -3.18,1.05 -4.06,2.46 -0.85,1.41 -1.15,3.29 -0.86,5.64 0.26,2.22 1.01,3.93 2.24,5.17 1.22,1.21 2.69,1.7 4.43,1.49 1.49,-0.18 2.65,-0.78 3.5,-1.83 0.82,-1.02 1.19,-2.32 1.08,-3.84z"/>
   <polygon id="_5_4" class="fil3" points="1184.71,1348.84 1182.54,1330.68 1185.01,1330.38 1185.9,1337.83 1195.32,1336.7 1194.43,1329.25 1196.91,1328.96 1199.08,1347.12 1196.6,1347.41 1195.59,1338.9 1186.17,1340.03 1187.19,1348.54 "/>
   <polygon id="_6_5" class="fil3" points="1202.98,1346.65 1200.8,1328.49 1213.76,1326.94 1214.03,1329.19 1203.52,1330.44 1204.17,1335.87 1213.87,1334.71 1214.13,1336.83 1204.42,1338 1205.15,1344.08 1215.86,1342.8 1216.13,1345.07 "/>
   <path id="_7_6" class="fil3" d="M1217.57 1338.83l2.38 -0.29c0.18,1.31 0.74,2.32 1.69,3 0.95,0.68 2.13,0.93 3.55,0.76 1.41,-0.17 2.49,-0.61 3.23,-1.29 0.74,-0.7 1.04,-1.53 0.92,-2.57 -0.17,-1.39 -1.81,-2.27 -4.95,-2.61 -0.19,-0.03 -0.31,-0.04 -0.42,-0.05 -2.55,-0.28 -4.27,-0.74 -5.14,-1.38 -0.87,-0.61 -1.39,-1.57 -1.55,-2.92 -0.19,-1.61 0.23,-3 1.3,-4.1 1.07,-1.13 2.58,-1.82 4.55,-2.06 2.02,-0.24 3.65,0.1 4.94,0.97 1.26,0.9 2.01,2.25 2.25,4.06l-2.35 0.28c-0.22,-1.2 -0.76,-2.09 -1.57,-2.65 -0.83,-0.54 -1.89,-0.75 -3.17,-0.6 -1.21,0.15 -2.15,0.52 -2.81,1.13 -0.67,0.62 -0.94,1.37 -0.83,2.26 0.17,1.41 1.78,2.27 4.87,2.61 0.44,0.05 0.8,0.09 1.04,0.11l0.29 0.04c2,0.22 3.37,0.57 4.07,1.05 0.53,0.35 0.97,0.8 1.29,1.36 0.32,0.55 0.53,1.19 0.61,1.93 0.21,1.74 -0.25,3.23 -1.37,4.42 -1.14,1.19 -2.77,1.89 -4.92,2.15 -2.2,0.26 -3.98,-0.09 -5.36,-1.05 -1.34,-0.96 -2.19,-2.48 -2.54,-4.56z"/>
   <polygon id="_8_7" class="fil3" points="1125.79,1358.28 1129.36,1336.56 1130.93,1336.37 1127.3,1358.09 "/>
   <g>
    <path class="fil0" d="M970.39 1363.09c1.09,0.01 2.12,1.63 2.28,3.61 0.16,1.98 -0.61,3.58 -1.7,3.57l-0.57 -7.18zm-118.28 -45.59l3.92 -0.46 0 -0 0.3 2.15 0.38 2.1 0.48 2.06 0.57 2.02 0.69 1.98 0.82 1.97 0.96 1.95 1.13 1.94 1.31 1.93 1.5 1.91 1.71 1.89 1.94 1.86 2.17 1.83 2.42 1.78 2.67 1.73 2.94 1.68 3.22 1.61 3.51 1.54 3.81 1.47 4.12 1.39 4.44 1.31 4.78 1.23 5.12 1.13 5.48 1.05 5.84 0.94 6.22 0.85 6.6 0.74 7 0.63 7.41 0.52 7.83 0.4 8.27 0.29 8.71 0.17 0.57 7.18 -8.74 -0.17 -8.31 -0.29 -7.87 -0.41 -7.45 -0.52 -7.05 -0.64 -6.66 -0.74 -6.27 -0.85 -5.91 -0.96 -5.54 -1.06 -5.2 -1.15 -4.86 -1.25 -4.53 -1.34 -4.22 -1.43 -3.93 -1.52 -3.64 -1.6 -3.36 -1.69 -3.1 -1.76 -2.85 -1.85 -2.61 -1.93 -2.39 -2.01 -2.17 -2.09 -1.97 -2.18 -1.78 -2.26 -1.58 -2.34 -1.41 -2.43 -1.24 -2.5 -1.07 -2.56 -0.91 -2.61 -0.76 -2.65 -0.62 -2.66 -0.48 -2.67 -0.37 -2.67 0 -0zm0 0c-0.24,-1.98 0.45,-3.69 1.53,-3.82 1.08,-0.13 2.15,1.37 2.39,3.35l-3.92 0.47zm-0.13 -3.8l4.01 1.54 -0.01 0.15 0 0.11 -0 0.1 0 0.1 0 0.17 0 0.11 0 0.1 0 0.17 0 0.11 0 0.1 0 0.1 0 0.03 0.01 0.1 0.02 0.17 0.01 0.1 0.01 0.06 -3.92 0.46 -0.03 -0.28 -0.02 -0.25 -0.02 -0.18 -0.02 -0.25 -0.02 -0.31 -0.01 -0.25 -0.01 -0.25 -0 -0.25 -0 -0.17 -0.01 -0.24 0 -0.25 0 -0.17 0 -0.24 0 -0.24 0.01 -0.24 0.01 -0.2zm0 0c0.07,-1.94 1.03,-3.16 2.14,-2.74 1.11,0.43 1.94,2.34 1.87,4.28l-4.01 -1.54zm584.89 -68.01c-0.53,-1.86 -0.17,-3.93 0.8,-4.6 0.97,-0.68 2.2,0.28 2.72,2.15l-3.53 2.46zm4.3 1.27l-3.92 0.47 0 -0 -0.01 -0.06 -0.02 -0.17 -0.01 -0.1 0 0 -0.04 -0.22 -0.04 -0.2 -0.06 -0.23 -0.07 -0.27 -0.06 -0.24 -0.07 -0.24 3.53 -2.46 0.12 0.43 0.11 0.44 0.1 0.41 0.1 0.45 0.1 0.49 0.09 0.46 0.06 0.35 0.04 0.24 0.02 0.17 0.04 0.28 0 -0zm0 0c0.23,1.98 -0.45,3.69 -1.54,3.81 -1.08,0.13 -2.15,-1.37 -2.39,-3.35l3.92 -0.46zm-104.65 81.7l-1.13 -7.11 8.42 -2.22 7.98 -2.25 7.54 -2.27 7.11 -2.3 6.69 -2.32 6.28 -2.34 5.89 -2.36 5.5 -2.38 5.13 -2.39 4.77 -2.41 4.42 -2.41 4.07 -2.43 3.75 -2.43 3.43 -2.44 3.12 -2.44 2.83 -2.44 2.54 -2.44 2.27 -2.43 2 -2.42 1.76 -2.4 1.51 -2.37 1.29 -2.35 1.07 -2.32 0.87 -2.28 0.7 -2.25 0.53 -2.2 0.37 -2.17 0.24 -2.15 0.11 -2.13 -0 -2.13 -0.11 -2.13 -0.21 -2.13 3.92 -0.47 0.26 2.72 0.15 2.75 0 2.78 -0.14 2.8 -0.31 2.81 -0.48 2.8 -0.66 2.78 -0.85 2.75 -1.05 2.72 -1.26 2.7 -1.46 2.67 -1.69 2.64 -1.91 2.62 -2.16 2.6 -2.41 2.57 -2.67 2.56 -2.94 2.54 -3.23 2.53 -3.53 2.51 -3.84 2.49 -4.16 2.48 -4.5 2.46 -4.84 2.44 -5.2 2.42 -5.56 2.4 -5.94 2.38 -6.33 2.36 -6.74 2.34 -7.15 2.31 -7.57 2.29 -8.02 2.26 -8.46 2.23zm0 0c-1.06,0.27 -2.18,-1.1 -2.49,-3.06 -0.31,-1.96 0.3,-3.78 1.36,-4.05l1.13 7.11z"/>
   </g>
   <path class="fil0" d="M966.77 1383.45l-2.56 -30.75 23.96 13.15 -21.4 17.6zm-1.28 -15.37m10.7 -8.8m1.28 15.37"/>
   <path class="fil0" d="M1348.28 1336.67l-4.77 -30.48 -20.18 18.43 24.95 12.05zm-2.38 -15.24m-12.48 -6.03m2.39 15.24"/>
  </g>
 </g>
</svg>
