<?xml version="1.0" encoding="UTF-8"?>
<!DOCTYPE svg PUBLIC "-//W3C//DTD SVG 1.1//EN" "http://www.w3.org/Graphics/SVG/1.1/DTD/svg11.dtd">
<!-- Creator: CorelDRAW -->
<svg xmlns="http://www.w3.org/2000/svg" xml:space="preserve" version="1.1" style="shape-rendering:geometricPrecision; text-rendering:geometricPrecision; image-rendering:optimizeQuality; fill-rule:evenodd; clip-rule:evenodd"
viewBox="160 300 1800 1800"
 xmlns:xlink="http://www.w3.org/1999/xlink"
 xmlns:xodm="http://www.corel.com/coreldraw/odm/2003">
 <defs>
  <style type="text/css">
   <![CDATA[
    .str2 {stroke:aqua;stroke-width:6.67;stroke-miterlimit:2.61313}
    .str0 {stroke:gray;stroke-width:6.67;stroke-linecap:round;stroke-linejoin:round;stroke-miterlimit:22.926}
    .str1 {stroke:gray;stroke-width:6.67;stroke-linecap:round;stroke-linejoin:round;stroke-miterlimit:22.926;stroke-dasharray:99.992126 99.992126}
    .fil4 {fill:none}
    .fil1 {fill:none;fill-rule:nonzero}
    .fil2 {fill:aqua}
    .fil5 {fill:aqua}
    .fil0 {fill:aqua;fill-rule:nonzero}
    .fil6 {fill:#333333;fill-rule:nonzero}
    .fil3 {fill:#333333;fill-rule:nonzero}
   ]]>
  </style>
 </defs>
 <g id="Layer_x0020_1">
  <metadata id="CorelCorpID_0Corel-Layer"/>
  <g id="_105553225297568">
   <g>
    <path class="fil0" d="M726.16 924.48c-0.45,2.17 -2.09,3.41 -3.65,2.78 -1.56,-0.63 -2.46,-2.91 -2,-5.07l5.65 2.29zm436.04 -82.56l0 8.18 0 0 -22.05 0.1 -21.77 0.3 -21.46 0.48 -21.13 0.67 -20.77 0.86 -20.38 1.04 -19.97 1.21 -19.53 1.37 -19.07 1.54 -18.58 1.69 -18.07 1.85 -17.53 2 -16.96 2.15 -16.37 2.28 -15.75 2.42 -15.11 2.55 -14.43 2.67 -13.74 2.79 -13.02 2.91 -12.27 3.02 -11.49 3.12 -10.69 3.22 -9.85 3.31 -9 3.4 -8.1 3.47 -7.19 3.54 -6.22 3.58 -5.23 3.61 -4.19 3.59 -3.11 3.49 -2.02 3.26 -1 2.88 -5.65 -2.29 1.76 -5.13 2.85 -4.63 3.81 -4.28 4.73 -4.06 5.65 -3.9 6.55 -3.77 7.44 -3.67 8.31 -3.56 9.17 -3.46 10 -3.36 10.81 -3.26 11.6 -3.15 12.37 -3.04 13.1 -2.93 13.82 -2.81 14.5 -2.68 15.17 -2.56 15.81 -2.43 16.43 -2.29 17.02 -2.15 17.57 -2 18.11 -1.85 18.63 -1.7 19.11 -1.54 19.58 -1.38 20.01 -1.21 20.42 -1.04 20.81 -0.86 21.17 -0.67 21.5 -0.49 21.81 -0.3 22.09 -0.1 0 0zm0 0c1.63,0 2.94,1.83 2.94,4.09 0,2.26 -1.32,4.09 -2.94,4.09l0 -8.18zm441.69 80.26l-5.65 2.29 -1 -2.88 -2.02 -3.26 -3.11 -3.49 -4.19 -3.59 -5.23 -3.61 -6.22 -3.58 -7.19 -3.54 -8.1 -3.47 -9 -3.4 -9.85 -3.31 -10.69 -3.22 -11.49 -3.12 -12.26 -3.02 -13.02 -2.91 -13.74 -2.79 -14.44 -2.67 -15.11 -2.55 -15.75 -2.42 -16.37 -2.28 -16.96 -2.15 -17.53 -2 -18.07 -1.85 -18.58 -1.69 -19.07 -1.54 -19.53 -1.37 -19.97 -1.21 -20.38 -1.04 -20.77 -0.86 -21.13 -0.67 -21.46 -0.48 -21.77 -0.3 -22.05 -0.1 0 -8.18 22.09 0.1 21.81 0.3 21.5 0.49 21.17 0.67 20.81 0.86 20.42 1.04 20.01 1.21 19.58 1.38 19.11 1.54 18.63 1.7 18.11 1.85 17.57 2 17.02 2.15 16.43 2.29 15.81 2.43 15.17 2.56 14.51 2.68 13.82 2.81 13.1 2.93 12.37 3.04 11.6 3.15 10.81 3.26 10 3.36 9.17 3.46 8.31 3.56 7.44 3.67 6.55 3.77 5.65 3.9 4.73 4.06 3.81 4.28 2.85 4.63 1.76 5.13zm0 0c0.45,2.17 -0.44,4.44 -2,5.07 -1.56,0.63 -3.2,-0.61 -3.65,-2.78l5.65 -2.29z"/>
   </g>
   <path class="fil1 str0" d="M1505.19 926.34c-290.98,16.19 -299.93,23.56 -597.87,-29.83 -37.95,-4.73 -90.55,-19.89 -90.55,-19.89 0,0 -7.1,-2.21 -8.21,5.05 0,0 -2,8.19 -0.89,16.24 -2,0.79 -12.21,15.96 -8.88,32.54 276.53,86.49 591.93,69.52 639.81,66.45 59.25,-3.79 77.23,-1.89 77.23,-10.89 0,-4.26 -5.99,-5.69 -5.99,-5.69 0,0 7.32,-18.46 0,-30.78 2.67,-6.63 11.59,-20.76 -4.66,-23.2z"/>
   <path class="fil1 str0" d="M1242.39 1645.8c10.42,87.04 58.3,133.66 79.26,230.25"/>
   <path class="fil1 str0" d="M1639.9 1703.61c4.44,120.05 -14.6,141.8 -14.6,179.99"/>
   <path class="fil1 str0" d="M1232.17 527.57c0,0 -6.43,50.26 -2.93,122.28"/>
   <path class="fil1 str0" d="M929.67 754.22c9.31,7.5 19.8,15.54 31.63,24.23"/>
   <path class="fil1 str0" d="M1442.61 830.7c0,0 11.36,-8.94 23.79,-24.69"/>
   <path class="fil1 str0" d="M1064.39 628.54c0,0 31.97,14.98 62.2,20.1 35.66,6.04 68.45,-0.59 108.95,1.46 39.92,2.03 52.66,12.3 87.44,12.7 34.78,0.4 58.45,-18.17 58.45,-18.17"/>
   <path class="fil1 str0" d="M1044.26 503.09c0,0 36.79,17.24 71.59,23.14 41.04,6.96 78.78,-0.68 125.39,1.69 45.94,2.33 60.74,17.87 100.64,14.61 39.85,-3.25 72.71,-19.49 72.71,-19.49"/>
   <path class="fil1 str0" d="M1488.51 768.7c-3.04,40.83 21.18,61.7 16.68,157.64"/>
   <path class="fil1 str0" d="M860.8 678.91c6.54,85.77 -29.03,104.09 -44.02,197.71"/>
   <path class="fil1 str0" d="M1499.69 477.09c0,0 9.13,18.75 -2.97,54.73"/>
   <path class="fil1 str0" d="M1481.29 492.19c0,0 22.09,-16.68 36.8,-32.86"/>
   <path class="fil1 str0" d="M879.71 454.15c0.77,19.65 5.81,40.45 16.99,58.79"/>
   <path class="fil1 str0" d="M913.11 462.68c0,0 -41.33,-6.8 -56.71,-20.74"/>
   <path class="fil1 str0" d="M1243.84 757.38c5.68,24.33 -15.69,39.18 -19.61,55.95"/>
   <path class="fil1 str0" d="M1229.74 706.57c-0.32,56.41 -43.14,49.44 -2.12,112.59"/>
   <path class="fil1 str0" d="M1078.8 909.79c0,0 -19,-52.55 -60.48,-86.21"/>
   <path class="fil1 str0" d="M1466.4 806.01c12.54,-15.89 26.18,-38.69 30.32,-66.21 8.25,-54.78 -15.77,-138.64 -2.06,-179.59l37.45 -110.93"/>
   <path class="fil1 str0" d="M1346.93 920.9c0,0 10.74,-18.87 59.04,-59.37"/>
   <path class="fil1 str0" d="M837.64 432.22c0,0 24.77,64.61 26.16,74.55 7.83,58.91 -13.88,124.66 -10.53,145.56 3.9,24.37 11.39,49.57 76.4,101.9"/>
   <path class="fil1 str1" d="M807.68 897.91c84.38,20.9 318.87,90.18 702.17,46.94m-710.37 -30.42c148.27,52.9 410.17,83.09 713.58,50.42"/>
   <path class="fil1 str0" d="M795.69 933.74c-19.24,8.44 -35.41,27.24 -40.83,47.49 -17.98,66.91 18.98,230.36 0,254m-5.09 -181.09c0,0 -11.62,52.24 -29.2,90.89 -3.08,6.79 -4.95,14.04 -5.43,21.48 -1.28,19.91 -2.03,55.42 1.1,88.13m-2.17 -43.49c0,0 -13.37,19.52 -12.48,52.37 0.89,32.85 -1.31,20.54 -6.82,96.53m2.09 -22.39c-3.7,61.24 -28.06,142.14 -22.73,191.41 0.7,-2.69 -0.71,53.32 -7.84,91.33 0,0 -9.91,10.89 40.63,28.64 13.26,16.87 63.92,55.68 187.31,45.91 123.39,-9.77 249.44,-63.03 249.44,-63.03l0 -48.82 -4.66 -0.67c0,0 11.76,-27.74 11.76,-45.05 0,-17.31 -17.31,-117.18 3.99,-118.51 0,0 17.54,-5.55 27.52,7.77 9.99,13.31 103.2,117.18 108.52,168.44"/>
   <path class="fil1 str0" d="M1162.98 1417.73c0,0 34.62,79.48 12.65,149.39 -4.81,16.2 -15.97,32.98 -19.06,45.98 -1.61,6.76 -0.15,10.29 4.64,14.39 13.98,11.98 19.57,9.1 22.25,17.76 18.67,5.32 61.09,14.9 61.09,14.9m-87.98 -47.05c0,0 31.94,-3.37 140.24,64.55 126.43,79.27 324.9,40.39 347.54,23.53 0,-14.65 -1.33,-39.4 -1.33,-39.4 0,0 0,-3.33 -3.11,-3.33 1.22,-2.11 1.76,-4.67 1.55,-6.43 -5.1,-102.2 -12.96,-94.83 -14.43,-116.85 -2.09,-31.33 1.33,-105.19 -9.98,-153.8 5.99,-15.31 3.33,-36.62 -5.99,-61.25 1.33,-6.66 21.3,-46.61 2.66,-100.54 -18.64,-53.93 -59.92,-153.13 -59.92,-153.13m59.92 153.13c0,0 2.67,-16.65 -5.99,-54.59 -31.61,-80.11 -37.51,-110.63 -93.15,-172.11m-365.82 430.3c-33.71,64.62 -97.4,57.39 -183.5,167.46"/>
   <path class="fil1 str1" d="M1175.63 1420.75c19.97,-15.42 -6.66,-266.36 12.46,-397.97m-28.04 395.11c19.97,-15.42 -9.08,-264.9 10.04,-396.51"/>
   <path class="fil1 str0" d="M901.33 1454.38c127.62,-21.02 140.06,-65.27 264.8,-58.87m17.32 -60.09c118.95,121.62 259.37,118.96 340.74,235.24m86.86 -250.55c0,0 -11.98,-35.29 -154.02,-107.19m-658.23 -282.48c0,0 -10.65,23.49 18.64,62.1 29.3,38.62 218.38,162.45 298.27,250.33m-284.29 28.63c0,0 63.69,53.71 210.39,63.91 95.66,6.66 102.13,5.22 125.59,12.99"/>
   <path class="fil1 str0" d="M1098 1649.04c-4.04,105.83 -32,92.96 -36.44,220.79m-340.58 -207.6c-3.37,99.64 2.81,117.94 18.79,188.06"/>
   <path class="fil0" d="M946.15 1014.19l1.26 -34.94 25.19 18.02 -26.45 16.92zm0.63 -17.47m13.23 -8.46m-0.63 17.48"/>
   <path class="fil0" d="M1382.37 1012.85l-1.26 -34.95 -25.2 18.02 26.46 16.93zm-0.63 -17.47m-13.23 -8.46m0.63 17.48"/>
   <rect class="fil2" x="972.6" y="967.29" width="382.74" height="59.96"/>
   <path class="fil3" d="M1092.81 998.87l2.74 0c-0.11,2.51 -0.98,4.53 -2.59,6.03 -1.59,1.5 -3.67,2.25 -6.2,2.25 -2.91,0 -5.19,-0.98 -6.87,-2.97 -1.64,-2.02 -2.48,-4.76 -2.48,-8.28 0,-3.26 0.87,-5.83 2.6,-7.73 1.73,-1.93 4.09,-2.89 7.04,-2.89 2.33,0 4.27,0.61 5.77,1.82 1.5,1.21 2.37,2.85 2.6,4.96l-2.77 0c-0.26,-1.35 -0.89,-2.43 -1.87,-3.17 -0.98,-0.72 -2.25,-1.1 -3.84,-1.1 -2.11,0 -3.72,0.75 -4.9,2.22 -1.16,1.47 -1.73,3.55 -1.73,6.23 0,2.54 0.61,4.56 1.82,6.11 1.21,1.53 2.8,2.28 4.79,2.28 1.7,0 3.09,-0.52 4.19,-1.59 1.07,-1.04 1.64,-2.45 1.73,-4.19z"/>
   <path id="_1" class="fil3" d="M1101.46 988.89l0 17.69 -2.6 0 0 -20.74 4.04 0 5.14 15.87c0.14,0.46 0.26,0.81 0.31,1.04 0.09,0.26 0.15,0.49 0.17,0.67 0.09,-0.35 0.15,-0.67 0.23,-0.93 0.09,-0.29 0.14,-0.52 0.23,-0.78l5.34 -15.87 4.04 0 0 20.74 -2.74 0 0 -17.69c-0.06,0.32 -0.15,0.61 -0.23,0.92 -0.09,0.29 -0.17,0.61 -0.26,0.9l-5.33 15.87 -2.66 0 -5.22 -15.87c-0.09,-0.26 -0.17,-0.55 -0.26,-0.84 -0.06,-0.32 -0.15,-0.63 -0.2,-0.98z"/>
   <polygon id="_2" class="fil3" points="1147.36,1006.57 1147.36,985.83 1150.19,985.83 1150.19,1006.57 "/>
   <path id="_3" class="fil3" d="M1154.68 1006.57l0 -20.74 3.09 0 9.69 15.06c0.23,0.35 0.41,0.64 0.58,0.93 0.14,0.31 0.29,0.57 0.37,0.83l0 -16.82 2.69 0 0 20.74 -3.06 0 -9.9 -15.29c-0.14,-0.23 -0.29,-0.46 -0.43,-0.72 -0.11,-0.26 -0.23,-0.52 -0.35,-0.81l0 16.82 -2.68 0z"/>
   <path id="_4" class="fil3" d="M1190.03 998.87l2.74 0c-0.11,2.51 -0.98,4.53 -2.59,6.03 -1.59,1.5 -3.67,2.25 -6.2,2.25 -2.91,0 -5.19,-0.98 -6.87,-2.97 -1.64,-2.02 -2.48,-4.76 -2.48,-8.28 0,-3.26 0.87,-5.83 2.6,-7.73 1.73,-1.93 4.09,-2.89 7.04,-2.89 2.33,0 4.27,0.61 5.77,1.82 1.5,1.21 2.37,2.85 2.6,4.96l-2.77 0c-0.26,-1.35 -0.89,-2.43 -1.87,-3.17 -0.98,-0.72 -2.25,-1.1 -3.84,-1.1 -2.11,0 -3.72,0.75 -4.9,2.22 -1.16,1.47 -1.73,3.55 -1.73,6.23 0,2.54 0.61,4.56 1.82,6.11 1.21,1.53 2.8,2.28 4.79,2.28 1.7,0 3.09,-0.52 4.19,-1.59 1.07,-1.04 1.64,-2.45 1.73,-4.19z"/>
   <polygon id="_5" class="fil3" points="1196.08,1006.57 1196.08,985.83 1198.91,985.83 1198.91,994.34 1209.67,994.34 1209.67,985.83 1212.5,985.83 1212.5,1006.57 1209.67,1006.57 1209.67,996.85 1198.91,996.85 1198.91,1006.57 "/>
   <polygon id="_6" class="fil3" points="1216.94,1006.57 1216.94,985.83 1231.75,985.83 1231.75,988.39 1219.74,988.39 1219.74,994.6 1230.82,994.6 1230.82,997.02 1219.74,997.02 1219.74,1003.97 1231.98,1003.97 1231.98,1006.57 "/>
   <path id="_7" class="fil3" d="M1234.43 999.73l2.71 0c0.03,1.5 0.52,2.71 1.5,3.61 0.98,0.89 2.28,1.33 3.9,1.33 1.61,0 2.88,-0.35 3.81,-1.01 0.92,-0.69 1.39,-1.59 1.39,-2.77 0,-1.59 -1.73,-2.8 -5.22,-3.61 -0.2,-0.06 -0.35,-0.09 -0.46,-0.11 -2.83,-0.66 -4.7,-1.41 -5.6,-2.25 -0.89,-0.81 -1.35,-1.96 -1.35,-3.49 0,-1.85 0.67,-3.35 2.02,-4.44 1.35,-1.13 3.15,-1.7 5.39,-1.7 2.31,0 4.1,0.61 5.43,1.76 1.3,1.18 1.96,2.8 1.99,4.87l-2.69 0c-0.09,-1.38 -0.57,-2.45 -1.41,-3.2 -0.87,-0.72 -2.02,-1.09 -3.49,-1.09 -1.38,0 -2.48,0.29 -3.31,0.89 -0.84,0.61 -1.24,1.41 -1.24,2.42 0,1.62 1.7,2.8 5.14,3.61 0.49,0.12 0.89,0.2 1.15,0.26l0.32 0.09c2.22,0.52 3.72,1.1 4.44,1.73 0.55,0.46 0.98,1.04 1.27,1.7 0.29,0.67 0.43,1.41 0.43,2.25 0,1.99 -0.72,3.61 -2.13,4.79 -1.44,1.19 -3.37,1.76 -5.83,1.76 -2.51,0 -4.47,-0.63 -5.89,-1.9 -1.39,-1.27 -2.13,-3.09 -2.25,-5.48z"/>
   <polygon id="_8" class="fil3" points="1128.46,1009.26 1135.42,985.28 1137.2,985.28 1130.19,1009.26 "/>
   <g>
    <path class="fil0" d="M952.19 993.06c1.62,0.16 2.84,2.12 2.72,4.37 -0.11,2.25 -1.53,3.94 -3.15,3.79l0.43 -8.16zm-232.17 -66.58l5.89 0 0 0 0.16 1.74 0.53 1.88 0.98 2.09 1.48 2.27 2 2.38 2.53 2.45 3.04 2.49 3.54 2.5 4.02 2.5 4.5 2.48 4.97 2.47 5.42 2.44 5.87 2.41 6.31 2.37 6.74 2.33 7.17 2.3 7.59 2.26 8 2.21 8.41 2.17 8.8 2.11 9.19 2.06 9.57 2 9.95 1.96 10.33 1.89 10.69 1.83 11.05 1.77 11.4 1.71 11.74 1.64 12.08 1.57 12.42 1.5 12.74 1.43 13.06 1.36 -0.43 8.16 -13.09 -1.36 -12.78 -1.44 -12.45 -1.51 -12.12 -1.57 -11.79 -1.65 -11.44 -1.72 -11.09 -1.78 -10.74 -1.84 -10.37 -1.9 -10.01 -1.96 -9.63 -2.02 -9.26 -2.08 -8.87 -2.13 -8.48 -2.18 -8.08 -2.23 -7.68 -2.28 -7.26 -2.33 -6.85 -2.37 -6.43 -2.42 -6.01 -2.46 -5.58 -2.51 -5.15 -2.56 -4.7 -2.6 -4.27 -2.65 -3.83 -2.71 -3.38 -2.78 -2.94 -2.86 -2.5 -2.98 -2.05 -3.13 -1.56 -3.35 -1 -3.59 -0.35 -3.78 0 0zm0 0c0,-2.26 1.32,-4.09 2.94,-4.09 1.63,0 2.94,1.83 2.94,4.09l-5.89 0zm0.48 -4.3l5.65 2.31 -0.03 0.15 -0.03 0.14 -0.02 0.13 -0.03 0.15 -0.02 0.14 -0.02 0.15 -0.02 0.14 -0.01 0.09 -0.01 0.09 -0.02 0.2 -0.01 0.09 -0 0.08 -0.01 0.14 -0 0.15 -0 0.09 0 0.08 -5.89 0 0 -0.31 0.01 -0.31 0.01 -0.26 0.02 -0.26 0.02 -0.31 0.03 -0.31 0.02 -0.2 0.03 -0.31 0.04 -0.3 0.04 -0.25 0.04 -0.25 0.04 -0.25 0.04 -0.25 0.05 -0.26 0.05 -0.24 0.05 -0.24zm0 0c0.46,-2.17 2.1,-3.41 3.66,-2.77 1.56,0.63 2.45,2.91 2,5.08l-5.65 -2.31zm877.73 2.31c-0.46,-2.17 0.44,-4.44 2,-5.08 1.56,-0.63 3.2,0.61 3.66,2.77l-5.65 2.31zm6.13 2l-5.89 0 0 0 0 -0.08 -0 -0.09 -0.01 -0.2 0 -0.08 -0.01 -0.08 -0.01 -0.14 -0.01 -0.09 -0.02 -0.14 -0.02 -0.14 -0.01 -0.09 -0.02 -0.15 -0.02 -0.14 -0.03 -0.15 -0.02 -0.13 -0.03 -0.14 -0.03 -0.15 5.65 -2.31 0.05 0.24 0.05 0.24 0.05 0.26 0.04 0.25 0.04 0.25 0.04 0.25 0.04 0.3 0.03 0.25 0.03 0.25 0.03 0.31 0.02 0.25 0.02 0.31 0.02 0.31 0.01 0.2 0.01 0.31 0 0.31 0 0zm0 0c0,2.26 -1.32,4.09 -2.94,4.09 -1.63,0 -2.94,-1.83 -2.94,-4.09l5.89 0zm-231.6 74.72l-0.43 -8.16 13.06 -1.36 12.73 -1.43 12.41 -1.5 12.07 -1.57 11.73 -1.64 11.39 -1.71 11.04 -1.77 10.68 -1.83 10.32 -1.89 9.94 -1.95 9.57 -2.01 9.19 -2.06 8.79 -2.11 8.4 -2.17 7.99 -2.21 7.59 -2.26 7.16 -2.3 6.74 -2.33 6.31 -2.37 5.87 -2.41 5.42 -2.44 4.96 -2.46 4.5 -2.48 4.02 -2.5 3.53 -2.5 3.04 -2.49 2.52 -2.45 2 -2.38 1.48 -2.27 0.98 -2.09 0.53 -1.88 0.16 -1.73 5.89 0 -0.35 3.78 -1 3.59 -1.56 3.35 -2.04 3.13 -2.5 2.98 -2.94 2.86 -3.38 2.77 -3.83 2.71 -4.26 2.65 -4.7 2.6 -5.14 2.55 -5.57 2.51 -6 2.46 -6.43 2.42 -6.84 2.37 -7.26 2.33 -7.67 2.28 -8.07 2.23 -8.47 2.18 -8.86 2.13 -9.25 2.07 -9.63 2.02 -10 1.96 -10.37 1.9 -10.73 1.84 -11.09 1.78 -11.43 1.72 -11.78 1.65 -12.11 1.57 -12.44 1.51 -12.77 1.44 -13.09 1.36zm0 0c-1.62,0.16 -3.04,-1.53 -3.15,-3.78 -0.11,-2.25 1.1,-4.21 2.72,-4.37l0.43 8.16z"/>
   </g>
   <line class="fil4 str2" x1="448.36" y1="1409.19" x2="1152.79" y2= "1409.19" />
   <line class="fil4 str2" x1="448.36" y1="1626.64" x2="1152.79" y2= "1626.64" />
   <line class="fil4 str2" x1="500.56" y1="1592.11" x2="500.56" y2= "1443.71" />
   <polygon class="fil5" points="476.99,1588.78 524.13,1588.78 500.56,1623.31 "/>
   <polygon class="fil5" points="476.99,1447.04 524.13,1447.04 500.56,1412.52 "/>
   <g>
    <rect class="fil5" transform="matrix(1.4674E-014 -3.61847E-001 0.866129 1.50071E-014 475.561 1584.58)" width="368.49" height="57.72"/>
    <path class="fil6" d="M504.3 1569.31l0 -1.98c1.81,0.08 3.27,0.71 4.35,1.87 1.08,1.15 1.63,2.65 1.63,4.48 0,2.1 -0.71,3.75 -2.15,4.96 -1.46,1.19 -3.44,1.8 -5.98,1.8 -2.35,0 -4.21,-0.63 -5.58,-1.88 -1.4,-1.25 -2.08,-2.96 -2.08,-5.08 0,-1.69 0.44,-3.08 1.31,-4.17 0.87,-1.09 2.06,-1.71 3.58,-1.88l0 2c-0.98,0.19 -1.75,0.65 -2.29,1.35 -0.52,0.71 -0.79,1.63 -0.79,2.77 0,1.52 0.54,2.69 1.6,3.54 1.06,0.83 2.56,1.25 4.5,1.25 1.83,0 3.3,-0.44 4.42,-1.31 1.11,-0.87 1.65,-2.02 1.65,-3.46 0,-1.23 -0.37,-2.23 -1.15,-3.02 -0.75,-0.77 -1.77,-1.19 -3.02,-1.25z"/>
    <path id="_1_0" class="fil6" d="M497.09 1563.06l12.77 0 0 1.88 -14.98 0 0 -2.92 11.46 -3.71c0.33,-0.11 0.58,-0.19 0.75,-0.23 0.19,-0.06 0.35,-0.1 0.48,-0.12 -0.25,-0.06 -0.48,-0.11 -0.67,-0.17 -0.21,-0.06 -0.38,-0.1 -0.56,-0.17l-11.46 -3.85 0 -2.92 14.98 0 0 1.98 -12.77 0c0.23,0.04 0.44,0.1 0.67,0.17 0.21,0.06 0.44,0.13 0.65,0.19l11.46 3.85 0 1.92 -11.46 3.77c-0.19,0.06 -0.39,0.12 -0.6,0.19 -0.23,0.04 -0.46,0.11 -0.71,0.15z"/>
    <polygon id="_2_1" class="fil6" points="509.86,1529.92 494.88,1529.92 494.88,1527.87 509.86,1527.87 "/>
    <path id="_3_2" class="fil6" d="M509.86 1524.63l-14.98 0 0 -2.23 10.87 -7c0.25,-0.17 0.46,-0.29 0.67,-0.41 0.23,-0.11 0.42,-0.21 0.6,-0.27l-12.15 0 0 -1.94 14.98 0 0 2.21 -11.04 7.15c-0.17,0.1 -0.33,0.21 -0.52,0.31 -0.19,0.08 -0.37,0.17 -0.58,0.25l12.15 0 0 1.94z"/>
    <path id="_4_3" class="fil6" d="M504.3 1499.11l0 -1.98c1.81,0.08 3.27,0.71 4.35,1.87 1.08,1.15 1.63,2.65 1.63,4.48 0,2.1 -0.71,3.75 -2.15,4.96 -1.46,1.19 -3.44,1.8 -5.98,1.8 -2.35,0 -4.21,-0.63 -5.58,-1.88 -1.4,-1.25 -2.08,-2.96 -2.08,-5.08 0,-1.69 0.44,-3.08 1.31,-4.17 0.87,-1.09 2.06,-1.71 3.58,-1.88l0 2c-0.98,0.19 -1.75,0.65 -2.29,1.35 -0.52,0.71 -0.79,1.63 -0.79,2.77 0,1.52 0.54,2.69 1.6,3.54 1.06,0.83 2.56,1.25 4.5,1.25 1.83,0 3.3,-0.44 4.42,-1.31 1.11,-0.87 1.65,-2.02 1.65,-3.46 0,-1.23 -0.37,-2.23 -1.15,-3.02 -0.75,-0.77 -1.77,-1.19 -3.02,-1.25z"/>
    <polygon id="_5_4" class="fil6" points="509.86,1494.74 494.88,1494.74 494.88,1492.69 501.03,1492.69 501.03,1484.92 494.88,1484.92 494.88,1482.88 509.86,1482.88 509.86,1484.92 502.84,1484.92 502.84,1492.69 509.86,1492.69 "/>
    <polygon id="_6_5" class="fil6" points="509.86,1479.67 494.88,1479.67 494.88,1468.98 496.74,1468.98 496.74,1477.65 501.22,1477.65 501.22,1469.65 502.96,1469.65 502.96,1477.65 507.99,1477.65 507.99,1468.81 509.86,1468.81 "/>
    <path id="_7_6" class="fil6" d="M504.93 1467.04l0 -1.96c1.08,-0.02 1.96,-0.38 2.6,-1.08 0.65,-0.71 0.96,-1.65 0.96,-2.81 0,-1.17 -0.25,-2.08 -0.73,-2.75 -0.5,-0.67 -1.15,-1 -2,-1 -1.15,0 -2.02,1.25 -2.6,3.77 -0.04,0.15 -0.06,0.25 -0.08,0.33 -0.48,2.04 -1.02,3.4 -1.63,4.04 -0.58,0.65 -1.42,0.98 -2.52,0.98 -1.33,0 -2.42,-0.48 -3.21,-1.46 -0.81,-0.98 -1.23,-2.27 -1.23,-3.9 0,-1.67 0.44,-2.96 1.27,-3.92 0.85,-0.94 2.02,-1.41 3.52,-1.44l0 1.94c-1,0.06 -1.77,0.41 -2.31,1.02 -0.52,0.63 -0.79,1.46 -0.79,2.52 0,1 0.21,1.79 0.65,2.4 0.44,0.6 1.02,0.89 1.75,0.89 1.17,0 2.02,-1.23 2.6,-3.71 0.08,-0.35 0.15,-0.65 0.19,-0.83l0.06 -0.23c0.37,-1.6 0.79,-2.69 1.25,-3.21 0.33,-0.39 0.75,-0.7 1.23,-0.91 0.48,-0.21 1.02,-0.31 1.63,-0.31 1.44,0 2.61,0.52 3.46,1.54 0.85,1.04 1.27,2.44 1.27,4.21 0,1.81 -0.46,3.23 -1.38,4.25 -0.92,1 -2.23,1.54 -3.96,1.63z"/>
    <polygon id="_8_7" class="fil6" points="511.8,1543.56 494.49,1538.54 494.49,1537.25 511.8,1542.31 "/>
   </g>
  </g>
 </g>
</svg>
