<?xml version="1.0" encoding="UTF-8"?>
<!DOCTYPE svg PUBLIC "-//W3C//DTD SVG 1.1//EN" "http://www.w3.org/Graphics/SVG/1.1/DTD/svg11.dtd">
<!-- Creator: CorelDRAW -->
<svg xmlns="http://www.w3.org/2000/svg" xml:space="preserve" version="1.1" style="shape-rendering:geometricPrecision; text-rendering:geometricPrecision; image-rendering:optimizeQuality; fill-rule:evenodd; clip-rule:evenodd"
viewBox="300 200 1820 1820"
 xmlns:xlink="http://www.w3.org/1999/xlink"
 xmlns:xodm="http://www.corel.com/coreldraw/odm/2003">
 <defs>
  <style type="text/css">
   <![CDATA[
    .str0 {stroke:gray;stroke-width:6.67;stroke-linecap:round;stroke-linejoin:round;stroke-miterlimit:22.926}
    .str1 {stroke:gray;stroke-width:6.67;stroke-linecap:round;stroke-linejoin:round;stroke-miterlimit:22.926;stroke-dasharray:99.992126 99.992126}
    .fil1 {fill:none;fill-rule:nonzero}
    .fil2 {fill:#D42F91}
    .fil3 {fill:#333333;fill-rule:nonzero}
    .fil0 {fill:#D42F91;fill-rule:nonzero}
   ]]>
  </style>
 </defs>
 <g id="Layer_x0020_1">
  <metadata id="CorelCorpID_0Corel-Layer"/>
  <g id="_105553224304832">
   <g>
    <path class="fil0" d="M805.94 709.83c-0.37,2.17 -1.71,3.41 -2.98,2.78 -1.28,-0.63 -2.01,-2.91 -1.64,-5.07l4.62 2.29zm356.4 -82.56l0 8.18 0 0 -18.02 0.1 -17.79 0.3 -17.54 0.48 -17.27 0.67 -16.97 0.86 -16.66 1.04 -16.32 1.21 -15.97 1.37 -15.58 1.54 -15.19 1.69 -14.77 1.85 -14.32 2 -13.87 2.15 -13.38 2.28 -12.87 2.42 -12.35 2.55 -11.8 2.67 -11.23 2.79 -10.64 2.91 -10.03 3.02 -9.39 3.12 -8.73 3.22 -8.06 3.31 -7.35 3.4 -6.62 3.47 -5.87 3.54 -5.09 3.58 -4.28 3.61 -3.43 3.59 -2.54 3.49 -1.65 3.26 -0.82 2.88 -4.62 -2.29 1.44 -5.13 2.33 -4.63 3.11 -4.28 3.87 -4.06 4.61 -3.9 5.35 -3.77 6.08 -3.67 6.8 -3.56 7.49 -3.46 8.18 -3.36 8.83 -3.26 9.48 -3.15 10.11 -3.04 10.71 -2.93 11.3 -2.81 11.85 -2.68 12.41 -2.56 12.92 -2.43 13.43 -2.29 13.91 -2.15 14.37 -2 14.81 -1.85 15.22 -1.7 15.62 -1.54 16 -1.38 16.36 -1.21 16.69 -1.04 17 -0.86 17.3 -0.67 17.57 -0.49 17.82 -0.3 18.06 -0.1 0 0zm0 0c1.33,0 2.41,1.83 2.41,4.09 0,2.26 -1.08,4.09 -2.41,4.09l0 -8.18zm361.02 80.26l-4.62 2.29 -0.82 -2.88 -1.65 -3.26 -2.54 -3.49 -3.43 -3.59 -4.27 -3.61 -5.09 -3.58 -5.87 -3.54 -6.62 -3.47 -7.35 -3.4 -8.05 -3.31 -8.74 -3.22 -9.39 -3.12 -10.03 -3.02 -10.64 -2.91 -11.22 -2.79 -11.8 -2.67 -12.35 -2.55 -12.87 -2.42 -13.38 -2.28 -13.87 -2.15 -14.32 -2 -14.77 -1.85 -15.19 -1.69 -15.59 -1.54 -15.96 -1.37 -16.32 -1.21 -16.66 -1.04 -16.97 -0.86 -17.27 -0.67 -17.54 -0.48 -17.79 -0.3 -18.02 -0.1 0 -8.18 18.06 0.1 17.82 0.3 17.57 0.49 17.3 0.67 17 0.86 16.69 1.04 16.36 1.21 16 1.38 15.63 1.54 15.22 1.7 14.81 1.85 14.37 2 13.91 2.15 13.43 2.29 12.92 2.43 12.4 2.56 11.86 2.68 11.3 2.81 10.71 2.93 10.11 3.04 9.48 3.15 8.84 3.26 8.18 3.36 7.5 3.46 6.8 3.56 6.08 3.67 5.35 3.77 4.61 3.9 3.87 4.06 3.11 4.28 2.33 4.63 1.44 5.13zm0 0c0.37,2.17 -0.36,4.44 -1.64,5.07 -1.28,0.63 -2.61,-0.61 -2.98,-2.78l4.62 -2.29z"/>
   </g>
   <path class="fil1 str0" d="M1234.65 218.65c0,0 11.92,105.7 27.81,150.21m137.23 24.9c-60.93,-3.71 -144.09,-48.49 -144.09,-48.49m172.7 1454.17c16.96,3.18 11.13,32.32 11.13,32.32l-16.95 80.54c0,0 -27.02,22.77 -40.27,34.96 -13.25,12.19 -5.83,23.32 -5.83,23.32 0,0 -6.52,6.15 -8.48,13.68 -0.78,3.02 1.19,5.94 4.27,6.43 14.6,2.32 31.93,-14.75 38.11,-14.28 -5.83,1.06 -34.44,20.67 -27.55,24.37 6.89,3.71 47.16,-18.01 47.16,-18.01 0,0 47.81,-30.84 71.43,-45.16 7.57,-4.6 13.24,-11.74 15.96,-20.15 6.34,-19.56 17.98,-54.7 23.74,-74.12 1.76,-5.93 2.24,-12.14 1.47,-18.28 -5.57,-44.55 -1.87,-157.02 -1.87,-157.02 14.83,-22.26 8.48,-60.41 16.43,-101.2 99.61,-400.56 48.75,-543.88 48.75,-543.88 -7.95,-65.97 29.14,-197.9 3.18,-356.85 18.28,-105.7 7.42,-171.14 -39.21,-231.54 -46.63,-60.4 -170.08,-40.8 -170.08,-40.8 -49.07,5.98 -159.29,11.61 -200.36,13.57 -9,0.43 -16.86,6.09 -20.21,14.46 -4.31,10.75 -11.88,23.9 -23.16,23.9m276.58 1324.61l-14.31 62.52c0,0 -1.59,62.52 -30.73,74.18 -3.18,6.37 -8.48,20.67 -16.95,18.55 -8.48,-2.13 -5.45,-28.16 -1.22,-42.98 2.28,-5.63 3.87,-12.13 13.93,-9.47 10.07,2.65 6.35,25.43 4.24,33.91m-19.61 -18.73l0 -61.4 11 -77.89 8.5 -29.24c3.3,-11.34 9.18,-21.78 17.18,-30.48l28.94 -31.46c5.76,-6.28 8.96,-14.48 8.96,-22.98 0,-11.46 4.09,-22.55 11.52,-31.27m-12.45 -726.83c2.12,86.89 10.59,145.46 18.69,177.26m12.04 35.5l-12.04 -35.5c-32.46,126.1 15.22,240.55 -6.24,549.58l0 8.61m74.31 227.44l-39.51 105.74m-112.43 25.26c6.63,-4.96 55.51,-17.35 31.76,6.17l51.09 -35.98c5.9,-4.28 10.24,-10.38 12.39,-17.36l28.48 -92.57m-89.81 145.57c0,0 30.7,-5.85 15.09,8.73m-576.76 -1039.3c169.06,37.88 258.08,-52.96 334.91,-54.02 76.83,-1.06 121.33,63.58 176.44,61.46 55.11,-2.12 63.58,-24.37 72.06,-38.15 0,-12.72 -3.18,-25.43 28.22,-65.7 31.4,-40.27 65.03,-127.17 32.18,-206.64 -32.85,-79.48 -156.83,-6.36 -156.83,-6.36l-150.74 98.55 -21.73 0.07c0,0 -114.46,-80 -194.19,-102.56m465.48 259.95c0,0 -219.63,29.58 -219.63,-130.96 23.05,-17.48 230.36,-194.33 284.46,-98.75m-657.96 215.59c240.81,72.33 293.22,-113.74 293.22,-113.74 0,0 -40.31,-54.9 -170.85,-103.14"/>
   <path class="fil1 str1" d="M1184.84 734.99c0,0 -9.8,230.34 247.17,180.15m-268.9 -180.08c0,0 -19.57,243.98 -320.47,175.1"/>
   <path class="fil1 str0" d="M1025.09 277.2c0,0 11.13,61.46 5.83,99.61m1.15 -36.59c0,0 -66.85,67.85 -180.24,66.26m-136.17 858.35c0,0 -90.61,-84.99 -52.99,-192.02 17.52,-49.85 80.29,-131.44 78.82,-309.56 -0.11,-13.06 3.04,-25.95 9.31,-37.41 8.24,-15.05 16.98,-32.52 19.96,-57.84 14.83,-25.43 69.94,-120.8 86.89,-121.86l43.71 -23.05c0,0 11.28,-6.73 20.33,-6.76 5.81,-0.02 10.15,2.12 13.35,5.02 9.02,8.15 6.87,23.05 -3.95,28.6 -0.11,0.06 -0.22,0.11 -0.33,0.17 4.77,0 26.23,-3.97 26.23,18.28 11.63,0 20.67,15.9 15.89,28.61 -4.77,12.72 -15.89,29.93 -15.89,29.93 0,0 21.46,5.05 12.72,22.53 -5.17,10.34 -12.85,25.14 -18.42,36.16 -6.24,12.34 -14.36,23.63 -24.08,33.48 -15.57,15.78 -33.07,39.01 -58.48,51.96 0,0 -6.56,25.13 -21.67,52.99 -21.8,117.05 24.09,151.54 27.84,264.41 0.59,17.8 -0.65,52.69 -6.17,69.61 -15.81,48.44 -44.09,131.97 -71.49,131.97 -36.03,0 -81.59,-25.21 -81.59,-25.21 -25.25,-22.09 -74.91,-64.38 -95.51,-183.06 -3.66,-21.08 1.1,-104.41 1.85,-125.79 2.76,-78.15 58.98,-151.86 54.44,-299.41 0,0 -15.9,-140.94 24.37,-198.16 40.27,-57.22 112.33,-51.93 112.33,-51.93l65.44 0c51.12,1.83 201.61,0 227.04,3.18 4.77,23.84 25.43,27.02 25.43,27.02m-277.64 375.44c-33.38,55.63 -20.13,126.37 -29.93,291.89m665.22 4.5c0,0 4.77,9.01 26.49,-24.9m93.78 -417.52l-5.83 25.43m2.65 331.42c0,0 -8.48,-28.35 -9.54,-36.83m-55.63 681.91l0 -20.13m-390.15 -921.38c0,0 6.54,-48.77 -10.41,-98.04m53.81 100.59c0,0 -4.48,-18.46 0,-43.37m247.67 -179.35c-14.57,49.28 9.34,51.93 35.28,113.88m-679.57 669.8c0,0 8,-9.41 13.78,-54.49m2.23 -637.39c6.22,-18.04 11.74,-37.06 11.58,-63.23m596.83 395.87c-6.74,118 -25.52,134.89 -32.04,198.19 -2.81,27.34 -0.18,54.97 7.52,81.35 12.8,43.8 34.37,123.08 38.52,197.89m-140.01 -216.99c-29.59,143.84 3.76,191.74 -40.07,279.55m-285.62 -253.13c-9.15,130.04 -31.86,157.28 -16.64,223.11m439.43 -334.53c0,0 -14.27,52.6 -11.89,94.72m-258.87 142.56c4.67,-29.63 -32.57,-38.94 -0.18,-72.99 0,0 13.75,8 12.73,28.15 -0.85,16.85 -14.28,21.04 -14.43,27.59m218.58 -216.69c0,0 -43.03,-166.92 -175.59,-170.83 -138.45,-4.09 -169.8,154.94 -221.2,157.84m221.2 -12.99c0,44.51 -11.83,74.94 -24.74,107.42 -7.93,19.94 -15.01,45.25 -16.54,79.51m-249.93 -126.53l-13.31 85.81m-49.11 54.43c0,0 -22.18,39.06 -28.43,77.94m149.73 -812.09l-31.86 14.78m58.09 3.5l-26.23 24.02m26.23 34.52l-13.11 20.45"/>
   <path class="fil0" d="M945.75 797.02l1.26 -34.94 25.19 18.02 -26.45 16.92zm0.63 -17.47m13.23 -8.46m-0.63 17.48"/>
   <path class="fil0" d="M1380.17 796.85l-1.26 -34.95 -25.2 18.02 26.46 16.93zm-0.63 -17.47m-13.23 -8.46m0.63 17.48"/>
   <rect class="fil2" x="970.97" y="752.64" width="382.74" height="59.96"/>
   <path class="fil3" d="M1056.67 784.22l2.74 0c-0.11,2.51 -0.98,4.53 -2.59,6.03 -1.59,1.5 -3.67,2.25 -6.2,2.25 -2.91,0 -5.19,-0.98 -6.87,-2.97 -1.64,-2.02 -2.48,-4.76 -2.48,-8.28 0,-3.26 0.87,-5.83 2.6,-7.73 1.73,-1.93 4.09,-2.89 7.04,-2.89 2.33,0 4.27,0.61 5.77,1.82 1.5,1.21 2.37,2.85 2.6,4.96l-2.77 0c-0.26,-1.35 -0.89,-2.43 -1.87,-3.17 -0.98,-0.72 -2.25,-1.1 -3.84,-1.1 -2.11,0 -3.72,0.75 -4.9,2.22 -1.16,1.47 -1.73,3.55 -1.73,6.23 0,2.54 0.61,4.56 1.82,6.11 1.21,1.53 2.8,2.28 4.79,2.28 1.7,0 3.09,-0.52 4.19,-1.59 1.07,-1.04 1.64,-2.45 1.73,-4.19z"/>
   <path id="_1" class="fil3" d="M1065.33 774.24l0 17.69 -2.6 0 0 -20.74 4.04 0 5.14 15.87c0.14,0.46 0.26,0.81 0.31,1.04 0.09,0.26 0.15,0.49 0.17,0.67 0.09,-0.35 0.15,-0.67 0.23,-0.93 0.09,-0.29 0.14,-0.52 0.23,-0.78l5.34 -15.87 4.04 0 0 20.74 -2.74 0 0 -17.69c-0.06,0.32 -0.15,0.61 -0.23,0.92 -0.09,0.29 -0.17,0.61 -0.26,0.9l-5.33 15.87 -2.66 0 -5.22 -15.87c-0.09,-0.26 -0.17,-0.55 -0.26,-0.84 -0.06,-0.32 -0.15,-0.63 -0.2,-0.98z"/>
   <polygon id="_2" class="fil3" points="1111.22,791.92 1111.22,771.18 1114.05,771.18 1114.05,791.92 "/>
   <path id="_3" class="fil3" d="M1118.55 791.92l0 -20.74 3.09 0 9.69 15.06c0.23,0.35 0.41,0.64 0.58,0.93 0.14,0.31 0.29,0.57 0.37,0.83l0 -16.82 2.69 0 0 20.74 -3.06 0 -9.9 -15.29c-0.14,-0.23 -0.29,-0.46 -0.43,-0.72 -0.11,-0.26 -0.23,-0.52 -0.35,-0.81l0 16.82 -2.68 0z"/>
   <path id="_4" class="fil3" d="M1153.89 784.22l2.74 0c-0.11,2.51 -0.98,4.53 -2.59,6.03 -1.59,1.5 -3.67,2.25 -6.2,2.25 -2.91,0 -5.19,-0.98 -6.87,-2.97 -1.64,-2.02 -2.48,-4.76 -2.48,-8.28 0,-3.26 0.87,-5.83 2.6,-7.73 1.73,-1.93 4.09,-2.89 7.04,-2.89 2.33,0 4.27,0.61 5.77,1.82 1.5,1.21 2.37,2.85 2.6,4.96l-2.77 0c-0.26,-1.35 -0.89,-2.43 -1.87,-3.17 -0.98,-0.72 -2.25,-1.1 -3.84,-1.1 -2.11,0 -3.72,0.75 -4.9,2.22 -1.16,1.47 -1.73,3.55 -1.73,6.23 0,2.54 0.61,4.56 1.82,6.11 1.21,1.53 2.8,2.28 4.79,2.28 1.7,0 3.09,-0.52 4.19,-1.59 1.07,-1.04 1.64,-2.45 1.73,-4.19z"/>
   <polygon id="_5" class="fil3" points="1159.95,791.92 1159.95,771.18 1162.78,771.18 1162.78,779.69 1173.54,779.69 1173.54,771.18 1176.37,771.18 1176.37,791.92 1173.54,791.92 1173.54,782.2 1162.78,782.2 1162.78,791.92 "/>
   <polygon id="_6" class="fil3" points="1180.81,791.92 1180.81,771.18 1195.61,771.18 1195.61,773.74 1183.61,773.74 1183.61,779.95 1194.69,779.95 1194.69,782.37 1183.61,782.37 1183.61,789.32 1195.84,789.32 1195.84,791.92 "/>
   <path id="_7" class="fil3" d="M1198.3 785.08l2.71 0c0.03,1.5 0.52,2.71 1.5,3.61 0.98,0.89 2.28,1.33 3.9,1.33 1.61,0 2.88,-0.35 3.81,-1.01 0.92,-0.69 1.39,-1.59 1.39,-2.77 0,-1.59 -1.73,-2.8 -5.22,-3.61 -0.2,-0.06 -0.35,-0.09 -0.46,-0.11 -2.83,-0.66 -4.7,-1.41 -5.6,-2.25 -0.89,-0.81 -1.35,-1.96 -1.35,-3.49 0,-1.85 0.67,-3.35 2.02,-4.44 1.35,-1.13 3.15,-1.7 5.39,-1.7 2.31,0 4.1,0.61 5.43,1.76 1.3,1.18 1.96,2.8 1.99,4.87l-2.69 0c-0.09,-1.38 -0.57,-2.45 -1.41,-3.2 -0.87,-0.72 -2.02,-1.09 -3.49,-1.09 -1.38,0 -2.48,0.29 -3.31,0.89 -0.84,0.61 -1.24,1.41 -1.24,2.42 0,1.62 1.7,2.8 5.14,3.61 0.49,0.12 0.89,0.2 1.15,0.26l0.32 0.09c2.22,0.52 3.72,1.1 4.44,1.73 0.55,0.46 0.98,1.04 1.27,1.7 0.29,0.67 0.43,1.41 0.43,2.25 0,1.99 -0.72,3.61 -2.13,4.79 -1.44,1.19 -3.37,1.76 -5.83,1.76 -2.51,0 -4.47,-0.63 -5.89,-1.9 -1.39,-1.27 -2.13,-3.09 -2.25,-5.48z"/>
   <polygon id="_8" class="fil3" points="1092.33,794.61 1099.28,770.63 1101.07,770.63 1094.06,794.61 "/>
   <g>
    <path class="fil0" d="M962.31 775.92c1.32,0.16 2.32,2.12 2.23,4.37 -0.09,2.25 -1.25,3.94 -2.57,3.79l0.35 -8.16zm-161.38 -64.09l4.81 0 0 0 0.1 2.1 0.3 2.09 0.52 2.13 0.76 2.19 1.02 2.24 1.31 2.29 1.61 2.32 1.91 2.34 2.22 2.34 2.54 2.34 2.86 2.33 3.18 2.3 3.51 2.27 3.84 2.24 4.17 2.21 4.51 2.17 4.86 2.13 5.21 2.09 5.56 2.04 5.92 2 6.28 1.95 6.65 1.9 7.02 1.85 7.39 1.8 7.78 1.75 8.16 1.69 8.56 1.64 8.95 1.59 9.35 1.53 9.76 1.47 10.18 1.41 10.59 1.35 -0.35 8.16 -10.62 -1.35 -10.21 -1.41 -9.8 -1.48 -9.39 -1.54 -8.99 -1.59 -8.6 -1.65 -8.21 -1.7 -7.83 -1.76 -7.45 -1.81 -7.08 -1.87 -6.71 -1.92 -6.35 -1.97 -6 -2.02 -5.64 -2.07 -5.3 -2.13 -4.96 -2.17 -4.63 -2.22 -4.3 -2.28 -3.98 -2.32 -3.67 -2.37 -3.36 -2.43 -3.06 -2.49 -2.77 -2.55 -2.48 -2.62 -2.2 -2.7 -1.92 -2.79 -1.65 -2.89 -1.37 -3.01 -1.09 -3.13 -0.79 -3.24 -0.48 -3.34 -0.16 -3.39 0 0zm0 0c0,-2.26 1.08,-4.09 2.41,-4.09 1.33,0 2.41,1.83 2.41,4.09l-4.81 0zm0.4 -4.31l4.61 2.31 -0.02 0.12 -0.03 0.19 -0.02 0.13 -0.02 0.13 -0.02 0.13 -0.02 0.13 -0.02 0.13 -0.01 0.13 -0.02 0.13 -0.01 0.13 -0.01 0.13 -0 0.06 -0 0.13 -0.01 0.13 0 0.06 0 0.13 -4.81 0 0 -0.27 0.01 -0.33 0.01 -0.27 0.01 -0.27 0.02 -0.33 0.02 -0.26 0.02 -0.26 0.02 -0.26 0.03 -0.26 0.03 -0.26 0.03 -0.26 0.04 -0.26 0.04 -0.26 0.04 -0.27 0.03 -0.19 0.04 -0.27zm0 0c0.37,-2.17 1.72,-3.4 2.99,-2.76 1.27,0.64 2,2.91 1.63,5.08l-4.61 -2.31zm717.41 2.29c-0.37,-2.17 0.37,-4.44 1.65,-5.06 1.28,-0.63 2.61,0.63 2.98,2.8l-4.62 2.27zm5.01 2.02l-4.81 0 0 0 0 -0.13 0 -0.06 -0.01 -0.13 -0 -0.13 -0 -0.06 -0.01 -0.13 -0.01 -0.13 -0.02 -0.13 -0.02 -0.2 -0 -0.06 -0.02 -0.13 -0.02 -0.2 -0.01 -0.07 -0.02 -0.13 -0.03 -0.19 -0.02 -0.15 4.62 -2.27 0.04 0.25 0.03 0.19 0.04 0.27 0.05 0.33 0.02 0.2 0.04 0.26 0.04 0.33 0.02 0.2 0.02 0.26 0.02 0.26 0.02 0.26 0.02 0.33 0.01 0.27 0.01 0.27 0.01 0.33 0 0.27 0 0zm0 0c0,2.26 -1.08,4.09 -2.41,4.09 -1.33,0 -2.41,-1.83 -2.41,-4.09l4.81 0zm-160.48 70.8l-0.35 -8.16 10.59 -1.35 10.17 -1.4 9.75 -1.45 9.34 -1.5 8.94 -1.55 8.54 -1.61 8.15 -1.65 7.76 -1.7 7.37 -1.75 7 -1.8 6.63 -1.84 6.26 -1.89 5.89 -1.93 5.54 -1.98 5.18 -2.02 4.84 -2.06 4.49 -2.1 4.15 -2.14 3.81 -2.17 3.49 -2.21 3.16 -2.24 2.84 -2.26 2.52 -2.28 2.2 -2.29 1.89 -2.3 1.59 -2.27 1.29 -2.24 1.01 -2.2 0.75 -2.15 0.51 -2.11 0.3 -2.08 0.1 -2.09 4.81 0 -0.15 3.39 -0.48 3.33 -0.78 3.23 -1.08 3.1 -1.36 2.98 -1.64 2.86 -1.91 2.74 -2.19 2.65 -2.46 2.57 -2.75 2.49 -3.04 2.43 -3.34 2.37 -3.65 2.31 -3.96 2.26 -4.28 2.2 -4.61 2.16 -4.93 2.1 -5.28 2.06 -5.61 2.01 -5.97 1.96 -6.32 1.91 -6.69 1.86 -7.05 1.81 -7.43 1.76 -7.81 1.72 -8.19 1.66 -8.58 1.61 -8.98 1.56 -9.38 1.5 -9.78 1.46 -10.2 1.41 -10.61 1.35zm0 0c-1.32,0.16 -2.48,-1.53 -2.57,-3.78 -0.09,-2.25 0.91,-4.21 2.23,-4.37l0.35 8.16z"/>
   </g>
  </g>
 </g>
</svg>
