<?xml version="1.0" encoding="UTF-8"?>
<!DOCTYPE svg PUBLIC "-//W3C//DTD SVG 1.1//EN" "http://www.w3.org/Graphics/SVG/1.1/DTD/svg11.dtd">
<!-- Creator: CorelDRAW -->
<svg xmlns="http://www.w3.org/2000/svg" xml:space="preserve" version="1.1" style="shape-rendering:geometricPrecision; text-rendering:geometricPrecision; image-rendering:optimizeQuality; fill-rule:evenodd; clip-rule:evenodd"
viewBox="120 340 1750 1750"
 xmlns:xlink="http://www.w3.org/1999/xlink"
 xmlns:xodm="http://www.corel.com/coreldraw/odm/2003">
 <defs>
  <style type="text/css">
   <![CDATA[
    .str0 {stroke:gray;stroke-width:3.33;stroke-linecap:round;stroke-linejoin:round;stroke-miterlimit:22.926}
    .fil1 {fill:none;fill-rule:nonzero}
    .fil2 {fill:#D42F91}
    .fil3 {fill:#333333;fill-rule:nonzero}
    .fil0 {fill:#D42F91;fill-rule:nonzero}
   ]]>
  </style>
 </defs>
 <g id="Layer_x0020_1">
  <metadata id="CorelCorpID_0Corel-Layer"/>
  <g>
   <path class="fil0" d="M731.57 657.28c-0.06,1.51 -0.81,2.47 -1.67,2.13 -0.86,-0.33 -1.52,-1.84 -1.46,-3.35l3.13 1.22zm220.52 -83.82l0.67 5.61 0 0 -11.48 1.44 -11.32 1.56 -11.15 1.68 -10.96 1.78 -10.76 1.88 -10.54 1.98 -10.31 2.07 -10.07 2.17 -9.81 2.24 -9.55 2.32 -9.27 2.4 -8.97 2.46 -8.67 2.53 -8.35 2.59 -8.01 2.64 -7.67 2.69 -7.31 2.74 -6.93 2.77 -6.54 2.8 -6.15 2.84 -5.73 2.85 -5.31 2.87 -4.87 2.89 -4.41 2.89 -3.94 2.89 -3.45 2.87 -2.95 2.85 -2.43 2.8 -1.89 2.72 -1.34 2.59 -0.78 2.36 -0.29 2.04 -3.13 -1.22 0.49 -3.62 1.11 -3.35 1.63 -3.17 2.13 -3.08 2.63 -3.02 3.1 -3 3.58 -2.98 4.04 -2.96 4.5 -2.94 4.94 -2.93 5.37 -2.91 5.79 -2.89 6.2 -2.85 6.59 -2.83 6.97 -2.79 7.34 -2.74 7.7 -2.7 8.04 -2.65 8.38 -2.59 8.69 -2.54 9 -2.47 9.29 -2.41 9.57 -2.33 9.83 -2.25 10.09 -2.17 10.33 -2.08 10.56 -1.98 10.77 -1.89 10.98 -1.78 11.17 -1.68 11.34 -1.57 11.51 -1.44 0 0zm0 0c0.85,-0.1 1.69,1.07 1.87,2.62 0.18,1.55 -0.35,2.89 -1.2,2.99l-0.67 -5.61zm236.83 27.46l-2.76 1.92 -0.76 -1.91 -1.32 -2.11 -1.91 -2.2 -2.48 -2.2 -3.02 -2.15 -3.54 -2.07 -4.03 -1.98 -4.51 -1.87 -4.97 -1.77 -5.41 -1.65 -5.83 -1.54 -6.25 -1.42 -6.64 -1.31 -7.02 -1.18 -7.39 -1.06 -7.74 -0.93 -8.08 -0.8 -8.41 -0.68 -8.72 -0.54 -9.02 -0.41 -9.3 -0.27 -9.57 -0.14 -9.83 -0 -10.07 0.14 -10.3 0.27 -10.51 0.42 -10.71 0.56 -10.89 0.71 -11.07 0.85 -11.23 1.01 -11.37 1.15 -11.5 1.31 -0.67 -5.61 11.52 -1.31 11.39 -1.16 11.24 -1.01 11.09 -0.85 10.92 -0.71 10.73 -0.56 10.53 -0.42 10.32 -0.28 10.09 -0.14 9.85 0 9.59 0.14 9.33 0.28 9.04 0.41 8.75 0.54 8.44 0.68 8.12 0.81 7.78 0.93 7.43 1.07 7.07 1.19 6.7 1.31 6.3 1.44 5.9 1.56 5.49 1.68 5.06 1.8 4.63 1.92 4.18 2.05 3.72 2.18 3.26 2.32 2.8 2.48 2.33 2.7 1.87 3 1.33 3.41zm0 0c0.41,1.46 0.13,3.07 -0.63,3.6 -0.76,0.53 -1.72,-0.22 -2.13,-1.68l2.76 -1.92z"/>
  </g>
  <g>
   <path class="fil0" d="M731.7 831.26c-0.06,1.64 -0.88,2.67 -1.81,2.31 -0.94,-0.36 -1.64,-2 -1.58,-3.63l3.39 1.32zm238.96 -90.82l0.72 6.08 0 0 -12.44 1.56 -12.27 1.69 -12.08 1.81 -11.87 1.93 -11.65 2.04 -11.42 2.15 -11.17 2.24 -10.91 2.35 -10.63 2.43 -10.34 2.52 -10.04 2.59 -9.72 2.67 -9.39 2.74 -9.04 2.8 -8.69 2.86 -8.3 2.91 -7.92 2.96 -7.51 3 -7.09 3.04 -6.66 3.07 -6.21 3.1 -5.75 3.11 -5.28 3.13 -4.78 3.13 -4.27 3.13 -3.74 3.11 -3.2 3.08 -2.63 3.04 -2.05 2.95 -1.44 2.8 -0.85 2.56 -0.31 2.21 -3.39 -1.32 0.54 -3.93 1.2 -3.63 1.77 -3.44 2.31 -3.33 2.84 -3.28 3.36 -3.25 3.88 -3.22 4.38 -3.2 4.87 -3.19 5.35 -3.17 5.81 -3.15 6.27 -3.12 6.72 -3.09 7.14 -3.06 7.55 -3.02 7.96 -2.98 8.34 -2.93 8.72 -2.87 9.07 -2.81 9.42 -2.75 9.75 -2.68 10.07 -2.6 10.37 -2.52 10.66 -2.44 10.94 -2.35 11.19 -2.25 11.44 -2.15 11.68 -2.05 11.89 -1.93 12.1 -1.82 12.29 -1.69 12.47 -1.57 0 0zm0 0c0.92,-0.11 1.83,1.16 2.02,2.84 0.2,1.68 -0.38,3.13 -1.3,3.24l-0.72 -6.08zm256.63 29.75l-2.99 2.09 -0.82 -2.07 -1.43 -2.29 -2.07 -2.38 -2.69 -2.39 -3.28 -2.33 -3.83 -2.24 -4.37 -2.14 -4.89 -2.04 -5.38 -1.91 -5.86 -1.79 -6.32 -1.67 -6.77 -1.54 -7.2 -1.41 -7.61 -1.28 -8.01 -1.15 -8.39 -1.01 -8.76 -0.87 -9.11 -0.73 -9.45 -0.59 -9.77 -0.45 -10.08 -0.3 -10.37 -0.15 -10.65 -0 -10.91 0.15 -11.15 0.3 -11.39 0.45 -11.61 0.61 -11.8 0.77 -11.99 0.93 -12.17 1.09 -12.32 1.26 -12.47 1.42 -0.72 -6.08 12.48 -1.42 12.34 -1.26 12.19 -1.09 12.02 -0.93 11.83 -0.77 11.63 -0.61 11.41 -0.45 11.18 -0.3 10.93 -0.15 10.67 0 10.4 0.15 10.11 0.3 9.8 0.45 9.48 0.59 9.15 0.74 8.8 0.87 8.43 1.02 8.06 1.15 7.66 1.29 7.25 1.42 6.84 1.56 6.39 1.69 5.95 1.81 5.49 1.95 5.02 2.08 4.53 2.22 4.03 2.36 3.54 2.52 3.04 2.69 2.53 2.93 2.02 3.25 1.45 3.69zm0 0c0.45,1.58 0.14,3.33 -0.68,3.91 -0.82,0.57 -1.86,-0.24 -2.31,-1.82l2.99 -2.09z"/>
  </g>
  <g id="_105553224708672">
   <path class="fil1 str0" d="M1111.17 524.77c0,0 29.29,25.24 47.79,81.46m-388.18 35.11c0,0 -2.82,18.37 -2.58,31.45m-2.15 -7.49c0,0 -5.2,20.89 -5.14,39.12 28.49,91.17 163.67,114.67 194.37,139.62 0,0 39.55,40.25 72.93,-3.84 52.3,-69.09 112.48,-107.47 128.44,-132.9 0,0 22.69,-33.11 19.33,-54.22 -3.36,-21.11 -18.67,-54.7 -18.67,-54.7m19 60.5c0,0 75.22,201.15 -17.49,491.89 0,0 -14.67,37.44 -29.07,31.68m-110.31 -332.65c7,26.86 -20.51,51.17 -22.75,77.22m48.08 -107.47c37.35,154.35 -16.73,157.7 -5.02,332.64m-69.1 -297.17c-5.13,49.07 56.54,65.32 45.56,207.8m11.82 174.97l-1.28 12.87m-113.02 -390.64c-14.13,-18.56 -30.53,-38.48 -48.21,-56.97m170.56 479.04c0,0 1.04,6.4 11.29,6.4 26.39,0 37.42,-16.79 37.42,-16.79m78.03 -133.81c0,56.52 -10.17,82.11 -12.69,128.45 -0.67,12.28 0.94,24.56 4.57,36.31 7.52,24.33 20.13,73.69 15.19,118.1 -6.88,99.8 -100.44,305.82 -88.77,353.13 0,0 -0.48,5.56 -6.21,13.72 -3.02,4.28 -7.48,9.3 -14.1,14.59m-36.87 -272.07c0,0 29.41,138.47 -15.56,204.87m22.89 -423.3c0,0 0.72,10.1 4.7,23.8 1.37,4.72 1.5,9.7 0.5,14.51 -3.09,14.8 -11.33,36.15 -11.33,67.59m-121.26 -117.95c0,45.42 -36.43,59.7 -31.31,146.7 5.12,87 78.05,282.76 69.73,362.72 0,0 -5.28,23.83 6.72,31.51 0.96,5.75 -16.31,66.21 -14.4,87.33 1.92,21.1 -10.07,61.41 -7.67,76.28 2.4,14.87 -1.92,30.24 3.36,33.59 5.28,3.35 12.95,2.87 12.95,2.87 0,0 3.84,8.64 17.27,6.72 2.4,2.4 7.2,6.71 15.83,2.87 2.88,3.35 21.11,11.52 28.79,-6.24 2.4,5.29 9.12,13.46 39.35,11.05 7.19,-7.2 16.31,-18.24 11.03,-34.55 -32.15,-52.3 -6.48,-153.06 -23.75,-182.81 1.61,-21.11 -1.51,-26.37 -6.96,-41.02 -9.33,-25.11 -12.8,-41.35 -12.8,-41.35 -18.55,-72.29 16.63,-223.26 16.63,-277.64 0,-54.38 -9.59,-100.44 -9.59,-100.44 0,-46.7 31.34,-89.56 8.95,-139.46 11.54,-73.84 -1.28,-201.83 -70.37,-319.15m-196.07 -212.89c0,0 -24.54,151.75 27.4,312.71 48.4,145.76 98.94,134.24 117.33,300.57 4.87,30.11 28.79,26.87 28.79,26.87m70.24 -98.52c0,0 -49.61,7.68 -52.17,24.31m-188.45 -599.88c0,0 -8.93,67.52 198.4,46.08 153.23,-22.66 212.8,-77.82 199.99,-105.8m-88.2 1175.51c2.37,25.3 -21.37,87.6 -27.06,122.54 -2.88,21.11 -1.82,39.4 -9.06,44.17m-104.17 -34.36c0,0 -13.91,15.14 -20.15,39.13 -2.88,10.08 4.1,16.19 15.01,16.01m19.54 -134.52c0,0 6,5.27 5.76,13.19m77.01 -16.07l-1.44 17.03m-25.19 189.27c2.08,-26.7 13.28,-24.14 13.28,-40.78m-42.06 47.02c0,0 -4.59,-11.23 11.68,-23.68 10.87,-8.31 13.11,-16.62 13.11,-16.62m-40.63 37.43c0,0 -5.76,-9.28 7.68,-19.84 5.76,-3.91 9.92,-12.15 9.92,-12.15m-34.87 25.26c-4.2,-14.75 11.52,-16.91 13.44,-26.27m-8.54 10.66c0,0 0.61,-5.27 1.46,-8.15m-21.9 1.44c0,0 0.19,-11.14 3.91,-17.87m84.56 32.83c0,0 14.24,-6.08 29.59,1.6 1.92,-3.2 0.96,-15.99 -13.75,-15.37 -14.71,0.65 -15.83,13.76 -15.83,13.76zm-33.26 4.96c0,0 9.94,-0.48 15.85,3.35 3.84,-2.56 1.1,-8.15 -4.98,-8.95 -6.08,-0.8 -10.87,5.6 -10.87,5.6zm-2.13 -4.7c-1.11,-1.54 -3.13,-2.81 -5.8,-3.18 -6.08,-0.79 -10.87,5.6 -10.87,5.6 0,0 7.81,-0.37 13.7,2.2m-14.24 -6.87c-1.11,-1.53 -3.13,-2.81 -5.8,-3.16 -6.07,-0.81 -10.87,5.6 -10.87,5.6 0,0 7.81,-0.37 13.7,2.2m-18.04 -1.71c0,0 -7.61,1.15 -10.93,-1.65 0.12,-2.98 0.68,-7.22 7.32,-6.89 6.63,0.31 6.41,2.37 6.41,2.37m66.68 -272.74c0,0 -6.81,-20.02 -16.39,-51.58m-52.84 98.44c21.78,-163.61 -36.81,-285.98 -14.74,-456.68m152.06 419.73c0,-84.92 45.49,-274.79 55.05,-351.2m17.62 -176.24c0,0 -7.7,61.97 -11.38,106.43m-296.16 -797.75c23.49,86.2 2.19,111.37 32.17,163m166.58 -159.47c10.55,78.6 23.97,89.72 19.31,130.52m-285.68 -200.28c0,0 20.94,61.7 23.47,79.94"/>
   <path class="fil1 str0" d="M956.58 632.27c-3.97,-17.81 18.28,-24.89 -2.69,-44.32 0,0 -8.04,5.39 -6.65,17.58 1.17,10.2 9.48,12.22 9.82,16.2m-141.03 -123.16c0,0 19.72,-103 100.05,-110.46 83.9,-7.8 109.04,87.55 140.36,87.34m-134.8 0.61c1.71,27.02 10.06,45.04 19.15,64.27 5.58,11.8 10.85,26.89 13.1,47.64m-195.1 -194.76c8.63,71.38 20.67,80.92 27.07,119.1 2.76,16.49 4.39,33.58 0.72,49.9 -6.09,27.08 -11.31,39.27 -15.79,79.15m347.83 -94.86c-29.73,-78.26 -1.2,-107.76 -17.87,-180.98m58.06 238.89c4.44,37.81 -79.56,82.06 -187.62,98.85 -108.06,16.79 -200.7,-0.13 -205.13,-37.93"/>
  </g>
  <rect class="fil2" transform="matrix(0.712077 -8.52679E-002 0.085268 0.712078 832.392 674.966)" width="368.49" height="57.72"/>
  <path class="fil3" d="M917.41 686.75l1.88 -0.22c0.13,1.73 -0.3,3.19 -1.28,4.35 -0.97,1.16 -2.33,1.84 -4.07,2.05 -2,0.24 -3.64,-0.24 -4.95,-1.47 -1.3,-1.25 -2.09,-3.06 -2.38,-5.47 -0.27,-2.23 0.11,-4.07 1.14,-5.52 1.03,-1.46 2.57,-2.31 4.59,-2.56 1.6,-0.19 2.98,0.07 4.11,0.78 1.13,0.71 1.86,1.76 2.19,3.19l-1.9 0.23c-0.29,-0.91 -0.81,-1.59 -1.55,-2.02 -0.73,-0.42 -1.63,-0.57 -2.72,-0.44 -1.44,0.17 -2.49,0.82 -3.18,1.93 -0.67,1.1 -0.89,2.57 -0.67,4.41 0.21,1.74 0.79,3.07 1.75,4.04 0.96,0.95 2.11,1.33 3.47,1.17 1.17,-0.14 2.07,-0.61 2.74,-1.43 0.65,-0.8 0.93,-1.81 0.84,-3.01z"/>
  <path id="_1" class="fil3" d="M922.52 679.2l1.45 12.12 -1.78 0.21 -1.7 -14.22 2.77 -0.33 4.82 10.45c0.14,0.3 0.25,0.54 0.31,0.69 0.08,0.17 0.14,0.32 0.17,0.44 0.03,-0.25 0.05,-0.47 0.09,-0.65 0.04,-0.2 0.06,-0.37 0.09,-0.56l2.36 -11.31 2.77 -0.33 1.7 14.22 -1.87 0.22 -1.45 -12.12c-0.01,0.22 -0.05,0.43 -0.08,0.65 -0.04,0.2 -0.07,0.43 -0.1,0.64l-2.36 11.31 -1.82 0.22 -4.88 -10.45c-0.08,-0.17 -0.17,-0.36 -0.25,-0.55 -0.07,-0.22 -0.15,-0.43 -0.22,-0.66z"/>
  <polygon id="_2" class="fil3" points="955.43,687.55 953.73,673.33 955.66,673.1 957.37,687.32 "/>
  <path id="_3" class="fil3" d="M960.44 686.95l-1.7 -14.22 2.12 -0.25 7.88 9.52c0.19,0.22 0.33,0.41 0.47,0.59 0.13,0.21 0.24,0.37 0.33,0.54l-1.38 -11.53 1.83 -0.22 1.7 14.22 -2.09 0.25 -8.04 -9.67c-0.12,-0.15 -0.24,-0.29 -0.35,-0.46 -0.11,-0.17 -0.2,-0.33 -0.31,-0.52l1.38 11.53 -1.84 0.22z"/>
  <path id="_4" class="fil3" d="M984.04 678.77l1.88 -0.22c0.13,1.73 -0.3,3.19 -1.28,4.35 -0.97,1.16 -2.33,1.84 -4.07,2.05 -2,0.24 -3.64,-0.24 -4.95,-1.47 -1.3,-1.25 -2.09,-3.06 -2.38,-5.47 -0.27,-2.23 0.11,-4.07 1.14,-5.51 1.03,-1.47 2.57,-2.31 4.59,-2.56 1.6,-0.19 2.98,0.07 4.11,0.77 1.13,0.71 1.86,1.76 2.19,3.19l-1.9 0.22c-0.29,-0.91 -0.81,-1.59 -1.55,-2.02 -0.73,-0.41 -1.63,-0.56 -2.72,-0.43 -1.44,0.17 -2.49,0.81 -3.18,1.92 -0.67,1.1 -0.89,2.57 -0.67,4.42 0.21,1.74 0.79,3.07 1.75,4.04 0.96,0.95 2.11,1.33 3.47,1.17 1.17,-0.14 2.07,-0.61 2.74,-1.43 0.65,-0.8 0.93,-1.81 0.84,-3.01z"/>
  <polygon id="_5" class="fil3" points="988.83,683.55 987.12,669.33 989.06,669.1 989.76,674.94 997.13,674.05 996.43,668.22 998.37,667.99 1000.07,682.2 998.14,682.44 997.34,675.77 989.96,676.66 990.76,683.32 "/>
  <polygon id="_6" class="fil3" points="1003.13,681.84 1001.43,667.62 1011.57,666.41 1011.78,668.17 1003.55,669.15 1004.06,673.41 1011.66,672.5 1011.85,674.15 1004.26,675.06 1004.83,679.83 1013.22,678.83 1013.43,680.61 "/>
  <path id="_7" class="fil3" d="M1014.56 675.72l1.86 -0.22c0.14,1.02 0.58,1.82 1.32,2.35 0.75,0.53 1.67,0.72 2.78,0.59 1.11,-0.13 1.95,-0.48 2.53,-1 0.58,-0.55 0.82,-1.2 0.72,-2.01 -0.13,-1.09 -1.42,-1.78 -3.88,-2.04 -0.14,-0.02 -0.24,-0.03 -0.33,-0.04 -1.99,-0.22 -3.33,-0.59 -4.02,-1.09 -0.68,-0.48 -1.09,-1.23 -1.22,-2.28 -0.15,-1.27 0.18,-2.35 1.02,-3.21 0.84,-0.88 2.02,-1.43 3.56,-1.61 1.58,-0.19 2.86,0.08 3.86,0.76 0.99,0.7 1.57,1.76 1.76,3.18l-1.84 0.22c-0.17,-0.94 -0.59,-1.63 -1.23,-2.08 -0.65,-0.42 -1.47,-0.58 -2.48,-0.46 -0.95,0.11 -1.68,0.4 -2.2,0.89 -0.53,0.48 -0.74,1.07 -0.65,1.76 0.13,1.11 1.4,1.78 3.82,2.05 0.34,0.04 0.63,0.07 0.81,0.09l0.22 0.03c1.56,0.17 2.64,0.44 3.19,0.82 0.41,0.27 0.76,0.63 1.01,1.06 0.25,0.43 0.41,0.94 0.48,1.51 0.16,1.36 -0.2,2.53 -1.07,3.46 -0.89,0.93 -2.17,1.48 -3.85,1.69 -1.72,0.2 -3.11,-0.07 -4.19,-0.82 -1.06,-0.76 -1.72,-1.94 -1.99,-3.57z"/>
  <polygon id="_8" class="fil3" points="942.7,690.94 945.5,673.94 946.72,673.79 943.88,690.8 "/>
  <g>
   <path class="fil0" d="M821.1 694.7c0.86,0.01 1.66,1.28 1.78,2.83 0.12,1.55 -0.47,2.8 -1.33,2.79l-0.45 -5.62zm-92.56 -35.67l3.07 -0.36 0 -0 0.24 1.69 0.3 1.65 0.37 1.61 0.46 1.58 0.54 1.56 0.64 1.53 0.76 1.53 0.88 1.52 1.02 1.5 1.17 1.5 1.34 1.48 1.52 1.46 1.7 1.43 1.89 1.39 2.09 1.35 2.3 1.31 2.52 1.26 2.75 1.21 2.98 1.15 3.23 1.09 3.48 1.02 3.74 0.96 4 0.89 4.28 0.81 4.57 0.74 4.87 0.66 5.17 0.58 5.48 0.49 5.8 0.41 6.13 0.31 6.47 0.22 6.82 0.13 0.45 5.62 -6.84 -0.13 -6.5 -0.23 -6.16 -0.31 -5.83 -0.41 -5.52 -0.5 -5.21 -0.58 -4.91 -0.67 -4.62 -0.75 -4.34 -0.82 -4.07 -0.91 -3.8 -0.98 -3.55 -1.05 -3.31 -1.12 -3.07 -1.19 -2.84 -1.25 -2.64 -1.32 -2.42 -1.38 -2.23 -1.45 -2.05 -1.5 -1.87 -1.58 -1.7 -1.63 -1.54 -1.7 -1.39 -1.77 -1.24 -1.83 -1.1 -1.9 -0.97 -1.95 -0.84 -2 -0.71 -2.04 -0.59 -2.07 -0.48 -2.09 -0.38 -2.09 -0.29 -2.09 0 -0zm0 0c-0.18,-1.55 0.35,-2.89 1.2,-2.99 0.85,-0.1 1.69,1.07 1.87,2.62l-3.07 0.37zm-0.1 -2.99l3.13 1.25 -0 0.2 -0.01 0.2 0 0.13 0 0.17 0.01 0.2 0.01 0.16 0.01 0.16 0.02 0.15 -3.07 0.36 -0.04 -0.4 -0.04 -0.38 -0.02 -0.39 -0.02 -0.35 -0.01 -0.38 0 -0.41 0.01 -0.35 0.01 -0.34zm0 0c0.06,-1.51 0.82,-2.46 1.69,-2.11 0.86,0.34 1.51,1.85 1.45,3.37l-3.13 -1.25zm457.72 -53.22c-0.41,-1.46 -0.12,-3.07 0.64,-3.59 0.76,-0.52 1.72,0.24 2.13,1.7l-2.77 1.89zm3.37 1.01l-3.07 0.37 0 -0 -0.02 -0.14 -0.03 -0.16 -0.03 -0.17 -0.03 -0.15 -0.04 -0.2 -0.04 -0.17 -0.05 -0.19 -0.06 -0.21 2.77 -1.89 0.08 0.31 0.09 0.34 0.09 0.37 0.07 0.33 0.08 0.39 0.07 0.38 0.06 0.38 0.06 0.41 0 -0zm0 0c0.18,1.55 -0.35,2.89 -1.2,2.98 -0.85,0.1 -1.69,-1.07 -1.87,-2.62l3.07 -0.36zm-81.9 63.94l-0.89 -5.57 6.59 -1.74 6.24 -1.76 5.9 -1.78 5.56 -1.8 5.24 -1.82 4.92 -1.83 4.61 -1.85 4.31 -1.86 4.02 -1.87 3.73 -1.89 3.46 -1.89 3.19 -1.9 2.93 -1.91 2.69 -1.91 2.44 -1.91 2.21 -1.91 1.99 -1.9 1.77 -1.9 1.57 -1.89 1.37 -1.87 1.19 -1.86 1.01 -1.83 0.84 -1.81 0.69 -1.78 0.54 -1.76 0.41 -1.72 0.29 -1.7 0.19 -1.69 0.09 -1.67 -0 -1.66 -0.09 -1.67 -0.17 -1.67 3.07 -0.37 0.2 2.12 0.12 2.15 0 2.18 -0.12 2.19 -0.24 2.19 -0.38 2.19 -0.52 2.17 -0.67 2.16 -0.82 2.13 -0.98 2.11 -1.15 2.09 -1.32 2.07 -1.5 2.05 -1.69 2.04 -1.88 2.02 -2.09 2 -2.3 1.99 -2.53 1.97 -2.76 1.96 -3 1.95 -3.26 1.94 -3.52 1.93 -3.79 1.91 -4.06 1.9 -4.35 1.88 -4.65 1.86 -4.96 1.85 -5.27 1.83 -5.6 1.81 -5.93 1.79 -6.27 1.77 -6.62 1.75zm0 0c-0.83,0.21 -1.71,-0.86 -1.95,-2.4 -0.24,-1.54 0.23,-2.96 1.06,-3.17l0.89 5.57z"/>
  </g>
  <path class="fil0" d="M818.27 710.64l-2 -24.06 18.75 10.29 -16.75 13.78zm-1 -12.03m8.37 -6.89m1 12.03"/>
  <path class="fil0" d="M1116.84 674.03l-3.74 -23.85 -15.79 14.43 19.53 9.43zm-1.87 -11.93m-9.76 -4.72m1.87 11.93"/>
  <rect class="fil2" transform="matrix(0.771595 -9.23949E-002 0.092395 0.771596 840.952 850.429)" width="368.49" height="57.72"/>
  <path class="fil3" d="M933.08 863.2l2.04 -0.24c0.14,1.87 -0.33,3.45 -1.39,4.71 -1.04,1.26 -2.52,2 -4.41,2.22 -2.17,0.26 -3.94,-0.27 -5.37,-1.6 -1.4,-1.35 -2.26,-3.31 -2.57,-5.93 -0.29,-2.42 0.13,-4.4 1.24,-5.97 1.11,-1.59 2.79,-2.51 4.97,-2.77 1.74,-0.21 3.22,0.07 4.44,0.83 1.22,0.77 2.01,1.91 2.37,3.46l-2.06 0.24c-0.31,-0.98 -0.88,-1.72 -1.68,-2.19 -0.8,-0.45 -1.77,-0.61 -2.94,-0.47 -1.56,0.19 -2.7,0.89 -3.44,2.09 -0.73,1.19 -0.97,2.79 -0.73,4.78 0.22,1.88 0.85,3.33 1.89,4.38 1.04,1.03 2.28,1.44 3.76,1.27 1.27,-0.15 2.25,-0.66 2.97,-1.55 0.7,-0.87 1,-1.97 0.91,-3.26z"/>
  <path id="_1_0" class="fil3" d="M938.61 855.01l1.57 13.14 -1.93 0.23 -1.85 -15.41 3 -0.36 5.22 11.33c0.15,0.33 0.26,0.57 0.33,0.74 0.09,0.19 0.15,0.35 0.19,0.48 0.04,-0.26 0.05,-0.5 0.09,-0.7 0.04,-0.22 0.06,-0.4 0.1,-0.6l2.56 -12.26 3 -0.36 1.85 15.41 -2.04 0.24 -1.57 -13.14c-0.01,0.24 -0.05,0.46 -0.09,0.71 -0.04,0.22 -0.07,0.46 -0.11,0.69l-2.56 12.26 -1.97 0.24 -5.29 -11.32c-0.08,-0.19 -0.18,-0.39 -0.26,-0.6 -0.07,-0.23 -0.17,-0.46 -0.24,-0.71z"/>
  <polygon id="_2_1" class="fil3" points="974.28,864.07 972.43,848.66 974.53,848.41 976.37,863.81 "/>
  <path id="_3_2" class="fil3" d="M979.72 863.41l-1.85 -15.41 2.29 -0.27 8.54 10.32c0.2,0.24 0.35,0.44 0.51,0.64 0.14,0.22 0.27,0.4 0.36,0.59l-1.5 -12.49 1.99 -0.24 1.85 15.41 -2.27 0.27 -8.71 -10.48c-0.13,-0.16 -0.26,-0.32 -0.39,-0.5 -0.11,-0.18 -0.22,-0.37 -0.33,-0.57l1.5 12.49 -1.99 0.24z"/>
  <path id="_4_3" class="fil3" d="M1005.28 854.55l2.04 -0.24c0.14,1.87 -0.33,3.45 -1.39,4.71 -1.04,1.26 -2.52,2 -4.41,2.22 -2.17,0.26 -3.94,-0.27 -5.37,-1.6 -1.4,-1.35 -2.26,-3.31 -2.57,-5.93 -0.29,-2.42 0.13,-4.4 1.24,-5.97 1.11,-1.59 2.79,-2.51 4.97,-2.77 1.74,-0.21 3.22,0.07 4.44,0.83 1.22,0.77 2.01,1.91 2.37,3.46l-2.06 0.24c-0.31,-0.98 -0.88,-1.72 -1.68,-2.19 -0.8,-0.45 -1.77,-0.61 -2.94,-0.47 -1.56,0.19 -2.7,0.89 -3.44,2.09 -0.73,1.19 -0.97,2.79 -0.73,4.78 0.22,1.88 0.85,3.33 1.89,4.38 1.04,1.03 2.28,1.44 3.76,1.27 1.27,-0.15 2.25,-0.66 2.97,-1.55 0.7,-0.87 1,-1.97 0.91,-3.26z"/>
  <polygon id="_5_4" class="fil3" points="1010.46,859.73 1008.61,844.33 1010.72,844.07 1011.47,850.4 1019.46,849.44 1018.71,843.12 1020.81,842.87 1022.65,858.27 1020.56,858.52 1019.69,851.3 1011.7,852.26 1012.56,859.48 "/>
  <polygon id="_6_5" class="fil3" points="1025.96,857.88 1024.11,842.47 1035.1,841.16 1035.33,843.06 1026.42,844.13 1026.97,848.74 1035.2,847.75 1035.41,849.55 1027.19,850.54 1027.8,855.7 1036.89,854.61 1037.12,856.54 "/>
  <path id="_7_6" class="fil3" d="M1038.33 851.24l2.01 -0.24c0.16,1.11 0.63,1.97 1.44,2.54 0.81,0.58 1.81,0.78 3.01,0.64 1.2,-0.14 2.11,-0.51 2.74,-1.09 0.63,-0.59 0.89,-1.3 0.78,-2.18 -0.14,-1.18 -1.54,-1.92 -4.2,-2.21 -0.16,-0.02 -0.27,-0.03 -0.35,-0.04 -2.16,-0.24 -3.62,-0.63 -4.36,-1.17 -0.74,-0.52 -1.18,-1.34 -1.32,-2.48 -0.16,-1.37 0.2,-2.54 1.11,-3.48 0.91,-0.95 2.18,-1.54 3.85,-1.74 1.71,-0.2 3.1,0.09 4.19,0.82 1.07,0.76 1.7,1.91 1.91,3.45l-1.99 0.24c-0.19,-1.02 -0.65,-1.77 -1.34,-2.25 -0.7,-0.46 -1.6,-0.63 -2.69,-0.5 -1.03,0.12 -1.81,0.44 -2.38,0.96 -0.57,0.52 -0.8,1.16 -0.71,1.91 0.15,1.2 1.51,1.93 4.14,2.22 0.37,0.04 0.68,0.07 0.88,0.09l0.24 0.04c1.7,0.19 2.86,0.48 3.45,0.89 0.45,0.3 0.82,0.69 1.09,1.15 0.27,0.47 0.45,1.01 0.52,1.63 0.18,1.48 -0.22,2.74 -1.16,3.75 -0.96,1.01 -2.35,1.61 -4.17,1.82 -1.87,0.22 -3.38,-0.07 -4.54,-0.89 -1.14,-0.82 -1.86,-2.1 -2.16,-3.87z"/>
  <polygon id="_8_7" class="fil3" points="960.48,867.74 963.51,849.31 964.84,849.16 961.76,867.59 "/>
  <g>
   <path class="fil0" d="M828.71 871.82c0.93,0.01 1.8,1.39 1.93,3.06 0.13,1.68 -0.51,3.03 -1.44,3.02l-0.49 -6.09zm-100.3 -38.65l3.32 -0.41 0 0.01 0.26 1.82 0.32 1.78 0.4 1.75 0.49 1.7 0.59 1.69 0.7 1.67 0.81 1.65 0.96 1.65 1.11 1.63 1.27 1.63 1.45 1.6 1.64 1.58 1.83 1.55 2.05 1.51 2.27 1.47 2.5 1.42 2.73 1.37 2.98 1.31 3.23 1.25 3.5 1.18 3.77 1.11 4.05 1.04 4.34 0.96 4.65 0.88 4.95 0.8 5.27 0.72 5.6 0.63 5.94 0.54 6.28 0.44 6.65 0.35 7.01 0.24 7.39 0.14 0.49 6.09 -7.42 -0.14 -7.04 -0.24 -6.68 -0.35 -6.32 -0.44 -5.98 -0.54 -5.64 -0.63 -5.32 -0.72 -5 -0.81 -4.7 -0.9 -4.4 -0.98 -4.12 -1.06 -3.85 -1.14 -3.58 -1.21 -3.33 -1.28 -3.09 -1.36 -2.85 -1.43 -2.63 -1.5 -2.42 -1.56 -2.22 -1.64 -2.02 -1.7 -1.84 -1.78 -1.67 -1.85 -1.5 -1.92 -1.35 -1.98 -1.19 -2.06 -1.05 -2.12 -0.9 -2.17 -0.78 -2.21 -0.64 -2.25 -0.52 -2.25 -0.42 -2.26 -0.31 -2.27 0 0.01zm0 -0.01c-0.2,-1.68 0.38,-3.13 1.3,-3.24 0.92,-0.11 1.83,1.17 2.02,2.84l-3.32 0.39zm-0.11 -3.22l3.39 1.32 -0 0.23 -0.01 0.23 0 0.15 0.01 0.19 0 0.19 0.02 0.19 0.01 0.19 0.02 0.15 -3.32 0.41 -0.05 -0.44 -0.04 -0.41 -0.02 -0.41 -0.02 -0.41 -0.01 -0.4 0 -0.44 0.01 -0.37 0.01 -0.36zm0 0c0.06,-1.64 0.88,-2.67 1.81,-2.31 0.94,0.36 1.64,2 1.58,3.63l-3.39 -1.32zm495.98 -57.69c-0.44,-1.58 -0.13,-3.33 0.7,-3.89 0.83,-0.56 1.86,0.27 2.3,1.85l-3 2.04zm3.65 1.09l-3.32 0.4 0 0 -0.02 -0.15 -0.03 -0.19 -0.03 -0.17 -0.03 -0.15 -0.05 -0.22 -0.05 -0.2 -0.05 -0.19 -0.06 -0.24 3 -2.04 0.09 0.34 0.1 0.38 0.09 0.37 0.08 0.36 0.09 0.43 0.07 0.41 0.06 0.41 0.06 0.44 0 0zm0 -0c0.2,1.68 -0.38,3.13 -1.3,3.24 -0.92,0.11 -1.83,-1.16 -2.03,-2.83l3.32 -0.41zm-88.74 69.29l-0.96 -6.03 7.15 -1.89 6.76 -1.91 6.39 -1.93 6.03 -1.94 5.67 -1.97 5.33 -1.98 4.99 -2 4.67 -2.02 4.35 -2.03 4.04 -2.04 3.74 -2.05 3.46 -2.06 3.18 -2.07 2.91 -2.07 2.65 -2.07 2.4 -2.07 2.15 -2.06 1.93 -2.06 1.7 -2.05 1.49 -2.04 1.28 -2.01 1.09 -1.99 0.91 -1.96 0.74 -1.94 0.59 -1.9 0.44 -1.87 0.31 -1.84 0.2 -1.83 0.09 -1.81 -0 -1.8 -0.09 -1.81 -0.18 -1.81 3.32 -0.4 0.22 2.3 0.13 2.33 0 2.36 -0.13 2.37 -0.26 2.38 -0.41 2.37 -0.56 2.35 -0.72 2.33 -0.89 2.31 -1.07 2.28 -1.24 2.27 -1.43 2.24 -1.62 2.22 -1.83 2.2 -2.04 2.19 -2.26 2.17 -2.5 2.15 -2.74 2.14 -3 2.13 -3.26 2.11 -3.53 2.1 -3.81 2.09 -4.11 2.07 -4.41 2.05 -4.72 2.04 -5.04 2.02 -5.37 2 -5.71 1.98 -6.06 1.96 -6.43 1.94 -6.79 1.92 -7.18 1.89zm0 0c-0.9,0.23 -1.85,-0.93 -2.11,-2.6 -0.26,-1.67 0.25,-3.2 1.15,-3.43l0.96 6.03z"/>
  </g>
  <path class="fil0" d="M825.65 889.08l-2.17 -26.07 20.32 11.15 -18.15 14.93zm-1.09 -13.04m9.07 -7.46m1.08 13.04"/>
  <path class="fil0" d="M1149.17 849.41l-4.05 -25.85 -17.11 15.63 21.16 10.22zm-2.02 -12.93m-10.58 -5.11m2.02 12.93"/>
 </g>
</svg>
