<?xml version="1.0" encoding="UTF-8"?>
<!DOCTYPE svg PUBLIC "-//W3C//DTD SVG 1.1//EN" "http://www.w3.org/Graphics/SVG/1.1/DTD/svg11.dtd">
<!-- Creator: CorelDRAW -->
<svg xmlns="http://www.w3.org/2000/svg" xml:space="preserve" version="1.1" style="shape-rendering:geometricPrecision; text-rendering:geometricPrecision; image-rendering:optimizeQuality; fill-rule:evenodd; clip-rule:evenodd"
viewBox="300 360 1730 1730"
 xmlns:xlink="http://www.w3.org/1999/xlink"
 xmlns:xodm="http://www.corel.com/coreldraw/odm/2003">
 <defs>
  <style type="text/css">
   <![CDATA[
    .str1 {stroke:aqua;stroke-width:6.67;stroke-miterlimit:2.61313}
    .str0 {stroke:gray;stroke-width:3.33;stroke-linecap:round;stroke-linejoin:round;stroke-miterlimit:22.926}
    .fil4 {fill:none}
    .fil1 {fill:none;fill-rule:nonzero}
    .fil5 {fill:aqua}
    .fil2 {fill:aqua}
    .fil0 {fill:aqua;fill-rule:nonzero}
    .fil3 {fill:#333333;fill-rule:nonzero}
   ]]>
  </style>
 </defs>
 <g id="Layer_x0020_1">
  <metadata id="CorelCorpID_0Corel-Layer"/>
  <g id="_105553221343200">
   <g>
    <path class="fil0" d="M1154.27 994.27c-0.15,1.14 -0.68,1.79 -1.18,1.46 -0.5,-0.33 -0.79,-1.53 -0.65,-2.67l1.83 1.2zm140.78 -43.34l0 4.29 0 0 -7.12 0.05 -7.03 0.16 -6.93 0.26 -6.82 0.35 -6.7 0.45 -6.58 0.54 -6.45 0.63 -6.31 0.72 -6.15 0.8 -6 0.89 -5.83 0.97 -5.66 1.05 -5.48 1.13 -5.29 1.2 -5.08 1.28 -4.88 1.33 -4.66 1.4 -4.43 1.47 -4.2 1.53 -3.96 1.58 -3.71 1.64 -3.45 1.69 -3.18 1.73 -2.9 1.79 -2.62 1.82 -2.32 1.85 -2.01 1.89 -1.69 1.89 -1.35 1.88 -1.01 1.84 -0.65 1.71 -0.32 1.51 -1.83 -1.2 0.57 -2.69 0.92 -2.43 1.23 -2.25 1.52 -2.13 1.82 -2.04 2.12 -1.98 2.4 -1.93 2.69 -1.87 2.96 -1.82 3.23 -1.76 3.49 -1.71 3.75 -1.65 3.99 -1.6 4.23 -1.54 4.46 -1.48 4.69 -1.41 4.89 -1.34 5.11 -1.28 5.3 -1.2 5.49 -1.13 5.67 -1.06 5.85 -0.97 6.02 -0.89 6.17 -0.81 6.32 -0.72 6.46 -0.63 6.59 -0.54 6.72 -0.45 6.83 -0.35 6.94 -0.26 7.04 -0.16 7.13 -0.05 0 0zm0 0c0.52,0 0.95,0.96 0.95,2.15 0,1.18 -0.43,2.15 -0.95,2.15l0 -4.29zm142.61 42.14l-1.83 1.2 -0.32 -1.51 -0.65 -1.71 -1.01 -1.84 -1.35 -1.88 -1.69 -1.89 -2.01 -1.89 -2.32 -1.85 -2.62 -1.82 -2.9 -1.79 -3.18 -1.73 -3.45 -1.69 -3.71 -1.64 -3.96 -1.58 -4.2 -1.53 -4.43 -1.47 -4.66 -1.4 -4.88 -1.33 -5.08 -1.28 -5.29 -1.2 -5.48 -1.13 -5.66 -1.05 -5.83 -0.97 -6 -0.89 -6.15 -0.8 -6.31 -0.72 -6.45 -0.63 -6.58 -0.54 -6.7 -0.45 -6.82 -0.35 -6.93 -0.26 -7.03 -0.16 -7.12 -0.05 0 -4.29 7.13 0.05 7.04 0.16 6.94 0.26 6.83 0.35 6.72 0.45 6.59 0.54 6.46 0.63 6.32 0.72 6.17 0.81 6.02 0.89 5.85 0.97 5.67 1.06 5.49 1.13 5.3 1.2 5.11 1.28 4.89 1.34 4.69 1.41 4.46 1.48 4.23 1.54 3.99 1.6 3.75 1.65 3.49 1.71 3.23 1.76 2.96 1.82 2.69 1.87 2.4 1.93 2.12 1.98 1.82 2.04 1.52 2.13 1.23 2.25 0.92 2.43 0.57 2.69zm0 0c0.15,1.14 -0.14,2.33 -0.65,2.67 -0.5,0.33 -1.04,-0.32 -1.18,-1.46l1.83 -1.2z"/>
   </g>
   <g>
    <path class="fil0" d="M898.53 740.14c-0.26,1.65 -1.22,2.61 -2.12,2.13 -0.91,-0.48 -1.43,-2.22 -1.16,-3.87l3.28 1.75zm253.31 -63.07l0 6.25 0 0 -12.81 0.07 -12.64 0.22 -12.47 0.37 -12.28 0.52 -12.06 0.65 -11.84 0.79 -11.6 0.92 -11.34 1.05 -11.08 1.17 -10.8 1.3 -10.49 1.41 -10.19 1.53 -9.85 1.64 -9.5 1.74 -9.15 1.85 -8.78 1.95 -8.39 2.04 -7.98 2.13 -7.56 2.22 -7.13 2.3 -6.67 2.38 -6.21 2.46 -5.72 2.53 -5.22 2.59 -4.71 2.65 -4.17 2.7 -3.62 2.74 -3.04 2.76 -2.44 2.74 -1.81 2.67 -1.17 2.49 -0.59 2.2 -3.28 -1.75 1.02 -3.92 1.66 -3.54 2.21 -3.28 2.74 -3.1 3.28 -2.98 3.81 -2.88 4.32 -2.8 4.83 -2.72 5.33 -2.65 5.81 -2.57 6.28 -2.49 6.74 -2.41 7.18 -2.33 7.61 -2.23 8.03 -2.15 8.43 -2.05 8.81 -1.96 9.19 -1.85 9.54 -1.75 9.89 -1.65 10.21 -1.53 10.52 -1.42 10.82 -1.3 11.11 -1.17 11.37 -1.06 11.63 -0.92 11.86 -0.79 12.09 -0.65 12.29 -0.52 12.49 -0.37 12.67 -0.23 12.83 -0.07 0 0zm0 0c0.94,0 1.71,1.4 1.71,3.13 0,1.72 -0.77,3.13 -1.71,3.13l0 -6.25zm256.59 61.33l-3.28 1.75 -0.59 -2.2 -1.17 -2.49 -1.8 -2.67 -2.44 -2.74 -3.04 -2.76 -3.61 -2.74 -4.17 -2.7 -4.71 -2.65 -5.22 -2.59 -5.72 -2.53 -6.21 -2.46 -6.67 -2.38 -7.13 -2.3 -7.56 -2.22 -7.98 -2.13 -8.39 -2.04 -8.77 -1.95 -9.15 -1.85 -9.5 -1.74 -9.85 -1.64 -10.19 -1.53 -10.49 -1.41 -10.8 -1.3 -11.08 -1.17 -11.34 -1.05 -11.6 -0.92 -11.84 -0.79 -12.06 -0.65 -12.28 -0.52 -12.47 -0.37 -12.64 -0.22 -12.81 -0.07 0 -6.25 12.83 0.07 12.67 0.23 12.49 0.37 12.29 0.52 12.09 0.65 11.86 0.79 11.63 0.92 11.37 1.06 11.11 1.17 10.82 1.3 10.52 1.42 10.21 1.53 9.89 1.65 9.54 1.75 9.19 1.85 8.81 1.96 8.43 2.05 8.03 2.15 7.61 2.23 7.18 2.33 6.74 2.41 6.28 2.49 5.81 2.57 5.33 2.65 4.83 2.72 4.32 2.8 3.8 2.88 3.28 2.98 2.75 3.1 2.21 3.28 1.65 3.54 1.02 3.92zm0 0c0.26,1.65 -0.26,3.39 -1.16,3.87 -0.91,0.48 -1.86,-0.47 -2.12,-2.13l3.28 -1.75z"/>
   </g>
   <path class="fil0" d="M1004.65 811.06l1.26 -34.94 25.19 18.02 -26.45 16.92zm0.63 -17.47m13.23 -8.46m-0.63 17.48"/>
   <path class="fil1 str0" d="M981 738.79c71.52,23.54 115.98,65.41 135.82,105.81 17.92,36.5 40.74,52.03 61.88,51.96 20.78,-0.07 33.33,-11.88 73.37,-49.32 40.49,-37.86 65.15,-55.5 86.04,-68.41m-25.91 1096.8l-3.36 -10.38m20.3 50.87l5.57 10.68m-64.97 45.94l-4.17 -11.14m34.33 -107.2c0,0 -16.7,-17.17 -38.51,22.87m-11.61 14.96c0,0 6.96,12.76 9.74,35.5m87.03 100.35c0,0 -15.01,-9.5 -21.36,-13.61m73.84 6.03c0,0 -7.08,-0.13 -13.46,6.95 -2.44,-0.58 -8.35,-1.39 -9.75,-6.37 1.39,-3.02 6.85,-6.84 13.11,-5.69m-491.61 20l11.14 -16.13m329.94 -186.43c-1.16,9.04 -1.24,11.98 -7.77,22.63 -1.65,2.7 -2.11,5.95 -1.76,9.09 1.72,15.33 9.54,12.72 7.91,27.67m-7.05 -22.85c5.34,20.42 -14.32,54.49 -17.96,67.16 -1.03,3.57 0.04,7.44 1.41,10.9 2.43,6.12 6.32,12.62 12.48,15.26 8.12,3.49 31.05,5.42 31.05,5.42m-10.87 -5.57c12.99,7.66 23.9,10.21 23.9,10.21 0,0 11.37,30.17 22.74,39.22 10.84,4.02 30.68,8.39 39.73,7m14.62 5.7c0,0 -2.15,9.16 5.63,14.27 7.77,1.63 21.58,3.37 32.37,2.79 6.73,-1.97 17.23,-7.08 16.19,-15.66 -0.23,-2.66 -1.97,-5.56 -1.97,-5.56 0,0 -10.67,-6.74 -34.34,-12.31 -0.93,-1.85 -1.97,-6.84 -11.37,-9.27m47.76 29.7c0,0 6.42,1.97 11.64,-4.53 0.7,-4.53 -1.74,-8.93 -8.24,-11.61 -1.65,-2.07 -3.65,-4.18 -5.17,-5.7 -1.48,-1.49 -3.32,-2.57 -5.33,-3.15l-19.43 -5.53 -5.92 -4.87m43.88 27.02c0,0 9.95,0.02 10.19,-6.25 0.12,-3.13 -0.21,-7.55 -5.09,-9.05 -0.96,-1.15 -3.22,-3.26 -5.09,-4.95 -1.8,-1.63 -3.95,-2.8 -6.29,-3.46l-18.33 -5.04 -7.19 -4.29m42.02 24.48c0,0 7.29,-1.63 7.29,-6.62 0,-4.98 -4.87,-6.14 -4.87,-6.14 0,0 -0.58,-6.5 -12.3,-10.21l-15.2 -4.18 -4.41 -3.59m-354.48 67.74c0,0 -5.11,-2.13 -10.22,-7.49m-104.4 -138.86c0,0 2.56,-6.3 5.14,-12.72 6.06,-15.05 25.83,-19.2 36.94,-7.38 2.75,2.93 5.11,6.84 6.78,12.04m-44.66 166.81c0,0 -0.83,-6.57 -5.37,-8.25m0.65 23.27c0,0 -7.74,2.44 -12.15,-1.28 -4.41,-3.71 -5.1,-11.56 -5.1,-11.56l0.93 -3.98m0.5 9.91c0,0 -8.62,0.17 -10.48,-8.11 -1.85,-8.3 0,-25.7 0,-25.7 0,0 8.82,-13.69 12.76,-38.98 3.94,-25.3 3.02,-43.39 3.02,-43.39 0,0 -7.19,-13 -6.96,-19.03 0.23,-6.03 0.7,-10.9 5.57,-19.03 4.87,-8.11 6.9,-50.33 3.68,-83.76m80.8 131.48c0,0 -7.68,-30.56 -8.15,-36.82m-74.94 27.16l2.32 -8.36m12.67 -1214.09c0,0 -95.81,160.57 -11.16,481.09 0,0 0.87,24.98 20.76,34.78m449.74 719.29l17.4 8.8c0,0 25.58,3.31 25.76,16.54 0,6.09 -2.78,9.4 -2.78,9.4m-43.32 -1244.45c0,0 76,202.42 9.83,504.83 4.61,12.69 12.69,56.89 -3.46,91.87 10.26,233.01 -73.24,344.35 -78.51,517.08 -0.06,1.93 -0.11,3.87 -0.15,5.83 0,0 4.99,16.59 16.94,40.49 66.01,45.14 75.7,58.42 75.7,58.42m-412.08 -796.7c0,0 -4.61,51.31 -25.37,65.15m16.04 -23.68c0,0 4.14,25.41 21.43,55.97m134.81 -396.85c0,0 10.19,58.43 -53.81,237.15 -0.57,29.4 -1.44,154.22 -29.79,202.17 -2.31,20.76 -14.61,50.74 -29.98,73.03 25.23,200.97 -53.4,216.46 -39.2,460.46 0,0 -9.22,-152.97 -4.61,-257.52m103.59 -478.15c0,0 -19.8,51.89 -29.79,93.78m-147.79 115.5c0,0 4.53,71.49 37.72,77.83m38.96 137.22c10.38,-110.31 41.13,-149.13 41.13,-149.13 0,0 -10.96,11.15 -37.48,11.91m67.46 -84.94c0,0 -17.68,10.38 -32.29,-9.99m370.53 -46.89c0,0 -15.57,-32 -17.99,-45.39m4.73 -34.75c0,0 -10.38,137.56 -69.19,133.35m78.99 38.65c0,0 -9.22,17.68 -21.52,23.06m-117.27 -528.55c-28.85,94.83 20.03,173.78 22.33,272.18 2.73,116.66 -17.68,146.06 0,169.11m-71.99 -186.9c0,0 46.62,79.09 64.78,165m-11.17 142.97c0,0 9.75,-18.09 11.77,-36.83m-352.4 458.42c-18.89,-159.64 -107.12,-286.56 -7.1,-506.34 -4.61,-76.11 11.06,-100.95 11.06,-100.95m321.24 591.22c0,0 22.47,-207.58 26.59,-256.01m-2.6 -210.05c0,0 11.53,68.61 6.34,135.49m-32.52 348.27c29.03,-211.37 -65.64,-284.28 17.61,-423.22 -44.13,-89.22 -24.95,-155.3 -28.35,-210.12 -2.9,-46.67 -12.62,-70.93 -31.98,-113.48 -14.91,-32.77 -48.6,-76.72 -38.85,-194.87m-201.99 -498.02c16.27,14.81 -1.05,120.31 -1.76,142.49m427.96 -118.03c-13.39,43.13 -4.59,97.51 -4.51,141.54m-175.09 -6.54c0.34,36.8 -27.61,32.31 -0.29,73.46m9.97 -40.32c3.94,15.87 -9.83,25.57 -12.23,36.52m-245.81 -86.63c-1.77,42.42 71.39,31.17 86.93,155.94m-80.98 -136.59c3.37,51.93 -36.43,71.09 -30.95,175.61m448.45 -171.44c1.02,57.52 -55.05,88.33 -60.13,158.8m49.02 -111.7c-5.47,55.41 26.58,66.46 19.05,149.8m-305.78 -335.99c0,0 24.13,11.21 46.85,15.02 26.79,4.49 51.29,-0.54 81.67,0.96 29.94,1.47 39.6,9.17 65.68,9.42 26.07,0.25 43.6,-13.72 43.6,-13.72m-223.46 70.15c0,0 20.96,9.74 40.7,13.05 23.28,3.9 44.57,-0.46 70.96,0.83 26.02,1.28 34.41,7.96 57.06,8.18 22.65,0.22 37.89,-11.93 37.89,-11.93m-312.75 1339.24c3.83,51.78 11.99,57.2 12.99,70.46 0,12.53 -6.82,32.98 -3.69,40.99 0,0 4,11.84 5.74,25.76m16.63 32.2c0.35,-1.04 -4.7,-19.05 -16.63,-32.2 0,0 -6.26,-6.52 -8.43,-10.34m18.44 40.97c0,0 16.19,4.35 20.71,10.96 4.52,6.61 2.96,13.06 6.09,18.62 0,0 10.27,8.17 11.66,13.41 1.39,5.22 0.18,17.06 -7.31,18.09 -7.48,1.05 -29.41,8.71 -34.98,-3.31 -5.57,-12.01 2.44,-25.54 2.44,-25.54m-4.21 19.28c0,0 -5.71,-3.65 -10.76,0.88m-6.96 -30.29c0,0 -4.7,9.93 0,20.19 4.7,10.28 11.48,10.04 4,22.16 -3.3,0.99 -14.44,3.54 -21.75,0 -1.91,-2.49 -6.61,-7.02 -2.09,-16.59 -0.24,-0.66 -0.5,-1.27 -0.74,-1.8 -0.96,-2.1 -0.91,-4.54 0.07,-6.64 0.79,-1.68 1.33,-3.51 0.49,-4.26 -1.74,-1.57 -3.79,-6.26 -3.55,-9.06m4.3 36.4c0,0 -14.33,5.18 -21.64,-1.43 -0.22,-0.36 -0.41,-0.72 -0.59,-1.04 -1.13,-2.05 -1.24,-4.5 -0.31,-6.64l2.83 -6.59 -1.66 -5.04c-0.91,-2.79 -0.51,-5.81 1,-8.32 0.94,-1.55 1.53,-3.37 0.48,-4.73m19.52 8.16c0,0 2.24,-3.82 1.89,-6.25m-23.15 30.45c0,0 -19.55,5.81 -23.49,-2.32 0,0 -3.94,-8.5 2.09,-14.58 3.02,-2.35 3.48,-5.51 3.25,-7.3 0.93,-1.78 3.48,-4.65 3.48,-4.65m84.46 13.19c0,0 14.73,-8.48 27.96,-2.67 -2.32,-3.26 -6.38,-8.94 -19.26,-6.73 -12.88,2.21 -8.7,9.4 -8.7,9.4zm391.4 -48.69c0,0 -0.99,3.05 -10.7,4.87 -0.92,-2.24 -2.74,-4.23 1.2,-5.52 3.94,-1.27 8.2,-0.69 9.5,0.65zm9.63 -8.44c0,0 -1,3.07 -10.71,4.87 -0.91,-2.24 -2.73,-4.23 1.2,-5.52 3.94,-1.27 8.21,-0.69 9.51,0.64zm7.94 -6.95c0,0 -0.17,2.51 -7.16,5.73 -1.12,-1.52 -2.87,-2.68 -0.15,-4.4 2.73,-1.7 6.07,-2.08 7.31,-1.33zm3.57 -9.05c0,0 0,1.89 -7.66,2.71 -0.57,-1.8 -2.83,-3.02 0.31,-3.78 3.14,-0.75 6.42,-0.05 7.35,1.07zm-454.77 82.54c0,0 10.21,-1.61 13.69,0 -0.46,-2.08 -1.62,-3.88 -9.51,-3.57 -3.71,0.78 -5.11,1.49 -4.18,3.57zm-22.9 0.14c0,0 9.02,-1.63 11.3,0 0.33,-1.78 0.16,-3.37 -4.06,-3.59 -1.67,-0.08 -3.36,0.13 -4.92,0.72 -1.61,0.61 -2.32,1.38 -2.32,2.87zm-23.06 -2.68c0,0 9.58,-0.28 11.2,1.54 1.03,-1.63 1.48,-3.12 -2.62,-3.89 -1.61,-0.3 -3.37,-0.34 -5.15,0 -1.84,0.35 -2.85,0.97 -3.43,2.35zm-16.84 -0.37c0,0 2.01,-1.16 4.21,-2.27 1.87,-0.94 3.88,-1.85 4.93,-1.98 -0.12,-1.85 -2.21,-2.35 -5.28,-1.24 -0.78,0.28 -1.29,0.57 -1.83,1.03 -0.29,0.25 -0.59,0.55 -0.94,0.93 -1.04,1.1 -1.39,2.07 -1.1,3.53z"/>
   <g>
    <rect class="fil2" x="1031.11" y="763.28" width="245" height="59.96"/>
    <path class="fil3" d="M1082.44 794.86l2.74 0c-0.11,2.51 -0.98,4.53 -2.59,6.03 -1.59,1.5 -3.67,2.25 -6.2,2.25 -2.91,0 -5.19,-0.98 -6.87,-2.97 -1.64,-2.02 -2.48,-4.76 -2.48,-8.28 0,-3.26 0.87,-5.83 2.6,-7.73 1.73,-1.93 4.09,-2.89 7.04,-2.89 2.33,0 4.27,0.61 5.77,1.82 1.5,1.21 2.37,2.85 2.6,4.96l-2.77 0c-0.26,-1.35 -0.89,-2.43 -1.87,-3.17 -0.98,-0.72 -2.25,-1.1 -3.84,-1.1 -2.11,0 -3.72,0.75 -4.9,2.22 -1.16,1.47 -1.73,3.55 -1.73,6.23 0,2.54 0.61,4.56 1.82,6.11 1.21,1.53 2.8,2.28 4.79,2.28 1.7,0 3.09,-0.52 4.19,-1.59 1.07,-1.04 1.64,-2.45 1.73,-4.19z"/>
    <path id="_1" class="fil3" d="M1091.1 784.88l0 17.69 -2.6 0 0 -20.74 4.04 0 5.14 15.87c0.14,0.46 0.26,0.81 0.31,1.04 0.09,0.26 0.15,0.49 0.17,0.67 0.09,-0.35 0.15,-0.67 0.23,-0.93 0.09,-0.29 0.14,-0.52 0.23,-0.78l5.34 -15.87 4.04 0 0 20.74 -2.74 0 0 -17.69c-0.06,0.32 -0.15,0.61 -0.23,0.92 -0.09,0.29 -0.17,0.61 -0.26,0.9l-5.33 15.87 -2.66 0 -5.22 -15.87c-0.09,-0.26 -0.17,-0.55 -0.26,-0.84 -0.06,-0.32 -0.15,-0.63 -0.2,-0.98z"/>
    <polygon id="_2" class="fil3" points="1137,802.56 1137,781.82 1139.82,781.82 1139.82,802.56 "/>
    <path id="_3" class="fil3" d="M1144.32 802.56l0 -20.74 3.09 0 9.69 15.06c0.23,0.35 0.41,0.64 0.58,0.93 0.14,0.31 0.29,0.57 0.37,0.83l0 -16.82 2.69 0 0 20.74 -3.06 0 -9.9 -15.29c-0.14,-0.23 -0.29,-0.46 -0.43,-0.72 -0.11,-0.26 -0.23,-0.52 -0.35,-0.81l0 16.82 -2.68 0z"/>
    <path id="_4" class="fil3" d="M1179.67 794.86l2.74 0c-0.11,2.51 -0.98,4.53 -2.59,6.03 -1.59,1.5 -3.67,2.25 -6.2,2.25 -2.91,0 -5.19,-0.98 -6.87,-2.97 -1.64,-2.02 -2.48,-4.76 -2.48,-8.28 0,-3.26 0.87,-5.83 2.6,-7.73 1.73,-1.93 4.09,-2.89 7.04,-2.89 2.33,0 4.27,0.61 5.77,1.82 1.5,1.21 2.37,2.85 2.6,4.96l-2.77 0c-0.26,-1.35 -0.89,-2.43 -1.87,-3.17 -0.98,-0.72 -2.25,-1.1 -3.84,-1.1 -2.11,0 -3.72,0.75 -4.9,2.22 -1.16,1.47 -1.73,3.55 -1.73,6.23 0,2.54 0.61,4.56 1.82,6.11 1.21,1.53 2.8,2.28 4.79,2.28 1.7,0 3.09,-0.52 4.19,-1.59 1.07,-1.04 1.64,-2.45 1.73,-4.19z"/>
    <polygon id="_5" class="fil3" points="1185.72,802.56 1185.72,781.82 1188.55,781.82 1188.55,790.33 1199.31,790.33 1199.31,781.82 1202.14,781.82 1202.14,802.56 1199.31,802.56 1199.31,792.84 1188.55,792.84 1188.55,802.56 "/>
    <polygon id="_6" class="fil3" points="1206.58,802.56 1206.58,781.82 1221.39,781.82 1221.39,784.39 1209.38,784.39 1209.38,790.59 1220.46,790.59 1220.46,793.01 1209.38,793.01 1209.38,799.96 1221.61,799.96 1221.61,802.56 "/>
    <path id="_7" class="fil3" d="M1224.07 795.72l2.71 0c0.03,1.5 0.52,2.71 1.5,3.61 0.98,0.89 2.28,1.33 3.9,1.33 1.61,0 2.88,-0.35 3.81,-1.01 0.92,-0.69 1.39,-1.59 1.39,-2.77 0,-1.59 -1.73,-2.8 -5.22,-3.61 -0.2,-0.06 -0.35,-0.09 -0.46,-0.11 -2.83,-0.66 -4.7,-1.41 -5.6,-2.25 -0.89,-0.81 -1.35,-1.96 -1.35,-3.49 0,-1.85 0.67,-3.35 2.02,-4.44 1.35,-1.13 3.15,-1.7 5.39,-1.7 2.31,0 4.1,0.61 5.43,1.76 1.3,1.18 1.96,2.8 1.99,4.87l-2.69 0c-0.09,-1.38 -0.57,-2.45 -1.41,-3.2 -0.87,-0.72 -2.02,-1.09 -3.49,-1.09 -1.38,0 -2.48,0.29 -3.31,0.89 -0.84,0.61 -1.24,1.41 -1.24,2.42 0,1.62 1.7,2.8 5.14,3.61 0.49,0.12 0.89,0.2 1.15,0.26l0.32 0.09c2.22,0.52 3.72,1.1 4.44,1.73 0.55,0.46 0.98,1.04 1.27,1.7 0.29,0.67 0.43,1.41 0.43,2.25 0,1.99 -0.72,3.61 -2.13,4.79 -1.44,1.19 -3.37,1.76 -5.83,1.76 -2.51,0 -4.47,-0.63 -5.89,-1.9 -1.39,-1.27 -2.13,-3.09 -2.25,-5.48z"/>
    <polygon id="_8" class="fil3" points="1118.1,805.25 1125.06,781.27 1126.84,781.27 1119.83,805.25 "/>
   </g>
   <g>
    <path class="fil0" d="M1005.4 790.47c0.94,0.12 1.65,1.62 1.58,3.34 -0.07,1.72 -0.89,3.02 -1.83,2.89l0.24 -6.24zm-110.43 -48.8l3.42 0 0 0 0.06 1.67 0.19 1.65 0.32 1.65 0.48 1.67 0.64 1.7 0.82 1.73 1.01 1.75 1.21 1.76 1.42 1.77 1.63 1.77 1.85 1.76 2.07 1.74 2.3 1.72 2.53 1.7 2.77 1.67 3 1.65 3.25 1.61 3.5 1.59 3.75 1.55 4.01 1.52 4.28 1.48 4.54 1.44 4.82 1.41 5.1 1.37 5.38 1.33 5.67 1.29 5.96 1.25 6.27 1.2 6.57 1.17 6.88 1.12 7.19 1.08 7.52 1.03 -0.24 6.24 -7.54 -1.04 -7.22 -1.08 -6.91 -1.13 -6.6 -1.17 -6.29 -1.21 -6 -1.26 -5.7 -1.3 -5.42 -1.34 -5.14 -1.39 -4.86 -1.42 -4.6 -1.46 -4.33 -1.5 -4.07 -1.54 -3.81 -1.58 -3.57 -1.62 -3.33 -1.65 -3.09 -1.7 -2.86 -1.74 -2.64 -1.77 -2.42 -1.81 -2.21 -1.86 -2.01 -1.91 -1.8 -1.96 -1.61 -2.01 -1.43 -2.07 -1.24 -2.15 -1.05 -2.22 -0.87 -2.3 -0.68 -2.38 -0.49 -2.45 -0.29 -2.5 -0.09 -2.53 0 0zm0 0c0,-1.72 0.77,-3.13 1.71,-3.13 0.94,0 1.71,1.4 1.71,3.13l-3.42 0zm0.28 -3.28l3.28 1.74 -0.03 0.23 -0.04 0.23 -0.02 0.2 -0.02 0.19 -0.01 0.16 -0.01 0.19 -0.01 0.19 -0 0.15 -3.42 0 0 -0.45 0.02 -0.41 0.02 -0.41 0.04 -0.45 0.04 -0.41 0.05 -0.4 0.05 -0.37 0.06 -0.37zm0 0c0.26,-1.65 1.21,-2.61 2.12,-2.13 0.91,0.48 1.43,2.22 1.17,3.87l-3.28 -1.74zm509.9 1.74c-0.26,-1.65 0.26,-3.39 1.17,-3.87 0.91,-0.48 1.86,0.48 2.12,2.13l-3.28 1.74zm3.56 1.54l-3.42 0 0 0 -0 -0.15 -0 -0.16 -0.02 -0.19 -0.01 -0.19 -0.02 -0.19 -0.03 -0.23 -0.02 -0.2 -0.04 -0.23 3.28 -1.74 0.06 0.37 0.06 0.4 0.04 0.37 0.04 0.41 0.04 0.41 0.02 0.41 0.02 0.45 0 0.45 0 0zm0 0c0,1.72 -0.77,3.13 -1.71,3.13 -0.94,0 -1.71,-1.4 -1.71,-3.13l3.42 0zm-107.43 55.04l-0.24 -6.24 7.5 -1.03 7.17 -1.08 6.84 -1.12 6.52 -1.16 6.2 -1.21 5.89 -1.25 5.59 -1.29 5.29 -1.33 5 -1.37 4.71 -1.41 4.43 -1.44 4.16 -1.48 3.89 -1.51 3.63 -1.56 3.37 -1.58 3.12 -1.62 2.87 -1.64 2.64 -1.67 2.4 -1.7 2.17 -1.71 1.95 -1.74 1.73 -1.75 1.52 -1.76 1.32 -1.76 1.12 -1.75 0.93 -1.74 0.75 -1.72 0.59 -1.7 0.44 -1.68 0.3 -1.67 0.17 -1.68 0.06 -1.71 3.42 0 -0.08 2.49 -0.26 2.47 -0.44 2.43 -0.62 2.38 -0.8 2.3 -0.97 2.23 -1.16 2.16 -1.33 2.09 -1.52 2.02 -1.7 1.97 -1.9 1.91 -2.1 1.87 -2.3 1.82 -2.52 1.78 -2.74 1.74 -2.97 1.7 -3.2 1.66 -3.44 1.62 -3.7 1.58 -3.95 1.54 -4.21 1.5 -4.48 1.46 -4.76 1.43 -5.04 1.38 -5.33 1.34 -5.63 1.3 -5.92 1.26 -6.23 1.21 -6.55 1.17 -6.87 1.13 -7.19 1.08 -7.53 1.04zm0 0c-0.94,0.12 -1.76,-1.17 -1.83,-2.89 -0.07,-1.72 0.64,-3.22 1.58,-3.34l0.24 6.24z"/>
   </g>
   <path class="fil0" d="M1301.1 811.07l0.09 -34.97 -25.87 17.04 25.78 17.93zm0.05 -17.48m-12.89 -8.97m-0.04 17.48"/>
   <path class="fil4 str1" d="M863.06 727.26c-51.65,255.01 -36.65,217.24 2.74,487.82 24.76,98.55 -87.05,212.03 -58.51,355.67 29.34,130.62 62.19,233.17 60.75,367.47"/>
   <polygon class="fil2" points="844.46,1920.95 891.61,1920.95 868.04,1955.48 "/>
   <g>
    <rect class="fil2" transform="matrix(-8.73658E-002 -5.35671E-001 1.02511 -1.67192E-001 831.64 1204.91)" width="368.49" height="57.72"/>
    <path class="fil3" d="M858.16 1171.36l-0.44 -2.7c2.5,-0.29 4.63,0.24 6.37,1.59 1.74,1.32 2.81,3.25 3.22,5.76 0.47,2.87 -0.13,5.28 -1.83,7.26 -1.73,1.94 -4.3,3.21 -7.77,3.78 -3.22,0.52 -5.89,0.08 -8.05,-1.32 -2.19,-1.39 -3.51,-3.58 -3.98,-6.48 -0.37,-2.3 -0.09,-4.31 0.87,-5.98 0.95,-1.68 2.44,-2.8 4.48,-3.36l0.45 2.73c-1.3,0.48 -2.25,1.28 -2.83,2.36 -0.56,1.08 -0.72,2.4 -0.46,3.96 0.34,2.08 1.34,3.55 2.98,4.48 1.63,0.91 3.78,1.14 6.43,0.7 2.5,-0.41 4.4,-1.33 5.74,-2.78 1.31,-1.44 1.8,-3.13 1.48,-5.09 -0.28,-1.68 -1.01,-2.96 -2.24,-3.87 -1.2,-0.89 -2.69,-1.22 -4.41,-1.03z"/>
    <path id="_1_0" class="fil3" d="M846.92 1164.43l17.46 -2.85 0.42 2.57 -20.47 3.34 -0.65 -3.99 14.83 -7.63c0.43,-0.21 0.76,-0.39 0.97,-0.48 0.24,-0.13 0.46,-0.22 0.63,-0.28 -0.35,-0.03 -0.68,-0.04 -0.95,-0.08 -0.3,-0.04 -0.53,-0.06 -0.8,-0.1l-16.52 -2.72 -0.65 -3.98 20.48 -3.34 0.44 2.7 -17.46 2.85c0.33,0.01 0.62,0.05 0.95,0.08 0.3,0.04 0.63,0.07 0.93,0.11l16.52 2.71 0.43 2.62 -14.82 7.71c-0.24,0.13 -0.52,0.26 -0.79,0.39 -0.31,0.11 -0.6,0.24 -0.94,0.35z"/>
    <polygon id="_2_1" class="fil3" points="856.98,1116.28 836.51,1119.62 836.06,1116.83 856.53,1113.49 "/>
    <path id="_3_2" class="fil3" d="M855.81 1109.06l-20.47 3.34 -0.5 -3.05 13.3 -11.99c0.31,-0.28 0.57,-0.5 0.82,-0.72 0.29,-0.19 0.52,-0.38 0.76,-0.5l-16.6 2.7 -0.43 -2.65 20.48 -3.34 0.49 3.02 -13.5 12.23c-0.2,0.18 -0.41,0.36 -0.64,0.54 -0.24,0.16 -0.48,0.31 -0.74,0.47l16.6 -2.7 0.43 2.65z"/>
    <path id="_4_3" class="fil3" d="M842.51 1075.41l-0.44 -2.7c2.5,-0.29 4.63,0.24 6.37,1.59 1.74,1.32 2.81,3.25 3.22,5.76 0.47,2.87 -0.14,5.28 -1.83,7.26 -1.73,1.94 -4.3,3.21 -7.77,3.78 -3.22,0.52 -5.89,0.08 -8.05,-1.32 -2.19,-1.39 -3.51,-3.58 -3.98,-6.48 -0.37,-2.3 -0.09,-4.31 0.87,-5.98 0.95,-1.68 2.44,-2.8 4.48,-3.36l0.44 2.74c-1.3,0.47 -2.25,1.27 -2.83,2.36 -0.56,1.08 -0.72,2.4 -0.46,3.96 0.34,2.08 1.34,3.55 2.98,4.48 1.63,0.91 3.78,1.14 6.43,0.7 2.5,-0.41 4.4,-1.33 5.74,-2.78 1.31,-1.44 1.8,-3.13 1.48,-5.09 -0.28,-1.68 -1.01,-2.96 -2.24,-3.87 -1.2,-0.89 -2.69,-1.22 -4.41,-1.03z"/>
    <polygon id="_5_4" class="fil3" points="849.14,1068.19 828.67,1071.53 828.21,1068.74 836.61,1067.37 834.88,1056.75 826.48,1058.12 826.03,1055.33 846.5,1051.99 846.95,1054.78 837.36,1056.34 839.09,1066.97 848.69,1065.4 "/>
    <polygon id="_6_5" class="fil3" points="845.78,1047.6 825.31,1050.94 822.93,1036.33 825.46,1035.92 827.39,1047.76 833.52,1046.77 831.73,1035.83 834.12,1035.44 835.91,1046.38 842.77,1045.26 840.8,1033.19 843.37,1032.77 "/>
    <path id="_7_6" class="fil3" d="M836.22 1031.44l-0.44 -2.68c1.48,-0.27 2.59,-0.95 3.32,-2.06 0.72,-1.11 0.94,-2.46 0.68,-4.06 -0.26,-1.59 -0.81,-2.79 -1.61,-3.6 -0.83,-0.8 -1.79,-1.11 -2.96,-0.92 -1.57,0.26 -2.48,2.16 -2.72,5.74 -0.02,0.21 -0.03,0.36 -0.04,0.48 -0.2,2.89 -0.64,4.87 -1.32,5.89 -0.65,1.01 -1.72,1.65 -3.22,1.9 -1.82,0.3 -3.41,-0.12 -4.71,-1.28 -1.33,-1.16 -2.19,-2.83 -2.55,-5.05 -0.37,-2.28 -0.06,-4.14 0.87,-5.64 0.96,-1.47 2.44,-2.39 4.49,-2.75l0.43 2.65c-1.35,0.31 -2.33,0.96 -2.93,1.91 -0.57,0.97 -0.76,2.17 -0.52,3.62 0.22,1.36 0.68,2.4 1.41,3.13 0.74,0.73 1.59,1 2.59,0.84 1.6,-0.26 2.49,-2.13 2.73,-5.65 0.04,-0.5 0.06,-0.92 0.07,-1.18l0.04 -0.33c0.15,-2.28 0.48,-3.85 0.99,-4.67 0.37,-0.61 0.87,-1.13 1.48,-1.53 0.61,-0.39 1.33,-0.65 2.15,-0.79 1.96,-0.32 3.67,0.13 5.07,1.34 1.4,1.23 2.28,3.05 2.68,5.46 0.4,2.48 0.09,4.52 -0.93,6.12 -1.04,1.57 -2.71,2.6 -5.05,3.1z"/>
    <polygon id="_8_7" class="fil3" points="862.68,1134.5 837.89,1131.49 837.61,1129.73 862.4,1132.79 "/>
   </g>
   <rect class="fil5" x="1207.74" y="1008.33" width="175.94" height="50"/>
   <g>
    <path class="fil0" d="M1200.42 1033.19c0.52,0.08 0.92,1.11 0.88,2.3 -0.04,1.18 -0.49,2.07 -1.02,1.99l0.13 -4.28zm-48.13 -37.86l1.9 0 0 0 0 1.41 0.02 1.39 0.04 1.38 0.07 1.35 0.11 1.34 0.15 1.32 0.2 1.3 0.25 1.29 0.31 1.29 0.39 1.29 0.47 1.29 0.56 1.3 0.67 1.3 0.78 1.3 0.9 1.3 1.02 1.29 1.17 1.28 1.31 1.26 1.46 1.24 1.62 1.22 1.79 1.19 1.97 1.16 2.15 1.13 2.34 1.09 2.54 1.06 2.74 1.01 2.95 0.97 3.18 0.93 3.41 0.87 3.64 0.83 3.88 0.78 4.13 0.72 -0.13 4.28 -4.16 -0.72 -3.91 -0.78 -3.67 -0.83 -3.43 -0.88 -3.21 -0.93 -2.98 -0.98 -2.78 -1.03 -2.58 -1.07 -2.39 -1.11 -2.19 -1.16 -2.02 -1.19 -1.85 -1.23 -1.69 -1.27 -1.53 -1.31 -1.39 -1.34 -1.25 -1.37 -1.13 -1.41 -1 -1.45 -0.89 -1.48 -0.78 -1.52 -0.67 -1.56 -0.58 -1.58 -0.48 -1.61 -0.4 -1.63 -0.32 -1.64 -0.25 -1.64 -0.19 -1.63 -0.13 -1.61 -0.08 -1.59 -0.05 -1.56 -0.02 -1.54 -0 -1.5 0 0zm0 0c0,-1.18 0.43,-2.15 0.95,-2.15 0.52,0 0.95,0.96 0.95,2.15l-1.9 0zm0.15 -2.22l1.83 1.14 -0.02 0.18 -0.02 0.16 -0.01 0.12 -0.01 0.11 -0.01 0.17 -0 0.11 -0 0.11 -0 0.12 -1.9 0 0 -0.3 0 -0.3 0.02 -0.3 0.01 -0.25 0.02 -0.3 0.03 -0.3 0.03 -0.25 0.03 -0.23zm0 0c0.14,-1.14 0.67,-1.81 1.17,-1.5 0.5,0.31 0.8,1.5 0.67,2.64l-1.83 -1.14zm283.39 1.17c-0.15,-1.13 0.14,-2.33 0.65,-2.66 0.5,-0.33 1.04,0.32 1.18,1.46l-1.83 1.2zm1.98 1.05l-1.9 0 0 0 -0 -0.12 -0 -0.11 -0 -0.11 -0.01 -0.12 -0.01 -0.11 -0.02 -0.17 -0.02 -0.16 -0.02 -0.15 1.83 -1.2 0.03 0.26 0.03 0.25 0.02 0.25 0.03 0.3 0.02 0.3 0.02 0.3 0 0.3 0 0.3 0 0zm0 0c0,1.18 -0.43,2.15 -0.95,2.15 -0.52,0 -0.95,-0.96 -0.95,-2.15l1.9 0zm-41.43 41.93l-0.2 -4.27 3.48 -0.89 3.28 -0.93 3.07 -0.95 2.88 -0.99 2.69 -1.01 2.51 -1.04 2.33 -1.06 2.16 -1.09 2 -1.11 1.84 -1.13 1.69 -1.16 1.54 -1.17 1.41 -1.19 1.27 -1.2 1.14 -1.21 1.02 -1.22 0.91 -1.23 0.79 -1.23 0.69 -1.24 0.6 -1.23 0.51 -1.23 0.43 -1.22 0.36 -1.22 0.3 -1.23 0.24 -1.24 0.19 -1.24 0.15 -1.27 0.11 -1.3 0.08 -1.31 0.05 -1.34 0.03 -1.37 0.01 -1.39 1.9 0 -0.01 1.51 -0.03 1.52 -0.06 1.54 -0.09 1.55 -0.13 1.55 -0.18 1.57 -0.24 1.57 -0.31 1.56 -0.37 1.55 -0.45 1.53 -0.53 1.51 -0.62 1.48 -0.7 1.44 -0.79 1.42 -0.89 1.39 -0.99 1.35 -1.11 1.33 -1.22 1.3 -1.34 1.27 -1.47 1.24 -1.6 1.22 -1.74 1.19 -1.89 1.16 -2.04 1.14 -2.2 1.11 -2.37 1.08 -2.54 1.05 -2.72 1.02 -2.9 1 -3.1 0.96 -3.29 0.93 -3.5 0.9zm0 0c-0.52,0.13 -0.99,-0.72 -1.05,-1.9 -0.06,-1.18 0.32,-2.24 0.84,-2.37l0.2 4.27z"/>
   </g>
   <path class="fil3" d="M1227.2 1035.22l2.64 0c-0.11,2.42 -0.94,4.36 -2.5,5.81 -1.53,1.44 -3.53,2.17 -5.97,2.17 -2.81,0 -5,-0.94 -6.61,-2.86 -1.58,-1.94 -2.39,-4.58 -2.39,-7.97 0,-3.14 0.83,-5.61 2.5,-7.44 1.67,-1.86 3.94,-2.78 6.78,-2.78 2.25,0 4.11,0.58 5.56,1.75 1.44,1.17 2.28,2.75 2.5,4.78l-2.67 0c-0.25,-1.31 -0.86,-2.33 -1.8,-3.06 -0.94,-0.7 -2.17,-1.06 -3.7,-1.06 -2.03,0 -3.58,0.72 -4.72,2.14 -1.11,1.42 -1.67,3.42 -1.67,6 0,2.44 0.58,4.39 1.75,5.89 1.17,1.47 2.69,2.19 4.61,2.19 1.64,0 2.97,-0.5 4.03,-1.53 1.03,-1 1.58,-2.36 1.67,-4.03z"/>
   <path id="_1_8" class="fil3" d="M1235.53 1025.61l0 17.03 -2.5 0 0 -19.97 3.89 0 4.94 15.28c0.14,0.44 0.25,0.78 0.31,1 0.08,0.25 0.14,0.47 0.17,0.64 0.08,-0.33 0.14,-0.64 0.22,-0.89 0.08,-0.28 0.14,-0.5 0.22,-0.75l5.14 -15.28 3.89 0 0 19.97 -2.64 0 0 -17.03c-0.06,0.3 -0.14,0.58 -0.22,0.89 -0.08,0.28 -0.17,0.59 -0.25,0.86l-5.14 15.28 -2.56 0 -5.03 -15.28c-0.08,-0.25 -0.17,-0.53 -0.25,-0.8 -0.06,-0.31 -0.14,-0.61 -0.2,-0.94z"/>
   <polygon id="_2_9" class="fil3" points="1279.72,1042.64 1279.72,1022.67 1282.44,1022.67 1282.44,1042.64 "/>
   <path id="_3_10" class="fil3" d="M1286.77 1042.64l0 -19.97 2.97 0 9.33 14.5c0.22,0.33 0.39,0.61 0.56,0.89 0.14,0.3 0.28,0.56 0.36,0.8l0 -16.19 2.58 0 0 19.97 -2.94 0 -9.53 -14.72c-0.14,-0.22 -0.28,-0.44 -0.42,-0.69 -0.11,-0.25 -0.22,-0.5 -0.33,-0.78l0 16.2 -2.58 0z"/>
   <path id="_4_11" class="fil3" d="M1320.81 1035.22l2.64 0c-0.11,2.42 -0.94,4.36 -2.5,5.81 -1.53,1.44 -3.53,2.17 -5.97,2.17 -2.81,0 -5,-0.94 -6.61,-2.86 -1.58,-1.94 -2.39,-4.58 -2.39,-7.97 0,-3.14 0.83,-5.61 2.5,-7.44 1.67,-1.86 3.94,-2.78 6.78,-2.78 2.25,0 4.11,0.58 5.56,1.75 1.44,1.17 2.28,2.75 2.5,4.78l-2.67 0c-0.25,-1.31 -0.86,-2.33 -1.8,-3.06 -0.94,-0.7 -2.17,-1.06 -3.7,-1.06 -2.03,0 -3.58,0.72 -4.72,2.14 -1.11,1.42 -1.67,3.42 -1.67,6 0,2.44 0.58,4.39 1.75,5.89 1.17,1.47 2.69,2.19 4.61,2.19 1.64,0 2.97,-0.5 4.03,-1.53 1.03,-1 1.58,-2.36 1.67,-4.03z"/>
   <polygon id="_5_12" class="fil3" points="1326.64,1042.64 1326.64,1022.67 1329.36,1022.67 1329.36,1030.86 1339.72,1030.86 1339.72,1022.67 1342.44,1022.67 1342.44,1042.64 1339.72,1042.64 1339.72,1033.28 1329.36,1033.28 1329.36,1042.64 "/>
   <polygon id="_6_13" class="fil3" points="1346.73,1042.64 1346.73,1022.67 1360.98,1022.67 1360.98,1025.14 1349.43,1025.14 1349.43,1031.11 1360.09,1031.11 1360.09,1033.44 1349.43,1033.44 1349.43,1040.14 1361.2,1040.14 1361.2,1042.64 "/>
   <path id="_7_14" class="fil3" d="M1363.57 1036.06l2.61 0c0.03,1.44 0.5,2.61 1.44,3.47 0.94,0.86 2.19,1.28 3.75,1.28 1.56,0 2.78,-0.33 3.67,-0.97 0.89,-0.67 1.33,-1.53 1.33,-2.67 0,-1.53 -1.67,-2.69 -5.03,-3.47 -0.19,-0.06 -0.33,-0.08 -0.44,-0.11 -2.72,-0.64 -4.53,-1.36 -5.39,-2.17 -0.86,-0.78 -1.3,-1.89 -1.3,-3.36 0,-1.78 0.64,-3.22 1.94,-4.28 1.3,-1.08 3.03,-1.64 5.19,-1.64 2.22,0 3.94,0.58 5.22,1.69 1.25,1.14 1.89,2.7 1.92,4.7l-2.59 0c-0.08,-1.33 -0.56,-2.36 -1.36,-3.09 -0.83,-0.69 -1.94,-1.06 -3.36,-1.06 -1.33,0 -2.39,0.28 -3.2,0.86 -0.8,0.58 -1.19,1.36 -1.19,2.33 0,1.56 1.64,2.69 4.94,3.47 0.47,0.11 0.86,0.19 1.11,0.25l0.31 0.08c2.14,0.5 3.58,1.06 4.28,1.67 0.53,0.44 0.94,1 1.22,1.64 0.28,0.64 0.42,1.36 0.42,2.17 0,1.92 -0.7,3.47 -2.06,4.61 -1.39,1.14 -3.25,1.69 -5.61,1.69 -2.42,0 -4.3,-0.61 -5.67,-1.83 -1.33,-1.22 -2.06,-2.97 -2.17,-5.28z"/>
   <polygon id="_8_15" class="fil3" points="1261.53,1045.22 1268.22,1022.14 1269.95,1022.14 1263.2,1045.22 "/>
   <polygon class="fil2" points="1405.82,1016.67 1405.82,1050 1381.41,1033.33 "/>
   <polygon class="fil2" points="1183.33,1016.67 1183.33,1050 1207.74,1033.33 "/>
  </g>
 </g>
</svg>
