<?xml version="1.0" encoding="UTF-8"?>
<!DOCTYPE svg PUBLIC "-//W3C//DTD SVG 1.1//EN" "http://www.w3.org/Graphics/SVG/1.1/DTD/svg11.dtd">
<!-- Creator: CorelDRAW -->
<svg xmlns="http://www.w3.org/2000/svg" xml:space="preserve" version="1.1" style="shape-rendering:geometricPrecision; text-rendering:geometricPrecision; image-rendering:optimizeQuality; fill-rule:evenodd; clip-rule:evenodd"
viewBox="340 340 1600 1600"
 xmlns:xlink="http://www.w3.org/1999/xlink"
 xmlns:xodm="http://www.corel.com/coreldraw/odm/2003">
 <defs>
  <style type="text/css">
   <![CDATA[
    .str0 {stroke:gray;stroke-width:6.67;stroke-linecap:round;stroke-linejoin:round;stroke-miterlimit:22.926}
    .str1 {stroke:gray;stroke-width:6.67;stroke-linecap:round;stroke-linejoin:round;stroke-miterlimit:22.926;stroke-dasharray:66.661417 66.661417}
    .fil1 {fill:none;fill-rule:nonzero}
    .fil2 {fill:#D42F91}
    .fil3 {fill:#333333;fill-rule:nonzero}
    .fil0 {fill:#D42F91;fill-rule:nonzero}
   ]]>
  </style>
 </defs>
 <g id="Layer_x0020_1">
  <metadata id="CorelCorpID_0Corel-Layer"/>
  <g id="_105553221195872">
   <g>
    <path class="fil0" d="M929.56 901.61c0.03,1.86 -0.82,3.09 -1.91,2.74 -1.09,-0.35 -2,-2.15 -2.03,-4.02l3.94 1.28zm265.05 -118.62l1.22 6.84 0 0 -14.01 2.59 -13.8 2.72 -13.57 2.85 -13.34 2.96 -13.08 3.08 -12.81 3.18 -12.52 3.28 -12.22 3.37 -11.91 3.45 -11.56 3.53 -11.22 3.6 -10.85 3.66 -10.47 3.72 -10.07 3.77 -9.66 3.81 -9.23 3.85 -8.78 3.88 -8.32 3.9 -7.85 3.91 -7.35 3.92 -6.85 3.91 -6.31 3.91 -5.78 3.89 -5.22 3.86 -4.63 3.82 -4.04 3.78 -3.42 3.71 -2.79 3.61 -2.13 3.48 -1.46 3.28 -0.8 2.96 -0.21 2.53 -3.94 -1.28 0.35 -4.49 1.12 -4.2 1.78 -4.02 2.4 -3.93 3.01 -3.91 3.6 -3.9 4.19 -3.91 4.76 -3.93 5.32 -3.94 5.85 -3.94 6.39 -3.96 6.91 -3.95 7.41 -3.95 7.9 -3.94 8.37 -3.92 8.83 -3.89 9.27 -3.87 9.7 -3.83 10.1 -3.78 10.5 -3.73 10.88 -3.68 11.25 -3.61 11.59 -3.54 11.93 -3.46 12.25 -3.38 12.55 -3.29 12.83 -3.19 13.11 -3.08 13.37 -2.97 13.61 -2.85 13.83 -2.72 14.04 -2.59 0 0zm0 0c1.03,-0.18 2.15,1.2 2.48,3.09 0.33,1.89 -0.23,3.57 -1.26,3.76l-1.22 -6.84zm292.98 16.96l-3.25 2.56 -1.07 -2.3 -1.77 -2.5 -2.5 -2.57 -3.2 -2.53 -3.87 -2.42 -4.49 -2.3 -5.1 -2.14 -5.67 -1.99 -6.23 -1.81 -6.76 -1.65 -7.28 -1.48 -7.77 -1.3 -8.26 -1.13 -8.72 -0.95 -9.16 -0.78 -9.58 -0.59 -9.99 -0.42 -10.38 -0.23 -10.76 -0.05 -11.11 0.13 -11.45 0.32 -11.77 0.5 -12.07 0.69 -12.36 0.88 -12.63 1.07 -12.89 1.26 -13.12 1.45 -13.33 1.65 -13.54 1.84 -13.73 2.03 -13.89 2.23 -14.04 2.42 -1.22 -6.84 14.07 -2.43 13.91 -2.23 13.75 -2.04 13.56 -1.84 13.37 -1.65 13.15 -1.46 12.91 -1.26 12.66 -1.07 12.39 -0.89 12.11 -0.69 11.8 -0.5 11.48 -0.32 11.15 -0.13 10.79 0.05 10.43 0.23 10.03 0.42 9.63 0.6 9.21 0.78 8.77 0.96 8.32 1.14 7.85 1.32 7.37 1.5 6.87 1.67 6.35 1.85 5.82 2.04 5.28 2.22 4.73 2.41 4.17 2.62 3.61 2.86 3.06 3.15 2.5 3.56 1.88 4.09zm0 0c0.61,1.76 0.38,3.76 -0.52,4.47 -0.9,0.7 -2.13,-0.15 -2.74,-1.91l3.25 -2.56z"/>
   </g>
   <g>
    <path class="fil0" d="M926.67 1171.63c-0.13,1.54 -0.94,2.48 -1.81,2.09 -0.86,-0.38 -1.46,-1.94 -1.33,-3.48l3.13 1.39zm228.41 -74.91l0.42 5.74 0 0 -11.76 0.93 -11.6 1.06 -11.43 1.18 -11.24 1.3 -11.04 1.41 -10.82 1.52 -10.59 1.63 -10.35 1.72 -10.09 1.82 -9.83 1.91 -9.55 2 -9.25 2.09 -8.94 2.17 -8.61 2.24 -8.28 2.31 -7.93 2.37 -7.57 2.44 -7.19 2.49 -6.8 2.55 -6.39 2.59 -5.97 2.64 -5.54 2.68 -5.09 2.7 -4.63 2.73 -4.15 2.75 -3.65 2.76 -3.14 2.76 -2.6 2.73 -2.06 2.69 -1.48 2.57 -0.91 2.37 -0.39 2.06 -3.13 -1.39 0.67 -3.67 1.28 -3.36 1.81 -3.15 2.31 -3.03 2.81 -2.95 3.3 -2.9 3.78 -2.87 4.26 -2.82 4.71 -2.79 5.17 -2.74 5.6 -2.71 6.03 -2.66 6.44 -2.62 6.84 -2.56 7.22 -2.51 7.61 -2.45 7.96 -2.39 8.31 -2.31 8.65 -2.25 8.97 -2.17 9.27 -2.09 9.57 -2.01 9.85 -1.92 10.12 -1.82 10.37 -1.73 10.61 -1.63 10.85 -1.52 11.05 -1.41 11.26 -1.3 11.45 -1.18 11.61 -1.06 11.78 -0.93 0 0zm0 0c0.87,-0.06 1.67,1.17 1.78,2.76 0.11,1.58 -0.5,2.92 -1.36,2.98l-0.42 -5.74zm239.76 39.11l-2.9 1.83 -0.69 -1.98 -1.24 -2.2 -1.84 -2.33 -2.42 -2.36 -2.98 -2.33 -3.5 -2.27 -4.01 -2.2 -4.5 -2.12 -4.97 -2.03 -5.43 -1.94 -5.87 -1.84 -6.29 -1.74 -6.7 -1.64 -7.09 -1.53 -7.47 -1.42 -7.84 -1.31 -8.19 -1.2 -8.53 -1.08 -8.85 -0.96 -9.16 -0.84 -9.45 -0.72 -9.74 -0.59 -10 -0.47 -10.25 -0.33 -10.49 -0.2 -10.72 -0.07 -10.93 0.07 -11.12 0.21 -11.31 0.35 -11.47 0.5 -11.63 0.64 -11.77 0.79 -0.42 -5.74 11.79 -0.79 11.65 -0.64 11.5 -0.5 11.33 -0.35 11.15 -0.21 10.95 -0.07 10.74 0.07 10.51 0.2 10.28 0.33 10.02 0.47 9.76 0.59 9.48 0.72 9.19 0.85 8.88 0.96 8.56 1.09 8.23 1.2 7.87 1.32 7.52 1.43 7.14 1.55 6.75 1.65 6.35 1.76 5.94 1.86 5.51 1.97 5.07 2.07 4.62 2.17 4.15 2.28 3.69 2.39 3.21 2.52 2.73 2.66 2.25 2.86 1.76 3.14 1.2 3.53zm0 0c0.35,1.5 -0.01,3.13 -0.81,3.64 -0.8,0.5 -1.74,-0.31 -2.09,-1.81l2.9 -1.83z"/>
   </g>
   <path class="fil1 str0" d="M1381.03 1095.04c-2.89,17.54 -14.66,58.42 -20.69,77.06 -7.22,22.27 -7.86,45.75 -5.75,69.07 8.77,96.61 12.56,60.05 4.08,117.48 -0.43,22.89 -151.63,173.94 -189.23,194.61 -39.99,21.98 -64.08,18.87 -64.08,18.87m-158.92 -396.8c-6.62,7.81 -14.2,15.2 -22.9,21.98 -39.23,30.98 -59.7,56.57 -79.32,89.83 -19.61,33.26 -76.33,102.35 -76.33,197.88 0,64.82 0.43,121.11 102.78,401.73m117.72 -877.13c0,0 6.61,43.22 -5.52,91.96m74.59 326.29c0,0 73.35,72.5 59.7,432.43m-31.21 -373.41c0,0 -0.07,-79.57 -24.52,-134.36 -32.98,-73.92 -132.59,-161.48 -198.67,-93.83m746.25 564.07c-77.9,-233.44 -167.43,-345.48 -252.07,-458.49m-249.05 225.05c64.99,11.69 120.77,217.69 175.59,257.33m104.88 -841.77c-0.09,6.23 -0.28,12.31 -0.56,18.26m3.99 -70.72c0,6.24 -0.76,10.37 -1.54,14.49m-376.02 -559.84c10.65,46.6 22.82,96.3 22.82,96.3m153.64 -127.27l22.69 92.01m-278.53 54.37c-11.28,6.65 -28.37,16.13 -48,34.98m137.37 -107.52c0.96,26.37 -25.31,38.38 -61.48,57.25m-46.56 228.42c-20.28,76.06 -57.86,89.84 -76.62,159.56 -13.27,49.31 -46.19,128.87 -68.78,143.03m277.41 -452.85c28.56,2.57 42.26,3.17 76.59,2.2 0,0 49.19,-2.6 68.46,7.91m-226.15 -26.17c8.12,3.07 20.17,6.32 31.26,8.74m-348.51 507.45c0,0 42.59,-69.72 146.03,-42.3 103.44,27.42 167.67,76.63 243.39,53.72 25.69,-8.13 34.19,-23.64 65.75,-24.35 33.5,-0.76 64.4,4.82 78.34,0.51 13.94,-4.31 42.59,-14.45 52.23,-2.03 9.63,12.42 -4.82,32.45 -24.09,35.62 -17.97,2.95 -33.07,4.92 -45.93,19.15 -0.93,1.03 -1.85,2.12 -2.75,3.28"/>
   <path class="fil1 str0" d="M1021.33 411.1c62.87,60.17 50.2,100.4 129.81,155.67"/>
   <path class="fil1 str0" d="M1274.46 474.13c-10.71,-2.78 -48.67,-9.79 -69.41,-39.76m245.91 427.98c-2.58,44.7 10.13,59.38 -2.69,86.72m90.59 -160.4c0,0 -56.89,8.02 -77.56,31.42m-224.98 -237.06c0,0 9.6,-21.87 66.27,-55.2 5.13,-3.02 11.5,-6.47 15.35,-9.27"/>
   <path class="fil1 str0" d="M1218.74 543.61c0,0 0.68,-22.99 -3.04,-40.23m-174.09 344.3c-17.24,-22.82 -113.37,-12.48 -130.54,-95.21"/>
   <path class="fil1 str0" d="M1238.51 1081.94c0,0 -6.58,4.56 -16.04,6.43 -0.34,-2.87 -8.62,-18.76 -14.37,-18.43 7.94,-1.86 13.07,-4.13 18.45,-4.18"/>
   <path class="fil1 str0" d="M1182.56 1073.28c0,0 -7.43,-7.8 -15.96,-5.8 -6.46,1.52 -5.07,7.12 -5.07,7.12m-3.81 -0.15c0,0 -12.04,-7.63 -24.33,-1.34m360.52 -124.03c0,0 -41.58,-5.24 -54.43,3.55 -12.85,8.79 -35.83,13.52 -35.83,13.52l-35.5 2.03c0,0 -14.87,8.45 -26.37,11.83 -11.49,3.38 -14.54,11.23 -13.86,16.77 0.68,5.54 5.75,22.66 44.96,11.06 8.11,-2.48 27.04,-5.86 43.61,0.56 0.51,3.38 7.27,13.02 14.2,17.07m-129.27 7.39c1.52,2.42 2.5,3.93 2.5,3.93l40.24 36.5c2.17,1.97 4.87,3.26 7.76,3.73 10.6,1.7 38.16,6.6 57.97,14.37 25.02,9.8 32.62,4.4 32.62,4.4 0,0 48.85,-47.33 74.7,-91.61 5.92,-9.97 6.09,-14.03 6.09,-14.03 4.06,-53.41 84.51,-141.3 34.48,-206.2 -34.48,-41.92 -40.57,-98.71 -87.89,-168.35 0,0 -8.11,-39.21 -37.86,-79.78 -28.76,-39.72 -86.48,-51.93 -119.24,-55.17m-10.29 520.29c-4.54,-1.17 -9.84,-0.87 -15.85,2.19 -0.76,0.39 -1.12,1.28 -0.8,2.07 0.13,0.31 0.27,0.64 0.41,0.97m135.68 36.47c0,0 -20.67,-4.31 -28.78,6.33 -5.75,-1.35 -18.93,-3.84 -30.09,-3.78 -24,-11.94 -29.92,-15.49 -29.92,-15.49l-11.8 -11.73m116.39 79.15c0,0 -7.98,10.29 -15.85,9.02 -7.86,-1.27 -15.46,-9.38 -30.93,-10.27 -14.99,-0.86 -37.26,-3.74 -56.04,-16.05 -1.31,-0.86 -2.26,-2.15 -2.75,-3.64 -1.71,-5.31 -3.39,-15.24 -4.34,-17.7m-14.13 -65.93c0,0 -2.62,-17.31 15.39,-11.76m-1.26 -0.36c0,0 -3.06,-17.89 15.46,-10.81m6.73 42.16c0,0 2.03,6.04 1.91,7.67 2.41,2.77 7.79,10.9 9.47,24.9m3.77 -34.49c0,0 5.27,12.49 5.78,22.5 7.48,5.7 10.14,7.6 11.15,10.27 2.79,0 4.06,0 4.06,0m-19.01 -27.47c0,0 8.87,7.12 11.15,11.08 3.93,-2.12 10.9,-5.38 16.61,-0.77m-7.22 -2.31c0,0 1.62,-9.75 12.41,-18.28m30.31 48.4c0,0 -19.69,-19.72 -22.33,-47.32m-84.62 10.41l0.67 4.33m-125.46 88.16l6.77 22.31c0.13,-0.13 -3.72,-17.37 -1.43,-23.29m-28.52 16.98l5.98 16.93m285.75 -194.27c0,0 9.3,-2.68 17.41,-2.68m-98.46 -11.82c-22.94,25.06 -109.12,87.43 -173.64,132.53m165.63 -97.95c7.59,-9.35 18.98,-19.01 19.26,-24.77 0.13,-7.07 0.07,-15.37 0.74,-18.91m-63.68 83.87c-27.38,21.68 -61.98,45.95 -95.84,70.23m-69.19 51.62c8.22,-6.58 16.97,-13.31 26.06,-20.13m104.65 -106.82c-59.82,15.64 -233.57,51.38 -324.96,-31.75 5.07,25.28 7.61,34.41 7.61,34.41 0,0 67.56,62.93 272.93,29.67m-281.37 -79.77c0,0 0.77,5.84 3.32,17.91m-39.85 -96.6c103.44,62.2 150.77,-101.75 150.77,-101.75 0,0 -7.84,-31.28 -57.13,-136.57 -53.41,-114.09 -96.06,-121 -107.67,-114.09l31.27 -17.58c56.68,1.69 144.13,188.85 281.06,210.53 24.83,3.93 50.42,-0.7 71.77,-13.98 35.08,-21.83 70.51,-72.03 10.05,-184.56 0,0 -26.13,-41.98 -47.86,-45.66m-327.29 406.5c0,0 -44.06,-26.63 -65.64,-61.46m60.67 58.62c0,0 -1.86,3.89 5.75,15.89m477.95 -199.78c34.82,68.62 42.63,96 39.25,137.92 -3.89,48.21 -69.68,100.28 -74.62,102.44"/>
   <path class="fil1 str1" d="M1020.57 905.78c25.59,39 25.59,74.66 30.5,106"/>
   <path class="fil1 str0" d="M974.36 955.27c-15.58,-11.99 -34.54,-60.56 -30.78,-62.8 0,0 102.87,64.05 150.17,-100.12l-5.15 -17.52m-164.8 -250.65c0,0 -3.93,1.83 -3.64,7.16m472.08 52.67c0,0 16.52,28.15 15.5,68.71 -0.13,5.05 -0.13,5.05 -0.07,6.82m13.85 33.15c0,0 -87.13,-215.67 -118.39,-217.33 0,0 -25.74,-1.34 -35.9,-3.07"/>
   <path class="fil1 str1" d="M970.71 1175.34c-16.66,15.71 -34.73,34.39 -53.15,59.09m136.15 -198.89c0.96,25.17 -2.78,44.1 -10.11,60.01"/>
   <path class="fil1 str0" d="M1325.66 1056.51c-2.2,166.22 -102.87,507.57 -220.3,515.63m180.39 -858.74c41.91,83.52 61.93,160.69 52.3,208.82 -1.78,8.88 -7.11,31.83 -10.21,40.34 -1.27,3.47 -2.19,8.43 -2.19,17.41m-257.24 -43.02c0,0 53.71,59.12 186.48,45.43m76.23 4.13c-0.94,1.27 -1.55,10.18 3.35,15.47 15.17,-3.42 21.24,-7.73 21.24,-7.73 0,0 2.48,-16 -5.69,-17.2"/>
   <rect class="fil2" transform="matrix(0.868998 -1.5523E-001 0.15523 0.868998 1054.72 916.213)" width="368.49" height="57.72"/>
   <path class="fil3" d="M1160.04 924.67l2.3 -0.41c0.28,2.12 -0.15,3.93 -1.27,5.43 -1.11,1.49 -2.73,2.43 -4.85,2.81 -2.43,0.43 -4.48,-0.04 -6.18,-1.46 -1.68,-1.44 -2.79,-3.61 -3.31,-6.55 -0.49,-2.73 -0.15,-5 1.02,-6.85 1.16,-1.87 3,-3.02 5.45,-3.46 1.96,-0.35 3.66,-0.13 5.09,0.66 1.44,0.79 2.41,2.04 2.92,3.76l-2.32 0.41c-0.42,-1.09 -1.11,-1.89 -2.04,-2.37 -0.93,-0.46 -2.05,-0.58 -3.37,-0.34 -1.76,0.31 -3,1.18 -3.77,2.59 -0.74,1.4 -0.91,3.23 -0.52,5.47 0.38,2.12 1.19,3.72 2.43,4.84 1.24,1.1 2.68,1.49 4.35,1.19 1.43,-0.26 2.5,-0.9 3.26,-1.95 0.74,-1.03 1.01,-2.3 0.82,-3.76z"/>
   <path id="_1" class="fil3" d="M1165.79 915.03l2.64 14.79 -2.17 0.39 -3.1 -17.35 3.38 -0.6 6.67 12.5c0.19,0.37 0.34,0.64 0.42,0.82 0.11,0.2 0.19,0.39 0.25,0.53 0.02,-0.3 0.02,-0.57 0.05,-0.8 0.03,-0.26 0.05,-0.46 0.08,-0.69l2.09 -14.07 3.37 -0.6 3.1 17.35 -2.29 0.41 -2.64 -14.79c0,0.28 -0.03,0.53 -0.06,0.8 -0.03,0.26 -0.05,0.54 -0.08,0.79l-2.09 14.07 -2.22 0.4 -6.74 -12.49c-0.11,-0.2 -0.22,-0.43 -0.34,-0.66 -0.09,-0.26 -0.22,-0.51 -0.31,-0.79z"/>
   <polygon id="_2" class="fil3" points="1206.81,922.96 1203.72,905.61 1206.08,905.19 1209.18,922.54 "/>
   <path id="_3" class="fil3" d="M1212.94 921.87l-3.1 -17.35 2.58 -0.46 10.35 11.15c0.25,0.25 0.43,0.47 0.62,0.69 0.17,0.24 0.33,0.44 0.44,0.64l-2.51 -14.06 2.24 -0.4 3.1 17.35 -2.56 0.46 -10.56 -11.31c-0.15,-0.17 -0.31,-0.34 -0.47,-0.54 -0.13,-0.2 -0.27,-0.4 -0.41,-0.62l2.51 14.06 -2.24 0.4z"/>
   <path id="_4" class="fil3" d="M1241.34 910.15l2.3 -0.41c0.28,2.12 -0.15,3.93 -1.27,5.43 -1.1,1.49 -2.73,2.43 -4.85,2.81 -2.43,0.43 -4.48,-0.04 -6.18,-1.46 -1.68,-1.44 -2.79,-3.61 -3.31,-6.55 -0.49,-2.73 -0.15,-5.01 1.02,-6.86 1.16,-1.87 3,-3.02 5.45,-3.46 1.96,-0.35 3.66,-0.13 5.09,0.66 1.44,0.79 2.41,2.03 2.92,3.76l-2.32 0.41c-0.42,-1.09 -1.11,-1.89 -2.04,-2.37 -0.93,-0.46 -2.05,-0.58 -3.37,-0.34 -1.76,0.31 -3,1.18 -3.77,2.59 -0.74,1.4 -0.91,3.23 -0.52,5.47 0.38,2.12 1.19,3.72 2.43,4.84 1.24,1.1 2.68,1.49 4.35,1.19 1.43,-0.26 2.5,-0.89 3.26,-1.95 0.73,-1.03 1.01,-2.3 0.82,-3.76z"/>
   <polygon id="_5" class="fil3" points="1247.56,915.68 1244.46,898.33 1246.82,897.91 1248.09,905.03 1257.09,903.43 1255.82,896.31 1258.19,895.88 1261.28,913.23 1258.92,913.65 1257.46,905.52 1248.46,907.13 1249.92,915.26 "/>
   <polygon id="_6" class="fil3" points="1265,912.57 1261.91,895.22 1274.28,893.01 1274.67,895.15 1264.63,896.95 1265.56,902.14 1274.82,900.48 1275.19,902.51 1265.92,904.17 1266.96,909.98 1277.19,908.15 1277.57,910.32 "/>
   <path id="_7" class="fil3" d="M1278.61 904.24l2.26 -0.41c0.25,1.25 0.84,2.19 1.8,2.79 0.95,0.6 2.11,0.77 3.45,0.53 1.35,-0.24 2.36,-0.72 3.04,-1.41 0.67,-0.72 0.92,-1.53 0.75,-2.52 -0.24,-1.33 -1.87,-2.08 -4.91,-2.24 -0.18,-0.02 -0.3,-0.02 -0.4,-0.03 -2.46,-0.14 -4.14,-0.48 -5.02,-1.05 -0.87,-0.54 -1.43,-1.44 -1.66,-2.72 -0.28,-1.55 0.06,-2.9 1.03,-4.02 0.96,-1.14 2.37,-1.89 4.26,-2.23 1.93,-0.34 3.52,-0.1 4.8,0.67 1.26,0.79 2.06,2.05 2.39,3.78l-2.24 0.4c-0.28,-1.15 -0.85,-1.96 -1.66,-2.46 -0.83,-0.48 -1.85,-0.62 -3.08,-0.4 -1.16,0.2 -2.04,0.61 -2.64,1.24 -0.61,0.63 -0.83,1.37 -0.68,2.21 0.24,1.35 1.84,2.09 4.83,2.25 0.43,0.02 0.78,0.04 1,0.04l0.28 0.03c1.93,0.1 3.28,0.36 3.97,0.78 0.53,0.31 0.98,0.72 1.31,1.24 0.34,0.51 0.57,1.11 0.7,1.81 0.3,1.67 -0.06,3.12 -1.07,4.32 -1.03,1.2 -2.56,1.98 -4.61,2.34 -2.09,0.37 -3.83,0.14 -5.2,-0.72 -1.35,-0.85 -2.24,-2.26 -2.7,-4.24z"/>
   <polygon id="_8" class="fil3" points="1191.41,928.03 1193.65,906.94 1195.14,906.67 1192.86,927.77 "/>
   <g>
    <path class="fil0" d="M1042.24 941.27c1.06,-0.05 2.13,1.45 2.39,3.35 0.26,1.9 -0.38,3.48 -1.44,3.52l-0.95 -6.87zm-116.28 -37.28l3.75 -0.67 0 0 0.41 2.06 0.48 2 0.57 1.95 0.67 1.91 0.78 1.87 0.89 1.84 1.04 1.82 1.19 1.8 1.37 1.78 1.55 1.76 1.75 1.72 1.96 1.69 2.19 1.63 2.42 1.58 2.67 1.52 2.92 1.45 3.19 1.37 3.46 1.29 3.75 1.21 4.04 1.11 4.35 1.02 4.66 0.91 4.99 0.81 5.32 0.7 5.67 0.58 6.02 0.46 6.39 0.35 6.77 0.22 7.16 0.09 7.56 -0.05 7.97 -0.18 8.39 -0.33 0.95 6.87 -8.42 0.33 -8.01 0.18 -7.59 0.05 -7.2 -0.09 -6.82 -0.22 -6.44 -0.35 -6.08 -0.47 -5.73 -0.59 -5.39 -0.71 -5.06 -0.82 -4.74 -0.93 -4.44 -1.04 -4.14 -1.14 -3.86 -1.24 -3.59 -1.34 -3.33 -1.43 -3.08 -1.53 -2.85 -1.62 -2.62 -1.71 -2.41 -1.8 -2.2 -1.9 -2.01 -1.98 -1.83 -2.07 -1.66 -2.17 -1.49 -2.25 -1.33 -2.33 -1.17 -2.4 -1.02 -2.46 -0.87 -2.5 -0.74 -2.53 -0.61 -2.54 -0.51 -2.54 0 0zm0 0c-0.33,-1.89 0.23,-3.57 1.26,-3.76 1.03,-0.18 2.15,1.2 2.48,3.09l-3.75 0.67zm-0.33 -3.65l3.94 1.28 0.01 0.23 0.01 0.23 0.02 0.26 0.02 0.23 0.02 0.19 0.02 0.21 0.01 0.07 0.01 0.08 0.02 0.09 0.02 0.09 -3.75 0.67 -0.04 -0.24 -0.04 -0.24 -0.04 -0.25 -0.04 -0.26 -0.06 -0.45 -0.04 -0.48 -0.03 -0.44 -0.02 -0.41 -0.02 -0.44 -0.01 -0.44zm0 0c-0.03,-1.86 0.82,-3.09 1.91,-2.74 1.09,0.35 2,2.16 2.03,4.02l-3.94 -1.28zm558.71 -97.83c-0.61,-1.76 -0.38,-3.77 0.52,-4.47 0.9,-0.7 2.13,0.16 2.74,1.92l-3.26 2.55zm4.21 0.98l-3.75 0.67 0 0.03 -0.03 -0.17 -0.04 -0.18 -0.06 -0.22 -0.06 -0.22 -0.06 -0.2 -0.07 -0.22 -0.07 -0.23 -0.08 -0.24 3.26 -2.55 0.14 0.4 0.13 0.42 0.13 0.41 0.12 0.44 0.12 0.44 0.1 0.43 0.11 0.48 0.09 0.49 0 0.03zm-0 -0.03c0.34,1.89 -0.21,3.58 -1.24,3.78 -1.03,0.2 -2.15,-1.17 -2.5,-3.06l3.74 -0.72zm-96.11 84.41l-1.49 -6.78 7.98 -2.6 7.54 -2.61 7.12 -2.61 6.7 -2.6 6.31 -2.61 5.91 -2.6 5.53 -2.59 5.16 -2.59 4.8 -2.58 4.45 -2.58 4.11 -2.57 3.79 -2.56 3.47 -2.55 3.17 -2.54 2.87 -2.52 2.58 -2.5 2.31 -2.48 2.05 -2.46 1.79 -2.43 1.56 -2.41 1.32 -2.37 1.11 -2.33 0.91 -2.29 0.72 -2.24 0.55 -2.2 0.38 -2.15 0.24 -2.11 0.11 -2.08 -0.01 -2.06 -0.12 -2.04 -0.23 -2.05 -0.32 -2.04 3.75 -0.67 0.41 2.59 0.29 2.64 0.16 2.68 0.01 2.7 -0.14 2.7 -0.31 2.72 -0.48 2.71 -0.67 2.69 -0.86 2.68 -1.06 2.67 -1.26 2.65 -1.47 2.63 -1.7 2.63 -1.93 2.62 -2.17 2.61 -2.43 2.61 -2.69 2.61 -2.96 2.61 -3.26 2.61 -3.56 2.61 -3.87 2.61 -4.19 2.61 -4.52 2.62 -4.86 2.61 -5.22 2.62 -5.59 2.62 -5.96 2.62 -6.35 2.62 -6.74 2.62 -7.16 2.62 -7.58 2.61 -8.01 2.62zm0 0c-1,0.32 -2.16,-0.94 -2.57,-2.81 -0.41,-1.87 0.07,-3.65 1.08,-3.97l1.49 6.78z"/>
   </g>
   <path class="fil0" d="M1039.89 961.05l-4.17 -29.43 23.77 11.31 -19.61 18.11zm-2.09 -14.71m9.81 -9.06m2.08 14.72"/>
   <path class="fil0" d="M1404.19 894.91l-6.28 -29.05 -18.39 18.84 24.67 10.21zm-3.14 -14.52m-12.33 -5.11m3.14 14.53"/>
   <g>
    <path class="fil0" d="M1016.04 1213.95c0.87,0.05 1.63,1.38 1.68,2.96 0.05,1.58 -0.61,2.83 -1.49,2.78l-0.19 -5.74zm-92.54 -40.7l3.14 -0.19 0 -0.02 0.16 1.72 0.23 1.69 0.3 1.66 0.39 1.63 0.47 1.61 0.58 1.59 0.7 1.59 0.83 1.58 0.97 1.58 1.13 1.58 1.3 1.57 1.47 1.56 1.66 1.53 1.86 1.51 2.07 1.48 2.28 1.44 2.51 1.41 2.74 1.36 2.98 1.31 3.23 1.26 3.49 1.2 3.76 1.16 4.04 1.09 4.33 1.03 4.61 0.97 4.92 0.9 5.24 0.83 5.56 0.76 5.89 0.69 6.23 0.61 6.57 0.54 6.94 0.45 0.19 5.74 -6.96 -0.45 -6.6 -0.54 -6.26 -0.61 -5.92 -0.69 -5.59 -0.77 -5.28 -0.84 -4.96 -0.91 -4.67 -0.98 -4.37 -1.05 -4.1 -1.11 -3.82 -1.17 -3.56 -1.24 -3.31 -1.3 -3.07 -1.35 -2.84 -1.41 -2.62 -1.47 -2.41 -1.52 -2.2 -1.58 -2.01 -1.63 -1.83 -1.69 -1.66 -1.75 -1.48 -1.8 -1.33 -1.87 -1.18 -1.93 -1.03 -1.98 -0.89 -2.04 -0.76 -2.08 -0.63 -2.11 -0.5 -2.13 -0.39 -2.14 -0.29 -2.14 -0.2 -2.15 0 -0.02zm0 0.02c-0.11,-1.58 0.5,-2.92 1.36,-2.98 0.87,-0.06 1.67,1.17 1.78,2.76l-3.14 0.23zm0.04 -3.03l3.13 1.38 -0.02 0.21 -0.02 0.2 -0 0.17 -0.01 0.17 0 0.17 0 0.2 0 0.17 0.01 0.14 -3.14 0.19 -0.02 -0.42 -0.01 -0.39 -0 -0.35 0 -0.39 0.01 -0.38 0.02 -0.39 0.02 -0.35 0.02 -0.35zm0 0c0.13,-1.54 0.94,-2.48 1.8,-2.1 0.86,0.38 1.46,1.94 1.33,3.48l-3.13 -1.38zm468.41 -32.6c-0.35,-1.5 0.02,-3.13 0.81,-3.63 0.8,-0.5 1.74,0.31 2.09,1.82l-2.91 1.81zm3.38 1.18l-3.14 0.23 0 0.01 -0.01 -0.15 -0.02 -0.13 -0.02 -0.17 -0.03 -0.2 -0.03 -0.17 -0.04 -0.2 -0.04 -0.2 -0.05 -0.2 2.91 -1.81 0.08 0.35 0.07 0.34 0.07 0.35 0.07 0.37 0.06 0.35 0.06 0.39 0.05 0.43 0.04 0.41 0 0.01zm0 -0.01c0.11,1.58 -0.49,2.93 -1.36,2.99 -0.87,0.07 -1.67,-1.17 -1.78,-2.75l3.14 -0.24zm-86.37 61.23l-0.65 -5.71 6.8 -1.46 6.43 -1.5 6.09 -1.54 5.74 -1.57 5.41 -1.6 5.09 -1.64 4.78 -1.66 4.47 -1.69 4.18 -1.71 3.88 -1.74 3.61 -1.77 3.34 -1.78 3.07 -1.8 2.83 -1.82 2.57 -1.83 2.34 -1.84 2.11 -1.84 1.9 -1.85 1.69 -1.85 1.48 -1.85 1.3 -1.83 1.11 -1.83 0.94 -1.8 0.78 -1.78 0.64 -1.76 0.5 -1.74 0.38 -1.72 0.27 -1.69 0.17 -1.69 0.07 -1.7 -0.01 -1.7 -0.09 -1.71 3.14 -0.23 0.11 2.17 0.01 2.19 -0.1 2.21 -0.21 2.23 -0.35 2.23 -0.48 2.2 -0.63 2.19 -0.78 2.17 -0.94 2.13 -1.1 2.1 -1.26 2.07 -1.44 2.04 -1.63 2.02 -1.81 1.99 -2.02 1.97 -2.22 1.94 -2.44 1.91 -2.67 1.9 -2.91 1.87 -3.15 1.85 -3.4 1.82 -3.67 1.79 -3.94 1.77 -4.22 1.74 -4.52 1.71 -4.82 1.68 -5.13 1.65 -5.45 1.61 -5.78 1.57 -6.12 1.54 -6.46 1.5 -6.82 1.47zm0 0c-0.85,0.17 -1.7,-0.96 -1.87,-2.54 -0.18,-1.57 0.37,-3 1.23,-3.17l0.65 5.71z"/>
   </g>
   <path class="fil0" d="M1012.41 1230.04l-0.91 -24.59 18.6 11.35 -17.7 13.23zm-0.45 -12.29m8.85 -6.62m0.45 12.3"/>
   <path class="fil0" d="M1318.04 1206.85l-2.68 -24.46 -16.76 13.94 19.43 10.52zm-1.33 -12.22m-9.72 -5.26m1.34 12.23"/>
   <path class="fil1 str0" d="M1165.55 1125.81c1.53,1.53 22.35,21.54 25.13,27.11m-6.39 -8.04c0,0 4.95,-2.24 10.81,-2.89 2.91,-0.32 6.03,-0.26 8.89,0.67m-8.89 -0.67c0,0 9.65,-20.88 37.03,-12.89m1.8 -36.2c0,0 9.99,38.92 11.13,49.09 -1.52,3.46 -26.76,43.14 -31.44,46.94 -4.68,3.8 -22.94,11.92 -22.94,11.92 0,0 -2.38,7.35 -6.39,8.87 -4.01,1.52 -16.18,2.79 -22.01,3.55 -4.81,3.04 -17.05,10.07 -27.17,9.42 -71.9,-4.65 -73.98,-33.25 -120.89,-43.93 -120.02,-18.4 -347.84,43.47 -401.59,-4.1 -4.61,-4.65 -5.07,11.23 0,-33.91 5.07,-45.14 18.25,-158.35 50.7,-222.25 4.96,-10.27 70.98,-139 78,-184.67 8.07,-52.55 24.93,-85.69 24.93,-85.69 40.06,-79.61 134.12,-100.14 164.29,-93.38"/>
   <rect class="fil2" transform="matrix(0.728814 -5.32164E-002 0.0532165 0.728815 1028.47 1194.4)" width="368.49" height="57.72"/>
   <path class="fil3" d="M1114.46 1210.4l1.92 -0.14c0.05,1.76 -0.46,3.23 -1.51,4.36 -1.04,1.13 -2.46,1.77 -4.23,1.9 -2.05,0.15 -3.7,-0.42 -4.97,-1.74 -1.26,-1.33 -1.98,-3.21 -2.16,-5.68 -0.17,-2.29 0.31,-4.13 1.43,-5.56 1.11,-1.44 2.72,-2.23 4.79,-2.38 1.64,-0.12 3.03,0.2 4.14,0.98 1.11,0.77 1.8,1.88 2.07,3.35l-1.94 0.14c-0.26,-0.94 -0.76,-1.65 -1.48,-2.13 -0.72,-0.46 -1.63,-0.65 -2.74,-0.57 -1.48,0.11 -2.57,0.72 -3.33,1.81 -0.74,1.09 -1.04,2.58 -0.9,4.46 0.13,1.78 0.66,3.17 1.59,4.2 0.93,1.01 2.08,1.46 3.47,1.35 1.19,-0.09 2.14,-0.52 2.85,-1.33 0.69,-0.78 1.03,-1.8 1,-3.02z"/>
   <path id="_1_0" class="fil3" d="M1120.02 1202.95l0.91 12.41 -1.82 0.13 -1.06 -14.55 2.83 -0.2 4.41 10.86c0.13,0.32 0.22,0.56 0.28,0.72 0.07,0.18 0.13,0.33 0.15,0.45 0.04,-0.25 0.07,-0.47 0.11,-0.66 0.05,-0.2 0.08,-0.37 0.12,-0.56l2.93 -11.4 2.83 -0.2 1.06 14.55 -1.92 0.14 -0.91 -12.4c-0.02,0.22 -0.07,0.43 -0.12,0.66 -0.04,0.21 -0.09,0.43 -0.13,0.64l-2.93 11.4 -1.86 0.14 -4.47 -10.86c-0.07,-0.18 -0.15,-0.37 -0.22,-0.57 -0.06,-0.22 -0.13,-0.44 -0.19,-0.68z"/>
   <polygon id="_2_1" class="fil3" points="1153.11,1213.01 1152.05,1198.46 1154.03,1198.31 1155.09,1212.86 "/>
   <path id="_3_2" class="fil3" d="M1158.25 1212.63l-1.06 -14.55 2.17 -0.16 7.57 10.07c0.18,0.23 0.32,0.42 0.45,0.62 0.12,0.21 0.23,0.39 0.3,0.57l-0.86 -11.8 1.88 -0.14 1.06 14.55 -2.15 0.16 -7.72 -10.22c-0.11,-0.15 -0.23,-0.31 -0.34,-0.48 -0.09,-0.18 -0.19,-0.35 -0.28,-0.55l0.86 11.8 -1.88 0.13z"/>
   <path id="_4_3" class="fil3" d="M1182.64 1205.42l1.92 -0.14c0.05,1.76 -0.46,3.22 -1.51,4.36 -1.04,1.13 -2.46,1.76 -4.24,1.89 -2.04,0.15 -3.69,-0.42 -4.97,-1.73 -1.26,-1.33 -1.98,-3.21 -2.16,-5.68 -0.17,-2.28 0.31,-4.13 1.43,-5.56 1.11,-1.44 2.72,-2.23 4.79,-2.38 1.64,-0.12 3.03,0.2 4.14,0.98 1.11,0.77 1.8,1.88 2.07,3.35l-1.94 0.14c-0.25,-0.94 -0.75,-1.65 -1.48,-2.13 -0.72,-0.46 -1.63,-0.65 -2.74,-0.57 -1.48,0.11 -2.57,0.72 -3.33,1.81 -0.74,1.09 -1.04,2.58 -0.9,4.46 0.13,1.78 0.66,3.17 1.59,4.2 0.93,1.01 2.08,1.45 3.48,1.35 1.19,-0.09 2.14,-0.52 2.85,-1.33 0.69,-0.78 1.02,-1.8 1,-3.02z"/>
   <polygon id="_5_4" class="fil3" points="1187.28,1210.51 1186.22,1195.96 1188.2,1195.82 1188.64,1201.79 1196.19,1201.24 1195.75,1195.27 1197.73,1195.12 1198.79,1209.67 1196.81,1209.81 1196.31,1203 1188.76,1203.55 1189.26,1210.37 "/>
   <polygon id="_6_5" class="fil3" points="1201.91,1209.44 1200.85,1194.89 1211.23,1194.14 1211.36,1195.94 1202.94,1196.56 1203.26,1200.91 1211.03,1200.34 1211.15,1202.04 1203.39,1202.6 1203.74,1207.48 1212.31,1206.85 1212.45,1208.67 "/>
   <path id="_7_6" class="fil3" d="M1213.83 1203.75l1.9 -0.14c0.09,1.05 0.5,1.87 1.24,2.45 0.73,0.58 1.67,0.81 2.8,0.73 1.13,-0.08 2.01,-0.39 2.62,-0.9 0.61,-0.54 0.89,-1.19 0.83,-2.02 -0.08,-1.11 -1.36,-1.87 -3.85,-2.26 -0.14,-0.03 -0.25,-0.04 -0.33,-0.06 -2.02,-0.32 -3.37,-0.75 -4.04,-1.3 -0.67,-0.52 -1.05,-1.3 -1.13,-2.37 -0.09,-1.3 0.3,-2.38 1.19,-3.22 0.89,-0.86 2.12,-1.36 3.7,-1.47 1.62,-0.12 2.9,0.22 3.89,0.96 0.97,0.76 1.52,1.86 1.65,3.32l-1.88 0.13c-0.13,-0.96 -0.53,-1.69 -1.16,-2.17 -0.64,-0.46 -1.47,-0.67 -2.5,-0.59 -0.98,0.07 -1.73,0.33 -2.28,0.8 -0.56,0.47 -0.8,1.06 -0.75,1.76 0.08,1.13 1.34,1.88 3.79,2.27 0.35,0.06 0.63,0.09 0.82,0.12l0.23 0.04c1.58,0.25 2.67,0.58 3.2,0.99 0.41,0.3 0.74,0.68 0.98,1.13 0.24,0.45 0.37,0.97 0.42,1.56 0.1,1.4 -0.32,2.56 -1.25,3.47 -0.95,0.9 -2.28,1.41 -4,1.53 -1.76,0.13 -3.17,-0.21 -4.22,-1.04 -1.04,-0.82 -1.66,-2.06 -1.86,-3.73z"/>
   <polygon id="_8_7" class="fil3" points="1140,1215.85 1143.65,1198.69 1144.9,1198.59 1141.21,1215.77 "/>
  </g>
 </g>
</svg>
