<?xml version="1.0" encoding="UTF-8"?>
<!DOCTYPE svg PUBLIC "-//W3C//DTD SVG 1.1//EN" "http://www.w3.org/Graphics/SVG/1.1/DTD/svg11.dtd">
<!-- Creator: CorelDRAW -->
<svg xmlns="http://www.w3.org/2000/svg" xml:space="preserve" version="1.1" style="shape-rendering:geometricPrecision; text-rendering:geometricPrecision; image-rendering:optimizeQuality; fill-rule:evenodd; clip-rule:evenodd"
viewBox="300 280 1650 1650"
 xmlns:xlink="http://www.w3.org/1999/xlink"
 xmlns:xodm="http://www.corel.com/coreldraw/odm/2003">
 <defs>
  <style type="text/css">
   <![CDATA[
    .str1 {stroke:aqua;stroke-width:6.67;stroke-miterlimit:2.61313}
    .str0 {stroke:gray;stroke-width:7.87;stroke-linecap:round;stroke-linejoin:round;stroke-miterlimit:22.926}
    .fil5 {fill:none}
    .fil1 {fill:none;fill-rule:nonzero}
    .fil4 {fill:aqua}
    .fil2 {fill:aqua}
    .fil0 {fill:aqua;fill-rule:nonzero}
    .fil3 {fill:#333333;fill-rule:nonzero}
   ]]>
  </style>
 </defs>
 <g id="Layer_x0020_1">
  <metadata id="CorelCorpID_0Corel-Layer"/>
  <g id="_105553221015968">
   <g>
    <path class="fil0" d="M1015.81 481.54c-0.17,1.36 -0.81,2.14 -1.41,1.74 -0.6,-0.4 -0.94,-1.82 -0.77,-3.18l2.18 1.44zm168.16 -51.77l0 5.13 0 0 -8.5 0.06 -8.39 0.19 -8.28 0.31 -8.15 0.42 -8.01 0.54 -7.86 0.65 -7.7 0.76 -7.53 0.86 -7.35 0.96 -7.17 1.07 -6.97 1.16 -6.76 1.26 -6.54 1.34 -6.31 1.43 -6.07 1.52 -5.83 1.6 -5.56 1.68 -5.3 1.75 -5.02 1.82 -4.73 1.89 -4.43 1.96 -4.12 2.02 -3.8 2.07 -3.47 2.13 -3.13 2.18 -2.77 2.21 -2.4 2.25 -2.02 2.26 -1.62 2.25 -1.2 2.19 -0.78 2.04 -0.39 1.81 -2.18 -1.44 0.68 -3.21 1.1 -2.91 1.47 -2.68 1.82 -2.54 2.17 -2.44 2.53 -2.37 2.87 -2.3 3.2 -2.24 3.54 -2.17 3.86 -2.11 4.17 -2.04 4.47 -1.97 4.77 -1.91 5.05 -1.83 5.33 -1.76 5.59 -1.69 5.85 -1.61 6.1 -1.52 6.33 -1.43 6.56 -1.35 6.78 -1.26 6.98 -1.17 7.19 -1.07 7.37 -0.96 7.55 -0.87 7.72 -0.76 7.88 -0.65 8.02 -0.54 8.16 -0.42 8.29 -0.31 8.41 -0.19 8.52 -0.06 0 0zm0 0c0.63,0 1.13,1.15 1.13,2.56 0,1.41 -0.51,2.56 -1.13,2.56l0 -5.13zm170.33 50.33l-2.18 1.43 -0.39 -1.81 -0.78 -2.04 -1.2 -2.19 -1.62 -2.25 -2.02 -2.26 -2.4 -2.25 -2.77 -2.21 -3.13 -2.18 -3.47 -2.13 -3.8 -2.07 -4.12 -2.02 -4.43 -1.96 -4.73 -1.89 -5.02 -1.82 -5.3 -1.75 -5.57 -1.68 -5.83 -1.6 -6.07 -1.52 -6.31 -1.43 -6.54 -1.34 -6.76 -1.26 -6.97 -1.16 -7.17 -1.07 -7.35 -0.96 -7.54 -0.86 -7.7 -0.76 -7.86 -0.65 -8.01 -0.54 -8.15 -0.42 -8.28 -0.31 -8.39 -0.19 -8.5 -0.06 0 -5.13 8.52 0.06 8.41 0.19 8.29 0.31 8.16 0.42 8.02 0.54 7.87 0.65 7.72 0.76 7.55 0.87 7.37 0.96 7.18 1.07 6.98 1.17 6.78 1.26 6.56 1.35 6.33 1.43 6.09 1.52 5.85 1.61 5.6 1.69 5.33 1.76 5.05 1.83 4.77 1.91 4.47 1.97 4.17 2.04 3.86 2.11 3.53 2.17 3.2 2.24 2.87 2.3 2.53 2.37 2.17 2.44 1.82 2.54 1.47 2.68 1.1 2.91 0.68 3.22zm0 0c0.17,1.36 -0.17,2.78 -0.77,3.18 -0.6,0.39 -1.24,-0.39 -1.41,-1.74l2.18 -1.43z"/>
   </g>
   <g>
    <path class="fil0" d="M847.63 869.95c-0.34,2.17 -1.59,3.41 -2.78,2.78 -1.19,-0.63 -1.87,-2.91 -1.52,-5.07l4.3 2.29zm331.54 -82.56l0 8.18 0 0 -16.76 0.1 -16.56 0.3 -16.31 0.48 -16.06 0.67 -15.79 0.86 -15.5 1.04 -15.18 1.21 -14.85 1.37 -14.5 1.54 -14.13 1.69 -13.74 1.85 -13.33 2 -12.9 2.15 -12.44 2.28 -11.98 2.42 -11.48 2.55 -10.98 2.67 -10.45 2.79 -9.89 2.91 -9.33 3.02 -8.74 3.12 -8.13 3.22 -7.5 3.31 -6.84 3.4 -6.16 3.47 -5.46 3.54 -4.73 3.58 -3.98 3.61 -3.19 3.59 -2.37 3.49 -1.54 3.26 -0.76 2.88 -4.3 -2.29 1.34 -5.13 2.17 -4.63 2.89 -4.28 3.6 -4.06 4.29 -3.9 4.98 -3.77 5.66 -3.67 6.32 -3.56 6.97 -3.46 7.61 -3.36 8.22 -3.26 8.82 -3.15 9.4 -3.04 9.96 -2.93 10.5 -2.81 11.03 -2.68 11.54 -2.56 12.02 -2.43 12.49 -2.29 12.94 -2.15 13.37 -2 13.77 -1.85 14.17 -1.7 14.53 -1.54 14.89 -1.38 15.21 -1.21 15.53 -1.04 15.82 -0.86 16.09 -0.67 16.35 -0.49 16.58 -0.3 16.8 -0.1 0 0zm0 0c1.24,0 2.24,1.83 2.24,4.09 0,2.26 -1,4.09 -2.24,4.09l0 -8.18zm335.84 80.26l-4.3 2.29 -0.76 -2.88 -1.54 -3.26 -2.37 -3.49 -3.19 -3.59 -3.98 -3.61 -4.73 -3.58 -5.46 -3.54 -6.16 -3.47 -6.84 -3.4 -7.5 -3.31 -8.13 -3.22 -8.74 -3.12 -9.33 -3.02 -9.9 -2.91 -10.45 -2.79 -10.98 -2.67 -11.48 -2.55 -11.98 -2.42 -12.44 -2.28 -12.9 -2.15 -13.32 -2 -13.74 -1.85 -14.13 -1.69 -14.5 -1.54 -14.85 -1.37 -15.19 -1.21 -15.5 -1.04 -15.79 -0.86 -16.06 -0.67 -16.31 -0.48 -16.56 -0.3 -16.76 -0.1 0 -8.18 16.8 0.1 16.58 0.3 16.35 0.49 16.09 0.67 15.82 0.86 15.53 1.04 15.22 1.21 14.88 1.38 14.54 1.54 14.17 1.7 13.77 1.85 13.36 2 12.94 2.15 12.49 2.29 12.02 2.43 11.54 2.56 11.03 2.68 10.5 2.81 9.97 2.93 9.4 3.04 8.82 3.15 8.22 3.26 7.61 3.36 6.97 3.46 6.32 3.56 5.66 3.67 4.98 3.77 4.29 3.9 3.6 4.06 2.89 4.28 2.17 4.63 1.34 5.13zm0 0c0.34,2.17 -0.34,4.44 -1.52,5.07 -1.19,0.63 -2.43,-0.61 -2.78,-2.78l4.3 -2.29z"/>
   </g>
   <g>
    <path class="fil1 str0" d="M1062.21 513.45c4.59,-35.12 1.39,-144.41 1.39,-144.41 12.45,71.32 50.35,93.46 76.88,168.45m-75.35 -73.92c0,0 -102.54,80.19 -176.4,99.8m-50.66 217.71c0,0 -1.65,80.2 89.22,136.48 0,0 23.36,16.8 42.49,25.72m551.04 -186.52c0,0 8.2,42.29 -25.5,103.74 -5.73,10.44 -16.59,26.35 -26.43,40.21 -12.76,17.96 -21.03,23.53 -38.75,33.17m-559.07 -66.37c-10.27,120.85 -63.68,207.27 -99.17,258.05 -14.3,40.18 0.53,84.41 -1.09,127.49 -5.13,135.92 -67.95,160.98 -50.57,326.76 0,0 38.41,24.64 63.72,105.24 -0.01,18.95 6.49,76.3 19.93,106.7 2.98,6.36 5.62,14.5 0.39,16.7 -5.23,2.18 -30.96,0.03 -39.38,-33 -8.43,-33.03 -23.94,-75.3 -23.94,-75.3m-6.41 9.96l3.96 86.97c0.43,9.37 1.99,18.7 4.64,27.79l12.66 43.37c0,0 6.42,24.93 -3.82,35.68 -1.89,1.98 -5.29,1.3 -6.62,-1.2 -7.37,-13.9 -26.91,-57.54 -35.39,-76.59 -2.61,-5.88 -4.31,-12.06 -5.09,-18.36 -2.33,-19.04 -8.29,-61.84 -16.24,-76.17m47.88 153l-50.42 -52.42c-5.78,-6 -10.34,-13.07 -13.42,-20.78 -6.41,-16.04 -17.7,-43.62 -21.6,-48.74m43.11 77.93l-37.91 -24.76c-2.65,-1.74 -4.86,-4.06 -6.44,-6.79l-21.74 -37.43c-3.57,-6.13 -5.79,-12.94 -6.52,-19.93l-1.33 -12.8c-3.02,-29.17 -2.66,-58.45 1.08,-87.28l6.58 -50.7c-28.3,-208.73 -36.1,-331.38 -36.1,-331.38 -5.27,-88.59 18.92,-147.37 32.91,-176.81 11.27,-23.71 18.47,-49.4 20.06,-75.91 8.09,-135.64 41.21,-175.96 49.23,-213.96 8.92,-42.28 5.89,-111.11 59.75,-178.48 49.67,-62.13 121.09,-61.09 121.09,-61.09l56.17 7.52c44.75,5.99 89.72,9.29 134.67,9.89l71.78 0.95c6.74,0.09 13.13,3.51 17.07,9.13m-406.99 1128.19c0,0 -10.07,2.6 -11.95,15.1m101.18 -725.07c15.06,29.54 37.43,60.87 70.67,89.25 20.28,17.31 3.37,145.83 3.37,172.72m563.52 -279.96c-10.44,37.89 -26.02,79.76 -49.48,120.42 -14.56,52.79 -1.8,118.34 0,171.69m44.58 -383.24c0.33,13.37 2.32,73.38 4.9,91.12 5.33,36.65 26.02,98.49 49.18,148.54 4.35,9.4 -7.45,53.21 -9.21,99.68 -5.68,149.62 28.02,131.61 43.21,356.84 0,0 -28.5,52.84 -49.38,65.19 -9.83,22.88 -20.24,59.26 -20.24,59.26 0,0 -3.65,77.13 -29.54,108.98 -1.63,2.01 -0.99,5.05 1.27,6.51 9.54,6.12 22.68,7.89 37.05,-9.85 16.64,-20.52 25.11,-77.23 39.28,-87.87m-259.92 -1413.46c0,0 -7.28,122.35 19.93,187.65m-9.98 -52.22c0,0 88.48,82.44 178.13,112.04m65.34 1174.46c0,0 20.37,40.89 15.89,61.11 -4.48,20.24 -11.76,36.38 -11.76,36.38l-22.26 11.89c0,0 -29.77,-3.57 -37.9,13.76 -0.86,1.84 0.44,4.05 2.48,4.35 12.81,1.9 29.95,3.21 38.07,3.78 3.04,0.21 6.07,-0.09 8.98,-0.9l31.33 -8.69c6.81,-1.89 12.29,-6.77 14.92,-13.32 6.3,-15.69 18.38,-44.32 24.73,-49.76m-387.31 -1202.82c0,0 0.01,-0.02 0.02,-0.05 4.88,-10.6 15.45,-17.29 27.27,-17.32 72.04,-0.18 177.82,-19.07 177.82,-19.07 0,0 10.24,-0.65 26.04,1.26 32.68,3.94 95.03,12.57 131.26,68.7 0,0 56.32,83.05 46.86,168.17 -4.37,33.76 -8.11,42.82 -8.11,42.82m4.72 -20.32c30.76,74.69 16.91,163.78 22.63,225.72 2.09,19.12 6.13,38.04 12.06,56.48l12.94 40.22c42.15,184.44 -21.71,343.37 -30.43,490.72l-6.87 140.5c-0.3,6.07 -2.11,11.92 -5.29,16.98l-40.52 64.87c-1.8,2.89 -4.8,4.8 -8.21,5.22l-20.18 2.54m-53.63 -13.41c0,0 2.56,-9.16 27.2,-6.25m11.36 -6.07l-11.49 -31.65c-0.46,-1.28 0.29,-2.62 1.6,-2.87 4.18,-0.78 12.89,-0.87 18.63,9.94m-329.9 -537.71c1.83,44.59 -32.21,40.21 2.49,89.02m10.52 -49.25c5.38,19.08 -10.93,31.38 -13.41,44.73m-45.54 -756.03c0,0 12.4,29.48 23.2,29.17 10.8,-0.31 15.34,-18.29 15.34,-18.29m70.68 -289.53c-8.42,100.94 -29.77,112.38 -52.52,218.52m411.03 489.08c0,0 2.21,62.21 -2.27,96.36m-74.44 460.32c0,0 6.85,-15.24 8.02,-22.89m13.08 -362.33c0,0 9.02,12.56 14.45,12.64 5.43,0.07 18.45,-24.04 18.45,-24.04m-966.75 -182.64c0,0 -2.38,60.19 -4.36,76.73"/>
    <path class="fil1 str0" d="M720.22 1579.8c0,0 -12.23,-10.14 -12.86,-15.56m386.66 -604.79c58.24,0.86 74.2,-24.27 120.09,-23.67 34.33,0.46 44.27,16.42 92.18,18.61m-340.74 6.29c0,0 16.65,34.96 79.53,51.45m-61.36 -30.17c0,0 -0.86,29.3 20.97,68.45m-4.8 11.28c0,0 -42.78,3.88 -64.49,-12.92m25.4 10.61c0,0 4.12,32.54 17.54,49.55m-24.72 -11.31c0,0 -32.87,-4.27 -45.52,-14.89m18.85 9.04c1.33,15.5 6.07,31.8 15.57,46m443.06 -165.33c0,0 -11.34,22.59 -35.58,36.56m26.56 -23.11c0,0 2.8,33.61 -6,68.49m14.89 9.12c0,0 23.82,-5.22 25.58,-26.01m-7.8 16.36c0,0 7.53,21.76 -0.41,48.16m0.8 -2.86c0,0 19.16,-5.64 23.96,-27.12m-6.2 13.9c0,0 3.48,22.11 -4.75,50.86m-708.05 -361.03c0,0 -1.78,39.2 8.04,61.88m13.28 342.56c-8.32,8.92 -18.7,15.51 -30.04,12.43 -10.28,-2.79 -16.72,-15.68 -20.75,-30.85m121.16 620.78c0,0 -6.47,-4.75 -16.21,4.06 4.56,8.69 10.85,15.84 17.37,14.2 6.52,-1.63 -1.16,-18.26 -1.16,-18.26zm659.27 45.43c0,0 18.7,10.21 24.79,-1.77 6.08,-11.98 3.94,-8.63 3.94,-8.63 0,0 2.59,-3.57 -1.46,-5.65 -4.06,-2.09 -13.76,-4.43 -18.38,0.87m-557.61 -541.84c-0.51,51.47 134.46,105.68 144.11,170.52m-135.76 -146.23c3.29,28.28 -19.35,22.24 -23.74,109.84m529.44 -121.97c4.5,90.69 -108.38,117.43 -117.83,189.44m106.84 -139.11c-0.1,34.12 19.89,54.4 15.95,108.49m-235.21 -763.49c0,0 12.33,138.31 12.02,212.65m-122.98 132.3c0,0 25.6,10.29 49.33,12.98 27.99,3.18 45.9,-3.31 77.43,-3.44 31.09,-0.12 40.68,7.33 67.69,6.16 27.02,-1.17 52.43,-16.68 52.43,-16.68m-271.95 103.64c0,0 29.67,12.65 57.34,16.39 32.63,4.41 62.14,-2.63 99,-1.99 36.33,0.63 48.34,9.58 79.94,8.88 31.6,-0.7 52.3,-18.31 52.3,-18.31m-268.07 93.63c0,0 25.78,10.99 49.82,14.24 28.35,3.83 53.99,-2.28 86.02,-1.73 31.57,0.54 42,8.32 69.46,7.71 27.46,-0.61 45.45,-15.91 45.45,-15.91m191.71 -93.7c0,0 9.86,20.62 23.72,37.04m-773.4 -46.78l-20.08 25.78"/>
   </g>
   <rect class="fil2" x="989.57" y="912.75" width="382.74" height="59.96"/>
   <path class="fil3" d="M1109.78 944.33l2.74 0c-0.11,2.51 -0.98,4.53 -2.59,6.03 -1.59,1.5 -3.67,2.25 -6.2,2.25 -2.91,0 -5.19,-0.98 -6.87,-2.97 -1.64,-2.02 -2.48,-4.76 -2.48,-8.28 0,-3.26 0.87,-5.83 2.6,-7.73 1.73,-1.93 4.09,-2.89 7.04,-2.89 2.33,0 4.27,0.61 5.77,1.82 1.5,1.21 2.37,2.85 2.6,4.96l-2.77 0c-0.26,-1.35 -0.89,-2.43 -1.87,-3.17 -0.98,-0.72 -2.25,-1.1 -3.84,-1.1 -2.11,0 -3.72,0.75 -4.9,2.22 -1.16,1.47 -1.73,3.55 -1.73,6.23 0,2.54 0.61,4.56 1.82,6.11 1.21,1.53 2.8,2.28 4.79,2.28 1.7,0 3.09,-0.52 4.19,-1.59 1.07,-1.04 1.64,-2.45 1.73,-4.19z"/>
   <path id="_1" class="fil3" d="M1118.43 934.35l0 17.69 -2.6 0 0 -20.74 4.04 0 5.14 15.87c0.14,0.46 0.26,0.81 0.31,1.04 0.09,0.26 0.15,0.49 0.17,0.67 0.09,-0.35 0.15,-0.67 0.23,-0.93 0.09,-0.29 0.14,-0.52 0.23,-0.78l5.34 -15.87 4.04 0 0 20.74 -2.74 0 0 -17.69c-0.06,0.32 -0.15,0.61 -0.23,0.92 -0.09,0.29 -0.17,0.61 -0.26,0.9l-5.33 15.87 -2.66 0 -5.22 -15.87c-0.09,-0.26 -0.17,-0.55 -0.26,-0.84 -0.06,-0.32 -0.15,-0.63 -0.2,-0.98z"/>
   <polygon id="_2" class="fil3" points="1164.33,952.04 1164.33,931.3 1167.16,931.3 1167.16,952.04 "/>
   <path id="_3" class="fil3" d="M1171.65 952.04l0 -20.74 3.09 0 9.69 15.06c0.23,0.35 0.41,0.64 0.58,0.93 0.14,0.31 0.29,0.57 0.37,0.83l0 -16.82 2.69 0 0 20.74 -3.06 0 -9.9 -15.29c-0.14,-0.23 -0.29,-0.46 -0.43,-0.72 -0.11,-0.26 -0.23,-0.52 -0.35,-0.81l0 16.82 -2.68 0z"/>
   <path id="_4" class="fil3" d="M1207 944.33l2.74 0c-0.11,2.51 -0.98,4.53 -2.59,6.03 -1.59,1.5 -3.67,2.25 -6.2,2.25 -2.91,0 -5.19,-0.98 -6.87,-2.97 -1.64,-2.02 -2.48,-4.76 -2.48,-8.28 0,-3.26 0.87,-5.83 2.6,-7.73 1.73,-1.93 4.09,-2.89 7.04,-2.89 2.33,0 4.27,0.61 5.77,1.82 1.5,1.21 2.37,2.85 2.6,4.96l-2.77 0c-0.26,-1.35 -0.89,-2.43 -1.87,-3.17 -0.98,-0.72 -2.25,-1.1 -3.84,-1.1 -2.11,0 -3.72,0.75 -4.9,2.22 -1.16,1.47 -1.73,3.55 -1.73,6.23 0,2.54 0.61,4.56 1.82,6.11 1.21,1.53 2.8,2.28 4.79,2.28 1.7,0 3.09,-0.52 4.19,-1.59 1.07,-1.04 1.64,-2.45 1.73,-4.19z"/>
   <polygon id="_5" class="fil3" points="1213.06,952.04 1213.06,931.3 1215.88,931.3 1215.88,939.81 1226.65,939.81 1226.65,931.3 1229.47,931.3 1229.47,952.04 1226.65,952.04 1226.65,942.31 1215.88,942.31 1215.88,952.04 "/>
   <polygon id="_6" class="fil3" points="1233.92,952.04 1233.92,931.3 1248.72,931.3 1248.72,933.86 1236.72,933.86 1236.72,940.07 1247.8,940.07 1247.8,942.49 1236.72,942.49 1236.72,949.44 1248.95,949.44 1248.95,952.04 "/>
   <path id="_7" class="fil3" d="M1251.41 945.2l2.71 0c0.03,1.5 0.52,2.71 1.5,3.61 0.98,0.89 2.28,1.33 3.9,1.33 1.61,0 2.88,-0.35 3.81,-1.01 0.92,-0.69 1.39,-1.59 1.39,-2.77 0,-1.59 -1.73,-2.8 -5.22,-3.61 -0.2,-0.06 -0.35,-0.09 -0.46,-0.11 -2.83,-0.66 -4.7,-1.41 -5.6,-2.25 -0.89,-0.81 -1.35,-1.96 -1.35,-3.49 0,-1.85 0.67,-3.35 2.02,-4.44 1.35,-1.13 3.15,-1.7 5.39,-1.7 2.31,0 4.1,0.61 5.43,1.76 1.3,1.18 1.96,2.8 1.99,4.87l-2.69 0c-0.09,-1.38 -0.57,-2.45 -1.41,-3.2 -0.87,-0.72 -2.02,-1.09 -3.49,-1.09 -1.38,0 -2.48,0.29 -3.31,0.89 -0.84,0.61 -1.24,1.41 -1.24,2.42 0,1.62 1.7,2.8 5.14,3.61 0.49,0.12 0.89,0.2 1.15,0.26l0.32 0.09c2.22,0.52 3.72,1.1 4.44,1.73 0.55,0.46 0.98,1.04 1.27,1.7 0.29,0.67 0.43,1.41 0.43,2.25 0,1.99 -0.72,3.61 -2.13,4.79 -1.44,1.19 -3.37,1.76 -5.83,1.76 -2.51,0 -4.47,-0.63 -5.89,-1.9 -1.39,-1.27 -2.13,-3.09 -2.25,-5.48z"/>
   <polygon id="_8" class="fil3" points="1145.44,954.72 1152.39,930.75 1154.18,930.75 1147.17,954.72 "/>
   <g>
    <path class="fil0" d="M969.93 939.19c1.23,0.16 2.16,2.12 2.07,4.37 -0.09,2.25 -1.16,3.94 -2.39,3.79l0.32 -8.16zm-126.97 -67.24l4.48 0 0 0 0.04 2.46 0.15 2.42 0.26 2.38 0.37 2.35 0.51 2.32 0.66 2.32 0.82 2.33 1.01 2.33 1.21 2.34 1.43 2.35 1.67 2.36 1.93 2.36 2.2 2.35 2.48 2.33 2.78 2.31 3.08 2.28 3.41 2.25 3.74 2.21 4.09 2.17 4.45 2.12 4.82 2.07 5.21 2.03 5.61 1.96 6.02 1.91 6.44 1.85 6.88 1.79 7.33 1.72 7.8 1.65 8.27 1.58 8.77 1.51 9.27 1.44 9.78 1.36 -0.32 8.16 -9.82 -1.37 -9.31 -1.44 -8.81 -1.52 -8.32 -1.6 -7.85 -1.66 -7.39 -1.74 -6.94 -1.81 -6.51 -1.87 -6.09 -1.94 -5.69 -2 -5.3 -2.06 -4.93 -2.12 -4.56 -2.18 -4.21 -2.24 -3.88 -2.29 -3.56 -2.35 -3.25 -2.41 -2.96 -2.46 -2.68 -2.52 -2.41 -2.58 -2.17 -2.65 -1.92 -2.71 -1.69 -2.78 -1.47 -2.85 -1.26 -2.92 -1.05 -2.97 -0.86 -3.02 -0.67 -3.07 -0.49 -3.07 -0.33 -3.07 -0.19 -3.07 -0.06 -3.06 0 0zm0 0c0,-2.26 1,-4.09 2.24,-4.09 1.24,0 2.24,1.83 2.24,4.09l-4.48 0zm0.37 -4.31l4.29 2.32 -0.02 0.13 -0.02 0.13 -0.03 0.19 -0.02 0.13 -0.02 0.13 -0.02 0.13 -0.01 0.13 -0.01 0.12 -0.01 0.13 -0.01 0.13 -0.01 0.12 -0.01 0.12 -0 0.12 -0 0.13 0 0.05 0 0.12 -4.48 0 0 -0.27 0.01 -0.34 0.01 -0.28 0.01 -0.27 0.02 -0.27 0.02 -0.27 0.02 -0.27 0.02 -0.27 0.03 -0.27 0.03 -0.27 0.03 -0.26 0.03 -0.27 0.04 -0.26 0.03 -0.21 0.04 -0.26 0.04 -0.27zm0 0c0.35,-2.17 1.6,-3.4 2.78,-2.76 1.18,0.64 1.86,2.92 1.51,5.08l-4.29 -2.32zm667.38 2.3c-0.34,-2.17 0.34,-4.44 1.53,-5.07 1.19,-0.63 2.43,0.62 2.77,2.79l-4.3 2.28zm4.67 2.01l-4.48 0 0 0 0 -0.12 0 -0.05 -0 -0.13 -0 -0.12 -0.01 -0.12 -0.01 -0.12 -0.01 -0.13 -0.01 -0.13 -0.01 -0.12 -0.01 -0.13 -0.02 -0.13 -0.02 -0.13 -0.02 -0.13 -0.03 -0.19 -0.02 -0.13 -0.02 -0.15 4.3 -2.28 0.04 0.24 0.04 0.26 0.03 0.21 0.04 0.26 0.03 0.27 0.03 0.26 0.03 0.27 0.03 0.27 0.02 0.27 0.02 0.27 0.02 0.27 0.02 0.27 0.01 0.27 0.01 0.28 0.01 0.34 0 0.27 0 0zm0 0c0,2.26 -1,4.09 -2.24,4.09 -1.24,0 -2.24,-1.83 -2.24,-4.09l4.48 0zm-128.78 77.85l-0.32 -8.16 9.78 -1.37 9.28 -1.46 8.79 -1.54 8.31 -1.63 7.84 -1.71 7.39 -1.79 6.94 -1.86 6.51 -1.94 6.1 -2 5.69 -2.06 5.3 -2.13 4.91 -2.18 4.55 -2.24 4.19 -2.28 3.84 -2.33 3.51 -2.36 3.19 -2.4 2.88 -2.43 2.59 -2.45 2.3 -2.46 2.02 -2.47 1.76 -2.46 1.52 -2.46 1.3 -2.45 1.09 -2.43 0.89 -2.41 0.71 -2.4 0.56 -2.39 0.41 -2.38 0.28 -2.39 0.16 -2.41 0.05 -2.43 4.48 0 -0.07 3.09 -0.21 3.11 -0.37 3.13 -0.54 3.13 -0.72 3.11 -0.92 3.08 -1.12 3.04 -1.33 2.99 -1.55 2.92 -1.77 2.87 -2.01 2.81 -2.25 2.74 -2.51 2.69 -2.78 2.63 -3.06 2.57 -3.35 2.52 -3.66 2.46 -3.98 2.41 -4.31 2.35 -4.66 2.29 -5.02 2.22 -5.39 2.17 -5.78 2.09 -6.17 2.02 -6.58 1.95 -7.01 1.88 -7.45 1.8 -7.89 1.72 -8.36 1.64 -8.83 1.55 -9.32 1.46 -9.82 1.37zm0 0c-1.23,0.16 -2.31,-1.53 -2.39,-3.78 -0.09,-2.25 0.84,-4.21 2.07,-4.37l0.32 8.16z"/>
   </g>
   <path class="fil0" d="M963.12 961.62l1.26 -34.94 25.19 18.02 -26.45 16.92zm0.63 -17.47m13.23 -8.46m-0.63 17.48"/>
   <path class="fil0" d="M1398.77 960.39l-1.26 -34.95 -25.2 18.02 26.46 16.93zm-0.63 -17.47m-13.23 -8.46m0.63 17.48"/>
   <path class="fil0" d="M1053.15 544.7l1.26 -34.94 25.19 18.02 -26.45 16.92zm0.63 -17.47m13.23 -8.46m-0.63 17.48"/>
   <path class="fil0" d="M1308.47 544.85l-0.91 -34.96 -25.38 17.77 26.28 17.19zm-0.45 -17.48m-13.15 -8.59m0.46 17.48"/>
   <rect class="fil4" x="1079.6" y="497.25" width="202.67" height="59.96"/>
   <g>
    <path class="fil0" d="M1070.93 526.63c0.63,0.1 1.09,1.33 1.05,2.74 -0.04,1.41 -0.59,2.47 -1.22,2.37l0.17 -5.12zm-57.48 -43.84l2.27 0 0 0 0.01 1.67 0.03 1.66 0.05 1.62 0.09 1.59 0.13 1.56 0.18 1.54 0.23 1.51 0.3 1.48 0.38 1.48 0.46 1.48 0.56 1.48 0.67 1.49 0.8 1.48 0.93 1.5 1.07 1.49 1.22 1.48 1.39 1.46 1.56 1.44 1.75 1.43 1.94 1.39 2.14 1.37 2.35 1.33 2.57 1.3 2.79 1.26 3.04 1.22 3.27 1.17 3.54 1.12 3.8 1.07 4.07 1.02 4.35 0.97 4.64 0.92 4.94 0.85 -0.17 5.12 -4.96 -0.86 -4.66 -0.92 -4.37 -0.98 -4.1 -1.03 -3.83 -1.08 -3.57 -1.14 -3.32 -1.18 -3.07 -1.23 -2.85 -1.28 -2.62 -1.32 -2.41 -1.37 -2.21 -1.41 -2.02 -1.45 -1.83 -1.5 -1.66 -1.53 -1.5 -1.57 -1.33 -1.62 -1.2 -1.66 -1.06 -1.7 -0.93 -1.75 -0.81 -1.8 -0.69 -1.84 -0.58 -1.87 -0.48 -1.89 -0.39 -1.92 -0.3 -1.92 -0.22 -1.91 -0.16 -1.9 -0.1 -1.87 -0.06 -1.84 -0.03 -1.81 -0.01 -1.79 0 0zm0 0c0,-1.41 0.51,-2.56 1.13,-2.56 0.63,0 1.13,1.15 1.13,2.56l-2.27 0zm0.18 -2.68l2.18 1.41 -0.02 0.17 -0.02 0.16 -0.02 0.2 -0.01 0.16 -0.01 0.16 -0.01 0.16 -0 0.16 -0 0.11 -2.27 0 0 -0.39 0.01 -0.34 0.02 -0.34 0.02 -0.34 0.03 -0.34 0.03 -0.29 0.03 -0.33 0.04 -0.32zm0 0c0.17,-1.36 0.8,-2.15 1.4,-1.76 0.6,0.39 0.95,1.81 0.78,3.17l-2.18 -1.41zm338.5 1.44c-0.18,-1.35 0.16,-2.79 0.76,-3.19 0.6,-0.41 1.24,0.37 1.41,1.72l-2.17 1.47zm2.36 1.24l-2.27 0 0 0 -0 -0.11 -0 -0.16 -0.01 -0.16 -0.01 -0.16 -0.01 -0.16 -0.02 -0.16 -0.02 -0.17 -0.02 -0.18 2.17 -1.47 0.04 0.31 0.04 0.33 0.03 0.33 0.03 0.34 0.02 0.34 0.02 0.34 0.01 0.34 0 0.39 0 0zm0 0c0,1.41 -0.51,2.56 -1.13,2.56 -0.63,0 -1.13,-1.15 -1.13,-2.56l2.27 0zm-60.54 50.08l-0.17 -5.12 4.94 -0.86 4.67 -0.93 4.39 -0.98 4.12 -1.04 3.87 -1.1 3.61 -1.15 3.37 -1.2 3.14 -1.26 2.91 -1.3 2.7 -1.34 2.48 -1.38 2.28 -1.42 2.09 -1.45 1.9 -1.48 1.72 -1.51 1.55 -1.52 1.39 -1.55 1.23 -1.56 1.08 -1.57 0.94 -1.57 0.81 -1.56 0.7 -1.56 0.59 -1.56 0.48 -1.54 0.4 -1.55 0.32 -1.54 0.26 -1.55 0.19 -1.56 0.14 -1.57 0.09 -1.59 0.05 -1.61 0.02 -1.62 2.27 0 -0.02 1.85 -0.06 1.88 -0.11 1.91 -0.17 1.93 -0.24 1.95 -0.32 1.96 -0.41 1.95 -0.5 1.93 -0.6 1.91 -0.71 1.89 -0.82 1.85 -0.94 1.81 -1.07 1.77 -1.2 1.74 -1.34 1.7 -1.49 1.66 -1.64 1.62 -1.81 1.58 -1.98 1.54 -2.15 1.5 -2.34 1.46 -2.54 1.41 -2.75 1.37 -2.96 1.31 -3.18 1.27 -3.41 1.22 -3.65 1.17 -3.9 1.11 -4.15 1.05 -4.42 0.99 -4.69 0.93 -4.97 0.87zm0 0c-0.63,0.1 -1.17,-0.96 -1.22,-2.37 -0.04,-1.41 0.43,-2.65 1.05,-2.74l0.17 5.12z"/>
   </g>
   <path class="fil3" d="M1109.78 528.83l2.74 0c-0.11,2.51 -0.98,4.53 -2.59,6.03 -1.59,1.5 -3.67,2.25 -6.2,2.25 -2.91,0 -5.19,-0.98 -6.87,-2.97 -1.64,-2.02 -2.48,-4.76 -2.48,-8.28 0,-3.26 0.87,-5.83 2.6,-7.73 1.73,-1.93 4.09,-2.89 7.04,-2.89 2.33,0 4.27,0.61 5.77,1.82 1.5,1.21 2.37,2.85 2.6,4.96l-2.77 0c-0.26,-1.35 -0.89,-2.43 -1.87,-3.17 -0.98,-0.72 -2.25,-1.1 -3.84,-1.1 -2.11,0 -3.72,0.75 -4.9,2.22 -1.16,1.47 -1.73,3.55 -1.73,6.23 0,2.54 0.61,4.56 1.82,6.11 1.21,1.53 2.8,2.28 4.79,2.28 1.7,0 3.09,-0.52 4.19,-1.59 1.07,-1.04 1.64,-2.45 1.73,-4.19z"/>
   <path id="_1_0" class="fil3" d="M1118.44 518.85l0 17.69 -2.6 0 0 -20.74 4.04 0 5.14 15.87c0.14,0.46 0.26,0.81 0.31,1.04 0.09,0.26 0.15,0.49 0.17,0.67 0.09,-0.35 0.15,-0.67 0.23,-0.93 0.09,-0.29 0.14,-0.52 0.23,-0.78l5.34 -15.87 4.04 0 0 20.74 -2.74 0 0 -17.69c-0.06,0.32 -0.15,0.61 -0.23,0.92 -0.09,0.29 -0.17,0.61 -0.26,0.9l-5.33 15.87 -2.66 0 -5.22 -15.87c-0.09,-0.26 -0.17,-0.55 -0.26,-0.84 -0.06,-0.32 -0.15,-0.63 -0.2,-0.98z"/>
   <polygon id="_2_1" class="fil3" points="1164.33,536.53 1164.33,515.79 1167.16,515.79 1167.16,536.53 "/>
   <path id="_3_2" class="fil3" d="M1171.66 536.53l0 -20.74 3.09 0 9.69 15.06c0.23,0.35 0.41,0.64 0.58,0.93 0.14,0.31 0.29,0.57 0.37,0.83l0 -16.82 2.69 0 0 20.74 -3.06 0 -9.9 -15.29c-0.14,-0.23 -0.29,-0.46 -0.43,-0.72 -0.11,-0.26 -0.23,-0.52 -0.35,-0.81l0 16.82 -2.68 0z"/>
   <path id="_4_3" class="fil3" d="M1207 528.83l2.74 0c-0.11,2.51 -0.98,4.53 -2.59,6.03 -1.59,1.5 -3.67,2.25 -6.2,2.25 -2.91,0 -5.19,-0.98 -6.87,-2.97 -1.64,-2.02 -2.48,-4.76 -2.48,-8.28 0,-3.26 0.87,-5.83 2.6,-7.73 1.73,-1.93 4.09,-2.89 7.04,-2.89 2.33,0 4.27,0.61 5.77,1.82 1.5,1.21 2.37,2.85 2.6,4.96l-2.77 0c-0.26,-1.35 -0.89,-2.43 -1.87,-3.17 -0.98,-0.72 -2.25,-1.1 -3.84,-1.1 -2.11,0 -3.72,0.75 -4.9,2.22 -1.16,1.47 -1.73,3.55 -1.73,6.23 0,2.54 0.61,4.56 1.82,6.11 1.21,1.53 2.8,2.28 4.79,2.28 1.7,0 3.09,-0.52 4.19,-1.59 1.07,-1.04 1.64,-2.45 1.73,-4.19z"/>
   <polygon id="_5_4" class="fil3" points="1213.06,536.53 1213.06,515.79 1215.89,515.79 1215.89,524.3 1226.65,524.3 1226.65,515.79 1229.48,515.79 1229.48,536.53 1226.65,536.53 1226.65,526.81 1215.89,526.81 1215.89,536.53 "/>
   <polygon id="_6_5" class="fil3" points="1233.92,536.53 1233.92,515.79 1248.72,515.79 1248.72,518.35 1236.72,518.35 1236.72,524.56 1247.8,524.56 1247.8,526.98 1236.72,526.98 1236.72,533.93 1248.95,533.93 1248.95,536.53 "/>
   <path id="_7_6" class="fil3" d="M1251.41 529.69l2.71 0c0.03,1.5 0.52,2.71 1.5,3.61 0.98,0.89 2.28,1.33 3.9,1.33 1.61,0 2.88,-0.35 3.81,-1.01 0.92,-0.69 1.39,-1.59 1.39,-2.77 0,-1.59 -1.73,-2.8 -5.22,-3.61 -0.2,-0.06 -0.35,-0.09 -0.46,-0.11 -2.83,-0.66 -4.7,-1.41 -5.6,-2.25 -0.89,-0.81 -1.35,-1.96 -1.35,-3.49 0,-1.85 0.67,-3.35 2.02,-4.44 1.35,-1.13 3.15,-1.7 5.39,-1.7 2.31,0 4.1,0.61 5.43,1.76 1.3,1.18 1.96,2.8 1.99,4.87l-2.69 0c-0.09,-1.38 -0.57,-2.45 -1.41,-3.2 -0.87,-0.72 -2.02,-1.09 -3.49,-1.09 -1.38,0 -2.48,0.29 -3.31,0.89 -0.84,0.61 -1.24,1.41 -1.24,2.42 0,1.62 1.7,2.8 5.14,3.61 0.49,0.12 0.89,0.2 1.15,0.26l0.32 0.09c2.22,0.52 3.72,1.1 4.44,1.73 0.55,0.46 0.98,1.04 1.27,1.7 0.29,0.67 0.43,1.41 0.43,2.25 0,1.99 -0.72,3.61 -2.13,4.79 -1.44,1.19 -3.37,1.76 -5.83,1.76 -2.51,0 -4.47,-0.63 -5.89,-1.9 -1.39,-1.27 -2.13,-3.09 -2.25,-5.48z"/>
   <polygon id="_8_7" class="fil3" points="1145.44,539.22 1152.39,515.24 1154.18,515.24 1147.17,539.22 "/>
   <path class="fil5 str1" d="M987.1 459.8c-67,33.39 -153.01,47.36 -216.52,77.45 -49.94,26.25 -80.64,64.41 -98.93,110.24 -59.77,154 -63.79,265.16 -106.28,403.64 -13.57,46.17 -32.8,60.11 -40.7,138.5 -1.48,77.83 3.74,155.65 15.83,233.48l26.57 178.64"/>
   <polygon class="fil0" points="571.47,1624.49 582.2,1594.53 551.57,1599.15 "/>
   <g>
    <rect class="fil4" transform="matrix(0.118842 -5.37011E-001 1.01412 0.224429 554.46 960.816)" width="368.49" height="57.72"/>
    <path class="fil3" d="M591.81 938.17l0.59 -2.68c2.43,0.65 4.21,1.94 5.33,3.83 1.12,1.87 1.41,4.07 0.86,6.55 -0.63,2.84 -2.08,4.86 -4.39,6.06 -2.33,1.17 -5.19,1.39 -8.62,0.63 -3.18,-0.7 -5.5,-2.11 -6.99,-4.21 -1.51,-2.1 -1.93,-4.62 -1.3,-7.5 0.5,-2.28 1.52,-4.04 3.02,-5.24 1.5,-1.2 3.3,-1.69 5.41,-1.46l-0.6 2.7c-1.38,-0.04 -2.56,0.35 -3.5,1.15 -0.92,0.8 -1.56,1.96 -1.9,3.51 -0.46,2.06 -0.07,3.8 1.11,5.27 1.19,1.45 3.09,2.46 5.71,3.04 2.47,0.55 4.58,0.39 6.36,-0.46 1.75,-0.85 2.83,-2.24 3.26,-4.18 0.37,-1.66 0.16,-3.13 -0.65,-4.43 -0.78,-1.27 -2.04,-2.13 -3.71,-2.59z"/>
    <path id="_1_8" class="fil3" d="M583.94 927.57l17.27 3.82 -0.56 2.54 -20.25 -4.48 0.87 -3.94 16.61 -1.59c0.48,-0.04 0.85,-0.08 1.08,-0.08 0.27,-0.03 0.51,-0.04 0.69,-0.02 -0.32,-0.16 -0.62,-0.29 -0.85,-0.43 -0.26,-0.15 -0.47,-0.25 -0.71,-0.39l-14.34 -8.64 0.87 -3.94 20.26 4.48 -0.59 2.67 -17.27 -3.82c0.3,0.13 0.56,0.27 0.85,0.43 0.27,0.15 0.56,0.3 0.82,0.45l14.34 8.63 -0.57 2.59 -16.62 1.67c-0.27,0.03 -0.57,0.05 -0.87,0.07 -0.32,-0.01 -0.65,0 -1,-0.02z"/>
    <polygon id="_2_9" class="fil3" points="611.12,886.57 590.87,882.09 591.48,879.33 611.73,883.81 "/>
    <path id="_3_10" class="fil3" d="M612.7 879.43l-20.26 -4.48 0.67 -3.01 16.8 -6.21c0.39,-0.15 0.71,-0.26 1.03,-0.36 0.34,-0.07 0.63,-0.16 0.9,-0.19l-16.42 -3.63 0.58 -2.62 20.26 4.48 -0.66 2.99 -17.07 6.36c-0.25,0.09 -0.51,0.18 -0.8,0.27 -0.28,0.06 -0.56,0.11 -0.86,0.17l16.42 3.63 -0.58 2.62z"/>
    <path id="_4_11" class="fil3" d="M612.82 843.25l0.59 -2.68c2.43,0.66 4.21,1.94 5.33,3.84 1.12,1.87 1.41,4.06 0.86,6.54 -0.63,2.85 -2.08,4.86 -4.39,6.06 -2.33,1.17 -5.19,1.39 -8.62,0.63 -3.18,-0.7 -5.5,-2.11 -6.99,-4.21 -1.51,-2.11 -1.93,-4.62 -1.3,-7.5 0.5,-2.28 1.51,-4.04 3.02,-5.24 1.51,-1.2 3.3,-1.69 5.41,-1.46l-0.6 2.7c-1.38,-0.04 -2.56,0.35 -3.5,1.15 -0.91,0.8 -1.56,1.96 -1.9,3.51 -0.45,2.06 -0.07,3.8 1.11,5.26 1.19,1.45 3.09,2.46 5.71,3.04 2.48,0.55 4.58,0.39 6.37,-0.46 1.75,-0.85 2.83,-2.24 3.26,-4.18 0.37,-1.66 0.16,-3.13 -0.65,-4.43 -0.78,-1.26 -2.04,-2.13 -3.71,-2.59z"/>
    <polygon id="_5_12" class="fil3" points="621.65,839 601.39,834.52 602.01,831.76 610.32,833.6 612.64,823.09 604.33,821.25 604.94,818.49 625.2,822.97 624.59,825.73 615.09,823.63 612.76,834.14 622.26,836.24 "/>
    <polygon id="_6_13" class="fil3" points="626.16,818.63 605.9,814.15 609.1,799.7 611.61,800.25 609.02,811.97 615.07,813.31 617.46,802.49 619.83,803.02 617.44,813.83 624.22,815.33 626.87,803.39 629.41,803.95 "/>
    <path id="_7_14" class="fil3" d="M623.26 800.08l0.59 -2.65c1.47,0.3 2.76,0.08 3.84,-0.69 1.09,-0.76 1.79,-1.94 2.14,-3.52 0.35,-1.57 0.29,-2.89 -0.16,-3.93 -0.48,-1.05 -1.25,-1.7 -2.41,-1.95 -1.55,-0.34 -3.1,1.09 -4.65,4.32 -0.1,0.19 -0.16,0.32 -0.21,0.43 -1.26,2.61 -2.39,4.28 -3.41,4.98 -0.98,0.7 -2.21,0.9 -3.7,0.57 -1.8,-0.4 -3.12,-1.37 -3.9,-2.93 -0.81,-1.57 -0.98,-3.44 -0.5,-5.63 0.5,-2.26 1.48,-3.87 2.89,-4.92 1.43,-1.01 3.16,-1.31 5.19,-0.89l-0.58 2.62c-1.37,-0.22 -2.52,0.03 -3.43,0.69 -0.89,0.69 -1.5,1.74 -1.82,3.17 -0.3,1.35 -0.25,2.48 0.16,3.43 0.41,0.95 1.11,1.52 2.09,1.74 1.58,0.35 3.1,-1.06 4.63,-4.24 0.22,-0.45 0.39,-0.83 0.5,-1.07l0.15 -0.29c0.99,-2.06 1.88,-3.4 2.65,-3.96 0.57,-0.43 1.22,-0.73 1.93,-0.87 0.71,-0.13 1.47,-0.11 2.29,0.07 1.94,0.43 3.37,1.48 4.21,3.11 0.85,1.67 0.99,3.68 0.46,6.07 -0.54,2.45 -1.59,4.23 -3.13,5.33 -1.54,1.08 -3.48,1.42 -5.84,1.02z"/>
    <polygon id="_8_15" class="fil3" points="609.66,905.6 587.75,893.63 588.14,891.89 610.04,903.91 "/>
   </g>
  </g>
 </g>
</svg>
