<?xml version="1.0" encoding="UTF-8" standalone="no"?>
<svg
   xmlns:dc="http://purl.org/dc/elements/1.1/"
   xmlns:cc="http://creativecommons.org/ns#"
   xmlns:rdf="http://www.w3.org/1999/02/22-rdf-syntax-ns#"
   xmlns:svg="http://www.w3.org/2000/svg"
   xmlns="http://www.w3.org/2000/svg"
   xmlns:sodipodi="http://sodipodi.sourceforge.net/DTD/sodipodi-0.dtd"
   xmlns:inkscape="http://www.inkscape.org/namespaces/inkscape"
   version="1.1"
   id="svg2"
   xml:space="preserve"
   width="166.66667"
   height="29.333332"
   viewBox="0 0 166.66667 29.333332"
   sodipodi:docname="XUnder_logo.eps"><metadata
     id="metadata8"><rdf:RDF><cc:Work
         rdf:about=""><dc:format>image/svg+xml</dc:format><dc:type
           rdf:resource="http://purl.org/dc/dcmitype/StillImage" /></cc:Work></rdf:RDF></metadata><defs
     id="defs6" /><sodipodi:namedview
     pagecolor="#ffffff"
     bordercolor="#666666"
     borderopacity="1"
     objecttolerance="10"
     gridtolerance="10"
     guidetolerance="10"
     inkscape:pageopacity="0"
     inkscape:pageshadow="2"
     inkscape:window-width="640"
     inkscape:window-height="480"
     id="namedview4" /><g
     id="g10"
     inkscape:groupmode="layer"
     inkscape:label="ink_ext_XXXXXX"
     transform="matrix(1.3333333,0,0,-1.3333333,0,29.333333)"><g
       id="g12"
       transform="scale(0.1)"><path
         d="m 106.051,75.8359 -21.0666,33.7111 -9.1992,-14.7228 21.0625,-33.707 4.4963,7.1875 z m 14.66,23.461 -21.0665,33.7071 -9.1992,-14.723 21.0627,-33.7068 9.203,14.7227"
         style="fill:#4d4d4d;fill-opacity:1;fill-rule:evenodd;stroke:none"
         id="path14" /><path
         d="M 29.375,3.08594 90.4453,100.809 84.9844,109.547 18.457,3.08594 H 0.0585938 L 66.5859,109.547 0.0585938,216.008 H 18.457 l 57.3282,-91.738 5.457,8.734 9.2031,14.726 42.6677,68.278 h 18.399 l -51.8675,-83.004 -9.1992,-14.723 -5.4609,-8.734 5.4609,-8.738 71.9847,115.199 h 18.402 L 99.6445,86.0859 151.512,3.08594 h -18.399 l -36.2653,58.03126 4.4963,7.1875 4.707,7.5312 -6.4065,10.25 L 47.7734,3.08594 Z m 151.457,0 L 120.711,99.2969 111.508,84.5742 162.434,3.08594 Z M 101.004,130.828 99.6445,133.004 Z M 90.4453,147.73 47.7773,216.008 H 29.375 l 51.8672,-83.004 9.2031,14.726"
         style="fill:#00ffff;fill-opacity:1;fill-rule:evenodd;stroke:none"
         id="path16" /><path
         d="M 287.762,87.4688 V 215.953 h 28.23 V 87.1836 c 0,-19.3008 4.324,-33.707 12.961,-42.9258 8.36,-9.5078 21.899,-14.1172 39.758,-14.1172 17.863,0 31.117,4.8985 39.758,14.1172 8.929,9.5078 13.25,23.9102 13.25,42.9258 V 215.953 h 28.234 V 87.4688 c 0,-27.6524 -7.203,-48.6836 -21.32,-63.086 C 414.23,10.2656 393.199,3.0625 365.543,3.0625 c -25.926,0 -45.227,6.91797 -58.195,21.0313 -12.961,14.1171 -19.586,35.1445 -19.586,63.375"
         style="fill:#00ffff;fill-opacity:1;fill-rule:nonzero;stroke:none"
         id="path18" /><path
         d="M 492.879,8.82422 V 215.953 h 30.824 L 620.5,65.5781 c 2.305,-3.457 4.031,-6.3398 5.762,-9.2226 1.441,-3.1641 2.879,-5.7578 3.746,-8.3516 V 215.953 h 26.789 V 8.82422 H 626.262 L 527.449,161.504 c -1.441,2.305 -2.883,4.609 -4.324,7.203 -1.148,2.594 -2.305,5.184 -3.453,8.066 V 8.82422 h -26.793"
         style="fill:#00ffff;fill-opacity:1;fill-rule:nonzero;stroke:none"
         id="path20" /><path
         d="M 777.555,192.043 H 729.156 V 34.1758 h 48.399 c 20.742,0 36.297,6.6289 46.957,20.164 10.656,13.543 15.843,33.418 15.843,59.6332 0,25.351 -5.472,44.652 -16.132,57.906 -10.946,13.535 -26.504,20.164 -46.668,20.164 z M 700.922,8.82422 V 215.953 h 78.937 c 28.809,0 50.989,-8.644 66.258,-25.93 15.559,-17.281 23.047,-42.058 23.047,-74.609 0,-33.7031 -7.773,-59.9179 -23.914,-78.6445 C 829.41,18.043 807.227,8.82422 778.707,8.82422 h -77.785"
         style="fill:#00ffff;fill-opacity:1;fill-rule:nonzero;stroke:none"
         id="path22" /><path
         d="M 904.598,8.82422 V 215.953 h 147.792 v -25.64 H 932.543 V 128.375 H 1043.17 V 104.18 H 932.543 V 34.75 H 1054.69 V 8.82422 H 904.598"
         style="fill:#00ffff;fill-opacity:1;fill-rule:nonzero;stroke:none"
         id="path24" /><path
         d="m 1116.39,191.754 v -70.293 h 48.11 c 17.29,0 29.68,2.883 36.88,8.355 6.91,5.762 10.66,14.981 10.66,28.235 0,12.387 -3.46,21.027 -10.09,25.926 -6.91,5.183 -19.3,7.777 -37.45,7.777 z m -27.66,24.199 h 80.38 c 12.96,0 22.47,-0.574 28.81,-1.73 6.05,-1.149 11.52,-2.879 16.42,-5.473 8.64,-4.898 15.27,-11.523 19.88,-19.875 4.61,-8.645 6.91,-18.727 6.91,-30.25 0,-11.234 -2.3,-20.742 -7.2,-28.52 -4.9,-8.066 -11.81,-14.117 -21.32,-18.726 8.07,-2.305 13.83,-6.047 17.28,-11.5235 3.47,-5.1836 5.48,-14.4024 6.34,-27.0782 l 2.31,-33.9921 c 0.58,-7.4883 1.44,-12.9649 2.88,-16.4219 1.44,-3.7461 3.75,-6.336 6.63,-7.7735 V 8.82422 h -32.56 c -2.59,4.32028 -4.32,13.53908 -5.47,27.65628 v 0.8633 l -1.73,27.082 c -0.86,13.8242 -3.75,22.7578 -8.93,27.0781 -4.9,4.0313 -17.29,6.0469 -37.16,6.0469 h -45.52 V 8.82422 h -27.95 V 215.953"
         style="fill:#00ffff;fill-opacity:1;fill-rule:nonzero;stroke:none"
         id="path26" /></g></g></svg>
