<?xml version="1.0" encoding="UTF-8"?>
<!DOCTYPE svg PUBLIC "-//W3C//DTD SVG 1.1//EN" "http://www.w3.org/Graphics/SVG/1.1/DTD/svg11.dtd">
<!-- Creator: CorelDRAW -->
<svg xmlns="http://www.w3.org/2000/svg" xml:space="preserve" width="0.850382in" height="1.0016in" version="1.1" style="shape-rendering:geometricPrecision; text-rendering:geometricPrecision; image-rendering:optimizeQuality; fill-rule:evenodd; clip-rule:evenodd"
viewBox="0 0 332.68 391.84"
 xmlns:xlink="http://www.w3.org/1999/xlink"
 xmlns:xodm="http://www.corel.com/coreldraw/odm/2003">
 <defs>
  <style type="text/css">
   <![CDATA[
    .fil1 {fill:aqua}
    .fil0 {fill:#4D4D4D}
   ]]>
  </style>
 </defs>
 <g id="Слой_x0020_1">
  <metadata id="CorelCorpID_0Corel-Layer"/>
  <path class="fil0" d="M195.06 257.95l-38.76 -62.04 -16.93 27.09 38.77 62.04 8.27 -13.23 8.66 -13.86zm26.98 -43.17l-38.76 -62.03 -16.93 27.09 38.76 62.03 16.93 -27.09z"/>
  <g>
   <path class="fil1" d="M53.96 391.84l112.38 -179.84 -10.05 -16.08 -122.43 195.92 -33.86 0 122.43 -195.92 -122.43 -195.92 33.86 0 105.5 168.82 10.05 -16.08 16.93 -27.09 78.52 -125.65 33.86 0 -95.45 152.75 -16.93 27.09 -10.05 16.08 10.05 16.08 132.48 -212 33.86 0 -149.41 239.09 95.45 152.75 -33.86 0 -66.73 -106.79 8.27 -13.23 8.66 -13.86 -11.79 -18.86 -95.45 152.75 -33.86 0zm278.72 0l-110.64 -177.06 -16.93 27.09 93.72 149.97 33.86 0zm-146.91 -235.09l-2.5 -4.01 2.5 4.01zm-19.43 -31.1l-78.52 -125.65 -33.86 0 95.45 152.75 16.93 -27.09z"/>
  </g>
 </g>
</svg>
