<?xml version="1.0" encoding="UTF-8" standalone="no"?>
<svg
   xmlns:dc="http://purl.org/dc/elements/1.1/"
   xmlns:cc="http://creativecommons.org/ns#"
   xmlns:rdf="http://www.w3.org/1999/02/22-rdf-syntax-ns#"
   xmlns:svg="http://www.w3.org/2000/svg"
   xmlns="http://www.w3.org/2000/svg"
   xmlns:sodipodi="http://sodipodi.sourceforge.net/DTD/sodipodi-0.dtd"
   xmlns:inkscape="http://www.inkscape.org/namespaces/inkscape"
   version="1.1"
   id="svg2"
   xml:space="preserve"
   width="8"
   height="4"
   viewBox="0 0 8 4"
   sodipodi:docname="accessories.eps"><metadata
     id="metadata8"><rdf:RDF><cc:Work
         rdf:about=""><dc:format>image/svg+xml</dc:format><dc:type
           rdf:resource="http://purl.org/dc/dcmitype/StillImage" /></cc:Work></rdf:RDF></metadata><defs
     id="defs6" /><sodipodi:namedview
     pagecolor="#ffffff"
     bordercolor="#666666"
     borderopacity="1"
     objecttolerance="10"
     gridtolerance="10"
     guidetolerance="10"
     inkscape:pageopacity="0"
     inkscape:pageshadow="2"
     inkscape:window-width="640"
     inkscape:window-height="480"
     id="namedview4" /><g
     id="g10"
     inkscape:groupmode="layer"
     inkscape:label="ink_ext_XXXXXX"
     transform="matrix(1.3333333,0,0,-1.3333333,0,4)"><g
       id="g12"
       transform="scale(0.1)"><path
         d="m 32.6055,21.1211 c -0.3946,0.4023 -1.0469,0.8711 -1.3985,0.9648 -0.4609,0.125 -2.7148,0.125 -3.5507,-0.082 -0.6055,-0.1523 -1.1016,-0.8789 -1.3282,-1.2617 -0.2461,0.8555 -0.9336,1.4883 -2.3437,2.4726 -0.4258,0.2969 -0.918,0.543 -1.4453,0.75 H 36.25 c -0.5273,-0.207 -1.0195,-0.4531 -1.4453,-0.75 -1.1953,-0.832 -1.8711,-1.414 -2.1992,-2.0937 z m 24.3203,-3.582 c 0,0.2461 -1.918,0 -1.918,0 0.082,4.5898 -2.0039,5.5898 -2.0039,5.5898 -2.1719,1.6719 -6.2617,1.8399 -8.1797,1.8399 -1.3242,0 -4.2695,0.0781 -6.8789,-0.5 l -17.2851,0.039 c -2.5625,0.5352 -5.4024,0.461 -6.6954,0.461 -1.9179,0 -6.00777,-0.168 -8.17964,-1.8399 0,0 -2.08594,-1 -2.00391,-5.5898 0,0 -1.91797,0.2461 -1.91797,0 0,-0.2539 -0.33594,-0.7539 0.5,-0.836 0.83203,-0.0859 1.58594,-0.25 1.58594,-0.25 0,0 -0.25,-4.3437 2.08594,-6.67966 2.33593,-2.33985 4.50784,-4.51172 9.26564,-3.34375 4.7578,1.17187 10.1015,7.26561 10.7734,10.77341 0.2539,1.3438 0.4102,2.2578 0.3516,2.9805 0.1289,0.2734 0.4336,0.8672 0.8164,1.1523 0.5,0.3789 2.293,0.461 3.7539,0.293 0.9687,-0.1133 1.3125,-0.6445 1.4336,-0.9922 -0.1875,-0.7929 -0.0234,-1.7969 0.2891,-3.4336 0.6679,-3.5078 6.0117,-9.60154 10.7695,-10.77341 4.7578,-1.16797 6.9297,1.0039 9.2656,3.34375 2.3359,2.33596 2.0859,6.67966 2.0859,6.67966 0,0 0.754,0.1641 1.586,0.25 0.8359,0.0821 0.5,0.5821 0.5,0.836"
         style="fill:#333333;fill-opacity:1;fill-rule:nonzero;stroke:none"
         id="path14" /></g></g></svg>
