<?xml version="1.0" encoding="UTF-8" standalone="no"?>
<svg
   xmlns:dc="http://purl.org/dc/elements/1.1/"
   xmlns:cc="http://creativecommons.org/ns#"
   xmlns:rdf="http://www.w3.org/1999/02/22-rdf-syntax-ns#"
   xmlns:svg="http://www.w3.org/2000/svg"
   xmlns="http://www.w3.org/2000/svg"
   xmlns:sodipodi="http://sodipodi.sourceforge.net/DTD/sodipodi-0.dtd"
   xmlns:inkscape="http://www.inkscape.org/namespaces/inkscape"
   version="1.1"
   id="svg2"
   xml:space="preserve"
   viewBox="0 0 8 9.333333"
   sodipodi:docname="account.eps"><metadata
     id="metadata8"><rdf:RDF><cc:Work
         rdf:about=""><dc:format>image/svg+xml</dc:format><dc:type
           rdf:resource="http://purl.org/dc/dcmitype/StillImage" /></cc:Work></rdf:RDF></metadata><defs
     id="defs6" /><sodipodi:namedview
     pagecolor="#ffffff"
     bordercolor="#666666"
     borderopacity="1"
     objecttolerance="10"
     gridtolerance="10"
     guidetolerance="10"
     inkscape:pageopacity="0"
     inkscape:pageshadow="2"
     inkscape:window-width="640"
     inkscape:window-height="480"
     id="namedview4" /><g
     id="g10"
     inkscape:groupmode="layer"
     inkscape:label="ink_ext_XXXXXX"
     transform="matrix(1.3333333,0,0,-1.3333333,0,9.3333333)"><g
       id="g12"
       transform="scale(0.1)"><path
         d="m 4.26953,16.0898 c 0,-6.39449 3.01953,-8.7148 10.03127,-8.7148 h 27.457 c 7.0117,0 10.0313,2.32031 10.0313,8.7148 0,3.9844 -2.1446,8.0157 -4.1524,10.1016 -2.125,2.207 -6.1836,4.9453 -9.5742,4.9453 -0.8594,0 -0.5156,-0.1328 -0.8828,-0.9687 l -0.1445,-0.3828 c -0.0079,-0.0157 -0.3477,-0.6172 -0.3868,-0.668 -2.9453,-4.0156 -16.5664,-4.668 -18.125,2.0195 -1.957,0 -4.2031,-0.8281 -5.6171,-1.5078 C 8.42578,27.4688 4.26953,21.8945 4.26953,16.0898 Z M 14.832,47.2422 c 0,-10.4414 12.0508,-27.6367 22.4414,-11.8867 3.9844,6.0429 6.1172,14.9179 0.3321,20.6679 -1.3594,1.3477 -1.7461,1.8282 -3.586,2.7539 -1.6015,0.8008 -3.2187,1.25 -4.8007,1.3985 H 26.8359 C 20.2461,59.5625 14.832,53.8711 14.832,47.2422 Z m 2.1094,-2.1172 c 0,3.1367 1.5899,6.4297 3.4297,7.6602 1.2266,-5.2539 12.3984,-3.418 16.0977,-3.1133 1.6015,0.1289 2.6484,-2.4453 2.6484,-4.5469 0,-5.3437 -5.6797,-13.9883 -11.0899,-13.9883 -5.375,0 -11.0859,8.6719 -11.0859,13.9883"
         style="fill:#808080;fill-opacity:1;fill-rule:evenodd;stroke:none"
         id="path14" /></g></g></svg>
