<?xml version="1.0" encoding="UTF-8"?>
<!DOCTYPE svg PUBLIC "-//W3C//DTD SVG 1.1//EN" "http://www.w3.org/Graphics/SVG/1.1/DTD/svg11.dtd">
<!-- Creator: CorelDRAW -->
<svg xmlns="http://www.w3.org/2000/svg" xml:space="preserve" width="700px" height="140px" version="1.1" style="shape-rendering:geometricPrecision; text-rendering:geometricPrecision; image-rendering:optimizeQuality; fill-rule:evenodd; clip-rule:evenodd"
viewBox="0 0 709.04 141.81"
 xmlns:xlink="http://www.w3.org/1999/xlink"
 xmlns:xodm="http://www.corel.com/coreldraw/odm/2003">
 <defs>
  <style type="text/css">
   <![CDATA[
    .fil0 {fill:#B2FBE4}
    .fil1 {fill:black;fill-rule:nonzero}
   ]]>
  </style>
 </defs>
 <g id="Слой_x0020_1">
  <metadata id="CorelCorpID_0Corel-Layer"/>
  <path class="fil0" d="M70.91 0l567.23 0c39,0 70.9,31.91 70.9,70.9l0 0c0,39 -31.9,70.91 -70.9,70.91l-567.23 0c-39,0 -70.91,-31.91 -70.91,-70.91l0 0c0,-38.99 31.91,-70.9 70.91,-70.9z"/>
  <path class="fil1" d="M613.96 40.76l-16.24 -9.33 -16.47 -9.45c-10.92,-6.26 -24.53,1.62 -24.53,14.21l0 2.12c0,1.16 0.62,2.23 1.63,2.81l7.64 4.39c2.12,1.21 4.76,-0.32 4.76,-2.76l0 -5.03c0,-2.48 2.69,-4.04 4.85,-2.8l30.06 17.24c2.17,1.25 2.17,4.38 0,5.62l-30.06 17.25c-2.16,1.24 -4.85,-0.32 -4.85,-2.81l0 -2.5c0,-12.58 -13.61,-20.47 -24.52,-14.2l-32.71 18.77c-10.97,6.29 -10.97,22.12 0,28.41l32.71 18.76c2.33,1.34 4.79,2.04 7.2,2.17l1.86 0c8.18,-0.47 15.46,-7.16 15.46,-16.36l0 -2.13c0,-1.16 -0.62,-2.24 -1.62,-2.82l-7.64 -4.38c-2.13,-1.21 -4.77,0.32 -4.77,2.76l0 5.03c0,2.49 -2.69,4.04 -4.84,2.81l-30.07 -17.25c-2.16,-1.25 -2.16,-4.37 0,-5.62l30.07 -17.25c2.15,-1.23 4.84,0.32 4.84,2.81l0 2.5c0,12.58 13.61,20.46 24.53,14.2l16.47 -9.45 16.24 -9.32c5.43,-3.12 8.17,-8.57 8.22,-14.05l0 -0.31c-0.05,-5.47 -2.79,-10.93 -8.22,-14.04zm-320.6 8.58c0,0 3.5,-6.48 12.06,-6.48 3.66,0 6.03,1.26 6.03,1.26l0 14.24c0,0 -5.17,-3.19 -9.91,-2.55 -4.74,0.65 -7.74,5 -7.73,10.83l0 33.05 -14.18 0 0 -55.82 13.73 0 0 5.47zm132.63 50.35l0 -7.25c-4.13,5.02 -10.27,8.15 -17.64,8.15 -15.3,0 -26.91,-12.28 -26.91,-28.81 0,-16.41 12.06,-28.92 27.25,-28.92 7.14,0 13.17,3.13 17.3,8.04l0 -7.03 13.73 0 0 55.82 -13.73 0zm-0.11 -27.91c0,-9.38 -6.81,-15.97 -15.18,-15.97 -8.38,0 -15.19,6.7 -15.19,15.97 0,9.16 6.81,15.97 15.19,15.97 8.37,0 15.18,-6.59 15.18,-15.97zm-107.77 50.71l0 -78.62 13.74 0 0 7.25c4.12,-5.13 10.27,-8.26 17.64,-8.26 15.07,0 26.9,12.4 26.9,28.81 0,16.41 -12.06,28.92 -27.24,28.92 -7.03,0 -12.84,-2.79 -16.86,-7.48l0 29.38 -14.18 0zm44.22 -50.71c0,-9.04 -6.81,-15.97 -15.19,-15.97 -8.37,0 -15.18,6.7 -15.18,15.97 0,9.16 6.81,15.97 15.18,15.97 8.38,0 15.19,-6.93 15.19,-15.97zm-132.57 3.68c1,8.27 6.92,12.96 14.4,12.96 5.92,0 10.5,-2.79 13.18,-7.26l14.4 0c-3.35,11.84 -13.96,19.43 -27.91,19.43 -16.86,0 -28.7,-11.84 -28.7,-28.7 0,-16.86 12.51,-29.03 29.03,-29.03 16.63,0 28.7,12.28 28.7,29.03 0,1.23 -0.12,2.46 -0.34,3.57l-42.76 0zm28.02 -8.7c-1,-7.26 -6.92,-11.62 -13.84,-11.62 -6.92,0 -12.62,4.25 -14.07,11.62l27.91 0zm-50.46 20.54c-4.81,0 -6.15,-1.79 -6.15,-6.48l0 -24.79 8.83 0 0 -12.16 -8.83 0 0 -13.63 -14.06 0 0 13.63 -18.13 0 0 -5.56c0,-4.69 1.79,-6.48 6.7,-6.48l3.09 0 0 -10.83 -6.78 0c-11.6,0 -17.07,3.8 -17.07,15.41l0 7.46 -7.82 0 0 12.16 7.82 0 0 43.66 14.06 0 0 -43.66 18.13 0 0 27.36c0,11.39 4.35,16.3 15.74,16.3l7.25 0 0 -12.39 -2.78 0zm-80.45 12.39l0 -7.25c-4.13,5.02 -10.27,8.15 -17.64,8.15 -14.87,0 -26.26,-11.61 -26.88,-27.44l0 -2.7c0.63,-15.76 12.44,-27.59 27.22,-27.59 7.14,0 13.17,3.13 17.3,8.04l0 -7.03 13.74 0 0 55.82 -13.74 0zm-0.11 -27.91c0,-9.38 -6.81,-15.97 -15.18,-15.97 -8.38,0 -15.19,6.7 -15.19,15.97 0,9.16 6.81,15.97 15.19,15.97 8.37,0 15.18,-6.59 15.18,-15.97zm380.55 -27.91l-38.09 78.62 -15.81 0 14.23 -29.39 -22.37 -49.23 16.21 0 14.38 32.97 15.7 -32.97 15.75 0z"/>
 </g>
</svg>
