<?xml version="1.0" encoding="UTF-8" standalone="no"?>
<svg
   xmlns:dc="http://purl.org/dc/elements/1.1/"
   xmlns:cc="http://creativecommons.org/ns#"
   xmlns:rdf="http://www.w3.org/1999/02/22-rdf-syntax-ns#"
   xmlns:svg="http://www.w3.org/2000/svg"
   xmlns="http://www.w3.org/2000/svg"
   xmlns:sodipodi="http://sodipodi.sourceforge.net/DTD/sodipodi-0.dtd"
   xmlns:inkscape="http://www.inkscape.org/namespaces/inkscape"
   version="1.1"
   id="svg2"
   xml:space="preserve"
   width="6.6666665"
   height="9.333333"
   viewBox="0 0 6.6666665 9.333333"
   sodipodi:docname="bag.eps"><metadata
     id="metadata8"><rdf:RDF><cc:Work
         rdf:about=""><dc:format>image/svg+xml</dc:format><dc:type
           rdf:resource="http://purl.org/dc/dcmitype/StillImage" /></cc:Work></rdf:RDF></metadata><defs
     id="defs6" /><sodipodi:namedview
     pagecolor="#ffffff"
     bordercolor="#666666"
     borderopacity="1"
     objecttolerance="10"
     gridtolerance="10"
     guidetolerance="10"
     inkscape:pageopacity="0"
     inkscape:pageshadow="2"
     inkscape:window-width="640"
     inkscape:window-height="480"
     id="namedview4" /><g
     id="g10"
     inkscape:groupmode="layer"
     inkscape:label="ink_ext_XXXXXX"
     transform="matrix(1.3333333,0,0,-1.3333333,0,9.3333333)"><g
       id="g12"
       transform="scale(0.1)"><path
         d="m 26.0273,60.1758 c 6.6641,0 12.0665,-4.582 12.0782,-10.2344 h 4.1054 c 2.836,0 5.1563,-2.3203 5.1563,-5.1601 V 12.5352 c 0,-2.83989 -2.3203,-5.1602 -5.1563,-5.1602 H 9.84375 c -2.83594,0 -5.15625,2.32031 -5.15625,5.1602 v 32.2461 c 0,2.8398 2.32031,5.1601 5.15625,5.1601 h 4.10545 c 0.0156,5.6524 5.418,10.2344 12.0781,10.2344 z M 16.7734,49.9414 h 18.5079 c -0.0118,4.3281 -4.1524,7.832 -9.254,7.832 -5.1015,0 -9.2421,-3.5039 -9.2539,-7.832"
         style="fill:#808080;fill-opacity:1;fill-rule:evenodd;stroke:none"
         id="path14" /></g></g></svg>
