<?xml version="1.0" encoding="UTF-8" standalone="no"?>
<svg
   xmlns:dc="http://purl.org/dc/elements/1.1/"
   xmlns:cc="http://creativecommons.org/ns#"
   xmlns:rdf="http://www.w3.org/1999/02/22-rdf-syntax-ns#"
   xmlns:svg="http://www.w3.org/2000/svg"
   xmlns="http://www.w3.org/2000/svg"
   viewBox="0 0 222.66667 240"
   height="240"
   width="222.66667"
   xml:space="preserve"
   id="svg2"
   version="1.1"><metadata
     id="metadata8"><rdf:RDF><cc:Work
         rdf:about=""><dc:format>image/svg+xml</dc:format><dc:type
           rdf:resource="http://purl.org/dc/dcmitype/StillImage" /></cc:Work></rdf:RDF></metadata><defs
     id="defs6" /><g
     transform="matrix(1.3333333,0,0,-1.3333333,0,240)"
     id="g10"><g
       transform="scale(0.1)"
       id="g12"><path
         id="path14"
         style="fill:#333333;fill-opacity:1;fill-rule:evenodd;stroke:none"
         d="m 1324.61,1573.14 c -115.4,40.73 -229.23,-78.48 -233.97,-87.12 -10.08,7.09 -20.74,13.44 -32,19.12 -0.48,15.57 2.74,132.54 -36.68,210.76 -34.534,68.6 -77.562,80.68 -155.21,80.68 -20.598,0 -44.25,-0.93 -68.676,-1.96 -117.64,-4.98 -180.375,-184.13 -191.347,-240.63 3.07,0.55 5.984,1.01 8.836,1.44 3.066,0.46 6,0.87 8.796,1.24 18.563,2.39 31.161,2.56 35.243,2.51 3.296,0.31 13.453,1.11 28.363,1.3 2.719,0.04 29.691,0.95 32.719,0.93 2.718,0 5.457,-0.02 8.425,-0.08 13.766,68.17 42.891,120.33 97.567,122.81 16.469,0.74 27.066,-0.33 39.844,-0.33 46.058,0 50.132,-2.21 69.492,-43.42 21.355,-45.43 13.961,-72.96 15.144,-100.92 -47.726,9.83 -85.121,9.66 -150.109,10.96 13.226,-2.55 26.949,-5.73 40.949,-9.62 10.488,-2.91 21.109,-6.13 31.828,-9.92 105.024,-37.09 217.036,-118.98 256.256,-297.28 73.45,-333.922 73.86,-655.044 74.09,-846.915 l 0.08,-38.425 c 0.29,-85.454 -6.12,-147.387 -21.2,-192.047 -1.26,-3.75 -2.61,-7.399 -3.98,-10.91 -1.56,-3.903 -3.09,-7.825 -4.8,-11.442 1.3,0.625 2.52,1.149 3.82,1.789 8.87,4.328 17.34,8.133 25.38,11.766 62.17,28.039 103.24,46.543 100.62,194.281 -0.36,20.02 -1.29,48.168 -2.74,82.266 21.55,-19.067 102.42,-90.575 159.79,-140.672 66.7,-58.25 96.04,-39.723 96.04,-39.723 72.01,13.238 105.6,72.906 105.6,72.906 C 1432.27,1620.24 1324.61,1573.14 1324.61,1573.14 Z m -21.89,-987.468 c -16.23,274.215 -61.68,663.138 -122.19,789.458 -3.14,6.58 -6.54,12.64 -9.9,18.74 13.96,21.94 56.5,57.28 79.94,61.51 0,0 161.97,-358.79 231.32,-1007.505 0,0.016 -135.31,108.926 -179.17,137.797 z m -254.43,609.858 c -74.13,337.05 -420.477,301.24 -435.216,299.6 -0.719,-0.08 -1.511,-0.1 -2.191,-0.12 -0.508,0.04 -60.875,0.47 -137.371,-32.42 -19.438,-8.37 -41.125,-19.58 -63.824,-34.18 -15.125,-9.77 -30.735,-21.12 -46.461,-34.29 -11.707,-9.8 -23.434,-20.64 -35.125,-32.56 -97.45,-136.26 -136.161,-318.02 -144.36,-361.783 22.25,3.063 193.387,24.703 463.176,3.963 26.969,-1.63 51.629,-3.826 73.957,-6.525 31.238,-3.785 57.977,-8.582 79.41,-14.406 2.199,-0.196 17.262,-1.864 38.582,-9.496 60.055,-21.493 169.993,-90.75 183.253,-311.067 18.36,-304.719 -36.214,-513.558 -36.913,-516.277 -0.191,-1.008 -17.613,-85.0627 -175.211,-114.2815 40.02,22.6563 77.219,64.1094 87.371,140.1285 24.153,181.094 37.707,426.727 18.582,524.293 -19.144,97.606 -45.863,180.61 -179.91,207.754 -88.945,18.02 -250.797,21.805 -370.93,21.805 -53.765,0 -98.461,-0.758 -126.906,-1.379 -3.531,-0.078 -6.562,-0.156 -9.57,-0.215 -3.613,-0.094 -6.758,-0.152 -9.57,-0.23 -1.516,-0.039 -3.321,-0.078 -4.602,-0.117 -5.902,0 -28.172,-0.911 -55.453,-10.368 -1.672,-0.582 -3.305,-1.168 -4.914,-1.789 -3.981,-1.511 -8.035,-3.086 -12.153,-4.988 -5.261,-2.465 -10.425,-5.008 -15.242,-7.883 C 65.4219,862.063 40.3789,793.852 30.2188,747.914 28.8242,740.438 27.5625,732.75 26.5508,724.613 7.13281,564.004 8.29688,392.672 11.1523,230.957 13.7148,86.1133 100.078,70.6563 163.141,59.3789 c 5.961,-1.0508 11.804,-2.0976 17.433,-3.2226 69.864,-13.8633 373.629,-45.3399 504.824,-50.40239 0,0 6.856,-0.83594 18.157,-0.83594 5.3,0 12.25,0.25 20.285,0.94922 16.234,0.64062 31.535,1.74609 45.941,3.26172 h 0.176 c 3.688,-0.07813 7.336,-0.11719 11.027,-0.11719 23.297,0 47.008,1.76558 71.18,4.89058 106.578,25.8243 186.166,50.7735 187.856,51.2969 13.86,5.1094 26.25,12.6406 37.03,24.4492 3.81,4.1758 7.43,8.793 10.81,14.1916 21.82,34.949 34.21,97.254 33.84,213.324 l -0.07,38.465 c -0.26,190.551 -0.67,509.461 -73.34,839.901 z M 713.477,514.121 c 0,0 -111.372,2.484 -235.114,8.035 -3.297,0.16 -6.636,0.313 -9.976,0.469 -3.324,0.156 -6.641,0.313 -9.981,0.469 -71.668,3.379 -145.508,7.804 -203.093,13.375 -4.118,0.41 -8.293,0.797 -12.211,1.207 -4.274,0.445 -8.332,0.91 -12.391,1.359 -24.211,2.735 -44.441,5.727 -58.535,8.973 l 5.199,50.734 1.145,11.199 1.148,11.207 7.129,69.645 c 0,0 71.801,-5.883 178.297,-11.531 3.336,-0.176 6.64,-0.352 10.039,-0.524 3.301,-0.175 6.656,-0.351 10.019,-0.504 95.563,-4.836 215.305,-9.226 335.649,-9.226 l -7.324,-154.887" /></g></g></svg>