<svg xmlns="http://www.w3.org/2000/svg" viewBox="0 0 32 40" x="0px" y="0px"><g><path d="M3,6A2,2,0,0,1,5,4h5.14L5.247,8.893A3,3,0,0,1,3,6ZM26,9V8a4,4,0,0,0-4-4H17.828l5,5Zm-1,1H6a1.982,1.982,0,0,1-.4-.041A3.991,3.991,0,0,1,2,6V25a5.006,5.006,0,0,0,5,5H25a5.006,5.006,0,0,0,5-5V24H25a3,3,0,0,1-3-3V19a3,3,0,0,1,3-3h5V15A5.006,5.006,0,0,0,25,10Zm-1,9v2a1,1,0,0,0,1,1h5V18H25A1,1,0,0,0,24,19ZM9.382,9l4.6-4.6,4.6,4.6h2.828L14.691,2.277a1,1,0,0,0-1.414,0L6.554,9Z"/><rect width="32" height="32" fill="none"/></g><text x="0" y="47" fill="#000000" font-size="5px" font-weight="bold" font-family="'Helvetica Neue', Helvetica, Arial-Unicode, Arial, Sans-serif">Created by Iconzilla.id</text><text x="0" y="52" fill="#000000" font-size="5px" font-weight="bold" font-family="'Helvetica Neue', Helvetica, Arial-Unicode, Arial, Sans-serif">from the Noun Project</text></svg>