<?xml version="1.0" encoding="UTF-8" standalone="no"?>
<svg
   xmlns:dc="http://purl.org/dc/elements/1.1/"
   xmlns:cc="http://creativecommons.org/ns#"
   xmlns:rdf="http://www.w3.org/1999/02/22-rdf-syntax-ns#"
   xmlns:svg="http://www.w3.org/2000/svg"
   xmlns="http://www.w3.org/2000/svg"
   xmlns:sodipodi="http://sodipodi.sourceforge.net/DTD/sodipodi-0.dtd"
   xmlns:inkscape="http://www.inkscape.org/namespaces/inkscape"
   version="1.1"
   id="svg2"
   xml:space="preserve"
   width="72"
   height="9.333333"
   viewBox="0 0 72 9.333333"
   sodipodi:docname="care.eps"><metadata
     id="metadata8"><rdf:RDF><cc:Work
         rdf:about=""><dc:format>image/svg+xml</dc:format><dc:type
           rdf:resource="http://purl.org/dc/dcmitype/StillImage" /></cc:Work></rdf:RDF></metadata><defs
     id="defs6" /><sodipodi:namedview
     pagecolor="#ffffff"
     bordercolor="#666666"
     borderopacity="1"
     objecttolerance="10"
     gridtolerance="10"
     guidetolerance="10"
     inkscape:pageopacity="0"
     inkscape:pageshadow="2"
     inkscape:window-width="640"
     inkscape:window-height="480"
     id="namedview4" /><g
     id="g10"
     inkscape:groupmode="layer"
     inkscape:label="ink_ext_XXXXXX"
     transform="matrix(1.3333333,0,0,-1.3333333,0,9.3333333)"><g
       id="g12"
       transform="scale(0.1)"><path
         d="m 199.285,13.3945 -6.219,4.5938 -12.761,25.5508 18.98,14.0273 c 0.606,0.4492 0.735,1.3008 0.285,1.9063 -0.449,0.6093 -1.304,0.7343 -1.906,0.289 l -18.594,-13.7461 -10.742,21.5 c -0.461,0.9258 -1.973,0.9258 -2.437,0 l -10.739,-21.5 -18.597,13.7461 c -0.598,0.4453 -1.453,0.3203 -1.903,-0.289 -0.449,-0.6055 -0.32,-1.4571 0.286,-1.9063 l 18.976,-14.0273 -12.762,-25.5508 -6.214,-4.5938 c -0.606,-0.4492 -0.735,-1.3007 -0.286,-1.9062 0.27,-0.3633 0.68,-0.5508 1.094,-0.5508 0.281,0 0.57,0.0859 0.809,0.2656 l 1.914,1.4141 -1.215,-2.4336 c -0.211,-0.42188 -0.188,-0.92579 0.059,-1.32813 0.253,-0.40234 0.691,-0.64453 1.164,-0.64453 l 57.269,-0.00391 c 0.469,0 0.91,0.2461 1.16,0.64844 0.25,0.40234 0.27,0.90625 0.059,1.32813 l -1.215,2.4336 1.914,-1.4141 c 0.242,-0.1797 0.527,-0.2656 0.809,-0.2656 0.418,0 0.828,0.1875 1.097,0.5508 0.45,0.6055 0.321,1.457 -0.285,1.9062 z m -11.062,8.1758 -18.821,13.9102 8.664,6.4062 z m -21.114,42.2266 9.719,-19.4375 -9.719,-7.1836 -9.714,7.1836 z m -10.953,-21.9102 8.66,-6.4062 -18.82,-13.9102 z m -15.476,-30.9492 2.629,5.2578 23.8,17.5899 23.805,-17.5899 2.625,-5.2578 H 140.68"
         style="fill:#333333;fill-opacity:1;fill-rule:evenodd;stroke:none"
         id="path14" /><path
         d="m 531.555,58.4883 7.59,7.5898 c 0.488,0.4844 0.488,1.2774 0,1.7657 -0.489,0.4882 -1.282,0.4882 -1.766,0 l -7.59,-7.5899 c -5.348,4.9219 -12.457,7.9531 -20.277,7.9531 -7.824,0 -14.934,-3.0312 -20.282,-7.9531 l -7.589,7.5899 c -0.485,0.4882 -1.278,0.4882 -1.766,0 -0.488,-0.4883 -0.488,-1.2813 0,-1.7657 l 7.59,-7.5898 c -4.922,-5.3477 -7.953,-12.457 -7.953,-20.2813 0,-7.8203 3.031,-14.9297 7.953,-20.2773 l -7.59,-7.5899 c -0.488,-0.48433 -0.488,-1.2773 0,-1.76558 0.246,-0.24219 0.566,-0.36719 0.887,-0.36719 0.316,0 0.636,0.125 0.879,0.36719 l 7.589,7.58988 c 5.348,-4.9219 12.458,-7.95707 20.282,-7.95707 7.82,0 14.929,3.03517 20.277,7.95707 l 7.59,-7.58988 c 0.242,-0.24219 0.562,-0.36719 0.879,-0.36719 0.32,0 0.64,0.125 0.887,0.36719 0.488,0.48828 0.488,1.28125 0,1.76558 l -7.59,7.5899 c 4.922,5.3476 7.953,12.457 7.953,20.2773 0,7.8243 -3.031,14.9336 -7.953,20.2813 z m -22.043,7.2226 c 7.129,0 13.617,-2.7539 18.508,-7.2226 L 509.512,39.9766 491,58.4883 c 4.891,4.4687 11.379,7.2226 18.512,7.2226 z M 489.23,19.6992 c -4.468,4.8906 -7.222,11.3789 -7.222,18.5078 0,7.1328 2.754,13.6211 7.222,18.5118 L 507.742,38.207 Z m 20.282,-8.9922 c -7.133,0 -13.621,2.7539 -18.512,7.2227 L 509.512,36.4414 528.02,17.9297 C 523.129,13.4609 516.641,10.707 509.512,10.707 Z m 20.277,8.9922 -18.512,18.5078 18.512,18.5118 c 4.469,-4.8907 7.219,-11.379 7.219,-18.5118 0,-7.1289 -2.75,-13.6172 -7.219,-18.5078"
         style="fill:#333333;fill-opacity:1;fill-rule:evenodd;stroke:none"
         id="path16" /><path
         d="m 303.891,68.207 h -57.559 c -0.676,0 -1.223,-0.5429 -1.223,-1.2187 V 9.42969 c 0,-0.67578 0.547,-1.21875 1.223,-1.21875 h 57.559 c 0.675,0 1.218,0.54297 1.218,1.21875 V 66.9883 c 0,0.6758 -0.543,1.2187 -1.218,1.2187 z M 275.109,34.0352 c 2.301,0 4.172,1.8711 4.172,4.1718 0,2.3047 -1.871,4.1758 -4.172,4.1758 -2.296,0 -4.171,-1.8711 -4.171,-4.1758 0,-2.3007 1.875,-4.1718 4.171,-4.1718 z m 0,5.9023 c 0.954,0 1.731,-0.7773 1.731,-1.7305 0,-0.9492 -0.777,-1.7265 -1.731,-1.7265 -0.953,0 -1.726,0.7773 -1.726,1.7265 0,0.9532 0.773,1.7305 1.726,1.7305 z m 0,-26.7578 c 13.805,0 25.032,11.2266 25.032,25.0273 0,13.8047 -11.227,25.0313 -25.032,25.0313 -13.8,0 -25.027,-11.2266 -25.027,-25.0313 0,-13.8007 11.227,-25.0273 25.027,-25.0273 z m 0,47.6172 c 12.457,0 22.59,-10.1328 22.59,-22.5899 0,-12.4531 -10.133,-22.5859 -22.59,-22.5859 -12.453,0 -22.589,10.1328 -22.589,22.5859 0,12.4571 10.136,22.5899 22.589,22.5899 z m 27.559,-50.1485 h -55.117 v 55.1172 h 55.117 V 10.6484"
         style="fill:#333333;fill-opacity:1;fill-rule:evenodd;stroke:none"
         id="path18" /><path
         d="m 440.094,10.3281 -6.848,51.3711 c -0.496,3.7149 -3.691,6.5078 -7.433,6.5078 h -43.825 c -1.039,0 -1.879,-0.8359 -1.879,-1.8711 0,-1.039 0.84,-1.8789 1.879,-1.8789 l 43.825,0.0039 c 1.871,0 3.468,-1.4023 3.714,-3.2539 l 2.571,-19.25 h -50.11 c -17.578,0 -31.875,-14.2968 -31.875,-31.875 0,-1.03512 0.84,-1.87106 1.871,-1.87106 h 86.254 c 0.539,0 1.055,0.23047 1.41,0.63672 0.356,0.40625 0.52,0.94922 0.446,1.48044 z m -41.231,14.7578 c 0,2.0664 -1.679,3.75 -3.75,3.75 -2.074,0 -3.75,-1.6836 -3.75,-3.75 0,-2.0742 1.676,-3.75 3.75,-3.75 2.071,0 3.75,1.6758 3.75,3.75 z m -44.937,-13.125 c 0.969,14.6329 13.183,26.2461 28.062,26.2461 h 50.606 l 3.5,-26.2461 h -82.168"
         style="fill:#333333;fill-opacity:1;fill-rule:evenodd;stroke:none"
         id="path20" /><path
         d="m 96.5938,68.168 c -0.961,0.2109 -1.9961,-0.4492 -2.2032,-1.4688 L 91.8125,53.8086 c -1.0898,0.5586 -1.9531,1.457 -2.9453,2.5391 -1.7774,1.9414 -3.9922,4.3554 -8.2578,4.3554 -4.2617,0 -6.4727,-2.414 -8.2539,-4.3554 -1.6016,-1.7539 -2.875,-3.1407 -5.4805,-3.1407 -2.6094,0 -3.8789,1.3868 -5.4883,3.1407 -1.7773,1.9414 -3.9961,4.3554 -8.2578,4.3554 -4.2578,0 -6.4726,-2.414 -8.25,-4.3554 -1.6133,-1.7539 -2.8828,-3.1407 -5.4961,-3.1407 -2.6133,0 -3.8867,1.3868 -5.4961,3.1407 -1.7812,1.9414 -4,4.3554 -8.2695,4.3554 -4.2656,0 -6.4805,-2.414 -8.2617,-4.3554 -0.9922,-1.0821 -1.8594,-1.9805 -2.9571,-2.543 l -2.582,12.8945 C 11.6133,67.7188 10.5742,68.3828 9.61328,68.168 8.59375,67.9648 7.93359,66.9766 8.14063,65.9609 L 18.4844,14.2383 c 0.6992,-3.4961 3.7969,-6.03127 7.3554,-6.03127 h 54.5274 c 3.5586,0 6.6562,2.53517 7.3555,6.03127 l 10.3437,51.7226 c 0.207,1.0157 -0.4531,2.0039 -1.4726,2.2071 z M 56.8477,32.0586 c 0,-2.7656 0.3281,-4.7813 0.9961,-6.043 0.664,-1.2695 1.707,-1.9023 3.1367,-1.9023 1.4414,0 2.4883,0.6289 3.1484,1.8867 0.6524,1.2578 0.9844,3.2773 0.9844,6.0586 0,2.793 -0.332,4.8242 -0.9844,6.0859 -0.6601,1.2696 -1.707,1.8985 -3.1484,1.8985 -1.4297,0 -2.4727,-0.6367 -3.1367,-1.9141 -0.668,-1.2734 -0.9961,-3.3008 -0.9961,-6.0703 z m -2.7579,0 c 0,3.3789 0.586,5.9492 1.754,7.7031 1.1679,1.7539 2.8789,2.6367 5.1328,2.6367 2.2539,0 3.9804,-0.875 5.1562,-2.6289 1.1758,-1.7461 1.7656,-4.3203 1.7656,-7.7109 0,-3.3711 -0.5898,-5.9297 -1.7617,-7.6758 -1.1719,-1.7461 -2.8945,-2.6211 -5.1601,-2.6211 -2.2539,0 -3.9649,0.875 -5.1328,2.6211 -1.168,1.7461 -1.754,4.3047 -1.754,7.6758 z m -4.5859,-3.6367 c 0,1.2929 -0.3555,2.332 -1.0703,3.1094 -0.7188,0.7773 -1.6563,1.164 -2.8242,1.164 -1.3086,0 -2.3321,-0.3828 -3.0742,-1.1484 -0.7461,-0.7696 -1.1172,-1.8242 -1.1172,-3.1563 0,-1.3398 0.3711,-2.4023 1.1172,-3.1836 0.7421,-0.7851 1.7343,-1.1797 2.9882,-1.1797 1.1954,0 2.1563,0.4024 2.8907,1.2071 0.7265,0.8008 1.0898,1.8672 1.0898,3.1875 z m 2.6133,8.4648 h -2.6406 c -0.0938,1.043 -0.4453,1.836 -1.0547,2.375 -0.6094,0.543 -1.4492,0.8125 -2.5352,0.8125 -1.4531,0 -2.5742,-0.5976 -3.3476,-1.7929 -0.7735,-1.1954 -1.2305,-3.0079 -1.3594,-5.4336 0.5703,0.7226 1.2539,1.2695 2.0547,1.6406 0.7969,0.375 1.6914,0.5625 2.6797,0.5625 1.9062,0 3.4492,-0.6055 4.6172,-1.8125 1.1718,-1.211 1.7578,-2.8125 1.7578,-4.7891 0,-1.9883 -0.6211,-3.6015 -1.8711,-4.8359 -1.25,-1.2344 -2.8828,-1.8516 -4.9024,-1.8516 -2.3242,0 -4.1093,0.8086 -5.3476,2.4297 -1.2422,1.6211 -1.8594,3.9531 -1.8594,6.9844 0,3.5781 0.6602,6.3398 1.9766,8.293 1.3203,1.9531 3.1718,2.9296 5.5664,2.9296 1.8867,0 3.3711,-0.4804 4.457,-1.4375 1.0859,-0.9531 1.6875,-2.3125 1.8086,-4.0742 z M 84.0469,14.9727 C 83.6953,13.2266 82.1484,11.957 80.3672,11.957 H 25.8398 c -1.7812,0 -3.3242,1.2696 -3.6757,3.0157 l -7.0196,35.082 c 2.2149,0.8164 3.6797,2.3476 4.9766,3.7578 1.6094,1.7578 2.8828,3.1445 5.4961,3.1445 2.6211,0 3.8984,-1.3906 5.5078,-3.1445 1.7773,-1.9414 4,-4.3555 8.2617,-4.3555 4.2617,0 6.4766,2.418 8.2578,4.3594 1.6055,1.7539 2.875,3.1406 5.4844,3.1406 2.6094,0 3.8828,-1.3867 5.4922,-3.1445 1.7773,-1.9375 3.9922,-4.3555 8.2539,-4.3555 4.2578,0 6.4727,2.418 8.25,4.3555 1.6094,1.7578 2.875,3.1445 5.4844,3.1445 2.6133,0 3.8828,-1.3867 5.4961,-3.1445 1.2929,-1.4102 2.75,-2.9414 4.957,-3.7578 l -7.0156,-35.082"
         style="fill:#333333;fill-opacity:1;fill-rule:evenodd;stroke:none"
         id="path22" /></g></g></svg>
