<?xml version="1.0" encoding="UTF-8"?>
<!DOCTYPE svg PUBLIC "-//W3C//DTD SVG 1.1//EN" "http://www.w3.org/Graphics/SVG/1.1/DTD/svg11.dtd">
<!-- Creator: CorelDRAW -->
<svg xmlns="http://www.w3.org/2000/svg" xml:space="preserve" version="1.1" style="shape-rendering:geometricPrecision; text-rendering:geometricPrecision; image-rendering:optimizeQuality; fill-rule:evenodd; clip-rule:evenodd"
viewBox="0 0 831.32 831.32"
 xmlns:xlink="http://www.w3.org/1999/xlink"
 xmlns:xodm="http://www.corel.com/coreldraw/odm/2003">
 <defs>
  <style type="text/css">
   <![CDATA[
    .fil0 {fill:#333333;fill-rule:nonzero;fill-opacity:0.501961}
   ]]>
  </style>
 </defs>
 <g id="Слой_x0020_1">
  <metadata id="CorelCorpID_0Corel-Layer"/>
  <path class="fil0" d="M415.66 0c-229.19,0 -415.66,186.47 -415.66,415.66 0,229.21 186.47,415.66 415.66,415.66 229.21,0 415.66,-186.45 415.66,-415.66 0,-229.19 -186.45,-415.66 -415.66,-415.66zm195.66 263.16l-208.03 306.57 -162.59 -150.89c-7.32,-6.78 -7.76,-18.22 -0.96,-25.54 6.78,-7.33 18.24,-7.73 25.54,-0.95l131.74 122.23 184.39 -271.73c5.62,-8.26 16.87,-10.39 25.11,-4.81 8.27,5.61 10.42,16.85 4.8,25.12z"/>
 </g>
</svg>
