<?xml version="1.0" encoding="UTF-8" standalone="no"?>
<svg
   xmlns:dc="http://purl.org/dc/elements/1.1/"
   xmlns:cc="http://creativecommons.org/ns#"
   xmlns:rdf="http://www.w3.org/1999/02/22-rdf-syntax-ns#"
   xmlns:svg="http://www.w3.org/2000/svg"
   xmlns="http://www.w3.org/2000/svg"
   xmlns:sodipodi="http://sodipodi.sourceforge.net/DTD/sodipodi-0.dtd"
   xmlns:inkscape="http://www.inkscape.org/namespaces/inkscape"
   version="1.1"
   id="svg2"
   xml:space="preserve"
   width="8"
   height="8"
   viewBox="0 0 8 8"
   sodipodi:docname="close.eps"><metadata
     id="metadata8"><rdf:RDF><cc:Work
         rdf:about=""><dc:format>image/svg+xml</dc:format><dc:type
           rdf:resource="http://purl.org/dc/dcmitype/StillImage" /></cc:Work></rdf:RDF></metadata><defs
     id="defs6" /><sodipodi:namedview
     pagecolor="#0ff"
     bordercolor="#0ff"
     borderopacity="1"
     objecttolerance="10"
     gridtolerance="10"
     guidetolerance="10"
     inkscape:pageopacity="0"
     inkscape:pageshadow="2"
     inkscape:window-width="640"
     inkscape:window-height="480"
     id="namedview4" /><g
     id="g10"
     inkscape:groupmode="layer"
     inkscape:label="ink_ext_XXXXXX"
     transform="matrix(1.3333333,0,0,-1.3333333,0,8)"><g
       id="g12"
       transform="scale(0.1)"><path
         d="m 36.0273,28.8008 21.1055,21.1055 c 1.2149,1.2148 1.2149,3.164 0,4.3828 -0.5781,0.582 -1.332,0.8828 -2.0937,0.9062 H 54.8398 C 54.0859,55.1719 53.332,54.8711 52.7578,54.2891 L 31.6484,33.1797 10.5313,54.2891 c -0.57817,0.582 -1.32817,0.8828 -2.08989,0.9062 H 8.24219 C 7.48438,55.1719 6.73047,54.8711 6.15234,54.2891 5.58203,53.7188 5.28125,52.9883 5.24219,52.2461 V 51.9492 C 5.28125,51.207 5.58203,50.4766 6.15234,49.9063 L 27.2617,28.8008 6.15234,7.67969 C 5.58203,7.11719 5.28125,6.38672 5.24219,5.64453 V 5.34766 C 5.28125,4.60547 5.58203,3.87109 6.15234,3.30078 6.75,2.69922 7.54688,2.39453 8.33203,2.39453 c 0.79688,0 1.59766,0.30469 2.19927,0.90625 L 31.6367,24.4102 52.7578,3.30078 c 0.5977,-0.60156 1.3985,-0.90625 2.1836,-0.90625 0.7969,0 1.5938,0.30469 2.1914,0.90625 1.2031,1.21875 1.2031,3.17969 0,4.37891 L 36.0273,28.8008"
         style="fill:#0ff;fill-opacity:1;fill-rule:evenodd;stroke:none"
         id="path14" /></g></g></svg>
