<?xml version="1.0" encoding="UTF-8"?>
<!DOCTYPE svg PUBLIC "-//W3C//DTD SVG 1.1//EN" "http://www.w3.org/Graphics/SVG/1.1/DTD/svg11.dtd">
<!-- Creator: CorelDRAW -->
<svg xmlns="http://www.w3.org/2000/svg" xml:space="preserve" version="1.1"
viewBox="0 0 538.96 859.54"
 xmlns:xlink="http://www.w3.org/1999/xlink"
 xmlns:xodm="http://www.corel.com/coreldraw/odm/2003">
 <g id="layer_x0020_1">
  <metadata id="CorelCorpID_0Corel-Layer"/>
  <path class="fil0" d="M73.51 310.72c0,55.62 38.95,102.12 91.06,113.87 1.58,-2.98 3.16,-5.61 5.09,-8.42 17.2,-25.09 40.53,-29.65 48.43,-30.35 3.15,-0.35 6.31,-0.53 9.47,-0.53 11.23,0 26.49,2.11 42.28,10.53 22.63,-21.23 36.85,-51.59 36.85,-85.1 0,-64.39 -52.29,-116.67 -116.68,-116.67 -64.39,0 -116.5,52.28 -116.5,116.67zm444.25 167.56c-9.65,-7.54 -110.36,-119.31 -137.56,-135.1l0 -290.02c0,-29.47 -23.86,-53.16 -53.16,-53.16l-273.88 0c-29.47,0 -53.16,23.86 -53.16,53.16l0 507.76c0,29.47 23.86,53.16 53.16,53.16l87.9 0 31.41 0 -4.91 -41.76c-1.58,-1.4 -2.63,-2.28 -4.21,-3.68l-17.55 0 -35.09 0c1.75,-7.02 2.28,-14.74 0.88,-22.63 -3.86,-21.94 -21.23,-39.66 -43.16,-43.69 -8.08,-1.58 -15.97,-1.06 -23.16,0.7l0 -395.29c3.16,0.52 6.49,0.87 9.82,0.87 29.83,0 53.86,-24.21 53.86,-53.86 0,-3.16 -0.35,-6.31 -0.87,-9.47l163.52 0c-0.53,3.16 -0.88,6.31 -0.88,9.47 0,29.83 24.04,53.86 53.87,53.86 3.33,0 6.66,-0.35 9.82,-0.87l0 385.82 0 0 0 110.88c-18.6,-13.69 -39.3,-56.5 -39.3,-56.5 0,0 -10.18,-113.86 -67.9,-113.86 -1.58,0 -2.98,0 -4.56,0.17 0,0 -43.69,3.69 -7.55,128.61l16.15 138.78c0,0 18.07,75.27 67.89,127.38l0 15.44c0,8.24 6.67,15.09 15.09,15.09l162.29 0c7.72,0 14.04,-5.79 14.92,-13.34 5.79,-54.04 28.24,-254.93 41.4,-285.46 2.11,-4.91 3.86,-9.82 4.56,-15.09 2.99,-17.19 4.04,-48.77 -19.64,-67.37zm-289.5 -337.39c0,-17.83 -14.45,-32.28 -32.28,-32.28 -17.83,0 -32.28,14.45 -32.28,32.28 0,17.83 14.45,32.28 32.28,32.28 17.83,0 32.28,-14.45 32.28,-32.28zm-108.08 159.48c7.02,0 7.2,0 8.25,-7.01 0.88,-5.45 2.46,-10.53 4.56,-15.62 1.23,-2.81 3.16,-3.86 5.97,-2.98 4.38,1.23 8.59,2.45 12.98,3.86 4.04,1.23 4.56,2.63 2.81,6.49 -3.86,7.89 -5.44,15.97 -4.92,24.74 0.18,2.28 0.35,4.56 1.41,6.49 3.33,7.54 11.58,8.59 16.67,2.28 2.63,-3.16 4.38,-6.84 5.96,-10.7 2.81,-6.67 5.44,-13.34 8.77,-19.48 11.06,-20 36.15,-25.44 53.34,-11.23 6.14,5.09 10.35,11.76 12.46,19.48 0.88,3.33 2.63,4.91 6.14,4.73 3.51,-0.17 6.84,0 10.35,0 3.16,0 4.74,1.58 4.74,4.57 0.17,3.68 0.17,7.37 0,11.05 0,3.33 -1.93,4.74 -5.09,4.74 -2.46,0 -5.09,0 -7.54,0 -5.62,0 -5.8,0.17 -6.67,5.61 -1.05,6.84 -2.63,13.51 -5.61,19.83 -2.46,4.91 -3.69,5.44 -8.78,4.03 -3.86,-1.05 -7.72,-2.1 -11.4,-3.33 -4.39,-1.41 -4.91,-2.63 -2.81,-6.67 3.68,-6.84 5.62,-14.21 6.67,-21.93 0.7,-4.91 0.17,-9.82 -1.93,-14.39 -3.69,-8.59 -13.69,-10 -19.65,-2.63 -2.11,2.46 -3.51,5.26 -4.74,8.25 -3.33,7.54 -5.79,15.44 -10,22.46 -6.84,11.58 -16.32,18.77 -30.35,17.89 -15.79,-0.88 -25.79,-10 -31.06,-24.39 -2.1,-5.96 -2.1,-5.96 -8.42,-6.14 -2.11,0 -4.21,0 -6.32,0 -4.73,-0.17 -5.61,-0.87 -5.61,-5.61 0,-1.4 0,-2.98 0,-4.39 -0.18,-9.82 -0.18,-9.82 9.82,-10z"/>
 </g>
</svg>
