<?xml version="1.0" encoding="UTF-8"?>
<!DOCTYPE svg PUBLIC "-//W3C//DTD SVG 1.1//EN" "http://www.w3.org/Graphics/SVG/1.1/DTD/svg11.dtd">
<!-- Creator: CorelDRAW -->
<svg xmlns="http://www.w3.org/2000/svg" xml:space="preserve" version="1.1" style="shape-rendering:geometricPrecision; text-rendering:geometricPrecision; image-rendering:optimizeQuality; fill-rule:evenodd; clip-rule:evenodd"
viewBox="0 0 302.87 238.2"
 xmlns:xlink="http://www.w3.org/1999/xlink"
 xmlns:xodm="http://www.corel.com/coreldraw/odm/2003">
 <g id="Слой_x0020_1">
  <metadata id="CorelCorpID_0Corel-Layer"/>
  <path class="fil0" d="M246.71 86.42c0,-47.66 -55.4,-86.42 -123.36,-86.42 -68.05,0 -123.35,38.76 -123.35,86.42 0,27.07 17.4,51.91 47.76,68.45 -5.03,18.56 -13.15,42.43 -23.79,55.19 -0.67,0.88 -0.87,2.03 -0.29,3.1 0.49,0.87 1.45,1.45 2.42,1.45 0.1,0 0.19,0 0.29,0 2.32,-0.19 56.55,-5.61 91.26,-41.76 1.93,0.09 3.87,0.09 5.8,0.09 68.06,0 123.35,-38.76 123.35,-86.52l-0.09 0zm56.06 23.59c0,-31.71 -24.45,-59.45 -60.9,-74.53 13.63,15.47 21.56,33.83 21.56,53.55 0,54.72 -61.1,99.28 -136.21,99.28l-0.1 0c15.86,5.22 33.64,8.22 52.3,8.22 1.94,0 3.87,0 5.8,-0.1 34.71,36.16 88.94,41.57 91.26,41.77 0.1,0 0.19,0 0.29,0 1.06,0 1.93,-0.58 2.42,-1.45 0.48,-0.97 0.38,-2.23 -0.29,-3 -10.54,-12.76 -18.66,-36.64 -23.78,-55.2 30.35,-16.53 47.75,-41.28 47.75,-68.35l-0.1 -0.19z"/>
 </g>
</svg>
