<?xml version="1.0" encoding="UTF-8"?>
<!DOCTYPE svg PUBLIC "-//W3C//DTD SVG 1.1//EN" "http://www.w3.org/Graphics/SVG/1.1/DTD/svg11.dtd">
<!-- Creator: CorelDRAW -->
<svg xmlns="http://www.w3.org/2000/svg" xml:space="preserve" version="1.1" style="shape-rendering:geometricPrecision; text-rendering:geometricPrecision; image-rendering:optimizeQuality; fill-rule:evenodd; clip-rule:evenodd"
viewBox="0 0 66.11 76.32"
 xmlns:xlink="http://www.w3.org/1999/xlink"
 xmlns:xodm="http://www.corel.com/coreldraw/odm/2003">
 <g id="layer_x0020_1">
  <metadata id="CorelCorpID_0Corel-Layer"/>
  <path class="fil0" d="M64.05 49.26c-5.86,-0.11 -6.65,5.9 -6.65,5.9 0,0 -0.79,-6.01 -6.65,-5.9 5.86,0.1 6.65,-5.91 6.65,-5.91 0,0 0.79,6.01 6.65,5.91zm-54.23 -8.93c0,0 -0.63,4.86 -5.37,4.78 4.74,-0.08 5.37,4.78 5.37,4.78 0,0 0.64,-4.86 5.38,-4.78 -4.74,0.08 -5.38,-4.78 -5.38,-4.78zm5.22 -13.64c1.04,0.92 1.64,2.24 1.64,3.64 0,0.43 -0.06,0.87 -0.18,1.29 -0.27,0.85 -1.06,1.43 -1.95,1.43 -0.04,0 -0.07,0 -0.1,-0.01 -1.41,0.05 -1.72,-0.77 -1.81,-1.26 -0.09,-0.61 0.12,-1.1 0.31,-1.16 0.58,-0.19 0.96,-0.73 0.96,-1.33 0,-0.78 -0.63,-1.41 -1.41,-1.41 -0.15,0 -0.3,0.02 -0.45,0.07 -1.38,0.58 -2.28,1.94 -2.28,3.44 0,0.29 0.03,0.59 0.1,0.88 0.35,2.07 2.15,3.59 4.25,3.59 0.08,0 0.16,0 0.24,0l0.16 0c0.02,0 0.04,0 0.06,0 2.07,0 3.9,-1.32 4.56,-3.28 0.25,-0.7 0.38,-1.45 0.38,-2.2 0,-0.2 -0.01,-0.41 -0.03,-0.61 -0.17,-2 -1.1,-3.85 -2.58,-5.19 -0.11,-0.1 -0.23,-0.2 -0.35,-0.28 -1.85,-1.33 -3.88,-2.42 -6.01,-3.22 -4.67,-2.01 -7.74,-3.57 -7.74,-6.96l0 -5.85c0,-0.78 0.63,-1.41 1.41,-1.41l6.72 0c-0.08,-0.94 -0.14,-1.88 -0.18,-2.81l-6.54 0c-2.33,0 -4.22,1.89 -4.22,4.22l0 5.85c0,5.49 5.01,7.65 9.44,9.55 2,0.72 3.89,1.74 5.6,3.01l0 0.01zm46.85 -22.64l-6.57 0c-0.04,0.93 -0.11,1.87 -0.2,2.81l6.77 0c0.77,0 1.4,0.63 1.4,1.41l0 5.85c0,3.39 -3.06,4.95 -7.73,6.96 -2.17,0.81 -4.22,1.92 -6.09,3.27 -0.1,0.07 -0.18,0.15 -0.27,0.22 -1.46,1.32 -2.38,3.14 -2.57,5.09 -0.03,0.24 -0.04,0.48 -0.04,0.72 0,0.75 0.12,1.49 0.37,2.19 0.66,1.96 2.5,3.28 4.57,3.28 0.02,0 0.04,0 0.06,0l0.15 0c0.08,0.01 0.16,0.01 0.24,0.01 2.11,0 3.9,-1.52 4.25,-3.59 0.07,-0.29 0.11,-0.59 0.11,-0.89 0,-1.5 -0.9,-2.85 -2.29,-3.43 -0.14,-0.05 -0.3,-0.08 -0.45,-0.08 -0.78,0 -1.41,0.63 -1.41,1.41 0,0.61 0.39,1.15 0.96,1.34 0.2,0.06 0.41,0.55 0.31,1.15 -0.08,0.5 -0.41,1.31 -1.8,1.27 -0.03,0 -0.07,0 -0.1,0 -0.89,0 -1.68,-0.57 -1.95,-1.42 -0.12,-0.42 -0.18,-0.86 -0.18,-1.3 0,-1.39 0.6,-2.72 1.64,-3.64 1.71,-1.27 3.6,-2.29 5.6,-3.01 4.43,-1.9 9.44,-4.06 9.44,-9.55l0 -5.85c0,-2.33 -1.89,-4.22 -4.22,-4.22l0 0zm-47.99 4.18c-0.25,-2.17 -0.38,-4.37 -0.38,-6.56 0,-0.1 0,-0.21 0,-0.31 0.02,-0.76 0.65,-1.36 1.41,-1.36 0,0 0,0 0,0l36.21 0c0.01,0 0.01,0 0.01,0 0.75,0 1.38,0.6 1.4,1.36 0,0.13 0,0.26 0,0.39 0,2.16 -0.13,4.33 -0.39,6.47 -0.67,6.55 -4.05,12.78 -7.01,18.28 -2,3.32 -3.61,6.87 -4.77,10.58 -0.74,3.12 -1.25,6.3 -1.49,9.5l-11.7 0c-0.26,-3.19 -0.77,-6.38 -1.5,-9.51 -1.15,-3.7 -2.76,-7.25 -4.76,-10.57 -2.98,-5.5 -6.34,-11.73 -7.03,-18.27zm23.86 23.67c0,-0.78 -0.62,-1.41 -1.4,-1.41l-6.65 0c-0.78,0 -1.41,0.63 -1.41,1.41 0,0.78 0.63,1.41 1.41,1.41l6.65 0c0.78,0 1.4,-0.63 1.4,-1.41zm-12.74 -18.38l2.98 2.91 -0.71 4.1c-0.02,0.08 -0.02,0.16 -0.02,0.24 0,0.78 0.63,1.41 1.4,1.41 0.23,0 0.45,-0.05 0.64,-0.15l3.7 -1.93 3.67 1.95c0.2,0.11 0.42,0.16 0.64,0.16 0.01,0 0.01,0 0.02,0 0,0 0,0 0.01,0 0.29,0 0.58,-0.09 0.82,-0.25 0.37,-0.27 0.58,-0.7 0.58,-1.16 0,-0.07 0,-0.15 -0.01,-0.22l-0.69 -4.11 2.99 -2.9c0.27,-0.26 0.42,-0.63 0.42,-1 0,-0.15 -0.02,-0.3 -0.07,-0.45 -0.16,-0.5 -0.59,-0.88 -1.12,-0.95l-4.12 -0.61 -1.83 -3.75c-0.25,-0.48 -0.73,-0.78 -1.27,-0.79 -0.53,0 -1.02,0.31 -1.26,0.79l-1.85 3.73 -4.13 0.57c-0.53,0.09 -0.97,0.45 -1.14,0.96 -0.05,0.14 -0.07,0.29 -0.07,0.44 0,0.38 0.15,0.74 0.42,1.01l0 0zm-0.42 12.74c0,0.78 0.63,1.41 1.41,1.41l14.05 0c0.77,0 1.4,-0.63 1.4,-1.41 0,-0.78 -0.63,-1.41 -1.4,-1.41l-14.05 0c-0.78,0 -1.41,0.63 -1.41,1.41zm6.3 -10.07l-0.36 2.02 1.82 -0.95c0.21,-0.1 0.43,-0.16 0.65,-0.16 0.23,0 0.46,0.06 0.66,0.17l1.82 0.96 -0.34 -2.03c-0.01,-0.07 -0.02,-0.15 -0.02,-0.23 0,-0.38 0.15,-0.74 0.43,-1l1.47 -1.44 -2.04 -0.29c-0.45,-0.08 -0.84,-0.37 -1.05,-0.78l-0.9 -1.85 -0.91 1.84c-0.21,0.41 -0.6,0.7 -1.06,0.77l-2.04 0.28 1.46 1.44c0.28,0.27 0.43,0.64 0.43,1.02 0,0.08 -0.01,0.15 -0.02,0.23l0 0zm7.79 33.21l-11.32 0c0.04,0.73 0.06,1.35 0.07,1.87l11.18 0c0.02,-0.52 0.05,-1.14 0.07,-1.87zm-18.79 13.47l26.28 0c-2.25,-2.44 -3.71,-5.51 -4.18,-8.79l-17.92 0c-0.49,3.28 -1.94,6.34 -4.18,8.79l0 0zm34.41 4.22l0 9.23 -41.14 0c-0.78,0 -1.41,-0.63 -1.41,-1.41l0 -7.82c0,-0.78 0.63,-1.41 1.41,-1.41l39.73 0c0.78,0 1.41,0.63 1.41,1.41l0 0z"/>
 </g>
</svg>
