<?xml version="1.0" encoding="UTF-8" standalone="no"?>
<svg
   xmlns:dc="http://purl.org/dc/elements/1.1/"
   xmlns:cc="http://creativecommons.org/ns#"
   xmlns:rdf="http://www.w3.org/1999/02/22-rdf-syntax-ns#"
   xmlns:svg="http://www.w3.org/2000/svg"
   xmlns="http://www.w3.org/2000/svg"
   xmlns:sodipodi="http://sodipodi.sourceforge.net/DTD/sodipodi-0.dtd"
   xmlns:inkscape="http://www.inkscape.org/namespaces/inkscape"
   version="1.1"
   id="svg2"
   xml:space="preserve"
   width="9.333333"
   height="8"
   viewBox="0 0 9.333333 8"
   sodipodi:docname="favorites_3.eps"><metadata
     id="metadata8"><rdf:RDF><cc:Work
         rdf:about=""><dc:format>image/svg+xml</dc:format><dc:type
           rdf:resource="http://purl.org/dc/dcmitype/StillImage" /></cc:Work></rdf:RDF></metadata><defs
     id="defs6" /><sodipodi:namedview
     pagecolor="#ffffff"
     bordercolor="#666666"
     borderopacity="1"
     objecttolerance="10"
     gridtolerance="10"
     guidetolerance="10"
     inkscape:pageopacity="0"
     inkscape:pageshadow="2"
     inkscape:window-width="640"
     inkscape:window-height="480"
     id="namedview4" /><g
     id="g10"
     inkscape:groupmode="layer"
     inkscape:label="ink_ext_XXXXXX"
     transform="matrix(1.3333333,0,0,-1.3333333,0,8)"><g
       id="g12"
       transform="scale(0.1)"><path
         d="m 69.5664,37.5469 c 0,9.0898 -7.3672,16.457 -16.4609,16.457 -5.9375,0 -11.1211,-3.1523 -14.0157,-7.8633 -2.8984,4.711 -8.082,7.8633 -14.0195,7.8633 -9.0898,0 -16.46092,-7.3672 -16.46092,-16.457 0,-4.9531 2.19532,-9.3789 5.65232,-12.3946 L 37.5859,1.82422 c 0.4024,-0.39453 0.9375,-0.62109 1.5039,-0.62109 0.5625,0 1.1016,0.22656 1.5,0.62109 L 63.9141,25.1523 c 3.4609,3.0157 5.6523,7.4415 5.6523,12.3946"
         style="fill:#00ffff;fill-opacity:1;fill-rule:evenodd;stroke:none"
         id="path14" /></g></g></svg>
