<?xml version="1.0" encoding="UTF-8" standalone="no"?>
<svg
   xmlns:dc="http://purl.org/dc/elements/1.1/"
   xmlns:cc="http://creativecommons.org/ns#"
   xmlns:rdf="http://www.w3.org/1999/02/22-rdf-syntax-ns#"
   xmlns:svg="http://www.w3.org/2000/svg"
   xmlns="http://www.w3.org/2000/svg"
   xmlns:sodipodi="http://sodipodi.sourceforge.net/DTD/sodipodi-0.dtd"
   xmlns:inkscape="http://www.inkscape.org/namespaces/inkscape"
   version="1.1"
   id="svg2"
   xml:space="preserve"
   width="9.333333"
   height="9.333333"
   viewBox="0 0 9.333333 9.333333"
   sodipodi:docname="favorites.eps"><metadata
     id="metadata8"><rdf:RDF><cc:Work
         rdf:about=""><dc:format>image/svg+xml</dc:format><dc:type
           rdf:resource="http://purl.org/dc/dcmitype/StillImage" /></cc:Work></rdf:RDF></metadata><defs
     id="defs6" /><sodipodi:namedview
     pagecolor="#ffffff"
     bordercolor="#666666"
     borderopacity="1"
     objecttolerance="10"
     gridtolerance="10"
     guidetolerance="10"
     inkscape:pageopacity="0"
     inkscape:pageshadow="2"
     inkscape:window-width="640"
     inkscape:window-height="480"
     id="namedview4" /><g
     id="g10"
     inkscape:groupmode="layer"
     inkscape:label="ink_ext_XXXXXX"
     transform="matrix(1.3333333,0,0,-1.3333333,0,9.3333333)"><g
       id="g12"
       transform="scale(0.1)"><path
         d="m 62.5039,43.7148 c 0,9.0899 -7.3672,16.461 -16.4609,16.461 -5.9336,0 -11.1172,-3.1524 -14.0117,-7.8633 -2.8985,4.7109 -8.0821,7.8633 -14.0196,7.8633 -9.08982,0 -16.46092,-7.3711 -16.46092,-16.461 0,-4.9492 2.19531,-9.375 5.65235,-12.3906 L 30.5273,7.99609 C 30.9258,7.59766 31.4648,7.375 32.0313,7.375 c 0.5625,0 1.1015,0.22266 1.5,0.62109 L 56.8555,31.3242 c 3.457,3.0156 5.6484,7.4414 5.6484,12.3906"
         style="fill:#808080;fill-opacity:1;fill-rule:evenodd;stroke:none"
         id="path14" /></g></g></svg>
