<?xml version="1.0" encoding="UTF-8" standalone="no"?>
<svg
   xmlns:dc="http://purl.org/dc/elements/1.1/"
   xmlns:cc="http://creativecommons.org/ns#"
   xmlns:rdf="http://www.w3.org/1999/02/22-rdf-syntax-ns#"
   xmlns:svg="http://www.w3.org/2000/svg"
   xmlns="http://www.w3.org/2000/svg"
   xmlns:sodipodi="http://sodipodi.sourceforge.net/DTD/sodipodi-0.dtd"
   xmlns:inkscape="http://www.inkscape.org/namespaces/inkscape"
   version="1.1"
   id="svg2"
   xml:space="preserve"
   width="10.666667"
   height="8"
   viewBox="0 0 10.666667 8"
   sodipodi:docname="favorites_2.eps"><metadata
     id="metadata8"><rdf:RDF><cc:Work
         rdf:about=""><dc:format>image/svg+xml</dc:format><dc:type
           rdf:resource="http://purl.org/dc/dcmitype/StillImage" /></cc:Work></rdf:RDF></metadata><defs
     id="defs6" /><sodipodi:namedview
     pagecolor="#ffffff"
     bordercolor="#666666"
     borderopacity="1"
     objecttolerance="10"
     gridtolerance="10"
     guidetolerance="10"
     inkscape:pageopacity="0"
     inkscape:pageshadow="2"
     inkscape:window-width="640"
     inkscape:window-height="480"
     id="namedview4" /><g
     id="g10"
     inkscape:groupmode="layer"
     inkscape:label="ink_ext_XXXXXX"
     transform="matrix(1.3333333,0,0,-1.3333333,0,8)"><g
       id="g12"
       transform="scale(0.1)"><path
         d="m 71.3047,40.2344 c 0,9.0898 -7.3672,16.4609 -16.4609,16.4609 -5.9336,0 -11.1172,-3.1562 -14.0157,-7.8672 -2.8945,4.711 -8.082,7.8672 -14.0156,7.8672 -9.0898,0 -16.4609,-7.3711 -16.4609,-16.4609 0,-4.9492 2.1953,-9.3789 5.6523,-12.3946 L 39.3281,4.51563 c 0.3985,-0.39844 0.9375,-0.6211 1.5,-0.6211 0.5664,0 1.1055,0.22266 1.5039,0.6211 L 65.6563,27.8398 c 3.457,3.0157 5.6484,7.4454 5.6484,12.3946 z"
         style="fill:none;stroke:#333333;stroke-width:2.16;stroke-linecap:butt;stroke-linejoin:miter;stroke-miterlimit:22.9256;stroke-dasharray:none;stroke-opacity:1"
         id="path14" /></g></g></svg>
