<?xml version="1.0" encoding="UTF-8" standalone="no"?>
<svg
   xmlns:dc="http://purl.org/dc/elements/1.1/"
   xmlns:cc="http://creativecommons.org/ns#"
   xmlns:rdf="http://www.w3.org/1999/02/22-rdf-syntax-ns#"
   xmlns:svg="http://www.w3.org/2000/svg"
   xmlns="http://www.w3.org/2000/svg"
   xmlns:sodipodi="http://sodipodi.sourceforge.net/DTD/sodipodi-0.dtd"
   xmlns:inkscape="http://www.inkscape.org/namespaces/inkscape"
   version="1.1"
   id="svg2"
   xml:space="preserve"
   width="13.333333"
   height="12"
   viewBox="0 0 13.333333 12"
   sodipodi:docname="favorites_4.eps"><metadata
     id="metadata8"><rdf:RDF><cc:Work
         rdf:about=""><dc:format>image/svg+xml</dc:format><dc:type
           rdf:resource="http://purl.org/dc/dcmitype/StillImage" /></cc:Work></rdf:RDF></metadata><defs
     id="defs6" /><sodipodi:namedview
     pagecolor="#ffffff"
     bordercolor="#666666"
     borderopacity="1"
     objecttolerance="10"
     gridtolerance="10"
     guidetolerance="10"
     inkscape:pageopacity="0"
     inkscape:pageshadow="2"
     inkscape:window-width="640"
     inkscape:window-height="480"
     id="namedview4" /><g
     id="g10"
     inkscape:groupmode="layer"
     inkscape:label="ink_ext_XXXXXX"
     transform="matrix(1.3333333,0,0,-1.3333333,0,12)"><g
       id="g12"
       transform="scale(0.1)"><path
         d="m 90.8008,55.5508 c 0,12.3984 -10.0508,22.4453 -22.4492,22.4453 -8.0938,0 -15.1602,-4.2969 -19.1094,-10.7227 -3.9492,6.4258 -11.0234,10.7227 -19.1172,10.7227 -12.3984,0 -22.44141,-10.0469 -22.44141,-22.4453 0,-6.7461 2.98831,-12.7852 7.70311,-16.8985 L 47.1914,6.84375 c 0.543,-0.53906 1.2813,-0.84766 2.0508,-0.84766 0.7656,0 1.5039,0.3086 2.0469,0.84766 L 83.0938,38.6523 c 4.7148,4.1133 7.707,10.1524 7.707,16.8985 z"
         style="fill:none;stroke:#e60094;stroke-width:4.7991;stroke-linecap:round;stroke-linejoin:miter;stroke-miterlimit:22.9256;stroke-dasharray:none;stroke-opacity:1"
         id="path14" /></g></g></svg>
