<?xml version="1.0" encoding="UTF-8" standalone="no"?>
<svg
   xmlns:dc="http://purl.org/dc/elements/1.1/"
   xmlns:cc="http://creativecommons.org/ns#"
   xmlns:rdf="http://www.w3.org/1999/02/22-rdf-syntax-ns#"
   xmlns:svg="http://www.w3.org/2000/svg"
   xmlns="http://www.w3.org/2000/svg"
   xmlns:sodipodi="http://sodipodi.sourceforge.net/DTD/sodipodi-0.dtd"
   xmlns:inkscape="http://www.inkscape.org/namespaces/inkscape"
   version="1.1"
   id="svg2"
   xml:space="preserve"
   viewBox="0 0 26.666668 16"
   sodipodi:docname="free_shipping.eps"><metadata
     id="metadata8"><rdf:RDF><cc:Work
         rdf:about=""><dc:format>image/svg+xml</dc:format><dc:type
           rdf:resource="http://purl.org/dc/dcmitype/StillImage" /></cc:Work></rdf:RDF></metadata><defs
     id="defs6" /><sodipodi:namedview
     pagecolor="#ffffff"
     bordercolor="#666666"
     borderopacity="1"
     objecttolerance="10"
     gridtolerance="10"
     guidetolerance="10"
     inkscape:pageopacity="0"
     inkscape:pageshadow="2"
     inkscape:window-width="640"
     inkscape:window-height="480"
     id="namedview4" /><g
     id="g10"
     inkscape:groupmode="layer"
     inkscape:label="ink_ext_XXXXXX"
     transform="matrix(1.3333333,0,0,-1.3333333,0,16)"><g
       id="g12"
       transform="scale(0.1)"><path
         d="M 197.734,52.125 V 34.9609 c 0,-4.2851 -3.472,-7.7578 -7.754,-7.7578 h -8.296 c -1.496,10.2891 -10.36,18.1953 -21.063,18.1953 -10.672,0 -19.539,-7.9062 -21.035,-18.1953 H 69.1094 c -1.4961,10.2891 -10.3633,18.1953 -21.0352,18.1953 -10.6758,0 -19.539,-7.9062 -21.039,-18.1953 H 16.6484 c -4.2812,0 -7.75387,3.4727 -7.75387,7.7578 V 52.125 Z M 62.293,93.543 h -4.4141 l -1.625,-8.3789 h 4.3008 c 2.8672,0 5.2461,1.9609 5.2461,5.2461 0,2 -1.3203,3.1328 -3.5078,3.1328 z M 176.719,24.1328 c 0,-8.8672 -7.211,-16.07811 -16.078,-16.07811 -8.887,0 -16.098,7.21091 -16.098,16.07811 0,8.8867 7.211,16.0977 16.098,16.0977 8.867,0 16.078,-7.211 16.078,-16.0977 z m -8.039,0 c 0,4.4414 -3.617,8.0352 -8.039,8.0352 -4.442,0 -8.036,-3.5938 -8.036,-8.0352 0,-4.4219 3.594,-8.039 8.036,-8.039 4.422,0 8.039,3.6171 8.039,8.039 z m -104.5355,0 c 0,-8.8672 -7.1836,-16.07811 -16.0781,-16.07811 -8.8906,0 -16.0703,7.21091 -16.0703,16.07811 0,8.8867 7.1797,16.0977 16.0703,16.0977 8.8945,0 16.0781,-7.211 16.0781,-16.0977 z m -8.039,0 c 0,4.4414 -3.5899,8.0352 -8.0391,8.0352 -4.4414,0 -8.0351,-3.5938 -8.0351,-8.0352 0,-4.4219 3.5937,-8.039 8.0351,-8.039 4.4492,0 8.0391,3.6171 8.0391,8.039 z M 197.727,56.4102 H 8.89063 v 51.8948 c 0,4.289 3.48827,7.75 7.74997,7.75 H 133.816 c 4.293,0 7.754,-3.461 7.754,-7.75 v -5.766 h 15.379 c 2.711,0 5.324,-1.086 7.258,-2.996 l 30.469,-30.1328 c 1.941,-1.9414 3.051,-4.5743 3.051,-7.3438 z M 36.4102,85.9531 37.8438,93.543 h 10.5664 l 0.7929,4.1914 H 33.8438 l -5.211,-26.7969 h 4.8281 l 2.1172,10.832 h 8.9063 l 0.7929,4.1836 z M 64.668,82.2227 v 0.0742 c 4.039,1.3203 6.1172,5.2812 6.1172,8.9453 0,2.75 -1.3594,4.8281 -3.6289,5.8086 -1.0899,0.4922 -2.4141,0.6836 -3.8438,0.6836 H 53.8398 L 48.6328,70.9375 H 53.5 l 1.9219,10 h 4.832 l 3.3984,-10 h 5.2071 l -3.586,9.9219 c -0.3398,0.9844 -0.6054,1.3633 -0.6054,1.3633 z m 29.7304,15.5117 h -16 L 73.1523,70.9375 h 16.6446 l 0.789,4.1875 H 78.8125 l 1.3945,7.2109 h 9.0235 l 0.8281,4.1875 h -9.0195 l 1.3593,7.0196 h 11.1719 z m 21.6176,0 h -16 L 94.7734,70.9375 h 16.6406 l 0.793,4.1875 H 100.43 l 1.398,7.2109 h 9.02 l 0.832,4.1875 h -9.02 l 1.356,7.0196 h 11.168 z m 66.207,-27.2383 -23.856,22.7656 c -0.23,0.2071 -0.543,0.336 -0.851,0.336 h -5.606 c -0.672,0 -1.219,-0.543 -1.219,-1.2149 V 69.6133 c 0,-0.6719 0.547,-1.2149 1.219,-1.2149 h 29.485 c 1.085,0 1.628,1.3438 0.828,2.0977"
         id="path14" /></g></g></svg>
