<?xml version="1.0" encoding="UTF-8" standalone="no"?>
<svg
   xmlns:dc="http://purl.org/dc/elements/1.1/"
   xmlns:cc="http://creativecommons.org/ns#"
   xmlns:rdf="http://www.w3.org/1999/02/22-rdf-syntax-ns#"
   xmlns:svg="http://www.w3.org/2000/svg"
   xmlns="http://www.w3.org/2000/svg"
   xmlns:sodipodi="http://sodipodi.sourceforge.net/DTD/sodipodi-0.dtd"
   xmlns:inkscape="http://www.inkscape.org/namespaces/inkscape"
   version="1.1"
   id="svg2"
   xml:space="preserve"
   viewBox="0 0 8 8"
   sodipodi:docname="account_2.eps"><metadata
     id="metadata8"><rdf:RDF><cc:Work
         rdf:about=""><dc:format>image/svg+xml</dc:format><dc:type
           rdf:resource="http://purl.org/dc/dcmitype/StillImage" /></cc:Work></rdf:RDF></metadata><defs
     id="defs6" /><sodipodi:namedview
     pagecolor="#ffffff"
     bordercolor="#666666"
     borderopacity="1"
     objecttolerance="10"
     gridtolerance="10"
     guidetolerance="10"
     inkscape:pageopacity="0"
     inkscape:pageshadow="2"
     inkscape:window-width="640"
     inkscape:window-height="480"
     id="namedview4" /><g
     id="g10"
     inkscape:groupmode="layer"
     inkscape:label="ink_ext_XXXXXX"
     transform="matrix(1.3333333,0,0,-1.3333333,0,8)"><g
       id="g12"
       transform="scale(0.1)"><path
         d="M 5.91406,39.9258 C 6.19531,38.9648 6.58984,38.0352 7.07813,37.168 L 5.67969,35.3984 C 5.21875,34.8203 5.26953,33.9961 5.78516,33.4766 l 2.41406,-2.418 C 8.72266,30.543 9.54297,30.4922 10.1211,30.9531 l 1.7578,1.3907 c 0.9063,-0.5196 1.8672,-0.9258 2.8672,-1.211 l 0.2617,-2.2617 c 0.086,-0.7344 0.707,-1.2813 1.4375,-1.2813 h 3.418 c 0.7305,0 1.3476,0.5469 1.4375,1.2813 l 0.25,2.1797 c 1.0742,0.2773 2.1055,0.6992 3.0742,1.2383 l 1.6992,-1.3438 c 0.5781,-0.457 1.4024,-0.4023 1.9219,0.1094 l 2.4141,2.4141 c 0.5195,0.5234 0.5664,1.3476 0.1093,1.9257 l -1.3242,1.6758 c 0.5508,0.9492 0.9805,1.961 1.2695,3.0195 l 2.0352,0.2383 c 0.7344,0.0821 1.2813,0.7032 1.2813,1.4336 v 3.418 c 0,0.7305 -0.5469,1.3476 -1.2813,1.4336 l -2.0078,0.2344 c -0.2734,1.0468 -0.6875,2.0507 -1.2149,2.9882 l 1.2383,1.5625 c 0.4571,0.5782 0.4024,1.4024 -0.1133,1.9219 l -2.4062,2.4102 c -0.5195,0.5234 -1.3438,0.5664 -1.9219,0.1093 l -1.5195,-1.1992 c -0.9805,0.5742 -2.0352,1.0157 -3.1406,1.3125 l -0.2266,1.961 C 21.3516,58.6484 20.7344,59.1992 20,59.1992 h -3.418 c -0.7304,0 -1.3476,-0.5508 -1.4336,-1.2851 l -0.2304,-1.961 c -1.1328,-0.3008 -2.2149,-0.7617 -3.2227,-1.3633 l -1.5742,1.25 C 9.54297,56.2969 8.72266,56.2461 8.19922,55.7305 L 5.78516,53.3164 C 5.26563,52.7969 5.21875,51.9727 5.67969,51.3945 l 1.3125,-1.664 C 6.46484,48.7773 6.06641,47.7656 5.80469,46.7148 L 3.69531,46.4727 C 2.96484,46.3867 2.41406,45.7656 2.41406,45.0352 v -3.4141 c 0,-0.7344 0.55078,-1.3555 1.28125,-1.4375 z M 14.1445,19.1563 C 13.4258,19.0859 12.8711,18.4766 12.8633,17.75 l -0.0156,-1.4453 c -0.0118,-0.7266 0.5273,-1.3438 1.2461,-1.4375 l 1.0664,-0.1367 c 0.1757,-0.6485 0.4296,-1.2657 0.7539,-1.8477 l -0.6875,-0.8476 c -0.4571,-0.5664 -0.4258,-1.3789 0.0859,-1.8985 L 16.3242,9.09766 C 16.8359,8.57813 17.6484,8.52344 18.2266,8.96875 L 19.0781,9.625 C 19.6797,9.26953 20.3125,8.98828 20.9805,8.79297 L 21.0938,7.69922 C 21.168,6.97656 21.7734,6.42188 22.5,6.41797 l 1.4492,-0.01953 c 0.7266,-0.01172 1.3438,0.52344 1.4336,1.24609 l 0.1367,1.04297 c 0.7188,0.17578 1.4024,0.44531 2.0547,0.80078 l 0.8047,-0.64453 c 0.5664,-0.46094 1.375,-0.42578 1.8984,0.08203 l 1.0352,1.01563 c 0.5195,0.50779 0.5781,1.32029 0.1328,1.89839 l -0.6133,0.7969 c 0.3789,0.6289 0.668,1.2969 0.8711,2.0039 l 0.9492,0.0938 c 0.7188,0.0742 1.2774,0.6836 1.2813,1.4062 l 0.0156,1.4492 c 0.0117,0.7305 -0.5273,1.3477 -1.2461,1.4375 l -0.9258,0.1211 c -0.1796,0.6993 -0.4414,1.3711 -0.7851,2.0039 l 0.5781,0.7071 c 0.457,0.5664 0.4258,1.3789 -0.0859,1.8984 l -1.0117,1.0391 c -0.5118,0.5195 -1.3243,0.5781 -1.8985,0.1289 l -0.6953,-0.5313 c -0.6523,0.3946 -1.3476,0.6993 -2.082,0.9024 l -0.0938,0.8984 c -0.0703,0.7227 -0.6797,1.2813 -1.4023,1.2852 l -1.4492,0.0156 C 22.1211,27.5078 21.5039,26.9688 21.4141,26.25 L 21.3008,25.3555 C 20.543,25.1602 19.8164,24.8633 19.1445,24.4766 l -0.7187,0.582 c -0.5664,0.457 -1.3789,0.4219 -1.8985,-0.0859 l -1.0429,-1.0196 c -0.5196,-0.5078 -0.5781,-1.3203 -0.1328,-1.8984 l 0.6132,-0.7891 c -0.3554,-0.6328 -0.6367,-1.3008 -0.8164,-2.0039 z m 9.3477,1.6406 c 2.0781,-0.0235 3.7422,-1.7344 3.7187,-3.8125 -0.0234,-2.0781 -1.7343,-3.7422 -3.8125,-3.7188 -2.0742,0.0235 -3.7421,1.7344 -3.7187,3.8125 0.0234,2.0742 1.7344,3.7422 3.8125,3.7188 z m 28.5742,18.289 -1.8008,1.5235 c -0.5547,0.4648 -1.375,0.4414 -1.9023,-0.0547 l -0.9922,-0.9336 c -0.8438,0.4102 -1.7344,0.6953 -2.6563,0.8594 l -0.2812,1.375 c -0.1406,0.707 -0.8008,1.2031 -1.5234,1.1406 L 40.5625,42.7969 C 39.8398,42.7383 39.2734,42.1484 39.25,41.418 L 39.2031,40.0234 C 38.3008,39.6992 37.4492,39.25 36.668,38.6875 l -1.1875,0.793 c -0.6094,0.3984 -1.418,0.2851 -1.8828,-0.2696 L 32.0742,37.3945 C 31.6055,36.8398 31.625,36.0234 32.125,35.4961 l 1.043,-1.1094 c -0.3633,-0.8125 -0.6172,-1.664 -0.7696,-2.539 L 30.9102,31.543 c -0.7071,-0.1446 -1.1993,-0.8047 -1.1446,-1.5235 l 0.2032,-2.3515 c 0.0625,-0.7188 0.6523,-1.2891 1.3789,-1.3086 l 1.6093,-0.0508 c 0.2891,-0.7695 0.6719,-1.4961 1.1368,-2.1758 L 33.1953,22.7734 C 32.793,22.168 32.9102,21.3633 33.4648,20.8945 l 1.8008,-1.5234 c 0.5547,-0.4688 1.375,-0.4453 1.9024,0.0508 l 1.1758,1.1054 c 0.7734,-0.3593 1.5898,-0.6289 2.4218,-0.7929 l 0.3242,-1.6094 c 0.1446,-0.7109 0.8047,-1.2031 1.5235,-1.1484 l 2.3515,0.2031 c 0.7227,0.0625 1.2891,0.6523 1.3125,1.3789 l 0.0508,1.5781 C 47.1836,20.4414 48,20.8516 48.75,21.3633 l 1.2969,-0.8594 c 0.6094,-0.3984 1.414,-0.2851 1.8828,0.2695 l 1.5234,1.8047 c 0.4688,0.5508 0.4453,1.3711 -0.0508,1.8985 l -1.0507,1.1054 c 0.3867,0.8164 0.664,1.6758 0.8281,2.5547 l 1.4297,0.293 c 0.707,0.1406 1.2031,0.8008 1.1406,1.5234 l -0.1953,2.3477 c -0.0625,0.7226 -0.6524,1.293 -1.3828,1.3125 l -1.4336,0.0469 c -0.2969,0.8359 -0.6992,1.625 -1.1953,2.3593 l 0.7812,1.1758 c 0.4141,0.6055 0.2969,1.418 -0.2578,1.8906 z M 43.2031,25.4883 c -2.539,-0.2188 -4.7812,1.6758 -4.9961,4.2187 -0.2187,2.5391 1.6797,4.7852 4.2188,4.9922 2.539,0.2188 4.7812,-1.6758 4.9961,-4.2187 0.2187,-2.5391 -1.6758,-4.7813 -4.2188,-4.9922 z M 18.293,49.168 c 3.1133,0 5.6484,-2.5352 5.6484,-5.6485 0,-3.1132 -2.5351,-5.6484 -5.6484,-5.6484 -3.1094,0 -5.6485,2.5352 -5.6485,5.6484 0,3.1133 2.5391,5.6485 5.6485,5.6485"
         style="fill:#00ffff;fill-opacity:1;fill-rule:evenodd;stroke:none"
         id="path14" /></g></g></svg>
