<?xml version="1.0" encoding="UTF-8" standalone="no"?>
<svg
   xmlns:dc="http://purl.org/dc/elements/1.1/"
   xmlns:cc="http://creativecommons.org/ns#"
   xmlns:rdf="http://www.w3.org/1999/02/22-rdf-syntax-ns#"
   xmlns:svg="http://www.w3.org/2000/svg"
   xmlns="http://www.w3.org/2000/svg"
   xmlns:sodipodi="http://sodipodi.sourceforge.net/DTD/sodipodi-0.dtd"
   xmlns:inkscape="http://www.inkscape.org/namespaces/inkscape"
   version="1.1"
   id="svg2"
   xml:space="preserve"
   width="10.666667"
   height="10.666667"
   viewBox="0 0 10.666667 10.666667"
   sodipodi:docname="instagram.eps"><metadata
     id="metadata8"><rdf:RDF><cc:Work
         rdf:about=""><dc:format>image/svg+xml</dc:format><dc:type
           rdf:resource="http://purl.org/dc/dcmitype/StillImage" /></cc:Work></rdf:RDF></metadata><defs
     id="defs6" /><sodipodi:namedview
     pagecolor="#ffffff"
     bordercolor="#666666"
     borderopacity="1"
     objecttolerance="10"
     gridtolerance="10"
     guidetolerance="10"
     inkscape:pageopacity="0"
     inkscape:pageshadow="2"
     inkscape:window-width="640"
     inkscape:window-height="480"
     id="namedview4" /><g
     id="g10"
     inkscape:groupmode="layer"
     inkscape:label="ink_ext_XXXXXX"
     transform="matrix(1.3333333,0,0,-1.3333333,0,10.666667)"><g
       id="g12"
       transform="scale(0.1)"><path
         d="m 77.1289,54.7109 c -0.168,3.8243 -0.7851,6.4571 -1.6719,8.7344 -0.9179,2.4219 -2.3203,4.586 -4.164,6.3867 -1.8008,1.8282 -3.9805,3.25 -6.3711,4.1524 -2.293,0.8828 -4.9102,1.5039 -8.7344,1.6719 -3.8516,0.1835 -5.0781,0.2226 -14.8555,0.2226 -9.7734,0 -10.9961,-0.0391 -14.8359,-0.2109 C 22.6719,75.5 20.0391,74.8828 17.7617,73.9961 15.3438,73.082 13.1758,71.6758 11.375,69.832 9.54688,68.0313 8.12891,65.8516 7.22656,63.4609 6.33984,61.168 5.72266,58.5508 5.55469,54.7266 5.37109,50.8711 5.32813,49.6484 5.32813,39.875 c 0,-9.7773 0.04296,-11 0.21093,-14.8398 0.16797,-3.8243 0.78516,-6.4571 1.67188,-8.7344 0.91797,-2.4219 2.33594,-4.586 4.16406,-6.38674 1.8008,-1.82812 3.9805,-3.25 6.3711,-4.14843 2.293,-0.88672 4.9102,-1.50782 8.7383,-1.67579 3.8359,-0.16796 5.0625,-0.20703 14.8359,-0.20703 9.7735,0 11,0.03907 14.8399,0.20703 3.8242,0.16797 6.457,0.78907 8.7343,1.67579 4.8399,1.86718 8.6641,5.69527 10.5352,10.53517 0.8867,2.293 1.5039,4.9101 1.6719,8.7344 0.1679,3.8398 0.2109,5.0625 0.2109,14.8398 0,9.7734 -0.0117,10.9961 -0.1836,14.8359 z m -12.25,4.3907 c 0,-2.3868 -1.9297,-4.3164 -4.3164,-4.3164 -2.3867,0 -4.3203,1.9296 -4.3203,4.3164 0,2.3828 1.9336,4.3164 4.3203,4.3164 2.3867,0 4.3164,-1.9336 4.3164,-4.3164 z M 41.332,58.3711 c -10.2109,0 -18.4922,-8.2891 -18.4922,-18.4961 0,-10.2109 8.2813,-18.4961 18.4922,-18.4961 10.2149,0 18.4961,8.2852 18.4961,18.4961 0,10.207 -8.2812,18.4961 -18.4961,18.4961 z m 0,-30.4961 c -6.6211,0 -11.9961,5.375 -11.9961,12 0,6.6211 5.375,11.9961 11.9961,11.9961 6.6289,0 12,-5.375 12,-11.9961 0,-6.625 -5.3711,-12 -12,-12 z m 29.3125,-2.5586 c -0.1523,-3.5156 -0.7422,-5.418 -1.2382,-6.6836 -1.2071,-3.1328 -3.6993,-5.625 -6.8321,-6.832 -1.2695,-0.4961 -3.1797,-1.086 -6.6836,-1.2422 -3.7968,-0.1641 -4.9375,-0.207 -14.5429,-0.207 -9.6055,0 -10.7579,0.0429 -14.543,0.207 -3.5156,0.1562 -5.4141,0.7461 -6.6797,1.2422 -1.5625,0.5742 -2.9844,1.4883 -4.1367,2.6836 -1.1953,1.1679 -2.1094,2.5742 -2.6875,4.1328 -0.4883,1.2695 -1.082,3.1836 -1.2344,6.6836 -0.1719,3.7969 -0.2109,4.9375 -0.2109,14.543 0,9.6093 0.039,10.7617 0.2109,14.5468 0.1524,3.5157 0.7461,5.4141 1.2344,6.6797 0.5781,1.5586 1.4922,2.9805 2.7031,4.1328 1.168,1.1953 2.5742,2.1133 4.1328,2.6875 1.2696,0.4922 3.1797,1.0821 6.6836,1.2383 3.7969,0.168 4.9375,0.2109 14.543,0.2109 9.6172,0 10.7578,-0.0429 14.543,-0.2109 3.5156,-0.1562 5.414,-0.7461 6.6796,-1.2383 1.5625,-0.5742 2.9844,-1.4922 4.1368,-2.6875 1.1953,-1.164 2.1093,-2.5742 2.6836,-4.1328 0.496,-1.2656 1.0859,-3.1797 1.2382,-6.6797 0.1719,-3.8008 0.211,-4.9375 0.211,-14.5468 0,-9.6055 -0.0391,-10.7305 -0.211,-14.5274 v 0"
         style="fill:#4d4d4d;fill-opacity:1;fill-rule:nonzero;stroke:none"
         id="path14" /></g></g></svg>
