<?xml version="1.0" encoding="UTF-8"?>
<!DOCTYPE svg PUBLIC "-//W3C//DTD SVG 1.1//EN" "http://www.w3.org/Graphics/SVG/1.1/DTD/svg11.dtd">
<!-- Creator: CorelDRAW -->
<svg xmlns="http://www.w3.org/2000/svg" xml:space="preserve" version="1.1"
viewBox="0 0 345.44 77.11"
 xmlns:xlink="http://www.w3.org/1999/xlink"
 xmlns:xodm="http://www.corel.com/coreldraw/odm/2003">
 <defs>
  <style type="text/css">
   <![CDATA[
    .fil0 {fill:#FFB3C8}
   ]]>
  </style>
 </defs>
 <g id="Слой_x0020_1">
  <metadata id="CorelCorpID_0Corel-Layer"/>
  <path class="fil0" d="M60.79 0l-17.01 0c0,13.96 -6.4,26.7 -17.54,35.09l-6.71 5.03 26.08 35.55 21.43 0 -24.02 -32.73c11.36,-11.28 17.77,-26.54 17.77,-42.94zm268.63 21.97c-2.05,0 -3.73,1.67 -3.73,3.74 0.07,2.06 1.68,3.74 3.73,3.74 2.07,0 3.74,-1.68 3.74,-3.74 0,-2.07 -1.67,-3.74 -3.74,-3.74zm0 6.79c-1.67,0 -2.97,-1.38 -2.97,-3.05 0,-1.68 1.37,-3.06 2.97,-3.06 1.68,0 2.98,1.38 2.98,3.06 0,1.67 -1.37,3.05 -2.98,3.05zm6.18 28.37c-5.41,0 -9.84,4.43 -9.84,9.84 0,5.42 4.43,9.84 9.84,9.84 5.42,0 9.84,-4.42 9.84,-9.84 0,-5.49 -4.42,-9.84 -9.84,-9.84zm-335.6 -57.13l17.39 0 0 75.67 -17.39 0 0 -75.67zm72.08 0l16.4 0 0 75.67 -16.4 0 0 -75.67zm160.25 21.89c-6.25,0 -12.2,1.91 -16.17,7.32l0 -5.87 -15.56 0 0 52.33 15.79 0 0 -27.46c0,-7.93 5.34,-11.82 11.74,-11.82 6.87,0 10.83,4.11 10.83,11.74l0 27.61 15.64 0 0 -33.33c0,-12.2 -9.68,-20.52 -22.27,-20.52zm-94.27 1.45l0 3.36c-4.43,-3.06 -9.77,-4.81 -15.57,-4.81 -15.25,0 -27.61,12.36 -27.61,27.61 0,15.26 12.36,27.61 27.61,27.61 5.8,0 11.14,-1.75 15.57,-4.8l0 3.36 15.63 0 0 -52.33 -15.63 0zm-14.27 39.59c-7.86,0 -14.18,-6.03 -14.18,-13.43 0,-7.4 6.32,-13.42 14.18,-13.42 7.86,0 14.19,6.02 14.19,13.42 0,7.4 -6.33,13.43 -14.19,13.43zm54.16 -32.8l0 -6.79 -16.02 0 0 52.33 16.09 0 0 -24.41c0,-8.24 8.93,-12.66 15.1,-12.66l0.16 0 0 -15.26c-6.33,0 -12.21,2.75 -15.33,6.79zm125.31 -6.79l0 3.36c-4.42,-3.06 -9.76,-4.81 -15.56,-4.81 -15.25,0 -27.61,12.36 -27.61,27.61 0,15.26 12.36,27.61 27.61,27.61 5.8,0 11.14,-1.75 15.56,-4.8l0 3.36 15.64 0 0 -52.33 -15.64 0zm-14.26 39.59c-7.86,0 -14.19,-6.03 -14.19,-13.43 0,-7.4 6.33,-13.42 14.19,-13.42 7.86,0 14.19,6.02 14.19,13.42 0.07,7.4 -6.33,13.43 -14.19,13.43zm42.03 -38.07c0,-0.76 -0.54,-1.22 -1.38,-1.22l-1.45 0 0 3.97 0.69 0 0 -1.45 0.76 0 0.62 1.45 0.76 0 -0.69 -1.6c0.46,-0.23 0.69,-0.61 0.69,-1.15zm-1.38 0.62l-0.76 0 0 -1.22 0.76 0c0.46,0 0.69,0.23 0.69,0.6 0,0.39 -0.15,0.62 -0.69,0.62z"/>
 </g>
</svg>
