<?xml version="1.0" encoding="UTF-8" standalone="no"?>
<svg
   xmlns:dc="http://purl.org/dc/elements/1.1/"
   xmlns:cc="http://creativecommons.org/ns#"
   xmlns:rdf="http://www.w3.org/1999/02/22-rdf-syntax-ns#"
   xmlns:svg="http://www.w3.org/2000/svg"
   xmlns="http://www.w3.org/2000/svg"
   xmlns:sodipodi="http://sodipodi.sourceforge.net/DTD/sodipodi-0.dtd"
   xmlns:inkscape="http://www.inkscape.org/namespaces/inkscape"
   version="1.1"
   id="svg2"
   xml:space="preserve"
   viewBox="0 0 5.3333335 6.6666665"
   sodipodi:docname="like.eps"><metadata
     id="metadata8"><rdf:RDF><cc:Work
         rdf:about=""><dc:format>image/svg+xml</dc:format><dc:type
           rdf:resource="http://purl.org/dc/dcmitype/StillImage" /></cc:Work></rdf:RDF></metadata><defs
     id="defs6" /><sodipodi:namedview
     pagecolor="#ffffff"
     bordercolor="#666666"
     borderopacity="1"
     objecttolerance="10"
     gridtolerance="10"
     guidetolerance="10"
     inkscape:pageopacity="0"
     inkscape:pageshadow="2"
     inkscape:window-width="640"
     inkscape:window-height="480"
     id="namedview4" /><g
     id="g10"
     inkscape:groupmode="layer"
     inkscape:label="ink_ext_XXXXXX"
     transform="matrix(1.3333333,0,0,-1.3333333,0,6.6666667)"><g
       id="g12"
       transform="scale(0.1)"><path
         d="m 7.125,26.6133 4.7109,1.207 c 0.5,0.1367 0.9219,0.4336 1.1875,0.918 0.7305,1.2656 2.4688,3.6914 6.0391,5.7187 1.3555,0.7618 2.4688,1.3516 3.4609,1.8438 2.5313,1.2812 4.0625,2.0273 6.3477,4.8398 0.9805,1.2188 1.9336,1.8594 2.8984,1.9141 0.6407,0.0351 1.2774,-0.1992 1.8125,-0.7031 0.836,-0.8008 1.1641,-2 0.9571,-3.1836 -0.3399,-1.6758 -0.9766,-3.918 -2.0743,-4.9571 -1.0859,-1 -3.6367,-2.9492 -5.125,-4.0703 l 4.504,-1.957 c 0.3203,-0.1133 0.5937,-0.3516 0.8671,-0.582 l 0.6758,-0.7422 c 0.6485,-0.6875 0.836,-1.6524 0.5039,-2.5664 L 33.2109,22.4258 C 33.125,22.1875 33,21.9609 32.8711,21.7383 l 0.7344,-1.0742 c 0.4765,-0.668 0.5742,-1.5118 0.2968,-2.2657 l -0.4335,-1.1953 c -0.1875,-0.5156 -0.5313,-0.9726 -0.9532,-1.2695 0.1875,-0.3398 0.2032,-0.793 0.0586,-1.1914 L 31.9961,13.1523 C 31.6484,12.1992 30.8125,11.5156 29.8477,11.3281 L 29.1602,11.1719 28.5977,9.625 C 28.3828,9.02734 27.8867,8.53125 27.2773,8.35156 l -3.332,-1.1289 c -0.6758,-0.2461 -1.4219,-0.20313 -2.0586,0.03125 -0.1601,0.05859 -0.2773,0.10156 -0.4219,0.19922 -0.332,0.07421 -2.6054,0.5 -4.9101,1.33593 -1.625,0.59375 -3.2383,1.35934 -4.2266,2.34764 -0.1679,0.1524 -0.3008,0.2891 -0.4258,0.4258 -0.9492,0.1211 -4.85542,0.5078 -7.07808,-1.1562 -0.17578,-0.1133 -0.42188,-0.1602 -0.62109,-0.0899 -0.11719,0.043 -0.22266,0.125 -0.28907,0.1953 -0.21875,0.2617 -0.15234,0.6836 0.10547,0.9063 2.05078,1.5468 5.04688,1.6289 6.80857,1.5234 -1.02341,1.6328 -1.05466,2.9063 -1.08201,2.957 -0.0039,0.3633 0.26951,0.6211 0.63281,0.6289 0.3594,0 0.6211,-0.2734 0.625,-0.6328 0,0 0.0938,-1.8359 2.1797,-3.8984 1.2187,-1.2109 3.8008,-2.14844 5.8477,-2.71094 L 17.707,10.3477 c -0.7578,0.6367 -1.0898,1.7031 -0.7422,2.6562 l 0.4219,1.1484 c 0.1446,0.4024 0.4453,0.7383 0.8242,0.918 -0.1601,0.4141 -0.1757,0.8711 -0.0156,1.3086 l 0.4883,1.3477 c 0.1758,0.4765 0.5352,0.8437 1.0195,1.0703 -0.0351,0.1484 -0.0859,0.2578 -0.1054,0.4453 C 18.293,18.5 16.0664,17.6953 13.4141,18.5664 v 0 c -0.3164,0.1172 -0.5118,0.457 -0.3789,0.8125 0.1171,0.3203 0.457,0.5117 0.8125,0.3828 3.2851,-1.1054 5.8437,1.1055 6.0664,1.3438 l 0.2031,0.5547 c 0.2031,0.5546 0.6133,0.9453 1.1016,1.1718 -0.2266,0.4883 -0.254,1.0391 -0.0665,1.5547 l 0.4219,1.1524 c 0.3008,0.832 1.1328,1.3828 2.0547,1.3203 l 4.7734,-0.3438 c 0.2696,-0.0078 0.5118,0.0391 0.7657,0.125 0.3281,0.1524 0.6836,0.0235 0.8359,-0.3047 0.1524,-0.3242 0.0195,-0.6836 -0.3047,-0.832 -0.4336,-0.2031 -0.914,-0.2969 -1.3984,-0.2539 l -4.7735,0.3398 c -0.3476,0.0391 -0.6484,-0.1679 -0.7656,-0.4843 l -0.4179,-1.1524 c -0.0704,-0.1992 -0.0469,-0.3867 0.0117,-0.5898 0.0742,-0.1602 0.2461,-0.3164 0.4453,-0.3867 l 0.2383,-0.086 4.1953,-1.4375 c 0.3594,-0.1289 0.7578,-0.1406 1.1484,-0.0586 l 2.4492,0.5469 c 0.5352,0.1211 0.9375,0.4688 1.125,0.9844 l 0.6797,1.8672 c 0.1563,0.4375 0.0664,0.9218 -0.2617,1.2656 l -0.6758,0.7422 c -0.1289,0.1328 -0.2734,0.2344 -0.4336,0.289 l -4.5742,1.8907 c -0.3828,0.1836 -0.6641,0.5156 -0.7187,0.9804 -0.0704,0.4336 0.1289,0.8555 0.4843,1.086 1.1719,0.8789 4.0235,3.0312 5.1211,4.0703 0.6719,0.6094 1.2774,2.1445 1.6797,4.2461 0.1445,0.7578 -0.0781,1.5117 -0.5703,2.0078 -0.2773,0.2344 -0.5391,0.375 -0.8594,0.3594 -0.3789,-0.043 -1.0508,-0.293 -1.9648,-1.4453 -2.4492,-3.0196 -4.1992,-3.8711 -6.7852,-5.1758 -0.9883,-0.4961 -2.0859,-1.0391 -3.3906,-1.7813 -3.2891,-1.8593 -4.8984,-4.0625 -5.543,-5.2226 -0.4492,-0.7344 -1.1484,-1.2891 -1.9804,-1.4805 L 7.45313,25.4141 c -0.14844,-0.0352 -0.28516,-0.0313 -0.36329,0 -0.19921,0.0703 -0.36718,0.2226 -0.375,0.4492 -0.15234,0.3242 0.0586,0.6562 0.41016,0.75 z m 23.6406,-13.0117 0.5782,1.5898 c 0.0156,0.0391 0.0273,0.0781 0.0039,0.1328 -0.7422,-0.3164 -1.4844,-0.4922 -2.3008,-0.5117 L 26.9961,14.75 c -0.4102,-0.0312 -0.8359,0.0313 -1.25,0.1367 v 0 0 c -0.0781,0.0313 -0.1602,0.0586 -0.2383,0.0899 -0.2383,0.0859 -0.4219,0.1992 -0.6445,0.3242 l -4.082,2.3828 c -0.2227,0.125 -0.4258,0.0664 -0.5196,0.0547 -0.1054,-0.0508 -0.2695,-0.125 -0.3554,-0.3633 l -0.4922,-1.3516 c -0.086,-0.2382 -0.0157,-0.5312 0.1953,-0.6992 l 3.8867,-3.0312 c 0.5625,-0.4336 1.2695,-0.6016 1.9414,-0.4844 l 4.1484,0.7812 c 0.5391,0.1211 0.9922,0.4961 1.1797,1.0118 z M 18.1445,12.6641 c -0.1562,-0.4375 -0.0234,-0.9375 0.3282,-1.1993 L 21.707,8.85156 c 0.4805,-0.40234 1.1602,-0.51562 1.7657,-0.33203 l 3.3593,1.07422 c 0.2578,0.08203 0.4453,0.23828 0.5469,0.51955 l 0.3047,0.832 -2.0156,-0.3476 c -0.6719,-0.1133 -1.3242,-0.0547 -1.9571,0.1757 -0.3593,0.1289 -0.7031,0.2969 -1.0156,0.5469 l -1.1523,0.918 v 0 l -2.2774,1.7695 c -0.1054,0.086 -0.2773,0.1016 -0.3711,0.0899 -0.1484,-0.0352 -0.2343,-0.1368 -0.2773,-0.2579 l -0.4336,-1.1914 z m 13.0274,7.9882 -2.4492,-0.5507 C 28.3711,20.0039 28.0117,20 27.625,20.0508 v 0 l -0.0391,0.0156 c -0.2539,0.0469 -0.5078,0.0938 -0.7421,0.1836 l -4.5313,1.5117 c -0.4297,0.0664 -0.8359,-0.1914 -0.9805,-0.5898 l -0.4726,-1.1758 c -0.1602,-0.4375 -0.0117,-0.8945 0.3945,-1.1328 l 0.1055,-0.082 v 0 l 2.6719,-1.5625 1.4453,-0.836 c 0.4492,-0.2578 0.9843,-0.4023 1.4882,-0.3633 l 2.0469,0.0625 c 0.8711,0.043 1.7383,0.3125 2.4805,0.7618 l 0.1641,0.0781 c 0.2851,0.164 0.4648,0.4101 0.582,0.7304 l 0.4336,1.1915 c 0.1328,0.3593 0.0625,0.7851 -0.1446,1.0859 l -0.6953,0.9297 c -0.2031,-0.0625 -0.4179,-0.1641 -0.6601,-0.2071"
         id="path14" /></g></g></svg>
