<?xml version="1.0" encoding="UTF-8" standalone="no"?>
<svg
   xmlns:dc="http://purl.org/dc/elements/1.1/"
   xmlns:cc="http://creativecommons.org/ns#"
   xmlns:rdf="http://www.w3.org/1999/02/22-rdf-syntax-ns#"
   xmlns:svg="http://www.w3.org/2000/svg"
   xmlns="http://www.w3.org/2000/svg"
   xmlns:sodipodi="http://sodipodi.sourceforge.net/DTD/sodipodi-0.dtd"
   xmlns:inkscape="http://www.inkscape.org/namespaces/inkscape"
   version="1.1"
   id="svg2"
   xml:space="preserve"
   width="29.333332"
   height="12"
   viewBox="0 0 29.333332 12"
   sodipodi:docname="msfee.eps"><metadata
     id="metadata8"><rdf:RDF><cc:Work
         rdf:about=""><dc:format>image/svg+xml</dc:format><dc:type
           rdf:resource="http://purl.org/dc/dcmitype/StillImage" /></cc:Work></rdf:RDF></metadata><defs
     id="defs6" /><sodipodi:namedview
     pagecolor="#ffffff"
     bordercolor="#666666"
     borderopacity="1"
     objecttolerance="10"
     gridtolerance="10"
     guidetolerance="10"
     inkscape:pageopacity="0"
     inkscape:pageshadow="2"
     inkscape:window-width="640"
     inkscape:window-height="480"
     id="namedview4" /><g
     id="g10"
     inkscape:groupmode="layer"
     inkscape:label="ink_ext_XXXXXX"
     transform="matrix(1.3333333,0,0,-1.3333333,0,12)"><g
       id="g12"
       transform="scale(0.1)"><path
         d="m 123.652,52.9844 h 6.016 l 1.824,4.4648 h 9.02 l 1.82,-4.4648 h 6.012 L 137.41,78.9531 h -5.375 l 1.457,-3.4609 -9.84,-22.5078 z m 0.184,5.0117 -4.375,2.5508 -0.273,-0.4531 c -1.004,-1.5508 -2.372,-2.3672 -4.008,-2.3672 -2.825,0 -5.012,2.1836 -5.012,5.0078 0,2.8242 2.187,5.0156 5.012,5.0156 1.73,0 3.004,-0.7344 4.008,-2.375 l 0.367,-0.4531 4.371,2.5508 -0.363,0.5468 c -2.098,3.0078 -4.833,4.4649 -8.293,4.4649 -6.649,0 -10.204,-5.0117 -10.204,-9.75 0,-4.7383 3.555,-9.8438 10.204,-9.8438 3.371,0 6.562,1.7344 8.293,4.4688 z M 93.3008,42.0391 c -1.8711,0.7148 -2.9063,1.0351 -4.8164,1.0351 -2.0586,0 -4.4922,-0.7148 -4.4922,-3.3086 0,-4.7695 11.0391,-3.664 11.0391,-11.8476 0,-5.3008 -4.2305,-7.3985 -9.379,-7.3985 -1.8046,0 -3.5703,0.4922 -5.2578,1.0313 l 0.3672,3.3086 c 1.2539,-0.5 3.4531,-1.211 5.3321,-1.211 2.0937,0 5.039,1.1407 5.039,4.0586 0,5.543 -11.0351,4.0196 -11.0351,11.7383 0,4.4102 3.6015,6.7578 8.2343,6.7578 1.6953,0 3.7188,-0.2851 5.4844,-0.8906 z m 112.9802,4.164 h 3.496 v -0.7304 h -1.457 v -3.7891 h -0.726 v 3.7891 h -1.457 v 0.7304 z m 4.082,0 h 1.02 l 1.164,-3.5 v 0 l 1.164,3.5 h 1.023 v -4.375 h -0.437 v 3.3555 0 l -1.164,-3.3555 h -0.586 l -1.457,3.3555 v 0 -3.3555 h -0.727 z m -22.066,-0.4297 h 14.375 v -3.1289 h -10.699 v -7.2539 h 9.746 v -3.1328 h -9.746 v -8.1797 h 10.699 v -3.1328 h -14.375 z m -18.793,-10.664 h 3.133 c 3.492,0 5.554,1.4883 5.554,3.8711 0,2.2422 -1.765,3.664 -5.152,3.664 h -3.535 z m -3.668,10.664 h 6.285 c 5.074,0 9.965,-0.7773 9.965,-6.7187 0,-3.0234 -2.313,-5.1602 -5.297,-5.6563 v -0.0703 c 1.149,-0.4297 1.695,-0.9609 2.504,-2.4961 l 4.855,-9.8867 h -4.191 l -3.941,8.6055 c -1.137,2.4258 -2.348,2.4258 -4.301,2.4258 h -2.211 V 20.9453 h -3.668 z M 159.98,31.2266 c 0,-6.9688 -3.644,-10.7071 -9.964,-10.7071 -6.332,0 -9.969,3.7383 -9.969,10.7071 v 14.5468 h 3.676 v -14.082 c 0,-4.7695 1.547,-8.043 6.293,-8.043 4.742,0 6.285,3.2735 6.285,8.043 v 14.082 h 3.679 z m -23.242,10.457 c -1.621,0.9258 -3.418,1.3906 -5.3,1.3906 -5.918,0 -9.856,-4.1328 -9.856,-9.7109 0,-5.836 4.34,-9.7149 9.676,-9.7149 1.836,0 4.305,0.4649 5.59,1.211 l 0.218,-3.4531 c -1.949,-0.7852 -4.336,-0.8868 -5.843,-0.8868 -8.133,0 -13.535,5.0508 -13.535,12.9453 0,7.6485 5.734,12.7383 13.57,12.7383 1.98,0 3.933,-0.2851 5.769,-1.0664 z m -36.523,4.0898 h 14.383 v -3.1289 h -10.703 v -7.2539 h 9.75 v -3.1328 h -9.75 v -8.1797 h 10.703 V 20.9453 H 100.215 Z M 17.1797,31.8945 v 29.2422 l 18.3555,-8.6719 18.5546,8.6719 V 31.8945 L 35.5352,23.2227 Z M 35.5352,66.582 4.27344,81.1016 V 23.625 L 35.5352,9.10156 66.793,23.625 v 57.4766 z m 157.1878,5.9024 c -6.653,0 -10.207,-5.0117 -10.207,-9.75 0,-4.7383 3.554,-9.75 10.207,-9.75 v 0 0 c 3.007,0 5.922,1.457 8.105,3.9179 l -4.281,2.3711 c -1.09,-1.0937 -2.457,-1.7304 -3.918,-1.7304 -2.188,0 -4.102,1.457 -4.555,3.2773 h 14.305 v 1.2774 c 0,7.1992 -5.649,10.3867 -9.656,10.3867 z m -4.555,-7.3789 c 0.727,1.8203 2.184,2.8203 4.102,2.8203 1.91,0 3.46,-1 4.277,-2.8203 z m -16.953,7.3789 c -6.649,0 -10.203,-5.0117 -10.203,-9.75 0,-4.7383 3.554,-9.75 10.203,-9.75 v 0 0 c 3.008,0 5.926,1.457 8.113,3.9179 l -4.285,2.3711 c -1.094,-1.0937 -2.457,-1.7304 -3.914,-1.7304 -2.191,0 -4.106,1.457 -4.559,3.2773 h 14.305 v 1.2774 c 0,7.1992 -5.648,10.3867 -9.66,10.3867 z m -4.555,-7.2891 c 0.731,1.8203 2.192,2.8242 4.102,2.8242 1.914,0 3.461,-1.0039 4.281,-2.8242 z M 80.0977,79.1367 V 52.9844 h 5.7421 v 14.9414 l 5.5586,-4.0977 5.5586,4.0977 V 52.9844 h 5.738 V 79.1367 L 91.3984,70.5703 Z M 150.715,52.9844 H 156 v 11.664 h 3.461 v 4.918 H 156 v 2.2774 c 0,1.0039 0.637,2.0078 1.91,2.0078 0.641,0 1.098,-0.0938 1.461,-0.2735 l 0.547,-0.2734 2.187,4.7383 -0.636,0.2734 c -1.004,0.3633 -2.371,0.5469 -3.281,0.5469 -2.372,0 -4.375,-0.8203 -5.649,-2.2774 -1.184,-1.2773 -1.824,-3.0976 -1.824,-5.0117 v -2.0976 h -2.371 v -4.918 h 2.281 z m -14.762,15.7656 2.461,-6.1055 h -4.922 z"
         style="fill:#808080;fill-opacity:1;fill-rule:evenodd;stroke:none"
         id="path14" /></g></g></svg>
