<?xml version="1.0" encoding="UTF-8" standalone="no"?>
<svg
   xmlns:dc="http://purl.org/dc/elements/1.1/"
   xmlns:cc="http://creativecommons.org/ns#"
   xmlns:rdf="http://www.w3.org/1999/02/22-rdf-syntax-ns#"
   xmlns:svg="http://www.w3.org/2000/svg"
   xmlns="http://www.w3.org/2000/svg"
   xmlns:sodipodi="http://sodipodi.sourceforge.net/DTD/sodipodi-0.dtd"
   xmlns:inkscape="http://www.inkscape.org/namespaces/inkscape"
   version="1.1"
   id="svg2"
   xml:space="preserve"
   width="24"
   height="12"
   viewBox="0 0 24 12"
   sodipodi:docname="norton.eps"><metadata
     id="metadata8"><rdf:RDF><cc:Work
         rdf:about=""><dc:format>image/svg+xml</dc:format><dc:type
           rdf:resource="http://purl.org/dc/dcmitype/StillImage" /></cc:Work></rdf:RDF></metadata><defs
     id="defs6" /><sodipodi:namedview
     pagecolor="#ffffff"
     bordercolor="#666666"
     borderopacity="1"
     objecttolerance="10"
     gridtolerance="10"
     guidetolerance="10"
     inkscape:pageopacity="0"
     inkscape:pageshadow="2"
     inkscape:window-width="640"
     inkscape:window-height="480"
     id="namedview4" /><g
     id="g10"
     inkscape:groupmode="layer"
     inkscape:label="ink_ext_XXXXXX"
     transform="matrix(1.3333333,0,0,-1.3333333,0,12)"><g
       id="g12"
       transform="scale(0.1)"><path
         d="m 54.1094,13.2148 h 94.9176 c 14.684,0 26.629,11.9454 26.629,26.625 0,14.6875 -11.945,26.629 -26.629,26.629 H 65.0313 V 61.6563 H 63.0742 V 59.7461 H 61.8828 C 66.3789,54.3398 69.0859,47.4023 69.0898,39.8398 69.082,28.5781 63.082,18.6953 54.1094,13.2148 Z m 1.2304,38.9024 H 54.6992 V 49.4648 H 52.7891 V 47.1797 H 50.9766 V 44.6406 C 47.5742,39.75 44.7031,33.7891 42.7227,28.4844 c -0.9336,-2.5117 -5.5704,-2.1289 -6.6055,0.332 -1.957,4.6836 -3.9805,10.5391 -10.4219,17.6133 -2.793,2.8906 -0.7656,4.7266 0.9219,4.2226 3.125,-1.0234 7.0976,-3.8437 12.2148,-10.9609 1.418,3.5391 6.1094,12.2188 7.9805,15.0039 h 1.668 v 2.2774 h 1.5156 v 0.4296 c -3.5313,2.4375 -7.707,3.75 -12.0898,3.75 -5.6836,0 -11.0391,-2.2148 -15.0665,-6.2421 -4.0273,-4.0235 -6.246,-9.375 -6.246,-15.0704 0,-5.6875 2.2187,-11.0429 6.246,-15.0703 4.0235,-4.0195 9.379,-6.2422 15.0665,-6.2422 5.6953,0 11.0468,2.2227 15.0781,6.2422 4.0195,4.0274 6.2383,9.3828 6.2383,15.0703 0,4.4571 -1.3633,8.711 -3.8829,12.2774 z m 1.1954,12.7109 h 0.1992 v 1.6407 h -2.6211 c 0.832,-0.5118 1.6406,-1.0586 2.4219,-1.6407 z M 37.9063,8.66406 c -17.1836,0 -31.17583,13.98824 -31.17583,31.17574 0,17.1915 13.99223,31.1797 31.17583,31.1797 4.1367,0 8.0859,-0.8086 11.6992,-2.2812 h 10.9258 v 0.0039 h -2.2774 v 2.1758 h 2.2774 v -2.1758 h 2.289 v 4.6601 h 2.211 v 0.004 2.4101 h 4.4335 v 2.4102 h 2.4063 v 2.4336 h 2.4297 v -2.4336 h -2.4297 v -2.4102 h 2.4297 v -2.4297 h -2.4297 v 2.4297 h -2.4063 v -2.4101 h -2.1601 v -2.379 h 2.543 v -2.2851 h -2.543 v -0.0039 h 81.7223 c 15.934,0 28.895,-12.961 28.895,-28.8985 0,-15.9296 -12.961,-28.8945 -28.895,-28.8945 H 49.6133 C 46,9.47266 42.0469,8.66406 37.9063,8.66406 Z m 24.914,57.80474 h -2.289 v -2.2813 h 2.289 z m 0,2.2734 h 2.211 v -0.0039 h -2.211 z m 2.211,0 v 2.2851 h 2.2734 v -2.2851 z m 8.7109,-46.1328 1.0234,1.582 c 0.8242,-0.6055 2.0664,-1.1758 3.5742,-1.1758 1.4727,0 2.379,0.668 2.379,1.8242 0,1.3282 -1.1446,1.6836 -3.0313,2.3399 C 76,27.7734 74.332,28.625 74.332,31.0195 c 0,2.2422 1.7735,3.4688 4.1524,3.4688 1.582,0 2.7539,-0.3164 3.6875,-0.8672 l -0.8125,-1.6836 c -0.7891,0.4102 -1.7266,0.6836 -2.8321,0.6836 -1.332,0 -2.121,-0.4961 -2.121,-1.5508 0,-1.2344 0.9179,-1.5469 2.6484,-2.1172 1.8086,-0.582 3.8008,-1.4218 3.8008,-4.0781 0,-2.2461 -1.6016,-3.7187 -4.4805,-3.7187 -2.1406,0 -3.707,0.7382 -4.6328,1.4531 z m 78.3988,0.5039 c 3.023,0 4.058,1.3945 4.058,4.7344 0,2.9336 -0.808,4.6484 -3.781,4.6484 h -1.184 v -9.3828 z m -3.11,11.1719 h 3.239 c 4.222,0 6.253,-2.2891 6.253,-6.4375 0,-4.2188 -2.066,-6.5274 -6.144,-6.5274 h -3.348 z m -11.742,0 H 145 v -1.8008 h -5.52 v -3.5313 h 4.352 v -1.75 h -4.352 v -4.0898 h 5.848 v -1.7891 h -8.039 z m -8.73,-5.7774 c 1.644,0 2.488,0.5391 2.488,2.0352 0,1.4375 -0.859,1.9453 -2.359,1.9453 h -2.083 v -3.9805 z m 4.98,-7.1875 h -2.398 l -2.489,5.4961 h -2.047 v -5.4961 h -2.195 v 12.9649 h 4.231 c 2.617,0 4.66,-0.9414 4.66,-3.7852 0,-1.9336 -1.164,-2.9102 -2.457,-3.3672 z m -22.609,4.9649 v 8 h 2.207 v -8.3594 c 0,-1.7774 0.437,-2.9453 2.32,-2.9453 1.863,0 2.324,1.1679 2.324,2.9453 v 8.3594 h 2.235 v -8 c 0,-3.211 -1.235,-5.1289 -4.575,-5.1289 -3.281,0 -4.511,1.9179 -4.511,5.1289 z M 97.8984,27.793 c 0,3.7773 1.8086,6.6914 5.4256,6.6914 1.614,0 2.895,-0.5117 3.797,-1.5625 l -1.277,-1.4805 c -0.774,0.7539 -1.434,1.1289 -2.489,1.1289 -2.121,0 -3.097,-1.7383 -3.097,-4.9453 0,-3.0078 1.031,-4.5391 3.117,-4.5391 1.16,0 1.973,0.6094 2.688,1.3711 l 1.292,-1.4414 c -0.941,-1.1093 -2.117,-1.8593 -4,-1.8593 -3.7222,0 -5.4566,2.8359 -5.4566,6.6367 z m -11.1836,6.4922 h 7.711 v -1.8008 h -5.5156 v -3.5313 h 4.3554 v -1.75 h -4.3554 v -4.0898 h 5.8476 v -1.7891 h -8.043 z m 85.0862,30.1289 v 4.3242 h 1.125 l 0.758,-2.836 0.757,2.836 h 1.137 v -4.3242 h -0.687 v 3.3789 h -0.02 L 174,64.4141 h -0.613 l -0.879,3.3789 h -0.024 v -3.3789 z m -0.598,4.3242 v -0.7344 h -1.066 v -3.5898 h -0.84 v 3.5898 h -1.043 v 0.7344 z M 135.719,44.2031 c -2.211,0 -4.008,1.793 -4.008,4.0039 0,2.211 1.797,4.0039 4.008,4.0039 2.211,0 4,-1.7929 4,-4.0039 0,-2.2109 -1.789,-4.0039 -4,-4.0039 z m -60.7502,16.875 h 4.9023 l 6.7344,-12.8203 v 12.8203 h 4.0547 V 40.6836 H 86.2227 L 79.0273,54.7813 V 40.6836 H 74.9688 Z M 148.035,53.375 c 1.297,1.5039 3.067,2.6328 5.145,2.6328 3.566,0 5.031,-2.8359 5.031,-5.4726 v -9.8477 h -4.402 v 9.7227 c 0,1.2851 -1.071,1.9765 -2.231,1.9765 -1.23,0 -2.023,-0.707 -2.723,-1.4609 l -0.269,0.7812 0.262,-0.7851 V 40.6875 h -4.278 v 14.9688 h 2.598 z M 127.41,43.9883 c -0.496,-0.1485 -1.25,-0.2891 -1.539,-0.2891 -1.332,0 -1.617,0.461 -1.617,1.7383 v 7.207 h 3.187 v 3.0118 h -3.187 v 4.2617 h -3.59 l -0.754,-4.2617 h -2.5 v 0 h -0.207 c -2.047,-0.0079 -3.59,-1.254 -4.578,-3.2071 l -1.246,3.2071 h -2.574 V 40.6875 h 4.398 v 6.5117 c 0,3.2852 1.942,5.3828 4.238,5.4453 h 2.407 v -7.4414 c 0,-3.5 1.797,-4.8047 4.722,-4.8047 1.508,0 2.664,0.3164 3.36,0.5508 z m -27.4803,0.2148 c -2.207,0 -4.0039,1.793 -4.0039,4.0039 0,2.211 1.7969,4.0039 4.0039,4.0039 2.2153,0 4.0043,-1.7929 4.0043,-4.0039 0,-2.2109 -1.789,-4.0039 -4.0043,-4.0039 z m 0,11.8047 c -4.3086,0 -7.8008,-3.4922 -7.8008,-7.8008 0,-4.3125 3.4922,-7.8007 7.8008,-7.8007 4.3123,0 7.8083,3.4882 7.8083,7.8007 0,4.3086 -3.496,7.8008 -7.8083,7.8008 z m 35.7893,0 c -4.313,0 -7.809,-3.4922 -7.809,-7.8008 0,-4.3125 3.496,-7.8007 7.809,-7.8007 4.312,0 7.801,3.4882 7.801,7.8007 0,4.3086 -3.489,7.8008 -7.801,7.8008"
         style="fill:#333;fill-opacity:1;fill-rule:evenodd;stroke:none"
         id="path14" /></g></g></svg>
