<?xml version="1.0" encoding="UTF-8" standalone="no"?>
<svg
   xmlns:dc="http://purl.org/dc/elements/1.1/"
   xmlns:cc="http://creativecommons.org/ns#"
   xmlns:rdf="http://www.w3.org/1999/02/22-rdf-syntax-ns#"
   xmlns:svg="http://www.w3.org/2000/svg"
   xmlns="http://www.w3.org/2000/svg"
   xmlns:sodipodi="http://sodipodi.sourceforge.net/DTD/sodipodi-0.dtd"
   xmlns:inkscape="http://www.inkscape.org/namespaces/inkscape"
   version="1.1"
   id="svg2"
   xml:space="preserve"
   viewBox="0 0 8 9.333333"
   sodipodi:docname="order.eps"><metadata
     id="metadata8"><rdf:RDF><cc:Work
         rdf:about=""><dc:format>image/svg+xml</dc:format><dc:type
           rdf:resource="http://purl.org/dc/dcmitype/StillImage" /></cc:Work></rdf:RDF></metadata><defs
     id="defs6" /><sodipodi:namedview
     pagecolor="#ffffff"
     bordercolor="#666666"
     borderopacity="1"
     objecttolerance="10"
     gridtolerance="10"
     guidetolerance="10"
     inkscape:pageopacity="0"
     inkscape:pageshadow="2"
     inkscape:window-width="640"
     inkscape:window-height="480"
     id="namedview4" /><g
     id="g10"
     inkscape:groupmode="layer"
     inkscape:label="ink_ext_XXXXXX"
     transform="matrix(1.3333333,0,0,-1.3333333,0,9.3333333)"><g
       id="g12"
       transform="scale(0.1)"><path
         d="M 11.4219,46.0391 H 46.75 c 4.3008,0 7.7813,3.4843 7.7813,7.7812 0,4.2969 -3.4805,7.7813 -7.7813,7.7813 H 11.4219 c -4.30081,0 -7.78127,-3.4844 -7.78127,-7.7813 0,-4.2969 3.48437,-7.7812 7.78127,-7.7812 z M 46.75,42.9297 H 11.4219 c -4.30081,0 -7.78127,-3.4844 -7.78127,-7.7813 0,-4.2929 3.48046,-7.7773 7.78127,-7.7773 H 46.75 c 4.3008,0 7.7813,3.4844 7.7813,7.7773 0,4.2969 -3.4805,7.7813 -7.7813,7.7813 z M 11.4219,32.2148 c -1.68752,0 -3.05471,1.3672 -3.05471,3.0469 0,1.6875 1.36719,3.0547 3.05471,3.0547 1.6797,0 3.0429,-1.3672 3.0429,-3.0547 0,-1.6797 -1.3632,-3.0469 -3.0429,-3.0469 z M 46.75,24.3633 H 11.4219 c -4.30081,0 -7.78127,-3.4844 -7.78127,-7.7813 0,-4.3007 3.48437,-7.78122 7.78127,-7.78122 H 46.75 c 4.3008,0 7.7813,3.48052 7.7813,7.78122 0,4.2969 -3.4805,7.7813 -7.7813,7.7813 z M 11.4219,13.5508 c -1.68752,0 -3.05471,1.3672 -3.05471,3.0469 0,1.6796 1.36719,3.0507 3.05471,3.0507 1.6797,0 3.0429,-1.3711 3.0429,-3.0507 0,-1.6797 -1.3632,-3.0469 -3.0429,-3.0469 z m 0,43.3281 c 1.6797,0 3.0429,-1.3633 3.0429,-3.0508 0,-1.6797 -1.3632,-3.0508 -3.0429,-3.0508 -1.68752,0 -3.05471,1.3711 -3.05471,3.0508 0.00781,1.6875 1.36719,3.0508 3.05471,3.0508"
         style="fill:#00ffff;fill-opacity:1;fill-rule:evenodd;stroke:none"
         id="path14" /></g></g></svg>
