<?xml version="1.0" encoding="UTF-8" standalone="no"?>
<svg
   xmlns:dc="http://purl.org/dc/elements/1.1/"
   xmlns:cc="http://creativecommons.org/ns#"
   xmlns:rdf="http://www.w3.org/1999/02/22-rdf-syntax-ns#"
   xmlns:svg="http://www.w3.org/2000/svg"
   xmlns="http://www.w3.org/2000/svg"
   xmlns:sodipodi="http://sodipodi.sourceforge.net/DTD/sodipodi-0.dtd"
   xmlns:inkscape="http://www.inkscape.org/namespaces/inkscape"
   version="1.1"
   id="svg2"
   xml:space="preserve"
   width="202.66667"
   height="9.333333"
   viewBox="0 0 202.66667 9.333333"
   sodipodi:docname="pay_logo.eps"><metadata
     id="metadata8"><rdf:RDF><cc:Work
         rdf:about=""><dc:format>image/svg+xml</dc:format><dc:type
           rdf:resource="http://purl.org/dc/dcmitype/StillImage" /></cc:Work></rdf:RDF></metadata><defs
     id="defs6" /><sodipodi:namedview
     pagecolor="#ffffff"
     bordercolor="#666666"
     borderopacity="1"
     objecttolerance="10"
     gridtolerance="10"
     guidetolerance="10"
     inkscape:pageopacity="0"
     inkscape:pageshadow="2"
     inkscape:window-width="640"
     inkscape:window-height="480"
     id="namedview4" /><g
     id="g10"
     inkscape:groupmode="layer"
     inkscape:label="ink_ext_XXXXXX"
     transform="matrix(1.3333333,0,0,-1.3333333,0,9.3333333)"><g
       id="g12"
       transform="scale(0.1)"><path
         d="m 594.809,35.125 c 0,16.5703 -13.434,30 -30,30 -7.192,0 -13.731,-2.5195 -18.899,-6.7344 3.945,-3.8047 6.953,-8.5664 8.567,-13.9531 h -2.497 c -1.558,4.7891 -4.3,9.0117 -7.871,12.4023 -3.543,-3.3828 -6.261,-7.625 -7.82,-12.3906 h -2.492 c 1.605,5.3555 4.562,10.1289 8.476,13.9219 -5.156,4.1719 -11.668,6.7539 -18.816,6.7539 -16.566,0 -30,-13.4297 -30,-30 0,-16.5664 13.434,-30 30,-30 7.148,0 13.66,2.58203 18.816,6.7578 -3.914,3.793 -6.871,8.5625 -8.476,13.918 h 2.492 c 1.559,-4.7656 4.277,-9.0078 7.82,-12.3906 3.571,3.3906 6.313,7.6171 7.871,12.4023 h 2.497 c -1.614,-5.3828 -4.622,-10.1484 -8.567,-13.9531 5.168,-4.21877 11.707,-6.7344 18.899,-6.7344 16.566,0 30,13.4336 30,30 z m 221.14,-14.0977 c -0.031,0.0313 -0.07,0.0704 -0.101,0.0938 0.886,0.5781 1.484,1.582 1.484,2.7266 v 4.1836 c 0,1.8007 -1.453,3.2539 -3.254,3.2539 h -9.41 c -2.938,0 -5.148,-0.8672 -6.758,-2.168 -0.453,1.2578 -1.613,2.168 -3.027,2.168 h -9.414 c -2.594,0 -4.633,-0.6407 -6.188,-1.6993 -0.562,1.0079 -1.578,1.6993 -2.793,1.6993 h -15.679 c -1.266,0 -2.332,-0.7383 -2.868,-1.7891 -0.226,0.1602 -0.39,0.3398 -0.625,0.4766 -2.277,1.2187 -4.695,1.3125 -7.187,1.3125 h -10.852 c -1.265,0 -2.332,-0.7461 -2.871,-1.8047 -1.652,1.0742 -3.961,1.8047 -7.246,1.8047 h -15.015 c -0.903,0 -1.766,-0.3711 -2.383,-1.0352 l -3.559,-3.8359 -3.414,3.7929 c -0.609,0.6993 -1.488,1.0782 -2.414,1.0782 H 683.48 c -1.796,0 -3.246,-1.4532 -3.246,-3.2461 V 8.375 c 0,-1.79687 1.454,-3.25 3.246,-3.25 h 18.61 c 0.91,0 1.769,0.37891 2.383,1.04297 l 3.59,3.88283 3.402,-3.83205 c 0.613,-0.69141 1.5,-1.08594 2.426,-1.08594 h 9.136 c 1.797,0 3.246,1.45703 3.246,3.24219 v 3.3555 h 2.614 c 3.176,0 5.472,0.6523 7.144,1.6445 v -5 c 0,-1.79297 1.453,-3.24219 3.25,-3.24219 h 4.723 c 1.797,0 3.25,1.45703 3.25,3.24219 v 3.9414 h 1.769 c 0.43,0 0.735,-0.0117 0.954,-0.0273 0.015,-0.3516 0.015,-0.7735 0.007,-1.0508 V 8.375 c 0,-1.79297 1.461,-3.24219 3.25,-3.24219 h 4.715 c 0.528,0 1.004,0.14453 1.438,0.36719 0.437,-0.21484 0.91,-0.36719 1.429,-0.36719 H 776.5 c 0.512,0 0.98,0.14453 1.414,0.35157 0.426,-0.20704 0.891,-0.35157 1.406,-0.35157 h 9.157 c 2.91,0 5.285,0.71485 7.058,1.97657 0.488,-1.16016 1.641,-1.97657 2.985,-1.97657 h 9.152 c 6.656,0 10.625,3.53516 10.625,9.45309 0,2.7422 -0.742,4.7813 -2.348,6.4414 z m -104.816,-2.8515 7.219,-8.0156 v 15.7656 z m 58.262,40.3633 -3.227,-7.836 h 6.488 z m -111.547,0 -3.196,-7.836 h 6.411 z m 74.054,-1.1094 c -0.558,0.3164 -1.414,0.3555 -2.226,0.3555 h -5.789 v -4.3633 h 5.711 c 0.906,0 1.668,0.0156 2.324,0.4023 0.601,0.3203 0.965,1.0117 0.965,1.8672 0,0.8438 -0.375,1.4531 -0.985,1.7383 z m 20.137,-33.8125 c -0.574,0.3398 -1.414,0.3555 -2.242,0.3555 h -5.789 v -4.4141 h 5.707 c 0.922,0 1.699,0.0273 2.332,0.3984 0.609,0.3711 0.973,1.043 0.973,1.8907 -0.012,0.8437 -0.375,1.4531 -0.981,1.7695 z m -22.879,0.3633 h -6.125 v -5.0117 h 6.067 c 1.804,0 2.929,0.8945 2.929,2.5937 -0.004,1.7266 -1.172,2.418 -2.871,2.418 z m -29.215,-0.0078 h -11.773 v -3.5743 h 10.312 v -4.0117 h -10.312 v -3.914 h 11.547 l 5.367,5.7734 z m 101.254,41.1562 h -4.808 c -1.797,0 -3.25,-1.457 -3.25,-3.2461 v -2.0312 l -2.231,3.707 c -0.594,0.9687 -1.644,1.5664 -2.777,1.5664 h -7.16 c -1.797,0 -3.246,-1.4531 -3.246,-3.2461 V 59.1172 L 776,63.1563 c -0.512,1.1914 -1.68,1.9687 -2.98,1.9687 h -7.04 c -0.714,0 -1.394,-0.2344 -1.937,-0.6484 -0.539,0.4101 -1.215,0.6484 -1.949,0.6484 h -4.535 c -3.864,0 -6.719,-0.9375 -8.825,-2.7617 -0.238,1.5508 -1.527,2.7617 -3.144,2.7617 h -4.801 c -1.281,0 -2.355,-0.7617 -2.891,-1.8281 -0.199,0.1445 -0.355,0.3203 -0.582,0.4531 -2.203,1.2734 -4.523,1.375 -7.316,1.375 h -10.809 c -0.609,0 -1.14,-0.2148 -1.632,-0.5039 -0.477,0.2891 -1.016,0.5039 -1.625,0.5039 h -15.696 c -0.66,0 -1.234,-0.2461 -1.75,-0.5859 -0.519,0.3398 -1.09,0.5859 -1.75,0.5859 h -7.832 c -1.301,0 -2.476,-0.7812 -2.984,-1.9844 l -2.793,-6.5781 -3.07,6.6719 c -0.536,1.1523 -1.692,1.8906 -2.954,1.8906 h -7.667 c -1.797,0 -3.247,-1.4531 -3.247,-3.2461 v -2.8281 l -1.761,4.1133 c -0.516,1.1875 -1.688,1.9648 -2.989,1.9648 h -6.972 c -1.301,0 -2.473,-0.7773 -2.989,-1.9687 L 643.07,43.5 c -0.433,-1.0117 -0.324,-2.1523 0.27,-3.0664 0.601,-0.9102 1.621,-1.457 2.715,-1.457 h 5.105 c 1.301,0 2.488,0.789 2.988,1.9961 l 0.993,2.3906 h 5.445 l 0.98,-2.375 c 0.497,-1.2188 1.684,-2.0117 3,-2.0117 h 9.559 c 1.797,0 3.246,1.457 3.246,3.2461 v 0.0781 l 0.613,-1.3945 c 0.524,-1.1758 1.688,-1.9297 2.969,-1.9297 l 4.129,-0.0118 c 1.293,0 2.449,0.7579 2.969,1.9336 l 0.621,1.3946 v -0.0821 c 0,-1.789 1.453,-3.2421 3.246,-3.2421 h 4.82 c 0.66,0 1.231,0.25 1.75,0.5859 0.516,-0.3359 1.086,-0.5859 1.75,-0.5859 h 15.696 c 0.609,0 1.148,0.2148 1.625,0.5 0.488,-0.2852 1.023,-0.5 1.632,-0.5 h 4.704 c 1.796,0 3.242,1.4531 3.242,3.246 v 3.9063 h 1.801 c 0.402,0 0.691,-0.0117 0.91,-0.0273 0.019,-0.3321 0.015,-0.7266 0.015,-0.9922 l -0.008,-0.4336 0.02,-2.4805 c 0.012,-1.7773 1.469,-3.2187 3.246,-3.2187 h 4.742 c 0.532,0 1.012,0.164 1.453,0.3906 0.45,-0.2305 0.934,-0.3906 1.473,-0.3906 h 4.797 c 1.574,0 2.82,1.1367 3.125,2.6171 2.664,-2.2382 6.414,-2.6171 8.504,-2.6171 h 5.504 c 1.312,0 2.5,0.8085 2.992,2.0312 l 0.957,2.3555 h 5.414 l 0.996,-2.3867 c 0.5,-1.2032 1.68,-1.9922 2.996,-1.9922 h 9.559 c 1.797,0 3.246,1.4531 3.246,3.2422 v 3.1015 l 2.883,-4.7773 c 0.59,-0.9727 1.64,-1.5664 2.785,-1.5664 h 6.652 c 1.797,0 3.246,1.4531 3.246,3.2422 v 19.664 c 0,1.7891 -1.457,3.2461 -3.246,3.2461 z M 696.734,42.2227 h -4.82 l -0.016,15.3984 -6.816,-15.3984 h -4.129 l -6.824,15.414 v -15.414 h -9.566 l -1.805,4.3867 h -9.781 l -1.825,-4.3867 h -5.105 l 8.414,19.6601 h 6.973 l 8,-18.6172 v 18.6172 h 7.671 l 6.149,-13.3359 5.644,13.3359 h 7.836 z m 19.196,15.5664 h -10.996 v -3.543 h 10.734 v -4.0273 h -10.734 v -3.9297 h 10.996 v -4.0664 h -15.696 v 19.6601 h 15.696 z m 18.82,-6.4453 c 1.027,-0.3946 1.906,-1.086 2.324,-1.6524 0.668,-0.9805 0.781,-1.8516 0.781,-3.6094 v -3.8554 h -4.742 l -0.019,2.4804 c 0,1.1797 0.113,2.8789 -0.739,3.8282 -0.687,0.6914 -1.734,0.8398 -3.429,0.8398 h -5.035 v -7.1523 h -4.703 -0.004 v 19.6601 h 10.808 c 2.403,0 4.172,-0.0625 5.688,-0.9414 1.488,-0.8789 2.379,-2.1641 2.379,-4.3594 0,-3.1328 -2.094,-4.7539 -3.309,-5.2382 z m 10.84,-9.1211 h -4.801 v 19.6601 h 4.801 z m 55.609,0 h -6.656 l -8.91,14.7578 V 42.2227 h -9.563 l -1.836,4.3867 h -9.761 l -1.77,-4.3867 h -5.5 c -2.281,0 -5.164,0.5039 -6.801,2.1718 -1.664,1.6719 -2.519,3.9336 -2.519,7.5078 0,2.9141 0.515,5.5821 2.515,7.6915 1.516,1.5703 3.891,2.289 7.137,2.289 h 4.539 v -4.2109 h -4.453 c -1.707,0 -2.68,-0.2539 -3.609,-1.1641 -0.805,-0.8281 -1.348,-2.3945 -1.348,-4.457 0,-2.1016 0.418,-3.6211 1.297,-4.6133 0.727,-0.7773 2.047,-1.0117 3.273,-1.0117 h 2.11 l 6.636,15.457 h 7.04 l 7.953,-18.5937 v 18.5937 h 7.16 l 8.258,-13.6914 v 13.6914 h 4.808 z m -41.937,12.1992 -2.043,-4.7578 c -0.449,0 -0.754,0.0507 -0.922,0.0937 -0.156,0.293 -0.371,0.9414 -0.371,2.2891 0,1.3633 0.328,2.0703 0.371,2.1328 0.137,0.1328 0.25,0.2461 1.351,0.2461 z M 728.891,14.9805 h -5.864 V 8.38281 h -9.132 l -5.79,6.50779 -6.015,-6.50779 H 683.48 V 28.0508 h 18.895 l 5.789,-6.4492 5.977,6.4492 h 15.011 c 3.731,0 7.922,-1.0469 7.922,-6.4883 0,-5.457 -4.074,-6.5898 -8.183,-6.582 z m 25.984,2.5312 c 1.039,-0.3789 1.895,-1.0742 2.293,-1.6523 0.668,-0.961 0.754,-1.8516 0.777,-3.586 V 8.375 h -4.715 v 2.4609 c 0,1.1797 0.114,2.9375 -0.765,3.8516 -0.672,0.6992 -1.715,0.8633 -3.442,0.8633 h -5.015 V 8.375 h -4.723 v 19.6641 h 10.856 c 2.375,0 4.101,-0.1016 5.652,-0.9258 1.477,-0.8906 2.414,-2.125 2.414,-4.3633 0,-3.1406 -2.102,-4.7422 -3.332,-5.2383 z m 21.621,6.461 h -11.008 v -3.5782 h 10.735 v -4.0156 h -10.735 v -3.9023 l 11.008,-0.0235 V 8.375 h -15.683 v 19.6641 h 15.683 z M 788.477,8.39844 h -9.149 v 4.22266 h 9.11 c 0.886,0 1.519,0.1094 1.917,0.4883 0.321,0.3008 0.547,0.75 0.547,1.2851 0,0.5703 -0.242,1.0196 -0.57,1.2969 -0.367,0.3008 -0.852,0.4375 -1.676,0.4375 -4.386,0.1406 -9.894,-0.1367 -9.894,6.0781 0,2.8633 1.789,5.8555 6.718,5.8555 h 9.415 v -4.1836 h -8.622 c -0.855,0 -1.414,-0.0351 -1.878,-0.3594 -0.52,-0.3242 -0.715,-0.7929 -0.715,-1.4179 0,-0.7422 0.437,-1.2383 1.027,-1.4649 0.504,-0.1719 1.031,-0.2226 1.832,-0.2226 l 2.524,-0.0743 c 2.546,-0.0664 4.3,-0.5078 5.359,-1.582 0.926,-0.9492 1.41,-2.1523 1.41,-4.168 0,-4.2382 -2.633,-6.2148 -7.355,-6.19136 z m 19.199,0 h -9.149 v 4.22266 h 9.114 c 0.886,0 1.519,0.1094 1.914,0.4883 0.32,0.3008 0.547,0.75 0.547,1.2851 0,0.5703 -0.239,1.0196 -0.571,1.2969 -0.363,0.3008 -0.843,0.4375 -1.672,0.4375 -4.394,0.1406 -9.898,-0.1367 -9.898,6.0781 0,2.8633 1.789,5.8555 6.719,5.8555 h 9.418 v -4.1836 h -8.618 c -0.867,0 -1.421,-0.0351 -1.886,-0.3594 -0.52,-0.3242 -0.707,-0.7929 -0.707,-1.4179 0,-0.7422 0.437,-1.2383 1.019,-1.4649 0.508,-0.1719 1.032,-0.2226 1.836,-0.2226 l 2.52,-0.0743 c 2.554,-0.0664 4.308,-0.5078 5.367,-1.582 0.918,-0.9492 1.41,-2.1523 1.41,-4.168 0,-4.2382 -2.641,-6.2148 -7.363,-6.19136 z M 1297.58,65.1289 h -13.24 c 0,-10.8633 -4.98,-20.7734 -13.65,-27.3008 l -5.22,-3.9179 20.3,-27.65629 h 16.68 l -18.7,25.46089 c 8.84,8.7813 13.83,20.6524 13.83,33.4141 z m 209.01,-17.0937 c -1.6,0 -2.9,-1.3047 -2.9,-2.9102 0.06,-1.6016 1.3,-2.9062 2.9,-2.9062 1.61,0 2.91,1.3046 2.91,2.9062 0,1.6055 -1.3,2.9102 -2.91,2.9102 z m 0,-5.2813 c -1.3,0 -2.31,1.0664 -2.31,2.3711 0,1.3086 1.07,2.375 2.31,2.375 1.31,0 2.32,-1.0664 2.32,-2.375 0,-1.3047 -1.07,-2.3711 -2.32,-2.3711 z m 4.81,-22.0781 c -4.21,0 -7.65,-3.4414 -7.65,-7.6563 0,-4.21481 3.44,-7.65622 7.65,-7.65622 4.22,0 7.66,3.44141 7.66,7.65622 0,4.2735 -3.44,7.6563 -7.66,7.6563 z m -261.12,44.4531 h 13.53 V 6.25391 h -13.53 z m 56.08,0 h 12.76 V 6.25391 h -12.76 z m 124.69,-17.0351 c -4.87,0 -9.5,-1.4844 -12.59,-5.6993 v 4.5703 h -12.1 V 6.25391 h 12.28 V 27.6211 c 0,6.168 4.16,9.1953 9.15,9.1953 5.34,0 8.42,-3.2031 8.42,-9.1367 V 6.19531 h 12.17 V 32.1289 c 0,9.4961 -7.54,15.9649 -17.33,15.9649 z m -73.35,-1.129 v -2.6093 c -3.45,2.375 -7.6,3.7383 -12.11,3.7383 -11.87,0 -21.48,-9.6133 -21.48,-21.4844 0,-11.8672 9.61,-21.4844 21.48,-21.4844 4.51,0 8.66,1.36719 12.11,3.73828 V 6.25391 h 12.16 V 46.9648 Z m -11.1,-30.8007 c -6.12,0 -11.04,4.6875 -11.04,10.4453 0,5.7578 4.92,10.4453 11.04,10.4453 6.11,0 11.04,-4.6875 11.04,-10.4453 0,-5.7578 -4.93,-10.4453 -11.04,-10.4453 z m 42.14,25.5195 v 5.2812 h -12.47 V 6.25391 h 12.53 V 25.2461 c 0,6.4102 6.93,9.8516 11.74,9.8516 h 0.12 v 11.8671 c -4.93,0 -9.49,-2.1328 -11.92,-5.2812 z m 97.5,5.2812 v -2.6093 c -3.44,2.375 -7.6,3.7383 -12.11,3.7383 -11.86,0 -21.48,-9.6133 -21.48,-21.4844 0,-11.8672 9.62,-21.4844 21.48,-21.4844 4.51,0 8.67,1.36719 12.11,3.73828 V 6.25391 h 12.17 V 46.9648 Z m -11.1,-30.8007 c -6.11,0 -11.03,4.6875 -11.03,10.4453 0,5.7578 4.92,10.4453 11.03,10.4453 6.12,0 11.04,-4.6875 11.04,-10.4453 0.06,-5.7578 -4.92,-10.4453 -11.04,-10.4453 z m 32.7,29.6172 c 0,0.5937 -0.41,0.9492 -1.07,0.9492 h -1.13 v -3.086 h 0.54 v 1.1289 h 0.59 l 0.48,-1.1289 h 0.59 l -0.53,1.2461 c 0.35,0.1758 0.53,0.4727 0.53,0.8907 z m -1.07,-0.4766 h -0.59 v 0.9492 h 0.59 c 0.36,0 0.54,-0.1797 0.54,-0.4726 0,-0.2969 -0.12,-0.4766 -0.54,-0.4766 z m -383.01,-9.5 V 18.1953 h -5.5 v 43.461 h 14.59 c 3.52,0.0703 6.94,-1.2813 9.44,-3.7774 4.98,-4.7109 5.29,-12.6484 0.61,-17.7461 -0.2,-0.207 -0.41,-0.414 -0.61,-0.6211 -2.57,-2.4609 -5.71,-3.707 -9.44,-3.707 z m -45.85,19.4414 c 3.52,0.0664 6.9,-1.2852 9.43,-3.7461 l 7.04,7.1406 c -4.48,4.2305 -10.35,6.5508 -16.47,6.4844 -9.3,0 -17.8,-5.3398 -21.97,-13.7617 -3.52,-7.0352 -3.52,-15.3555 0,-22.3906 v -0.0313 c 4.17,-8.4258 12.67,-13.7266 21.97,-13.7266 6.63,0 12.23,2.2149 16.3,6.0274 4.65,4.332 7.31,10.7461 7.31,18.375 0,1.6953 -0.14,3.3945 -0.41,5.0586 h -23.2 v -9.6016 h 13.29 c -0.54,-3.0859 -2.32,-5.8554 -4.92,-7.5898 -2.22,-1.5274 -5.06,-2.3946 -8.37,-2.3946 -6.43,0 -11.86,4.4024 -13.8,10.293 -1.03,3.0781 -1.03,6.4297 -0.01,9.543 l 0.01,-0.0117 c 1.94,5.9336 7.37,10.332 13.8,10.332 z M 1202.28,47.9336 1183.9,5.125 h -5.67 l 6.83,14.9727 -12.06,27.8359 h 5.98 l 8.71,-21.3516 h 0.1 l 8.51,21.3516 z m -43.36,0.9687 c 4.07,0 7.28,-1.1054 9.64,-3.2929 2.36,-2.1797 3.52,-5.2305 3.52,-9.0821 v -18.332 h -5.26 v 4.1211 h -0.24 c -2.29,-3.3945 -5.3,-5.0937 -9.09,-5.0937 -3.21,0 -5.95,0.9726 -8.1,2.9101 -2.12,1.8047 -3.31,4.4727 -3.25,7.2813 0,3.0859 1.17,5.5078 3.46,7.3476 2.29,1.836 5.36,2.7344 9.19,2.7344 3.28,0 5.94,-0.6172 8.06,-1.7969 v 1.2813 c 0,1.9062 -0.82,3.707 -2.26,4.957 -1.46,1.3164 -3.34,2.0469 -5.29,2.0469 -3.07,0 -5.5,-1.3203 -7.28,-3.9571 l -4.85,3.0899 c 2.6,3.8437 6.53,5.7851 11.75,5.7851 z m -7.1,-21.5937 c 0,-1.457 0.68,-2.8086 1.81,-3.6367 1.23,-0.9727 2.73,-1.4922 4.27,-1.4571 2.32,0 4.54,0.9336 6.18,2.5977 1.81,1.7344 2.74,3.7773 2.74,6.1367 -1.71,1.3828 -4.11,2.0821 -7.18,2.043 -2.22,0 -4.1,-0.5547 -5.6,-1.6289 -1.47,-1.0742 -2.22,-2.4219 -2.22,-4.0547 z m -28.06,29.0117 V 41.1406 h 9.23 c 2.05,-0.0703 4.03,0.7617 5.43,2.25 2.87,3.0157 2.8,7.8711 -0.17,10.7813 -1.4,1.3867 -3.28,2.1484 -5.26,2.1484 z m -234.322,1.0664 c -1.715,-2.0234 -4.454,-3.6211 -7.196,-3.3945 -0.344,2.7422 0.996,5.6523 2.567,7.4492 1.714,2.0859 4.711,3.5703 7.136,3.6836 0.285,-2.8555 -0.828,-5.6523 -2.507,-7.7383 z m 2.48,-3.9375 c -3.969,0.2305 -7.363,-2.25 -9.246,-2.25 -1.914,0 -4.797,2.1367 -7.938,2.0821 -4.082,-0.0586 -7.875,-2.3711 -9.961,-6.0547 -4.281,-7.3633 -1.113,-18.2657 3.024,-24.2578 2.031,-2.9688 4.453,-6.2227 7.652,-6.1094 3.028,0.1172 4.223,1.9687 7.875,1.9687 3.688,0 4.742,-1.9687 7.938,-1.914 3.312,0.0625 5.394,2.9687 7.422,5.9375 2.308,3.3711 3.254,6.6484 3.308,6.8242 -0.054,0.0547 -6.39,2.4805 -6.445,9.789 -0.063,6.1094 4.992,9.0196 5.219,9.1915 -2.856,4.2226 -7.309,4.6796 -8.848,4.7929 z m 22.918,8.2774 V 17.2305 h 6.906 v 15.2148 h 9.567 c 8.734,0 14.867,5.9922 14.867,14.6719 0,8.6758 -6.02,14.6094 -14.641,14.6094 z m 6.906,-5.8203 h 7.965 c 5.992,0 9.422,-3.1993 9.422,-8.8204 0,-5.6211 -3.43,-8.8476 -9.449,-8.8476 h -7.938 z m 37.051,-39.0196 c 4.34,0 8.363,2.1992 10.191,5.6797 h 0.141 v -5.3359 h 6.395 v 22.1484 c 0,6.4258 -5.137,10.5586 -13.043,10.5586 -7.336,0 -12.758,-4.1953 -12.961,-9.957 h 6.222 c 0.516,2.7383 3.055,4.5351 6.539,4.5351 4.223,0 6.59,-1.9687 6.59,-5.5937 v -2.4571 l -8.617,-0.5117 c -8.02,-0.4843 -12.359,-3.7695 -12.359,-9.4765 0,-5.7657 4.48,-9.5899 10.902,-9.5899 z m 1.855,5.2774 c -3.683,0 -6.019,1.7734 -6.019,4.4843 0,2.8008 2.254,4.4258 6.562,4.6797 l 7.676,0.4844 v -2.5078 c 0,-4.168 -3.539,-7.1406 -8.219,-7.1406 z M 984.055,5.125 c 6.734,0 9.906,2.57422 12.672,10.3633 l 12.133,34.0234 h -7.02 l -8.137,-26.2851 h -0.14 l -8.137,26.2851 h -7.223 l 11.703,-32.3984 -0.629,-1.9649 c -1.054,-3.3398 -2.769,-4.6289 -5.82,-4.6289 -0.547,0 -1.602,0.0586 -2.027,0.1172 V 5.30078 C 981.828,5.18359 983.539,5.125 984.055,5.125 Z M 283.773,53.0273 290.355,5.96875 h 16.129 L 336.57,64.2266 h -16.972 l -12.77,-27.0078 c -1.805,-3.8399 -3.359,-7.3282 -4.695,-10.4961 -0.254,3.3203 -0.524,6.539 -0.848,9.8437 L 298.66,64.2266 H 272.883 L 299.727,43.0313 Z M 412.426,5.96875 418.953,20.1953 h 13.141 l 1.133,-14.22655 h 15.789 L 442.188,64.2266 H 424.547 L 396.168,5.96875 Z m 15.855,36.00005 c 0.625,1.3085 1.239,2.7929 1.832,4.3515 0.129,-1.3867 0.223,-2.6758 0.297,-3.8125 l 0.918,-9.9453 h -7.379 z M 357.055,9.38281 c 3.554,-2.64843 9.82,-4.25781 16.726,-4.25781 14.371,0 23.996,8.1133 23.996,20.1953 0,6.6055 -3.836,11.8203 -11.754,15.9766 -4.429,2.4765 -7.125,4.1523 -7.125,6.2578 0,1.957 2.079,4.0859 6.954,4.0859 4.777,0 8.437,-1.8593 9.101,-2.2304 l 1.738,-0.961 4.844,13.0117 -1.285,0.6914 c -3.609,2.004 -8.113,2.9727 -13.758,2.9727 -13.754,0 -23.351,-8.0195 -23.351,-19.5234 0,-8.3399 6.55,-12.9883 12.316,-16.0782 5.426,-2.8007 6.488,-4.4062 6.488,-6.2382 0,-3.4844 -3.789,-4.75 -7.031,-4.75 -4.23,0 -8.609,1.2187 -12.074,3.2695 l -1.703,1.0391 -5.125,-12.6446 z M 348.148,5.96875 359.207,64.2266 H 344.039 L 332.953,5.96875 Z M 33.5195,43.2852 c -1.8242,-1.3399 -4.3632,-2.0079 -7.6367,-2.0079 h -1.4726 c -1.3164,0 -2.1211,1.0352 -1.836,2.3047 l 1.8203,7.8438 c 0.2539,1.2539 1.5743,2.3008 2.8711,2.289 l 1.9805,0.0118 c 2.3086,0 4.0703,-0.3985 5.25,-1.1719 1.168,-0.7656 1.75,-1.9844 1.7383,-3.5977 0.039,-2.4531 -0.8985,-4.3398 -2.7149,-5.6718 z m 83.1485,8.25 c -1.43,-0.0157 -7.238,0 -7.238,0 -1.297,0 -2.973,-1.0508 -3.797,-2.3047 0,0 -8.6447,-14.836 -9.4846,-16.3282 l -1,0.0157 -2.6914,16.2148 c -0.3007,1.2695 -1.6328,2.3633 -3.289,2.3633 l -5.4102,-0.0078 c -1.3008,0 -2.0976,-1.043 -1.8047,-2.3047 0,0 4.1055,-23.3711 4.9258,-28.8711 0.3828,-3.0352 -0.0469,-3.5742 -0.0469,-3.5742 L 81.4844,7.42578 C 80.6953,6.15625 81.1211,5.125 82.418,5.125 l 6.2539,0.00781 c 1.2969,0 3.0117,1.02344 3.7851,2.29688 l 24.047,40.67971 c 0,-0.0039 2.312,3.4726 0.164,3.4258 z m 91.262,7.1289 c 0.277,1.2656 -0.516,2.289 -1.813,2.2695 h -5.41 c -1.105,0 -2.105,-0.8203 -2.594,-1.832 L 197.816,58.6367 197.543,57.4375 189.984,23.082 189.738,22.0273 189.746,22 c -0.25,-1.1289 0.445,-1.9805 1.516,-2.1445 l 0.093,-0.125 h 5.614 c 1.101,0 2.133,0.832 2.605,1.8633 l 0.289,0.4375 8.082,36.6289 z M 143.145,43.1289 c -1.821,-1.3125 -4.364,-1.9805 -7.614,-1.9805 h -1.504 c -1.297,-0.0117 -2.136,1.0391 -1.847,2.3008 l 1.832,7.8321 c 0.265,1.25 1.574,2.3046 2.883,2.289 l 1.957,0.0156 c 2.32,-0.0156 4.062,-0.3984 5.25,-1.1718 1.183,-0.7735 1.738,-1.9883 1.753,-3.5977 0.012,-2.4531 -0.894,-4.3437 -2.71,-5.6875 z m 13.019,12.0859 c -0.758,1.461 -1.891,2.6446 -3.32,3.5704 -1.469,0.914 -3.215,1.5546 -5.25,1.9257 -2,0.3555 -4.387,0.5508 -7.098,0.5508 l -12.625,-0.0078 c -1.316,-0.0234 -2.578,-1.0391 -2.879,-2.2969 L 116.5,22 c -0.309,-1.2539 0.539,-2.2891 1.82,-2.2891 l 6.047,0.0079 c 1.281,-0.0079 2.598,1.0195 2.903,2.2851 l 2.043,8.9727 c 0.3,1.25 1.593,2.3007 2.902,2.2929 h 1.73 c 7.391,0 13.118,1.5196 17.246,4.5313 4.071,3.0508 6.137,7.0351 6.137,11.9922 -0.023,2.1601 -0.398,3.9843 -1.164,5.4218 z m 19.418,-26.5937 -0.98,-1.25 -2.352,-1.2188 c -1.117,-0.4492 -2.184,-0.6835 -3.145,-0.6835 -1.539,0 -2.667,0.2187 -3.433,0.6601 l -1.18,2.2539 c 0,1.2344 0.285,2.1953 0.863,2.957 0.583,0.7149 1.477,1.3047 2.586,1.7344 1.082,0.3711 2.418,0.6719 3.973,0.8946 1.371,0.1679 4.086,0.4921 4.441,0.5 l 0.426,-0.7383 c -0.062,-0.418 -0.84,-3.6407 -1.199,-5.1094 z m 9.711,21.4219 c -2.289,1.2851 -5.883,1.9297 -10.785,1.9297 -2.434,0 -4.86,-0.1875 -7.301,-0.5782 -1.809,-0.2656 -1.988,-0.3203 -3.105,-0.5586 -2.289,-0.5 -2.649,-2.8007 -2.649,-2.8007 l -0.738,-3.0313 c -0.414,-1.9375 0.68,-1.8476 1.191,-1.6992 1,0.3008 1.547,0.5937 3.574,1.0664 1.95,0.4414 4.032,0.7656 5.668,0.7578 2.407,0 4.25,-0.2578 5.477,-0.7812 1.223,-0.5274 1.824,-1.4414 1.824,-2.7344 l -0.094,-0.8516 -0.863,-0.5469 c -3.457,-0.2109 -5.937,-0.5273 -8.91,-0.9609 -2.926,-0.4101 -5.512,-1.1211 -7.66,-2.1094 -2.293,-1.0117 -4.016,-2.3711 -5.195,-4.1015 -1.168,-1.7383 -1.739,-3.8438 -1.739,-6.2891 0,-2.3437 0.832,-4.2656 2.477,-5.7422 1.637,-1.4531 3.769,-2.1875 6.348,-2.1875 1.625,0.0196 2.886,0.125 3.785,0.3555 l 2.914,0.9961 2.5,1.3711 2.261,1.5234 0.036,-0.0508 -0.204,-0.9765 -0.023,-0.0157 0.008,-0.0195 c -0.274,-1.1758 0.441,-2.1523 1.601,-2.2578 l 0.012,-0.0195 h 0.106 c 0.761,0 3.39,0 4.644,0 h 0.852 l 0.093,0.0273 c 1.192,0.1445 2.317,1.1133 2.567,2.2813 l 4.414,19.0234 0.238,1.5586 0.121,1.4609 c 0.004,2.6914 -1.144,4.6836 -3.445,5.961 z M 65.9141,28.6484 64.9727,27.4102 62.6016,26.1836 C 61.4805,25.7266 60.4219,25.5 59.4453,25.5 c -1.4883,0 -2.6523,0.2188 -3.4414,0.6523 l -1.1641,2.2657 c 0,1.2265 0.2813,2.1992 0.8829,2.9492 l 2.5586,1.7383 c 1.0976,0.3711 2.4335,0.6836 3.9804,0.8984 1.3789,0.168 4.1055,0.4844 4.461,0.4922 l 0.4179,-0.7344 c -0.082,-0.4179 -0.8554,-3.6523 -1.2265,-5.1133 z m 9.7304,21.4219 c -2.2773,1.2852 -5.8672,1.9258 -10.7851,1.9258 -2.4297,0 -4.8555,-0.1875 -7.3008,-0.5664 -1.8086,-0.2774 -1.9883,-0.332 -3.0977,-0.5742 -2.2968,-0.5 -2.6562,-2.7891 -2.6562,-2.7891 l -0.7383,-3.0391 c -0.4141,-1.9414 0.6992,-1.8671 1.1641,-1.7031 1.0039,0.3008 1.5625,0.6094 3.6133,1.0664 1.9531,0.4414 4.0156,0.7774 5.6562,0.7539 2.4102,0 4.2578,-0.2539 5.4883,-0.7734 1.2109,-0.5273 1.8164,-1.4297 1.8164,-2.7422 L 68.7031,40.7734 67.832,40.2383 c -3.4297,-0.2149 -5.9023,-0.5313 -8.9023,-0.9649 -2.9375,-0.414 -5.5156,-1.125 -7.6563,-2.1093 -2.2968,-1.0118 -4.0039,-2.3711 -5.1953,-4.0977 -1.1523,-1.7344 -1.7304,-3.8437 -1.7304,-6.3125 0,-2.3242 0.8359,-4.25 2.457,-5.7305 1.6328,-1.4609 3.7891,-2.1757 6.3633,-2.1757 1.6328,0.0078 2.8945,0.1406 3.789,0.3515 l 2.9258,1.0078 2.4766,1.3711 2.2734,1.5039 0.0313,-0.0429 -0.2266,-0.9688 -0.0117,-0.039 v -0.0118 c -0.25,-1.1757 0.4648,-2.1406 1.6094,-2.2539 l 0.0234,-0.0312 h 5.6055 l 0.0781,0.039 c 1.207,0.1368 2.332,1.1055 2.5976,2.2579 l 4.4024,19.0507 0.2266,1.5508 0.1093,1.457 c 0.0196,2.6993 -1.1484,4.7032 -3.4336,5.9805 z m 152.3395,12.9492 -1.441,0.5977 -1.063,-0.2149 -1.082,-0.7304 -0.628,0.6992 -1.02,0.2422 -0.98,-0.2149 -0.926,-0.6015 v 0.6523 h -0.985 v -5.8711 h 0.977 v 4.3867 l 0.824,0.5079 0.817,0.2031 0.668,-0.1211 0.328,-0.3399 0.148,-0.5585 0.043,-0.7266 v -3.3555 h 0.984 v 3.7539 l -0.015,0.3164 -0.02,0.2813 0.836,0.5351 0.824,0.2071 0.649,-0.1211 0.351,-0.336 0.122,-0.5664 0.066,-0.7187 v -3.3555 h 0.988 v 3.8125 z m -9.359,-4.5156 -0.379,-0.1133 -0.504,-0.0742 -0.621,0.0977 -0.316,0.3086 -0.145,0.4843 -0.008,0.7227 v 2.6875 h 2.016 v 0.832 h -2.016 v 1.6758 h -1 v -1.6758 h -0.675 v -0.832 h 0.675 v -3.125 l 0.469,-1.5469 1.367,-0.4922 0.578,0.0469 0.61,0.1211 v 0.8828 z M 46.5391,55.3516 c -0.7266,1.4531 -1.8711,2.6562 -3.2969,3.5547 -1.4883,0.9101 -3.2383,1.5507 -5.25,1.9257 -2.0352,0.3672 -4.3945,0.5391 -7.125,0.5664 L 18.2617,61.3867 C 16.9531,61.3711 15.668,60.3516 15.3594,59.082 L 6.87891,22.1406 C 6.83984,21.9648 6.81641,21.793 6.81641,21.6289 6.8125,20.6211 7.57813,19.8477 8.70313,19.8477 h 6.03517 c 1.3125,0 2.6094,1.0156 2.8984,2.2929 l 2.0742,8.9688 c 0.2774,1.25 1.5704,2.2929 2.8907,2.2929 h 1.7304 c 7.3789,0.0079 13.0977,1.5157 17.2032,4.5391 4.125,3.0234 6.164,7.0195 6.164,11.9727 -0.0039,2.164 -0.3633,3.9843 -1.1601,5.4375 z m 526.2229,-27.2578 2.07,11.1054 h 2.621 l 0.27,-1.0937 c 0.472,0.5468 1.367,1.0937 2.894,1.0937 l -0.82,-2.8906 c -0.742,0 -2.152,0.1914 -3.051,-3.1328 l -0.937,-5.082 z m -26.973,-0.004 2.051,10.9883 h 2.594 l 0.269,-1.0859 c 0.465,0.5469 1.356,1.0859 2.863,1.0859 l -0.777,-2.9023 c -0.73,0 -2.168,0.2305 -3.059,-3.0586 l -0.925,-5.0274 z m 18.793,10.793 -0.465,-2.3984 c 0.738,0.0781 2.711,0.3867 3.758,0.3515 1.047,-0.0429 2.203,0.1133 1.855,-1.5507 -0.773,-0.0743 -6.191,0.7734 -7.039,-3.8672 -0.351,-2.2852 1.622,-3.4492 3.172,-3.3672 1.547,0.0781 1.973,0.2695 2.512,0.6562 l 0.391,-0.6172 h 2.82 l 1.203,6.0352 c 0.309,1.5117 0.813,5.1484 -4.258,5.1484 -0.929,-0.039 -1.972,0 -3.949,-0.3906 z m 4.648,-5.8398 c -0.503,0.0742 -1.628,0.3867 -2.593,-0.2696 -0.973,-0.6601 -1.239,-1.8203 -0.235,-2.2109 0.969,-0.3711 2.399,0.2695 2.594,1.2813 z m 18.918,4.875 c -0.578,0.4258 -0.929,1.3164 -2.359,1.3164 -1.664,0 -4.254,0.3086 -5.726,-4.7227 -0.981,-3.3633 1.007,-6.4219 3.171,-6.4219 1.008,0.0391 2.012,0.461 2.633,0.8907 l 0.387,-0.8907 h 3.25 l 2.633,14.086 h -3.176 z m -1.082,-4.5274 c 0.309,1.0078 0.141,2.2617 -0.191,2.7071 -0.93,1.2382 -3.066,0.2578 -3.715,-2.1641 -0.426,-1.5859 0.5,-2.7891 1.547,-2.7891 1.121,0 1.816,0.8907 2.359,2.2461 z m -24.648,4.9922 c -0.773,0.4649 -1.316,0.5391 -2.32,0.5391 -1.004,0 -3.25,-0.961 -3.68,-3.6758 -0.5,-3.2109 1.703,-4.7969 4.801,-3.7539 l 0.89,-2.707 c -1.007,-0.4649 -2.011,-0.6954 -3.675,-0.6954 -3.133,0 -6.543,2.7852 -4.993,8.4375 1.141,4.1602 4.723,5.6836 6.809,5.6094 2.477,-0.0937 3.367,-0.9297 4.141,-1.7812 z m -48.914,0.5 -0.465,-2.3984 c 0.734,0.0781 2.711,0.3867 3.758,0.3515 1.043,-0.0429 2.203,0.1133 1.855,-1.5507 -0.773,-0.0743 -6.191,0.7734 -7.043,-3.8672 -0.347,-2.2852 1.625,-3.4492 3.176,-3.3672 1.547,0.0781 1.973,0.2695 2.512,0.6562 l 0.391,-0.6172 h 2.824 l 1.199,6.0352 c 0.309,1.5117 0.812,5.1484 -4.258,5.1484 -0.93,-0.039 -1.976,0 -3.949,-0.3906 z m 4.648,-5.8398 c -0.507,0.0742 -1.629,0.3867 -2.597,-0.2696 -0.965,-0.6601 -1.235,-1.8203 -0.231,-2.2109 0.969,-0.3711 2.399,0.2695 2.594,1.2813 z m -7.976,-4.9532 2.515,13.3868 h -4.953 l -3.675,-8.125 -0.583,8.125 h -4.835 l -2.594,-13.3868 h 3.023 l 1.856,9.6758 0.812,-9.6758 h 2.863 l 4.219,9.4375 -1.781,-9.4375 z m 19.582,8.5118 0.695,2.2461 c -1.43,0.539 -2.555,0.4257 -2.98,0.4257 -0.422,0 -4.047,0.043 -4.602,-2.6328 -0.426,-2.0508 0.324,-2.8984 1.043,-3.2109 1.164,-0.5078 1.82,-0.9688 2.438,-1.2774 0.765,-0.3828 0.628,-1.664 -0.387,-1.664 -0.465,0 -2.477,-0.2344 -3.985,0.2695 l -0.425,-2.2812 c 1.394,-0.3868 2.511,-0.3868 3.562,-0.3868 0.735,0 4.332,-0.1953 4.832,3.1329 0.246,1.625 -0.465,2.3593 -1.043,2.7109 -0.582,0.3867 -1.547,0.9258 -2.164,1.1953 -0.621,0.2734 -1.086,1.3164 0.035,1.6289 0.696,0.0781 2.129,0.0781 2.981,-0.1562 z m 15.945,-3.5586 c 0.348,1.7773 1.156,6.1914 -4.144,6.1914 -4.875,0 -5.493,-4.836 -5.61,-5.5352 -0.113,-0.6953 -0.195,-5.6094 5.031,-5.6094 1.278,-0.039 3.133,0.1133 3.868,0.5 l 0.465,2.2852 c -0.465,-0.1172 -2.204,-0.2695 -3.403,-0.2695 -1.199,0 -3.137,-0.0782 -2.789,2.4375 z m -6.387,2.0117 h 3.75 c 0.196,1.082 -0.152,2.0117 -1.351,2.0117 -1.199,0 -2.051,-0.6211 -2.399,-2.0117 z m -6.695,6.9648 h 3.02 l -0.621,-2.9414 h 1.625 l -0.543,-2.3984 h -1.547 l -0.848,-4.4883 c -0.156,-0.8516 -0.078,-1.6289 1.664,-1.3555 l -0.195,-2.2461 c -0.656,-0.4218 -1.547,-0.539 -2.246,-0.539 -0.692,0 -2.981,0.4258 -2.395,3.4414 l 2.086,10.5273"
         style="fill:#808080;fill-opacity:1;fill-rule:evenodd;stroke:none"
         id="path14" /></g></g></svg>
