<?xml version="1.0" encoding="UTF-8" standalone="no"?>
<svg
   xmlns:dc="http://purl.org/dc/elements/1.1/"
   xmlns:cc="http://creativecommons.org/ns#"
   xmlns:rdf="http://www.w3.org/1999/02/22-rdf-syntax-ns#"
   xmlns:svg="http://www.w3.org/2000/svg"
   xmlns="http://www.w3.org/2000/svg"
   xmlns:sodipodi="http://sodipodi.sourceforge.net/DTD/sodipodi-0.dtd"
   xmlns:inkscape="http://www.inkscape.org/namespaces/inkscape"
   version="1.1"
   id="svg2"
   xml:space="preserve"
   width="74.666664"
   height="10.666667"
   viewBox="0 0 74.666664 10.666667"
   sodipodi:docname="pay_secure.eps"><metadata
     id="metadata8"><rdf:RDF><cc:Work
         rdf:about=""><dc:format>image/svg+xml</dc:format><dc:type
           rdf:resource="http://purl.org/dc/dcmitype/StillImage" /></cc:Work></rdf:RDF></metadata><defs
     id="defs6" /><sodipodi:namedview
     pagecolor="#ffffff"
     bordercolor="#666666"
     borderopacity="1"
     objecttolerance="10"
     gridtolerance="10"
     guidetolerance="10"
     inkscape:pageopacity="0"
     inkscape:pageshadow="2"
     inkscape:window-width="640"
     inkscape:window-height="480"
     id="namedview4" /><g
     id="g10"
     inkscape:groupmode="layer"
     inkscape:label="ink_ext_XXXXXX"
     transform="matrix(1.3333333,0,0,-1.3333333,0,10.666667)"><g
       id="g12"
       transform="scale(0.1)"><path
         d="m 122.918,58.9453 h 5.738 c 1.996,0 3.395,0.3125 4.164,0.9453 0.805,0.6641 1.192,1.75 1.192,3.2891 0,1.5039 -0.387,2.5586 -1.192,3.2187 -0.769,0.668 -2.066,0.9805 -3.918,0.9805 h -5.984 z m -3.43,-13.6484 v 25.164 h 9.274 c 1.508,0 2.625,-0.0703 3.429,-0.2109 0.77,-0.1406 1.469,-0.3828 2.102,-0.7344 1.016,-0.5586 1.82,-1.4023 2.344,-2.4883 0.558,-1.082 0.84,-2.375 0.84,-3.8476 0,-1.3984 -0.282,-2.625 -0.84,-3.707 -0.524,-1.0508 -1.328,-1.9297 -2.379,-2.5586 -0.598,-0.3477 -1.297,-0.6289 -2.137,-0.7657 -0.805,-0.1757 -2.133,-0.2461 -4.023,-0.2461 h -5.18 V 45.2969 h -3.43"
         style="fill:#333;fill-opacity:1;fill-rule:nonzero;stroke:none"
         id="path14" /><path
         d="m 143.637,55.7617 h 7.84 l -3.887,11.0938 z m -7.282,-10.4648 9.348,25.164 h 3.777 l 9.379,-25.164 h -3.711 l -2.656,7.5234 h -9.906 l -2.695,-7.5234 h -3.536"
         style="fill:#333;fill-opacity:1;fill-rule:nonzero;stroke:none"
         id="path16" /><path
         d="m 169.176,45.2969 h -3.43 V 55.375 l -9.344,15.0859 h 4.305 l 6.719,-11.8984 6.683,11.8984 h 4.024 L 169.176,55.6211 V 45.2969"
         style="fill:#333;fill-opacity:1;fill-rule:nonzero;stroke:none"
         id="path18" /><path
         d="m 190.105,45.2969 v 25.164 h 16.903 V 67.3086 H 193.535 V 59.75 h 11.758 v -3.0781 h -11.758 v -11.375 h -3.43"
         style="fill:#333;fill-opacity:1;fill-rule:nonzero;stroke:none"
         id="path20" /><path
         d="m 212.957,57.8633 c 0,-3.2227 0.734,-5.7422 2.238,-7.5625 1.473,-1.8203 3.535,-2.7305 6.16,-2.7305 2.625,0 4.692,0.9102 6.161,2.7305 1.472,1.8203 2.207,4.3398 2.207,7.5625 0,3.2148 -0.735,5.7344 -2.207,7.5586 -1.469,1.8203 -3.536,2.7304 -6.161,2.7304 -2.625,0 -4.687,-0.9101 -6.16,-2.7304 -1.504,-1.8242 -2.238,-4.3438 -2.238,-7.5586 z m -3.535,0 c 0,4.164 1.051,7.418 3.148,9.7265 2.137,2.3438 5.043,3.5352 8.785,3.5352 3.747,0 6.653,-1.1914 8.75,-3.5 2.102,-2.3437 3.153,-5.5977 3.153,-9.7617 0,-4.168 -1.051,-7.4219 -3.153,-9.7656 -2.097,-2.3438 -5.003,-3.5 -8.75,-3.5 -3.742,0 -6.648,1.1562 -8.785,3.5 -2.097,2.3437 -3.148,5.5976 -3.148,9.7656"
         style="fill:#333;fill-opacity:1;fill-rule:nonzero;stroke:none"
         id="path22" /><path
         d="m 240.922,67.5195 v -8.539 h 5.844 c 2.101,0 3.605,0.3515 4.48,1.0156 0.84,0.6992 1.293,1.8203 1.293,3.4297 0,1.5039 -0.418,2.5547 -1.223,3.1484 -0.839,0.6289 -2.343,0.9453 -4.55,0.9453 z m -3.359,2.9414 h 9.765 c 1.574,0 2.731,-0.0703 3.496,-0.2109 0.739,-0.1406 1.403,-0.3477 1.996,-0.6641 1.051,-0.5937 1.856,-1.3984 2.414,-2.414 0.563,-1.0508 0.84,-2.2774 0.84,-3.6758 0,-1.3633 -0.277,-2.5234 -0.871,-3.4648 -0.598,-0.9805 -1.437,-1.7149 -2.594,-2.2735 0.985,-0.2812 1.684,-0.7383 2.102,-1.4023 0.422,-0.6289 0.664,-1.75 0.769,-3.2891 l 0.282,-4.1289 c 0.07,-0.9102 0.176,-1.5781 0.351,-1.9961 0.172,-0.4531 0.453,-0.7695 0.805,-0.9453 v -0.6992 h -3.957 c -0.316,0.5234 -0.527,1.6445 -0.664,3.3594 v 0.1054 l -0.211,3.2891 c -0.106,1.6797 -0.457,2.7656 -1.086,3.293 -0.594,0.4843 -2.098,0.7343 -4.516,0.7343 h -5.531 V 45.2969 h -3.39 v 25.164"
         style="fill:#333;fill-opacity:1;fill-rule:nonzero;stroke:none"
         id="path24" /><path
         d="m 280.156,45.2969 h -3.429 V 55.375 l -9.348,15.0859 h 4.309 l 6.714,-11.8984 6.684,11.8984 h 4.027 L 280.156,55.6211 V 45.2969"
         style="fill:#333;fill-opacity:1;fill-rule:nonzero;stroke:none"
         id="path26" /><path
         d="m 293.332,57.8633 c 0,-3.2227 0.734,-5.7422 2.238,-7.5625 1.473,-1.8203 3.535,-2.7305 6.16,-2.7305 2.625,0 4.692,0.9102 6.161,2.7305 1.468,1.8203 2.203,4.3398 2.203,7.5625 0,3.2148 -0.735,5.7344 -2.203,7.5586 -1.469,1.8203 -3.536,2.7304 -6.161,2.7304 -2.625,0 -4.687,-0.9101 -6.16,-2.7304 -1.504,-1.8242 -2.238,-4.3438 -2.238,-7.5586 z m -3.535,0 c 0,4.164 1.047,7.418 3.148,9.7265 2.133,2.3438 5.039,3.5352 8.785,3.5352 3.743,0 6.649,-1.1914 8.75,-3.5 2.102,-2.3437 3.149,-5.5977 3.149,-9.7617 0,-4.168 -1.047,-7.4219 -3.149,-9.7656 -2.101,-2.3438 -5.007,-3.5 -8.75,-3.5 -3.746,0 -6.652,1.1562 -8.785,3.5 -2.101,2.3437 -3.148,5.5976 -3.148,9.7656"
         style="fill:#333;fill-opacity:1;fill-rule:nonzero;stroke:none"
         id="path28" /><path
         d="m 317.793,54.8516 v 15.6093 h 3.43 V 54.8164 c 0,-2.3476 0.527,-4.0937 1.578,-5.2148 1.015,-1.1563 2.656,-1.7149 4.828,-1.7149 2.168,0 3.781,0.5938 4.832,1.7149 1.082,1.1523 1.609,2.9023 1.609,5.2148 v 15.6445 h 3.43 V 54.8516 c 0,-3.3633 -0.875,-5.9141 -2.59,-7.6641 -1.75,-1.7148 -4.305,-2.5898 -7.664,-2.5898 -3.152,0 -5.496,0.8359 -7.07,2.5507 -1.578,1.7149 -2.383,4.2735 -2.383,7.7032"
         style="fill:#333;fill-opacity:1;fill-rule:nonzero;stroke:none"
         id="path30" /><path
         d="m 346.109,67.5195 v -8.539 h 5.844 c 2.102,0 3.606,0.3515 4.481,1.0156 0.839,0.6992 1.293,1.8203 1.293,3.4297 0,1.5039 -0.418,2.5547 -1.223,3.1484 -0.84,0.6289 -2.344,0.9453 -4.551,0.9453 z m -3.359,2.9414 h 9.766 c 1.574,0 2.73,-0.0703 3.496,-0.2109 0.738,-0.1406 1.402,-0.3477 1.996,-0.6641 1.051,-0.5937 1.855,-1.3984 2.418,-2.414 0.558,-1.0508 0.836,-2.2774 0.836,-3.6758 0,-1.3633 -0.278,-2.5234 -0.871,-3.4648 -0.598,-0.9805 -1.438,-1.7149 -2.59,-2.2735 0.98,-0.2812 1.679,-0.7383 2.097,-1.4023 0.422,-0.6289 0.665,-1.75 0.77,-3.2891 l 0.281,-4.1289 c 0.071,-0.9102 0.176,-1.5781 0.352,-1.9961 0.172,-0.4531 0.453,-0.7695 0.804,-0.9453 v -0.6992 h -3.957 c -0.316,0.5234 -0.523,1.6445 -0.664,3.3594 v 0.1054 l -0.211,3.2891 c -0.101,1.6797 -0.453,2.7656 -1.085,3.293 -0.594,0.4843 -2.098,0.7343 -4.516,0.7343 h -5.527 V 45.2969 h -3.395 v 25.164"
         style="fill:#333;fill-opacity:1;fill-rule:nonzero;stroke:none"
         id="path32" /><path
         d="m 378.027,57.8633 c 0,-3.2227 0.735,-5.7422 2.239,-7.5625 1.472,-1.8203 3.535,-2.7305 6.16,-2.7305 2.625,0 4.691,0.9102 6.16,2.7305 1.473,1.8203 2.207,4.3398 2.207,7.5625 0,3.2148 -0.734,5.7344 -2.207,7.5586 -1.469,1.8203 -3.535,2.7304 -6.16,2.7304 -2.625,0 -4.688,-0.9101 -6.16,-2.7304 -1.504,-1.8242 -2.239,-4.3438 -2.239,-7.5586 z m -3.535,0 c 0,4.164 1.051,7.418 3.149,9.7265 2.136,2.3438 5.043,3.5352 8.785,3.5352 3.746,0 6.652,-1.1914 8.75,-3.5 2.101,-2.3437 3.152,-5.5977 3.152,-9.7617 0,-4.168 -1.051,-7.4219 -3.152,-9.7656 -2.098,-2.3438 -5.004,-3.5 -8.75,-3.5 -3.742,0 -6.649,1.1562 -8.785,3.5 -2.098,2.3437 -3.149,5.5976 -3.149,9.7656"
         style="fill:#333;fill-opacity:1;fill-rule:nonzero;stroke:none"
         id="path34" /><path
         d="m 405.992,67.5195 v -8.539 h 5.844 c 2.102,0 3.605,0.3515 4.48,1.0156 0.84,0.6992 1.293,1.8203 1.293,3.4297 0,1.5039 -0.418,2.5547 -1.222,3.1484 -0.84,0.6289 -2.344,0.9453 -4.551,0.9453 z m -3.359,2.9414 h 9.765 c 1.571,0 2.731,-0.0703 3.497,-0.2109 0.738,-0.1406 1.402,-0.3477 1.996,-0.6641 1.05,-0.5937 1.855,-1.3984 2.414,-2.414 0.562,-1.0508 0.84,-2.2774 0.84,-3.6758 0,-1.3633 -0.278,-2.5234 -0.872,-3.4648 -0.597,-0.9805 -1.437,-1.7149 -2.593,-2.2735 0.98,-0.2812 1.683,-0.7383 2.101,-1.4023 0.418,-0.6289 0.664,-1.75 0.77,-3.2891 l 0.281,-4.1289 c 0.07,-0.9102 0.176,-1.5781 0.352,-1.9961 0.171,-0.4531 0.453,-0.7695 0.804,-0.9453 v -0.6992 h -3.957 c -0.316,0.5234 -0.527,1.6445 -0.664,3.3594 v 0.1054 l -0.211,3.2891 c -0.105,1.6797 -0.457,2.7656 -1.086,3.293 -0.593,0.4843 -2.101,0.7343 -4.515,0.7343 h -5.532 V 45.2969 h -3.39 v 25.164"
         style="fill:#333;fill-opacity:1;fill-rule:nonzero;stroke:none"
         id="path36" /><path
         d="m 435.18,67.5547 h -5.879 V 48.3789 h 5.879 c 2.519,0 4.41,0.8047 5.707,2.4492 1.293,1.6407 1.922,4.0586 1.922,7.2422 0,3.0781 -0.664,5.4258 -1.961,7.0352 -1.328,1.6445 -3.219,2.4492 -5.668,2.4492 z m -9.309,-22.2578 v 25.164 h 9.59 c 3.496,0 6.191,-1.0507 8.051,-3.1523 1.886,-2.0977 2.797,-5.1055 2.797,-9.0625 0,-4.0938 -0.946,-7.2813 -2.903,-9.5547 -1.929,-2.2773 -4.621,-3.3945 -8.09,-3.3945 h -9.445"
         style="fill:#333;fill-opacity:1;fill-rule:nonzero;stroke:none"
         id="path38" /><path
         d="m 450.613,45.2969 v 25.164 h 17.957 v -3.1132 h -14.562 v -7.5274 h 13.441 v -2.9375 h -13.441 v -8.4375 h 14.84 v -3.1484 h -18.235"
         style="fill:#333;fill-opacity:1;fill-rule:nonzero;stroke:none"
         id="path40" /><path
         d="m 476.344,67.5195 v -8.539 h 5.844 c 2.101,0 3.605,0.3515 4.48,1.0156 0.84,0.6992 1.297,1.8203 1.297,3.4297 0,1.5039 -0.422,2.5547 -1.227,3.1484 -0.84,0.6289 -2.343,0.9453 -4.55,0.9453 z m -3.36,2.9414 h 9.766 c 1.574,0 2.73,-0.0703 3.5,-0.2109 0.734,-0.1406 1.398,-0.3477 1.992,-0.6641 1.051,-0.5937 1.856,-1.3984 2.418,-2.414 0.559,-1.0508 0.84,-2.2774 0.84,-3.6758 0,-1.3633 -0.281,-2.5234 -0.875,-3.4648 -0.594,-0.9805 -1.437,-1.7149 -2.59,-2.2735 0.981,-0.2812 1.68,-0.7383 2.098,-1.4023 0.422,-0.6289 0.664,-1.75 0.769,-3.2891 l 0.282,-4.1289 c 0.07,-0.9102 0.175,-1.5781 0.351,-1.9961 0.172,-0.4531 0.453,-0.7695 0.805,-0.9453 v -0.6992 h -3.957 c -0.317,0.5234 -0.524,1.6445 -0.664,3.3594 v 0.1054 l -0.211,3.2891 c -0.102,1.6797 -0.453,2.7656 -1.082,3.293 -0.598,0.4843 -2.102,0.7343 -4.516,0.7343 h -5.531 V 45.2969 h -3.395 v 25.164"
         style="fill:#333;fill-opacity:1;fill-rule:nonzero;stroke:none"
         id="path42" /><path
         d="m 119.348,12.8984 v 15.6094 h 3.429 V 12.8633 c 0,-2.3438 0.528,-4.09377 1.575,-5.21486 1.015,-1.15625 2.66,-1.71485 4.832,-1.71485 2.168,0 3.777,0.59766 4.828,1.71485 1.082,1.15234 1.609,2.90236 1.609,5.21486 v 15.6445 h 3.43 V 12.8984 c 0,-3.36324 -0.875,-5.91402 -2.59,-7.66402 -1.75,-1.71485 -4.305,-2.58985 -7.664,-2.58985 -3.149,0 -5.492,0.83594 -7.07,2.55078 -1.575,1.71485 -2.379,4.27344 -2.379,7.70309"
         style="fill:#333;fill-opacity:1;fill-rule:nonzero;stroke:none"
         id="path44" /><path
         d="m 143.145,11.6367 h 3.293 c 0.035,-1.82029 0.628,-3.28904 1.82,-4.37498 1.187,-1.08203 2.762,-1.60938 4.722,-1.60938 1.961,0 3.5,0.42188 4.622,1.22657 1.121,0.83984 1.679,1.92187 1.679,3.35939 0,1.9219 -2.101,3.3945 -6.336,4.375 -0.242,0.0703 -0.418,0.1055 -0.558,0.1406 -3.43,0.8047 -5.707,1.7149 -6.789,2.7305 -1.086,0.9804 -1.649,2.3789 -1.649,4.2344 0,2.2382 0.805,4.0585 2.453,5.3906 1.645,1.3633 3.813,2.0625 6.543,2.0625 2.801,0 4.973,-0.7344 6.582,-2.1328 1.575,-1.4336 2.379,-3.3985 2.414,-5.918 h -3.257 c -0.102,1.6836 -0.7,2.9766 -1.715,3.8867 -1.047,0.875 -2.449,1.3281 -4.235,1.3281 -1.675,0 -3.007,-0.3476 -4.023,-1.082 -1.016,-0.7344 -1.504,-1.7148 -1.504,-2.9414 0,-1.957 2.063,-3.3945 6.227,-4.375 0.597,-0.1406 1.086,-0.2461 1.402,-0.3125 l 0.387,-0.1055 c 2.695,-0.6328 4.515,-1.332 5.386,-2.1015 0.668,-0.5625 1.192,-1.2617 1.543,-2.0664 0.348,-0.8047 0.524,-1.7149 0.524,-2.7305 0,-2.41407 -0.875,-4.3711 -2.59,-5.8086 -1.75,-1.43359 -4.094,-2.13672 -7.07,-2.13672 -3.043,0 -5.426,0.77344 -7.141,2.3125 -1.68,1.54297 -2.586,3.74219 -2.73,6.64842"
         style="fill:#333;fill-opacity:1;fill-rule:nonzero;stroke:none"
         id="path46" /><path
         d="M 166.98,3.34375 V 28.5078 h 3.43 V 3.34375 h -3.43"
         style="fill:#333;fill-opacity:1;fill-rule:nonzero;stroke:none"
         id="path48" /><path
         d="M 175.863,3.34375 V 28.5078 h 3.746 l 11.758,-18.2695 c 0.281,-0.42189 0.492,-0.76955 0.703,-1.12111 0.176,-0.38672 0.352,-0.69922 0.453,-1.01563 V 28.5078 h 3.254 V 3.34375 H 192.07 L 180.063,21.8945 c -0.176,0.2774 -0.348,0.5586 -0.524,0.875 -0.141,0.3125 -0.281,0.6289 -0.418,0.9766 V 3.34375 h -3.258"
         style="fill:#333;fill-opacity:1;fill-rule:nonzero;stroke:none"
         id="path50" /><path
         d="m 219.969,6.70313 c -1.016,-1.36329 -2.242,-2.37891 -3.641,-3.04688 -1.433,-0.66016 -3.043,-1.01172 -4.832,-1.01172 -3.391,0 -6.16,1.22266 -8.293,3.63672 -2.101,2.44922 -3.148,5.63675 -3.148,9.58985 0,4.0977 1.086,7.3516 3.289,9.7344 2.168,2.375 5.144,3.5664 8.89,3.5664 2.868,0 5.215,-0.7344 7.032,-2.168 1.789,-1.4726 2.906,-3.5 3.257,-6.0898 h -3.324 c -0.316,1.6797 -1.086,3.0078 -2.277,3.9179 -1.223,0.9453 -2.801,1.4024 -4.688,1.4024 -2.73,0 -4.867,-0.9102 -6.371,-2.6953 -1.504,-1.7852 -2.273,-4.2696 -2.273,-7.5235 0,-3.2226 0.734,-5.7422 2.238,-7.56247 1.504,-1.78516 3.535,-2.69532 6.16,-2.69532 2.379,0 4.27,0.73438 5.672,2.16797 1.434,1.4375 2.133,3.39842 2.133,5.84762 v 0.3164 h -7.875 v 2.836 h 11.027 V 3.34375 h -2.242 l -0.734,3.35938"
         style="fill:#333;fill-opacity:1;fill-rule:nonzero;stroke:none"
         id="path52" /><path
         d="m 236.316,11.6367 h 3.293 c 0.036,-1.82029 0.629,-3.28904 1.821,-4.37498 1.191,-1.08203 2.761,-1.60938 4.722,-1.60938 1.961,0 3.5,0.42188 4.621,1.22657 1.122,0.83984 1.68,1.92187 1.68,3.35939 0,1.9219 -2.101,3.3945 -6.336,4.375 -0.242,0.0703 -0.418,0.1055 -0.558,0.1406 -3.43,0.8047 -5.707,1.7149 -6.789,2.7305 -1.086,0.9804 -1.649,2.3789 -1.649,4.2344 0,2.2382 0.805,4.0585 2.453,5.3906 1.645,1.3633 3.813,2.0625 6.543,2.0625 2.801,0 4.973,-0.7344 6.582,-2.1328 1.574,-1.4336 2.379,-3.3985 2.414,-5.918 h -3.258 c -0.101,1.6836 -0.699,2.9766 -1.714,3.8867 -1.047,0.875 -2.45,1.3281 -4.235,1.3281 -1.676,0 -3.008,-0.3476 -4.023,-1.082 -1.016,-0.7344 -1.504,-1.7148 -1.504,-2.9414 0,-1.957 2.066,-3.3945 6.226,-4.375 0.598,-0.1406 1.086,-0.2461 1.403,-0.3125 l 0.387,-0.1055 c 2.695,-0.6328 4.515,-1.332 5.386,-2.1015 0.668,-0.5625 1.192,-1.2617 1.543,-2.0664 0.348,-0.8047 0.524,-1.7149 0.524,-2.7305 0,-2.41407 -0.875,-4.3711 -2.59,-5.8086 -1.75,-1.43359 -4.094,-2.13672 -7.07,-2.13672 -3.043,0 -5.426,0.77344 -7.141,2.3125 -1.676,1.54297 -2.586,3.74219 -2.731,6.64842"
         style="fill:#333;fill-opacity:1;fill-rule:nonzero;stroke:none"
         id="path54" /><path
         d="M 260.082,3.34375 V 28.5078 h 17.957 v -3.1133 h -14.562 v -7.5273 h 13.441 V 14.9297 H 263.477 V 6.49219 H 278.32 V 3.34375 h -18.238"
         style="fill:#333;fill-opacity:1;fill-rule:nonzero;stroke:none"
         id="path56" /><path
         d="m 300.059,12.6875 h 3.324 c -0.141,-3.04687 -1.192,-5.49609 -3.149,-7.31641 -1.925,-1.8164 -4.445,-2.72656 -7.527,-2.72656 -3.535,0 -6.297,1.1875 -8.328,3.60547 -1.996,2.44922 -3.012,5.7734 -3.012,10.043 0,3.957 1.051,7.0703 3.153,9.3789 2.097,2.3476 4.968,3.5 8.539,3.5 2.836,0 5.179,-0.7344 7,-2.2031 1.82,-1.4688 2.871,-3.4649 3.148,-6.0196 h -3.359 c -0.317,1.6446 -1.086,2.9414 -2.274,3.8477 -1.191,0.875 -2.73,1.332 -4.656,1.332 -2.555,0 -4.512,-0.9101 -5.949,-2.6953 -1.399,-1.7852 -2.098,-4.3086 -2.098,-7.5625 0,-3.0781 0.734,-5.5273 2.203,-7.41797 1.469,-1.85547 3.395,-2.76563 5.809,-2.76563 2.066,0 3.746,0.62891 5.074,1.92578 1.297,1.26172 1.996,2.97652 2.102,5.07422"
         style="fill:#333;fill-opacity:1;fill-rule:nonzero;stroke:none"
         id="path58" /><path
         d="m 307.262,12.8984 v 15.6094 h 3.429 V 12.8633 c 0,-2.3438 0.528,-4.09377 1.575,-5.21486 1.015,-1.15625 2.66,-1.71485 4.832,-1.71485 2.168,0 3.777,0.59766 4.828,1.71485 1.082,1.15234 1.609,2.90236 1.609,5.21486 v 15.6445 h 3.43 V 12.8984 c 0,-3.36324 -0.875,-5.91402 -2.59,-7.66402 -1.75,-1.71485 -4.305,-2.58985 -7.664,-2.58985 -3.148,0 -5.492,0.83594 -7.07,2.55078 -1.575,1.71485 -2.379,4.27344 -2.379,7.70309"
         style="fill:#333;fill-opacity:1;fill-rule:nonzero;stroke:none"
         id="path60" /><path
         d="m 335.574,25.5664 v -8.5391 h 5.848 c 2.098,0 3.605,0.3516 4.476,1.0157 0.844,0.6992 1.297,1.8203 1.297,3.4297 0,1.5078 -0.422,2.5546 -1.226,3.1484 -0.836,0.6328 -2.344,0.9453 -4.547,0.9453 z m -3.359,2.9414 h 9.765 c 1.575,0 2.731,-0.0703 3.5,-0.2109 0.739,-0.1406 1.399,-0.3477 1.997,-0.6641 1.046,-0.5937 1.851,-1.3984 2.414,-2.414 0.562,-1.0508 0.839,-2.2774 0.839,-3.6758 0,-1.3633 -0.277,-2.5235 -0.875,-3.4649 -0.593,-0.9804 -1.437,-1.7148 -2.589,-2.2734 0.98,-0.2813 1.679,-0.7383 2.101,-1.4024 0.418,-0.6289 0.664,-1.75 0.766,-3.289 l 0.281,-4.12892 c 0.07,-0.91016 0.176,-1.57813 0.352,-1.9961 0.175,-0.45312 0.453,-0.76953 0.804,-0.94531 V 3.34375 h -3.957 c -0.312,0.52344 -0.523,1.64453 -0.664,3.35938 v 0.10546 l -0.207,3.28911 c -0.105,1.6796 -0.457,2.7656 -1.086,3.2929 -0.597,0.4844 -2.101,0.7344 -4.515,0.7344 h -5.532 V 3.34375 h -3.394 V 28.5078"
         style="fill:#333;fill-opacity:1;fill-rule:nonzero;stroke:none"
         id="path62" /><path
         d="M 355.453,3.34375 V 28.5078 h 17.957 v -3.1133 h -14.562 v -7.5273 h 13.441 V 14.9297 H 358.848 V 6.49219 h 14.843 V 3.34375 h -18.238"
         style="fill:#333;fill-opacity:1;fill-rule:nonzero;stroke:none"
         id="path64" /><path
         d="M 390.566,24.7969 V 3.34375 h -3.152 V 28.5078 h 4.899 l 6.23,-19.24999 c 0.176,-0.55859 0.316,-0.98047 0.387,-1.26172 0.105,-0.3125 0.175,-0.59375 0.211,-0.80468 0.105,0.42187 0.175,0.80468 0.281,1.12109 0.101,0.35156 0.172,0.63281 0.277,0.94531 l 6.477,19.24999 h 4.898 V 3.34375 H 407.75 V 24.7969 c -0.07,-0.3828 -0.176,-0.7344 -0.277,-1.1172 -0.106,-0.3516 -0.215,-0.7383 -0.321,-1.0859 L 400.68,3.34375 h -3.223 l -6.332,19.25005 c -0.105,0.3125 -0.211,0.664 -0.316,1.0156 -0.067,0.3828 -0.172,0.7695 -0.243,1.1875"
         style="fill:#333;fill-opacity:1;fill-rule:nonzero;stroke:none"
         id="path66" /><path
         d="M 416.465,3.34375 V 28.5078 h 17.953 v -3.1133 h -14.559 v -7.5273 h 13.442 V 14.9297 H 419.859 V 6.49219 h 14.84 V 3.34375 h -18.234"
         style="fill:#333;fill-opacity:1;fill-rule:nonzero;stroke:none"
         id="path68" /><path
         d="M 444.402,3.34375 V 25.4609 h -7.949 v 3.0469 h 19.324 v -3.0469 h -7.945 V 3.34375 h -3.43"
         style="fill:#333;fill-opacity:1;fill-rule:nonzero;stroke:none"
         id="path70" /><path
         d="M 458.816,3.34375 V 28.5078 h 3.43 V 18.1836 h 13.051 v 10.3242 h 3.43 V 3.34375 h -3.43 V 15.1367 H 462.246 V 3.34375 h -3.43"
         style="fill:#333;fill-opacity:1;fill-rule:nonzero;stroke:none"
         id="path72" /><path
         d="m 486.574,15.9102 c 0,-3.2227 0.735,-5.7422 2.239,-7.56254 1.472,-1.81641 3.535,-2.72657 6.16,-2.72657 2.625,0 4.691,0.91016 6.16,2.72657 1.472,1.82034 2.207,4.33984 2.207,7.56254 0,3.2148 -0.735,5.7382 -2.207,7.5586 -1.469,1.8203 -3.535,2.7304 -6.16,2.7304 -2.625,0 -4.688,-0.9101 -6.16,-2.7304 -1.504,-1.8204 -2.239,-4.3438 -2.239,-7.5586 z m -3.535,0 c 0,4.164 1.051,7.4179 3.149,9.7265 2.136,2.3438 5.042,3.5352 8.785,3.5352 3.746,0 6.652,-1.1914 8.75,-3.5 2.101,-2.3438 3.152,-5.5977 3.152,-9.7617 0,-4.168 -1.051,-7.42192 -3.152,-9.76567 -2.098,-2.34375 -5.004,-3.5 -8.75,-3.5 -3.743,0 -6.649,1.15625 -8.785,3.5 -2.098,2.34375 -3.149,5.59767 -3.149,9.76567"
         style="fill:#333;fill-opacity:1;fill-rule:nonzero;stroke:none"
         id="path74" /><path
         d="m 520.488,25.6055 h -5.879 V 6.42578 h 5.879 c 2.52,0 4.41,0.80469 5.707,2.44922 1.293,1.6445 1.922,4.0586 1.922,7.2422 0,3.0781 -0.664,5.4258 -1.961,7.0351 -1.328,1.6446 -3.218,2.4532 -5.668,2.4532 z M 511.18,3.34375 V 28.5078 h 9.59 c 3.496,0 6.191,-1.0508 8.05,-3.1523 1.887,-2.0977 2.797,-5.1055 2.797,-9.0625 0,-4.0938 -0.945,-7.28128 -2.902,-9.55472 -1.93,-2.27734 -4.621,-3.39453 -8.086,-3.39453 h -9.449"
         style="fill:#333;fill-opacity:1;fill-rule:nonzero;stroke:none"
         id="path76" /><path
         d="m 534.766,11.6367 h 3.293 c 0.031,-1.82029 0.629,-3.28904 1.82,-4.37498 1.187,-1.08203 2.762,-1.60938 4.723,-1.60938 1.961,0 3.5,0.42188 4.621,1.22657 1.121,0.83984 1.679,1.92187 1.679,3.35939 0,1.9219 -2.101,3.3945 -6.336,4.375 -0.246,0.0703 -0.421,0.1055 -0.558,0.1406 -3.43,0.8047 -5.707,1.7149 -6.789,2.7305 -1.086,0.9804 -1.649,2.3789 -1.649,4.2344 0,2.2382 0.805,4.0585 2.453,5.3906 1.645,1.3633 3.813,2.0625 6.543,2.0625 2.801,0 4.973,-0.7344 6.582,-2.1328 1.575,-1.4336 2.379,-3.3985 2.415,-5.918 h -3.258 c -0.106,1.6836 -0.7,2.9766 -1.715,3.8867 -1.047,0.875 -2.449,1.3281 -4.235,1.3281 -1.675,0 -3.007,-0.3476 -4.023,-1.082 -1.016,-0.7344 -1.504,-1.7148 -1.504,-2.9414 0,-1.957 2.063,-3.3945 6.227,-4.375 0.597,-0.1406 1.086,-0.2461 1.402,-0.3125 l 0.387,-0.1055 c 2.695,-0.6328 4.511,-1.332 5.386,-2.1015 0.668,-0.5625 1.192,-1.2617 1.543,-2.0664 0.348,-0.8047 0.524,-1.7149 0.524,-2.7305 0,-2.41407 -0.875,-4.3711 -2.59,-5.8086 -1.75,-1.43359 -4.094,-2.13672 -7.07,-2.13672 -3.043,0 -5.426,0.77344 -7.141,2.3125 -1.68,1.54297 -2.59,3.74219 -2.73,6.64842"
         style="fill:#333;fill-opacity:1;fill-rule:nonzero;stroke:none"
         id="path78" /><path
         d="m 73.4375,65.0469 c 0,3.3554 -2.7187,6.0781 -6.0742,6.0781 H 13.8867 c -3.3554,0 -6.07811,-2.7227 -6.07811,-6.0781 V 59.7266 H 73.4375 Z M 64.4492,30.418 c 0,-0.0039 0.0039,-0.0078 0.0078,-0.0078 0.7735,0.5312 2.125,1.5586 3.4532,3.0312 1.3984,1.5508 2.4375,3.2031 3.1289,4.9453 h -6.5899 z m -7.4804,11.6797 c 0.1328,-1.2735 0.4335,-2.5118 0.9062,-3.711 h 6.5742 v 7.9102 c -1.457,-1.4063 -4.1875,-3.6055 -7.4804,-4.1992 z m 18.0859,4.6914 c -0.5508,0.0859 -1.0899,0.2187 -1.6172,0.3906 v 6.0937 H 7.80859 V 34.8359 c 0,-3.3554 2.72271,-6.0781 6.07811,-6.0781 h 44.5039 c 1.75,-1.75 3.4102,-2.9609 4.3242,-3.5781 0.5196,-0.3477 1.125,-0.5313 1.7461,-0.5313 0.625,0 1.2266,0.1836 1.7461,0.5313 1.0938,0.7344 3.2344,2.3086 5.3282,4.6289 3.6757,4.0742 5.7461,8.6602 6.164,13.6289 0.1367,1.6328 -1.0273,3.1055 -2.6445,3.3516 z m -44.125,-9.8008 c 0,-0.4492 -0.3633,-0.8164 -0.8203,-0.8164 H 17.4648 c -0.457,0 -0.8242,0.3672 -0.8242,0.8164 v 2.5 c 0,0.4531 0.3672,0.8203 0.8242,0.8203 h 12.6446 c 0.457,0 0.8203,-0.3672 0.8203,-0.8203 z m 38.0234,-4.8477 c -1.7265,-1.9179 -3.4883,-3.25 -4.4922,-3.9414 -1.0039,0.6914 -2.7617,2.0235 -4.4921,3.9414 -3.0743,3.4063 -4.8399,7.1953 -5.25,11.2657 4.2929,0.7734 7.8476,3.6484 9.7421,5.4726 1.8946,-1.8242 5.4532,-4.6992 9.7422,-5.4726 -0.4101,-4.0704 -2.1758,-7.8594 -5.25,-11.2657"
         style="fill:#333;fill-opacity:1;fill-rule:evenodd;stroke:none"
         id="path80" /><path
         d="M 97.9258,71.125 V 3.34375 H 95.0039 V 71.125 h 2.9219"
         style="fill:#333;fill-opacity:1;fill-rule:nonzero;stroke:none"
         id="path82" /></g></g></svg>
