<?xml version="1.0" encoding="UTF-8"?>
<!DOCTYPE svg PUBLIC "-//W3C//DTD SVG 1.1//EN" "http://www.w3.org/Graphics/SVG/1.1/DTD/svg11.dtd">
<!-- Creator: CorelDRAW X6 -->
<svg xmlns="http://www.w3.org/2000/svg" xml:space="preserve" version="1.1" style="shape-rendering:geometricPrecision; text-rendering:geometricPrecision; image-rendering:optimizeQuality; fill-rule:evenodd; clip-rule:evenodd"
viewBox="0 0 5966 7707"
 xmlns:xlink="http://www.w3.org/1999/xlink">
 <defs>
  <style type="text/css">
   <![CDATA[
    .fil0 {fill:#333333}
   ]]>
  </style>
 </defs>
 <g id="Слой_x0020_1">
  <metadata id="CorelCorpID_0Corel-Layer"/>
  <path class="fil0" d="M5966 2536c0,1736 -965,3033 -2388,3033 -478,-1 -928,-258 -1082,-552 0,0 -257,1020 -312,1217 -191,695 -755,1391 -798,1449 -31,39 -99,27 -106,-26 -12,-88 -155,-966 13,-1683 85,-359 569,-2413 569,-2413 0,0 -141,-281 -141,-699 0,-656 381,-1146 854,-1146 403,0 597,302 597,664 0,405 -258,1010 -391,1572 -111,468 236,852 699,852 839,0 1403,-1078 1403,-2354 0,-970 -653,-1696 -1842,-1696 -1342,0 -2179,1001 -2179,2120 0,385 113,657 292,868 81,97 93,136 64,247 -22,82 -70,278 -91,355 -29,112 -120,153 -221,111 -618,-253 -907,-930 -907,-1691 0,-1258 1061,-2765 3164,-2765 1690,0 2802,1223 2802,2536z"/>
 </g>
</svg>
