<?xml version="1.0" encoding="UTF-8"?>
<!DOCTYPE svg PUBLIC "-//W3C//DTD SVG 1.1//EN" "http://www.w3.org/Graphics/SVG/1.1/DTD/svg11.dtd">
<!-- Creator: CorelDRAW -->
<svg xmlns="http://www.w3.org/2000/svg" xml:space="preserve" version="1.1" style="shape-rendering:geometricPrecision; text-rendering:geometricPrecision; image-rendering:optimizeQuality; fill-rule:evenodd; clip-rule:evenodd"
viewBox="0 0 1442.63 1388.02"
 xmlns:xlink="http://www.w3.org/1999/xlink"
 xmlns:xodm="http://www.corel.com/coreldraw/odm/2003">
 <g id="layer_x0020_1">
  <metadata id="CorelCorpID_0Corel-Layer"/>
  <path class="fil0" d="M310.59 1388.02c-6.53,0 -12.76,-2.42 -17.51,-7.05l-285.99 -286.75c-9.45,-9.35 -9.45,-24.8 0,-34.37l285.99 -287.1c6.99,-6.87 17.51,-9.11 26.67,-5.22 9.18,3.52 15.04,12.63 15.04,22.56l0 177.54 783.7 0c21.69,0 39.37,-17.68 39.37,-39.27l0 -199.81c0,-6.52 2.54,-12.68 7,-17.33l191.36 -192.12c6.94,-6.94 17.63,-9.16 26.67,-5.34 9.23,3.88 15.16,12.92 15.16,22.68l0 434.36c0,155.14 -81.99,237.08 -237.01,237.08l-826.2 0 0 155.86c0,9.82 -5.88,18.69 -15.04,22.33 -2.93,1.23 -6.28,1.94 -9.23,1.94l0.02 0.01zm-241.77 -511.55c-3.23,0 -6.36,-0.71 -9.36,-1.94 -9.16,-3.69 -15.16,-12.51 -15.16,-22.5l0 -434.31c0,-155.2 81.81,-237.02 237.01,-237.02l826.54 0 0 -156.27c0,-9.7 5.94,-18.64 15.05,-22.63 9.28,-3.59 19.69,-1.82 26.73,5.41l285.87 286.51c9.51,9.51 9.51,25.09 0,34.54l-285.87 286.92c-6.99,7.1 -17.4,9.29 -26.69,5.35 -9.11,-3.7 -15.04,-12.69 -15.04,-22.68l0 -177.13 -784.23 0c-21.57,0 -39.02,17.63 -39.02,39.32l0 199.88c0,6.47 -2.54,12.53 -7.29,17.4l-191.49 191.88c-4.53,4.7 -10.63,7.29 -17.09,7.29l0.04 -0.02z"/>
 </g>
</svg>
