<?xml version="1.0" encoding="UTF-8"?>
<!DOCTYPE svg PUBLIC "-//W3C//DTD SVG 1.1//EN" "http://www.w3.org/Graphics/SVG/1.1/DTD/svg11.dtd">
<!-- Creator: CorelDRAW -->
<svg xmlns="http://www.w3.org/2000/svg" xml:space="preserve" version="1.1" style="shape-rendering:geometricPrecision; text-rendering:geometricPrecision; image-rendering:optimizeQuality; fill-rule:evenodd; clip-rule:evenodd"
viewBox="0 0 403.49 329.38"
 xmlns:xlink="http://www.w3.org/1999/xlink"
 xmlns:xodm="http://www.corel.com/coreldraw/odm/2003">
 <g id="Слой_x0020_1">
  <metadata id="CorelCorpID_0Corel-Layer"/>
  <path class="fil0" d="M43.22 0c-23.83,0 -43.22,19.5 -43.22,43.46l0 175.2c0,23.97 19.39,43.47 43.22,43.47l200.45 0c2.1,0 4.13,0.74 5.74,2.11l76.84 65.14 0 -58.29c0,-4.95 3.99,-8.96 8.91,-8.96l25.11 0c23.83,0 43.22,-19.5 43.22,-43.46l0 -175.21c0,-23.96 -19.39,-43.46 -43.22,-43.46l-317.05 0zm302.07 82.44l-287.09 0c-4.92,0 -8.91,-4.02 -8.91,-8.96 0,-4.95 3.99,-8.97 8.91,-8.97l287.09 0c4.92,0 8.91,4.02 8.91,8.97 0,4.94 -3.99,8.96 -8.91,8.96zm0 114.77l-287.09 0c-4.92,0 -8.91,-4.01 -8.91,-8.96 0,-4.95 3.99,-8.96 8.91,-8.96l287.09 0c4.92,0 8.91,4.01 8.91,8.96 0,4.95 -3.99,8.96 -8.91,8.96zm0 -57.38l-287.09 0c-4.92,0 -8.91,-4.02 -8.91,-8.97 0,-4.95 3.99,-8.96 8.91,-8.96l287.09 0c4.92,0 8.91,4.01 8.91,8.96 0,4.95 -3.99,8.97 -8.91,8.97z"/>
 </g>
</svg>
