<?xml version="1.0" encoding="UTF-8" standalone="no"?>
<svg
   xmlns:dc="http://purl.org/dc/elements/1.1/"
   xmlns:cc="http://creativecommons.org/ns#"
   xmlns:rdf="http://www.w3.org/1999/02/22-rdf-syntax-ns#"
   xmlns:svg="http://www.w3.org/2000/svg"
   xmlns="http://www.w3.org/2000/svg"
   xmlns:sodipodi="http://sodipodi.sourceforge.net/DTD/sodipodi-0.dtd"
   xmlns:inkscape="http://www.inkscape.org/namespaces/inkscape"
   version="1.1"
   id="svg2"
   xml:space="preserve"
   width="16"
   height="16"
   viewBox="0 0 16 16"
   sodipodi:docname="scanning.eps"><metadata
     id="metadata8"><rdf:RDF><cc:Work
         rdf:about=""><dc:format>image/svg+xml</dc:format><dc:type
           rdf:resource="http://purl.org/dc/dcmitype/StillImage" /></cc:Work></rdf:RDF></metadata><defs
     id="defs6" /><sodipodi:namedview
     pagecolor="#ffffff"
     bordercolor="#666666"
     borderopacity="1"
     objecttolerance="10"
     gridtolerance="10"
     guidetolerance="10"
     inkscape:pageopacity="0"
     inkscape:pageshadow="2"
     inkscape:window-width="640"
     inkscape:window-height="480"
     id="namedview4" /><g
     id="g10"
     inkscape:groupmode="layer"
     inkscape:label="ink_ext_XXXXXX"
     transform="matrix(1.3333333,0,0,-1.3333333,0,16)"><g
       id="g12"
       transform="scale(0.1)"><path
         d="m 69.2148,29.3594 c 0,14.7773 11.9844,26.7617 26.7618,26.7617 3.1132,0 5.1254,-0.3711 7.2384,-0.9961 1.422,-0.6016 1.965,0.5859 2.113,1.1367 0.965,3.6133 1.508,7.2969 1.508,11.0078 0,0.2461 -0.141,31.836 -0.141,32.2227 0,3.1168 -1.781,3.1098 -2.582,3.1058 -5.7185,-0.028 -11.5466,-0.028 -17.6755,1.738 -12.7383,3.672 -24.0625,13.652 -28.3672,13.652 -4.1719,0 -12.582,-9.98 -25.3203,-13.652 -7.1836,-2.07 -14.0703,-1.688 -20.5117,-1.387 -0.7578,0.035 -1.9649,0.235 -2.34767,-2.39 C 9.79297,99.8984 9.30469,67.625 9.30469,67.2695 9.30469,35.7383 48.3086,6.12109 58.0664,6.12109 c 3.125,0 8.1563,2.51172 14.9297,7.55081 0.8984,0.7773 0.4141,1.2969 0.1484,1.7304 -2.4882,4.0625 -3.9297,8.8399 -3.9297,13.9571 z M 96.1484,15.7109 c -0.9023,-0.9687 -2.5117,-1.1211 -3.5781,-0.332 L 75.6211,27.9102 c -1.0625,0.789 -1.2813,2.2968 -0.4883,3.3554 l 2.1758,2.8907 c 0.7969,1.0546 2.3242,1.2812 3.3945,0.496 l 10.8672,-7.9765 c 1.0703,-0.7813 2.6797,-0.6289 3.5781,0.3437 l 15.3396,16.0547 c 0.903,0.9727 2.434,1.0313 3.403,0.125 l 2.648,-2.4609 c 0.969,-0.9024 1.024,-2.4375 0.125,-3.4102 L 96.1484,15.7109"
         style="fill:#00ffff;fill-opacity:1;fill-rule:evenodd;stroke:none"
         id="path14" /></g></g></svg>
