<?xml version="1.0" encoding="UTF-8" standalone="no"?>
<svg
   xmlns:dc="http://purl.org/dc/elements/1.1/"
   xmlns:cc="http://creativecommons.org/ns#"
   xmlns:rdf="http://www.w3.org/1999/02/22-rdf-syntax-ns#"
   xmlns:svg="http://www.w3.org/2000/svg"
   xmlns="http://www.w3.org/2000/svg"
   xmlns:sodipodi="http://sodipodi.sourceforge.net/DTD/sodipodi-0.dtd"
   xmlns:inkscape="http://www.inkscape.org/namespaces/inkscape"
   version="1.1"
   id="svg2"
   xml:space="preserve"
   width="9.333333"
   height="9.333333"
   viewBox="0 0 9.333333 9.333333"
   sodipodi:docname="search.eps"><metadata
     id="metadata8"><rdf:RDF><cc:Work
         rdf:about=""><dc:format>image/svg+xml</dc:format><dc:type
           rdf:resource="http://purl.org/dc/dcmitype/StillImage" /></cc:Work></rdf:RDF></metadata><defs
     id="defs6" /><sodipodi:namedview
     pagecolor="#ffffff"
     bordercolor="#666666"
     borderopacity="1"
     objecttolerance="10"
     gridtolerance="10"
     guidetolerance="10"
     inkscape:pageopacity="0"
     inkscape:pageshadow="2"
     inkscape:window-width="640"
     inkscape:window-height="480"
     id="namedview4" /><g
     id="g10"
     inkscape:groupmode="layer"
     inkscape:label="ink_ext_XXXXXX"
     transform="matrix(1.3333333,0,0,-1.3333333,0,9.3333333)"><g
       id="g12"
       transform="scale(0.1)"><path
         d="m 13.8945,23.6094 c -8.35544,8.3515 -8.35544,21.9492 0,30.3008 8.3477,8.3515 21.9453,8.3515 30.2969,0 7.0899,-7.0899 8.1602,-17.6289 3.2227,-25.8555 0,0 -0.3555,-0.5977 0.125,-1.0742 L 58.4727,16.0508 c 1.2539,-1.2617 1.957,-2.8047 1.9531,-4.2578 v -0.0117 c 0,-1.0586 -0.3789,-2.06646 -1.1914,-2.88286 L 58.9023,8.57031 C 56.9727,6.63672 53.9297,7.15625 51.7539,9.33203 L 40.8438,20.2422 c -0.5,0.5 -1.0938,0.1484 -1.0938,0.1484 -8.2305,-4.9414 -18.7695,-3.8672 -25.8555,3.2188 z m 24.9766,16.4258 c 0.2852,0 0.5781,0.0507 0.8555,0.1718 1.1289,0.4766 1.6562,1.7735 1.1797,2.8985 -2.9922,7.0703 -11.1797,10.3867 -18.2461,7.3945 -1.125,-0.4766 -1.6524,-1.7734 -1.1758,-2.8984 0.4765,-1.125 1.7734,-1.6485 2.8984,-1.1719 4.8242,2.0391 10.4063,-0.2266 12.4492,-5.0469 0.3555,-0.8437 1.1758,-1.3476 2.0391,-1.3476 z m 1.3633,-12.4688 c 6.1758,6.1719 6.1758,16.2149 0,22.3867 -6.168,6.1719 -16.2149,6.1719 -22.3867,0 -6.1719,-6.1718 -6.1719,-16.2148 0,-22.3867 6.1718,-6.1758 16.2187,-6.1758 22.3867,0"
         style="fill:#808080;fill-opacity:1;fill-rule:evenodd;stroke:none"
         id="path14" /></g></g></svg>
