<?xml version="1.0" encoding="UTF-8" standalone="no"?>
<svg
   xmlns:dc="http://purl.org/dc/elements/1.1/"
   xmlns:cc="http://creativecommons.org/ns#"
   xmlns:rdf="http://www.w3.org/1999/02/22-rdf-syntax-ns#"
   xmlns:svg="http://www.w3.org/2000/svg"
   xmlns="http://www.w3.org/2000/svg"
   xmlns:sodipodi="http://sodipodi.sourceforge.net/DTD/sodipodi-0.dtd"
   xmlns:inkscape="http://www.inkscape.org/namespaces/inkscape"
   version="1.1"
   id="svg2"
   xml:space="preserve"
   viewBox="0 0 16 16"
   sodipodi:docname="secured_payment.eps"><metadata
     id="metadata8"><rdf:RDF><cc:Work
         rdf:about=""><dc:format>image/svg+xml</dc:format><dc:type
           rdf:resource="http://purl.org/dc/dcmitype/StillImage" /></cc:Work></rdf:RDF></metadata><defs
     id="defs6" /><sodipodi:namedview
     pagecolor="#ffffff"
     bordercolor="#666666"
     borderopacity="1"
     objecttolerance="10"
     gridtolerance="10"
     guidetolerance="10"
     inkscape:pageopacity="0"
     inkscape:pageshadow="2"
     inkscape:window-width="640"
     inkscape:window-height="480"
     id="namedview4" /><g
     id="g10"
     inkscape:groupmode="layer"
     inkscape:label="ink_ext_XXXXXX"
     transform="matrix(1.3333333,0,0,-1.3333333,0,16)"><g
       id="g12"
       transform="scale(0.1)"><path
         d="m 19.9141,85.1484 85.1799,21.8906 -0.707,3.332 c -0.805,3.414 -3.985,5.641 -7.387,5.684 h -0.1875 c -0.5664,-0.008 -1.1406,-0.075 -1.7109,-0.207 L 24.668,97.7656 C 20.625,96.8164 18.2422,92.5273 19.1914,88.4844 Z M 97.2539,62.3047 c 0,4.2851 -3.3359,7.6133 -7.6211,7.6133 H 16.8164 c -4.2812,0 -7.61718,-3.3282 -7.61718,-7.6133 V 15.6641 c 0,-4.2852 3.33598,-7.60941 7.61718,-7.60941 h 72.8164 c 4.2852,0 7.6211,3.32421 7.6211,7.60941 z M 17.5352,56.832 c 0,1.9063 1.6562,3.5664 3.5664,3.5664 h 40.457 c 1.8906,0 3.5664,-1.6601 3.5664,-3.5664 0,-1.9023 -1.6758,-3.5664 -3.5664,-3.5664 h -40.457 c -1.9102,0 -3.5664,1.6641 -3.5664,3.5664 z m 45.914,-41.8867 c -6.6562,0 -12.1289,5.4844 -12.1289,12.1445 0,6.6524 5.4727,11.8946 12.1289,11.8946 6.6719,0 12.1446,-5.4727 12.1446,-12.1446 0,-6.6562 -5.4727,-11.8945 -12.1446,-11.8945 z m 26.1836,11.8945 c 0,-6.6562 -5.4765,-12.1289 -12.1328,-12.1289 -0.7227,0 -1.6758,0 -2.3828,0.2344 3.0898,3.1016 4.7656,7.1445 4.7656,11.8945 0,4.7696 -1.9062,8.8125 -4.7656,11.9024 0.707,0.2422 1.4297,0.2422 2.3828,0.2422 6.9023,0 12.1328,-5.4727 12.1328,-12.1446 z m 20.9332,29.0391 c 4.055,0.9531 6.426,5.2422 5.485,9.2852 L 109.148,92.2813 49.6641,77.0625 H 89.875 c 8.0859,0 14.742,-6.668 14.742,-14.7578 v -8.0859 l 5.949,1.6601"
         id="path14" /></g></g></svg>
