<?xml version="1.0" encoding="UTF-8"?>
<!DOCTYPE svg PUBLIC "-//W3C//DTD SVG 1.1//EN" "http://www.w3.org/Graphics/SVG/1.1/DTD/svg11.dtd">
<!-- Creator: CorelDRAW -->
<svg xmlns="http://www.w3.org/2000/svg" xml:space="preserve" version="1.1" style="shape-rendering:geometricPrecision; text-rendering:geometricPrecision; image-rendering:optimizeQuality; fill-rule:evenodd; clip-rule:evenodd"
viewBox="0 0 1845.42 3283.67"
 xmlns:xlink="http://www.w3.org/1999/xlink"
 xmlns:xodm="http://www.corel.com/coreldraw/odm/2003">
 <defs>
  <style type="text/css">
   <![CDATA[
    .fil0 {fill:aqua}
   ]]>
  </style>
 </defs>
 <g id="Слой_x0020_1">
  <metadata id="CorelCorpID_0Corel-Layer"/>
  <path class="fil0" d="M639.67 0c316.49,0 573.07,256.58 573.07,573.07 0,244.67 -153.33,453.47 -369.15,535.66l0 263.69c35.64,-47.67 88.57,-77.98 147.67,-77.98 73.91,0 138.17,47.14 170.98,116.56 32.82,-69.42 97.05,-116.56 170.96,-116.56 107.29,0 194.25,99.34 194.25,221.91l0 8.92c29.34,-58.52 84.43,-98.04 147.67,-98.04 94.03,0 170.22,87.04 170.3,194.43l0 1236.63c0,234.87 -160.88,425.38 -359.19,425.38l-674.41 0c-114.96,0 -197.78,-69.62 -264.96,-168.14 -69.87,-102.51 -522.86,-1053.54 -522.86,-1053.54 -51.63,-107.48 -17.14,-242.3 76.88,-301.28 29.64,-18.51 61.7,-27.35 93.27,-27.35 68.65,0 135.17,41.76 170.45,115.36l90.52 188.64 0 -921.6c-225.95,-76.83 -388.52,-290.76 -388.52,-542.69 0,-316.49 256.57,-573.07 573.07,-573.07zm203.92 923.29l0 -239.15c0,-122.57 -86.96,-221.91 -194.25,-221.91 -107.28,0 -194.22,99.36 -194.22,221.91l0 249.77c-131.01,-67.13 -220.66,-203.52 -220.66,-360.84 0,-223.79 181.42,-405.24 405.21,-405.24 223.78,0 405.23,181.45 405.23,405.24 0,149.45 -80.92,279.97 -201.31,350.22z"/>
 </g>
</svg>
