<?xml version="1.0" encoding="UTF-8"?>
<!DOCTYPE svg PUBLIC "-//W3C//DTD SVG 1.1//EN" "http://www.w3.org/Graphics/SVG/1.1/DTD/svg11.dtd">
<!-- Creator: CorelDRAW -->
<svg xmlns="http://www.w3.org/2000/svg" xml:space="preserve" version="1.1" style="shape-rendering:geometricPrecision; text-rendering:geometricPrecision; image-rendering:optimizeQuality; fill-rule:evenodd; clip-rule:evenodd"
viewBox="0 0 28.21 24.38"
 xmlns:xlink="http://www.w3.org/1999/xlink"
 xmlns:xodm="http://www.corel.com/coreldraw/odm/2003">
 <g id="layer_x0020_1">
  <metadata id="CorelCorpID_0Corel-Layer"/>
  <path class="fil0" d="M16.22 7.38c1.05,0 1.91,0.72 1.91,1.62l0.65 0c0.45,0 0.81,0.37 0.81,0.81l0 5.11c0,0.45 -0.36,0.81 -0.81,0.81l-5.12 0c-0.45,0 -0.82,-0.36 -0.82,-0.81l0 -5.11c0,-0.44 0.37,-0.81 0.82,-0.81l0.65 0c0,-0.9 0.85,-1.62 1.91,-1.62zm-0.2 -7.38c-6.72,0 -12.18,5.47 -12.18,12.19l0 0.04 -2.42 -3.63c-0.23,-0.36 -0.72,-0.46 -1.07,-0.22 -0.36,0.23 -0.46,0.72 -0.22,1.07l3.5 5.27c0.13,0.19 0.33,0.31 0.55,0.34 0.04,0.01 0.06,0.01 0.1,0.01 0.19,0 0.37,-0.07 0.52,-0.21l4.86 -4.38c0.32,-0.28 0.35,-0.77 0.06,-1.1 -0.29,-0.31 -0.78,-0.34 -1.1,-0.05l-3.23 2.92 0 -0.06c0,-5.87 4.77,-10.64 10.63,-10.64 5.86,0 10.63,4.77 10.63,10.64 0,5.86 -4.77,10.63 -10.63,10.63 -2.83,0 -5.51,-1.1 -7.51,-3.11 -0.3,-0.31 -0.79,-0.31 -1.1,0 -0.3,0.3 -0.3,0.79 0,1.1 2.3,2.3 5.36,3.57 8.61,3.57 6.72,0 12.19,-5.47 12.19,-12.19 0,-6.73 -5.47,-12.19 -12.19,-12.19zm-1.27 9l2.93 0c0,-0.69 -0.66,-1.24 -1.46,-1.24 -0.81,0 -1.46,0.55 -1.47,1.24z"/>
 </g>
</svg>
