<?xml version="1.0" encoding="UTF-8" standalone="no"?>
<svg
   xmlns:dc="http://purl.org/dc/elements/1.1/"
   xmlns:cc="http://creativecommons.org/ns#"
   xmlns:rdf="http://www.w3.org/1999/02/22-rdf-syntax-ns#"
   xmlns:svg="http://www.w3.org/2000/svg"
   xmlns="http://www.w3.org/2000/svg"
   viewBox="0 0 218.66667 252"
   height="252"
   width="218.66667"
   xml:space="preserve"
   id="svg2"
   version="1.1"><metadata
     id="metadata8"><rdf:RDF><cc:Work
         rdf:about=""><dc:format>image/svg+xml</dc:format><dc:type
           rdf:resource="http://purl.org/dc/dcmitype/StillImage" /></cc:Work></rdf:RDF></metadata><defs
     id="defs6" /><g
     transform="matrix(1.3333333,0,0,-1.3333333,0,252)"
     id="g10"><g
       transform="scale(0.1)"
       id="g12"><path
         id="path14"
         style="fill:#333333;fill-opacity:1;fill-rule:evenodd;stroke:none"
         d="m 757.715,1703.78 c -85.145,44.6 -12.16,129.74 36.492,89.2 4.055,0 12.164,-8.11 36.492,0 4.051,0 40.543,28.38 68.93,-4.05 16.215,-16.22 20.273,-44.6 0,-64.88 4.051,-4.05 8.109,-12.16 12.16,-16.21 178.401,8.1 324.371,28.37 478.441,64.87 v 81.09 c 0,16.22 -16.21,28.38 -32.43,24.33 -425.734,-97.32 -952.835,-20.28 -1082.581,4.05 -16.219,4.05 -32.438,-8.11 -32.438,-24.33 v -85.15 c 174.348,-44.59 340.586,-64.86 514.934,-68.92 z m -24.324,-85.15 c 0,-8.11 12.164,-12.16 12.164,0 8.109,68.93 60.82,109.48 68.929,113.53 4.051,-4.05 56.762,-24.32 77.036,-113.53 4.054,-8.11 16.222,-4.05 12.164,4.06 -16.215,68.92 -48.653,101.36 -68.93,113.52 4.055,0 12.164,4.06 16.219,4.06 4.054,-4.06 8.109,-8.11 16.218,-8.11 28.383,0 28.383,40.54 0,40.54 -12.164,0 -20.273,-8.11 -20.273,-20.27 -28.383,-8.11 -48.656,-8.11 -60.82,0 v 4.06 c 0,12.16 -8.11,20.27 -20.27,20.27 -28.383,0 -28.383,-40.55 0,-40.55 4.051,0 12.16,4.06 12.16,4.06 4.055,0 8.11,-4.06 12.164,-4.06 -16.214,-20.27 -52.707,-56.76 -56.761,-117.58 z M 1633.52,207.641 C 1410.51,114.387 1106.41,45.457 879.355,134.656 c 0,-16.215 0,-28.379 4.055,-36.488 0,-24.3282 16.219,-48.6563 40.547,-56.7657 239.223,-97.3086 551.423,12.1641 673.063,60.8207 28.39,12.164 44.61,40.543 40.55,68.925 -4.05,-4.054 -4.05,8.11 -4.05,36.493 z m -4.06,28.379 c -12.16,202.73 -52.71,819.02 -125.69,1208.26 v 0 c -166.24,40.55 -267.61,206.79 -295.99,255.44 -93.26,-16.21 -182.46,-24.32 -279.768,-28.38 4.054,-12.16 8.109,-28.38 12.164,-40.54 12.16,-60.82 -77.039,-81.09 -93.258,-20.27 -8.109,28.38 -16.219,48.65 -24.328,60.82 l -16.215,-0.01 c -8.113,-12.16 -20.273,-32.44 -20.273,-56.77 -4.055,-64.87 -129.75,-68.92 -85.149,56.77 -93.258,4.05 -186.515,12.16 -275.715,28.38 C 396.855,1647.01 295.492,1484.83 129.25,1444.28 60.3242,1059.1 15.7188,438.75 7.60938,236.02 121.141,187.367 490.113,49.5078 761.77,163.039 c 12.164,198.672 44.601,766.313 44.601,766.313 0,0 4.055,28.382 16.215,32.437 12.164,0 16.223,-32.437 16.223,-32.437 8.105,-137.856 32.433,-575.747 44.597,-766.313 267.604,-113.5312 632.524,24.328 746.054,72.981 z M 3.55469,207.641 c 0,-16.219 0,-28.379 0,-36.493 0,-4.05 0,-4.05 0,0 C -0.496094,142.77 15.7188,110.328 44.1016,102.223 161.684,53.5703 477.945,-55.9063 717.172,41.4023 c 24.324,8.1055 40.543,32.4336 40.543,56.7657 0,4.055 0,16.219 4.055,36.488 C 530.66,45.457 230.613,114.387 3.55469,207.641 Z M 396.855,1703.78 c -60.82,12.16 -117.585,24.33 -174.347,36.49 -32.438,-40.55 -56.766,-137.86 -85.153,-263.55 141.915,40.55 235.172,182.46 259.5,227.06 z M 1499.71,1476.72 c -24.32,125.69 -52.71,223 -85.15,263.55 -56.76,-16.22 -117.58,-28.38 -178.4,-36.49 28.38,-44.6 121.64,-186.51 263.55,-227.06" /></g></g></svg>