<?xml version="1.0" encoding="UTF-8"?>
<!DOCTYPE svg PUBLIC "-//W3C//DTD SVG 1.1//EN" "http://www.w3.org/Graphics/SVG/1.1/DTD/svg11.dtd">
<!-- Creator: CorelDRAW X6 -->
<svg xmlns="http://www.w3.org/2000/svg" xml:space="preserve" version="1.1" style="shape-rendering:geometricPrecision; text-rendering:geometricPrecision; image-rendering:optimizeQuality; fill-rule:evenodd; clip-rule:evenodd"
viewBox="0 0 42645 34651"
 xmlns:xlink="http://www.w3.org/1999/xlink">
 <defs>
  <style type="text/css">
   <![CDATA[
    .fil0 {fill:#333333}
   ]]>
  </style>
 </defs>
 <g id="Слой_x0020_1">
  <metadata id="CorelCorpID_0Corel-Layer"/>
  <path class="fil0" d="M42645 4103c-1569,697 -3255,1162 -5026,1376 1806,-1089 3197,-2798 3848,-4843 -1689,1000 -3565,1736 -5556,2127 -1596,-1701 -3871,-2763 -6385,-2763 -4836,0 -8749,3917 -8749,8749 0,678 81,1348 229,1995 -7269,-368 -13720,-3851 -18037,-9144 -752,1294 -1178,2790 -1178,4402 0,3034 1538,5707 3890,7277 -1438,-50 -2786,-442 -3964,-1097 0,43 0,74 0,108 0,4243 3018,7773 7013,8582 -732,198 -1503,302 -2305,302 -562,0 -1112,-46 -1643,-147 1112,3468 4344,6002 8168,6068 -2991,2348 -6761,3747 -10857,3747 -713,0 -1407,-35 -2092,-116 3875,2476 8470,3925 13418,3925 16088,0 24887,-13329 24887,-24891 0,-376 -8,-759 -27,-1135 1713,-1224 3189,-2770 4367,-4522z"/>
 </g>
</svg>
