<?xml version="1.0" encoding="UTF-8" standalone="no"?>
<svg
   xmlns:dc="http://purl.org/dc/elements/1.1/"
   xmlns:cc="http://creativecommons.org/ns#"
   xmlns:rdf="http://www.w3.org/1999/02/22-rdf-syntax-ns#"
   xmlns:svg="http://www.w3.org/2000/svg"
   xmlns="http://www.w3.org/2000/svg"
   viewBox="0 0 456 306.66666"
   xml:space="preserve"
   id="svg2"
   version="1.1"><metadata
     id="metadata8"><rdf:RDF><cc:Work
         rdf:about=""><dc:format>image/svg+xml</dc:format><dc:type
           rdf:resource="http://purl.org/dc/dcmitype/StillImage" /></cc:Work></rdf:RDF></metadata><defs
     id="defs6" /><g
     transform="matrix(1.3333333,0,0,-1.3333333,0,306.66667)"
     id="g10"><g
       transform="scale(0.1)"
       id="g12"><path
         id="path14"
         style="fill:#333333;fill-opacity:1;fill-rule:evenodd;stroke:none"
         d="M 2261.68,225.262 3321.01,1300.91 C 2734.23,1156.16 2395.08,811.336 2261.68,225.262 Z m 1150.87,1169.308 -65.98,612.33 h -4.26 c -377.06,-33.7 -763.02,-54.83 -1151.74,-63.23 6.3,-440.21 323.4,-876.15 388.1,-960.272 217.4,217.892 502.49,345.082 833.87,410.462 l 0.01,0.71 z M 2159.52,120.957 c 0.71,0.707 0.71,0.707 0.71,1.422 40.57,66.484 57.89,459.746 368.69,809.133 -55.01,69.608 -402.78,529.728 -409.3,1011.388 -103.44,-1.82 -206.94,-3.4 -310.62,-3.4 l -63.85,-0.01 c -143.92,0.58 -289.65,3.19 -436.44,7.23 C 1305.67,1449.61 936.469,974.332 896.199,924.07 1219.84,571.098 1215.39,172.641 1254.86,117.406 c 23.42,-36.8982 66.69,-62.4412 111.39,-72.3708 226.35,-46.82426 451.27,-47.53129 678.31,-2.1289 46.84,9.2226 90.83,37.6093 114.96,78.0507 z M 79.1563,2018.96 7.49219,1406.63 v -0.7 l 0.71484,-0.01 C 340.813,1319.36 629.543,1185.43 845.75,974.871 c 56.125,72.339 390.16,523.109 392.08,974.459 -377.916,11.8 -763.475,34.23 -1152.9823,68.92 z m 1666.5137,-8.3 c 542.95,-1.9 1074.42,20.79 1590.12,66.64 l -12.52,143 -7.01,60.66 C 2267.55,2185 1199,2193.08 110.535,2292.19 l -4.476,-41.86 -15.0043,-161.69 C 651.176,2039.04 1204.15,2012.55 1745.67,2010.66 Z M 106.121,1304.46 1154.11,221.004 C 1054.77,768.758 719.867,1116.43 106.121,1304.46" /></g></g></svg>