<?xml version="1.0" encoding="UTF-8" standalone="no"?>
<svg
   xmlns:dc="http://purl.org/dc/elements/1.1/"
   xmlns:cc="http://creativecommons.org/ns#"
   xmlns:rdf="http://www.w3.org/1999/02/22-rdf-syntax-ns#"
   xmlns:svg="http://www.w3.org/2000/svg"
   xmlns="http://www.w3.org/2000/svg"
   xmlns:sodipodi="http://sodipodi.sourceforge.net/DTD/sodipodi-0.dtd"
   xmlns:inkscape="http://www.inkscape.org/namespaces/inkscape"
   version="1.1"
   id="svg2"
   xml:space="preserve"
   width="2.6666667"
   height="4"
   viewBox="0 0 2.6666667 4"
   sodipodi:docname="watched.eps"><metadata
     id="metadata8"><rdf:RDF><cc:Work
         rdf:about=""><dc:format>image/svg+xml</dc:format><dc:type
           rdf:resource="http://purl.org/dc/dcmitype/StillImage" /></cc:Work></rdf:RDF></metadata><defs
     id="defs6" /><sodipodi:namedview
     pagecolor="#ffffff"
     bordercolor="#666666"
     borderopacity="1"
     objecttolerance="10"
     gridtolerance="10"
     guidetolerance="10"
     inkscape:pageopacity="0"
     inkscape:pageshadow="2"
     inkscape:window-width="640"
     inkscape:window-height="480"
     id="namedview4" /><g
     id="g10"
     inkscape:groupmode="layer"
     inkscape:label="ink_ext_XXXXXX"
     transform="matrix(1.3333333,0,0,-1.3333333,0,4)"><g
       id="g12"
       transform="scale(0.1)"><path
         d="m 19.8203,12.6719 c -0.1055,1.1133 -0.4297,2.2734 -0.9258,3.3554 -0.4492,0.9883 -1.0429,1.9297 -1.7539,2.8047 -0.2031,0.2461 -0.4062,0.4844 -0.5117,0.5938 l -0.2422,0.2656 c -0.0625,0.0664 -0.1133,0.1211 -0.1601,0.168 l -0.0743,0.0742 c -0.0781,0.082 -0.1601,0.1641 -0.2304,0.2461 0,0.0078 -0.0078,0.0117 -0.0117,0.0195 -0.0352,0.0352 -0.0743,0.0742 -0.1133,0.1133 -0.0508,0.0547 -0.1094,0.1094 -0.1602,0.1758 -0.0039,0.0078 -0.0156,0.0156 -0.0195,0.0234 -0.3711,0.4063 -0.6836,0.7774 -0.9531,1.1289 -0.3125,0.418 -0.5391,0.7617 -0.7227,1.1211 -0.2148,0.4063 -0.3789,0.8633 -0.4805,1.3555 -0.0937,0.4453 -0.1523,0.9531 -0.164,1.5195 -0.0156,0.5 0.0156,0.9805 0.0469,1.3828 0.0234,0.2696 0.0468,0.5039 0.0742,0.7149 0.0195,0.164 -0.043,0.3242 -0.168,0.4336 -0.125,0.1054 -0.293,0.1445 -0.4492,0.1015 -0.2383,-0.0586 -0.4805,-0.1406 -0.7227,-0.2382 -0.5039,-0.2071 -1,-0.4961 -1.4765,-0.8516 C 10,26.7188 9.46875,26.1523 9.02734,25.4922 8.48828,24.6875 8.10547,23.7383 7.92188,22.7539 7.71094,21.6758 7.73828,20.4531 7.98438,19.3203 8.22266,18.2227 8.68359,17.1016 9.31641,16.0781 9.65234,15.543 9.97266,15.0977 10.2891,14.7227 c 0.0976,-0.1172 0.3593,-0.4219 0.3632,-0.4258 l 0.1016,-0.1211 c 0.0742,-0.082 0.125,-0.1445 0.1758,-0.207 0.0508,-0.0586 0.0937,-0.1055 0.1367,-0.1524 l 0.0078,-0.0117 c 0.4961,-0.5899 0.8477,-1.0274 1.1367,-1.4141 0.3164,-0.4258 0.5977,-0.8359 0.8555,-1.2539 0.2734,-0.4531 0.4688,-0.8437 0.6172,-1.23826 0.1641,-0.44531 0.2734,-0.92969 0.3242,-1.44141 0.043,-0.44922 0.0469,-0.95703 0,-1.53906 C 13.9609,6.38672 13.8789,5.90625 13.8125,5.55078 13.7656,5.3125 13.7188,5.08594 13.6758,4.89453 13.6367,4.73047 13.6875,4.55859 13.8008,4.4375 c 0.0976,-0.09766 0.2265,-0.14844 0.3594,-0.14844 0.0312,0 0.0625,0 0.0937,0.00782 0.2305,0.04296 0.457,0.10546 0.6797,0.17968 0.5195,0.17188 1.0273,0.41407 1.5195,0.73047 0.6328,0.39844 1.2032,0.91016 1.6992,1.52344 0.5977,0.73828 1.0665,1.62891 1.3516,2.57031 0.3242,1.05082 0.4336,2.21482 0.3164,3.37112 z M 10.0938,9.63672 C 9.88672,10.0859 9.61719,10.5195 9.29297,10.9141 9.21094,11.0156 9.10938,11.1289 9.0625,11.1797 l -0.11328,0.125 C 8.91797,11.3398 8.89844,11.3633 8.875,11.3867 L 8.84375,11.418 c -0.03516,0.0351 -0.07422,0.0742 -0.10547,0.1093 -0.0039,0.004 -0.00781,0.0157 -0.01562,0.0196 L 8.67969,11.5938 C 8.65625,11.6172 8.63281,11.6445 8.60938,11.668 8.60547,11.6758 8.59766,11.6836 8.59375,11.6875 8.42969,11.8672 8.28906,12.0352 8.16406,12.1953 8.05859,12.3359 7.9375,12.5039 7.83203,12.7109 7.73438,12.8945 7.66016,13.1016 7.61328,13.3281 7.57031,13.5313 7.54297,13.7617 7.53906,14.0234 7.53125,14.2344 7.54297,14.4375 7.55078,14.5703 7.56641,14.7461 7.48438,14.918 7.33984,15.0156 7.19141,15.1172 7.00391,15.1289 6.84766,15.0547 6.66016,14.9648 6.48047,14.8555 6.30859,14.7227 6.03125,14.5156 5.79297,14.2578 5.58984,13.957 5.41797,13.7031 5.19141,13.2773 5.08594,12.7109 4.98828,12.2148 5,11.6563 5.11328,11.1406 5.22266,10.6367 5.43359,10.125 5.72266,9.65625 5.87891,9.41406 6.02344,9.20703 6.16406,9.04297 6.20313,8.99219 6.29297,8.88672 6.33203,8.84375 V 8.83984 L 6.37891,8.79297 C 6.41406,8.75391 6.4375,8.71875 6.46094,8.69141 6.48047,8.66797 6.5,8.64844 6.51563,8.62891 L 6.52344,8.62109 C 6.67578,8.4375 6.875,8.19922 7.04297,7.97656 7.1875,7.78125 7.31641,7.59375 7.43359,7.39844 7.55859,7.19531 7.64844,7.01563 7.71484,6.83984 7.78906,6.63281 7.83984,6.41016 7.86328,6.17969 7.88281,5.97266 7.88281,5.74219 7.86328,5.47656 7.85156,5.32031 7.82813,5.15625 7.79688,4.97266 7.76953,4.79688 7.83594,4.61719 7.97266,4.50391 8.06641,4.43359 8.17578,4.39453 8.28516,4.39453 c 0.0625,0 0.125,0.01172 0.1875,0.03516 0.17187,0.07031 0.34375,0.16015 0.5039,0.26172 0.28907,0.1875 0.55078,0.41797 0.77735,0.69922 0.27739,0.33984 0.48829,0.74609 0.61719,1.17187 0.1445,0.47266 0.1953,1.02344 0.1445,1.53906 -0.0468,0.50782 -0.1953,1.03907 -0.4218,1.53516"
         style="fill:#e60094;fill-opacity:1;fill-rule:evenodd;stroke:none"
         id="path14" /></g></g></svg>
