<?xml version="1.0" encoding="UTF-8" standalone="no"?>
<svg
   xmlns:dc="http://purl.org/dc/elements/1.1/"
   xmlns:cc="http://creativecommons.org/ns#"
   xmlns:rdf="http://www.w3.org/1999/02/22-rdf-syntax-ns#"
   xmlns:svg="http://www.w3.org/2000/svg"
   xmlns="http://www.w3.org/2000/svg"
   xmlns:sodipodi="http://sodipodi.sourceforge.net/DTD/sodipodi-0.dtd"
   xmlns:inkscape="http://www.inkscape.org/namespaces/inkscape"
   version="1.1"
   id="svg2"
   xml:space="preserve"
   width="5.3333335"
   height="5.3333335"
   viewBox="0 0 5.3333335 5.3333335"
   sodipodi:docname="x-club.eps"><metadata
     id="metadata8"><rdf:RDF><cc:Work
         rdf:about=""><dc:format>image/svg+xml</dc:format><dc:type
           rdf:resource="http://purl.org/dc/dcmitype/StillImage" /></cc:Work></rdf:RDF></metadata><defs
     id="defs6" /><sodipodi:namedview
     pagecolor="#ffffff"
     bordercolor="#666666"
     borderopacity="1"
     objecttolerance="10"
     gridtolerance="10"
     guidetolerance="10"
     inkscape:pageopacity="0"
     inkscape:pageshadow="2"
     inkscape:window-width="640"
     inkscape:window-height="480"
     id="namedview4" /><g
     id="g10"
     inkscape:groupmode="layer"
     inkscape:label="ink_ext_XXXXXX"
     transform="matrix(1.3333333,0,0,-1.3333333,0,5.3333333)"><g
       id="g12"
       transform="scale(0.1)"><path
         d="m 19.3945,33.3164 c 10.6055,0 19.2032,-8.5976 19.2032,-19.1953 0,-5.09376 -1.9844,-9.72266 -5.2188,-13.156256 -0.2617,2.046876 -1.3594,3.999996 -2.3984,5.074216 -1.2578,1.30469 -3.6563,2.92578 -5.6602,2.92578 -0.5039,0 -0.3008,-0.07812 -0.5156,-0.57421 L 24.7148,8.16797 C 24.7109,8.15625 24.5117,7.80078 24.4883,7.76953 22.7461,5.39844 14.6992,5.01172 13.7773,8.96484 12.6211,8.96484 11.293,8.47266 10.457,8.07031 8.04297,6.90625 5.78516,4.0625 5.41016,0.964844 2.17578,4.40234 0.191406,9.03125 0.191406,14.1211 c 0,10.5977 8.597654,19.1953 19.203094,19.1953 z M 11.5938,18.4805 c 0,-6.168 7.125,-16.33206 13.2617,-7.0274 2.3554,3.5742 3.6172,8.8203 0.1992,12.2149 -0.8047,0.7929 -1.0313,1.082 -2.1211,1.6289 -0.9453,0.4726 -1.9023,0.7383 -2.8359,0.8281 H 18.6875 C 14.793,25.7617 11.5938,22.3945 11.5938,18.4805 Z m 1.25,-1.25 c 0,1.8515 0.9414,3.7968 2.0273,4.5234 0.7227,-3.1016 7.3281,-2.0195 9.5078,-1.8398 0.9531,0.0781 1.5703,-1.4414 1.5703,-2.6836 0,-3.1602 -3.3554,-8.26566 -6.5547,-8.26566 -3.1757,0 -6.5507,5.12496 -6.5507,8.26566"
         style="fill:#333333;fill-opacity:1;fill-rule:evenodd;stroke:none"
         id="path14" /></g></g></svg>
