<?xml version="1.0" encoding="UTF-8"?>
<!DOCTYPE svg PUBLIC "-//W3C//DTD SVG 1.1//EN" "http://www.w3.org/Graphics/SVG/1.1/DTD/svg11.dtd">
<!-- Creator: CorelDRAW -->
<svg xmlns="http://www.w3.org/2000/svg" xml:space="preserve" version="1.1"
viewBox="0 0 954.66 954.66"
 xmlns:xlink="http://www.w3.org/1999/xlink"
 xmlns:xodm="http://www.corel.com/coreldraw/odm/2003">
 <g id="layer_x0020_1">
  <metadata id="CorelCorpID_0Corel-Layer"/>
  <path class="fil0" d="M55.82 611.51c10.42,-3.57 21.96,-0.86 29.74,6.92l48.07 48.04 176.44 -176.44c11.27,-11.24 29.54,-11.24 40.78,0l113.77 113.78c11.24,11.24 11.24,29.51 0,40.78l-176.43 176.44 48.04 48.07c7.78,7.78 10.48,19.32 6.91,29.73 -3.57,10.41 -12.74,17.89 -23.68,19.28l-286.98 36.31c-8.87,1.13 -17.74,-1.91 -24.02,-8.23 -6.31,-6.27 -9.36,-15.15 -8.23,-24.02l36.31 -286.98c1.39,-10.93 8.87,-20.11 19.28,-23.68zm843.01 -268.37c-10.41,3.57 -21.95,0.87 -29.73,-6.91l-48.07 -48.04 -176.44 176.43c-11.27,11.24 -29.54,11.24 -40.78,0l-113.78 -113.77c-11.24,-11.24 -11.24,-29.51 0,-40.78l176.44 -176.44 -48.04 -48.07c-7.78,-7.78 -10.49,-19.32 -6.92,-29.74 3.57,-10.41 12.75,-17.89 23.68,-19.28l286.98 -36.31c8.87,-1.13 17.75,1.92 24.02,8.23 6.32,6.28 9.36,15.15 8.23,24.02l-36.31 286.98c-1.39,10.94 -8.87,20.11 -19.28,23.68z"/>
 </g>
</svg>
